<svg width="228" height="228" viewBox="0 0 228 228" fill="none" xmlns="http://www.w3.org/2000/svg">
<path d="M0 121.131V106.891C0.71 101.891 1.23 96.8913 2.18 91.9813C16.4 18.1613 98.68 -21.8787 165.57 12.4213C188.166 23.9093 206.289 42.6008 217.074 65.5411C227.859 88.4814 230.69 114.362 225.12 139.091C215.34 183.531 178.42 218.671 133.56 226.191C129.41 226.891 125.22 227.351 121.05 227.921H106.81C106.31 227.801 105.81 227.641 105.32 227.561C100.12 226.801 94.87 226.301 89.73 225.271C45.56 216.431 8.97001 178.461 1.78001 134.081C1.08001 129.781 0.55 125.451 0 121.131ZM172.87 113.941C172.86 102.283 169.394 90.8901 162.909 81.202C156.425 71.5139 147.214 63.9659 136.44 59.5124C125.666 55.0588 113.814 53.8997 102.381 56.1816C90.949 58.4635 80.4499 64.0838 72.2113 72.3321C63.9728 80.5804 58.3649 91.0862 56.0966 102.521C53.8284 113.957 55.0015 125.807 59.4678 136.576C63.9342 147.344 71.4931 156.547 81.1889 163.02C90.8847 169.493 102.282 172.945 113.94 172.941C129.576 172.923 144.565 166.699 155.614 155.636C166.664 144.573 172.87 129.577 172.87 113.941ZM6.73 110.541H48.38C48.8988 101.335 51.3089 92.3348 55.46 84.1013L19.45 63.3713C11.6258 77.902 7.27209 94.0469 6.73 110.541ZM221.13 110.541C220.59 94.0453 216.233 77.8991 208.4 63.3713L172.7 83.9813C174.29 88.4813 176.06 92.6413 177.22 96.9813C178.38 101.321 178.98 105.981 179.86 110.601L221.13 110.541ZM169.01 149.631C163.931 157.368 157.326 163.986 149.6 169.081L170.41 205.081C184.454 196.323 196.304 184.463 205.05 170.411L169.01 149.631ZM170.4 22.8613C163.4 35.0213 156.51 46.8613 149.59 58.9113C157.331 64.0091 163.952 70.6304 169.05 78.3713L205.05 57.5713C196.294 43.5218 184.442 31.6598 170.4 22.8913V22.8613ZM22.8 57.5213L58.86 78.3713C63.927 70.631 70.5302 64.0143 78.26 58.9313L57.45 22.9313C43.4075 31.6734 31.5543 43.5164 22.8 57.5513V57.5213ZM22.8 170.451C31.5507 184.499 43.4126 196.347 57.47 205.081L78.27 169.031C70.5276 163.972 63.9073 157.375 58.82 149.651L22.8 170.451ZM164.62 19.5413C150.093 11.7212 133.95 7.37737 117.46 6.85131V48.4913C126.637 48.9913 135.613 51.374 143.83 55.4913L164.62 19.5413ZM6.72 117.541C7.27474 134.036 11.6349 150.18 19.46 164.711L55.46 143.921C51.3147 135.705 48.8951 126.728 48.35 117.541H6.72ZM143.85 172.541C142.97 172.931 142.31 173.231 141.65 173.541C134.733 176.807 127.277 178.783 119.65 179.371C117.65 179.511 117.19 180.061 117.2 181.971C117.29 194.271 117.2 206.571 117.25 218.871C117.25 219.591 117.33 220.301 117.39 221.221C133.896 220.694 150.054 216.34 164.59 208.501L143.85 172.541ZM208.41 164.731C216.211 150.215 220.554 134.092 221.1 117.621H179.46C178.921 126.785 176.522 135.744 172.41 143.951L208.41 164.731ZM63.23 19.5413C70.23 31.6813 77.11 43.5413 84.04 55.5413C92.2505 51.3894 101.226 48.9661 110.41 48.4213V6.84131C93.9149 7.3829 77.7681 11.7293 63.23 19.5413ZM83.99 172.541L63.24 208.471C77.7162 216.275 93.8035 220.618 110.24 221.161C110.373 220.911 110.477 220.646 110.55 220.371C110.55 207.251 110.57 194.135 110.61 181.021C110.61 179.661 109.91 179.501 108.81 179.431C102.523 178.979 96.3389 177.594 90.46 175.321C88.32 174.481 86.26 173.501 83.99 172.531V172.541Z" fill="black"/>
<path d="M131.07 110.521C128.63 107.191 126.07 103.971 123.6 100.671C121.4 97.7314 119.26 94.7714 118.34 91.1114C118.168 90.3527 117.728 89.6811 117.103 89.2187C116.477 88.7562 115.706 88.5337 114.93 88.5914C114.185 88.5291 113.441 88.7316 112.83 89.1632C112.22 89.5949 111.78 90.228 111.59 90.9514C110.48 95.0414 108.01 98.3314 105.5 101.601C102.999 104.648 100.663 107.826 98.5002 111.121C96.8589 113.487 95.8816 116.25 95.6702 119.121C95.617 121.679 96.0743 124.222 97.0154 126.602C97.9565 128.981 99.3624 131.149 101.151 132.978C102.94 134.808 105.075 136.262 107.432 137.257C109.79 138.252 112.322 138.767 114.88 138.771C116.416 138.745 117.945 138.578 119.45 138.271C130.91 135.771 139 121.371 131.07 110.521ZM125.42 126.441C124.096 128.56 122.146 130.215 119.841 131.179C117.536 132.142 114.988 132.367 112.55 131.821C110.202 131.389 108.032 130.279 106.306 128.628C104.581 126.977 103.376 124.858 102.84 122.531C102.501 121.306 102.429 120.021 102.629 118.765C102.829 117.509 103.297 116.311 104 115.251C106.07 111.801 108.72 108.791 111.1 105.581C112.38 103.861 113.65 102.141 115.1 100.221C118.1 105.001 121.84 109.001 124.96 113.491C128.08 117.981 128.71 120.991 125.42 126.441Z" fill="black"/>
</svg>
