<svg width="240" height="304" viewBox="0 0 240 304" fill="none" xmlns="http://www.w3.org/2000/svg">
<path d="M0.030014 197.6C0.100014 197.6 0.220019 197.54 0.230019 197.48C1.44002 193.4 4.38002 191.18 8.23002 189.68C18.13 185.81 27.97 181.79 37.84 177.82C38.4049 177.562 38.9861 177.341 39.58 177.16C40.3786 176.969 41.219 177.066 41.9534 177.433C42.6878 177.8 43.2692 178.415 43.5952 179.168C43.9213 179.922 43.9712 180.767 43.7361 181.553C43.501 182.34 42.9961 183.019 42.31 183.47C41.6348 183.86 40.9292 184.194 40.2 184.47L10.2 196.57C9.98001 196.66 9.75001 196.71 9.53001 196.79C8.84633 196.978 8.24119 197.381 7.80371 197.939C7.36623 198.497 7.11956 199.181 7.10001 199.89C7.10001 201.62 8.10001 202.57 9.60001 203.17L31.21 211.85C57.47 222.35 83.74 232.933 110.02 243.6C113.138 244.919 116.491 245.594 119.876 245.584C123.262 245.573 126.61 244.878 129.72 243.54C158.58 231.88 187.453 220.247 216.34 208.64L228.65 203.6L229.95 203.08C230.674 202.888 231.313 202.461 231.766 201.865C232.218 201.269 232.459 200.539 232.45 199.79C232.45 198.07 231.3 197.18 229.82 196.6C227.51 195.69 225.21 194.74 222.91 193.81L198.91 184.15C198.399 183.972 197.901 183.758 197.42 183.51C196.627 183.113 196.016 182.428 195.713 181.595C195.41 180.762 195.437 179.844 195.789 179.03C196.141 178.216 196.791 177.568 197.605 177.218C198.42 176.869 199.338 176.844 200.17 177.15C201.93 177.76 203.64 178.53 205.37 179.22L231.52 189.71C232.17 189.97 232.81 190.24 233.44 190.54C235.293 191.312 236.863 192.637 237.936 194.333C239.01 196.029 239.535 198.015 239.44 200.02C239.495 201.987 238.942 203.924 237.856 205.565C236.769 207.206 235.203 208.472 233.37 209.19C229.81 210.76 226.18 212.13 222.58 213.58C192.347 225.793 162.107 237.993 131.86 250.18C128.017 251.804 123.887 252.64 119.715 252.64C115.543 252.64 111.413 251.804 107.57 250.18C79.65 238.9 51.7167 227.637 23.77 216.39C18.37 214.22 13.01 211.94 7.57001 209.88C3.98002 208.51 1.42002 206.32 0.360016 202.56C0.360016 202.44 0.14002 202.36 0.0200195 202.26L0.030014 197.6Z" fill="#216BDC"/>
<path d="M0.0299988 249.01C0.0999988 248.96 0.210003 248.94 0.230003 248.88C1.38 244.76 4.29 242.54 8.14 241.04C18.04 237.17 27.88 233.13 37.74 229.16C38.303 228.898 38.8846 228.677 39.48 228.5C40.314 228.267 41.2054 228.362 41.9715 228.766C42.7376 229.169 43.3203 229.851 43.6 230.67C43.9112 231.435 43.9291 232.287 43.6505 233.064C43.3718 233.841 42.8161 234.488 42.09 234.88C41.3353 235.27 40.5533 235.604 39.75 235.88L9.97 247.93C9.52601 248.075 9.09457 248.255 8.68 248.47C8.20037 248.734 7.79774 249.118 7.51178 249.585C7.22582 250.051 7.06641 250.585 7.04925 251.132C7.03209 251.679 7.15778 252.221 7.41393 252.705C7.67007 253.188 8.04784 253.597 8.51 253.89C9.0477 254.194 9.61369 254.446 10.2 254.64L106.29 293.37C108.09 294.09 109.89 294.82 111.71 295.48C117.012 297.482 122.868 297.439 128.14 295.36C136.24 292.21 144.29 288.94 152.35 285.7L228.86 254.96C229.44 254.73 229.99 254.44 230.56 254.19C231.146 253.961 231.647 253.557 231.994 253.033C232.342 252.508 232.518 251.889 232.5 251.26C232.527 250.632 232.357 250.012 232.012 249.486C231.668 248.96 231.167 248.556 230.58 248.33C228.8 247.54 226.99 246.85 225.19 246.12L198.85 235.49C198.412 235.334 197.985 235.15 197.57 234.94C196.838 234.533 196.277 233.877 195.989 233.09C195.701 232.304 195.705 231.44 196.001 230.657C196.297 229.873 196.865 229.222 197.601 228.823C198.337 228.423 199.192 228.302 200.01 228.48C200.536 228.612 201.048 228.793 201.54 229.02L231.78 241.17C232.36 241.41 232.92 241.68 233.48 241.94C235.276 242.748 236.799 244.057 237.869 245.711C238.938 247.364 239.506 249.291 239.506 251.26C239.506 253.229 238.938 255.156 237.869 256.809C236.799 258.463 235.276 259.772 233.48 260.58C230.23 262.07 226.87 263.29 223.56 264.58C193.4 276.734 163.24 288.883 133.08 301.03C129.586 302.543 125.872 303.488 122.08 303.83C117.231 304.195 112.364 303.432 107.86 301.6C74.38 288.12 40.9033 274.644 7.43 261.17C4.09 259.82 1.53 257.77 0.43 254.17C0.43 253.98 0.15 253.84 0 253.68L0.0299988 249.01Z" fill="#216BDC"/>
<path d="M159.221 77.6C159.205 82.3814 158.249 87.113 156.405 91.5247C154.561 95.9364 151.867 99.9417 148.475 103.312C145.083 106.682 141.061 109.352 136.638 111.167C132.215 112.983 127.477 113.91 122.696 113.895C117.914 113.88 113.183 112.923 108.771 111.079C104.359 109.236 100.354 106.541 96.9835 103.149C93.6132 99.7578 90.9439 95.7355 89.1281 91.3122C87.3123 86.889 86.3855 82.1514 86.4006 77.37C86.4906 59.09 100.291 41.28 122.921 41.37C145.911 41.53 159.231 59.69 159.221 77.6ZM151.941 77.46C151.921 71.6984 150.193 66.0719 146.977 61.2918C143.76 56.5116 139.199 52.7923 133.869 50.6039C128.539 48.4154 122.68 47.8561 117.032 48.9966C111.385 50.1372 106.202 52.9263 102.139 57.0115C98.0763 61.0968 95.3157 66.2948 94.2061 71.9486C93.0966 77.6024 93.6881 83.4582 95.9057 88.776C98.1234 94.0937 101.868 98.6347 106.665 101.825C111.463 105.015 117.099 106.712 122.861 106.7C130.587 106.679 137.99 103.592 143.442 98.1168C148.895 92.6419 151.951 85.2268 151.941 77.5V77.46Z" fill="#216BDC" stroke="#216BDC" stroke-width="0.51" stroke-miterlimit="10"/>
<path d="M91.2001 42.12C90.4239 43.2371 89.5025 44.2459 88.4602 45.12C87.0202 46.04 85.5301 45.45 84.3601 44.28C81.2601 41.2 78.1901 38.1 75.1101 35.02C73.0501 32.96 70.9701 30.93 68.9401 28.85C67.2001 27.05 67.1301 24.85 68.7001 23.37C70.2701 21.89 72.3501 22.06 74.0501 23.75C79.2235 28.8567 84.3602 34 89.4602 39.18C90.1462 40.0932 90.7297 41.0791 91.2001 42.12Z" fill="#216BDC" stroke="#216BDC" stroke-width="0.51" stroke-miterlimit="10"/>
<path d="M178.02 26.4501C177.676 27.2928 177.211 28.081 176.64 28.7901C171.54 33.9901 166.397 39.1467 161.21 44.2601C160.891 44.631 160.498 44.9309 160.056 45.1405C159.614 45.3501 159.133 45.4647 158.644 45.477C158.155 45.4892 157.669 45.3988 157.217 45.2116C156.765 45.0244 156.357 44.7445 156.02 44.3901C154.47 42.8701 154.5 40.7501 156.18 39.0601C161.32 33.8901 166.48 28.7601 171.63 23.6101C172.118 23.0167 172.786 22.5982 173.533 22.4178C174.28 22.2374 175.065 22.3049 175.77 22.6101C177.2 23.2301 177.86 24.3901 178.02 26.4501Z" fill="#216BDC" stroke="#216BDC" stroke-width="0.51" stroke-miterlimit="10"/>
<path d="M158.4 109.43C159.505 109.905 160.552 110.506 161.52 111.22C166.713 116.307 171.86 121.437 176.96 126.61C177.322 126.936 177.615 127.332 177.821 127.774C178.026 128.216 178.14 128.695 178.156 129.183C178.172 129.67 178.089 130.155 177.913 130.61C177.737 131.064 177.47 131.478 177.13 131.828C176.79 132.177 176.382 132.453 175.933 132.641C175.483 132.829 175 132.924 174.512 132.92C174.025 132.917 173.543 132.815 173.096 132.621C172.649 132.427 172.245 132.144 171.91 131.79C166.71 126.63 161.55 121.43 156.37 116.25C155.11 115 154.63 113.45 155.53 111.97C156.14 110.96 157.36 110.32 158.4 109.43Z" fill="#216BDC" stroke="#216BDC" stroke-width="0.51" stroke-miterlimit="10"/>
<path d="M90.4899 113.99C90.1881 114.789 89.7666 115.538 89.2399 116.21C84.0999 121.437 78.9199 126.63 73.6999 131.79C73.3739 132.179 72.9698 132.495 72.5136 132.718C72.0575 132.941 71.5596 133.066 71.0523 133.083C70.5449 133.101 70.0395 133.012 69.5688 132.822C69.0981 132.632 68.6727 132.345 68.3201 131.98C67.9676 131.615 67.6958 131.179 67.5224 130.702C67.349 130.225 67.2779 129.717 67.3137 129.21C67.3495 128.704 67.4914 128.211 67.7303 127.763C67.9691 127.315 68.2994 126.922 68.6999 126.61C73.8299 121.44 78.9899 116.32 84.1199 111.17C84.6109 110.581 85.2788 110.165 86.0244 109.985C86.7701 109.805 87.554 109.87 88.2599 110.17C89.6499 110.8 90.3299 111.95 90.4899 113.99Z" fill="#216BDC" stroke="#216BDC" stroke-width="0.51" stroke-miterlimit="10"/>
<path d="M60.6898 73.9202H71.0598C73.8998 73.9202 75.4998 75.2802 75.4798 77.6002C75.4598 79.9202 73.8598 81.2002 71.1598 81.2002C64.0731 81.2002 56.9765 81.2002 49.8698 81.2002C47.3998 81.2002 45.8098 79.7302 45.8698 77.5202C45.9298 75.3102 47.4798 73.9302 49.9898 73.9202H60.6898Z" fill="#216BDC" stroke="#216BDC" stroke-width="0.51" stroke-miterlimit="10"/>
<path d="M184.349 73.92C187.929 73.92 191.509 73.92 195.089 73.92C197.749 73.92 199.339 75.35 199.299 77.62C199.259 79.89 197.689 81.18 195.139 81.19C187.979 81.19 180.819 81.19 173.659 81.19C171.209 81.19 169.609 79.69 169.659 77.49C169.709 75.29 171.249 73.93 173.659 73.92C177.189 73.91 180.769 73.92 184.349 73.92Z" fill="#216BDC" stroke="#216BDC" stroke-width="0.51" stroke-miterlimit="10"/>
<path d="M119.17 15.46C119.17 12 119.17 8.54 119.17 5.08C119.17 2.59 120.65 1 122.84 1C125.03 1 126.44 2.57 126.44 5.12C126.44 12.1 126.44 19.08 126.44 26.06C126.44 28.61 125.06 30.19 122.88 30.23C120.7 30.27 119.18 28.67 119.17 26.02C119.15 22.5 119.17 18.98 119.17 15.46Z" fill="#216BDC" stroke="#216BDC" stroke-width="0.51" stroke-miterlimit="10"/>
<path d="M126.45 139.67C126.45 143.07 126.45 146.47 126.45 149.87C126.45 152.52 125.02 154.11 122.75 154.08C120.48 154.05 119.19 152.46 119.18 149.91C119.18 142.93 119.18 135.95 119.18 128.97C119.18 126.47 120.63 124.87 122.81 124.84C124.99 124.81 126.43 126.39 126.45 128.93C126.47 132.51 126.45 136.09 126.45 139.67Z" fill="#216BDC" stroke="#216BDC" stroke-width="0.51" stroke-miterlimit="10"/>
<path d="M90.66 204.08V144.03C90.6033 143.166 90.6267 142.299 90.73 141.44C90.8603 140.446 91.3475 139.534 92.101 138.872C92.8544 138.211 93.8226 137.847 94.825 137.847C95.8275 137.847 96.7957 138.211 97.5491 138.872C98.3025 139.534 98.7898 140.446 98.92 141.44C99.0152 142.3 99.0353 143.167 98.98 144.03V204.03C102.2 201.49 105.14 199.19 108.08 196.88C108.97 196.18 109.83 195.45 110.74 194.8C112.92 193.25 115.27 193.45 116.74 195.28C118.21 197.11 118 199.5 115.91 201.22C112.57 203.98 109.15 206.62 105.76 209.3C103.18 211.35 100.61 213.4 98.02 215.42C95.58 217.33 94.09 217.42 91.74 215.55C85.88 210.963 80.0467 206.343 74.24 201.69C71.67 199.63 71.24 197.25 72.93 195.23C74.62 193.21 76.93 193.23 79.37 195.15C83.04 198 86.65 200.9 90.66 204.08Z" fill="#216BDC"/>
<path d="M145.05 204.08C145.05 183.68 145.05 163.86 145.05 144.03C144.99 143.167 145.01 142.3 145.11 141.44C145.24 140.446 145.727 139.534 146.481 138.872C147.234 138.211 148.202 137.847 149.205 137.847C150.207 137.847 151.175 138.211 151.929 138.872C152.682 139.534 153.17 140.446 153.3 141.44C153.395 142.3 153.415 143.167 153.36 144.03V204.03C156.58 201.49 159.52 199.19 162.46 196.88C163.35 196.18 164.21 195.45 165.12 194.8C167.3 193.25 169.65 193.45 171.12 195.28C172.59 197.11 172.38 199.5 170.29 201.22C166.96 203.98 163.53 206.62 160.14 209.3C157.56 211.35 155 213.4 152.41 215.42C149.82 217.44 148.48 217.42 146.12 215.55C140.26 210.963 134.43 206.343 128.63 201.69C126.05 199.63 125.63 197.25 127.31 195.23C128.99 193.21 131.31 193.23 133.75 195.15C137.43 198 141.05 200.9 145.05 204.08Z" fill="#216BDC"/>
</svg>
