<svg width="245" height="116" viewBox="0 0 245 116" fill="none" xmlns="http://www.w3.org/2000/svg">
<path d="M239.75 115.107H4.57C3.35796 115.107 2.19557 114.625 1.33852 113.768C0.481483 112.911 0 111.749 0 110.537C0 109.325 0.481483 108.162 1.33852 107.305C2.19557 106.448 3.35796 105.967 4.57 105.967H239.75C240.962 105.967 242.124 106.448 242.981 107.305C243.839 108.162 244.32 109.325 244.32 110.537C244.32 111.749 243.839 112.911 242.981 113.768C242.124 114.625 240.962 115.107 239.75 115.107Z" fill="black"/>
<path d="M151.64 108.307C150.908 108.307 150.186 108.132 149.535 107.797C148.884 107.461 148.324 106.974 147.9 106.377L79.06 8.83663C78.3599 7.84605 78.0819 6.6179 78.2872 5.42236C78.4926 4.22681 79.1645 3.16181 80.155 2.46163C81.1456 1.76146 82.3738 1.48348 83.5693 1.68884C84.7649 1.89419 85.8299 2.56605 86.53 3.55663L151.53 95.6266L210.79 5.54664C211.099 5.00442 211.516 4.53122 212.015 4.15621C212.513 3.7812 213.084 3.51233 213.69 3.36617C214.297 3.22002 214.927 3.19967 215.542 3.30639C216.157 3.41311 216.744 3.64464 217.266 3.98669C217.788 4.32874 218.234 4.77407 218.577 5.29524C218.92 5.8164 219.153 6.40236 219.262 7.01698C219.37 7.6316 219.351 8.26186 219.206 8.86891C219.061 9.47596 218.794 10.0469 218.42 10.5466L155.46 106.257C155.044 106.869 154.485 107.371 153.832 107.719C153.178 108.067 152.45 108.252 151.71 108.257L151.64 108.307Z" fill="black"/>
<path d="M217.9 33.9268C216.712 33.9274 215.571 33.4651 214.717 32.6382C213.864 31.8112 213.367 30.6844 213.33 29.4968L212.81 11.4968L192.74 13.6568C192.144 13.7225 191.54 13.6699 190.963 13.5022C190.386 13.3344 189.849 13.0548 189.38 12.6792C188.912 12.3035 188.522 11.8393 188.233 11.313C187.944 10.7867 187.761 10.2087 187.695 9.6118C187.63 9.01494 187.682 8.41099 187.85 7.83444C188.018 7.25789 188.297 6.72003 188.673 6.25155C189.049 5.78308 189.513 5.39318 190.039 5.10411C190.565 4.81504 191.144 4.63246 191.74 4.5668L216.74 1.8768C217.367 1.8074 218.002 1.86885 218.604 2.05728C219.206 2.24571 219.762 2.557 220.238 2.97148C220.714 3.38596 221.098 3.89461 221.367 4.46527C221.636 5.03593 221.783 5.65618 221.8 6.2868L222.47 29.2168C222.489 29.8165 222.389 30.414 222.176 30.975C221.964 31.5361 221.642 32.0497 221.231 32.4863C220.819 32.9229 220.326 33.274 219.778 33.5195C219.231 33.765 218.64 33.9 218.04 33.9168L217.9 33.9268Z" fill="black"/>
<path d="M102.47 108.307C101.745 108.308 101.03 108.137 100.384 107.806C99.739 107.476 99.182 106.996 98.7597 106.407L29.6797 10.4067C29.3291 9.91945 29.0779 9.36795 28.9404 8.78365C28.8029 8.19935 28.7818 7.59369 28.8784 7.00126C28.975 6.40882 29.1873 5.84122 29.5032 5.33083C29.8192 4.82045 30.2325 4.37728 30.7197 4.02665C31.2069 3.67602 31.7584 3.42479 32.3427 3.2873C32.927 3.1498 33.5327 3.12874 34.1251 3.22532C34.7176 3.32189 35.2852 3.5342 35.7956 3.85013C36.3059 4.16607 36.7491 4.57945 37.0997 5.06666L102.3 95.6567L161.6 5.52665C161.909 4.98442 162.325 4.51123 162.824 4.13622C163.323 3.76121 163.893 3.49234 164.5 3.34618C165.107 3.20003 165.737 3.17968 166.352 3.2864C166.967 3.39312 167.553 3.62464 168.075 3.9667C168.597 4.30875 169.044 4.75408 169.387 5.27524C169.73 5.79641 169.963 6.38237 170.071 6.99698C170.179 7.6116 170.161 8.24186 170.016 8.84891C169.871 9.45596 169.604 10.0269 169.23 10.5266L106.29 106.257C105.874 106.865 105.318 107.364 104.669 107.712C104.02 108.06 103.296 108.247 102.56 108.257L102.47 108.307Z" fill="black"/>
<path d="M171.6 32.0868C170.411 32.0847 169.269 31.6203 168.416 30.7917C167.564 29.9631 167.066 28.8353 167.03 27.6468L166.51 9.64676L146.46 11.8168C145.255 11.9494 144.046 11.5977 143.1 10.8391C142.154 10.0805 141.548 8.97717 141.415 7.77176C141.283 6.56635 141.634 5.35764 142.393 4.41152C143.151 3.4654 144.255 2.85937 145.46 2.72676L170.46 0.0267528C171.086 -0.041453 171.72 0.0211048 172.321 0.210453C172.921 0.399802 173.476 0.711822 173.95 1.12676C174.425 1.54151 174.809 2.04933 175.079 2.61872C175.349 3.1881 175.499 3.80692 175.52 4.43676L176.19 27.3668C176.209 27.967 176.109 28.565 175.896 29.1266C175.684 29.6882 175.363 30.2024 174.951 30.6399C174.54 31.0773 174.046 31.4293 173.499 31.6759C172.951 31.9224 172.36 32.0586 171.76 32.0768L171.6 32.0868Z" fill="black"/>
</svg>
