<svg width="245" height="207" viewBox="0 0 245 207" fill="none" xmlns="http://www.w3.org/2000/svg">
<path d="M239.75 206.849H4.57C3.35796 206.849 2.19557 206.368 1.33852 205.511C0.481483 204.654 0 203.492 0 202.279C0 201.067 0.481483 199.905 1.33852 199.048C2.19557 198.191 3.35796 197.709 4.57 197.709H239.75C240.962 197.709 242.124 198.191 242.981 199.048C243.839 199.905 244.32 201.067 244.32 202.279C244.32 203.492 243.839 204.654 242.981 205.511C242.124 206.368 240.962 206.849 239.75 206.849Z" fill="#216BDC"/>
<path d="M151.64 200.049C150.907 200.05 150.185 199.875 149.535 199.539C148.884 199.204 148.323 198.717 147.9 198.119L79.0595 100.579C78.3594 99.5887 78.0814 98.3606 78.2867 97.165C78.4921 95.9695 79.164 94.9045 80.1545 94.2043C81.1451 93.5041 82.3733 93.2262 83.5688 93.4315C84.7644 93.6369 85.8294 94.3087 86.5295 95.2993L151.53 187.369L210.79 97.2893C211.099 96.7471 211.515 96.2739 212.014 95.8989C212.513 95.5239 213.083 95.255 213.69 95.1089C214.297 94.9627 214.927 94.9423 215.542 95.0491C216.157 95.1558 216.743 95.3873 217.265 95.7294C217.787 96.0714 218.233 96.5167 218.577 97.0379C218.92 97.5591 219.153 98.145 219.261 98.7597C219.369 99.3743 219.35 100.005 219.206 100.612C219.061 101.219 218.793 101.79 218.42 102.289L155.46 197.999C155.043 198.612 154.484 199.113 153.831 199.462C153.178 199.81 152.45 199.995 151.71 199.999L151.64 200.049Z" fill="#216BDC"/>
<path d="M217.9 125.669C216.712 125.67 215.571 125.208 214.717 124.381C213.864 123.554 213.367 122.427 213.33 121.239L212.81 103.239L192.74 105.399C192.144 105.465 191.54 105.413 190.963 105.245C190.386 105.077 189.849 104.797 189.38 104.422C188.912 104.046 188.522 103.582 188.233 103.056C187.944 102.529 187.761 101.951 187.695 101.354C187.63 100.758 187.682 100.154 187.85 99.5771C188.018 99.0006 188.297 98.4627 188.673 97.9942C189.049 97.5258 189.513 97.1359 190.039 96.8468C190.565 96.5577 191.144 96.3751 191.74 96.3095L216.74 93.6195C217.367 93.5501 218.002 93.6115 218.604 93.8C219.206 93.9884 219.762 94.2997 220.238 94.7142C220.714 95.1286 221.098 95.6373 221.367 96.2079C221.636 96.7786 221.783 97.3989 221.8 98.0295L222.47 120.959C222.489 121.559 222.389 122.157 222.176 122.718C221.964 123.279 221.642 123.792 221.231 124.229C220.819 124.666 220.326 125.017 219.778 125.262C219.231 125.508 218.64 125.643 218.04 125.659L217.9 125.669Z" fill="#216BDC"/>
<path d="M102.469 200.049C101.744 200.051 101.029 199.88 100.384 199.549C99.7385 199.219 99.1815 198.739 98.7592 198.149L29.6792 102.149C29.3286 101.662 29.0774 101.111 28.9399 100.526C28.8024 99.942 28.7813 99.3364 28.8779 98.7439C28.9745 98.1515 29.1868 97.5839 29.5027 97.0735C29.8187 96.5631 30.232 96.12 30.7193 95.7693C31.2065 95.4187 31.7579 95.1675 32.3422 95.03C32.9265 94.8925 33.5322 94.8714 34.1246 94.968C34.7171 95.0646 35.2847 95.2769 35.7951 95.5928C36.3055 95.9087 36.7486 96.3221 37.0992 96.8093L102.299 187.399L161.599 97.2693C161.908 96.7271 162.325 96.2539 162.824 95.8789C163.323 95.5039 163.893 95.235 164.5 95.0889C165.106 94.9427 165.737 94.9224 166.351 95.0291C166.966 95.1358 167.553 95.3673 168.075 95.7094C168.597 96.0514 169.043 96.4968 169.386 97.0179C169.73 97.5391 169.963 98.125 170.071 98.7397C170.179 99.3543 170.16 99.9845 170.015 100.592C169.871 101.199 169.603 101.77 169.229 102.269L106.289 197.999C105.874 198.608 105.318 199.107 104.669 199.455C104.019 199.803 103.296 199.99 102.559 199.999L102.469 200.049Z" fill="#216BDC"/>
<path d="M171.6 123.829C170.411 123.827 169.269 123.363 168.416 122.534C167.564 121.706 167.066 120.578 167.03 119.389L166.51 101.389L146.46 103.559C145.255 103.692 144.046 103.34 143.1 102.582C142.154 101.823 141.548 100.72 141.415 99.5144C141.283 98.309 141.634 97.1003 142.393 96.1542C143.151 95.2081 144.255 94.602 145.46 94.4694L170.46 91.7694C171.086 91.7012 171.72 91.7638 172.321 91.9531C172.921 92.1425 173.476 92.4545 173.95 92.8694C174.425 93.2842 174.809 93.792 175.079 94.3614C175.349 94.9308 175.499 95.5496 175.52 96.1794L176.19 119.109C176.209 119.71 176.109 120.308 175.896 120.869C175.684 121.431 175.363 121.945 174.951 122.383C174.54 122.82 174.046 123.172 173.499 123.419C172.951 123.665 172.36 123.801 171.76 123.819L171.6 123.829Z" fill="#216BDC"/>
<path d="M25.7 71.1593C25.0754 71.1688 24.4553 71.0526 23.8764 70.8176C23.2976 70.5826 22.772 70.2337 22.3307 69.7915C21.8895 69.3493 21.5416 68.8229 21.3079 68.2436C21.0741 67.6643 20.9592 67.0439 20.97 66.4193V4.7393C20.9462 4.10747 21.0549 3.47766 21.2891 2.89037C21.5233 2.30307 21.8779 1.77131 22.33 1.32931C23.254 0.47469 24.4664 0 25.725 0C26.9837 0 28.196 0.47469 29.12 1.32931C29.5605 1.77797 29.9048 2.31181 30.1317 2.89816C30.3587 3.4845 30.4636 4.111 30.44 4.7393V66.3993C30.4564 67.0207 30.3481 67.6392 30.1213 68.218C29.8946 68.7968 29.5541 69.3243 29.12 69.7693C28.6787 70.2271 28.1464 70.5873 27.5573 70.8268C26.9683 71.0662 26.3356 71.1794 25.7 71.1593Z" fill="#216BDC"/>
<path d="M53.3994 71.1593C52.7747 71.1674 52.1548 71.0503 51.576 70.8149C50.9973 70.5796 50.4716 70.2307 50.0298 69.789C49.588 69.3472 49.2392 68.8215 49.0038 68.2427C48.7685 67.664 48.6514 67.044 48.6594 66.4193V4.73931C48.6356 4.1066 48.7453 3.47596 48.9814 2.88845C49.2174 2.30093 49.5745 1.7697 50.0294 1.32932C50.4744 0.8952 51.0019 0.554708 51.5807 0.327983C52.1596 0.101257 52.778 -0.00709715 53.3994 0.00931809H69.7894C74.004 -0.0744977 78.1708 0.913017 81.8994 2.87932C85.3218 4.69733 88.1764 7.42395 90.1494 10.7593C92.1887 14.3019 93.2257 18.3325 93.1494 22.4193C93.2374 26.266 92.2255 30.0578 90.2327 33.3491C88.2398 36.6404 85.3488 39.2945 81.8994 40.9993C78.1416 42.8826 73.9819 43.823 69.7794 43.7393H58.1294V66.3993C58.1459 67.0208 58.0375 67.6392 57.8108 68.218C57.584 68.7968 57.2436 69.3243 56.8094 69.7693C56.3697 70.2263 55.839 70.5862 55.2517 70.8256C54.6644 71.065 54.0334 71.1787 53.3994 71.1593ZM58.1294 34.9893H69.7894C72.34 35.0441 74.8678 34.4995 77.1694 33.3993C79.2186 32.4021 80.9498 30.8544 82.1694 28.9293C83.3999 26.9836 84.0359 24.7212 83.9995 22.4193C84.0456 19.9272 83.4131 17.4695 82.1694 15.3093C80.9807 13.2686 79.2501 11.5968 77.1694 10.4793C74.8944 9.29032 72.3559 8.69524 69.7894 8.74932H58.1294V34.9893ZM91.1994 71.1593C90.3925 71.171 89.5953 70.9821 88.8794 70.6093C88.1385 70.2071 87.5226 69.6085 87.0994 68.8793L70.7094 42.4593L79.9094 39.8193L94.8994 63.8693C95.4286 64.58 95.7508 65.4233 95.8302 66.3058C95.9096 67.1883 95.7432 68.0756 95.3494 68.8693C94.9676 69.6236 94.3675 70.2454 93.6273 70.6538C92.8871 71.0623 92.0411 71.2384 91.1994 71.1593Z" fill="#216BDC"/>
</svg>
