<svg width="212" height="213" viewBox="0 0 212 213" fill="none" xmlns="http://www.w3.org/2000/svg">
<path d="M188.976 127.961C191.666 125.311 191.646 123.121 188.976 120.431L187.726 119.201C165.326 97.1474 142.906 75.1074 120.466 53.0807C119.595 52.296 118.907 51.3294 118.451 50.2494C117.995 49.1694 117.781 48.0023 117.826 46.8307C117.526 18.0807 93.2863 -3.08932 64.7563 0.370678C41.4963 3.19068 24.0563 23.0107 23.9163 46.8707C23.8463 59.5207 23.9163 72.1707 23.9163 84.8207C23.9468 85.4296 23.8405 86.0376 23.6052 86.6C23.3698 87.1625 23.0114 87.665 22.5563 88.0707C18.4863 91.9607 14.4763 95.9107 10.4863 99.8807C-3.51371 113.801 -3.51371 134.751 10.5963 148.591L38.7263 176.291L64.6663 201.851C67.866 205.113 71.6868 207.702 75.9033 209.464C80.1197 211.227 84.6464 212.126 89.2163 212.111C99.5763 211.711 107.526 208.111 114.216 201.501C131.016 184.901 147.85 168.337 164.716 151.811C172.803 143.864 180.89 135.914 188.976 127.961ZM121.756 100.321C121.747 101.38 121.528 102.427 121.111 103.4C120.694 104.374 120.089 105.255 119.328 105.993C118.568 106.731 117.67 107.31 116.684 107.698C115.698 108.085 114.645 108.273 113.586 108.251C111.455 108.241 109.411 107.399 107.891 105.905C106.37 104.411 105.493 102.382 105.446 100.251C105.496 98.1146 106.39 96.0853 107.932 94.6066C109.475 93.128 111.54 92.3204 113.676 92.3607C114.729 92.3528 115.772 92.5526 116.747 92.9485C117.722 93.3445 118.609 93.929 119.358 94.6684C120.107 95.4078 120.702 96.2877 121.11 97.2576C121.518 98.2275 121.731 99.2684 121.736 100.321H121.756ZM32.9163 43.5907C34.0963 26.3207 46.8363 12.5907 63.9163 9.44068C73.567 7.59744 83.5568 9.54556 91.8078 14.8798C100.059 20.2141 105.936 28.5239 108.216 38.0807C108.436 39.0007 108.586 39.9407 108.886 41.4907L93.7463 26.6307C90.2163 23.1607 88.4563 23.1507 84.9463 26.6307L34.4463 76.3307C33.9963 76.7707 33.5163 77.1707 33.0363 77.6007C32.8663 77.3807 32.7163 77.2707 32.7163 77.1607C32.7563 65.9707 32.1463 54.7607 32.9163 43.5907ZM102.026 200.031C91.6863 205.731 79.3963 203.941 70.6263 195.321L31.6963 157.021C26.2863 151.681 20.7663 146.441 15.4963 140.961C11.7204 136.978 9.39868 131.838 8.90688 126.372C8.41508 120.906 9.78194 115.433 12.7863 110.841C12.9763 110.551 13.2063 110.271 13.7863 109.481C16.4363 112.291 18.8963 115.081 21.5463 117.691C48.4596 144.231 75.3996 170.741 102.366 197.221C103.726 198.591 103.776 199.071 102.026 200.041V200.031ZM111.826 191.621C110.656 192.771 110.126 192.721 108.996 191.621C79.7563 162.761 50.4796 133.934 21.1663 105.141C19.7763 103.771 19.6963 103.081 21.1663 101.661C43.4196 79.874 65.6163 58.0307 87.7563 36.1307C89.0363 34.8607 89.6363 34.8107 90.9163 36.1307C96.5063 41.8107 102.216 47.3707 107.916 52.9207C108.347 53.3012 108.687 53.7739 108.91 54.3036C109.134 54.8333 109.235 55.4065 109.206 55.9807C109.153 64.7473 109.153 73.5207 109.206 82.3007C109.297 82.8187 109.188 83.352 108.9 83.7922C108.612 84.2324 108.167 84.5465 107.656 84.6707C103.937 85.9933 100.815 88.6049 98.8552 92.0318C96.8958 95.4588 96.2293 99.4744 96.9763 103.351C97.7723 107.107 99.8163 110.482 102.775 112.929C105.735 115.375 109.435 116.747 113.273 116.823C117.112 116.898 120.863 115.672 123.916 113.344C126.969 111.015 129.143 107.722 130.086 104.001C131.013 100.087 130.476 95.9687 128.577 92.423C126.678 88.8772 123.548 86.1484 119.776 84.7507C119.158 84.6272 118.613 84.2653 118.259 83.7432C117.906 83.2211 117.772 82.5808 117.886 81.9607C117.966 75.8907 117.886 69.8307 117.936 63.7607C117.936 63.6407 118.056 63.5207 118.116 63.4007L119.116 62.6007C126.736 70.6007 134.226 78.6907 142.026 86.5007C154.206 98.7207 166.576 110.751 178.916 122.811C180.106 123.961 180.076 124.501 178.916 125.651C156.503 147.611 134.14 169.591 111.826 191.591V191.621Z" fill="black"/>
<path d="M207.355 171.011C204.205 166.701 200.885 162.531 197.685 158.261C194.845 154.461 192.075 150.641 190.885 145.891C190.667 144.904 190.102 144.027 189.293 143.422C188.484 142.816 187.484 142.521 186.475 142.591C185.51 142.513 184.548 142.777 183.756 143.336C182.965 143.896 182.395 144.714 182.145 145.651C180.715 150.941 177.525 155.191 174.275 159.431C171.165 163.481 167.825 167.371 165.155 171.751C163.215 174.951 161.595 178.281 161.495 182.151C161.428 185.462 162.02 188.754 163.239 191.834C164.458 194.913 166.278 197.72 168.594 200.088C170.909 202.456 173.673 204.34 176.724 205.628C179.776 206.916 183.053 207.583 186.365 207.591C188.348 207.561 190.323 207.347 192.265 206.951C207.155 203.691 217.615 185.041 207.355 171.011ZM200.045 191.591C198.332 194.348 195.803 196.504 192.808 197.759C189.814 199.013 186.503 199.304 183.335 198.591C176.785 197.171 172.585 193.061 170.765 186.591C170.327 185.004 170.234 183.343 170.493 181.718C170.752 180.093 171.356 178.542 172.265 177.171C174.945 172.711 178.365 168.811 181.455 164.661L186.575 157.721C190.445 163.901 195.295 169.091 199.335 174.891C203.375 180.691 204.305 184.591 200.045 191.591Z" fill="black"/>
</svg>
