<svg width="243" height="252" viewBox="0 0 243 252" fill="none" xmlns="http://www.w3.org/2000/svg">
<path d="M148.347 74.9901C148.443 79.7226 147.591 84.4266 145.843 88.8254C144.095 93.2242 141.485 97.229 138.166 100.605C134.848 103.98 130.888 106.658 126.52 108.481C122.151 110.304 117.462 111.235 112.729 111.22C107.995 111.204 103.313 110.243 98.9564 108.392C94.5999 106.54 90.6575 103.837 87.361 100.44C84.0644 97.043 81.4803 93.0213 79.7606 88.6113C78.0408 84.2013 77.2201 79.4919 77.3467 74.7601C77.4367 56.9401 90.8967 39.5701 112.967 39.6701C135.367 39.7701 148.347 57.4801 148.347 74.9901ZM141.247 74.8501C141.233 69.2333 139.554 63.7466 136.423 59.0834C133.292 54.4202 128.849 50.7897 123.656 48.6508C118.462 46.5118 112.751 45.9603 107.244 47.066C101.737 48.1718 96.6815 50.885 92.7161 54.863C88.7507 58.841 86.0534 63.9052 84.9651 69.4156C83.8769 74.926 84.4464 80.6353 86.6018 85.8221C88.7572 91.0089 92.4017 95.4404 97.0748 98.5567C101.748 101.673 107.24 103.334 112.857 103.33C116.591 103.325 120.288 102.584 123.736 101.15C127.184 99.7155 130.315 97.6161 132.952 94.9713C135.588 92.3266 137.677 89.1884 139.101 85.7359C140.524 82.2835 141.253 78.5844 141.247 74.8501Z" fill="#216BDC"/>
<path d="M112.827 110.68C103.326 110.654 94.2243 106.855 87.5239 100.119C80.8236 93.3826 77.0729 84.2612 77.0968 74.7602C77.1551 65.7004 80.5928 56.9886 86.7368 50.3302C91.3968 45.3302 99.6868 39.4202 112.737 39.4202H112.937C136.097 39.5302 148.587 57.8302 148.587 74.9902C148.555 84.4581 144.775 93.5282 138.074 100.216C131.372 106.905 122.295 110.667 112.827 110.68ZM112.747 39.9202C99.8468 39.9202 91.6668 45.7602 87.0768 50.6702C81.0136 57.2365 77.6251 65.8328 77.5768 74.7702C77.5582 84.1369 81.2579 93.1282 87.8634 99.7693C94.4688 106.41 103.44 110.158 112.807 110.19C122.146 110.18 131.1 106.47 137.71 99.8729C144.32 93.2759 148.048 84.329 148.077 74.9902C148.077 58.0702 135.767 39.9902 112.927 39.9202H112.747ZM112.837 103.58C105.326 103.455 98.1649 100.387 92.8928 95.0369C87.6206 89.6865 84.6588 82.4807 84.6444 74.9691C84.63 67.4576 87.5641 60.2405 92.8157 54.8699C98.0673 49.4992 105.217 46.4041 112.727 46.2502H112.797C120.393 46.2422 127.681 49.25 133.061 54.6127C138.44 59.9753 141.471 67.2543 141.487 74.8502C141.496 78.6172 140.762 82.3491 139.328 85.8324C137.894 89.3158 135.787 92.4821 133.128 95.1505C130.469 97.8189 127.31 99.9368 123.831 101.383C120.353 102.83 116.624 103.576 112.857 103.58H112.837ZM112.837 46.7502H112.767C105.389 46.9029 98.3651 49.9447 93.2062 55.2217C88.0474 60.4987 85.1653 67.5894 85.1797 74.9691C85.1941 82.3489 88.1039 89.4282 93.2833 94.685C98.4627 99.9419 105.498 102.956 112.877 103.08C116.62 103.147 120.339 102.466 123.817 101.079C127.294 99.6912 130.46 97.6244 133.129 94.9992C135.798 92.3741 137.918 89.2431 139.363 85.7894C140.808 82.3357 141.551 78.6285 141.547 74.8846C141.543 71.1407 140.792 67.4351 139.34 63.9845C137.887 60.5338 135.761 57.4074 133.086 54.7879C130.411 52.1684 127.241 50.1084 123.761 48.7283C120.28 47.3482 116.56 46.6757 112.817 46.7502H112.837Z" fill="#216BDC"/>
<path d="M81.9767 40.3502C81.2176 41.4237 80.3198 42.3921 79.3067 43.2302C77.9067 44.1202 76.4567 43.5502 75.3067 42.4102C72.3067 39.4102 69.3067 36.4102 66.3067 33.4102C64.3067 31.4102 62.3067 29.4102 60.3067 27.4102C58.6067 25.6602 58.5367 23.5502 60.0667 22.0702C61.5967 20.5902 63.6267 20.7902 65.2867 22.4302C70.3267 27.4235 75.3267 32.4235 80.2867 37.4302C80.9604 38.3354 81.5275 39.3152 81.9767 40.3502Z" fill="#216BDC"/>
<path d="M77.9061 43.9101C76.8496 43.848 75.8607 43.3698 75.1561 42.5801L69.3361 36.7501L66.1461 33.5501L64.1461 31.5501C62.8361 30.2501 61.4761 28.9101 60.1461 27.5501C59.7168 27.1494 59.3718 26.6671 59.1314 26.1313C58.891 25.5955 58.76 25.0171 58.7461 24.4301C58.759 23.9452 58.8692 23.4678 59.0702 23.0263C59.2711 22.5848 59.5588 22.1882 59.9161 21.8601C61.4661 20.3701 63.7561 20.5201 65.4861 22.2301C71.3661 28.0501 76.1361 32.8301 80.4861 37.2301C80.9475 37.765 81.322 38.369 81.5961 39.0201C81.7761 39.3801 81.9761 39.7701 82.2161 40.2001L82.3061 40.3501L82.1861 40.4801C81.8961 40.8101 81.6261 41.1501 81.3661 41.4801C80.8454 42.2254 80.2031 42.8778 79.4661 43.4101C79.0057 43.7248 78.4636 43.8985 77.9061 43.9101ZM62.3861 21.3001C61.9875 21.3004 61.5929 21.3802 61.2255 21.5347C60.8581 21.6892 60.5251 21.9154 60.2461 22.2001C59.94 22.4849 59.6939 22.828 59.5222 23.2092C59.3504 23.5904 59.2566 24.0021 59.2461 24.4201C59.2874 25.4748 59.7439 26.4705 60.5161 27.1901C61.8161 28.5301 63.1761 29.8701 64.5161 31.1901L66.5661 33.1901L69.7561 36.3901L75.5761 42.2201C76.2961 42.9401 77.7261 43.9901 79.2761 43.0101C79.9684 42.5088 80.5704 41.8934 81.0561 41.1901C81.2861 40.9001 81.5261 40.6001 81.7761 40.3101L81.2361 39.3101C80.9912 38.708 80.6538 38.148 80.2361 37.6501C75.8661 33.2001 71.0961 28.4201 65.2361 22.6501C64.8773 22.2437 64.4397 21.9144 63.9497 21.6824C63.4598 21.4503 62.9278 21.3202 62.3861 21.3001Z" fill="#216BDC"/>
<path d="M166.677 25.1201C166.341 25.94 165.889 26.7077 165.337 27.4001C160.357 32.4668 155.34 37.4935 150.287 42.4801C149.976 42.8439 149.592 43.1383 149.161 43.3441C148.729 43.5499 148.259 43.6627 147.781 43.6749C147.302 43.6872 146.827 43.5987 146.385 43.4153C145.944 43.2318 145.545 42.9575 145.217 42.6101C143.707 41.1301 143.737 39.0701 145.377 37.4201C150.383 32.3801 155.407 27.3568 160.447 22.3501C160.918 21.7763 161.561 21.3693 162.281 21.1892C163.002 21.0092 163.761 21.0656 164.447 21.3501C165.877 21.9301 166.547 23.0601 166.677 25.1201Z" fill="#216BDC"/>
<path d="M147.647 43.87C146.668 43.8181 145.743 43.4085 145.046 42.7191C144.349 42.0296 143.93 41.1083 143.867 40.13C143.884 39.5756 144.012 39.0301 144.242 38.5253C144.472 38.0206 144.8 37.5667 145.207 37.19C148.607 33.77 152.021 30.3534 155.447 26.94L160.267 22.12C160.782 21.5112 161.48 21.085 162.256 20.9048C163.033 20.7246 163.847 20.8001 164.577 21.12C166.067 21.74 166.787 22.95 166.927 25.06V25.12V25.19C166.857 25.32 166.767 25.5 166.677 25.7C166.406 26.363 166.024 26.975 165.547 27.51C161.157 31.99 156.377 36.78 150.547 42.6C150.176 42.9979 149.727 43.3158 149.228 43.5341C148.73 43.7525 148.192 43.8668 147.647 43.87ZM163.077 21.3C162.61 21.3202 162.151 21.4341 161.728 21.6351C161.306 21.8361 160.928 22.12 160.617 22.47L155.797 27.29C152.377 30.6967 148.964 34.1134 145.557 37.54C145.196 37.8702 144.904 38.2695 144.7 38.7144C144.495 39.1593 144.382 39.6407 144.367 40.13C144.397 40.7833 144.619 41.4132 145.005 41.9411C145.391 42.4691 145.924 42.8718 146.537 43.099C147.15 43.3261 147.817 43.3677 148.453 43.2185C149.09 43.0693 149.669 42.736 150.117 42.26C155.987 36.44 160.767 31.65 165.117 27.17C165.539 26.6715 165.877 26.1074 166.117 25.5C166.207 25.32 166.277 25.15 166.357 25.02C166.217 23.15 165.607 22.12 164.357 21.58C163.953 21.4026 163.518 21.3074 163.077 21.3Z" fill="#216BDC"/>
<path d="M147.547 105.99C148.608 106.461 149.614 107.048 150.547 107.74C155.607 112.7 160.623 117.7 165.597 122.74C165.988 123.047 166.311 123.432 166.543 123.872C166.775 124.312 166.912 124.796 166.944 125.292C166.976 125.788 166.903 126.285 166.729 126.751C166.556 127.218 166.286 127.642 165.937 127.996C165.588 128.35 165.169 128.627 164.706 128.808C164.242 128.989 163.746 129.07 163.25 129.046C162.753 129.022 162.267 128.893 161.824 128.668C161.38 128.443 160.989 128.127 160.677 127.74C155.607 122.74 150.567 117.64 145.517 112.59C144.297 111.37 143.827 109.86 144.707 108.41C145.337 107.48 146.527 106.86 147.547 105.99Z" fill="#216BDC"/>
<path d="M163.376 129.21C162.303 129.19 161.281 128.744 160.536 127.97C157.243 124.704 153.966 121.427 150.706 118.14L145.386 112.81C143.976 111.4 143.666 109.81 144.526 108.34C145.031 107.63 145.67 107.025 146.406 106.56C146.726 106.32 147.066 106.07 147.406 105.81L147.536 105.69L147.686 105.78C148.116 106.02 148.526 106.22 148.896 106.4C149.582 106.682 150.217 107.074 150.776 107.56C156.026 112.71 161.116 117.82 165.836 122.56C166.242 122.948 166.565 123.414 166.787 123.929C167.008 124.444 167.124 124.999 167.126 125.56C167.091 126.534 166.686 127.459 165.993 128.144C165.299 128.83 164.371 129.225 163.396 129.25L163.376 129.21ZM147.566 106.29C147.286 106.53 146.986 106.75 146.696 106.96C146.017 107.386 145.426 107.94 144.956 108.59C144.611 109.224 144.499 109.959 144.642 110.667C144.785 111.375 145.172 112.01 145.736 112.46L151.056 117.79C154.323 121.07 157.6 124.347 160.886 127.62C161.182 127.949 161.541 128.214 161.942 128.4C162.343 128.586 162.778 128.689 163.219 128.703C163.661 128.717 164.101 128.642 164.513 128.481C164.925 128.321 165.3 128.079 165.616 127.77C165.926 127.479 166.173 127.129 166.345 126.741C166.517 126.353 166.609 125.935 166.616 125.51C166.605 125.024 166.498 124.545 166.301 124.1C166.103 123.655 165.82 123.254 165.466 122.92C160.746 118.17 155.666 113.06 150.416 107.92C149.89 107.473 149.296 107.111 148.656 106.85L147.566 106.29Z" fill="#216BDC"/>
<path d="M81.3172 110.44C81.0234 111.218 80.612 111.947 80.0972 112.6C75.0905 117.7 70.0405 122.763 64.9472 127.79C64.6358 128.181 64.2449 128.501 63.8005 128.73C63.356 128.958 62.8681 129.09 62.369 129.116C61.87 129.142 61.3711 129.061 60.9054 128.88C60.4396 128.699 60.0178 128.42 59.6676 128.064C59.3174 127.707 59.047 127.28 58.8741 126.811C58.7013 126.343 58.6299 125.842 58.6649 125.344C58.6998 124.845 58.8402 124.36 59.0768 123.92C59.3134 123.479 59.6407 123.094 60.0372 122.79C65.0372 117.79 70.0372 112.79 75.0372 107.74C75.516 107.177 76.1627 106.781 76.8826 106.612C77.6024 106.443 78.3575 106.509 79.0372 106.8C80.4972 107.33 81.1672 108.44 81.3172 110.44Z" fill="#216BDC"/>
<path d="M62.2866 129.21C61.3105 129.19 60.3793 128.796 59.6853 128.109C58.9912 127.423 58.5872 126.496 58.5566 125.52C58.5612 124.958 58.6786 124.403 58.9019 123.888C59.1253 123.373 59.4499 122.907 59.8566 122.52C62.9166 119.44 65.9866 116.367 69.0666 113.3C71.0066 111.36 72.9566 109.42 74.8966 107.47C75.4108 106.863 76.1066 106.439 76.8811 106.259C77.6557 106.078 78.4676 106.153 79.1966 106.47C80.6666 107.08 81.3966 108.28 81.5666 110.37V110.45V110.51C81.4966 110.64 81.4166 110.81 81.3366 111C81.1084 111.628 80.7698 112.211 80.3366 112.72C75.9066 117.24 71.0866 122.07 65.1866 127.92C64.8136 128.318 64.3649 128.636 63.8669 128.858C63.3689 129.079 62.8316 129.199 62.2866 129.21ZM77.6866 106.7C77.2227 106.719 76.7673 106.831 76.348 107.031C75.9286 107.23 75.554 107.512 75.2466 107.86L69.4166 113.69C66.35 116.757 63.28 119.83 60.2066 122.91C59.4932 123.591 59.0765 124.525 59.0466 125.51C59.0518 125.935 59.1431 126.354 59.3149 126.743C59.4868 127.131 59.7358 127.481 60.0466 127.77C60.3627 128.079 60.7379 128.321 61.1498 128.481C61.5617 128.642 62.0018 128.717 62.4436 128.703C62.8854 128.689 63.3198 128.586 63.7207 128.4C64.1216 128.214 64.4808 127.949 64.7766 127.62C70.6766 121.77 75.4866 116.94 79.9166 112.43C80.3198 111.962 80.6379 111.428 80.8566 110.85C80.9171 110.693 80.9872 110.539 81.0666 110.39C80.9066 108.53 80.2866 107.51 79.0066 106.98C78.5885 106.803 78.1405 106.708 77.6866 106.7Z" fill="#216BDC"/>
<path d="M52.2573 71.3602H62.3773C65.1373 71.3602 66.7073 72.6902 66.6773 74.9502C66.6473 77.2102 65.0973 78.4602 62.4673 78.4602C55.5473 78.4602 48.6273 78.4602 41.7073 78.4602C39.2973 78.4602 37.7073 77.0202 37.7673 74.8702C37.8273 72.7202 39.3373 71.3802 41.7673 71.3702C45.2773 71.3502 48.7673 71.3602 52.2573 71.3602Z" fill="#216BDC"/>
<path d="M51.6869 78.7202H41.6869C41.1057 78.7461 40.5252 78.656 39.9792 78.4552C39.4332 78.2543 38.9327 77.9466 38.5069 77.5502C38.1706 77.1944 37.9088 76.7748 37.737 76.3163C37.5653 75.8577 37.4871 75.3694 37.5069 74.8802C37.5069 72.6102 39.1969 71.1402 41.7769 71.1302H62.3769C63.686 71.047 64.9753 71.4816 65.9669 72.3402C66.3036 72.6876 66.5658 73.1 66.7378 73.5522C66.9097 74.0044 66.9877 74.4869 66.9669 74.9702C66.9669 77.3102 65.2769 78.7202 62.5069 78.7202H51.6869ZM45.9769 71.6102H41.7869C39.4769 71.6102 38.0269 72.8702 38.0069 74.8802C37.9914 75.3045 38.0613 75.7277 38.2125 76.1245C38.3637 76.5213 38.593 76.8837 38.8869 77.1902C39.2668 77.5362 39.7118 77.8028 40.1961 77.9745C40.6803 78.1463 41.194 78.2196 41.7069 78.1902C48.6269 78.1902 55.5469 78.1902 62.4669 78.1902C64.9669 78.1902 66.4169 76.9902 66.4669 74.9202C66.4888 74.5054 66.4265 74.0905 66.2839 73.7004C66.1413 73.3103 65.9212 72.953 65.6369 72.6502C64.7382 71.8839 63.5752 71.4999 62.3969 71.5802H45.9769V71.6102Z" fill="#216BDC"/>
<path d="M172.846 71.3602C176.336 71.3602 179.846 71.3602 183.316 71.3602C185.906 71.3602 187.466 72.7502 187.426 74.9702C187.386 77.1902 185.856 78.4502 183.366 78.4502C176.386 78.4502 169.406 78.4502 162.426 78.4502C160.036 78.4502 158.476 76.9902 158.506 74.8402C158.536 72.6902 160.066 71.3702 162.376 71.3602C165.866 71.3502 169.356 71.3602 172.846 71.3602Z" fill="#216BDC"/>
<path d="M172.597 78.7201H162.427C161.85 78.7434 161.274 78.6511 160.733 78.4484C160.192 78.2458 159.697 77.9369 159.277 77.54C158.939 77.1815 158.676 76.7586 158.504 76.2965C158.332 75.8345 158.255 75.3425 158.277 74.85C158.277 72.64 159.967 71.14 162.397 71.13H183.397C184.011 71.0968 184.626 71.1867 185.204 71.3945C185.783 71.6023 186.314 71.9238 186.767 72.3401C187.106 72.6902 187.369 73.1059 187.541 73.5616C187.713 74.0174 187.79 74.5035 187.767 74.99C187.767 77.29 186.077 78.7101 183.457 78.7201H172.597ZM166.537 71.6101H162.377C160.207 71.6101 158.787 72.8901 158.757 74.8401C158.739 75.2669 158.806 75.6931 158.956 76.0933C159.105 76.4936 159.333 76.8597 159.627 77.1701C160.004 77.515 160.445 77.7811 160.926 77.9528C161.407 78.1246 161.917 78.1984 162.427 78.1701C170.167 78.1701 177.017 78.1701 183.367 78.1701C185.687 78.1701 187.147 76.93 187.177 74.93C187.201 74.5105 187.139 74.0906 186.997 73.6954C186.854 73.3001 186.633 72.9378 186.347 72.63C185.524 71.8988 184.447 71.5184 183.347 71.57C180.907 71.57 178.467 71.57 176.017 71.57H166.567L166.537 71.6101Z" fill="#216BDC"/>
<path d="M109.286 14.3502C109.286 10.9802 109.286 7.60022 109.286 4.23022C109.286 1.80022 110.726 0.230225 112.866 0.230225C115.006 0.230225 116.366 1.76022 116.376 4.23022C116.376 11.0302 116.376 17.8369 116.376 24.6502C116.376 27.1402 115.026 28.6502 112.906 28.7102C110.786 28.7702 109.296 27.2002 109.286 24.6102C109.266 21.2202 109.286 17.7802 109.286 14.3502Z" fill="#216BDC"/>
<path d="M112.827 29C111.869 29.0204 110.942 28.6609 110.247 28C109.833 27.5443 109.512 27.011 109.304 26.4309C109.097 25.8508 109.006 25.2354 109.037 24.62C109.037 22.22 109.037 19.83 109.037 17.43V11.34C109.037 8.96667 109.037 6.59667 109.037 4.23C109.037 1.7 110.597 0 112.867 0C115.147 0 116.617 1.67 116.627 4.27C116.627 10.75 116.627 17.43 116.627 24.69C116.627 27.31 115.197 28.96 112.907 29H112.827ZM112.827 0.490005C110.827 0.490005 109.517 1.96 109.497 4.23C109.477 6.5 109.497 8.97 109.497 11.34V17.46C109.497 19.86 109.497 22.25 109.497 24.65C109.466 25.1954 109.543 25.7416 109.725 26.2567C109.907 26.7718 110.19 27.2455 110.557 27.65C110.865 27.9356 111.228 28.1563 111.623 28.2989C112.018 28.4415 112.438 28.5031 112.857 28.48C114.857 28.48 116.087 27.02 116.087 24.67C116.087 17.4 116.087 10.73 116.087 4.25C116.127 1.94 114.877 0.490005 112.867 0.490005H112.827Z" fill="#216BDC"/>
<path d="M116.387 135.48C116.387 138.79 116.387 142.11 116.387 145.42C116.387 148.01 114.987 149.57 112.777 149.53C110.567 149.49 109.307 147.95 109.297 145.46C109.297 138.66 109.297 131.853 109.297 125.04C109.297 122.61 110.707 121.04 112.837 121.04C114.967 121.04 116.367 122.55 116.387 125.04C116.407 128.5 116.387 131.99 116.387 135.48Z" fill="#216BDC"/>
<path d="M112.837 149.78H112.757C110.467 149.78 109.047 148.08 109.037 145.46C109.037 137.95 109.037 131.27 109.037 125.04C109.037 122.48 110.527 120.8 112.827 120.77H112.877C113.349 120.758 113.818 120.841 114.258 121.012C114.697 121.184 115.098 121.442 115.437 121.77C115.841 122.204 116.155 122.714 116.359 123.27C116.563 123.826 116.655 124.418 116.627 125.01C116.627 127.42 116.627 129.82 116.627 132.22V138.49C116.627 140.81 116.627 143.123 116.627 145.43C116.658 146.046 116.568 146.661 116.36 147.241C116.152 147.821 115.832 148.354 115.417 148.81C115.072 149.133 114.666 149.385 114.224 149.552C113.781 149.718 113.31 149.796 112.837 149.78ZM112.837 121.27H112.787C110.787 121.27 109.507 122.77 109.497 125.04C109.497 131.27 109.497 137.95 109.497 145.46C109.497 147.82 110.707 149.25 112.727 149.28C113.146 149.3 113.565 149.237 113.96 149.094C114.354 148.952 114.717 148.733 115.027 148.45C115.766 147.631 116.15 146.552 116.097 145.45C116.097 143.14 116.097 140.82 116.097 138.51V132.24C116.097 129.84 116.097 127.44 116.097 125.04C116.129 124.515 116.058 123.988 115.886 123.49C115.715 122.993 115.446 122.534 115.097 122.14C114.803 121.855 114.456 121.631 114.075 121.482C113.694 121.332 113.286 121.26 112.877 121.27H112.837Z" fill="#216BDC"/>
<path d="M121.197 251C86.7265 251 52.2465 251 17.7765 250.93C14.701 250.988 11.6437 250.444 8.77653 249.33C1.84653 246.38 -1.58347 238.39 0.706533 230.86C7.10653 209.787 13.5965 188.75 20.1765 167.75C21.1528 164.648 23.0992 161.94 25.7292 160.027C28.3593 158.113 31.5341 157.094 34.7865 157.12C41.1565 157.06 47.5265 157.12 53.8965 157.12C56.7665 157.12 58.6065 158.73 58.5365 161.04C58.4665 163.35 56.6965 164.74 53.9465 164.76C47.7365 164.76 41.5265 164.76 35.3165 164.76C30.9965 164.76 28.4465 166.6 27.1665 170.76C20.8065 191.227 14.4732 211.707 8.16653 232.2C6.16653 238.6 9.71653 243.38 16.3665 243.38H226.367C233.077 243.38 236.637 238.67 234.677 232.29C228.357 211.717 221.997 191.154 215.597 170.6C214.367 166.6 211.747 164.8 207.597 164.78C202.777 164.78 197.957 164.78 193.137 164.78C190.047 164.78 188.137 163.26 188.227 160.89C188.317 158.52 190.057 157.12 192.977 157.12C197.877 157.12 202.777 157.12 207.677 157.12C211.053 157.031 214.365 158.061 217.094 160.051C219.824 162.041 221.818 164.878 222.767 168.12C229.2 188.787 235.583 209.454 241.917 230.12C245.327 241.32 238.287 250.94 226.577 251.01C206.647 251.13 186.707 251.07 166.777 251.08H121.197V251Z" fill="#216BDC"/>
<path d="M213.367 109.84C209.147 109.84 204.927 109.98 200.717 109.76C199.226 109.644 197.827 108.995 196.777 107.93C196.455 107.405 196.271 106.806 196.243 106.191C196.215 105.575 196.344 104.962 196.617 104.41C197.067 103.828 197.627 103.34 198.265 102.974C198.903 102.609 199.607 102.373 200.337 102.28C206.787 102.07 213.237 102.18 219.697 102.18C226.987 102.18 227.197 102.4 227.197 109.74C227.197 115.947 227.197 122.153 227.197 128.36C227.197 131.49 225.737 133.36 223.377 133.36C221.017 133.36 219.557 131.5 219.547 128.36C219.547 124.23 219.547 120.1 219.547 115.36C218.337 116.5 217.547 117.18 216.857 117.9C185.097 149.66 153.337 181.43 121.577 213.21C117.217 217.58 112.137 219.83 106.087 218.1C103.277 217.308 100.696 215.858 98.5572 213.87C87.0272 202.64 75.7172 191.19 64.3572 179.8C62.3572 177.8 62.1672 175.68 63.8072 173.98C65.4472 172.28 67.6572 172.38 69.8072 174.53C80.8472 185.55 91.8805 196.58 102.907 207.62C107.617 212.33 111.687 212.33 116.417 207.62C148.177 175.854 179.944 144.087 211.717 112.32C212.403 111.732 213.136 111.2 213.907 110.73L213.367 109.84Z" fill="#216BDC"/>
</svg>
