<svg width="276" height="209" viewBox="0 0 276 209" fill="none" xmlns="http://www.w3.org/2000/svg">
<path d="M239.76 208.058H4.57C3.35796 208.058 2.19557 207.576 1.33852 206.719C0.481483 205.862 0 204.7 0 203.488C0 202.276 0.481483 201.113 1.33852 200.256C2.19557 199.399 3.35796 198.918 4.57 198.918H239.76C240.972 198.918 242.134 199.399 242.991 200.256C243.849 201.113 244.33 202.276 244.33 203.488C244.33 204.7 243.849 205.862 242.991 206.719C242.134 207.576 240.972 208.058 239.76 208.058Z" fill="black"/>
<path d="M207.98 199.648C206.812 199.648 205.688 199.2 204.84 198.398L102.07 100.848C101.212 100.009 100.718 98.8659 100.695 97.6659C100.673 96.4659 101.123 95.3051 101.949 94.4344C102.775 93.5637 103.91 93.0529 105.11 93.0124C106.31 92.9718 107.477 93.4048 108.36 94.2178L207.82 188.648L261.82 132.988C262.238 132.557 262.737 132.213 263.288 131.975C263.84 131.737 264.432 131.61 265.033 131.601C265.633 131.593 266.229 131.702 266.787 131.924C267.345 132.145 267.854 132.475 268.285 132.893C268.716 133.311 269.06 133.81 269.298 134.361C269.536 134.913 269.662 135.505 269.671 136.106C269.68 136.706 269.571 137.302 269.349 137.86C269.127 138.418 268.798 138.927 268.38 139.358L211.26 198.228C210.839 198.676 210.331 199.032 209.767 199.277C209.203 199.521 208.595 199.647 207.98 199.648Z" fill="black"/>
<path d="M270.799 157.638C269.612 157.638 268.471 157.176 267.62 156.348C266.768 155.521 266.273 154.394 266.239 153.208L265.709 135.208L245.709 137.368C245.112 137.433 244.508 137.381 243.932 137.213C243.355 137.045 242.817 136.766 242.349 136.39C241.88 136.014 241.491 135.55 241.201 135.024C240.912 134.498 240.73 133.92 240.664 133.323C240.598 132.726 240.651 132.122 240.819 131.545C240.987 130.969 241.266 130.431 241.642 129.962C242.017 129.494 242.482 129.104 243.008 128.815C243.534 128.526 244.112 128.343 244.709 128.278L269.709 125.588C270.336 125.518 270.971 125.58 271.573 125.768C272.175 125.957 272.731 126.268 273.207 126.682C273.682 127.097 274.067 127.606 274.336 128.176C274.605 128.747 274.752 129.367 274.769 129.998L275.449 152.928C275.481 154.139 275.032 155.314 274.2 156.195C273.368 157.076 272.22 157.591 271.009 157.628L270.799 157.638Z" fill="black"/>
<path d="M157.4 199.648C156.244 199.648 155.13 199.212 154.28 198.428L51.1804 102.428C50.2933 101.602 49.7706 100.457 49.7275 99.2454C49.6844 98.0339 50.1243 96.8549 50.9504 95.9678C51.7766 95.0806 52.9213 94.558 54.1328 94.5149C55.3443 94.4717 56.5233 94.9116 57.4104 95.7378L157.24 188.738L211.29 133.048C212.135 132.178 213.291 131.679 214.503 131.661C215.716 131.643 216.886 132.108 217.755 132.953C218.625 133.797 219.124 134.953 219.142 136.166C219.16 137.378 218.695 138.548 217.85 139.418L160.68 198.228C160.258 198.674 159.75 199.03 159.186 199.274C158.622 199.518 158.015 199.645 157.4 199.648Z" fill="black"/>
<path d="M220.219 157.638C219.031 157.638 217.889 157.176 217.036 156.349C216.183 155.522 215.686 154.395 215.649 153.208L215.119 135.208L195.119 137.368C193.914 137.5 192.705 137.149 191.759 136.39C190.813 135.631 190.207 134.528 190.074 133.323C189.942 132.117 190.293 130.909 191.052 129.962C191.811 129.016 192.914 128.41 194.119 128.278L219.119 125.588C219.747 125.517 220.382 125.577 220.984 125.765C221.587 125.953 222.144 126.264 222.62 126.679C223.096 127.094 223.48 127.603 223.749 128.174C224.017 128.746 224.164 129.367 224.179 129.998L224.859 152.928C224.877 153.528 224.775 154.126 224.562 154.687C224.348 155.248 224.026 155.761 223.613 156.198C223.201 156.634 222.707 156.985 222.159 157.231C221.611 157.476 221.02 157.611 220.419 157.628L220.219 157.638Z" fill="black"/>
<path d="M30.0697 72.7278C24.7291 72.8299 19.4344 71.7258 14.5797 69.4978C10.3096 67.5263 6.66849 64.4113 4.05967 60.4978C1.51782 56.6001 0.201283 52.0305 0.279675 47.3778V4.85783C0.256958 4.22376 0.367103 3.59194 0.603039 3.00296C0.838976 2.41398 1.19549 1.88086 1.64968 1.43783C2.3116 0.753755 3.16489 0.285807 4.09754 0.0953983C5.03019 -0.0950102 5.99862 0.00101671 6.87571 0.370888C7.75281 0.740759 8.49757 1.36719 9.01225 2.16794C9.52693 2.96869 9.78747 3.90634 9.75968 4.85783V47.3978C9.70376 50.4957 10.6085 53.5349 12.3497 56.0978C14.1664 58.6919 16.6555 60.742 19.5497 62.0278C22.8577 63.5016 26.4487 64.2321 30.0697 64.1678C33.5748 64.2337 37.0489 63.5019 40.2297 62.0278C43.0331 60.7178 45.4257 58.6674 47.1497 56.0978C48.8398 53.5151 49.7144 50.4839 49.6597 47.3978V4.85783C49.635 4.22441 49.7433 3.59286 49.9776 3.00383C50.2118 2.4148 50.5668 1.88135 51.0197 1.43783C51.4671 1.00434 51.9965 0.664345 52.5768 0.437706C53.1572 0.211068 53.7769 0.102323 54.3997 0.117829C55.0222 0.0925825 55.6431 0.196868 56.2232 0.424088C56.8033 0.651307 57.3299 0.996509 57.7697 1.43783C58.1982 1.89479 58.5312 2.43263 58.7492 3.01987C58.9673 3.60712 59.0661 4.23196 59.0397 4.85783V47.3978C59.1202 52.038 57.8372 56.5999 55.3497 60.5178C52.8333 64.4099 49.2845 67.5259 45.0997 69.5178C40.4047 71.734 35.2603 72.8327 30.0697 72.7278Z" fill="black"/>
<path d="M101.67 71.2278C100.731 71.2376 99.8132 70.9537 99.0439 70.4158C98.2746 69.8778 97.6929 69.1128 97.38 68.2278L70.69 7.22778C69.8433 5.16111 69.7534 3.46111 70.42 2.12778C70.7855 1.45216 71.3442 0.900943 72.0247 0.544658C72.7052 0.188373 73.4766 0.0432263 74.24 0.12778C75.1776 0.0645082 76.1105 0.305831 76.8997 0.815791C77.689 1.32575 78.2924 2.07706 78.62 2.95778L102.07 59.1578H101.07L124.94 2.94778C125.265 2.05074 125.85 1.27089 126.62 0.707782C127.417 0.279419 128.316 0.075499 129.22 0.117778C129.976 0.0493233 130.736 0.201882 131.407 0.556918C132.078 0.911954 132.631 1.45419 133 2.11778C133.352 2.78513 133.536 3.52826 133.536 4.28278C133.536 5.0373 133.352 5.78043 133 6.44778L106 68.3078C105.641 69.1857 105.058 69.9545 104.31 70.5378C103.529 71.0496 102.602 71.292 101.67 71.2278Z" fill="black"/>
</svg>
