<svg width="216" height="216" viewBox="0 0 216 216" fill="none" xmlns="http://www.w3.org/2000/svg">
<path d="M215.361 110.6C214.111 113.6 213.321 116.92 211.521 119.55C206.731 126.59 199.741 129.68 191.341 128.48C182.671 127.24 176.931 122.11 174.101 113.79C173.901 113.2 173.731 112.6 173.531 111.94H147.971C146.881 115.64 146.091 119.41 144.641 122.92C143.211 126.38 141.111 129.56 139.191 133.09C139.361 133.28 139.751 133.76 140.191 134.2C147.521 141.54 154.881 148.85 162.171 156.24C163.111 157.2 163.881 157.26 165.091 156.88C171.981 154.71 179.031 158.51 181.031 165.37C183.001 172.12 179.111 179.12 172.311 181.04C165.561 182.95 158.421 179.04 156.811 172.16C156.261 169.82 156.911 167.21 156.941 164.73C156.941 164 156.981 163 156.551 162.57C148.871 154.79 141.121 147.07 133.381 139.35C133.241 139.21 133.031 139.14 132.751 138.97C126.691 143.72 119.821 146.65 112.021 147.52V173.54C118.191 175.05 123.031 178.48 126.161 184.11C128.711 188.7 129.351 193.62 128.281 198.76C126.201 208.7 116.981 215.75 106.631 215.31C96.5112 214.88 87.8712 206.87 86.7412 196.67C85.5612 186.09 92.1712 176.24 103.491 173.51V147.59C95.6912 146.61 88.7212 143.78 82.2712 138.68C81.0412 140.04 79.9212 141.39 78.7012 142.62C72.2712 149.08 65.8412 155.53 59.3612 161.94C58.3812 162.91 57.9912 163.69 58.4712 165.18C60.3112 170.79 57.9712 176.73 52.9712 179.73C47.9712 182.73 41.6112 181.93 37.5012 177.79C33.3912 173.66 32.6412 167.27 35.6812 162.31C38.7312 157.34 44.6312 155.11 50.2812 156.88C51.3612 157.22 52.1212 157.35 53.0512 156.4C60.5912 148.77 68.1912 141.21 75.7712 133.62C75.9612 133.43 76.1312 133.2 76.4312 132.83C71.6712 126.71 68.6812 119.8 67.8212 111.98H41.8812C38.1612 125.68 26.4612 129.95 17.9512 128.5C7.28122 126.69 -0.108788 117.92 0.00121167 107.37C0.121212 96.99 7.81121 88.23 18.3312 86.78C27.9912 85.44 38.6612 90.98 41.8512 103.38H67.7812C68.7412 95.67 71.5312 88.74 76.4312 82.58C76.0512 82.13 75.7312 81.69 75.3512 81.3C70.0512 75.99 64.7112 70.72 59.4712 65.36C58.4412 64.31 57.7512 64.31 56.4512 64.96C48.6312 68.9 40.9212 68.53 33.8812 63.29C26.9112 58.1 24.1312 50.83 25.8412 42.34C27.5812 33.68 33.0412 28.01 41.7112 26C50.2812 24.01 57.6312 26.63 63.0312 33.53C68.5012 40.51 69.0212 48.3 65.0812 56.22C64.2912 57.81 64.4712 58.58 65.6512 59.73C71.2512 65.22 76.7512 70.81 82.4212 76.51C88.6512 71.66 95.5712 68.68 103.391 67.81V41.8C96.4812 40.07 91.3412 36.14 88.4312 29.65C82.9312 17.4 90.1612 3.36999 103.401 0.439995C103.861 0.339995 104.301 0.15 104.751 0C106.711 0 108.681 0 110.641 0C111.021 0.14 111.391 0.329996 111.781 0.409996C123.991 2.81 131.581 15.39 127.831 27.28C125.381 35.06 119.891 39.75 111.991 41.82V67.8C119.781 68.67 126.711 71.62 132.761 76.35C133.061 76.2 133.211 76.17 133.311 76.07C136.741 72.66 140.121 69.21 143.611 65.85C144.551 64.94 144.711 64.2 144.301 62.95C142.511 57.47 144.571 51.7 149.291 48.56C153.961 45.45 160.241 45.84 164.521 49.51C168.721 53.11 170.091 59.19 167.821 64.24C165.461 69.49 159.971 72.74 154.271 71.39C151.131 70.65 149.451 71.59 147.581 73.69C145.251 76.29 142.661 78.67 140.181 81.15C139.751 81.58 139.371 82.06 138.941 82.55C143.871 88.72 146.651 95.66 147.611 103.36H173.561C173.771 102.68 173.931 102.08 174.131 101.49C176.971 93.18 182.721 88.05 191.381 86.83C199.871 85.63 206.881 88.8 211.681 95.94C213.421 98.53 214.181 101.77 215.391 104.72V110.61L215.361 110.6ZM107.701 76.01C90.1612 75.99 76.0412 90.1 76.0212 107.63C76.0112 125.16 90.1112 139.29 107.651 139.3C125.181 139.32 139.311 125.21 139.331 107.68C139.341 90.14 125.241 76.03 107.701 76.01ZM46.5012 59.13C53.5012 59.08 59.2412 53.27 59.1412 46.33C59.0412 39.3 53.2412 33.63 46.2912 33.74C39.3712 33.85 33.7412 39.56 33.7412 46.43C33.7412 53.4 39.5512 59.17 46.5012 59.12V59.13ZM120.321 194.23C120.321 187.17 114.691 181.57 107.621 181.59C100.641 181.61 95.0612 187.17 95.0212 194.12C94.9812 201.17 100.611 206.88 107.621 206.9C114.641 206.92 120.321 201.25 120.321 194.22V194.23ZM120.321 21.14C120.341 14.09 114.701 8.40999 107.681 8.39999C100.751 8.39999 95.0712 14 95.0212 20.91C94.9612 28.01 100.501 33.67 107.551 33.72C114.631 33.77 120.291 28.19 120.321 21.14ZM33.7212 107.81C33.7912 100.81 28.2912 95.11 21.3912 95.01C14.2912 94.91 8.51121 100.41 8.40121 107.39C8.29121 114.43 13.8812 120.22 20.8712 120.3C27.9712 120.38 33.6512 114.85 33.7212 107.81ZM194.271 95.01C187.211 95.01 181.601 100.62 181.621 107.69C181.641 114.67 187.191 120.26 194.141 120.3C201.201 120.34 206.911 114.73 206.941 107.72C206.971 100.7 201.311 95.02 194.281 95.01H194.271ZM173.121 168.96C173.171 166.69 171.371 164.79 169.081 164.68C166.701 164.57 164.731 166.41 164.691 168.79C164.651 171.08 166.421 172.98 168.711 173.09C171.051 173.21 173.071 171.31 173.121 168.96ZM160.451 59.01C160.401 56.73 158.541 54.89 156.261 54.88C153.901 54.87 151.961 56.83 152.021 59.18C152.071 61.45 153.961 63.31 156.221 63.32C158.561 63.33 160.501 61.36 160.451 59.01ZM46.5412 164.67C44.1812 164.62 42.2012 166.54 42.2112 168.88C42.2112 171.14 44.0812 173.04 46.3412 173.1C48.6812 173.16 50.6412 171.24 50.6412 168.87C50.6412 166.57 48.8312 164.72 46.5412 164.67Z" fill="black"/>
</svg>
