<svg width="221" height="221" viewBox="0 0 221 221" fill="none" xmlns="http://www.w3.org/2000/svg">
<path d="M81.3862 146.924C77.5562 149.874 73.3462 151.394 68.4762 150.404C63.3062 149.354 59.5962 146.424 57.4962 141.624C56.9062 140.264 56.2262 139.874 54.8062 139.894C47.1762 139.964 39.5462 139.964 31.9162 139.894C30.4562 139.884 29.6862 140.194 29.0762 141.714C26.1762 149.014 18.3262 152.764 10.8862 150.564C3.7062 148.444 -1.0138 141.094 0.186205 133.904C1.5062 125.994 8.1462 120.504 16.0262 121.004C21.6162 121.354 25.7762 124.154 28.5062 129.054C28.8862 129.744 29.1962 130.474 29.5962 131.294C38.2862 131.294 46.9862 131.314 55.6862 131.244C56.1862 131.244 56.9262 130.624 57.1562 130.114C58.8462 126.244 61.5162 123.414 65.3862 121.664C65.9162 121.424 66.4862 120.554 66.4862 119.964C66.5662 113.994 66.5662 108.014 66.4862 102.044C66.4862 101.454 65.9162 100.584 65.3862 100.334C61.5262 98.5737 58.8462 95.7537 57.1662 91.8737C56.9362 91.3437 56.0662 90.7837 55.4862 90.7737C47.3562 90.7037 39.2162 90.7737 31.0862 90.6737C29.5662 90.6537 29.3762 91.5437 28.9362 92.5237C26.2462 98.5337 19.9462 102.174 13.5662 101.444C7.0162 100.694 1.7362 95.9237 0.396204 89.5237C-1.2138 81.8837 3.1262 74.4137 10.5662 72.0137C17.8662 69.6637 25.7962 73.1337 28.8662 80.2237C29.5362 81.7837 30.3262 82.1237 31.8762 82.1137C39.5062 82.0337 47.1362 82.0437 54.7662 82.1137C56.1362 82.1237 56.8762 81.8437 57.4762 80.4337C61.2762 71.6337 71.7662 68.5737 79.7062 73.9137C80.8062 74.6537 81.5762 74.8137 82.7662 74.1137C86.3562 71.9837 89.9962 69.9537 93.6762 67.9937C94.8062 67.3937 95.0962 66.7037 94.9962 65.4537C94.4462 58.3737 97.7362 53.0137 104.276 49.9037C104.906 49.6037 105.536 48.6037 105.586 47.8937C105.746 45.3837 105.546 42.8537 105.686 40.3437C105.766 38.8437 105.226 38.2537 103.836 37.7737C95.1762 34.7337 89.7562 26.1437 90.8262 17.3937C91.9662 8.15374 99.0962 1.08374 108.266 0.103738C117.736 -0.906262 126.826 5.56374 129.056 14.9337C131.316 24.4337 126.196 34.3137 116.996 37.5337C114.656 38.3537 113.896 39.4137 114.266 41.6537C114.336 42.0737 114.306 42.5137 114.266 42.9437C113.996 46.7137 114.146 49.6437 118.546 51.8237C123.556 54.3137 125.426 59.5537 124.906 65.2537C124.776 66.7137 125.166 67.4237 126.436 68.0937C130.186 70.0837 133.866 72.1837 137.536 74.3137C138.566 74.9137 139.266 75.0237 140.376 74.2437C148.436 68.6137 158.906 71.5837 162.926 80.6137C163.446 81.7937 164.046 82.1937 165.306 82.1837C173.146 82.1337 180.996 82.1237 188.836 82.1837C190.206 82.1937 190.806 81.7537 191.346 80.5137C194.306 73.7237 201.336 70.1937 208.516 71.7737C215.166 73.2237 220.156 79.3837 220.256 86.2537C220.356 93.4537 215.496 99.5937 208.386 101.254C201.476 102.864 194.296 99.2637 191.366 92.5837C190.796 91.2837 190.216 90.7337 188.716 90.7537C180.946 90.8437 173.166 90.8137 165.396 90.7737C164.206 90.7737 163.466 90.9737 162.956 92.2637C161.436 96.1237 158.606 98.7737 154.836 100.504C154.216 100.794 153.426 101.624 153.416 102.204C153.316 108.674 153.356 115.154 153.356 121.664C158.016 123.344 161.306 126.344 163.186 130.874C163.376 131.344 164.236 131.804 164.786 131.804C172.916 131.864 181.056 131.804 189.186 131.884C190.706 131.904 190.886 130.964 191.316 129.994C194.286 123.294 201.366 119.754 208.546 121.354C215.396 122.884 220.316 129.164 220.236 136.284C220.156 143.174 215.226 149.274 208.526 150.764C201.526 152.324 194.446 148.974 191.516 142.484C190.796 140.884 189.996 140.434 188.336 140.454C180.636 140.544 172.936 140.514 165.236 140.474C164.126 140.474 163.466 140.684 162.946 141.844C158.506 151.674 147.576 154.284 139.096 147.604C138.876 147.424 138.636 147.274 138.306 147.054C134.226 149.314 130.136 151.554 126.096 153.894C125.636 154.164 125.266 155.014 125.256 155.604C125.216 162.694 121.986 167.624 115.536 170.544C114.946 170.814 114.346 171.734 114.306 172.384C114.156 174.754 114.356 177.134 114.206 179.504C114.106 181.204 114.606 181.964 116.336 182.524C124.516 185.204 129.776 192.904 129.536 201.514C129.306 209.904 123.476 217.294 115.306 219.564C105.266 222.344 94.7462 216.664 91.6062 206.764C88.4662 196.884 93.5962 186.254 103.356 182.744C105.196 182.084 105.786 181.244 105.646 179.374C105.466 177.014 105.696 174.624 105.546 172.254C105.506 171.594 104.926 170.654 104.336 170.374C98.1962 167.444 95.1062 162.644 94.9662 155.844C94.9562 155.164 94.3962 154.224 93.8162 153.884C89.7162 151.504 85.5462 149.254 81.3462 146.934L81.3862 146.924ZM121.696 146.404C125.556 144.264 129.456 142.144 133.296 139.884C133.746 139.614 134.006 138.614 133.956 137.984C133.556 132.674 135.196 128.164 139.286 124.734C140.856 123.424 142.766 122.524 144.736 121.304C144.736 115.104 144.766 108.634 144.686 102.164C144.686 101.644 144.126 100.884 143.626 100.644C136.286 97.0137 133.336 91.7337 134.206 83.7737C134.276 83.1737 133.856 82.2037 133.366 81.9237C129.166 79.4537 124.896 77.1137 120.706 74.7637C112.596 80.5837 107.856 80.5737 99.1362 74.7937C95.1062 77.0637 91.0162 79.3037 87.0062 81.6837C86.4962 81.9937 86.0762 83.0637 86.1662 83.6937C87.2662 91.1237 83.6562 97.6737 76.6762 100.474C75.5662 100.924 75.1262 101.394 75.1462 102.614C75.2162 108.224 75.1962 113.834 75.1462 119.444C75.1462 120.524 75.4262 121.034 76.5162 121.474C83.6062 124.334 87.1962 130.684 86.1662 138.154C86.0862 138.724 86.3162 139.694 86.7262 139.924C90.6262 142.204 94.5962 144.364 98.4962 146.534C105.436 139.514 114.816 139.554 121.696 146.414V146.404ZM15.0662 129.594C11.5662 129.634 8.6662 132.594 8.6762 136.094C8.6862 139.584 11.6262 142.524 15.1162 142.544C18.6862 142.564 21.6862 139.504 21.6162 135.934C21.5462 132.444 18.5562 129.554 15.0662 129.594ZM148.936 142.624C152.526 142.654 155.446 139.824 155.486 136.274C155.526 132.784 152.576 129.764 149.086 129.704C145.616 129.654 142.586 132.624 142.546 136.124C142.506 139.674 145.376 142.594 148.946 142.624H148.936ZM116.616 156.324C116.596 152.834 113.656 149.904 110.166 149.894C106.666 149.894 103.716 152.794 103.686 156.294C103.646 159.874 106.666 162.884 110.246 162.834C113.736 162.784 116.646 159.814 116.626 156.324H116.616ZM77.7462 86.5737C77.8462 83.0937 74.9962 80.0537 71.5062 79.9237C68.0162 79.7937 64.9662 82.6137 64.8062 86.1037C64.6462 89.6737 67.5662 92.7937 71.1462 92.8637C74.6262 92.9337 77.6462 90.0637 77.7462 86.5737ZM205.156 92.9437C208.726 92.9437 211.626 90.0437 211.616 86.4937C211.606 83.0037 208.606 80.0037 205.126 80.0137C201.656 80.0137 198.666 83.0337 198.666 86.5237C198.666 90.0737 201.576 92.9437 205.146 92.9437H205.156ZM116.376 63.8937C116.346 60.3537 113.396 57.4337 109.886 57.4637C106.346 57.4937 103.466 60.4337 103.496 63.9837C103.526 67.5337 106.446 70.4337 109.976 70.4137C113.496 70.3837 116.406 67.4337 116.376 63.8937Z" fill="#216BDC"/>
</svg>
