<svg width="244" height="212" viewBox="0 0 244 212" fill="none" xmlns="http://www.w3.org/2000/svg">
<path d="M0.0100098 104.128C0.21001 103.708 0.470004 103.308 0.590004 102.868C1.47 99.6676 3.47001 97.4376 6.51001 96.1776C10.89 94.3476 15.31 92.5976 19.71 90.8176C25.88 88.3276 32.04 85.8376 38.22 83.3676C39.17 82.9876 40.15 82.6876 40.96 82.3976C42.48 82.6776 43.58 83.2376 44.08 84.5676C44.78 86.4076 44.05 88.1577 42.06 89.0177C38.94 90.3777 35.77 91.6277 32.61 92.9077C25.19 95.8977 17.77 98.8676 10.35 101.848C9.76001 102.088 9.16 102.308 8.63 102.638C6.49 103.998 6.44001 107.018 8.54001 108.418C9.13001 108.808 9.81001 109.068 10.47 109.328C38.16 120.478 65.85 131.618 93.54 142.768C99.56 145.188 105.61 147.558 111.6 150.068C118.39 152.918 125.08 152.868 131.9 150.108C157.73 139.658 183.59 129.278 209.45 118.878C217.31 115.718 225.17 112.548 233.02 109.378C233.61 109.138 234.2 108.908 234.74 108.578C237.15 107.148 237.16 103.978 234.76 102.558C234.15 102.198 233.47 101.948 232.81 101.678C222.75 97.6276 212.69 93.5776 202.63 89.5276C202.12 89.3176 201.61 89.0876 201.11 88.8676C199.72 88.2676 198.97 87.1576 199.04 85.6976C199.11 84.2576 199.85 83.1476 201.31 82.6676C201.61 82.5676 201.91 82.4776 202.39 82.3376C203.09 82.5776 203.92 82.8176 204.72 83.1376C214.86 87.1976 225.01 91.2676 235.14 95.3376C236.09 95.7176 237.04 96.1376 237.95 96.6176C241.5 98.5076 243.3 101.608 243.32 105.508C243.34 109.408 241.61 112.608 238.04 114.438C235.58 115.698 232.97 116.668 230.4 117.708C201.9 129.178 173.4 140.648 144.9 152.108C141.37 153.528 137.85 154.948 134.33 156.388C125.93 159.828 117.54 159.758 109.14 156.358C94.83 150.558 80.51 144.798 66.19 139.038C46.95 131.288 27.71 123.548 8.47001 115.798C7.52001 115.418 6.57001 114.998 5.66001 114.528C3.20001 113.288 1.61001 111.288 0.720009 108.708C0.520009 108.128 0.260006 107.568 0.0300064 106.988C0.0300064 106.038 0.0300064 105.088 0.0300064 104.138L0.0100098 104.128Z" fill="#216BDC"/>
<path d="M0.0100098 51.8777C0.21001 51.4577 0.470004 51.0576 0.590004 50.6176C1.47 47.4176 3.47001 45.1876 6.51001 43.9276C10.89 42.0976 15.31 40.3476 19.71 38.5676C25.88 36.0776 32.04 33.5876 38.22 31.1176C39.17 30.7376 40.15 30.4376 40.96 30.1476C42.48 30.4276 43.58 30.9876 44.08 32.3176C44.78 34.1576 44.05 35.9077 42.06 36.7677C38.94 38.1277 35.77 39.3777 32.61 40.6577C25.19 43.6477 17.77 46.6176 10.35 49.5976C9.76001 49.8376 9.16 50.0576 8.63 50.3876C6.49 51.7477 6.44001 54.7676 8.54001 56.1676C9.13001 56.5576 9.81001 56.8177 10.47 57.0777C38.16 68.2277 65.85 79.3677 93.54 90.5177C99.56 92.9377 105.61 95.3076 111.6 97.8176C118.39 100.668 125.08 100.618 131.9 97.8577C157.73 87.4076 183.59 77.0277 209.45 66.6277C217.31 63.4677 225.17 60.2977 233.02 57.1277C233.61 56.8877 234.2 56.6577 234.74 56.3277C237.15 54.8977 237.16 51.7276 234.76 50.3076C234.15 49.9476 233.47 49.6976 232.81 49.4276C222.75 45.3776 212.69 41.3276 202.63 37.2776C202.12 37.0676 201.61 36.8376 201.11 36.6176C199.72 36.0176 198.97 34.9076 199.04 33.4476C199.11 32.0076 199.85 30.8976 201.31 30.4176C201.61 30.3176 201.91 30.2276 202.39 30.0876C203.09 30.3276 203.92 30.5676 204.72 30.8876C214.86 34.9476 225.01 39.0176 235.14 43.0876C236.09 43.4676 237.04 43.8876 237.95 44.3676C241.5 46.2576 243.3 49.3576 243.32 53.2576C243.34 57.1576 241.61 60.3577 238.04 62.1877C235.58 63.4477 232.97 64.4176 230.4 65.4576C201.9 76.9276 173.4 88.3977 144.9 99.8577C141.37 101.278 137.85 102.698 134.33 104.138C125.93 107.578 117.54 107.508 109.14 104.108C94.83 98.3076 80.51 92.5476 66.19 86.7876C46.95 79.0376 27.71 71.2977 8.47001 63.5477C7.52001 63.1677 6.57001 62.7477 5.66001 62.2776C3.20001 61.0376 1.61001 59.0376 0.720009 56.4576C0.520009 55.8776 0.260006 55.3176 0.0300064 54.7376C0.0300064 53.7876 0.0300064 52.8377 0.0300064 51.8876L0.0100098 51.8777Z" fill="#216BDC"/>
<path d="M0.0100021 156.448C0.170002 156.178 0.420003 155.938 0.480003 155.648C1.3 151.688 3.87 149.358 7.5 147.938C11.7 146.298 15.87 144.568 20.06 142.888C26.23 140.408 32.4 137.928 38.57 135.458C39.08 135.248 39.59 135.008 40.12 134.858C41.6 134.458 43.33 135.228 43.95 136.508C44.64 137.938 44.22 139.888 42.91 140.758C42.13 141.278 41.23 141.628 40.35 141.978C30.51 145.958 20.67 149.908 10.83 153.878C10.1 154.178 9.34 154.438 8.67 154.848C6.49 156.188 6.41 159.178 8.53 160.598C9.24 161.078 10.09 161.368 10.89 161.698C28.3 168.708 45.71 175.698 63.12 182.708C79.13 189.158 95.12 195.648 111.15 202.058C113.27 202.908 115.49 203.548 117.72 204.058C122.54 205.148 127.16 204.168 131.65 202.378C139.88 199.088 148.11 195.778 156.33 192.458C175.42 184.768 194.51 177.068 213.6 169.378C220.06 166.778 226.53 164.178 232.99 161.568C233.72 161.268 234.48 160.978 235.11 160.528C237.09 159.108 237.02 156.218 234.96 154.908C234.1 154.358 233.12 153.998 232.16 153.618C222.32 149.648 212.48 145.678 202.64 141.718C202.13 141.508 201.59 141.338 201.11 141.078C199.45 140.158 198.8 138.278 199.53 136.598C200.17 135.138 202.33 134.318 203.76 134.938C206.95 136.328 210.22 137.558 213.45 138.848C220.94 141.858 228.43 144.878 235.93 147.878C237.64 148.558 239.22 149.408 240.52 150.758C244.81 155.258 244.06 162.668 238.89 166.118C237.85 166.818 236.67 167.338 235.5 167.808C215.53 175.868 195.55 183.908 175.58 191.958C161.99 197.428 148.39 202.858 134.83 208.408C129.58 210.558 124.21 211.488 118.58 211.008C115.56 210.748 112.66 209.968 109.86 208.838C75.71 195.088 41.57 181.338 7.42 167.588C3.9 166.168 1.36 163.898 0.489998 160.058C0.429998 159.778 0.17 159.538 0 159.278C0 158.328 0 157.378 0 156.428L0.0100021 156.448Z" fill="#216BDC"/>
<path d="M236.42 43.6377C235.1 43.1077 233.78 42.5677 232.46 42.0277C199.85 28.8877 167.23 15.7677 134.63 2.59769C125.97 -0.902308 117.45 -0.852308 108.77 2.66769C78.91 14.7777 49 26.7677 19.11 38.8077C15.07 40.4377 11.03 42.0577 6.99001 43.6977C3.70001 45.0277 1.44001 47.2777 0.550011 50.7977C0.460011 51.1577 0.19001 51.4677 0.0100098 51.8077V54.6577C0.15001 54.8477 0.370011 55.0177 0.410011 55.2277C1.26001 59.4877 4.07001 61.8177 7.93001 63.3577C27.41 71.1477 46.87 78.9977 66.32 86.8577C67.89 87.4877 69.47 87.7877 71.17 87.7877C76.37 87.7877 81.57 87.7877 86.77 87.7877L68.2 80.3077C67.84 80.2077 67.49 80.0777 67.13 79.9377C57.52 76.0477 47.9 72.1777 38.28 68.2977C29.1 64.5977 19.93 60.8977 10.75 57.1877C10.09 56.9177 9.41001 56.6777 8.80001 56.3177C6.39001 54.9077 6.39001 51.7377 8.80001 50.3077C9.41001 49.9477 10.09 49.7077 10.75 49.4377C28.15 42.4277 45.56 35.4377 62.96 28.4277C79.04 21.9477 95.12 15.4677 111.19 8.9677C114.59 7.5877 118.09 6.67769 121.82 6.54769C125.21 6.69769 128.5 7.4277 131.69 8.7177C147.91 15.2577 164.14 21.7877 180.37 28.3177C197.7 35.2977 215.02 42.2777 232.35 49.2677C233.08 49.5677 233.82 49.8477 234.53 50.1977C235.87 50.8477 236.56 51.9277 236.51 53.4377C236.47 54.8377 235.8 55.8777 234.54 56.4377C232.88 57.1877 231.19 57.8677 229.5 58.5477C212.03 65.5877 194.54 72.5977 177.09 79.6977C176.6 79.8977 176.13 80.0377 175.67 80.1277L156.68 87.7877C161.86 87.7877 167.05 87.7877 172.23 87.7877C174.1 87.7877 175.82 87.4477 177.53 86.7477C188.68 82.2177 199.85 77.7277 211.01 73.2277C219.46 69.8277 227.91 66.4277 236.36 63.0477C240.69 61.3077 243.24 58.1077 243.3 53.4677C243.35 49.2677 241.44 45.6477 236.41 43.6277L236.42 43.6377Z" fill="#216BDC"/>
</svg>
