<svg width="179" height="220" viewBox="0 0 179 220" fill="none" xmlns="http://www.w3.org/2000/svg">
<path d="M17.5634 219.73C14.8834 218.65 12.0334 217.85 9.55339 216.42C2.31339 212.24 -3.8566 200.8 2.9334 189.96C7.0734 183.34 12.3434 177.77 18.1534 172.65C19.6334 171.34 21.3134 171.21 22.8234 172.52C28.9434 177.84 34.4434 183.67 38.6334 190.7C45.4434 202.13 37.3934 216.6 24.9534 219.27C24.4834 219.37 24.0434 219.57 23.5834 219.72H17.5734L17.5634 219.73ZM20.5534 179.68C15.6634 184.38 10.9034 189.06 8.0434 195.16C7.1634 197.03 6.8634 199.49 7.1734 201.55C8.0934 207.54 12.6234 211.87 18.6334 212.69C24.2234 213.45 28.8034 211.39 31.9634 206.71C34.9634 202.27 35.1034 197.67 32.1134 193.06C28.9034 188.11 25.0034 183.79 20.5534 179.68Z" fill="black"/>
<path d="M91.8032 139.47C90.2032 141.2 88.6632 142.97 87.0032 144.63C82.8032 148.81 77.8632 148.94 73.4632 145.06C66.0032 138.49 56.7332 138.76 49.6532 145.8C44.4232 150.99 39.2732 156.26 34.0032 161.4C30.3432 164.97 25.2132 165.75 20.7032 163.68C16.2132 161.61 13.4532 157.05 13.7532 152.09C13.9432 148.96 15.2432 146.32 17.4632 144.11C22.4332 139.16 27.3832 134.2 32.3332 129.24C39.8132 121.75 40.1432 112.77 33.2332 104.8C29.6432 100.65 29.7732 95.6601 33.6432 91.7301C35.3432 90.0001 37.1432 88.3601 38.9932 86.5901C38.4032 85.9301 38.0032 85.4501 37.5732 85.0101C32.5432 79.7701 32.5232 72.7401 37.6532 67.5801C50.1132 55.0601 62.6332 42.5901 75.1232 30.0901C83.7232 21.4901 92.3232 12.9001 100.923 4.30012C106.623 -1.39988 113.823 -1.43988 119.493 4.22012C137.813 22.5201 156.123 40.8301 174.423 59.1501C180.003 64.7401 180.013 71.7501 174.423 77.3401C153.543 98.2401 132.653 119.13 111.763 140.01C105.563 146.21 99.2532 146.27 92.8032 140.25C92.6032 140.06 92.3632 139.91 91.7932 139.47H91.8032ZM53.1932 62.2101C74.1832 83.2101 95.2932 104.33 116.283 125.33C130.563 111.04 144.953 96.6501 159.213 82.3801C138.213 61.4001 117.093 40.2901 96.1032 19.3001C81.8532 33.5501 67.4532 47.9501 53.2032 62.2101H53.1932ZM47.4532 67.1601C46.1632 68.5601 44.8432 70.0601 43.4332 71.4901C39.7832 75.2001 39.7532 77.4701 43.3932 81.1101C55.3332 93.0501 67.2732 104.98 79.2132 116.91C85.4832 123.18 91.7432 129.47 98.0332 135.72C100.473 138.15 103.173 138.49 105.483 136.46C107.513 134.68 109.303 132.62 111.083 130.8C89.9832 109.7 68.9032 88.6101 47.4532 67.1601ZM101.213 13.5301C122.563 34.8801 143.673 55.9901 165.073 77.3901C166.223 76.1301 167.473 74.6601 168.823 73.2901C172.663 69.4001 172.703 67.1901 168.893 63.3701C153.683 48.1501 138.463 32.9401 123.243 17.7201C120.163 14.6401 117.103 11.5201 113.973 8.48012C111.643 6.22012 108.903 6.21012 106.523 8.40012C104.683 10.0901 102.923 11.8601 101.203 13.5201L101.213 13.5301ZM43.7132 91.1201C42.1332 92.7701 40.7232 94.2701 39.2832 95.7401C36.9532 98.1101 36.9432 98.8101 39.3132 101.18C52.0032 113.88 64.7032 126.57 77.4032 139.27C77.7532 139.62 78.0832 140.21 78.4832 140.27C79.5032 140.41 80.9032 140.75 81.5432 140.24C83.5932 138.62 85.3732 136.66 87.2832 134.8C86.8332 134.3 86.6132 134.03 86.3632 133.78C72.2532 119.66 58.1532 105.55 43.7132 91.1101V91.1201ZM61.7732 133.17C56.2532 127.58 50.9132 122.18 45.5732 116.78L45.0232 117.06C44.8532 125.14 40.6832 131.05 35.0632 136.3C30.7232 140.35 26.6432 144.67 22.4432 148.87C20.9832 150.33 20.2132 152.02 20.7932 154.11C21.8932 158.06 26.5332 159.1 29.6732 156.02C34.7232 151.06 39.7232 146.03 44.7032 141C47.6732 138 51.0732 135.67 55.1532 134.51C57.1732 133.94 59.2832 133.67 61.7832 133.18L61.7732 133.17Z" fill="black"/>
<path d="M106.113 95.6401C93.2733 95.6001 82.8133 85.0601 82.8433 72.1901C82.8733 59.3801 93.4733 48.8501 106.283 48.9001C119.113 48.9601 129.603 59.5201 129.563 72.3601C129.523 85.1901 118.953 95.6801 106.103 95.6401H106.113ZM106.183 88.7601C115.273 88.7601 122.743 81.2901 122.693 72.2301C122.653 63.2401 115.263 55.8201 106.293 55.7701C97.1933 55.7201 89.7233 63.1201 89.6933 72.2101C89.6733 81.3101 97.0833 88.7601 106.173 88.7601H106.183Z" fill="black"/>
</svg>
