<svg width="205" height="205" viewBox="0 0 205 205" fill="none" xmlns="http://www.w3.org/2000/svg">
<path d="M51.9151 171.315C59.5351 182.745 55.4251 194.345 48.3451 200.125C40.6251 206.435 29.3951 206.365 21.6451 199.885C13.9851 193.475 11.9851 182.375 16.9351 173.605C22.3851 163.945 32.3951 160.925 44.8551 165.285C54.0351 154.125 63.2551 142.915 72.4551 131.725C60.5451 119.245 56.2751 99.4555 66.3651 81.3055C66.0551 81.0355 65.7451 80.7355 65.4051 80.4855C57.9151 74.8755 50.4251 69.2655 42.7951 63.5555C36.4951 68.7855 29.3251 70.8955 21.2751 69.5455C14.9251 68.4755 9.74508 65.3355 5.68508 60.3455C-2.25492 50.5655 -1.83492 36.5155 6.67508 26.9555C14.8651 17.7555 28.8551 15.8455 39.4451 22.4955C49.6051 28.8755 55.1251 42.6655 48.5451 56.2255C56.3351 62.0555 64.1551 67.9155 72.0551 73.8255C83.0151 62.9655 96.0051 58.7955 111.305 61.5255C111.905 59.7155 112.495 57.9455 113.085 56.1755C115.305 49.5055 117.515 42.8255 119.775 36.1655C120.155 35.0355 120.215 34.3155 119.095 33.4055C112.245 27.8955 110.055 19.3255 113.345 11.4955C116.565 3.84546 124.435 -0.804542 132.585 0.115458C140.955 1.06546 147.445 7.28546 148.995 15.8155C150.975 26.7655 142.265 37.1055 130.785 37.4155C130.285 37.4255 129.795 37.4155 129.155 37.4155C126.165 46.3955 123.195 55.3255 120.135 64.4955C131.505 70.1455 139.145 79.0255 142.885 91.3255C147.155 90.6655 151.295 90.0255 155.445 89.3655C158.955 88.8055 162.455 88.1955 165.975 87.6855C167.205 87.5055 167.785 87.1355 168.005 85.7255C169.495 76.0955 178.335 69.0855 187.645 70.0055C197.915 71.0155 205.225 79.1055 204.975 89.1555C204.725 98.8855 196.785 106.955 186.925 107.165C179.775 107.315 174.155 104.205 170.405 98.0555C169.675 96.8555 169.015 96.5555 167.675 96.7755C160.025 98.0655 152.355 99.2555 145.075 100.425C144.155 105.515 143.765 110.565 142.245 115.235C140.725 119.925 138.085 124.255 135.925 128.745C143.795 136.625 152.045 144.885 160.435 153.285C166.755 149.205 173.835 147.925 181.395 149.955C187.535 151.595 192.375 155.145 195.915 160.415C202.955 170.885 201.195 184.975 191.805 193.535C182.585 201.945 168.295 202.365 158.605 194.495C148.495 186.285 145.935 171.745 153.195 160.615C144.865 152.275 136.575 143.985 128.255 135.645C112.855 146.545 96.5951 147.325 79.6051 137.665C70.4251 148.815 61.2051 160.015 51.9151 171.305V171.315ZM102.505 69.9455C84.6951 69.8455 70.0351 84.5755 69.9751 102.615C69.9251 120.235 84.5251 134.935 102.255 135.105C120.155 135.275 134.955 120.705 135.105 102.755C135.255 84.7555 120.635 70.0455 102.505 69.9455ZM158.355 174.555C158.335 183.465 165.625 190.855 174.465 190.895C183.465 190.935 190.855 183.635 190.915 174.645C190.975 165.795 183.645 158.375 174.785 158.335C165.745 158.285 158.375 165.565 158.365 174.545L158.355 174.555ZM42.0551 44.3955C42.0951 35.4655 34.9151 28.1955 25.9551 28.0755C17.0051 27.9555 9.60508 35.3355 9.60508 44.3655C9.60508 53.3555 16.7851 60.6255 25.7051 60.6555C34.7651 60.6955 42.0151 53.4755 42.0551 44.3955ZM23.5751 183.945C23.5951 190.435 28.7651 195.545 35.2451 195.475C41.7051 195.415 46.8151 190.195 46.7551 183.745C46.6951 177.445 41.4751 172.295 35.1551 172.295C28.7151 172.295 23.5551 177.475 23.5851 183.945H23.5751ZM130.355 28.0355C135.575 28.0555 139.645 24.0655 139.685 18.8855C139.725 13.6755 135.735 9.61546 130.535 9.55546C125.345 9.49546 121.225 13.5355 121.205 18.7055C121.185 23.9255 125.185 28.0155 130.355 28.0355ZM177.005 88.4655C176.995 93.6955 180.995 97.7655 186.155 97.7955C191.375 97.8155 195.445 93.8255 195.475 88.6455C195.505 83.4355 191.525 79.3755 186.325 79.3155C181.135 79.2555 177.015 83.3055 177.005 88.4655Z" fill="#216BDC"/>
</svg>
