<svg width="188" height="224" viewBox="0 0 188 224" fill="none" xmlns="http://www.w3.org/2000/svg">
<path d="M143.961 0C144.341 0.67 145.111 0.509997 145.671 0.769997C149.761 2.61 152.071 5.68999 152.331 10.19C152.461 12.37 152.261 14.57 152.821 16.71C154.231 22.01 158.991 25.57 164.861 25.67C168.361 25.73 171.851 25.65 175.351 25.69C182.491 25.77 187.221 30.51 187.291 37.63C187.331 41.34 187.311 45.06 187.291 48.77C187.281 51.29 186.001 52.83 184.001 52.79C182.021 52.75 180.771 51.2 180.751 48.67C180.721 45.03 180.771 41.39 180.731 37.74C180.691 34.09 178.871 32.28 175.171 32.24C171.751 32.2 168.321 32.28 164.901 32.22C153.891 32.03 146.021 24.14 145.811 13.12C145.811 12.61 145.811 12.1 145.811 11.59C145.761 7.98 144.361 6.55 140.781 6.55C130.151 6.54 119.511 6.55 108.881 6.55C88.2711 6.55 67.6511 6.55 47.0411 6.55C42.8611 6.55 41.5811 7.82999 41.5611 12.01C41.5011 22.16 36.0711 29.54 27.0311 31.7C24.6011 32.28 22.1211 32.25 19.6411 32.23C17.1611 32.21 14.6911 32.2 12.2111 32.23C8.51112 32.28 6.71111 34.08 6.63111 37.72C6.63111 37.87 6.63111 38.01 6.63111 38.16C6.63111 59.14 6.30112 80.12 6.71112 101.09C7.53112 143.06 25.7311 175.74 60.4711 199.22C68.0611 204.35 75.8011 209.25 83.5411 214.16C89.6211 218.02 96.2311 218.72 102.351 214.93C114.461 207.44 126.851 200.29 137.871 191.19C160.161 172.79 173.841 149.26 178.991 120.79C180.261 113.75 180.771 106.65 180.751 99.49C180.721 88.42 180.751 77.35 180.751 66.28C180.751 65.41 180.691 64.54 181.061 63.7C181.701 62.27 182.811 61.53 184.341 61.68C185.951 61.84 186.991 62.78 187.261 64.44C187.331 64.87 187.311 65.31 187.311 65.75C187.311 77.62 187.571 89.5 187.251 101.37C186.091 145.3 167.171 179.65 130.941 204.44C123.441 209.57 115.721 214.37 108.061 219.27C98.4411 225.42 88.7711 225.42 79.2111 219.17C69.4111 212.77 59.2411 206.9 49.9111 199.82C23.2511 179.61 7.22112 152.87 1.58112 119.92C0.441118 113.24 0.0511162 106.48 0.0711162 99.69C0.111116 79.3 0.251116 58.9 0.00111647 38.51C-0.0888835 31.12 5.27111 25.13 12.9111 25.65C15.6711 25.84 18.4411 25.68 21.2111 25.68C30.1311 25.68 34.9811 20.85 35.0111 11.93C35.0311 5.63 37.2911 2.42 43.1711 0.309998C43.2811 0.269998 43.3411 0.11 43.4311 0C76.9411 0 110.451 0 143.961 0Z" fill="black"/>
<path d="M180.761 45.5901L180.751 70.0301L187.301 68.7101L187.311 48.2201L180.761 45.5901Z" fill="black"/>
<path d="M148.761 153.89C148.061 155.7 146.661 156.43 144.821 156.82C128.001 160.45 112.101 158.04 97.1309 149.58C91.9109 146.63 87.2609 142.9 83.0209 138.66C72.3209 127.96 61.6209 117.26 50.9209 106.55C48.6409 104.27 48.6409 102.45 50.9209 100.17C53.3709 97.7099 55.8309 95.2599 58.3709 92.7199C58.0009 92.3299 57.6909 91.9899 57.3609 91.6599C48.6409 82.9399 39.9309 74.2199 31.2109 65.5099C28.3509 62.6599 26.8709 59.3199 27.5609 55.2399C28.2409 51.1799 30.5609 48.2699 34.3309 46.7499C38.1409 45.2099 41.8509 45.6999 45.1909 48.1999C45.9109 48.7399 46.5809 49.3699 47.2209 50.0099C80.3609 83.1399 113.501 116.28 146.621 149.43C147.441 150.25 148.061 151.27 148.771 152.2V153.86L148.761 153.89ZM74.1609 87.4699C68.8709 92.7499 63.4909 98.1199 58.0809 103.53C58.1509 103.61 58.3009 103.79 58.4709 103.95C68.4709 113.95 78.4709 123.97 88.4909 133.96C92.7409 138.2 97.5209 141.73 102.861 144.51C110.611 148.55 118.861 150.8 127.571 151.19C130.891 151.34 134.221 151.07 137.691 150.99C116.321 129.62 95.1809 108.48 74.1709 87.4699H74.1609ZM68.9009 81.8999C68.7509 81.7399 68.5909 81.5599 68.4209 81.3899C59.5109 72.4799 50.6109 63.5699 41.7009 54.6699C41.4809 54.4499 41.2509 54.2299 41.0009 54.0299C38.6409 52.1199 35.2409 53.3199 34.6309 56.2799C34.2709 57.9899 35.0609 59.2299 36.2109 60.3799C45.0109 69.1699 53.8109 77.9699 62.6009 86.7599C62.8709 87.0299 63.1609 87.2899 63.3309 87.4499C65.2009 85.5799 67.0109 83.7799 68.8909 81.8999H68.9009Z" fill="black"/>
</svg>
