<?xml version="1.0" encoding="utf-8"?>
<!-- Generator: Adobe Illustrator 28.0.0, SVG Export Plug-In . SVG Version: 6.00 Build 0)  -->
<svg version="1.1" id="_Слой_1" xmlns="http://www.w3.org/2000/svg" xmlns:xlink="http://www.w3.org/1999/xlink" x="0px"
	 y="0px" viewBox="0 0 425.2 425.2" style="enable-background:new 0 0 425.2 425.2;" xml:space="preserve">
<path d="M288.6,258.3c7.1,12.2,14.1,24.2,21,36.1c0.5,0.9,1.1,1.9,1.3,2.9c0.5,3-2.4,4.9-5.7,4c-9.8-2.6-19.5-5.2-29.3-7.8
	c-0.5-0.1-1.1-0.2-2-0.4c-0.7,2.6-1.4,5.1-2.1,7.6c-2.1,7.7-4.1,15.4-6.1,23c-0.6,2.1-1.4,4-3.9,4.3c-2.4,0.2-3.5-1.4-4.5-3.2
	c-6.1-10.7-12.3-21.4-18.5-32c-0.6-1-1.8-1.8-2.9-2.2c-3.1-1.3-6.2-2.2-9.3-3.4c-2.7-1.1-5.3-2.4-7.9-3.5c-3.9-1.7-7.9-1.7-11.8,0
	c-4.6,2-9.1,4.6-13.9,5.8c-4.2,1.1-6.4,3.4-8.4,7c-5.2,9.6-10.9,19-16.3,28.5c-1,1.8-2.2,3.5-4.6,3.1c-2.4-0.3-3.2-2.2-3.8-4.3
	c-2.6-10.1-5.4-20.1-8.2-30.4c-0.7,0.1-1.3,0.1-1.9,0.3c-9.7,2.6-19.4,5.1-29,7.8c-2,0.5-3.8,0.7-5.2-1.1c-1.5-1.8-0.9-3.7,0.2-5.5
	c6.6-11.3,13.1-22.7,19.6-34c0.4-0.8,0.9-1.6,1.4-2.5c-8.6-4.6-9.3-12.2-8.3-20.6c0.4-3.1,0.7-6.3,1.1-9.4c0.6-4.8-0.7-9-4.1-12.5
	c-2.9-3-5.7-6.1-8.3-9.2c-7.2-8.7-7.2-16.1,0-24.8c2.6-3.1,5.3-6.1,8.2-9c3.7-3.8,4.8-8.3,4.1-13.5c-0.6-4.7-1.2-9.4-1.3-14.1
	c-0.2-8.4,3.7-13.8,11.8-16.3c4.9-1.5,10-2.4,15-3.5c4.6-0.9,7.9-3.4,10.2-7.5c2.5-4.5,5-9,7.9-13.2c4.2-6.1,10.1-8.6,17.5-6.6
	c2.3,0.6,4.5,1.6,6.8,2.5c3,1.2,5.9,2.6,8.8,3.9c4.3,2,8.6,2,13,0.1c2.5-1.1,5-2.2,7.5-3.3c1.3-0.6,2.6-1.2,3.9-1.7
	c10.6-4.2,17.4-2.1,23.5,7.5c2.3,3.6,4.3,7.3,6.3,11c2.2,4,5.5,6.4,10.1,7.4c4.9,1,9.9,2,14.7,3.4c8.5,2.6,12.2,7.7,12.1,16.6
	c-0.1,5.1-0.8,10.2-1.3,15.4c-0.5,4.4,0.6,8.2,3.6,11.4c3,3.3,6.1,6.5,8.9,10c6.8,8.5,6.8,15.7,0,24.3c-1.9,2.4-3.9,4.8-6.2,6.8
	c-6,5.3-7.6,11.7-6.1,19.3c0.6,3,0.7,6.1,0.9,9.1C297.6,248.7,295.5,254.6,288.6,258.3L288.6,258.3z M289.2,147.8
	c0.3-7.9-1.3-10.1-8-11.9c-2.8-0.8-5.6-1.4-8.5-1.8c-9.9-1.3-17-6.3-21.3-15.4c-1.5-3.2-3.4-6.3-5.5-9.2c-3-4.3-5.6-5.1-10.5-3.3
	c-3.8,1.4-7.5,3-11.1,4.8c-7.8,3.8-15.6,3.8-23.4-0.1c-3.3-1.7-6.7-3.2-10.2-4.5c-5.7-2.2-8.5-1.3-11.9,3.7
	c-2.2,3.2-4.1,6.6-5.9,10.1c-3.9,7.6-10.1,12-18.6,13.4c-3.9,0.6-7.8,1.4-11.6,2.5c-5.2,1.5-6.9,3.8-6.8,9.2
	c0.1,3.4,0.3,6.8,0.9,10.1c1.6,9.6-0.5,17.9-7.8,24.7c-2.4,2.2-4.5,4.7-6.5,7.2c-4.1,5.2-4.1,8.4,0,13.5c2.7,3.3,5.6,6.3,8.4,9.4
	c4.8,5.2,6.9,11.2,6.1,18.2c-0.5,4.9-1.1,9.7-1.2,14.6c-0.1,5.1,1.4,7.2,6.4,8.7c3.6,1.1,7.4,2,11.1,2.5c9.1,1.4,15.8,6,19.9,14.3
	c0.8,1.6,1.6,3.1,2.5,4.6c1.4,2.2,2.7,4.4,4.2,6.4c2.2,3,5.3,4,8.8,2.6c3.9-1.4,7.8-2.9,11.4-4.8c8.2-4.2,16.3-4.2,24.5-0.1
	c3.3,1.7,6.7,3.2,10.2,4.5c5.2,1.9,8,1,11.1-3.5c2.1-3.1,4-6.3,5.7-9.6c4.2-8.6,11.1-13.2,20.5-14.5c3.9-0.6,7.8-1.6,11.6-2.8
	c3.6-1.1,5.5-3.7,5.3-7.5c-0.1-3.9-0.3-7.8-0.9-11.6c-1.4-9.2,0.4-17.2,7.3-23.9c2.6-2.5,5-5.3,7.3-8.1c3.7-4.7,3.6-7.8,0.1-12.6
	c-1-1.4-2.2-2.7-3.4-4c-2.2-2.5-4.5-4.9-6.6-7.4c-4-4.6-5.6-10.1-5.1-16.1C288.4,155.9,288.9,151.4,289.2,147.8L289.2,147.8z
	 M178.3,290.9c-2-2.7-3.6-4.7-5.2-6.9c-1.5-2.2-2.9-4.4-4.3-6.7c-1.4-2.3-2.7-4.7-4-7.1c-2.2-4-5.6-6.4-10.1-7.3
	c-2.8-0.5-5.5-1-8.2-1.8c-1.7-0.5-2.5,0-3.3,1.5c-5,8.9-10.1,17.6-15.2,26.5c-0.4,0.6-0.6,1.2-1.1,2.2c1-0.2,1.6-0.4,2.2-0.5
	c7.7-2,15.3-4.1,23-6.1c3.8-1,5.3-0.1,6.3,3.8c0.5,1.9,1,3.8,1.5,5.8c1.7,6.3,3.4,12.7,5.3,19.6C170,305.4,174.5,297.5,178.3,290.9
	L178.3,290.9z M298.5,291.5c-5.9-10.2-11.4-19.9-17-29.4c-0.3-0.5-1.4-0.9-2.1-0.8c-2.3,0.3-4.5,0.9-6.8,1.2
	c-6.1,0.9-10.6,4-13.3,9.6c-0.9,1.8-1.9,3.5-2.9,5.2c-2.6,4.8-5.5,9.3-10.4,12.2c4.6,8,9.2,15.9,14,24.3c2.4-8.9,4.6-17,6.8-25.2
	c1.1-4.1,2.5-4.9,6.7-3.8c1,0.3,2.1,0.6,3.1,0.9C283.6,287.5,290.7,289.5,298.5,291.5L298.5,291.5z"/>
<path d="M212.5,256.1c-34.2-0.1-62-27.9-62-62c0-34.2,28-62.1,62.3-62c34.1,0.1,62,28.1,61.9,62.2
	C274.5,228.4,246.6,256.2,212.5,256.1L212.5,256.1z M212.5,248.1c29.9,0,54.2-24.2,54.2-54c0-29.7-24.2-54-53.9-54.1
	c-29.9-0.1-54.2,24.1-54.3,53.9C158.3,223.7,182.6,248,212.5,248.1L212.5,248.1z"/>
<path d="M204.4,210.5c0.6-1,1-1.9,1.6-2.5c12.3-12.3,24.6-24.6,36.9-36.9c0.6-0.6,1.3-1.4,2-1.8c1.8-1.1,3.5-0.9,5,0.6
	c1.3,1.4,1.5,3.1,0.4,4.8c-0.5,0.8-1.2,1.4-1.8,2c-13.4,13.5-26.9,27-40.4,40.5c-3.3,3.4-4.9,3.3-8.3,0
	c-7.7-7.7-15.5-15.5-23.2-23.2c-0.4-0.4-0.8-0.8-1.2-1.2c-1.6-1.8-1.7-4-0.2-5.6c1.6-1.7,3.9-1.8,5.8-0.1c3.6,3.4,7.1,7,10.6,10.5
	C195.6,201.7,199.7,205.8,204.4,210.5L204.4,210.5z"/>
</svg>
