<?xml version="1.0" encoding="UTF-8"?>
<svg id="_Слой_1" data-name="Слой 1" xmlns="http://www.w3.org/2000/svg" viewBox="0 0 425.2 425.2">
  <defs>
    <style>
      .cls-1, .cls-2 {
        stroke-width: 0px;
      }

      .cls-2 {
        fill: #020202;
      }
    </style>
  </defs>
  <g>
    <path class="cls-1" d="m108.61,184.62c.19-.4.44-.78.55-1.2.84-3.06,2.75-5.19,5.65-6.39,4.19-1.74,8.4-3.42,12.61-5.12,5.89-2.38,11.78-4.75,17.67-7.12.91-.36,1.84-.65,2.61-.92,1.45.27,2.5.81,2.98,2.07.67,1.75-.03,3.43-1.93,4.25-2.98,1.3-6,2.5-9.02,3.71-7.08,2.85-14.17,5.69-21.26,8.54-.56.23-1.14.44-1.64.76-2.04,1.3-2.09,4.18-.08,5.52.56.37,1.21.62,1.84.87,26.44,10.65,52.88,21.29,79.33,31.93,5.75,2.31,11.53,4.57,17.24,6.97,6.48,2.72,12.88,2.67,19.39.04,24.67-9.98,49.36-19.89,74.05-29.83,7.5-3.02,15.01-6.04,22.51-9.07.56-.23,1.13-.45,1.65-.76,2.3-1.37,2.31-4.39.01-5.75-.58-.34-1.23-.59-1.86-.84-9.61-3.87-19.21-7.74-28.82-11.61-.49-.2-.97-.42-1.45-.63-1.32-.58-2.04-1.63-1.98-3.03.06-1.37.77-2.44,2.17-2.89.29-.09.57-.18,1.03-.32.66.23,1.46.46,2.22.76,9.69,3.88,19.37,7.76,29.05,11.65.91.37,1.82.76,2.68,1.22,3.39,1.8,5.11,4.77,5.13,8.49.02,3.72-1.63,6.78-5.05,8.53-2.35,1.2-4.84,2.13-7.3,3.12-27.21,10.96-54.43,21.9-81.65,32.85-3.37,1.35-6.73,2.71-10.09,4.08-8.03,3.28-16.03,3.22-24.06-.03-13.66-5.54-27.34-11.04-41.01-16.54-18.37-7.4-36.75-14.79-55.12-22.19-.91-.37-1.81-.77-2.69-1.21-2.35-1.19-3.87-3.09-4.72-5.56-.19-.56-.44-1.09-.66-1.64,0-.91,0-1.82,0-2.73Z"/>
    <path class="cls-1" d="m108.61,134.73c.19-.4.44-.78.55-1.2.84-3.06,2.75-5.19,5.65-6.39,4.19-1.74,8.4-3.42,12.61-5.12,5.89-2.38,11.78-4.75,17.67-7.12.91-.36,1.84-.65,2.61-.92,1.45.27,2.5.81,2.98,2.07.67,1.75-.03,3.43-1.93,4.25-2.98,1.3-6,2.5-9.02,3.71-7.08,2.85-14.17,5.69-21.26,8.54-.56.23-1.14.44-1.64.76-2.04,1.3-2.09,4.18-.08,5.52.56.37,1.21.62,1.84.87,26.44,10.65,52.88,21.29,79.33,31.93,5.75,2.31,11.53,4.57,17.24,6.97,6.48,2.72,12.88,2.67,19.39.04,24.67-9.98,49.36-19.89,74.05-29.83,7.5-3.02,15.01-6.04,22.51-9.07.56-.23,1.13-.45,1.65-.76,2.3-1.37,2.31-4.39.01-5.75-.58-.34-1.23-.59-1.86-.84-9.61-3.87-19.21-7.74-28.82-11.61-.49-.2-.97-.42-1.45-.63-1.32-.58-2.04-1.63-1.98-3.03.06-1.37.77-2.44,2.17-2.89.29-.09.57-.18,1.03-.32.66.23,1.46.46,2.22.76,9.69,3.88,19.37,7.76,29.05,11.65.91.37,1.82.76,2.68,1.22,3.39,1.8,5.11,4.77,5.13,8.49.02,3.72-1.63,6.78-5.05,8.53-2.35,1.2-4.84,2.13-7.3,3.12-27.21,10.96-54.43,21.9-81.65,32.85-3.37,1.35-6.73,2.71-10.09,4.08-8.03,3.28-16.03,3.22-24.06-.03-13.66-5.54-27.34-11.04-41.01-16.54-18.37-7.4-36.75-14.79-55.12-22.19-.91-.37-1.81-.77-2.69-1.21-2.35-1.19-3.87-3.09-4.72-5.56-.19-.56-.44-1.09-.66-1.64,0-.91,0-1.82,0-2.73Z"/>
    <path class="cls-1" d="m108.61,234.58c.15-.25.39-.49.45-.77.79-3.78,3.24-6,6.7-7.36,4.01-1.57,7.99-3.22,11.99-4.83,5.89-2.37,11.79-4.73,17.68-7.1.49-.2.97-.43,1.48-.57,1.41-.38,3.07.35,3.66,1.58.66,1.36.26,3.23-1,4.06-.75.5-1.61.83-2.45,1.17-9.39,3.8-18.79,7.58-28.19,11.37-.7.28-1.43.54-2.06.93-2.08,1.28-2.16,4.14-.13,5.49.68.46,1.49.74,2.26,1.05,16.62,6.69,33.25,13.37,49.87,20.07,15.29,6.16,30.56,12.36,45.86,18.48,2.02.81,4.15,1.43,6.27,1.91,4.6,1.04,9.01.1,13.3-1.61,7.86-3.14,15.72-6.3,23.57-9.47,18.23-7.34,36.46-14.69,54.69-22.04,6.17-2.49,12.34-4.97,18.51-7.46.7-.28,1.42-.56,2.03-1,1.89-1.35,1.83-4.11-.14-5.36-.82-.52-1.76-.87-2.67-1.23-9.39-3.8-18.79-7.58-28.18-11.37-.49-.2-1-.36-1.46-.61-1.58-.88-2.2-2.68-1.5-4.28.61-1.39,2.68-2.18,4.04-1.59,3.05,1.32,6.17,2.5,9.25,3.74,7.16,2.87,14.31,5.76,21.47,8.62,1.63.65,3.15,1.46,4.38,2.75,4.1,4.3,3.38,11.37-1.55,14.67-1,.66-2.12,1.16-3.24,1.61-19.07,7.7-38.15,15.38-57.22,23.06-12.97,5.23-25.97,10.41-38.91,15.71-5.01,2.05-10.15,2.94-15.52,2.49-2.88-.24-5.65-.99-8.33-2.07-32.61-13.13-65.21-26.26-97.82-39.39-3.36-1.35-5.78-3.52-6.62-7.19-.06-.27-.31-.5-.47-.74,0-.91,0-1.82,0-2.73Z"/>
    <path class="cls-1" d="m108.61,287.77c.15-.25.39-.49.45-.77.79-3.78,3.24-6,6.7-7.36,4.01-1.57,7.99-3.22,11.99-4.83,5.89-2.37,11.79-4.73,17.68-7.1.49-.2.97-.43,1.48-.57,1.41-.38,3.07.35,3.66,1.58.66,1.36.26,3.23-1,4.06-.75.5-1.61.83-2.45,1.17-9.39,3.8-18.79,7.58-28.19,11.37-.7.28-1.43.54-2.06.93-2.08,1.28-2.16,4.14-.13,5.49.68.46,1.49.74,2.26,1.05,16.62,6.69,33.25,13.37,49.87,20.07,15.29,6.16,30.56,12.36,45.86,18.48,2.02.81,4.15,1.43,6.27,1.91,4.6,1.04,9.01.1,13.3-1.61,7.86-3.14,15.72-6.3,23.57-9.47,18.23-7.34,36.46-14.69,54.69-22.04,6.17-2.49,12.34-4.97,18.51-7.46.7-.28,1.42-.56,2.03-1,1.89-1.35,1.83-4.11-.14-5.36-.82-.52-1.76-.87-2.67-1.23-9.39-3.8-18.79-7.58-28.18-11.37-.49-.2-1-.36-1.46-.61-1.58-.88-2.2-2.68-1.5-4.28.61-1.39,2.68-2.18,4.04-1.59,3.05,1.32,6.17,2.5,9.25,3.74,7.16,2.87,14.31,5.76,21.47,8.62,1.63.65,3.15,1.46,4.38,2.75,4.1,4.3,3.38,11.37-1.55,14.67-1,.66-2.12,1.16-3.24,1.61-19.07,7.7-38.15,15.38-57.22,23.06-12.97,5.23-25.97,10.41-38.91,15.71-5.01,2.05-10.15,2.94-15.52,2.49-2.88-.24-5.65-.99-8.33-2.07-32.61-13.13-65.21-26.26-97.82-39.39-3.36-1.35-5.78-3.52-6.62-7.19-.06-.27-.31-.5-.47-.74,0-.91,0-1.82,0-2.73Z"/>
    <path class="cls-1" d="m334.36,126.86c-1.26-.51-2.52-1.03-3.78-1.53-31.14-12.55-62.29-25.08-93.41-37.65-8.27-3.34-16.41-3.29-24.69.07-28.51,11.57-57.07,23.02-85.62,34.51-3.86,1.55-7.71,3.11-11.57,4.67-3.14,1.27-5.3,3.42-6.15,6.78-.09.34-.34.64-.52.96v2.73c.13.18.34.35.38.55.81,4.06,3.49,6.29,7.18,7.76,18.6,7.43,37.18,14.94,55.76,22.44,1.5.61,3,.89,4.63.89,4.96,0,9.93,0,14.89,0l-17.73-7.15c-.34-.09-.68-.22-1.02-.36-9.18-3.71-18.36-7.41-27.55-11.12-8.76-3.53-17.53-7.07-26.29-10.6-.63-.25-1.28-.49-1.86-.83-2.3-1.34-2.31-4.37,0-5.74.58-.34,1.23-.57,1.86-.83,16.62-6.69,33.24-13.37,49.86-20.06,15.36-6.19,30.71-12.38,46.05-18.58,3.25-1.31,6.59-2.19,10.15-2.31,3.24.14,6.38.84,9.43,2.07,15.49,6.25,30.99,12.48,46.48,18.72,16.55,6.66,33.09,13.33,49.63,20,.7.28,1.41.56,2.08.89,1.28.62,1.94,1.65,1.89,3.09-.04,1.34-.68,2.33-1.88,2.87-1.58.72-3.2,1.36-4.81,2.01-16.68,6.72-33.38,13.42-50.04,20.2-.47.19-.92.33-1.36.41l-18.13,7.31c4.95,0,9.9,0,14.85,0,1.78,0,3.43-.33,5.07-.99,10.65-4.32,21.31-8.61,31.97-12.91,8.07-3.25,16.14-6.49,24.21-9.73,4.14-1.66,6.57-4.71,6.62-9.14.05-4.01-1.78-7.46-6.58-9.39Z"/>
  </g>
  <g>
    <path class="cls-2" d="m221.25,172.14c.02-2.04,1.52-3.5,3.57-3.46,1.95.04,3.55,1.73,3.47,3.64-.08,1.77-1.78,3.41-3.53,3.41-1.95,0-3.52-1.61-3.51-3.59Z"/>
    <path class="cls-2" d="m221.25,161.05c.02-2.04,1.52-3.5,3.57-3.46,1.95.04,3.55,1.73,3.47,3.64-.08,1.77-1.78,3.41-3.53,3.41-1.95,0-3.52-1.61-3.51-3.59Z"/>
    <path class="cls-2" d="m219.3,163.04c2.04.02,3.5,1.52,3.46,3.57-.04,1.95-1.73,3.55-3.64,3.47-1.77-.08-3.41-1.78-3.41-3.53,0-1.95,1.61-3.52,3.59-3.51Z"/>
    <path class="cls-2" d="m230.39,163.04c2.04.02,3.5,1.52,3.46,3.57-.04,1.95-1.73,3.55-3.64,3.47-1.77-.08-3.41-1.78-3.41-3.53,0-1.95,1.61-3.52,3.59-3.51Z"/>
  </g>
  <g>
    <path class="cls-2" d="m221.25,140.63c.02-2.04,1.52-3.5,3.57-3.46,1.95.04,3.55,1.73,3.47,3.64-.08,1.77-1.78,3.41-3.53,3.41-1.95,0-3.52-1.61-3.51-3.59Z"/>
    <path class="cls-2" d="m221.25,129.54c.02-2.04,1.52-3.5,3.57-3.46,1.95.04,3.55,1.73,3.47,3.64-.08,1.77-1.78,3.41-3.53,3.41-1.95,0-3.52-1.61-3.51-3.59Z"/>
    <path class="cls-2" d="m219.3,131.53c2.04.02,3.5,1.52,3.46,3.57-.04,1.95-1.73,3.55-3.64,3.47-1.77-.08-3.41-1.78-3.41-3.53,0-1.95,1.61-3.52,3.59-3.51Z"/>
    <path class="cls-2" d="m230.39,131.53c2.04.02,3.5,1.52,3.46,3.57-.04,1.95-1.73,3.55-3.64,3.47-1.77-.08-3.41-1.78-3.41-3.53,0-1.95,1.61-3.52,3.59-3.51Z"/>
  </g>
  <g>
    <path class="cls-2" d="m157.03,140.63c.02-2.04,1.52-3.5,3.57-3.46,1.95.04,3.55,1.73,3.47,3.64-.08,1.77-1.78,3.41-3.53,3.41-1.95,0-3.52-1.61-3.51-3.59Z"/>
    <path class="cls-2" d="m157.03,129.54c.02-2.04,1.52-3.5,3.57-3.46,1.95.04,3.55,1.73,3.47,3.64-.08,1.77-1.78,3.41-3.53,3.41-1.95,0-3.52-1.61-3.51-3.59Z"/>
    <path class="cls-2" d="m155.08,131.53c2.04.02,3.5,1.52,3.46,3.57-.04,1.95-1.73,3.55-3.64,3.47-1.77-.08-3.41-1.78-3.41-3.53,0-1.95,1.61-3.52,3.59-3.51Z"/>
    <path class="cls-2" d="m166.18,131.53c2.04.02,3.5,1.52,3.46,3.57-.04,1.95-1.73,3.55-3.64,3.47-1.77-.08-3.41-1.78-3.41-3.53,0-1.95,1.61-3.52,3.59-3.51Z"/>
  </g>
  <g>
    <path class="cls-2" d="m280.13,140.63c.02-2.04,1.52-3.5,3.57-3.46,1.95.04,3.55,1.73,3.47,3.64-.08,1.77-1.78,3.41-3.53,3.41-1.95,0-3.52-1.61-3.51-3.59Z"/>
    <path class="cls-2" d="m280.13,129.54c.02-2.04,1.52-3.5,3.57-3.46,1.95.04,3.55,1.73,3.47,3.64-.08,1.77-1.78,3.41-3.53,3.41-1.95,0-3.52-1.61-3.51-3.59Z"/>
    <path class="cls-2" d="m278.18,131.53c2.04.02,3.5,1.52,3.46,3.57-.04,1.95-1.73,3.55-3.64,3.47-1.77-.08-3.41-1.78-3.41-3.53,0-1.95,1.61-3.52,3.59-3.51Z"/>
    <path class="cls-2" d="m289.27,131.53c2.04.02,3.5,1.52,3.46,3.57-.04,1.95-1.73,3.55-3.64,3.47-1.77-.08-3.41-1.78-3.41-3.53,0-1.95,1.61-3.52,3.59-3.51Z"/>
  </g>
  <g>
    <path class="cls-2" d="m221.25,113.45c.02-2.04,1.52-3.5,3.57-3.46,1.95.04,3.55,1.73,3.47,3.64-.08,1.77-1.78,3.41-3.53,3.41-1.95,0-3.52-1.61-3.51-3.59Z"/>
    <path class="cls-2" d="m221.25,102.36c.02-2.04,1.52-3.5,3.57-3.46,1.95.04,3.55,1.73,3.47,3.64-.08,1.77-1.78,3.41-3.53,3.41-1.95,0-3.52-1.61-3.51-3.59Z"/>
    <path class="cls-2" d="m219.3,104.35c2.04.02,3.5,1.52,3.46,3.57-.04,1.95-1.73,3.55-3.64,3.47-1.77-.08-3.41-1.78-3.41-3.53,0-1.95,1.61-3.52,3.59-3.51Z"/>
    <path class="cls-2" d="m230.39,104.35c2.04.02,3.5,1.52,3.46,3.57-.04,1.95-1.73,3.55-3.64,3.47-1.77-.08-3.41-1.78-3.41-3.53,0-1.95,1.61-3.52,3.59-3.51Z"/>
  </g>
  <g>
    <path class="cls-2" d="m188.93,125.62c.02-2.04,1.52-3.5,3.57-3.46,1.95.04,3.55,1.73,3.47,3.64-.08,1.77-1.78,3.41-3.53,3.41-1.95,0-3.52-1.61-3.51-3.59Z"/>
    <path class="cls-2" d="m188.93,114.53c.02-2.04,1.52-3.5,3.57-3.46,1.95.04,3.55,1.73,3.47,3.64-.08,1.77-1.78,3.41-3.53,3.41-1.95,0-3.52-1.61-3.51-3.59Z"/>
    <path class="cls-2" d="m186.98,116.52c2.04.02,3.5,1.52,3.46,3.57-.04,1.95-1.73,3.55-3.64,3.47-1.77-.08-3.41-1.78-3.41-3.53,0-1.95,1.61-3.52,3.59-3.51Z"/>
    <path class="cls-2" d="m198.07,116.52c2.04.02,3.5,1.52,3.46,3.57-.04,1.95-1.73,3.55-3.64,3.47-1.77-.08-3.41-1.78-3.41-3.53,0-1.95,1.61-3.52,3.59-3.51Z"/>
  </g>
  <g>
    <path class="cls-2" d="m250.93,125.62c.02-2.04,1.52-3.5,3.57-3.46,1.95.04,3.55,1.73,3.47,3.64-.08,1.77-1.78,3.41-3.53,3.41-1.95,0-3.52-1.61-3.51-3.59Z"/>
    <path class="cls-2" d="m250.93,114.53c.02-2.04,1.52-3.5,3.57-3.46,1.95.04,3.55,1.73,3.47,3.64-.08,1.77-1.78,3.41-3.53,3.41-1.95,0-3.52-1.61-3.51-3.59Z"/>
    <path class="cls-2" d="m248.98,116.52c2.04.02,3.5,1.52,3.46,3.57-.04,1.95-1.73,3.55-3.64,3.47-1.77-.08-3.41-1.78-3.41-3.53,0-1.95,1.61-3.52,3.59-3.51Z"/>
    <path class="cls-2" d="m260.07,116.52c2.04.02,3.5,1.52,3.46,3.57-.04,1.95-1.73,3.55-3.64,3.47-1.77-.08-3.41-1.78-3.41-3.53,0-1.95,1.61-3.52,3.59-3.51Z"/>
  </g>
  <g>
    <path class="cls-2" d="m252,158.55c.02-2.04,1.52-3.5,3.57-3.46,1.95.04,3.55,1.73,3.47,3.64-.08,1.77-1.78,3.41-3.53,3.41-1.95,0-3.52-1.61-3.51-3.59Z"/>
    <path class="cls-2" d="m252,147.46c.02-2.04,1.52-3.5,3.57-3.46,1.95.04,3.55,1.73,3.47,3.64-.08,1.77-1.78,3.41-3.53,3.41-1.95,0-3.52-1.61-3.51-3.59Z"/>
    <path class="cls-2" d="m250.05,149.44c2.04.02,3.5,1.52,3.46,3.57-.04,1.95-1.73,3.55-3.64,3.47-1.77-.08-3.41-1.78-3.41-3.53,0-1.95,1.61-3.52,3.59-3.51Z"/>
    <path class="cls-2" d="m261.15,149.44c2.04.02,3.5,1.52,3.46,3.57-.04,1.95-1.73,3.55-3.64,3.47-1.77-.08-3.41-1.78-3.41-3.53,0-1.95,1.61-3.52,3.59-3.51Z"/>
  </g>
  <g>
    <path class="cls-2" d="m189.35,158.55c.02-2.04,1.52-3.5,3.57-3.46,1.95.04,3.55,1.73,3.47,3.64-.08,1.77-1.78,3.41-3.53,3.41-1.95,0-3.52-1.61-3.51-3.59Z"/>
    <path class="cls-2" d="m189.35,147.46c.02-2.04,1.52-3.5,3.57-3.46,1.95.04,3.55,1.73,3.47,3.64-.08,1.77-1.78,3.41-3.53,3.41-1.95,0-3.52-1.61-3.51-3.59Z"/>
    <path class="cls-2" d="m187.4,149.44c2.04.02,3.5,1.52,3.46,3.57-.04,1.95-1.73,3.55-3.64,3.47-1.77-.08-3.41-1.78-3.41-3.53,0-1.95,1.61-3.52,3.59-3.51Z"/>
    <path class="cls-2" d="m198.5,149.44c2.04.02,3.5,1.52,3.46,3.57-.04,1.95-1.73,3.55-3.64,3.47-1.77-.08-3.41-1.78-3.41-3.53,0-1.95,1.61-3.52,3.59-3.51Z"/>
  </g>
</svg>