<?xml version="1.0" encoding="UTF-8"?>
<svg id="_Слой_1" data-name="Слой 1" xmlns="http://www.w3.org/2000/svg" viewBox="0 0 425.2 425.2">
  <defs>
    <style>
      .cls-1 {
        stroke-width: 0px;
      }
    </style>
  </defs>
  <path class="cls-1" d="m99.02,210.26c.07-.04.18-.06.2-.11,1.22-4.1,4.16-6.33,8.02-7.83,9.95-3.88,19.83-7.93,29.74-11.91.58-.23,1.15-.52,1.75-.67,1.7-.43,3.32.41,4.02,2.03.69,1.59.2,3.37-1.29,4.31-.65.41-1.4.69-2.12.98-10.04,4.06-20.09,8.11-30.14,12.16-.22.09-.45.13-.67.22-1.41.56-2.4,1.49-2.44,3.11-.04,1.74,1.01,2.69,2.51,3.29,7.23,2.9,14.47,5.81,21.7,8.71,26.39,10.62,52.8,21.2,79.16,31.89,6.67,2.7,13.15,2.63,19.79-.05,28.98-11.71,57.98-23.37,86.97-35.04,4.12-1.66,8.24-3.32,12.36-4.98.43-.17.87-.35,1.3-.52,1.51-.59,2.54-1.58,2.51-3.3-.03-1.73-1.16-2.62-2.65-3.21-2.32-.91-4.62-1.87-6.94-2.8-8.02-3.23-16.05-6.46-24.07-9.69-.51-.2-1.03-.38-1.5-.64-1.69-.94-2.34-2.71-1.65-4.37.73-1.78,2.53-2.66,4.42-2.01,1.77.61,3.48,1.39,5.21,2.08,8.75,3.51,17.51,7.02,26.26,10.53.65.26,1.3.53,1.93.84,3.99,1.91,6.06,5.14,6.01,9.52-.05,4.28-2.15,7.47-6.1,9.21-3.57,1.57-7.21,2.95-10.83,4.41-30.36,12.23-60.73,24.46-91.08,36.71-8.15,3.29-16.24,3.26-24.39-.03-28.04-11.33-56.09-22.62-84.14-33.92-5.42-2.19-10.8-4.47-16.27-6.54-3.6-1.37-6.18-3.56-7.24-7.35-.03-.12-.22-.2-.33-.29,0-1.57,0-3.13,0-4.7Z"/>
  <path class="cls-1" d="m99.02,261.91c.07-.04.18-.07.19-.12,1.16-4.13,4.08-6.36,7.94-7.87,9.94-3.89,19.82-7.94,29.72-11.93.58-.23,1.15-.52,1.75-.66,1.85-.44,3.49.45,4.14,2.19.61,1.63.05,3.3-1.52,4.22-.73.43-1.56.72-2.35,1.04-9.97,4.04-19.94,8.06-29.9,12.1-.43.17-.89.3-1.29.54-2.1,1.25-2.2,4.1-.18,5.44.51.34,1.13.53,1.7.76,32.16,12.96,64.32,25.92,96.48,38.88,1.81.73,3.61,1.46,5.44,2.12,5.5,1.98,11.04,1.99,16.49-.12,8.13-3.16,16.22-6.44,24.31-9.7,25.59-10.29,51.18-20.59,76.77-30.89.58-.23,1.14-.52,1.71-.77,1.27-.57,1.92-1.58,1.95-2.94.03-1.39-.69-2.4-1.94-2.95-1.78-.79-3.6-1.48-5.41-2.21-8.81-3.56-17.63-7.12-26.44-10.68-.43-.17-.88-.32-1.29-.55-1.57-.9-2.2-2.55-1.63-4.18.63-1.78,2.21-2.69,4.07-2.31.53.11,1.04.34,1.54.54,10.12,4.07,20.24,8.13,30.36,12.21.58.23,1.14.51,1.71.77,3.95,1.81,5.99,4.97,6.05,9.24.06,4.4-2.09,7.65-6.07,9.48-3.26,1.49-6.63,2.72-9.96,4.06-30.28,12.2-60.57,24.39-90.84,36.6-3.57,1.44-7.18,2.54-11.06,2.81-4.93.34-9.63-.45-14.2-2.29-33.61-13.54-67.21-27.08-100.83-40.6-3.36-1.35-5.93-3.41-7-7.01-.06-.19-.28-.33-.43-.49,0-1.57,0-3.13,0-4.7Z"/>
  <path class="cls-1" d="m338.95,157.94c-.96-3.1-3.04-5.23-6.03-6.44-7.08-2.87-14.16-5.73-21.24-8.59-26.82-10.8-53.64-21.59-80.46-32.4-8.15-3.28-16.24-3.14-24.38.15-33.16,13.39-66.34,26.76-99.55,40.05-3.84,1.54-6.81,3.7-8.08,7.78-.02.05-.13.07-.2.11v4.7c1.4,3.86,3.99,6.39,7.88,7.93,19.27,7.64,38.49,15.41,57.7,23.17,1.42.57,2.81.81,4.32.81,33.57-.02,67.14-.02,100.71,0,1.51,0,2.9-.25,4.32-.82,16.47-6.66,32.96-13.26,49.44-19.9,3.4-1.37,6.83-2.66,10.15-4.2,4.8-2.23,6.97-7.31,5.42-12.34Zm-152.76,30.15c-.03-.07-.06-.14-.08-.22,2.57-1.03,5.15-2.07,7.72-3.1,5.93-2.37,11.83-4.81,17.8-7.07,4.92-1.86,10.05-1.93,14.93-.12,8.46,3.15,16.79,6.67,25.16,10.04.2.08.48.1.52.46h-66.05Zm144.1-24.02c-.7.34-1.43.62-2.15.91-18.36,7.4-36.73,14.78-55.07,22.22-1.36.55-2.47.43-3.77-.1-12.86-5.22-25.72-10.42-38.61-15.55-7.75-3.08-15.54-2.98-23.29.14-12.79,5.16-25.59,10.3-38.37,15.49-1.24.51-2.29.53-3.56.02-18.63-7.56-37.29-15.07-55.94-22.58-.43-.17-.88-.32-1.3-.52-1.31-.6-2.17-1.56-2.14-3.06.03-1.47.77-2.49,2.15-3.04,3.18-1.28,6.35-2.58,9.53-3.86,28.84-11.62,57.68-23.25,86.54-34.85,3.32-1.34,6.56-2.96,10.11-3.62,1.76-.33,3.56-.43,5.34-.63,3.86.08,7.38,1.36,10.86,2.77,21.69,8.74,43.37,17.49,65.05,26.23,11.06,4.46,22.13,8.9,33.19,13.35.51.2.99.46,1.5.67,1.29.54,1.97,1.52,2.02,2.89.06,1.51-.77,2.49-2.07,3.11Z"/>
</svg>