<?xml version="1.0" encoding="UTF-8"?>
<svg id="_Слой_1" data-name="Слой 1" xmlns="http://www.w3.org/2000/svg" viewBox="0 0 425.2 425.2">
  <defs>
    <style>
      .cls-1 {
        stroke-width: 0px;
      }
    </style>
  </defs>
  <path class="cls-1" d="m154.55,319.26c-2.69-1.03-5.59-1.72-8.05-3.16-8.27-4.88-12.09-15-8.68-24,4.51-11.92,9.52-23.66,14.35-35.46,10.2-24.88,20.42-49.75,30.64-74.62,2.86-6.95,4.32-14.15,4.25-21.69-.08-8.82-.07-17.63,0-26.45.03-3.64-.86-6.88-3.43-9.51-4.07-4.17-4.54-9.33-4.08-14.72.18-2.15,1.78-3.66,4.1-3.66,19.37-.05,38.74-.05,58.11,0,2.47,0,3.91,1.64,4.11,4.11.44,5.53-.43,10.62-4.54,14.79-2.2,2.23-3.01,5.1-3.02,8.19,0,9.58-.04,19.16.01,28.74.04,7.09,1.65,13.86,4.35,20.42,14.7,35.77,29.21,71.62,44.1,107.3,5.78,13.85-2.88,27.68-15.45,29.43-.19.03-.36.19-.54.29h-116.24Zm-6.39-30.8c1.17,0,2.06-.02,2.94,0,3.04.07,4.98,1.69,4.99,4.17.02,2.47-1.94,4.12-4.96,4.16-1.99.02-3.97,0-5.9,0-1.19,7.78,4.66,14.12,12.85,14.13,36.38.03,72.75.02,109.13-.02,1.57,0,3.19-.26,4.7-.68,5.79-1.63,10.78-8.77,7.17-17.46-10.27-24.7-20.36-49.47-30.46-74.24-.59-1.44-1.37-1.75-2.78-1.74-8.96.05-17.91.03-26.87.03-13.19,0-26.38-.01-39.57.03-.72,0-1.88.24-2.09.71-1.59,3.52-3,7.12-4.56,10.93,1.38,0,2.48-.05,3.57,0,2.76.14,4.5,1.78,4.5,4.19,0,2.43-1.75,4.05-4.53,4.12-1.87.05-3.75-.03-5.62.04-.54.02-1.37.25-1.54.62-1.57,3.57-3.02,7.19-4.6,11.03,1.44,0,2.48-.06,3.51.01,2.7.17,4.48,1.94,4.4,4.31-.08,2.31-1.83,3.91-4.47,3.99-1.87.06-3.75-.02-5.62.04-.49.02-1.27.2-1.41.53-1.55,3.59-3.01,7.23-4.6,11.13,1.42,0,2.46-.07,3.49.01,2.54.22,4.32,2.05,4.24,4.27-.08,2.27-1.89,3.93-4.47,4.01-1.8.06-3.61-.04-5.41.05-.53.02-1.35.29-1.51.67-1.54,3.54-2.96,7.13-4.53,10.96Zm32.91-80.16h63.25c-.32-.84-.55-1.49-.81-2.12-2.92-7.11-5.86-14.22-8.76-21.34-2.53-6.2-4.36-12.62-4.51-19.34-.22-10.06-.1-20.12-.28-30.18-.11-6.45,1.46-12.17,5.95-16.99.91-.97,1.3-2.43,2.06-3.92h-50.75c1.16,1.9,1.89,3.53,3.01,4.82,3.59,4.14,5.17,8.93,5.17,14.33-.01,9.16,0,18.32,0,27.48-.01,7.14-1.03,14.12-3.65,20.78-3.2,8.12-6.53,16.19-9.8,24.28-.28.69-.55,1.38-.87,2.19Z"/>
  <path class="cls-1" d="m241.71,237.73c2.56.16,3.73,1.56,4.52,3.5,2.89,7.11,5.83,14.21,8.74,21.32,1.84,4.48,3.66,8.97,5.51,13.45.77,1.88.8,3.67-.71,5.19-2.16,2.16-5.56,1.29-6.87-1.82-2.31-5.48-4.53-11.01-6.79-16.51-2.55-6.21-5.14-12.4-7.65-18.62-1.37-3.4.4-6.53,3.26-6.5Z"/>
  <path class="cls-1" d="m262.8,296.76c-2.24.03-4.05-1.77-4.11-4.08-.05-2.23,1.76-4.15,3.99-4.23,2.22-.07,4.28,1.96,4.28,4.22,0,2.17-1.93,4.06-4.16,4.09Z"/>
</svg>