<?xml version="1.0" encoding="UTF-8"?>
<svg id="_Слой_1" data-name="Слой 1" xmlns="http://www.w3.org/2000/svg" viewBox="0 0 425.2 425.2">
  <defs>
    <style>
      .cls-1 {
        stroke-width: 0px;
      }
    </style>
  </defs>
  <path class="cls-1" d="m188.03,249.4c-3.83,2.95-8.04,4.47-12.91,3.48-5.17-1.05-8.88-3.98-10.98-8.78-.59-1.36-1.27-1.75-2.69-1.73-7.63.07-15.26.07-22.89,0-1.46-.01-2.23.3-2.84,1.82-2.9,7.3-10.75,11.05-18.19,8.85-7.18-2.12-11.9-9.47-10.7-16.66,1.32-7.91,7.96-13.4,15.84-12.9,5.59.35,9.75,3.15,12.48,8.05.38.69.69,1.42,1.09,2.24,8.69,0,17.39.02,26.09-.05.5,0,1.24-.62,1.47-1.13,1.69-3.87,4.36-6.7,8.23-8.45.53-.24,1.1-1.11,1.1-1.7.08-5.97.08-11.95,0-17.92,0-.59-.57-1.46-1.1-1.71-3.86-1.76-6.54-4.58-8.22-8.46-.23-.53-1.1-1.09-1.68-1.1-8.13-.07-16.27,0-24.4-.1-1.52-.02-1.71.87-2.15,1.85-2.69,6.01-8.99,9.65-15.37,8.92-6.55-.75-11.83-5.52-13.17-11.92-1.61-7.64,2.73-15.11,10.17-17.51,7.3-2.35,15.23,1.12,18.3,8.21.67,1.56,1.46,1.9,3.01,1.89,7.63-.08,15.26-.07,22.89,0,1.37.01,2.11-.27,2.71-1.68,3.8-8.8,14.29-11.86,22.23-6.52,1.1.74,1.87.9,3.06.2,3.59-2.13,7.23-4.16,10.91-6.12,1.13-.6,1.42-1.29,1.32-2.54-.55-7.08,2.74-12.44,9.28-15.55.63-.3,1.26-1.3,1.31-2.01.16-2.51-.04-5.04.1-7.55.08-1.5-.46-2.09-1.85-2.57-8.66-3.04-14.08-11.63-13.01-20.38,1.14-9.24,8.27-16.31,17.44-17.29,9.47-1.01,18.56,5.46,20.79,14.83,2.26,9.5-2.86,19.38-12.06,22.6-2.34.82-3.1,1.88-2.73,4.12.07.42.04.86,0,1.29-.27,3.77-.12,6.7,4.28,8.88,5.01,2.49,6.88,7.73,6.36,13.43-.13,1.46.26,2.17,1.53,2.84,3.75,1.99,7.43,4.09,11.1,6.22,1.03.6,1.73.71,2.84-.07,8.06-5.63,18.53-2.66,22.55,6.37.52,1.18,1.12,1.58,2.38,1.57,7.84-.05,15.69-.06,23.53,0,1.37.01,1.97-.43,2.51-1.67,2.96-6.79,9.99-10.32,17.17-8.74,6.65,1.45,11.64,7.61,11.74,14.48.1,7.2-4.76,13.34-11.87,15-6.91,1.61-14.09-1.99-17.02-8.67-.57-1.3-1.15-1.85-2.65-1.83-7.77.09-15.55.06-23.32.02-1.19,0-1.93.2-2.44,1.49-1.52,3.86-4.35,6.51-8.12,8.24-.62.29-1.41,1.12-1.42,1.7-.1,6.47-.06,12.95-.06,19.46,4.66,1.68,7.95,4.68,9.83,9.21.19.47,1.05.93,1.6.93,8.13.06,16.27,0,24.4.08,1.52.02,1.7-.92,2.13-1.89,2.97-6.7,10.05-10.24,17.23-8.64,6.85,1.53,11.77,7.81,11.69,14.93-.08,6.89-5.01,12.99-11.71,14.48-7,1.56-14.08-1.79-17.01-8.28-.72-1.6-1.52-2.05-3.18-2.03-7.7.09-15.4.06-23.1.02-1.11,0-1.77.21-2.29,1.37-4.44,9.83-15.37,12.44-23.85,5.76-.22-.18-.46-.33-.79-.55-4.08,2.26-8.17,4.5-12.21,6.84-.46.27-.83,1.12-.84,1.71-.04,7.09-3.27,12.02-9.72,14.94-.59.27-1.19,1.19-1.23,1.84-.15,2.37.05,4.75-.1,7.12-.1,1.7.4,2.46,2.13,3.02,8.18,2.68,13.44,10.38,13.2,18.99-.23,8.39-6.06,15.78-14.23,18.05-10.04,2.78-20.56-2.9-23.7-12.8-3.14-9.88,1.99-20.51,11.75-24.02,1.84-.66,2.43-1.5,2.29-3.37-.18-2.36.05-4.75-.1-7.12-.04-.66-.62-1.6-1.21-1.88-6.14-2.93-9.23-7.73-9.37-14.53-.01-.68-.57-1.62-1.15-1.96-4.1-2.38-8.27-4.63-12.47-6.95Zm40.31-.52c3.86-2.14,7.76-4.26,11.6-6.52.45-.27.71-1.27.66-1.9-.4-5.31,1.24-9.82,5.33-13.25,1.57-1.31,3.48-2.21,5.45-3.43,0-6.2.03-12.67-.05-19.14,0-.52-.56-1.28-1.06-1.52-7.34-3.63-10.29-8.91-9.42-16.87.07-.6-.35-1.57-.84-1.85-4.2-2.47-8.47-4.81-12.66-7.16-8.11,5.82-12.85,5.81-21.57.03-4.03,2.27-8.12,4.51-12.13,6.89-.51.31-.93,1.38-.84,2.01,1.1,7.43-2.51,13.98-9.49,16.78-1.11.45-1.55.92-1.53,2.14.07,5.61.05,11.22,0,16.83,0,1.08.28,1.59,1.37,2.03,7.09,2.86,10.68,9.21,9.65,16.68-.08.57.15,1.54.56,1.77,3.9,2.28,7.87,4.44,11.77,6.61,6.94-7.02,16.32-6.98,23.2-.12Zm-106.63-16.81c-3.5.04-6.4,3-6.39,6.5.01,3.49,2.95,6.43,6.44,6.45,3.57.02,6.57-3.04,6.5-6.61-.07-3.49-3.06-6.38-6.55-6.34Zm133.87,13.03c3.59.03,6.51-2.8,6.55-6.35.04-3.49-2.91-6.51-6.4-6.57-3.47-.05-6.5,2.92-6.54,6.42-.04,3.55,2.83,6.47,6.4,6.5Zm-32.32,13.7c-.02-3.49-2.96-6.42-6.45-6.43-3.5,0-6.45,2.9-6.48,6.4-.04,3.58,2.98,6.59,6.56,6.54,3.49-.05,6.4-3.02,6.38-6.51Zm-38.87-69.75c.1-3.48-2.75-6.52-6.24-6.65-3.49-.13-6.54,2.69-6.7,6.18-.16,3.57,2.76,6.69,6.34,6.76,3.48.07,6.5-2.8,6.6-6.29Zm127.41,6.37c3.57,0,6.47-2.9,6.46-6.45-.01-3.49-3.01-6.49-6.49-6.48-3.47,0-6.46,3.02-6.46,6.51,0,3.55,2.91,6.42,6.48,6.42Zm-88.78-29.05c-.03-3.54-2.98-6.46-6.49-6.43-3.54.03-6.42,2.97-6.39,6.52.03,3.55,2.95,6.45,6.48,6.43,3.52-.03,6.43-2.98,6.4-6.52Z"/>
</svg>