<?xml version="1.0" encoding="UTF-8"?>
<svg id="_Слой_1" data-name="Слой 1" xmlns="http://www.w3.org/2000/svg" viewBox="0 0 425.2 425.2">
  <defs>
    <style>
      .cls-1 {
        stroke-width: 0px;
      }
    </style>
  </defs>
  <path class="cls-1" d="m318.7,204.01c-1.25,3-2.04,6.32-3.84,8.95-4.79,7.04-11.78,10.13-20.18,8.93-8.67-1.24-14.41-6.37-17.24-14.69-.2-.59-.37-1.19-.57-1.85h-25.56c-1.09,3.7-1.88,7.47-3.33,10.98-1.43,3.46-3.53,6.64-5.45,10.17.17.19.56.67,1,1.11,7.33,7.34,14.69,14.65,21.98,22.04.94.96,1.71,1.02,2.92.64,6.89-2.17,13.94,1.63,15.94,8.49,1.97,6.75-1.92,13.75-8.72,15.67-6.75,1.91-13.89-2-15.5-8.88-.55-2.34.1-4.95.13-7.43,0-.73.04-1.73-.39-2.16-7.68-7.78-15.43-15.5-23.17-23.22-.14-.14-.35-.21-.63-.38-6.06,4.75-12.93,7.68-20.73,8.55v26.02c6.17,1.51,11.01,4.94,14.14,10.57,2.55,4.59,3.19,9.51,2.12,14.65-2.08,9.94-11.3,16.99-21.65,16.55-10.12-.43-18.76-8.44-19.89-18.64-1.18-10.58,5.43-20.43,16.75-23.16v-25.92c-7.8-.98-14.77-3.81-21.22-8.91-1.23,1.36-2.35,2.71-3.57,3.94-6.43,6.46-12.86,12.91-19.34,19.32-.98.97-1.37,1.75-.89,3.24,1.84,5.61-.5,11.55-5.5,14.55-5,3-11.36,2.2-15.47-1.94-4.11-4.13-4.86-10.52-1.82-15.48,3.05-4.97,8.95-7.2,14.6-5.43,1.08.34,1.84.47,2.77-.48,7.54-7.63,15.14-15.19,22.72-22.78.19-.19.36-.42.66-.79-4.76-6.12-7.75-13.03-8.61-20.85h-25.94c-3.72,13.7-15.42,17.97-23.93,16.52-10.67-1.81-18.06-10.58-17.95-21.13.12-10.38,7.81-19.14,18.33-20.59,9.66-1.34,20.33,4.2,23.52,16.6h25.93c.96-7.71,3.75-14.64,8.65-20.8-.38-.45-.7-.89-1.08-1.28-5.3-5.31-10.64-10.58-15.88-15.94-1.03-1.05-1.72-1.05-3.02-.4-7.82,3.94-15.53,3.57-22.57-1.67-6.97-5.19-9.75-12.46-8.04-20.95,1.74-8.66,7.2-14.33,15.87-16.34,8.57-1.99,15.92.63,21.32,7.53,5.47,6.98,5.99,14.77,2.05,22.69-.79,1.59-.61,2.36.57,3.51,5.6,5.49,11.1,11.08,16.77,16.78,6.23-4.85,13.15-7.83,20.97-8.7v-26.01c-6.91-1.73-12.05-5.66-14.96-12.15-5.5-12.25,1.73-26.28,14.97-29.21.46-.1.9-.29,1.35-.44,1.96,0,3.93,0,5.89,0,.38.14.75.33,1.14.41,12.21,2.4,19.8,14.98,16.05,26.87-2.45,7.78-7.94,12.47-15.84,14.54v25.98c7.79.87,14.72,3.82,20.77,8.55.3-.15.45-.18.55-.28,3.43-3.41,6.81-6.86,10.3-10.22.94-.91,1.1-1.65.69-2.9-1.79-5.48.27-11.25,4.99-14.39,4.67-3.11,10.95-2.72,15.23.95,4.2,3.6,5.57,9.68,3.3,14.73-2.36,5.25-7.85,8.5-13.55,7.15-3.14-.74-4.82.2-6.69,2.3-2.33,2.6-4.92,4.98-7.4,7.46-.43.43-.81.91-1.24,1.4,4.93,6.17,7.71,13.11,8.67,20.81h25.95c.21-.68.37-1.28.57-1.87,2.84-8.31,8.59-13.44,17.25-14.66,8.49-1.2,15.5,1.97,20.3,9.11,1.74,2.59,2.5,5.83,3.71,8.78v5.89Zm-107.66-34.59c-17.54-.02-31.66,14.09-31.68,31.62-.01,17.53,14.09,31.66,31.63,31.67,17.53.02,31.66-14.09,31.68-31.62.01-17.54-14.09-31.65-31.63-31.67Zm-61.2-16.88c7-.05,12.74-5.86,12.64-12.8-.1-7.03-5.9-12.7-12.85-12.59-6.92.11-12.55,5.82-12.55,12.69,0,6.97,5.81,12.74,12.76,12.69Zm73.82,135.1c0-7.06-5.63-12.66-12.7-12.64-6.98.02-12.56,5.58-12.6,12.53-.04,7.05,5.59,12.76,12.6,12.78,7.02.02,12.7-5.65,12.7-12.68Zm0-173.09c.02-7.05-5.62-12.73-12.64-12.74-6.93,0-12.61,5.6-12.66,12.51-.06,7.1,5.48,12.76,12.53,12.81,7.08.05,12.74-5.53,12.77-12.58Zm-86.6,86.67c.07-7-5.43-12.7-12.33-12.8-7.1-.1-12.88,5.4-12.99,12.38-.11,7.04,5.48,12.83,12.47,12.91,7.1.08,12.78-5.45,12.85-12.49Zm160.55-12.8c-7.06,0-12.67,5.61-12.65,12.68.02,6.98,5.57,12.57,12.52,12.61,7.06.04,12.77-5.57,12.8-12.58.03-7.02-5.63-12.7-12.66-12.71Zm-21.15,73.95c.05-2.27-1.75-4.17-4.04-4.28-2.38-.11-4.35,1.73-4.39,4.11-.04,2.29,1.73,4.19,4.02,4.3,2.34.12,4.36-1.78,4.41-4.13Zm-12.67-109.95c-.05-2.28-1.91-4.12-4.19-4.13-2.36-.01-4.3,1.95-4.24,4.3.05,2.27,1.94,4.13,4.2,4.14,2.34.01,4.28-1.96,4.23-4.31Zm-113.91,105.66c-2.36-.05-4.34,1.87-4.33,4.21,0,2.26,1.87,4.16,4.13,4.22,2.34.06,4.3-1.86,4.3-4.23,0-2.3-1.81-4.15-4.1-4.2Z"/>
</svg>