<svg id="Слой_1" data-name="Слой 1" xmlns="http://www.w3.org/2000/svg" viewBox="0 0 425.2 425.2"><path d="M303,229.37c2.69-2.65,2.67-4.84,0-7.53l-1.25-1.23q-33.6-33.08-67.26-66.12a8,8,0,0,1-2.64-6.25c-.3-28.75-24.54-49.92-53.07-46.46-23.26,2.82-40.7,22.64-40.84,46.5-.07,12.65,0,25.3,0,37.95a4.08,4.08,0,0,1-1.36,3.25c-4.07,3.89-8.08,7.84-12.07,11.81-14,13.92-14,34.87.11,48.71l28.13,27.7,25.94,25.56a34.22,34.22,0,0,0,24.55,10.26c10.36-.4,18.31-4,25-10.61q25.2-24.9,50.5-49.69Q290.87,241.3,303,229.37Zm-67.22-27.64a8,8,0,0,1-8.17,7.93,8.18,8.18,0,0,1-8.14-8,8.08,8.08,0,0,1,8.23-7.89A8,8,0,0,1,235.76,201.73ZM146.94,145c1.18-17.27,13.92-31,31-34.15a38.18,38.18,0,0,1,44.3,28.64c.22.92.37,1.86.67,3.41l-15.14-14.86c-3.53-3.47-5.29-3.48-8.8,0l-50.5,49.7c-.45.44-.93.84-1.41,1.27-.17-.22-.32-.33-.32-.44C146.78,167.38,146.17,156.17,146.94,145Zm69.11,156.44c-10.34,5.7-22.63,3.91-31.4-4.71l-38.93-38.3c-5.41-5.34-10.93-10.58-16.2-16.06a24.38,24.38,0,0,1-2.71-30.12c.19-.29.42-.57,1-1.36,2.65,2.81,5.11,5.6,7.76,8.21q40.37,39.81,80.82,79.53C217.75,300,217.8,300.48,216.05,301.45Zm9.8-8.41c-1.17,1.15-1.7,1.1-2.83,0q-43.86-43.29-87.83-86.48c-1.39-1.37-1.47-2.06,0-3.48q33.38-32.68,66.59-65.53c1.28-1.27,1.88-1.32,3.16,0,5.59,5.68,11.3,11.24,17,16.79a3.83,3.83,0,0,1,1.29,3.06q-.08,13.15,0,26.32a2.07,2.07,0,0,1-1.55,2.37A16.51,16.51,0,0,0,211,204.76a17,17,0,0,0,33.11.65,16.48,16.48,0,0,0-10.31-19.25,2.4,2.4,0,0,1-1.89-2.79c.08-6.07,0-12.13.05-18.2,0-.12.12-.24.18-.36l1-.8c7.62,8,15.11,16.09,22.91,23.9,12.18,12.22,24.55,24.25,36.89,36.31,1.19,1.15,1.16,1.69,0,2.84Q259.32,260,225.85,293Z"/><path d="M321.38,272.42c-3.15-4.31-6.47-8.48-9.67-12.75-2.84-3.8-5.61-7.62-6.8-12.37A4.22,4.22,0,0,0,300.5,244a4.14,4.14,0,0,0-4.33,3.06c-1.43,5.29-4.62,9.54-7.87,13.78-3.11,4.05-6.45,7.94-9.12,12.32-1.94,3.2-3.56,6.53-3.66,10.4A24.93,24.93,0,0,0,300.39,309a31.92,31.92,0,0,0,5.9-.64C321.18,305.1,331.64,286.45,321.38,272.42ZM314.07,293a15.63,15.63,0,0,1-16.71,7c-6.55-1.42-10.75-5.53-12.57-12a11.5,11.5,0,0,1,1.5-9.42c2.68-4.46,6.1-8.36,9.19-12.51l5.12-6.94c3.87,6.18,8.72,11.37,12.76,17.17S318.33,286,314.07,293Z"/></svg>