<?xml version="1.0" encoding="UTF-8"?>
<svg id="_Слой_1" data-name="Слой 1" xmlns="http://www.w3.org/2000/svg" viewBox="0 0 425.2 425.2">
  <defs>
    <style>
      .cls-1 {
        stroke-width: 0px;
      }
    </style>
  </defs>
  <g>
    <path class="cls-1" d="m267.6,118.02c.38.67,1.15.51,1.71.77,4.09,1.84,6.4,4.92,6.66,9.42.13,2.18-.07,4.38.49,6.52,1.41,5.3,6.17,8.86,12.04,8.96,3.5.06,6.99-.02,10.49.02,7.14.08,11.87,4.82,11.94,11.94.04,3.71.02,7.43,0,11.14-.01,2.52-1.29,4.06-3.29,4.02-1.98-.04-3.23-1.59-3.25-4.12-.03-3.64.02-7.28-.02-10.93-.04-3.65-1.86-5.46-5.56-5.5-3.42-.04-6.85.04-10.27-.02-11.01-.19-18.88-8.08-19.09-19.1,0-.51,0-1.02,0-1.53-.05-3.61-1.45-5.04-5.03-5.04-10.63-.01-21.27,0-31.9,0-20.61,0-41.23,0-61.84,0-4.18,0-5.46,1.28-5.48,5.46-.06,10.15-5.49,17.53-14.53,19.69-2.43.58-4.91.55-7.39.53-2.48-.02-4.95-.03-7.43,0-3.7.05-5.5,1.85-5.58,5.49,0,.15,0,.29,0,.44,0,20.98-.33,41.96.08,62.93.82,41.97,19.02,74.65,53.76,98.13,7.59,5.13,15.33,10.03,23.07,14.94,6.08,3.86,12.69,4.56,18.81.77,12.11-7.49,24.5-14.64,35.52-23.74,22.29-18.4,35.97-41.93,41.12-70.4,1.27-7.04,1.78-14.14,1.76-21.3-.03-11.07,0-22.14,0-33.21,0-.87-.06-1.74.31-2.58.64-1.43,1.75-2.17,3.28-2.02,1.61.16,2.65,1.1,2.92,2.76.07.43.05.87.05,1.31,0,11.87.26,23.75-.06,35.62-1.16,43.93-20.08,78.28-56.31,103.07-7.5,5.13-15.22,9.93-22.88,14.83-9.62,6.15-19.29,6.15-28.85-.1-9.8-6.4-19.97-12.27-29.3-19.35-26.66-20.21-42.69-46.95-48.33-79.9-1.14-6.68-1.53-13.44-1.51-20.23.04-20.39.18-40.79-.07-61.18-.09-7.39,5.27-13.38,12.91-12.86,2.76.19,5.53.03,8.3.03,8.92,0,13.77-4.83,13.8-13.75.02-6.3,2.28-9.51,8.16-11.62.11-.04.17-.2.26-.31,33.51,0,67.02,0,100.53,0Z"/>
    <path class="cls-1" d="m217.43,137.69c11.36,0,22.73,0,34.09,0,3.94,0,5.34,1,6.75,4.56,4.87,12.25,13.85,19.23,26.93,20.88,4.49.57,6.07,2.3,6.07,6.87,0,16.61.35,33.23-.09,49.82-.97,36.62-16.97,65.24-47.08,85.99-5.27,3.63-10.71,7-16.1,10.45-7.17,4.58-14.34,4.61-21.46-.12-9.14-6.07-18.8-11.41-27.07-18.72-20.94-18.5-32.92-41.64-35.62-69.47-1.03-10.6-.3-21.26-.44-31.88-.03-2.14,1.23-3.39,3.13-3.44,2-.05,3.37,1.35,3.39,3.7.04,6.34.13,12.68,0,19.01-.37,16.83,3.08,32.8,10.78,47.79,7.98,15.55,19.39,28.05,34.04,37.59,5.12,3.33,10.27,6.62,15.37,9.97,4.84,3.18,9.66,3.22,14.47-.01,8.75-5.88,18.05-10.96,26.02-17.94,19.76-17.32,31.02-39.05,33.7-65.21.68-6.62.38-13.25.41-19.87.05-12.02,0-24.04.05-36.06,0-1.44-.34-1.87-1.85-2.11-14.23-2.32-24.31-10.12-30.13-23.32-.61-1.38-1.17-1.96-2.78-1.96-21.78.06-43.56.06-65.34.01-1.43,0-2.12.34-2.72,1.73-5.78,13.43-15.98,21.28-30.4,23.56-1.34.21-1.67.61-1.63,1.86.08,2.77.06,5.54.02,8.3-.04,2.51-1.38,3.98-3.43,3.9-1.95-.08-3.09-1.49-3.11-3.95-.02-3.2-.01-6.41,0-9.61,0-4.65,1.6-6.43,6.27-6.89,7.46-.73,13.79-3.84,19.14-9.03,3.34-3.24,5.8-7.06,7.45-11.41,1.58-4.17,2.79-4.99,7.31-4.99,11.29,0,22.58,0,33.87,0Z"/>
  </g>
  <polygon class="cls-1" points="143.39 174.05 143.41 200.89 149.98 204.44 149.96 178.42 143.39 174.05"/>
  <polygon class="cls-1" points="304.4 163.61 304.39 188.05 310.93 186.73 310.95 166.24 304.4 163.61"/>
</svg>