<svg width="50" height="50" viewBox="0 0 50 50" fill="none" xmlns="http://www.w3.org/2000/svg">
<g clip-path="url(#clip0_171_249)">
<path d="M14.4314 16.5628C14.6055 16.5626 14.7796 16.5623 14.9538 16.5619C15.3161 16.5615 15.6785 16.5621 16.0408 16.5635C16.5044 16.5652 16.9679 16.5642 17.4314 16.5624C17.7899 16.5614 18.1484 16.5617 18.5069 16.5625C18.6778 16.5627 18.8488 16.5624 19.0197 16.5618C19.2583 16.561 19.4968 16.5622 19.7353 16.5638C19.8052 16.5632 19.875 16.5626 19.947 16.562C20.3995 16.5677 20.7111 16.6527 21.0937 16.8947C21.3102 17.2194 21.3644 17.3866 21.3867 17.7736C21.2417 18.2238 21.1194 18.5164 20.7031 18.7501C20.4554 18.7787 20.2316 18.7909 19.984 18.7892C19.8763 18.7903 19.8763 18.7903 19.7663 18.7913C19.529 18.7933 19.2917 18.7932 19.0544 18.7932C18.8887 18.7944 18.723 18.7957 18.5573 18.7971C18.1207 18.8007 17.6841 18.8026 17.2475 18.8041C16.5507 18.8065 15.854 18.8105 15.1573 18.816C14.9151 18.8176 14.6729 18.818 14.4307 18.8183C13.2432 18.8237 12.1035 18.8505 11.1633 19.6595C10.6934 20.2056 10.372 20.7279 10.1036 21.3903C9.34179 23.2607 8.57577 25.1292 7.8041 26.9956C7.71888 27.2018 7.63366 27.408 7.54845 27.6142C7.34354 28.1101 7.13859 28.6059 6.93359 29.1017C7.10415 29.1013 7.10415 29.1013 7.27816 29.1009C9.9774 29.0945 12.6766 29.0897 15.3759 29.0867C15.7081 29.0864 16.0403 29.086 16.3726 29.0856C16.4387 29.0855 16.5049 29.0854 16.573 29.0854C17.644 29.0841 18.7149 29.0818 19.7858 29.0791C20.8847 29.0763 21.9836 29.0747 23.0825 29.0741C23.6997 29.0737 24.317 29.0728 24.9342 29.0707C25.515 29.0687 26.0958 29.0681 26.6766 29.0686C26.8899 29.0685 27.1032 29.0679 27.3165 29.0668C27.6075 29.0653 27.8985 29.0657 28.1895 29.0665C28.2741 29.0656 28.3586 29.0648 28.4457 29.0639C28.9302 29.0675 29.2714 29.1185 29.6875 29.3947C29.8919 29.7441 29.9825 29.9779 29.9744 30.3834C29.8681 30.7093 29.7263 30.9041 29.4922 31.1525C29.1669 31.3151 28.8018 31.2644 28.4441 31.2643C28.3547 31.2646 28.2653 31.265 28.1732 31.2653C27.8717 31.2664 27.5703 31.2667 27.2689 31.2671C27.0535 31.2677 26.838 31.2684 26.6226 31.2691C26.1577 31.2705 25.6927 31.2716 25.2277 31.2726C24.4918 31.2741 23.7559 31.2764 23.02 31.2789C21.9875 31.2823 20.955 31.2856 19.9224 31.2885C19.8569 31.2887 19.7913 31.2889 19.7238 31.289C18.7954 31.2917 17.8671 31.294 16.9387 31.2962C16.8735 31.2964 16.8083 31.2965 16.7411 31.2967C16.6433 31.2969 16.6433 31.2969 16.5436 31.2972C15.4543 31.2998 14.365 31.3032 13.2757 31.3071C12.545 31.3097 11.8142 31.3115 11.0835 31.3126C10.6273 31.3135 10.1711 31.3152 9.71489 31.3171C9.50425 31.3178 9.29361 31.3182 9.08297 31.3183C7.10689 31.319 5.24793 31.4013 3.70254 32.8019C2.4809 34.0657 2.20955 35.5282 2.2099 37.2153C2.20947 37.4444 2.20591 37.6733 2.20222 37.9024C2.1938 39.0152 2.33319 39.9071 3.11813 40.7464C3.71754 41.2554 4.41733 41.5159 5.19509 41.5171C5.32263 41.5176 5.45018 41.518 5.58159 41.5185C5.72399 41.5185 5.86638 41.5184 6.00878 41.5184C6.15939 41.5187 6.31 41.5191 6.46061 41.5195C6.8756 41.5205 7.29059 41.5208 7.70559 41.5211C8.15275 41.5215 8.5999 41.5224 9.04706 41.5233C10.1276 41.5252 11.2081 41.5262 12.2886 41.527C12.7973 41.5275 13.3061 41.528 13.8148 41.5285C15.5058 41.5302 17.1967 41.5316 18.8877 41.5323C19.3266 41.5325 19.7656 41.5327 20.2045 41.5329C20.3136 41.5329 20.4227 41.533 20.5351 41.533C22.3023 41.5338 24.0695 41.5363 25.8367 41.5395C27.6507 41.5427 29.4647 41.5444 31.2787 41.5448C32.2973 41.545 33.3159 41.5458 34.3346 41.5483C35.2021 41.5504 36.0697 41.5512 36.9372 41.5503C37.3798 41.5498 37.8223 41.55 38.2649 41.5519C38.6704 41.5536 39.0758 41.5535 39.4813 41.552C39.6277 41.5518 39.7741 41.5522 39.9204 41.5534C41.0645 41.5619 41.9519 41.4106 42.804 40.6049C43.7974 39.5494 43.6919 38.1214 43.6614 36.7678C43.6042 35.2319 43.205 34.0899 42.2184 32.9088C41.993 32.5689 42.0201 32.2276 42.0898 31.8361C42.2159 31.5426 42.3158 31.4643 42.5781 31.2501C42.9773 31.1224 43.3175 31.1026 43.7134 31.244C45.0274 32.3852 45.6978 34.0394 45.8984 35.7423C45.9129 36.0882 45.9138 36.4338 45.9142 36.78C45.9147 36.8822 45.9151 36.9844 45.9156 37.0897C45.9171 37.4264 45.9177 37.7631 45.9183 38.0998C45.9188 38.3349 45.9194 38.57 45.92 38.8051C45.921 39.2976 45.9216 39.7902 45.9219 40.2827C45.9224 40.912 45.9248 41.5412 45.9276 42.1704C45.9294 42.656 45.9299 43.1416 45.93 43.6272C45.9303 43.8591 45.9311 44.091 45.9324 44.3228C45.9341 44.6481 45.9339 44.9733 45.9332 45.2986C45.9341 45.3932 45.935 45.4878 45.936 45.5853C45.9286 46.812 45.5421 47.9409 44.7124 48.858C43.838 49.657 42.8376 50.058 41.6626 50.0429C41.5411 50.0417 41.5411 50.0417 41.4172 50.0406C40.3962 50.0133 39.6326 49.6961 38.8672 49.0236C38.808 48.9746 38.7489 48.9256 38.6879 48.8752C38.0723 48.3227 37.6991 47.574 37.5 46.7775C37.5 45.7784 37.5 44.7794 37.5 43.7501C27.8965 43.7501 18.293 43.7501 8.39843 43.7501C8.39843 44.6202 8.39843 45.4904 8.39843 46.3868C7.99459 47.8676 7.53304 48.7368 6.25724 49.553C5.56787 49.9069 4.93572 50.0528 4.16259 50.0429C4.04112 50.0417 4.04112 50.0417 3.91719 50.0406C2.89619 50.0133 2.13259 49.6961 1.36718 49.0236C1.30802 48.9746 1.24885 48.9256 1.18789 48.8752C0.551996 48.3045 0.0376336 47.4205 -0.0131105 46.5535C-0.0135278 46.4708 -0.0139456 46.3881 -0.0143756 46.3029C-0.0150743 46.2075 -0.0157731 46.1121 -0.016493 46.0138C-0.0167556 45.9098 -0.0170182 45.8058 -0.0172888 45.6986C-0.0179305 45.5885 -0.0185722 45.4784 -0.0192334 45.3649C-0.0211604 45 -0.0222997 44.635 -0.0232731 44.2701C-0.0236711 44.1451 -0.0240685 44.0202 -0.0244786 43.8914C-0.0263063 43.2976 -0.0277281 42.7037 -0.0285421 42.1099C-0.0294929 41.4278 -0.0320543 40.7457 -0.0360136 40.0636C-0.0393371 39.4703 -0.0404724 38.8771 -0.0408669 38.2838C-0.0413401 38.0329 -0.0424699 37.782 -0.0442897 37.5311C-0.0614713 35.0037 -0.0614707 35.0037 0.390622 33.7892C0.417481 33.7165 0.444341 33.6439 0.472015 33.569C1.05839 32.1367 2.15908 30.8476 3.54728 30.1618C4.42293 29.6624 4.65514 28.8339 4.98657 27.9298C5.05458 27.7542 5.12306 27.5787 5.19197 27.4034C5.33884 27.029 5.48384 26.6539 5.62782 26.2784C5.98793 25.346 6.37693 24.4255 6.76348 23.5038C6.88748 23.2077 7.01072 22.9112 7.1337 22.6146C7.49442 21.7457 7.85886 20.8785 8.23707 20.017C8.26762 19.9466 8.29817 19.8763 8.32964 19.8038C8.93627 18.436 9.93315 17.4495 11.3281 16.8947C12.3589 16.5667 13.3629 16.5585 14.4314 16.5628ZM43.2251 43.0482C42.0977 43.7196 40.927 43.7138 39.6484 43.7501C39.637 44.157 39.6301 44.5638 39.624 44.9708C39.6207 45.0854 39.6175 45.1999 39.6141 45.318C39.6052 46.1111 39.6851 46.6602 40.2096 47.268C40.7539 47.703 41.1616 47.8941 41.8678 47.8765C42.4149 47.8154 42.8776 47.5522 43.2617 47.1681C43.6874 46.4987 43.7628 45.8688 43.7595 45.0815C43.7593 44.9819 43.7593 44.9819 43.7591 44.8803C43.7586 44.6704 43.7573 44.4605 43.7561 44.2506C43.7556 44.1074 43.7552 43.9643 43.7548 43.8211C43.7537 43.4719 43.752 43.1227 43.75 42.7736C43.5593 42.7736 43.3788 42.9486 43.2251 43.0482ZM2.14843 42.8712C2.13872 43.3437 2.13166 43.8161 2.12698 44.2886C2.12502 44.4491 2.12236 44.6095 2.11897 44.7699C2.11418 45.0017 2.112 45.2334 2.11029 45.4652C2.10827 45.5359 2.10625 45.6067 2.10418 45.6796C2.10391 46.2992 2.30376 46.7978 2.70958 47.268C3.2539 47.703 3.66158 47.8941 4.36782 47.8765C4.91489 47.8154 5.37765 47.5522 5.76172 47.1681C6.25544 46.3918 6.26399 45.6352 6.2561 44.7389C6.25566 44.6437 6.25522 44.5486 6.25477 44.4505C6.25362 44.217 6.25202 43.9836 6.25 43.7501C6.19299 43.7487 6.13598 43.7473 6.07724 43.7458C5.81331 43.7384 5.5495 43.729 5.28564 43.7196C5.19601 43.7174 5.10638 43.7152 5.01403 43.7129C3.95496 43.6719 3.0963 43.3271 2.14843 42.8712Z" fill="black"/>
<path d="M39.0323 0.314973C39.1306 0.348119 39.229 0.381265 39.3303 0.415416C39.6504 0.523718 39.9698 0.634086 40.2893 0.744508C40.5125 0.820487 40.7358 0.896334 40.9591 0.972055C41.5228 1.16354 42.0859 1.35669 42.6489 1.55028C43.1315 1.7159 43.6147 1.87988 44.0978 2.04379C44.8386 2.29524 45.5787 2.54879 46.3184 2.80353C46.7372 2.94747 47.1568 3.08903 47.5775 3.22755C47.761 3.288 47.9442 3.3491 48.1275 3.41022C48.3413 3.48145 48.5555 3.55162 48.7701 3.62041C48.9083 3.66686 48.9083 3.66686 49.0493 3.71425C49.1277 3.73981 49.206 3.76538 49.2867 3.79171C49.6087 3.9555 49.7757 4.10621 49.9999 4.39441C50.0724 4.73391 50.0657 5.06784 50.0616 5.41391C50.0626 5.5679 50.0626 5.5679 50.0637 5.72501C50.0653 6.06493 50.0634 6.40473 50.0614 6.74465C50.0614 6.9823 50.0617 7.21996 50.0621 7.45761C50.0624 7.95684 50.0609 8.45602 50.0582 8.95524C50.0549 9.58989 50.0555 10.2245 50.0573 10.8591C50.0584 11.3509 50.0575 11.8426 50.056 12.3343C50.0555 12.568 50.0556 12.8016 50.0562 13.0352C50.0621 16.656 49.0028 20.0059 46.582 22.7538C46.5163 22.8302 46.4506 22.9066 46.3829 22.9853C44.1344 25.5496 41.4178 27.477 38.3789 29.0038C38.3006 29.0432 38.2223 29.0826 38.1416 29.1232C37.5576 29.2998 37.1027 29.2417 36.5645 28.966C36.5026 28.9322 36.4407 28.8983 36.3769 28.8634C36.3102 28.8284 36.2435 28.7934 36.1748 28.7574C35.9644 28.646 35.7556 28.5322 35.5468 28.4178C35.4792 28.3813 35.4115 28.3448 35.3418 28.3072C31.2265 26.0818 27.0045 22.503 25.5859 17.871C25.2311 16.6307 24.9866 15.4613 24.9811 14.1693C24.9803 14.0643 24.9795 13.9592 24.9787 13.851C24.9763 13.5052 24.9747 13.1593 24.9732 12.8134C24.9727 12.6951 24.9722 12.5767 24.9717 12.4548C24.9691 11.8293 24.9672 11.2038 24.9658 10.5782C24.9645 10.0605 24.9617 9.54273 24.9577 9.02498C24.9529 8.39922 24.9505 7.7735 24.9498 7.14773C24.9492 6.90936 24.9477 6.671 24.9453 6.43264C24.9423 6.09974 24.9422 5.76697 24.943 5.43406C24.9414 5.33553 24.9398 5.237 24.9381 5.13548C24.9422 4.67959 24.9457 4.46566 25.2287 4.09408C25.5289 3.87669 25.795 3.76446 26.1474 3.64864C26.2152 3.62586 26.2829 3.60309 26.3527 3.57962C26.585 3.50192 26.8178 3.42632 27.0507 3.35071C27.2196 3.29482 27.3885 3.23879 27.5573 3.18262C27.8475 3.08611 28.1376 2.98972 28.428 2.89383C29.3354 2.59344 30.2393 2.28322 31.1431 1.9718C31.6522 1.79655 32.1617 1.62223 32.6711 1.4479C33.0983 1.30166 33.5254 1.15493 33.9521 1.00714C34.361 0.865563 34.7704 0.725467 35.1802 0.586389C35.3329 0.534279 35.4854 0.481651 35.6378 0.428467C36.8912 -0.00860556 37.7598 -0.131182 39.0323 0.314973ZM36.5536 2.44407C36.4909 2.46521 36.4282 2.48634 36.3636 2.50812C36.1564 2.5782 35.9497 2.64954 35.7429 2.7209C35.5958 2.77095 35.4487 2.82093 35.3015 2.87082C34.9123 3.00304 34.5235 3.13632 34.1347 3.26983C33.7514 3.40127 33.3678 3.53168 32.9841 3.66218C32.0801 3.96997 31.1766 4.27959 30.2734 4.58972C30.197 4.61593 30.1207 4.64215 30.042 4.66915C29.0773 5.00035 28.1128 5.33194 27.1484 5.66394C27.1393 6.81435 27.1324 7.96476 27.1281 9.1152C27.1261 9.6496 27.1234 10.184 27.1189 10.7184C27.1146 11.2357 27.1123 11.753 27.1113 12.2703C27.1106 12.4661 27.1092 12.6618 27.1071 12.8575C27.0671 16.6822 28.5051 19.6897 31.1197 22.4221C31.2308 22.5384 31.3405 22.6561 31.4498 22.774C32.0391 23.3922 32.718 23.9013 33.3984 24.4139C33.4525 24.455 33.5066 24.4961 33.5624 24.5383C34.5641 25.2929 35.6313 25.9393 36.7187 26.5624C36.8224 26.6239 36.9262 26.6855 37.033 26.7489C37.3804 26.885 37.534 26.8665 37.8906 26.7577C38.1726 26.6309 38.44 26.4838 38.7084 26.3304C38.7853 26.287 38.8622 26.2436 38.9414 26.1988C42.2951 24.2728 45.3807 21.5492 46.9726 17.9686C47.0196 17.8659 47.0665 17.7632 47.1149 17.6574C47.8056 16.0214 47.9088 14.3205 47.8897 12.5685C47.8889 12.3677 47.8884 12.1669 47.888 11.9661C47.8865 11.4446 47.8827 10.9232 47.8783 10.4018C47.8743 9.86684 47.8725 9.3319 47.8706 8.79695C47.8664 7.7526 47.8598 6.70827 47.8515 5.66394C47.7472 5.62834 47.6429 5.59274 47.5354 5.55607C47.1322 5.41845 46.7289 5.28081 46.3257 5.14316C46.1431 5.08082 45.9605 5.01849 45.7778 4.95616C44.769 4.61182 43.7603 4.26713 42.7522 3.92058C42.2287 3.74065 41.7051 3.56132 41.1813 3.38245C40.8553 3.27112 40.5296 3.15943 40.204 3.04706C39.8761 2.93389 39.5479 2.8216 39.2195 2.70991C39.0394 2.6484 38.8595 2.586 38.6797 2.52358C38.5715 2.48693 38.4632 2.45029 38.3517 2.41253C38.2575 2.38022 38.1633 2.34792 38.0663 2.31463C37.5093 2.17475 37.0904 2.26078 36.5536 2.44407Z" fill="black"/>
<path d="M44.2383 9.37519C44.644 9.68984 44.8034 9.90811 44.873 10.4128C44.8685 10.7818 44.7729 10.9429 44.5243 11.2116C44.462 11.2794 44.3997 11.3472 44.3355 11.4171C44.034 11.733 43.7299 12.0456 43.4206 12.3539C43.3523 12.4224 43.2839 12.4909 43.2135 12.5616C42.9901 12.7854 42.7664 13.0088 42.5426 13.2322C42.3864 13.3885 42.2302 13.5448 42.074 13.7011C41.7481 14.0272 41.4219 14.3531 41.0957 14.6789C40.6769 15.0972 40.2585 15.5159 39.8403 15.9347C39.5185 16.2568 39.1965 16.5787 38.8744 16.9005C38.72 17.0549 38.5656 17.2094 38.4113 17.3639C38.1965 17.579 37.9813 17.7937 37.7661 18.0084C37.7022 18.0726 37.6382 18.1367 37.5723 18.2029C37.5138 18.261 37.4554 18.3192 37.3952 18.3791C37.3444 18.4299 37.2936 18.4806 37.2413 18.5329C36.9492 18.7977 36.6512 18.8021 36.2716 18.7937C35.4637 18.6451 34.9403 17.6914 34.4715 17.0782C34.1706 16.6849 33.8585 16.3013 33.5449 15.9182C33.046 15.3066 32.5521 14.6917 32.0694 14.0673C31.9302 13.8899 31.7878 13.7149 31.6391 13.5454C31.2764 13.1218 31.1639 12.7969 31.1977 12.2339C31.2788 11.8896 31.46 11.729 31.7383 11.5236C32.0586 11.3634 32.3697 11.3647 32.7148 11.426C33.3296 11.8204 33.7366 12.4219 34.1762 12.9953C34.4853 13.398 34.8046 13.7917 35.1257 14.1848C35.2323 14.3155 35.3388 14.4462 35.4454 14.5769C35.5209 14.6695 35.5209 14.6695 35.5979 14.764C35.9089 15.1468 36.2164 15.5323 36.5234 15.9182C36.9757 15.5402 37.4047 15.1481 37.8194 14.7294C37.8763 14.6723 37.9333 14.6152 37.9919 14.5564C38.1142 14.4338 38.2364 14.311 38.3584 14.1881C38.5515 13.9938 38.7449 13.7998 38.9384 13.6058C39.3483 13.1948 39.7578 12.7834 40.1672 12.372C40.6435 11.8934 41.12 11.415 41.5968 10.9369C41.7876 10.7456 41.978 10.5539 42.1684 10.3622C42.2847 10.2456 42.4009 10.1291 42.5172 10.0125C42.5702 9.95899 42.6232 9.90547 42.6778 9.85033C43.1727 9.35542 43.5441 9.27477 44.2383 9.37519Z" fill="black"/>
<path d="M32.6827 35.3341C32.7485 35.3334 32.8143 35.3328 32.882 35.3321C33.0996 35.3302 33.3171 35.329 33.5346 35.3281C33.609 35.3277 33.6834 35.3273 33.7601 35.3269C34.154 35.3248 34.5479 35.3234 34.9418 35.3225C35.348 35.3214 35.7542 35.3181 36.1603 35.3142C36.4733 35.3116 36.7862 35.3108 37.0991 35.3105C37.2488 35.31 37.3985 35.3089 37.5482 35.3071C37.7581 35.3047 37.9679 35.3048 38.1778 35.3054C38.297 35.3049 38.4163 35.3043 38.5392 35.3037C38.9326 35.3608 39.1438 35.4971 39.4531 35.742C39.649 36.0221 39.6744 36.229 39.6423 36.5659C39.6372 36.6383 39.632 36.7107 39.6267 36.7853C39.5136 37.1224 39.3355 37.2749 39.0625 37.4998C38.7327 37.5611 38.7327 37.5611 38.3514 37.5614C38.2468 37.5625 38.2468 37.5625 38.14 37.5635C37.9103 37.5652 37.6808 37.5633 37.4512 37.5612C37.291 37.5613 37.1309 37.5615 36.9707 37.5619C36.6354 37.5622 36.3002 37.5608 35.965 37.5581C35.5357 37.5547 35.1066 37.5553 34.6774 37.5572C34.3468 37.5582 34.0162 37.5573 33.6856 37.5559C33.5274 37.5553 33.3692 37.5554 33.211 37.556C32.9896 37.5565 32.7684 37.5545 32.547 37.5519C32.4212 37.5513 32.2953 37.5507 32.1657 37.55C31.7817 37.4915 31.6206 37.38 31.3476 37.1092C31.1661 36.7462 31.1934 36.3325 31.25 35.9373C31.6656 35.3869 32.0226 35.3394 32.6827 35.3341Z" fill="black"/>
<path d="M7.68272 35.3341C7.74849 35.3334 7.81427 35.3328 7.88204 35.3321C8.09956 35.3302 8.31708 35.329 8.53461 35.3281C8.60903 35.3277 8.68345 35.3273 8.76012 35.3269C9.15401 35.3248 9.54789 35.3234 9.94178 35.3225C10.348 35.3214 10.7542 35.3181 11.1603 35.3142C11.4733 35.3116 11.7862 35.3108 12.0991 35.3105C12.2488 35.31 12.3985 35.3089 12.5482 35.3071C12.7581 35.3047 12.9679 35.3048 13.1778 35.3054C13.297 35.3049 13.4163 35.3043 13.5392 35.3037C13.9326 35.3608 14.1438 35.4971 14.4531 35.742C14.649 36.0221 14.6744 36.229 14.6423 36.5659C14.6372 36.6383 14.632 36.7107 14.6267 36.7853C14.5136 37.1224 14.3355 37.2749 14.0625 37.4998C13.7327 37.5611 13.7327 37.5611 13.3514 37.5614C13.2468 37.5625 13.2468 37.5625 13.14 37.5635C12.9103 37.5652 12.6808 37.5633 12.4512 37.5612C12.291 37.5613 12.1309 37.5615 11.9707 37.5619C11.6354 37.5622 11.3002 37.5608 10.965 37.5581C10.5357 37.5547 10.1066 37.5553 9.67741 37.5572C9.34681 37.5582 9.01624 37.5573 8.68565 37.5559C8.52742 37.5553 8.36919 37.5554 8.21096 37.556C7.98957 37.5565 7.76835 37.5545 7.54699 37.5519C7.42116 37.5513 7.29534 37.5507 7.16571 37.55C6.78174 37.4915 6.62056 37.38 6.34765 37.1092C6.16615 36.7462 6.19344 36.3325 6.24999 35.9373C6.66559 35.3869 7.02263 35.3394 7.68272 35.3341Z" fill="black"/>
</g>
<defs>
<clipPath id="clip0_171_249">
<rect width="50" height="50" fill="white"/>
</clipPath>
</defs>
</svg>
