<svg width="50" height="50" viewBox="0 0 50 50" fill="none" xmlns="http://www.w3.org/2000/svg">
<g clip-path="url(#clip0_171_246)">
<path d="M14.3511 16.5904C14.4255 16.5904 14.4999 16.5904 14.5765 16.5904C14.8201 16.5905 15.0637 16.5912 15.3073 16.592C15.4771 16.5922 15.6469 16.5923 15.8167 16.5924C16.2619 16.5928 16.707 16.5937 17.1522 16.5948C17.6072 16.5958 18.0622 16.5963 18.5171 16.5968C19.4086 16.5978 20.3 16.5995 21.1914 16.6015C21.2043 16.6582 21.2172 16.715 21.2305 16.7734C21.561 18.2514 21.561 18.2514 22.0459 19.6838C22.1046 19.8344 22.1631 19.9851 22.2214 20.1358C22.2464 20.1985 22.2715 20.2611 22.2972 20.3256C22.3658 20.5145 22.4136 20.7033 22.461 20.8984C22.3009 20.8986 22.3009 20.8986 22.1376 20.8988C21.129 20.9005 20.1205 20.9046 19.1119 20.9113C18.5935 20.9146 18.0751 20.9171 17.5566 20.9175C17.0557 20.9179 16.5549 20.9207 16.054 20.9251C15.8635 20.9264 15.673 20.9268 15.4824 20.9263C14.0571 20.8939 14.0571 20.8939 12.793 21.4843C12.3739 21.9467 12.1667 22.5787 11.925 23.1493C11.8173 23.4039 11.7082 23.6578 11.5992 23.9118C11.5401 24.0498 11.481 24.1878 11.422 24.3258C11.066 25.158 10.704 25.9875 10.3421 26.8171C10.2304 27.0732 10.1188 27.3294 10.0073 27.5855C9.93842 27.7435 9.86959 27.9014 9.80076 28.0594C9.76897 28.1324 9.73719 28.2054 9.70445 28.2806C9.48387 28.7862 9.48387 28.7862 9.37504 29.0039C9.47604 29.0035 9.57703 29.0031 9.68109 29.0027C12.1419 28.9932 14.6027 28.9894 17.0635 28.9915C18.2536 28.9923 19.4436 28.9914 20.6337 28.9861C21.6713 28.9816 22.7088 28.9804 23.7464 28.9834C24.2956 28.9848 24.8446 28.9846 25.3937 28.9802C25.9113 28.9761 26.4287 28.9767 26.9463 28.9807C27.1356 28.9813 27.3248 28.9804 27.514 28.9776C28.8391 28.9592 29.4958 29.1638 30.4688 30.0781C30.8067 30.3189 31.1551 30.5409 31.5064 30.7617C31.6436 30.8483 31.6436 30.8483 31.7835 30.9366C33.9113 32.2628 36.2253 33.6245 38.8123 33.0688C40.212 32.7137 41.5453 31.9931 42.725 31.1721C42.9688 31.0547 42.9688 31.0547 43.1832 31.1195C43.4331 31.3045 43.635 31.5108 43.8477 31.7382C43.9247 31.8162 43.9247 31.8162 44.0033 31.8958C45.3489 33.3239 45.9116 35.2035 45.9142 37.1321C45.9147 37.2199 45.9152 37.3076 45.9157 37.398C45.9171 37.6867 45.9178 37.9754 45.9183 38.264C45.9186 38.3632 45.9189 38.4624 45.9191 38.5646C45.9206 39.0896 45.9215 39.6146 45.9219 40.1396C45.9225 40.6793 45.9248 41.219 45.9276 41.7586C45.9294 42.176 45.9299 42.5933 45.9301 43.0106C45.9304 43.2094 45.9311 43.4082 45.9324 43.6071C45.9436 45.4547 45.745 47.1284 44.4153 48.529C43.1352 49.718 41.8312 50.0835 40.1257 50.0335C38.7023 49.9567 37.5311 49.2581 36.5589 48.2425C35.4526 46.8362 35.3516 45.5352 35.3516 43.75C27.1338 43.75 18.9161 43.75 10.4493 43.75C10.4493 44.3623 10.4493 44.9746 10.4493 45.6054C10.1907 46.9699 9.54758 48.176 8.43052 49.0268C7.41081 49.7052 6.47293 50.0176 5.26127 50.0244C5.12947 50.0274 5.12947 50.0274 4.995 50.0305C3.53983 50.0388 2.36195 49.4227 1.33823 48.4207C0.567739 47.6146 -0.00772694 46.5205 -0.0143354 45.3818C-0.0150342 45.2987 -0.0157329 45.2157 -0.0164529 45.1301C-0.0167154 45.0397 -0.016978 44.9494 -0.0172486 44.8563C-0.0178903 44.7605 -0.018532 44.6647 -0.0191932 44.566C-0.0211191 44.2486 -0.0222594 43.9312 -0.0232329 43.6138C-0.0236309 43.505 -0.0240283 43.3962 -0.0244384 43.2841C-0.0264758 42.7075 -0.0278725 42.1309 -0.028788 41.5542C-0.0298642 40.9617 -0.0332188 40.3692 -0.0371059 39.7767C-0.0396737 39.3186 -0.0404773 38.8606 -0.0408267 38.4025C-0.0412992 38.1843 -0.0424268 37.9661 -0.0442495 37.7479C-0.0562671 36.2129 0.0254669 34.8423 0.762976 33.4594C0.796855 33.3942 0.830734 33.329 0.865639 33.2618C1.14396 32.7396 1.45604 32.2742 1.85551 31.8359C1.92537 31.7571 1.99524 31.6783 2.06722 31.5971C2.45659 31.1817 2.82173 30.8529 3.32705 30.5846C4.28021 30.0603 4.5732 29.3856 4.94388 28.3996C5.00686 28.2423 5.07034 28.0851 5.13426 27.9281C5.2717 27.59 5.40722 27.2511 5.54179 26.9118C5.89241 26.0354 6.27499 25.1725 6.65382 24.3081C6.77728 24.0259 6.90005 23.7434 7.02256 23.4609C7.40771 22.5729 7.79618 21.6864 8.19095 20.8027C8.22636 20.7229 8.26176 20.6431 8.29824 20.5609C9.02282 18.947 10.1353 17.6796 11.8157 17.0269C12.6583 16.7273 13.4565 16.5859 14.3511 16.5904ZM6.79325 36.1816C6.69676 36.2949 6.69676 36.2949 6.59832 36.4105C6.24009 36.9036 6.29466 37.5025 6.34769 38.0859C6.51318 38.6302 6.95048 39.0545 7.42191 39.3554C7.97063 39.5944 8.49681 39.5806 9.08436 39.5801C9.18789 39.5805 9.29142 39.581 9.39808 39.5814C9.61658 39.5819 9.83508 39.582 10.0536 39.5816C10.3864 39.5813 10.7192 39.5836 11.052 39.586C11.2648 39.5863 11.4777 39.5863 11.6906 39.5862C11.7894 39.5871 11.8882 39.588 11.9899 39.5889C12.788 39.5838 13.4749 39.4547 14.0625 38.8672C14.4417 38.3405 14.5774 37.8585 14.5508 37.207C14.4332 36.6538 14.1782 36.1526 13.704 35.8245C13.2328 35.5426 12.8632 35.4379 12.3218 35.4334C12.2285 35.4325 12.1353 35.4316 12.0392 35.4306C11.939 35.4302 11.8388 35.4298 11.7356 35.4293C11.6318 35.4288 11.528 35.4282 11.421 35.4277C11.2013 35.4267 10.9817 35.4261 10.762 35.4257C10.4275 35.4248 10.093 35.4217 9.75841 35.4187C9.54466 35.418 9.33091 35.4175 9.11716 35.4171C9.01775 35.4159 8.91834 35.4147 8.81592 35.4135C8.00149 35.416 7.34021 35.5213 6.79325 36.1816ZM31.7932 36.1816C31.6968 36.2949 31.6968 36.2949 31.5983 36.4105C31.2401 36.9036 31.2947 37.5025 31.3477 38.0859C31.5132 38.6302 31.9505 39.0545 32.4219 39.3554C32.9706 39.5944 33.4968 39.5806 34.0844 39.5801C34.1879 39.5805 34.2914 39.581 34.3981 39.5814C34.6166 39.5819 34.8351 39.582 35.0536 39.5816C35.3864 39.5813 35.7192 39.5836 36.052 39.586C36.2648 39.5863 36.4777 39.5863 36.6906 39.5862C36.7894 39.5871 36.8882 39.588 36.9899 39.5889C37.788 39.5838 38.4749 39.4547 39.0625 38.8672C39.4417 38.3405 39.5774 37.8585 39.5508 37.207C39.4332 36.6538 39.1782 36.1526 38.704 35.8245C38.2328 35.5426 37.8632 35.4379 37.3218 35.4334C37.2285 35.4325 37.1353 35.4316 37.0392 35.4306C36.939 35.4302 36.8388 35.4298 36.7356 35.4293C36.6318 35.4288 36.528 35.4282 36.421 35.4277C36.2013 35.4267 35.9817 35.4261 35.762 35.4257C35.4275 35.4248 35.093 35.4217 34.7584 35.4187C34.5447 35.418 34.3309 35.4175 34.1172 35.4171C34.0177 35.4159 33.9183 35.4147 33.8159 35.4135C33.0015 35.416 32.3402 35.5213 31.7932 36.1816Z" fill="black"/>
<path d="M39.6438 0.486235C39.7937 0.537439 39.9435 0.588486 40.0934 0.639386C40.4908 0.774791 40.8873 0.91237 41.2837 1.05048C41.6926 1.1926 42.1022 1.33288 42.5116 1.47338C43.1547 1.69429 43.7973 1.91641 44.4397 2.13943C45.0724 2.35906 45.7059 2.57618 46.3403 2.79071C46.7068 2.91464 47.0729 3.03958 47.4389 3.16484C47.5984 3.21925 47.758 3.2733 47.9177 3.32697C48.1326 3.3994 48.3469 3.4734 48.5611 3.54791C48.6757 3.58709 48.7903 3.62627 48.9083 3.66664C49.3982 3.89106 49.7938 4.1723 50 4.68774C50.0251 4.89659 50.0251 4.89659 50.0261 5.12568C50.0274 5.2566 50.0274 5.2566 50.0286 5.39016C50.0285 5.48523 50.0285 5.58029 50.0284 5.67823C50.029 5.77897 50.0297 5.87971 50.0303 5.98351C50.0322 6.31758 50.0326 6.65164 50.0328 6.98572C50.0334 7.21913 50.0341 7.45255 50.0348 7.68596C50.0359 8.17656 50.0363 8.66716 50.0362 9.15776C50.0362 9.78135 50.0388 10.4049 50.0422 11.0285C50.0444 11.5116 50.0448 11.9947 50.0447 12.4778C50.0449 12.7073 50.0457 12.9369 50.0473 13.1664C50.0679 16.5905 49.1084 19.6546 46.9726 22.3635C46.9318 22.4155 46.8909 22.4675 46.8489 22.5211C45.8312 23.8009 44.6642 24.9906 43.3594 25.9768C43.2707 26.045 43.2707 26.045 43.1802 26.1146C41.9404 27.063 40.625 27.8624 39.2578 28.6135C39.1878 28.652 39.1178 28.6905 39.0457 28.7302C38.3833 29.0869 37.7669 29.3857 37.0117 29.1995C32.3944 27.4716 28.1426 23.557 26.0567 19.1114C25.367 17.5681 24.97 15.9226 24.9716 14.2314C24.971 14.1283 24.9703 14.0253 24.9696 13.9191C24.9678 13.5827 24.9674 13.2463 24.9672 12.9099C24.9666 12.6744 24.9659 12.4388 24.9652 12.2032C24.964 11.7116 24.9637 11.2199 24.9638 10.7282C24.9638 10.0984 24.9611 9.4686 24.9578 8.83877C24.9556 8.3532 24.9552 7.86764 24.9553 7.38206C24.9551 7.14977 24.9542 6.91748 24.9527 6.6852C24.9508 6.36103 24.9514 6.03696 24.9525 5.7128C24.9514 5.61721 24.9503 5.52163 24.9492 5.42314C24.9543 4.8678 25.0136 4.53916 25.3906 4.1018C25.8388 3.73896 26.3133 3.57351 26.8543 3.40066C26.9402 3.37241 27.026 3.34416 27.1145 3.31506C27.2995 3.25426 27.4847 3.19385 27.6701 3.13381C28.0649 3.00587 28.459 2.87598 28.8533 2.74619C29.0569 2.67915 29.2606 2.6122 29.4643 2.54535C30.3908 2.24103 31.3144 1.92837 32.237 1.61236C32.4877 1.52657 32.7385 1.44115 32.9893 1.3558C33.7112 1.10969 34.4316 0.86057 35.1478 0.598387C35.2633 0.55664 35.3788 0.514894 35.4978 0.471882C35.7032 0.397239 35.9081 0.321143 36.1123 0.243096C37.3779 -0.214813 38.4218 0.0564759 39.6438 0.486235ZM40.8897 9.35007C40.8145 9.45103 40.7392 9.55199 40.6616 9.656C40.5759 9.76987 40.49 9.88367 40.4041 9.99742C40.3601 10.0559 40.3162 10.1145 40.2708 10.1748C40.0528 10.4625 39.8293 10.7459 39.6057 11.0293C39.5153 11.1441 39.4249 11.2589 39.3345 11.3738C39.2671 11.4593 39.2671 11.4593 39.1983 11.5465C39.0633 11.718 38.9284 11.8895 38.7936 12.0612C38.7492 12.1176 38.7049 12.174 38.6592 12.2322C38.5705 12.3451 38.4819 12.4581 38.3933 12.5711C38.1586 12.8703 37.9228 13.1686 37.6854 13.4657C37.636 13.5279 37.5866 13.59 37.5357 13.654C37.4408 13.7733 37.3455 13.8923 37.2499 14.0111C37.0556 14.256 36.9162 14.447 36.8164 14.7463C36.459 14.5458 36.1696 14.3239 35.8704 14.0444C35.5311 13.7345 35.1885 13.4321 34.8328 13.1411C34.7185 13.0476 34.7185 13.0476 34.602 12.9523C34.0135 12.5399 33.4145 12.509 32.7148 12.5979C32.134 12.825 31.7562 13.2199 31.4377 13.7496C31.2326 14.2404 31.2769 14.8465 31.4011 15.3563C31.7865 16.26 32.785 16.8592 33.5243 17.4567C33.7786 17.6674 34.0222 17.8857 34.2651 18.1094C34.6417 18.4516 35.0296 18.7735 35.4309 19.0859C35.4836 19.1275 35.5362 19.169 35.5905 19.2118C36.213 19.6897 36.7279 19.8146 37.5 19.7268C38.3175 19.539 38.7768 18.7943 39.2578 18.1643C39.3063 18.1011 39.3548 18.0379 39.4048 17.9728C39.6157 17.6976 39.8262 17.4221 40.0356 17.1458C40.4081 16.6556 40.7903 16.1747 41.1804 15.6985C41.6415 15.1356 42.0906 14.5656 42.532 13.9872C42.7944 13.6436 43.0614 13.3038 43.3288 12.9641C43.3739 12.9067 43.419 12.8493 43.4654 12.7901C43.6625 12.5392 43.8604 12.2891 44.0605 12.0406C44.1212 11.9647 44.1819 11.8888 44.2444 11.8105C44.3216 11.7152 44.3216 11.7152 44.4004 11.6179C44.7585 11.0928 44.8011 10.5792 44.7266 9.96118C44.5197 9.25884 44.0401 8.8185 43.4204 8.45972C42.4004 8.21685 41.5604 8.54663 40.8897 9.35007Z" fill="black"/>
</g>
<defs>
<clipPath id="clip0_171_246">
<rect width="50" height="50" fill="white"/>
</clipPath>
</defs>
</svg>
