<svg width="50" height="50" viewBox="0 0 50 50" fill="none" xmlns="http://www.w3.org/2000/svg">
<g clip-path="url(#clip0_78_662)">
<path d="M32.6896 0.452296C33.0182 0.682616 33.3129 0.946056 33.6048 1.22069C33.6597 1.27183 33.7145 1.32297 33.771 1.37566C34.3548 1.92291 34.9225 2.48595 35.4881 3.05184C35.6027 3.16622 35.7174 3.28058 35.8321 3.39492C36.1394 3.70135 36.4464 4.00809 36.7533 4.31491C36.9456 4.50716 37.138 4.69933 37.3304 4.89148C38.0031 5.56332 38.6756 6.23541 39.3479 6.90774C39.9724 7.53237 40.5976 8.15646 41.2229 8.78029C41.7623 9.31839 42.3013 9.85687 42.84 10.3956C43.1607 10.7164 43.4816 11.037 43.8028 11.3572C44.1044 11.6578 44.4055 11.9589 44.7063 12.2604C44.8163 12.3705 44.9264 12.4804 45.0367 12.5901C46.4658 14.012 46.4658 14.012 46.8568 14.917C46.8957 15.0051 46.9346 15.0932 46.9747 15.184C47.3611 16.1753 47.3154 17.518 46.9202 18.4944C46.4391 19.3562 45.8268 20.0374 45.1322 20.7308C45.0254 20.8385 44.9186 20.9462 44.8119 21.054C44.5239 21.3447 44.2349 21.6344 43.9456 21.9238C43.7644 22.1052 43.5834 22.2868 43.4025 22.4685C42.7699 23.1039 42.1365 23.7385 41.5024 24.3724C40.9137 24.9609 40.3266 25.551 39.7404 26.1419C39.2349 26.6512 38.7283 27.1594 38.2208 27.6667C37.9187 27.9688 37.6169 28.2713 37.3164 28.575C37.0334 28.8609 36.7489 29.1453 36.4634 29.4287C36.3597 29.5321 36.2564 29.6361 36.1537 29.7405C35.0909 30.8206 33.975 31.5098 32.4342 31.5735C31.9411 31.5657 31.4929 31.4443 31.022 31.3045C30.7447 31.2464 30.6336 31.2542 30.3712 31.3476C30.1982 31.4799 30.1982 31.4799 30.0373 31.6515C29.974 31.7153 29.9108 31.7792 29.8457 31.845C29.7448 31.9491 29.7448 31.9491 29.6419 32.0553C29.5718 32.1262 29.5018 32.1971 29.4296 32.2702C29.2057 32.4971 28.9827 32.7249 28.7599 32.9529C28.537 33.1804 28.3139 33.4077 28.0902 33.6345C27.951 33.7756 27.8123 33.9172 27.6742 34.0593C27.5793 34.1556 27.5793 34.1556 27.4826 34.2539C27.4273 34.3104 27.3721 34.3669 27.3153 34.4251C26.8887 34.7967 26.4932 34.8081 25.9454 34.7958C25.3332 34.7252 24.984 34.2642 24.5744 33.8493C24.2233 33.5033 23.9507 33.3781 23.4621 33.3435C23.0732 33.3598 22.8469 33.4316 22.5294 33.6552C22.4534 33.7084 22.3774 33.7617 22.2992 33.8165C21.9431 34.0778 21.5931 34.3455 21.2465 34.6191C21.0926 34.7397 20.9388 34.8602 20.7849 34.9808C20.668 35.0726 20.668 35.0726 20.5487 35.1664C20.1677 35.4652 19.7855 35.7624 19.4032 36.0596C19.3295 36.1169 19.2558 36.1742 19.1799 36.2333C18.6607 36.6371 18.1397 37.0384 17.6179 37.439C17.2128 37.7506 16.8097 38.0649 16.4064 38.3789C15.8033 38.8485 15.1991 39.3166 14.5917 39.7808C14.3332 39.9795 14.0781 40.1822 13.8235 40.3858C13.7469 40.4465 13.6704 40.5073 13.5915 40.5699C13.4426 40.6882 13.2941 40.8071 13.1463 40.9269C12.4113 41.5085 11.6632 41.9022 10.7423 42.0898C10.7953 42.1983 10.8483 42.3069 10.9029 42.4187C11.6232 43.9074 12.2086 45.3982 11.6701 47.0642C11.1346 48.2873 10.2193 49.2031 8.98451 49.707C8.89967 49.7419 8.81482 49.7768 8.7274 49.8127C7.68452 50.097 6.31723 50.0473 5.37123 49.5117C4.19419 48.7984 3.39753 47.8149 3.02748 46.4844C2.91181 45.4598 2.99775 44.4996 3.41811 43.5547C3.44277 43.4966 3.46742 43.4385 3.49283 43.3786C3.79462 42.6705 4.12179 42.0002 4.54955 41.3586C5.25535 40.4218 5.25535 40.4218 5.44486 39.3261C5.3176 38.9847 5.16132 38.6941 4.98061 38.3789C4.6977 37.136 4.91861 35.8801 5.55472 34.7824C5.98761 34.1351 6.47857 33.5307 6.96406 32.9224C7.18521 32.6442 7.40143 32.3625 7.61733 32.0801C8.29112 31.2026 8.97197 30.3306 9.65171 29.4578C10.2896 28.6385 10.9268 27.8189 11.5583 26.9947C11.7582 26.7347 11.9605 26.4766 12.1633 26.2188C12.2544 26.1027 12.2544 26.1027 12.3474 25.9842C12.4661 25.833 12.5851 25.682 12.7044 25.5314C13.502 24.5664 13.502 24.5664 13.7254 23.3833C13.6295 22.9544 13.3779 22.6805 13.0861 22.3633C12.9619 22.2209 12.8378 22.0785 12.7138 21.936C12.6567 21.8728 12.5997 21.8096 12.541 21.7445C12.2955 21.4565 12.284 21.2457 12.2743 20.874C12.2688 20.7373 12.2688 20.7373 12.2632 20.5978C12.3629 19.9138 12.9436 19.4657 13.4241 19.0166C13.5662 18.8803 13.7083 18.7438 13.8502 18.6071C14.0727 18.3936 14.2959 18.1811 14.5215 17.9708C14.7401 17.7665 14.955 17.5588 15.1697 17.3504C15.2378 17.2884 15.3059 17.2264 15.3761 17.1626C15.5599 16.981 15.7011 16.8308 15.8205 16.6016C15.8183 16.2824 15.7348 16.0198 15.6251 15.7226C15.3315 14.3423 15.649 13.0879 16.4064 11.9141C16.7414 11.5126 17.1079 11.1466 17.4794 10.7794C17.5877 10.6707 17.6958 10.5618 17.8039 10.4528C18.0954 10.1595 18.3884 9.86779 18.6817 9.57639C18.9898 9.26985 19.2967 8.96206 19.6039 8.65446C20.1195 8.13836 20.6362 7.62326 21.1534 7.10875C21.7497 6.51556 22.3445 5.92082 22.9384 5.32523C23.512 4.75008 24.0867 4.17604 24.6619 3.6025C24.9056 3.35939 25.149 3.11591 25.3921 2.87211C25.6788 2.58464 25.9665 2.29817 26.2549 2.01241C26.36 1.90796 26.4648 1.80318 26.5693 1.69804C28.1248 0.133232 30.6123 -0.882884 32.6896 0.452296ZM28.8275 3.76439C28.7382 3.85297 28.6489 3.94154 28.557 4.0328C28.4598 4.13021 28.3626 4.22764 28.2654 4.32507C28.1618 4.42829 28.0581 4.53146 27.9544 4.63459C27.6739 4.91378 27.394 5.19359 27.1143 5.47355C26.8805 5.70745 26.6464 5.94105 26.4124 6.17466C25.8603 6.72567 25.3087 7.27721 24.7574 7.82906C24.1889 8.39818 23.6195 8.96639 23.0496 9.53417C22.5599 10.0221 22.0708 10.5107 21.5821 10.9997C21.2905 11.2915 20.9986 11.5832 20.7061 11.8743C20.4313 12.1478 20.1573 12.4221 19.8837 12.6969C19.7833 12.7976 19.6826 12.898 19.5816 12.9982C19.4438 13.135 19.3069 13.2728 19.1701 13.4107C19.0932 13.4875 19.0164 13.5643 18.9372 13.6435C18.6461 13.9916 18.5147 14.3232 18.5487 14.7766C18.7084 15.7609 19.8525 16.5471 20.5355 17.2307C20.656 17.3517 20.7766 17.4728 20.8971 17.5938C21.2225 17.9205 21.5482 18.2468 21.874 18.5731C22.0777 18.7771 22.2813 18.9811 22.4849 19.1852C23.1226 19.8241 23.7604 20.4629 24.3985 21.1014C25.1343 21.8376 25.8695 22.5745 26.6042 23.312C27.173 23.883 27.7424 24.4534 28.3123 25.0233C28.6523 25.3635 28.9921 25.7038 29.3313 26.0448C29.6498 26.3649 29.969 26.6843 30.2888 27.0033C30.406 27.1204 30.523 27.2378 30.6397 27.3555C30.799 27.516 30.9591 27.6756 31.1195 27.8349C31.2089 27.9245 31.2983 28.014 31.3904 28.1063C31.7503 28.4139 32.0759 28.5573 32.5502 28.5217C32.9055 28.4651 33.0989 28.375 33.3636 28.1324C33.4651 28.0394 33.4651 28.0395 33.5687 27.9446C33.9872 27.5456 34.3984 27.1396 34.8071 26.7306C34.9069 26.6311 35.0068 26.5316 35.1067 26.4321C35.3756 26.164 35.6443 25.8956 35.9128 25.6271C36.0808 25.4592 36.2489 25.2913 36.4169 25.1235C37.0037 24.5376 37.5903 23.9514 38.1766 23.365C38.7227 22.8189 39.2693 22.2733 39.8162 21.728C40.2866 21.2588 40.7567 20.7893 41.2265 20.3194C41.5067 20.0392 41.787 19.7591 42.0678 19.4794C42.3313 19.2169 42.5943 18.9538 42.857 18.6904C42.9534 18.5939 43.0501 18.4975 43.1468 18.4013C43.2789 18.27 43.4103 18.1381 43.5416 18.0061C43.6154 17.9324 43.6891 17.8588 43.765 17.7829C44.1259 17.3733 44.2071 17.0121 44.1858 16.4739C44.1354 16.1794 44.0727 16.0803 43.8713 15.8649C43.8088 15.7976 43.7463 15.7302 43.6819 15.6609C43.2063 15.1715 42.7272 14.6861 42.2442 14.204C42.1222 14.0819 42.0002 13.9598 41.8782 13.8376C41.549 13.5079 41.2195 13.1786 40.8899 12.8493C40.5446 12.5042 40.1995 12.1589 39.8544 11.8137C39.2756 11.2347 38.6966 10.6559 38.1175 10.0773C37.4475 9.40776 36.7778 8.73792 36.1083 8.06789C35.5331 7.49221 34.9576 6.91672 34.382 6.34139C34.0384 5.99791 33.6948 5.65436 33.3514 5.31064C33.0292 4.98811 32.7067 4.66582 32.384 4.34372C32.2655 4.22526 32.147 4.10672 32.0285 3.9881C31.8674 3.82673 31.706 3.66566 31.5446 3.50466C31.4542 3.41431 31.3638 3.32395 31.2706 3.23086C30.9698 2.94712 30.8004 2.91081 30.3956 2.89916C30.3136 2.89551 30.2315 2.89186 30.1469 2.8881C29.6026 2.97384 29.2058 3.387 28.8275 3.76439ZM17.6809 19.0269C17.5995 19.1088 17.5182 19.1906 17.4345 19.2749C17.3466 19.363 17.2588 19.4511 17.1684 19.5419C17.0751 19.636 16.9818 19.7301 16.8886 19.8242C16.7949 19.9183 16.7013 20.0124 16.6076 20.1065C16.3776 20.3377 16.1477 20.5691 15.9181 20.8008C16.2942 21.2521 16.6853 21.6765 17.1064 22.0859C17.2189 22.1967 17.3314 22.3076 17.4438 22.4184C17.6183 22.5899 17.7931 22.7612 17.9684 22.932C18.1395 23.0989 18.3096 23.2668 18.4797 23.4348C18.5319 23.4852 18.5841 23.5356 18.6378 23.5875C18.9983 23.9455 19.2797 24.3086 19.375 24.8169C19.3678 25.3919 19.2339 25.7748 18.8295 26.2024C18.3567 26.4861 17.9471 26.4918 17.4196 26.4099C17.0047 26.2332 16.8103 26.0112 16.504 25.6836C16.4396 25.6836 16.3751 25.6836 16.3087 25.6836C16.2024 25.8358 16.1042 25.9937 16.0097 26.1536C15.6996 26.6551 15.3556 27.1018 14.9774 27.5532C14.6988 27.8892 14.4334 28.2344 14.1684 28.5812C13.8101 29.0496 13.4485 29.5153 13.0861 29.9805C12.694 30.4839 12.3028 30.988 11.9142 31.4941C11.5335 31.9899 11.1506 32.4839 10.7667 32.9773C10.6806 33.088 10.6806 33.088 10.5928 33.201C10.293 33.5864 9.9926 33.9713 9.69138 34.3555C9.40439 34.7218 9.11933 35.0895 8.83565 35.4584C8.71108 35.6193 8.5844 35.7785 8.45732 35.9375C8.05299 36.4656 7.83589 36.9202 7.9103 37.5976C8.10565 38.306 8.60567 38.7293 9.21035 39.1052C9.73975 39.216 10.2092 39.1955 10.6897 38.9294C10.9187 38.7648 11.14 38.5935 11.3584 38.4151C11.5437 38.265 11.7318 38.119 11.9207 37.9734C12.2978 37.6824 12.6733 37.3896 13.0485 37.0961C13.4288 36.7988 13.8098 36.5024 14.1908 36.206C14.2645 36.1487 14.3382 36.0913 14.4142 36.0322C14.9334 35.6285 15.4544 35.2272 15.9761 34.8267C16.3812 34.515 16.7843 34.2007 17.1876 33.8867C17.8444 33.3755 18.5022 32.8658 19.1629 32.3596C19.3654 32.204 19.5674 32.0476 19.7694 31.8912C19.92 31.7751 20.0705 31.659 20.2211 31.543C20.3276 31.4602 20.3276 31.4602 20.4363 31.3759C20.5033 31.3242 20.5704 31.2726 20.6396 31.2195C20.699 31.1735 20.7584 31.1276 20.8196 31.0802C21.0017 30.9532 21.1862 30.856 21.3869 30.7617C21.2703 30.4862 21.1492 30.3256 20.9413 30.1025C20.6514 29.7629 20.5897 29.445 20.6056 29.0039C20.702 28.5572 20.8731 28.2572 21.1915 27.9297C21.5788 27.7038 22.0228 27.6449 22.4611 27.7344C23.0297 28.0175 23.4321 28.3731 23.8737 28.8254C23.9399 28.892 24.0061 28.9587 24.0743 29.0273C24.284 29.2386 24.4925 29.4508 24.7011 29.6631C24.8437 29.8072 24.9865 29.9513 25.1293 30.0953C25.4776 30.4469 25.8251 30.7993 26.172 31.1523C26.5318 30.8479 26.8895 30.5452 27.2214 30.2101C27.2809 30.1503 27.3404 30.0905 27.4017 30.0289C27.4612 29.9686 27.5206 29.9083 27.5819 29.8462C27.644 29.7836 27.7062 29.7211 27.7702 29.6566C27.9213 29.5044 28.0721 29.3518 28.2228 29.1992C27.7404 28.6175 27.2192 28.0841 26.6844 27.5505C26.5892 27.4552 26.494 27.3598 26.3989 27.2645C26.1423 27.0074 25.8854 26.7507 25.6284 26.4941C25.3592 26.2251 25.0902 25.9558 24.8211 25.6866C24.3701 25.2354 23.9188 24.7844 23.4674 24.3334C22.945 23.8116 22.4229 23.2893 21.9011 22.7669C21.4526 22.318 21.004 21.8694 20.5552 21.4208C20.2873 21.1531 20.0195 20.8852 19.7518 20.6172C19.5007 20.3659 19.2494 20.1148 18.9979 19.8638C18.8611 19.7272 18.7246 19.5904 18.5881 19.4536C18.5074 19.3732 18.4268 19.2929 18.3437 19.2101C18.2381 19.1045 18.2381 19.1045 18.1303 18.9967C17.8974 18.7816 17.9181 18.8035 17.6809 19.0269ZM7.32436 42.5781C7.149 42.9095 6.97418 43.2412 6.79946 43.573C6.74986 43.6667 6.70026 43.7604 6.64916 43.857C6.60132 43.9479 6.55348 44.0389 6.5042 44.1326C6.46022 44.216 6.41624 44.2993 6.37092 44.3852C6.09736 44.9371 5.96684 45.3802 6.05483 45.9961C6.26884 46.4241 6.4847 46.6993 6.93373 46.875C7.42624 46.9418 7.79611 46.931 8.24599 46.7102C8.64066 46.354 8.77346 46.1486 8.82888 45.6119C8.82074 44.9927 8.54111 44.4987 8.2643 43.9575C8.2147 43.8568 8.1651 43.7561 8.114 43.6523C7.92981 43.281 7.74977 42.9233 7.51967 42.5781C7.45522 42.5781 7.39076 42.5781 7.32436 42.5781Z" fill="black"/>
<path d="M31.0647 7.08133C31.539 7.35933 31.9043 7.74219 32.2893 8.1302C32.3709 8.21123 32.4524 8.29226 32.5364 8.37575C32.8047 8.64274 33.0719 8.91078 33.339 9.17891C33.5255 9.36535 33.7122 9.55162 33.8989 9.73791C34.2895 10.128 34.6795 10.5187 35.0691 10.9097C35.5188 11.361 35.9696 11.8113 36.4209 12.261C36.8094 12.6481 37.1972 13.0358 37.5846 13.4239C37.8156 13.6554 38.0468 13.8865 38.2784 14.1173C38.5365 14.3746 38.7936 14.6329 39.0505 14.8914C39.1269 14.9672 39.2033 15.043 39.282 15.1211C39.7583 15.603 40.1009 15.9907 40.1796 16.687C40.1304 17.6491 39.4411 18.2327 38.7696 18.8476C38.717 18.8925 38.6643 18.9375 38.61 18.9837C38.0625 19.4505 37.5551 19.9543 37.0496 20.4656C36.8971 20.6199 36.7443 20.7737 36.5913 20.9275C36.1571 21.3641 35.7234 21.8012 35.2902 22.2388C35.0237 22.5079 34.7568 22.7764 34.4896 23.0447C34.3884 23.1466 34.2873 23.2486 34.1864 23.3509C34.0458 23.4934 33.9045 23.6353 33.7631 23.7771C33.6431 23.8983 33.6431 23.8983 33.5206 24.0219C33.1724 24.3339 32.9057 24.4433 32.4403 24.4507C32.3611 24.4534 32.2819 24.4562 32.2003 24.4591C31.4437 24.3313 30.932 23.7473 30.4152 23.2264C30.3346 23.1463 30.254 23.0662 30.1709 22.9837C29.9058 22.7199 29.6418 22.455 29.3779 22.1901C29.1935 22.0059 29.009 21.8217 28.8246 21.6376C28.4386 21.2522 28.0532 20.8661 27.6682 20.4797C27.2238 20.0337 26.7783 19.5887 26.3323 19.1443C25.9484 18.7618 25.5651 18.3787 25.1823 17.9951C24.954 17.7664 24.7256 17.538 24.4967 17.3099C24.2416 17.0556 23.9876 16.8004 23.7337 16.5449C23.6582 16.47 23.5827 16.3952 23.505 16.318C23.0174 15.8246 22.6148 15.3774 22.6136 14.6484C22.6117 14.5699 22.6099 14.4913 22.6079 14.4104C22.727 13.7953 23.2475 13.3451 23.6752 12.9191C23.7374 12.8565 23.7995 12.7939 23.8635 12.7293C24.0678 12.5237 24.2728 12.3188 24.4779 12.1139C24.6207 11.9708 24.7635 11.8276 24.9062 11.6843C25.2049 11.3849 25.504 11.0858 25.8034 10.787C26.1869 10.4041 26.5692 10.02 26.9513 9.63567C27.2456 9.33993 27.5406 9.04487 27.8358 8.75C27.9771 8.60866 28.1181 8.46709 28.259 8.32528C28.4557 8.12729 28.6534 7.93025 28.8514 7.73343C28.9093 7.67478 28.9672 7.61613 29.0269 7.55571C29.6152 6.97476 30.2759 6.69651 31.0647 7.08133ZM30.1018 10.7928C29.9983 10.8969 29.9983 10.8969 29.8928 11.0031C29.8146 11.0813 29.7364 11.1595 29.6558 11.2401C29.5714 11.3255 29.487 11.411 29.4 11.499C29.3136 11.5857 29.2271 11.6724 29.1381 11.7617C28.9081 11.9926 28.6786 12.2238 28.4493 12.4553C28.2154 12.6913 27.9808 12.9267 27.7463 13.1622C27.2861 13.6246 26.8265 14.0875 26.3673 14.5508C26.5258 14.9508 26.8133 15.2182 27.1137 15.5146C27.1699 15.5709 27.2261 15.6272 27.2841 15.6851C27.4696 15.8705 27.6558 16.0552 27.8421 16.2399C27.971 16.3685 28.0999 16.4971 28.2288 16.6258C28.5677 16.964 28.9073 17.3016 29.2469 17.6391C29.5936 17.9838 29.9396 18.3289 30.2858 18.6741C30.9647 19.351 31.6443 20.0272 32.3243 20.7031C32.6439 20.5632 32.8548 20.3918 33.0999 20.145C33.1742 20.0707 33.2485 19.9964 33.325 19.9199C33.4042 19.8397 33.4833 19.7595 33.5649 19.677C33.6467 19.5949 33.7285 19.5128 33.8128 19.4282C34.0739 19.166 34.3344 18.9031 34.5948 18.6401C34.7718 18.4622 34.9488 18.2843 35.1258 18.1064C35.5597 17.6704 35.993 17.2339 36.4259 16.7969C36.2673 16.3979 35.9816 16.1297 35.6826 15.833C35.6267 15.7767 35.5708 15.7205 35.5132 15.6625C35.3286 15.4771 35.1433 15.2924 34.958 15.1077C34.8295 14.9791 34.7011 14.8505 34.5727 14.7219C34.3037 14.4526 34.0344 14.1837 33.7649 13.9151C33.4188 13.5701 33.0735 13.2242 32.7285 12.878C32.4636 12.6124 32.1983 12.3473 31.9328 12.0823C31.8052 11.9549 31.6778 11.8273 31.5506 11.6996C31.3731 11.5217 31.1951 11.3444 31.0168 11.1672C30.9375 11.0873 30.9375 11.0873 30.8566 11.0058C30.5121 10.6151 30.5121 10.6151 30.1018 10.7928Z" fill="black"/>
</g>
<defs>
<clipPath id="clip0_78_662">
<rect width="50" height="50" fill="white"/>
</clipPath>
</defs>
</svg>
