<svg width="50" height="50" viewBox="0 0 50 50" fill="none" xmlns="http://www.w3.org/2000/svg">
<g clip-path="url(#clip0_55_505)">
<path d="M12.6832 12.8478C12.7655 12.8439 12.8478 12.84 12.9327 12.8359C13.3722 12.9315 13.6078 13.2815 13.8476 13.6449C13.9011 13.7408 13.9547 13.8366 14.0099 13.9353C14.0713 14.0441 14.1327 14.1528 14.1959 14.2648C14.2613 14.3824 14.3268 14.5001 14.3922 14.6178C14.4612 14.7406 14.5304 14.8633 14.5997 14.986C14.7421 15.2384 14.8841 15.4909 15.026 15.7435C15.3372 16.2966 15.6551 16.8457 15.973 17.3949C16.0942 17.6047 16.2153 17.8145 16.3365 18.0243C16.3963 18.1278 16.4561 18.2313 16.5178 18.338C16.8227 18.8658 17.1272 19.3938 17.4317 19.9217C17.5538 20.1333 17.6759 20.3449 17.7979 20.5565C18.5303 21.826 18.5303 21.826 18.7135 22.1435C18.8355 22.3549 18.9575 22.5663 19.0795 22.7778C19.386 23.3091 19.6924 23.8404 19.9986 24.372C20.5314 25.2966 21.0646 26.2209 21.6034 27.142C21.8293 27.5281 22.0544 27.9147 22.2794 28.3014C22.4066 28.5198 22.534 28.738 22.6617 28.9562C24.2199 31.6217 25.4366 34.0996 25.4273 37.2557C25.4272 37.3584 25.4272 37.3584 25.4272 37.4632C25.4231 38.6178 25.3254 39.7083 25.0001 40.8202C24.9695 40.9266 24.9695 40.9266 24.9382 41.0351C24.3313 43.0737 23.2288 44.7483 21.7774 46.2889C21.7189 46.3538 21.6603 46.4186 21.6 46.4854C20.5347 47.6198 18.6391 49.1065 17.0411 49.2491C16.6737 49.2163 16.5005 49.1489 16.211 48.9256C16.0143 48.6305 15.9828 48.5431 15.973 48.2054C15.9691 48.1322 15.9652 48.0589 15.9612 47.9834C16.0447 47.6317 16.2288 47.4943 16.504 47.2655C16.7428 47.1243 16.9904 47.0086 17.2425 46.8932C18.3664 46.3528 19.3128 45.6868 20.2149 44.8241C20.2748 44.7703 20.3348 44.7166 20.3965 44.6612C22.0527 43.1227 23.1102 40.59 23.2639 38.358C23.3131 36.9202 23.2802 35.5578 22.8516 34.1796C22.8014 34.0024 22.8014 34.0024 22.7502 33.8217C22.3312 32.5377 21.5917 31.393 20.9101 30.235C20.6521 29.7965 20.3986 29.3556 20.1451 28.9146C19.9642 28.6 19.7827 28.2857 19.6011 27.9715C19.2358 27.3392 18.8708 26.7067 18.5059 26.0741C18.3839 25.8625 18.2618 25.6509 18.1397 25.4393C15.9425 21.6307 15.9425 21.6307 15.7591 21.313C15.6378 21.1026 15.5164 20.8923 15.3951 20.682C15.1121 20.1916 14.8292 19.7011 14.5467 19.2104C14.4474 19.0379 14.3481 18.8655 14.2487 18.693C14.1247 18.4777 14.0007 18.2623 13.8768 18.0468C13.558 17.4936 13.234 16.9449 12.8974 16.4023C12.793 16.2108 12.793 16.2108 12.793 16.0155C12.7286 16.0155 12.6641 16.0155 12.5977 16.0155C12.5711 16.0858 12.5444 16.156 12.517 16.2284C12.4043 16.4992 12.2757 16.7474 12.1323 17.0031C12.0783 17.0996 12.0243 17.1961 11.9687 17.2955C11.9104 17.3988 11.8521 17.5021 11.7921 17.6085C11.7312 17.7168 11.6703 17.825 11.6076 17.9366C11.0861 18.8611 10.5527 19.7785 10.0159 20.6942C9.65514 21.31 9.29807 21.9279 8.94173 22.5462C8.88093 22.6517 8.82014 22.7572 8.7575 22.8659C8.63428 23.0797 8.51107 23.2936 8.38788 23.5075C8.08242 24.0376 7.77658 24.5676 7.47078 25.0975C7.34871 25.3091 7.22664 25.5207 7.10457 25.7323C6.86043 26.1555 6.61629 26.5786 6.37215 27.0018C6.31166 27.1067 6.25117 27.2115 6.18885 27.3195C6.06742 27.53 5.94599 27.7405 5.82455 27.951C5.54259 28.4396 5.26067 28.9283 4.97889 29.4171C4.88033 29.5881 4.78176 29.759 4.68319 29.93C4.56046 30.1428 4.43775 30.3557 4.31507 30.5686C4.25874 30.6662 4.2024 30.7639 4.14436 30.8646C4.08926 30.9604 4.03415 31.0562 3.97738 31.1549C3.86207 31.3533 3.7452 31.5508 3.627 31.7475C3.2808 32.3262 2.98255 32.89 2.75887 33.5265C2.71646 33.6467 2.71646 33.6467 2.6732 33.7693C1.74612 36.4709 1.90102 39.4604 3.14301 42.0394C4.30863 44.2954 6.06527 45.9504 8.36273 46.9945C8.78031 47.1891 9.08343 47.3951 9.37508 47.7538C9.45818 48.0552 9.43598 48.327 9.37508 48.6327C9.16864 48.9744 9.07065 49.0922 8.69148 49.2186C8.10326 49.2707 7.72179 49.1321 7.20833 48.8768C7.13568 48.8415 7.06303 48.8062 6.98817 48.7698C3.97778 47.2724 1.67077 44.6246 0.598221 41.4488C0.490772 41.1106 0.390163 40.7709 0.293045 40.4296C0.257671 40.3082 0.222298 40.1868 0.185852 40.0618C-0.277949 38.1031 -0.170538 35.7126 0.390701 33.7889C0.410591 33.719 0.430481 33.6491 0.450974 33.5771C1.01632 31.6551 2.13035 29.9516 3.139 28.2388C3.44436 27.7182 3.74551 27.1952 4.04671 26.6722C4.10747 26.5668 4.16823 26.4614 4.23084 26.3527C4.3541 26.1388 4.47733 25.9249 4.60055 25.711C4.90601 25.1809 5.21185 24.6509 5.51765 24.121C5.63973 23.9094 5.7618 23.6978 5.88387 23.4862C6.61629 22.2167 7.34871 20.9471 8.08113 19.6776C8.14157 19.5728 8.20201 19.4681 8.26428 19.3601C8.38618 19.1488 8.50809 18.9376 8.63002 18.7263C8.93797 18.1927 9.24566 17.6589 9.55284 17.1248C9.85636 16.5972 10.1606 16.0701 10.4656 15.5434C10.5864 15.3348 10.707 15.1262 10.8274 14.9174C11.0018 14.6157 11.1771 14.3146 11.3526 14.0135C11.4051 13.9225 11.4575 13.8314 11.5115 13.7376C11.5603 13.6545 11.6091 13.5713 11.6593 13.4856C11.7016 13.4128 11.744 13.3399 11.7876 13.2649C12.0338 12.9164 12.2796 12.8582 12.6832 12.8478Z" fill="black"/>
<path d="M40.2221 9.91808C40.3045 9.91417 40.3868 9.91027 40.4716 9.90625C40.9112 10.0018 41.1467 10.3518 41.3865 10.7152C41.4401 10.8111 41.4937 10.9069 41.5489 11.0056C41.6103 11.1144 41.6716 11.2231 41.7349 11.3351C41.8003 11.4528 41.8657 11.5704 41.9311 11.6881C42.0002 11.8109 42.0694 11.9337 42.1386 12.0564C42.281 12.3087 42.4231 12.5612 42.565 12.8139C42.8762 13.3669 43.1941 13.916 43.5119 14.4652C43.6331 14.675 43.7543 14.8848 43.8755 15.0946C43.9353 15.1981 43.9951 15.3016 44.0567 15.4083C44.3616 15.9361 44.6661 16.4641 44.9707 16.9921C45.0927 17.2036 45.2148 17.4152 45.3369 17.6268C45.581 18.05 45.8252 18.4732 46.0693 18.8963C46.1298 19.0012 46.1903 19.106 46.2526 19.214C46.3742 19.4247 46.4957 19.6355 46.6171 19.8463C46.9294 20.3883 47.2429 20.9295 47.5582 21.4697C49.3302 24.5104 50.6934 27.4234 49.7958 31.043C49.0861 33.579 47.4118 35.7887 45.1233 37.097C44.4319 37.4759 43.7258 37.7647 42.9687 37.9881C42.872 38.0192 42.7754 38.0503 42.6758 38.0824C40.1731 38.7612 37.4929 38.264 35.2554 37.0486C33.0524 35.7211 31.4892 33.7147 30.7617 31.2499C30.7306 31.1532 30.6995 31.0565 30.6675 30.9569C29.8437 27.9199 30.787 25.1184 32.2815 22.5096C32.5216 22.0929 32.7639 21.6775 33.0068 21.2623C33.1581 21.0036 33.3087 20.7446 33.4594 20.4855C33.6831 20.1016 33.9072 19.7178 34.1316 19.3343C34.6762 18.4024 35.214 17.4666 35.7528 16.5313C36.1186 15.8965 36.4848 15.2619 36.851 14.6274C37.134 14.1369 37.417 13.6464 37.6995 13.1557C37.7987 12.9832 37.8981 12.8108 37.9974 12.6383C38.1215 12.423 38.2454 12.2076 38.3693 11.9921C38.5346 11.7053 38.7008 11.4189 38.8672 11.1327C38.9206 11.0393 38.9741 10.9459 39.0292 10.8496C39.0804 10.7618 39.1315 10.6739 39.1842 10.5834C39.229 10.5056 39.2739 10.4278 39.3201 10.3476C39.5675 9.99134 39.8107 9.92871 40.2221 9.91808ZM40.1367 13.0858C40.097 13.1553 40.0574 13.2249 40.0165 13.2965C39.1121 14.8817 38.204 16.4648 37.2909 18.045C36.9253 18.6778 36.5602 19.311 36.1951 19.9441C35.8829 20.4853 35.5705 21.0265 35.2577 21.5674C34.8976 22.1903 34.5384 22.8137 34.1797 23.4374C34.133 23.5183 34.0864 23.5992 34.0383 23.6825C32.7934 25.8455 32.0635 27.9461 32.666 30.4686C33.0102 31.5536 33.5331 32.6293 34.2773 33.496C34.3258 33.5583 34.3742 33.6206 34.4242 33.6848C35.7112 35.2757 37.69 36.09 39.6789 36.3097C41.7958 36.4322 43.8582 35.7051 45.4518 34.3169C46.9131 32.978 47.887 31.1302 47.9793 29.1392C48.0339 27.2403 47.6106 25.7666 46.6919 24.1149C46.6456 24.0313 46.5994 23.9477 46.5518 23.8616C46.0754 23.0053 45.5804 22.16 45.0847 21.3149C44.7204 20.6934 44.3599 20.0698 44.0002 19.4457C43.9091 19.2875 43.9091 19.2875 43.8161 19.1261C43.6928 18.9123 43.5696 18.6984 43.4464 18.4845C43.1409 17.9543 42.8351 17.4244 42.5293 16.8944C42.4091 16.6861 42.2889 16.4778 42.1688 16.2695C42.1086 16.1652 42.0484 16.0609 41.9864 15.9534C41.4349 14.9975 40.8835 14.0417 40.332 13.0858C40.2675 13.0858 40.2031 13.0858 40.1367 13.0858Z" fill="black"/>
<path d="M24.988 -0.0428619C25.0703 -0.0467644 25.1527 -0.0506668 25.2375 -0.0546875C25.6771 0.0408414 25.9126 0.390871 26.1524 0.754291C26.206 0.850128 26.2596 0.945966 26.3148 1.04471C26.3761 1.15343 26.4375 1.26214 26.5008 1.37416C26.5662 1.49182 26.6316 1.60949 26.697 1.72716C26.7661 1.84996 26.8352 1.97272 26.9045 2.09542C27.0469 2.34777 27.189 2.60029 27.3309 2.85292C27.6421 3.40593 27.96 3.95505 28.2778 4.50426C28.3982 4.71279 28.5187 4.92133 28.6391 5.12987C28.8247 5.45122 29.0105 5.77255 29.1963 6.09384C29.5679 6.73663 29.9388 7.37984 30.3089 8.02351C30.4523 8.27172 30.5971 8.51903 30.7425 8.76604C31.7694 10.5245 32.1771 12.4749 31.7385 14.5018C31.325 15.8035 30.6646 16.8312 29.6877 17.7733C29.6259 17.8381 29.5641 17.903 29.5004 17.9698C28.2078 19.2396 26.4236 19.5798 24.6863 19.5651C22.7598 19.5194 21.2454 18.7547 19.9221 17.3827C19.8573 17.3209 19.7924 17.2591 19.7256 17.1954C18.4558 15.9027 18.1156 14.1185 18.1303 12.3812C18.1827 10.1751 19.4259 8.43886 20.5092 6.58298C20.8199 6.04983 21.1277 5.51502 21.4358 4.98033C21.5567 4.77077 21.6776 4.56122 21.7986 4.35167C22.021 3.96613 22.2433 3.5805 22.4653 3.19474C22.5646 3.02228 22.664 2.84984 22.7633 2.6774C22.8873 2.46204 23.0113 2.24664 23.1352 2.03119C23.3005 1.74432 23.4667 1.45799 23.633 1.17174C23.6865 1.07833 23.74 0.984924 23.7951 0.888687C23.8462 0.800819 23.8974 0.712952 23.95 0.622421C23.9949 0.544624 24.0398 0.466827 24.086 0.386673C24.3334 0.0304005 24.5766 -0.0322321 24.988 -0.0428619ZM24.9026 3.12486C24.8629 3.1944 24.8232 3.26393 24.7824 3.33558C24.052 4.61577 23.3204 5.89522 22.5832 7.17149C22.4631 7.37977 22.3429 7.58806 22.2227 7.79634C22.0501 8.09559 21.8773 8.39476 21.704 8.69365C21.543 8.97137 21.3825 9.24938 21.2222 9.52745C21.1752 9.60813 21.1282 9.68882 21.0798 9.77195C20.2904 11.1444 19.9345 12.4671 20.3036 14.0517C20.8109 15.424 21.6506 16.421 22.9494 17.0897C23.0262 17.1304 23.103 17.171 23.1821 17.2129C24.2289 17.6805 25.6109 17.6605 26.6787 17.2728C27.9075 16.7127 28.7751 15.9495 29.3948 14.746C29.4557 14.6308 29.4557 14.6308 29.518 14.5133C29.9479 13.5509 29.98 12.1866 29.6572 11.1815C29.5762 10.9994 29.4875 10.8208 29.3948 10.6444C29.3611 10.5796 29.3275 10.5149 29.2929 10.4482C28.6738 9.26571 27.991 8.11756 27.3157 6.96664C26.9274 6.30429 26.5433 5.63946 26.1599 4.97423C26.0986 4.86797 26.0373 4.7617 25.9742 4.65222C25.6811 4.14366 25.3886 3.63477 25.0979 3.12486C25.0334 3.12486 24.969 3.12486 24.9026 3.12486Z" fill="black"/>
<path d="M18.2616 33.3986C19.0161 33.9016 19.3161 35.045 19.4932 35.8864C19.7832 37.7726 19.4845 39.602 18.4569 41.2111C18.1376 41.6404 17.7671 42.0123 17.3827 42.383C17.29 42.4802 17.29 42.4802 17.1954 42.5795C16.1001 43.6554 14.4915 44.1488 12.9943 44.1896C12.9237 44.1927 12.8532 44.1957 12.7805 44.1988C12.4025 44.1988 12.2225 44.1525 11.9174 43.9241C11.7074 43.6372 11.6522 43.5141 11.6576 43.1642C11.6564 43.0837 11.6551 43.0031 11.6538 42.9201C11.7512 42.5535 11.9051 42.4149 12.2069 42.1877C12.4946 42.1055 12.7825 42.0808 13.0797 42.0534C14.412 41.8842 15.4994 41.351 16.4062 40.3322C16.6391 40.0211 16.8219 39.7046 16.9921 39.3557C17.0324 39.2791 17.0727 39.2026 17.1142 39.1237C17.5678 38.1157 17.57 36.7295 17.1996 35.6935C17.1041 35.4755 17.0005 35.2692 16.8845 35.0615C16.7163 34.6818 16.7243 34.291 16.7968 33.8869C17.1843 33.3901 17.6415 33.2291 18.2616 33.3986Z" fill="black"/>
<path d="M43.2616 26.0742C43.6925 26.3755 43.9517 26.8544 44.0943 27.3525C44.303 28.637 44.2151 29.8545 43.4386 30.9326C42.7183 31.7875 41.8816 32.3344 40.758 32.4623C40.2442 32.4827 39.8708 32.4912 39.4164 32.2388C39.1894 31.8023 39.1649 31.4383 39.2577 30.957C39.4642 30.5975 39.6438 30.4965 40.0405 30.3886C40.2642 30.3401 40.4883 30.2929 40.7126 30.2471C41.2391 30.1231 41.5028 29.9098 41.8334 29.4922C42.0841 29.0105 42.056 28.4571 41.9921 27.9297C41.9288 27.7986 41.8637 27.6683 41.7967 27.5391C41.7402 27.2048 41.7368 26.8965 41.7967 26.5625C42.1831 26.0672 42.6428 25.9023 43.2616 26.0742Z" fill="black"/>
<path d="M13.1835 48.0468C13.4887 48.2299 13.4887 48.2299 13.6718 48.535C13.7683 49.0259 13.7476 49.3852 13.4887 49.8168C13.057 50.0758 12.6978 50.0964 12.2069 49.9999C11.9017 49.8168 11.9017 49.8168 11.7186 49.5116C11.6221 49.0208 11.6428 48.6615 11.9017 48.2299C12.3334 47.9709 12.6926 47.9502 13.1835 48.0468Z" fill="black"/>
</g>
<defs>
<clipPath id="clip0_55_505">
<rect width="50" height="50" fill="white"/>
</clipPath>
</defs>
</svg>
