<svg width="40" height="40" viewBox="0 0 40 40" fill="none" xmlns="http://www.w3.org/2000/svg">
<g clip-path="url(#clip0_156_192)">
<path d="M32.6466 -0.0048728C32.7152 -0.00452033 32.7839 -0.00416785 32.8547 -0.00380469C33.0229 -0.00289025 33.1912 -0.00148926 33.3594 1.00082e-05C32.9699 0.470835 32.5467 0.899745 32.1128 1.32966C32.0383 1.4038 31.9639 1.47796 31.8894 1.55215C31.6554 1.78532 31.421 2.01817 31.1866 2.25099C30.9134 2.52231 30.6404 2.79377 30.3677 3.06556C30.2587 3.174 30.1495 3.2822 30.0403 3.3904C29.9746 3.45588 29.9089 3.52136 29.8411 3.58882C29.754 3.67534 29.754 3.67534 29.6651 3.76362C29.526 3.89835 29.526 3.89835 29.4532 4.06251C29.4844 4.63904 29.6339 5.14653 29.8157 5.69215C29.8442 5.77866 29.8726 5.86518 29.9019 5.95432C29.962 6.13618 30.0224 6.31791 30.0832 6.49953C30.1758 6.77715 30.2663 7.05537 30.3568 7.33369C30.4156 7.51083 30.4745 7.68794 30.5335 7.865C30.5603 7.94793 30.5871 8.03086 30.6147 8.11631C30.8137 8.70925 30.8137 8.70925 31.2501 9.14064C31.5574 9.27721 31.8721 9.38261 32.1918 9.4864C32.2836 9.51706 32.3754 9.54772 32.47 9.57931C32.7133 9.6602 32.9569 9.73997 33.2007 9.81934C33.3495 9.86812 33.4981 9.91767 33.6466 9.96753C33.9329 10.0636 34.2195 10.1585 34.5063 10.253C34.5945 10.2825 34.6828 10.3121 34.7737 10.3425C35.3862 10.5618 35.3862 10.5618 36.0157 10.5469C36.3021 10.3379 36.5476 10.095 36.7969 9.84376C36.8591 9.78299 36.9213 9.72222 36.9854 9.6596C37.1766 9.47181 37.3655 9.28196 37.5541 9.0915C37.6222 9.02313 37.6902 8.95477 37.7604 8.88433C37.9749 8.66885 38.1892 8.45311 38.4034 8.23731C38.6881 7.95052 38.9731 7.66401 39.2582 7.37763C39.3237 7.31148 39.3892 7.24534 39.4567 7.17718C39.5467 7.08674 39.5467 7.08674 39.6386 6.99447C39.6916 6.94107 39.7446 6.88768 39.7992 6.83267C39.9219 6.71876 39.9219 6.71876 40.0001 6.71876C40.0798 8.87972 39.4797 10.6157 38.0021 12.2274C36.7462 13.5392 34.9164 14.275 33.1127 14.3204C32.5053 14.3237 31.9251 14.2426 31.3282 14.1406C30.9621 14.0838 30.9621 14.0838 30.6441 14.2412C30.2453 14.6012 29.8596 14.9724 29.4796 15.3522C29.3817 15.4496 29.3817 15.4496 29.2819 15.5489C29.1025 15.7274 28.9233 15.9061 28.7441 16.0849C28.5503 16.2783 28.3562 16.4715 28.1621 16.6647C27.6948 17.1301 27.2279 17.5959 26.761 18.0618C26.6291 18.1934 26.4972 18.325 26.3652 18.4566C25.5452 19.2747 24.7252 20.0929 23.9056 20.9116C23.7163 21.1007 23.5269 21.2898 23.3376 21.4789C23.2906 21.5259 23.2435 21.5729 23.195 21.6213C22.4311 22.3842 21.6665 23.1463 20.9014 23.908C20.1154 24.6907 19.3301 25.4742 18.5456 26.2583C18.1053 26.6984 17.6646 27.1381 17.2232 27.5769C16.8477 27.9503 16.4729 28.3242 16.0989 28.6991C15.9081 28.8903 15.717 29.0812 15.525 29.2712C15.3171 29.4773 15.1105 29.6845 14.9042 29.8921C14.8432 29.9521 14.7821 30.0121 14.7192 30.0738C14.3214 30.4727 14.3214 30.4727 14.2188 31.0156C14.2411 31.2171 14.2411 31.2171 14.2902 31.4154C14.6751 33.3357 14.2597 35.2942 13.1983 36.9238C12.0252 38.5264 10.4217 39.5977 8.45308 39.9624C6.49024 40.2576 4.49497 39.8569 2.89193 38.6745C1.41007 37.5308 0.352071 35.9488 0.0342487 34.0836C-0.218301 31.954 0.224146 29.9718 1.55769 28.2617C1.6622 28.1369 1.76794 28.0132 1.87507 27.8906C1.94305 27.8115 1.94305 27.8115 2.0124 27.7307C3.14121 26.5091 4.92467 25.6968 6.58065 25.6166C6.7749 25.6117 6.96884 25.6102 7.16315 25.6104C7.23206 25.6103 7.30096 25.6101 7.37195 25.61C7.83292 25.6135 8.26548 25.6631 8.71864 25.7495C8.9951 25.7963 9.18559 25.7906 9.45319 25.7031C9.92248 25.3476 10.3341 24.9115 10.749 24.4954C10.8459 24.3987 10.8459 24.3987 10.9447 24.3C11.1224 24.1226 11.2998 23.9451 11.4772 23.7675C11.6691 23.5754 11.8613 23.3835 12.0534 23.1915C12.429 22.8163 12.8044 22.4409 13.1797 22.0654C13.4845 21.7603 13.7895 21.4553 14.0945 21.1504C14.1597 21.0852 14.1597 21.0852 14.2262 21.0187C14.3146 20.9304 14.4029 20.8421 14.4912 20.7538C15.3181 19.9271 16.1448 19.1002 16.9713 18.2732C17.6809 17.5633 18.3907 16.8536 19.1007 16.144C19.9255 15.3196 20.7502 14.495 21.5747 13.6703C21.6626 13.5824 21.7504 13.4946 21.8382 13.4067C21.8814 13.3635 21.9246 13.3203 21.9691 13.2757C22.274 12.9708 22.579 12.6659 22.884 12.3611C23.2552 11.9901 23.6263 11.619 23.9972 11.2477C24.1865 11.0582 24.3758 10.8687 24.5654 10.6794C24.7704 10.4746 24.9752 10.2695 25.18 10.0644C25.2404 10.0041 25.3009 9.94385 25.3632 9.88175C25.4449 9.79974 25.4449 9.79974 25.5282 9.71608C25.5755 9.66873 25.6229 9.62138 25.6716 9.5726C25.888 9.33691 25.8749 9.12893 25.8729 8.81715C25.8573 8.55825 25.8171 8.30791 25.7764 8.05177C25.5223 6.22159 25.9751 4.36226 27.0557 2.86134C28.4457 1.12035 30.3836 -0.0270251 32.6466 -0.0048728ZM27.2247 11.8184C27.1776 11.8657 27.1304 11.9129 27.0818 11.9616C27.0273 12.0157 26.9729 12.0699 26.9167 12.1257C26.8267 12.2164 26.8267 12.2164 26.7348 12.309C26.6712 12.3725 26.6076 12.436 26.542 12.5014C26.3648 12.6783 26.188 12.8557 26.0113 13.0331C25.8209 13.2242 25.6301 13.4148 25.4393 13.6054C25.1087 13.936 24.7783 14.2669 24.4481 14.598C23.9707 15.0767 23.4928 15.5549 23.0149 16.0331C22.2395 16.8088 21.4645 17.5848 20.6897 18.3611C19.9369 19.1153 19.1839 19.8694 18.4307 20.6233C18.3843 20.6697 18.3379 20.7162 18.2901 20.764C18.0574 20.997 17.8246 21.2299 17.5918 21.4629C15.6597 23.3966 13.7281 25.3309 11.7969 27.2656C11.8703 27.3521 11.9438 27.4384 12.0173 27.5247C12.0786 27.5969 12.0786 27.5969 12.1412 27.6705C12.3049 27.8572 12.4782 28.0302 12.6563 28.2031C12.897 28.0958 13.0618 27.9734 13.2476 27.7873C13.3019 27.7334 13.3561 27.6795 13.412 27.6239C13.471 27.5645 13.5299 27.505 13.5907 27.4438C13.6538 27.3808 13.7169 27.3178 13.7819 27.253C13.994 27.0411 14.2056 26.8287 14.4171 26.6163C14.5687 26.4646 14.7204 26.313 14.8721 26.1614C15.1991 25.8345 15.5257 25.5074 15.8521 25.1801C16.3241 24.7068 16.7965 24.234 17.2691 23.7613C18.0357 22.9943 18.8019 22.227 19.568 21.4595C20.3121 20.7139 21.0565 19.9685 21.801 19.2233C21.8469 19.1773 21.8928 19.1314 21.9401 19.0841C22.1703 18.8537 22.4005 18.6232 22.6307 18.3928C24.5408 16.4811 26.4503 14.5689 28.3594 12.6563C28.2859 12.5698 28.2122 12.4835 28.1385 12.3972C28.0975 12.3491 28.0565 12.301 28.0142 12.2514C27.8503 12.0629 27.6843 11.8877 27.5001 11.7188C27.3379 11.702 27.3379 11.702 27.2247 11.8184ZM4.39702 31.566C4.34161 31.7077 4.29175 31.8516 4.2423 31.9956C4.13058 32.2925 3.99151 32.5411 3.82819 32.8125C4.03507 33.163 4.24218 33.5133 4.44951 33.8635C4.51997 33.9825 4.59037 34.1017 4.66069 34.2208C4.76195 34.3924 4.86344 34.5637 4.96497 34.7351C4.99623 34.7882 5.02749 34.8413 5.0597 34.8959C5.14262 35.0356 5.22751 35.1741 5.31257 35.3125C5.34312 35.3748 5.37367 35.4372 5.40515 35.5014C5.65524 35.7194 5.96834 35.6776 6.28822 35.6802C6.3979 35.6821 6.3979 35.6821 6.5098 35.684C6.66458 35.6859 6.81937 35.6869 6.97416 35.6872C7.21046 35.6885 7.44622 35.6952 7.68241 35.7021C7.83291 35.7033 7.98342 35.7041 8.13392 35.7047C8.20425 35.7073 8.27458 35.71 8.34703 35.7127C8.64669 35.7084 8.83165 35.7017 9.04668 35.4808C9.16852 35.2993 9.27283 35.1149 9.37507 34.9219C9.43195 34.8341 9.48987 34.747 9.54923 34.6608C9.69074 34.4455 9.82931 34.2289 9.96595 34.0105C10.0249 33.9176 10.085 33.8255 10.1462 33.734C10.5191 33.214 10.5191 33.214 10.5885 32.6097C10.4947 32.4179 10.4947 32.4179 10.3668 32.2349C10.215 32.0014 10.1371 31.7736 10.0465 31.5106C9.80402 30.9244 9.54124 30.3427 8.98444 30C7.09706 29.2497 5.18494 29.6817 4.39702 31.566Z" fill="black"/>
<path d="M26.4062 20.2344C26.6247 20.3396 26.7843 20.4373 26.9543 20.611C27.0163 20.6737 27.0163 20.6737 27.0795 20.7376C27.1216 20.781 27.1637 20.8244 27.207 20.8691C27.2503 20.9132 27.2936 20.9572 27.3383 21.0025C27.4446 21.1107 27.5505 21.2194 27.6562 21.3281C27.5743 21.5398 27.4923 21.732 27.3779 21.9287C27.1355 22.4874 27.1243 23.102 27.3438 23.6719C27.4625 23.8663 27.5944 24.0383 27.7344 24.2188C27.7344 24.2703 27.7344 24.3219 27.7344 24.375C27.8021 24.4087 27.8021 24.4087 27.8711 24.4431C27.9821 24.4988 28.0928 24.555 28.2031 24.6121C28.2547 24.6386 28.3062 24.6651 28.3594 24.6924C28.4109 24.7191 28.4625 24.7458 28.5156 24.7733C28.9556 24.9718 29.4351 24.9999 29.8959 24.8575C30.1996 24.7368 30.4889 24.5993 30.7812 24.4531C33.5141 27.1859 36.2469 29.9187 39.0625 32.7344C38.5352 33.3496 38.5352 33.3496 38.3238 33.5606C38.2519 33.6327 38.2519 33.6327 38.1785 33.7063C38.1275 33.7569 38.0766 33.8075 38.0242 33.8597C37.9692 33.9146 37.9143 33.9696 37.8577 34.0262C37.6778 34.206 37.4977 34.3856 37.3175 34.5651C37.192 34.6904 37.0666 34.8158 36.9412 34.9411C36.6123 35.2697 36.2832 35.598 35.954 35.9263C35.6177 36.2619 35.2815 36.5977 34.9454 36.9334C34.2867 37.5913 33.6278 38.2488 32.9688 38.9062C32.6969 38.7896 32.5214 38.6344 32.3132 38.4257C32.245 38.3578 32.1769 38.2899 32.1067 38.2199C32.0318 38.1445 31.957 38.069 31.8821 37.9936C31.8028 37.9142 31.7235 37.8349 31.6441 37.7557C31.429 37.5406 31.2143 37.325 30.9997 37.1093C30.7753 36.8839 30.5504 36.6589 30.3256 36.4339C29.9 36.0079 29.4748 35.5814 29.0498 35.1548C28.5659 34.6691 28.0815 34.1839 27.5971 33.6987C26.6007 32.7007 25.6048 31.7021 24.6094 30.7031C24.6935 30.4863 24.7797 30.287 24.8926 30.083C25.1058 29.5796 25.0854 28.9638 24.9341 28.4467C24.6759 27.8762 24.2584 27.4441 23.6816 27.1924C23.0645 26.9979 22.4576 27.0811 21.875 27.3438C21.7461 27.4211 21.6172 27.4984 21.4844 27.5781C20.9043 26.998 20.9043 26.998 20.3125 26.4062C20.8398 25.791 20.8398 25.791 21.0512 25.5801C21.1231 25.5079 21.1231 25.5079 21.1965 25.4344C21.2475 25.3837 21.2984 25.3331 21.3508 25.2809C21.4058 25.226 21.4607 25.171 21.5173 25.1144C21.6972 24.9346 21.8773 24.7551 22.0575 24.5755C22.183 24.4502 22.3084 24.3249 22.4338 24.1995C22.7627 23.8709 23.0918 23.5426 23.421 23.2143C23.7573 22.8787 24.0935 22.5429 24.4296 22.2072C25.0883 21.5494 25.7472 20.8918 26.4062 20.2344ZM28.1638 27.5317C28.0839 27.6121 28.0043 27.6927 27.9248 27.7734C27.8842 27.8144 27.8435 27.8554 27.8017 27.8976C27.7009 27.9993 27.6004 28.1012 27.5 28.2031C27.61 28.4523 27.7407 28.6194 27.9331 28.8112C27.9905 28.8689 28.0479 28.9265 28.107 28.9858C28.2015 29.0795 28.2015 29.0795 28.2979 29.175C28.3974 29.2745 28.3974 29.2745 28.4989 29.3761C28.6805 29.5576 28.8625 29.7388 29.0446 29.9198C29.2349 30.1092 29.4249 30.299 29.6148 30.4888C29.9745 30.8479 30.3345 31.2067 30.6947 31.5653C31.1048 31.9737 31.5145 32.3825 31.9241 32.7913C32.7666 33.6322 33.6097 34.4725 34.4531 35.3125C34.737 35.18 34.9176 35.0205 35.1367 34.7949C35.1992 34.7311 35.2616 34.6672 35.3259 34.6014C35.3731 34.5525 35.4202 34.5036 35.4688 34.4531C35.1139 34.0278 34.7377 33.6328 34.3456 33.2417C34.2817 33.1777 34.2177 33.1136 34.1518 33.0475C33.9419 32.8373 33.7317 32.6273 33.5214 32.4173C33.3751 32.271 33.2289 32.1246 33.0826 31.9782C32.7769 31.6724 32.4711 31.3668 32.1651 31.0612C31.8111 30.7076 31.4574 30.3537 31.1038 29.9997C30.7632 29.6587 30.4225 29.318 30.0816 28.9774C29.9366 28.8325 29.7917 28.6874 29.6468 28.5424C29.4452 28.3406 29.2433 28.139 29.0413 27.9375C28.981 27.877 28.9207 27.8165 28.8585 27.7541C28.8038 27.6997 28.7492 27.6453 28.6929 27.5892C28.6452 27.5415 28.5975 27.4938 28.5483 27.4447C28.3563 27.2697 28.3693 27.3342 28.1638 27.5317Z" fill="black"/>
<path d="M2.46022 0.155518C2.68931 0.247709 2.89612 0.355433 3.10969 0.479748C3.19801 0.530643 3.28632 0.581538 3.37731 0.633976C3.52089 0.717895 3.66429 0.802101 3.80767 0.886342C3.95587 0.973366 4.10418 1.06019 4.25258 1.14686C4.30209 1.17582 4.3516 1.20478 4.40262 1.23462C4.72032 1.41852 5.04244 1.58523 5.37379 1.74379C6.60586 2.34501 6.60586 2.34501 6.8246 2.82624C6.9212 3.11975 6.96925 3.41529 7.00641 3.72144C7.04871 4.03672 7.12721 4.34092 7.20698 4.64845C7.21833 4.7035 7.22967 4.75856 7.24135 4.81528C7.46522 5.72407 8.43403 6.41385 9.07971 7.05739C9.17374 7.15139 9.26774 7.24541 9.36173 7.33945C9.61461 7.59234 9.86772 7.845 10.1209 8.09761C10.3863 8.36252 10.6514 8.62764 10.9166 8.89275C11.4178 9.39368 11.9192 9.89442 12.4206 10.3951C12.992 10.9655 13.563 11.5362 14.1341 12.1069C15.3079 13.2798 16.482 14.4525 17.6562 15.625C17.5205 15.9154 17.3549 16.1006 17.1258 16.3269C17.0715 16.3809 17.0715 16.3809 17.0161 16.4359C16.9011 16.5501 16.7855 16.6637 16.6699 16.7774C16.5915 16.8549 16.5132 16.9326 16.4349 17.0102C16.2434 17.1999 16.0515 17.3892 15.8593 17.5781C15.5579 17.4552 15.3568 17.2515 15.1335 17.0226C15.0928 16.9815 15.0521 16.9405 15.0101 16.8981C14.8738 16.7605 14.7381 16.6222 14.6023 16.484C14.5047 16.3851 14.407 16.2863 14.3093 16.1875C14.0988 15.9747 13.8885 15.7617 13.6784 15.5485C13.3457 15.211 13.012 14.8745 12.6782 14.5381C12.5638 14.4228 12.4495 14.3076 12.3351 14.1923C12.2778 14.1346 12.2205 14.0769 12.1615 14.0174C11.3846 13.2342 10.6083 12.4504 9.83399 11.6646C9.31161 11.1345 8.78798 10.6056 8.2629 10.0782C7.98529 9.79919 7.70836 9.51961 7.43296 9.23845C7.17355 8.97363 6.91251 8.71051 6.65019 8.44858C6.55462 8.35257 6.45965 8.25597 6.36536 8.15871C5.65154 7.42343 5.04627 7.09259 4.00477 6.97511C3.42091 6.90367 2.88234 6.81114 2.47176 6.35972C2.13759 5.87694 1.8793 5.3578 1.62826 4.82844C1.45779 4.47054 1.26896 4.12941 1.0638 3.79029C1.03581 3.74379 1.00782 3.69729 0.97899 3.64938C0.844604 3.42664 0.709298 3.20448 0.573531 2.98257C0.526651 2.90309 0.479771 2.8236 0.431471 2.74171C0.389514 2.67217 0.347556 2.60263 0.304327 2.53099C0.234328 2.34376 0.234328 2.34376 0.274401 2.19035C0.433489 1.9725 0.613557 1.77976 0.80226 1.58784C0.84273 1.54648 0.8832 1.50512 0.924896 1.46251C1.01037 1.37556 1.09608 1.28883 1.18199 1.20231C1.31328 1.0695 1.4428 0.935121 1.57237 0.80064C1.65573 0.716258 1.7392 0.631975 1.82277 0.547802C1.88053 0.487148 1.88053 0.487148 1.93946 0.425268C2.21171 0.156467 2.21171 0.156467 2.46022 0.155518Z" fill="black"/>
<path d="M39.6094 34.0625C39.6867 34.0883 39.7641 34.1141 39.8438 34.1406C40.2002 35.0175 40.143 36.3654 39.7858 37.2272C39.7533 37.2914 39.7209 37.3557 39.6875 37.4219C39.6364 37.5231 39.6364 37.5231 39.5844 37.6263C38.9985 38.6797 38.1349 39.4046 36.9901 39.7897C36.0741 40.0459 35.0323 40.0174 34.1406 39.6875C34.2411 39.4669 34.3459 39.3066 34.5173 39.1357C34.5623 39.0906 34.6072 39.0455 34.6535 38.999C34.7271 38.9262 34.7271 38.9262 34.8023 38.8519C34.88 38.7741 34.88 38.7741 34.9594 38.6947C35.1306 38.5235 35.3024 38.353 35.4742 38.1824C35.5932 38.0637 35.712 37.9451 35.8309 37.8264C36.1437 37.5142 36.4569 37.2025 36.7703 36.8909C37.09 36.5728 37.4093 36.2542 37.7286 35.9357C38.3551 35.3108 38.9821 34.6865 39.6094 34.0625Z" fill="black"/>
</g>
<defs>
<clipPath id="clip0_156_192">
<rect width="40" height="40" fill="white"/>
</clipPath>
</defs>
</svg>
