<svg width="40" height="40" viewBox="0 0 40 40" fill="none" xmlns="http://www.w3.org/2000/svg">
<g clip-path="url(#clip0_156_204)">
<path d="M11.3282 1.79688C14.5508 1.79688 17.7735 1.79688 21.0938 1.79688C21.6739 3.07305 21.6739 3.07305 22.2657 4.375C22.3172 4.47813 22.3688 4.58125 22.4219 4.6875C22.4219 4.76484 22.4219 4.84219 22.4219 4.92188C22.5201 4.94801 22.5201 4.94801 22.6203 4.97467C22.8924 5.07877 23.0798 5.20437 23.3126 5.37376C23.9614 5.83498 24.4113 5.9443 25.2135 5.80891C25.484 5.76668 25.7558 5.74314 26.0283 5.71815C26.1688 5.70525 26.3093 5.69152 26.4497 5.6768C26.8804 5.63249 27.3014 5.61845 27.7344 5.625C27.7618 5.67435 27.7892 5.72369 27.8175 5.77454C28.4149 6.84899 29.022 7.91669 29.6436 8.97736C29.9323 9.46998 30.2179 9.9643 30.503 10.459C30.5509 10.5421 30.5988 10.6252 30.6481 10.7108C30.8789 11.1111 31.1095 11.5115 31.3399 11.912C31.4482 12.1002 31.5566 12.2883 31.6649 12.4764C31.7417 12.6096 31.8183 12.7428 31.8949 12.8761C31.9412 12.9565 31.9875 13.0369 32.0353 13.1198C32.0965 13.2262 32.0965 13.2262 32.159 13.3348C32.2422 13.4759 32.3311 13.6137 32.4219 13.75C32.4106 14.1709 32.2178 14.431 31.9678 14.751C31.9302 14.802 31.8926 14.853 31.8539 14.9056C31.6529 15.1777 31.4454 15.4368 31.2189 15.6882C30.5272 16.4921 30.3724 17.2583 30.4474 18.313C30.5513 19.0484 30.9435 19.5735 31.4427 20.1033C31.796 20.4897 31.796 20.4897 31.8 20.7309C31.6866 21.0195 31.4929 21.213 31.2794 21.4307C31.1931 21.5211 31.107 21.6117 31.0209 21.7023C30.9585 21.7673 30.9585 21.7673 30.8949 21.8336C30.7568 21.979 30.6242 22.1285 30.4932 22.2803C30.2925 22.5123 30.0885 22.741 29.8829 22.9688C29.6727 23.2016 29.4639 23.4353 29.2579 23.6719C28.9927 23.9763 28.7224 24.2758 28.4519 24.5755C28.3041 24.7402 28.1579 24.9062 28.0128 25.0732C27.7238 25.4055 27.4259 25.7294 27.1277 26.0535C26.9815 26.2181 26.8473 26.3839 26.7188 26.5625C26.4843 26.4567 26.3154 26.337 26.1298 26.1594C26.0527 26.0862 26.0527 26.0862 25.9741 26.0116C25.9202 25.9597 25.8662 25.9079 25.8106 25.8545C25.6977 25.7473 25.5848 25.6402 25.4719 25.5331C25.4174 25.4814 25.3629 25.4297 25.3068 25.3764C25.0644 25.1476 24.816 24.9256 24.5673 24.7037C24.1876 24.3632 23.813 24.017 23.4376 23.6719C23.6031 23.3772 23.7675 23.092 23.9649 22.8174C25.3593 20.7346 25.7186 18.2724 25.2769 15.8308C24.7691 13.3699 23.2261 11.3151 21.1719 9.92188C19.2135 8.64223 16.7308 8.25432 14.4532 8.67188C12.883 9.01209 11.4522 9.64466 10.2344 10.7031C10.1704 10.7568 10.1063 10.8105 10.0403 10.8658C8.16084 12.4855 7.20249 14.7516 6.95319 17.1875C6.76946 19.6752 7.70585 22.0155 9.2594 23.9154C10.8013 25.6954 13.0177 26.7373 15.337 27.0117C15.4589 27.02 15.581 27.0264 15.7032 27.0312C15.7741 27.0353 15.845 27.0393 15.918 27.0435C16.4713 27.0604 17.0069 27.0044 17.5538 26.9287C17.6553 26.9149 17.6553 26.9149 17.7589 26.9009C18.1804 26.8383 18.5721 26.7399 18.9752 26.6015C19.1407 26.5625 19.1407 26.5625 19.3751 26.6406C18.988 27.0737 18.5978 27.5035 18.2032 27.9297C17.8691 28.2906 17.5383 28.6541 17.2101 29.0204C17.004 29.2491 16.7955 29.4756 16.587 29.7021C16.2853 30.0301 15.99 30.3621 15.7032 30.7031C16.1286 31.1355 16.5524 31.5638 17.0139 31.958C17.2889 32.1978 17.5549 32.4473 17.8222 32.6955C18.1394 32.9895 18.4615 33.2771 18.7882 33.5605C18.8272 33.5972 18.8662 33.634 18.9063 33.6719C18.9063 33.6977 18.9063 33.7234 18.9063 33.75C16.4055 33.75 13.9047 33.75 11.3282 33.75C10.7481 32.4738 10.7481 32.4738 10.1563 31.1719C10.1047 31.0687 10.0532 30.9656 10.0001 30.8594C10.0001 30.782 10.0001 30.7047 10.0001 30.625C9.9489 30.6066 9.89774 30.5881 9.84503 30.5692C9.53846 30.4385 9.25426 30.277 8.9649 30.1123C8.8791 30.064 8.8791 30.064 8.79156 30.0148C8.37027 29.7765 8.37027 29.7765 8.28131 29.6875C8.107 29.6906 7.9328 29.7001 7.75885 29.7119C7.70447 29.7155 7.65009 29.7192 7.59406 29.7229C7.03365 29.7619 6.47437 29.8147 5.91538 29.8702C5.5037 29.9099 5.10115 29.9291 4.68756 29.9219C4.66016 29.8725 4.63275 29.8232 4.60452 29.7723C4.0071 28.6979 3.39999 27.6302 2.77838 26.5695C2.48974 26.0769 2.20409 25.5826 1.91901 25.0879C1.87111 25.0048 1.82321 24.9217 1.77386 24.8361C1.54312 24.4358 1.31254 24.0353 1.08206 23.6348C0.973764 23.4467 0.86541 23.2586 0.757047 23.0705C0.680343 22.9373 0.60373 22.804 0.527119 22.6708C0.480787 22.5904 0.434455 22.5099 0.386719 22.4271C0.345901 22.3561 0.305082 22.2852 0.263027 22.2121C0.179766 22.071 0.0909355 21.9332 6.10352e-05 21.7969C0.000756336 21.3241 0.26927 21.0241 0.542053 20.6641C0.610059 20.5701 0.610059 20.5701 0.67944 20.4742C0.886065 20.19 1.09299 19.9161 1.3349 19.6609C1.91727 19.0208 1.99325 18.3672 1.9845 17.514C1.92736 16.634 1.57512 16.114 1.00016 15.474C0.766204 15.2055 0.564349 14.9162 0.361389 14.624C0.323743 14.573 0.286097 14.5221 0.247311 14.4695C0.105166 14.2688 0.0012586 14.1205 -0.00390625 13.8702C0.112813 13.5882 0.253752 13.3262 0.405334 13.0615C0.439764 13.0005 0.474194 12.9394 0.509666 12.8765C0.839492 12.2944 1.17768 11.7171 1.51593 11.1399C1.87426 10.5279 2.22721 9.91306 2.57819 9.29688C3.02634 8.51016 3.47902 7.72623 3.93729 6.94534C4.19337 6.50842 4.4439 6.06899 4.68756 5.625C5.35029 5.60717 6.00189 5.67609 6.66022 5.74219C6.82978 5.75905 6.99936 5.7758 7.16896 5.79234C7.322 5.80729 7.475 5.82256 7.62801 5.83786C8.13305 5.87923 8.34535 5.84887 8.77936 5.56641C8.86915 5.50898 8.95897 5.45161 9.04883 5.39429C9.17164 5.31513 9.17164 5.31513 9.29694 5.23438C9.80947 4.92188 9.80947 4.92188 10.0001 4.92188C10.0258 4.79297 10.0516 4.66406 10.0782 4.53125C10.4907 3.62891 10.9032 2.72656 11.3282 1.79688Z" fill="black"/>
<path d="M15.9229 10.6906C17.772 10.6375 19.5539 11.2628 20.9376 12.5C21.0026 12.5577 21.0677 12.6154 21.1347 12.6749C22.3946 13.8592 23.2078 15.611 23.2813 17.3438C23.2844 17.408 23.2876 17.4723 23.2908 17.5385C23.3356 19.3583 22.7088 21.1486 21.4844 22.5C21.4268 22.5649 21.3692 22.6297 21.3099 22.6965C20.1246 23.9593 18.3745 24.7663 16.6407 24.8438C16.581 24.8478 16.5212 24.8518 16.4597 24.856C14.6348 24.9228 12.8422 24.2607 11.4844 23.0469C11.4203 22.9901 11.3561 22.9333 11.29 22.8748C9.93956 21.6062 9.22411 19.8806 9.12817 18.0414C9.07413 15.9783 9.83761 14.1901 11.2501 12.7002C12.5236 11.458 14.15 10.7916 15.9229 10.6906Z" fill="black"/>
<path d="M35.5469 19.9219C35.7711 20.0249 35.9443 20.1384 36.1279 20.3027C36.1818 20.3509 36.2357 20.399 36.2912 20.4486C36.5708 20.7039 36.8488 20.9608 37.1264 21.2182C37.401 21.4725 37.6793 21.7214 37.9623 21.9662C38.2133 22.187 38.4588 22.4137 38.7044 22.6404C39.028 22.9388 39.3577 23.2297 39.6906 23.5178C39.8393 23.6674 39.9195 23.791 40 23.9844C39.6921 24.3402 39.3796 24.6914 39.0625 25.0391C38.7925 25.3351 38.5262 25.6337 38.2632 25.936C37.9267 26.3201 37.5823 26.6974 37.24 27.0764C36.9747 27.3705 36.7101 27.665 36.4502 27.9639C36.1648 28.2916 35.8715 28.612 35.5786 28.9331C35.4229 29.105 35.2693 29.2781 35.1172 29.4531C34.8336 29.7795 34.5418 30.0981 34.2505 30.4175C34.0948 30.5893 33.9411 30.7625 33.7891 30.9375C33.5055 31.2639 33.2137 31.5825 32.9224 31.9019C32.7667 32.0737 32.613 32.2468 32.4609 32.4219C32.2431 32.6726 32.0207 32.9187 31.7969 33.1641C31.5269 33.4601 31.2605 33.7587 30.9976 34.061C30.661 34.4451 30.3167 34.8224 29.9744 35.2014C29.7091 35.4955 29.4445 35.79 29.1846 36.0889C28.965 36.3411 28.741 36.5889 28.5156 36.8359C27.9056 37.4994 27.9056 37.4994 27.3438 38.2031C27.0781 38.1581 26.9589 38.0773 26.7773 37.8809C26.5918 37.6871 26.4047 37.5038 26.2012 37.3291C25.9155 37.0827 25.6379 36.8287 25.3613 36.5723C24.9967 36.2344 24.6295 35.8998 24.2593 35.5679C23.8383 35.1886 23.4219 34.8041 23.0046 34.4206C22.5407 33.9945 22.0753 33.5702 21.6064 33.1494C21.3823 32.9472 21.1598 32.7433 20.9375 32.5391C20.5888 32.2187 20.238 31.9008 19.8856 31.5845C19.5318 31.2661 19.18 30.9455 18.8281 30.625C18.9389 30.3709 19.0723 30.2099 19.2725 30.0195C19.4782 29.819 19.6759 29.6172 19.8633 29.3994C20.1078 29.1152 20.3603 28.8393 20.6152 28.5645C20.8956 28.2619 21.1748 27.9585 21.4502 27.6514C21.7182 27.353 21.9863 27.0548 22.2559 26.7578C22.2922 26.7174 22.3285 26.677 22.3659 26.6354C22.5331 26.4518 22.6825 26.3106 22.8906 26.1719C22.9785 26.2527 22.9785 26.2527 23.0682 26.3351C23.4503 26.686 23.8327 27.0364 24.2188 27.3828C24.5069 27.6414 24.793 27.9021 25.0781 28.1641C25.9228 28.9426 25.9228 28.9426 26.7969 29.6875C27.1012 29.3871 27.395 29.0783 27.6855 28.7646C27.7306 28.7161 27.7756 28.6675 27.822 28.6175C28.0925 28.325 28.3591 28.0298 28.6194 27.7283C28.7779 27.546 28.9397 27.3668 29.1016 27.1875C29.3117 26.9546 29.5206 26.7209 29.7266 26.4844C29.9916 26.1801 30.2619 25.8806 30.5322 25.5811C30.6817 25.4145 30.8296 25.2469 30.9766 25.0781C31.2416 24.7738 31.5119 24.4744 31.7822 24.1748C31.9317 24.0083 32.0796 23.8406 32.2266 23.6719C32.6071 23.2352 32.9968 22.8066 33.385 22.3767C33.6965 22.0314 34.0056 21.6844 34.3109 21.3336C34.477 21.1447 34.6457 20.9581 34.8145 20.7715C35.0655 20.4934 35.3101 20.2122 35.5469 19.9219Z" fill="black"/>
</g>
<defs>
<clipPath id="clip0_156_204">
<rect width="40" height="40" fill="white"/>
</clipPath>
</defs>
</svg>
