<svg width="40" height="40" viewBox="0 0 40 40" fill="none" xmlns="http://www.w3.org/2000/svg">
<path d="M14.9219 7.5C14.9734 7.5 15.025 7.5 15.0781 7.5C15.0896 7.58631 15.1011 7.67261 15.1129 7.76154C15.416 9.91452 16.0693 11.9939 17.1094 13.9062C17.1367 13.9577 17.1641 14.0092 17.1923 14.0623C18.5063 16.5309 20.4485 18.6192 22.8906 20C22.9389 20.0277 22.9871 20.0555 23.0368 20.0841C24.4431 20.8874 25.9409 21.3799 27.5 21.7969C27.5 21.8484 27.5 21.9 27.5 21.9531C27.4514 21.9664 27.4028 21.9797 27.3527 21.9934C22.9708 23.2027 19.5544 25.5651 17.2573 29.524C16.0953 31.5817 15.3487 33.9029 15.0781 36.25C15.0266 36.25 14.975 36.25 14.9219 36.25C14.9104 36.1637 14.8989 36.0774 14.8871 35.9885C14.584 33.8355 13.9307 31.7561 12.8906 29.8438C12.8633 29.7923 12.8359 29.7408 12.8077 29.6877C10.7721 25.8634 7.43569 23.4593 3.35041 22.1769C3.06871 22.0925 2.78633 22.0199 2.5 21.9531C2.5 21.9016 2.5 21.85 2.5 21.7969C2.54862 21.7836 2.59723 21.7703 2.64732 21.7566C7.02965 20.5472 10.4449 18.1849 12.7427 14.2261C13.8914 12.1912 14.684 9.83129 14.9219 7.5Z" fill="black"/>
<path d="M30.5469 22.5C30.5984 22.5 30.65 22.5 30.7031 22.5C30.7193 22.5908 30.7356 22.6817 30.7523 22.7753C31.0859 24.5476 31.757 26.0719 32.9688 27.4219C33.0213 27.4818 33.0739 27.5417 33.1281 27.6035C34.2821 28.8418 35.8941 29.5038 37.5 29.9219C37.5 29.9734 37.5 30.025 37.5 30.0781C37.4017 30.1047 37.3034 30.1313 37.2021 30.1587C34.9419 30.79 33.068 31.9887 31.8649 34.0581C31.2626 35.1446 30.9161 36.2793 30.7031 37.5C30.6516 37.5 30.6 37.5 30.5469 37.5C30.5239 37.3665 30.5239 37.3665 30.5005 37.2302C30.1372 35.2548 29.3208 33.5997 27.8906 32.1875C27.8369 32.1339 27.7833 32.0803 27.728 32.0251C27.2874 31.6133 26.7711 31.3144 26.25 31.0156C26.1778 30.9736 26.1056 30.9316 26.0312 30.8884C25.3132 30.4994 24.533 30.2949 23.75 30.0781C23.75 30.0266 23.75 29.975 23.75 29.9219C23.8483 29.8953 23.9466 29.8687 24.0479 29.8413C26.3081 29.21 28.182 28.0113 29.3851 25.9419C29.9874 24.8554 30.3339 23.7207 30.5469 22.5Z" fill="black"/>
<path d="M26.1719 2.5C26.2234 2.5 26.275 2.5 26.3281 2.5C26.3443 2.59084 26.3606 2.68168 26.3773 2.77527C26.7109 4.54757 27.382 6.07193 28.5938 7.42188C28.6463 7.4818 28.6989 7.54172 28.7531 7.60345C29.9071 8.8418 31.5191 9.50381 33.125 9.92188C33.125 9.97344 33.125 10.025 33.125 10.0781C33.0267 10.1047 32.9284 10.1313 32.8271 10.1587C30.5669 10.79 28.693 11.9887 27.4899 14.0581C26.8876 15.1446 26.5411 16.2793 26.3281 17.5C26.2766 17.5 26.225 17.5 26.1719 17.5C26.1489 17.3665 26.1489 17.3665 26.1255 17.2302C25.7622 15.2548 24.9458 13.5997 23.5156 12.1875C23.4619 12.1339 23.4083 12.0803 23.353 12.0251C22.9124 11.6133 22.3961 11.3144 21.875 11.0156C21.8028 10.9736 21.7306 10.9316 21.6562 10.8884C20.9382 10.4994 20.158 10.2949 19.375 10.0781C19.375 10.0266 19.375 9.975 19.375 9.92188C19.4733 9.89529 19.5716 9.8687 19.6729 9.84131C21.9331 9.20999 23.807 8.01129 25.0101 5.94193C25.6124 4.85535 25.9589 3.72066 26.1719 2.5Z" fill="black"/>
</svg>
