<svg width="40" height="40" viewBox="0 0 40 40" fill="none" xmlns="http://www.w3.org/2000/svg">
<g clip-path="url(#clip0_156_197)">
<path d="M34.4531 0.312478C34.5031 0.329221 34.5531 0.345963 34.6047 0.363213C36.7062 1.0833 38.3452 2.62044 39.32 4.59425C40.1572 6.38527 40.3077 8.58958 39.6874 10.4687C39.6591 10.5569 39.6308 10.6452 39.6017 10.7361C38.9351 12.625 37.501 13.9958 36.1155 15.3792C36.019 15.4759 35.9224 15.5726 35.8259 15.6694C35.5635 15.9322 35.3009 16.1948 35.0382 16.4574C34.7539 16.7418 34.4697 17.0263 34.1856 17.3109C33.63 17.867 33.0743 18.423 32.5185 18.9789C32.0666 19.4308 31.6148 19.8827 31.163 20.3348C29.8804 21.618 28.5977 22.9011 27.3147 24.184C27.2457 24.2531 27.1767 24.3221 27.1056 24.3932C27.0365 24.4623 26.9674 24.5314 26.8962 24.6026C25.7752 25.7235 24.6547 26.8448 23.5343 27.9663C22.3822 29.1195 21.2298 30.2724 20.0771 31.4251C19.4306 32.0715 18.7843 32.7181 18.1382 33.365C17.5885 33.9154 17.0385 34.4656 16.4882 35.0154C16.2077 35.2956 15.9273 35.576 15.6472 35.8568C15.3905 36.1141 15.1333 36.3711 14.8759 36.6279C14.7833 36.7204 14.6908 36.8131 14.5984 36.9059C12.7419 38.7706 10.7562 40.0088 8.06146 40.0244C7.18259 40.026 6.38547 39.9504 5.54682 39.6875C5.45769 39.6601 5.36856 39.6327 5.27673 39.6045C4.23663 39.2423 3.31577 38.6219 2.49994 37.8906C2.44576 37.8429 2.39158 37.7951 2.33576 37.746C0.930566 36.4303 0.0382342 34.4495 -0.026305 32.5339C-0.0470565 30.935 0.138335 29.6326 0.859315 28.2031C0.900203 28.1213 0.94109 28.0396 0.983217 27.9553C1.22191 27.5152 1.50363 27.1324 1.82966 26.7552C1.87064 26.7077 1.91163 26.6601 1.95386 26.6111C2.40315 26.0956 2.88189 25.6116 3.36606 25.1291C3.46576 25.0292 3.56542 24.9292 3.66505 24.8292C3.93586 24.5576 4.20715 24.2865 4.47853 24.0154C4.77231 23.7219 5.06563 23.4278 5.35902 23.1339C5.93259 22.5593 6.50659 21.9851 7.08075 21.4112C7.5476 20.9445 8.01431 20.4776 8.48092 20.0107C8.5475 19.944 8.61408 19.8774 8.68268 19.8088C8.81795 19.6734 8.95323 19.538 9.08851 19.4027C10.3549 18.1354 11.6219 16.8686 12.889 15.602C14.0469 14.4444 15.2042 13.2863 16.3612 12.1278C17.5511 10.9364 18.7415 9.74538 19.9323 8.55488C20.6001 7.88723 21.2677 7.21942 21.9348 6.55114C22.5026 5.98248 23.0707 5.41422 23.6394 4.84649C23.9292 4.55713 24.2189 4.26759 24.508 3.97753C24.7731 3.71151 25.0389 3.44604 25.305 3.18099C25.4007 3.08553 25.4961 2.98987 25.5914 2.89399C26.362 2.11869 27.1704 1.37186 28.1542 0.874001C28.2096 0.845394 28.265 0.816787 28.3221 0.787312C30.1715 -0.14069 32.4834 -0.355147 34.4531 0.312478ZM30.8593 3.12498C30.7363 3.371 30.754 3.55623 30.7812 3.8281C30.9197 4.06066 31.0824 4.25217 31.3281 4.37498C31.773 4.41218 31.773 4.41218 32.1777 4.25291C32.3918 4.00726 32.4561 3.83882 32.4999 3.5156C32.4154 3.23365 32.3269 3.03915 32.1337 2.81736C31.5878 2.56651 31.2458 2.72906 30.8593 3.12498ZM33.4374 5.31248C33.21 5.51058 33.2033 5.62313 33.164 5.92771C33.1765 6.30017 33.3325 6.46379 33.5937 6.71873C33.8331 6.83843 34.0325 6.81477 34.2968 6.79685C34.5147 6.70001 34.644 6.61838 34.79 6.43064C34.8707 6.1592 34.8874 5.90303 34.8437 5.62498C34.6876 5.33783 34.5702 5.25203 34.2724 5.11717C33.9148 5.06868 33.7476 5.13352 33.4374 5.31248ZM28.3593 5.62498C28.234 5.87565 28.2436 6.13428 28.2812 6.40623C28.423 6.64783 28.5379 6.76458 28.7792 6.90427C29.0383 6.96595 29.1973 6.94957 29.4531 6.87498C29.7345 6.6823 29.7345 6.6823 29.9218 6.40623C29.9693 6.00594 29.9693 6.00594 29.84 5.63871C29.6127 5.36252 29.4752 5.24592 29.121 5.20506C28.7349 5.24367 28.6298 5.35453 28.3593 5.62498ZM35.7128 7.86619C35.5822 8.13467 35.5641 8.38378 35.6249 8.67185C35.7619 8.90772 35.9242 9.09491 36.1718 9.21873C36.528 9.26011 36.528 9.26011 36.856 9.13694C37.0262 8.99717 37.1663 8.87036 37.2656 8.67185C37.3049 8.224 37.3049 8.224 37.1337 7.82224C36.6565 7.3837 36.1873 7.43913 35.7128 7.86619ZM30.7812 7.96873C30.6424 8.19805 30.6235 8.32599 30.6347 8.59373C30.7136 8.86418 30.8233 9.01485 31.0156 9.21873C31.2678 9.34484 31.5242 9.34339 31.7968 9.29685C32.0331 9.16123 32.2201 8.99718 32.3437 8.74998C32.3851 8.3938 32.3851 8.3938 32.2619 8.06577C32.1221 7.89558 31.9953 7.75548 31.7968 7.65623C31.3541 7.61366 31.1198 7.67741 30.7812 7.96873ZM25.8788 8.06638C25.7208 8.28765 25.7123 8.48218 25.7031 8.74998C25.7919 8.96756 25.7919 8.96756 25.9374 9.1406C25.9834 9.20828 25.9834 9.20828 26.0302 9.27732C26.2659 9.43983 26.5176 9.47105 26.7968 9.4531C27.0481 9.32746 27.207 9.22052 27.373 8.99412C27.4762 8.64322 27.4596 8.42955 27.2851 8.10545C27.0669 7.83881 26.944 7.75322 26.6064 7.70994C26.306 7.74657 26.1198 7.89424 25.8788 8.06638ZM33.2031 10.3906C33.0703 10.6199 33.0455 10.7504 33.0566 11.0156C33.1355 11.2861 33.2452 11.4367 33.4374 11.6406C33.6897 11.7667 33.946 11.7653 34.2187 11.7187C34.455 11.5831 34.642 11.4191 34.7656 11.1719C34.8069 10.8157 34.8069 10.8157 34.6838 10.4876C34.544 10.3175 34.4172 10.1774 34.2187 10.0781C33.7658 10.041 33.5269 10.0382 33.2031 10.3906ZM28.2812 10.4687C28.1039 10.6846 28.1253 10.8023 28.1298 11.0888C28.1701 11.337 28.2144 11.4219 28.3691 11.6357C28.6424 11.8318 28.8048 11.875 29.1406 11.875C29.4467 11.7749 29.5749 11.6895 29.7607 11.4258C29.8629 11.113 29.8574 10.9408 29.7656 10.625C29.5313 10.3487 29.368 10.1732 29.0038 10.1318C28.6829 10.1627 28.5289 10.2661 28.2812 10.4687ZM30.6347 12.9834C30.5157 13.2808 30.5264 13.5288 30.6249 13.8281C30.8153 14.0837 30.9437 14.1943 31.2451 14.2969C31.5956 14.2969 31.8121 14.1597 32.0947 13.9648C32.2466 13.7409 32.2565 13.5486 32.2656 13.2812C32.1682 12.9999 32.0817 12.8534 31.8505 12.666C31.35 12.4565 30.9807 12.5797 30.6347 12.9834ZM20.825 14.1648C20.745 14.2447 20.665 14.3246 20.585 14.4044C20.3695 14.6196 20.1543 14.8349 19.9391 15.0503C19.7134 15.2762 19.4875 15.5019 19.2617 15.7276C18.8831 16.1061 18.5047 16.4847 18.1263 16.8634C17.6887 17.3014 17.2508 17.7392 16.8128 18.1768C16.4362 18.553 16.0597 18.9295 15.6834 19.306C15.4588 19.5307 15.2342 19.7553 15.0094 19.9798C14.7986 20.1904 14.588 20.4012 14.3775 20.6122C14.3001 20.6897 14.2227 20.7671 14.1451 20.8444C14.0397 20.9497 13.9344 21.0552 13.8292 21.1608C13.7702 21.2198 13.7111 21.2789 13.6503 21.3398C13.4879 21.5141 13.443 21.6112 13.3984 21.8457C13.5303 22.736 14.9589 23.736 15.5977 24.3794C15.7728 24.5558 15.9471 24.7329 16.1209 24.9106C16.3323 25.1267 16.5447 25.3415 16.758 25.5556C16.8387 25.6369 16.9189 25.7186 16.9987 25.8007C17.1103 25.9153 17.2233 26.0284 17.3367 26.1412C17.4004 26.2057 17.4642 26.2703 17.5299 26.3368C17.7892 26.5239 17.9627 26.559 18.2812 26.5625C18.5817 26.4113 18.8019 26.2175 19.0386 25.9807C19.11 25.9096 19.1814 25.8385 19.255 25.7652C19.3332 25.6866 19.4113 25.608 19.4895 25.5294C19.5725 25.4465 19.6555 25.3636 19.7386 25.2807C19.9637 25.0561 20.1882 24.8309 20.4126 24.6057C20.6476 24.3701 20.8829 24.1349 21.1182 23.8996C21.513 23.5047 21.9075 23.1095 22.3019 22.7141C22.7581 22.2566 23.2148 21.7995 23.6717 21.3427C24.1111 20.9034 24.5503 20.4638 24.9893 20.0241C25.1763 19.8368 25.3633 19.6497 25.5504 19.4626C25.7704 19.2425 25.9902 19.0222 26.2099 18.8018C26.2906 18.7207 26.3715 18.6398 26.4524 18.5589C26.5625 18.4488 26.6724 18.3385 26.7822 18.2281C26.8439 18.1664 26.9055 18.1046 26.969 18.0409C27.142 17.8555 27.1831 17.7726 27.2119 17.5195C27.1659 17.0416 26.8205 16.7228 26.493 16.3947C26.4561 16.3576 26.4192 16.3204 26.3813 16.2821C26.2606 16.1607 26.1393 16.0399 26.018 15.9192C25.9334 15.8344 25.8487 15.7496 25.7641 15.6648C25.5873 15.4878 25.4103 15.3111 25.233 15.1345C25.006 14.9084 24.7797 14.6817 24.5537 14.4547C24.3793 14.2797 24.2045 14.1051 24.0297 13.9307C23.9461 13.8472 23.8626 13.7636 23.7793 13.6799C23.6628 13.563 23.5458 13.4467 23.4287 13.3304C23.3624 13.2642 23.296 13.1979 23.2276 13.1297C22.9968 12.9242 22.8205 12.8301 22.5195 12.7685C21.8577 12.8831 21.2837 13.7051 20.825 14.1648ZM7.9101 26.0351C7.7513 26.2575 7.74345 26.4492 7.73432 26.7187C7.8317 27.0001 7.91818 27.1465 8.14935 27.334C8.4038 27.4405 8.55437 27.461 8.82807 27.4219C9.0675 27.2929 9.24274 27.1831 9.40424 26.9629C9.49541 26.6529 9.49017 26.4167 9.36517 26.1181C9.18268 25.8931 9.0188 25.8074 8.74994 25.7031C8.36768 25.7031 8.21187 25.8196 7.9101 26.0351ZM10.205 28.584C10.1024 28.9327 10.1196 29.1482 10.288 29.4726C10.4814 29.7026 10.5681 29.7828 10.8593 29.8437C11.194 29.8378 11.3602 29.7996 11.6308 29.5996C11.8327 29.3264 11.8749 29.1669 11.8749 28.8281C11.7729 28.5159 11.692 28.3929 11.416 28.2129C10.9089 28.0303 10.5379 28.13 10.205 28.584ZM5.31061 28.6612C5.19652 28.9108 5.19742 29.1011 5.24988 29.368C5.36117 29.6584 5.51483 29.7717 5.78119 29.9219C6.10334 29.9923 6.34243 29.9593 6.6308 29.79C6.8749 29.5244 6.95841 29.3469 6.9433 28.9844C6.86442 28.7139 6.75467 28.5632 6.56244 28.3594C6.07785 28.1171 5.62263 28.2315 5.31061 28.6612ZM12.7343 30.8594C12.5507 31.1098 12.547 31.3358 12.5781 31.6406C12.6909 31.9101 12.7881 32.015 13.0322 32.1777C13.3227 32.2803 13.4578 32.2807 13.7499 32.1875C14.0085 32.0171 14.2101 31.866 14.2968 31.5625C14.2905 31.2136 14.256 31.0596 14.0283 30.791C13.8128 30.6123 13.732 30.5537 13.457 30.5224C13.1361 30.5533 12.982 30.6567 12.7343 30.8594ZM7.89057 30.8594C7.70354 31.0838 7.6593 31.2286 7.61713 31.5185C7.66898 31.888 7.78563 32.0044 8.04682 32.2656C8.28621 32.3853 8.48561 32.3616 8.74994 32.3437C9.0264 32.2147 9.12578 32.1315 9.29682 31.875C9.35308 31.5256 9.34229 31.251 9.16498 30.9424C8.72951 30.554 8.3793 30.5641 7.89057 30.8594ZM2.81244 31.1719C2.68691 31.4229 2.69773 31.6808 2.73432 31.9531C2.89038 32.2403 3.00778 32.3261 3.3056 32.4609C3.6632 32.5094 3.83037 32.4446 4.14057 32.2656C4.31759 32.1171 4.36434 32.0166 4.4021 31.7904C4.42462 31.4423 4.41201 31.2968 4.18939 31.0156C3.66014 30.6124 3.25384 30.7305 2.81244 31.1719ZM10.2343 33.3594C10.041 33.6493 10.0178 33.8827 10.0781 34.2187C10.2264 34.4736 10.3353 34.6396 10.6201 34.7418C10.8932 34.7904 11.0553 34.7818 11.3134 34.6728C11.615 34.423 11.7082 34.3135 11.7529 33.9111C11.7403 33.59 11.6429 33.4266 11.4062 33.2031C10.9591 32.9003 10.6347 33.0479 10.2343 33.3594ZM5.23432 33.5156C5.09877 33.7867 5.10869 34.0793 5.15619 34.375C5.33363 34.6112 5.33363 34.6112 5.54682 34.7656C5.5726 34.7914 5.59838 34.8172 5.62494 34.8437C6.02509 34.8911 6.02509 34.8911 6.39276 34.7619C6.56157 34.6226 6.69828 34.4939 6.79682 34.2969C6.82612 33.9085 6.80922 33.6678 6.56244 33.3594C6.32728 33.1765 6.07202 33.1709 5.77875 33.1775C5.53563 33.218 5.40223 33.3426 5.23432 33.5156ZM7.65619 35.9375C7.50591 36.2693 7.48307 36.4248 7.58295 36.7773C7.74663 37.0519 7.82914 37.1513 8.12494 37.2656C8.38802 37.3039 8.57493 37.3241 8.80823 37.1832C8.97956 37.0443 9.11931 36.9175 9.21869 36.7187C9.24815 36.3283 9.22595 36.0945 8.98432 35.7812C8.54096 35.4857 8.00966 35.5197 7.65619 35.9375Z" fill="black"/>
<path d="M32.4361 21.0162C32.6915 21.1557 32.8847 21.3679 33.0876 21.5729C33.1634 21.648 33.1634 21.648 33.2406 21.7247C33.4078 21.8909 33.5742 22.0579 33.7405 22.225C33.8571 22.3415 33.9737 22.4578 34.0903 22.5742C34.3354 22.8188 34.5799 23.0639 34.8242 23.3093C35.1348 23.6212 35.4463 23.932 35.7582 24.2425C35.9998 24.4832 36.2407 24.7244 36.4815 24.9658C36.596 25.0804 36.7106 25.1949 36.8255 25.3092C37.6879 26.1684 38.5808 27.058 39.1309 28.1592C39.1732 28.2418 39.1732 28.2418 39.2165 28.326C40.1824 30.2631 40.3116 32.5718 39.6316 34.6216C38.9388 36.6229 37.4837 38.2186 35.625 39.2188C33.6512 40.1652 31.3585 40.3258 29.2843 39.6054C28.0836 39.1681 27.0984 38.4935 26.1716 37.6217C26.1207 37.574 26.0698 37.5263 26.0174 37.4771C25.4831 36.9743 24.9594 36.4609 24.4385 35.9442C24.3895 35.8956 24.3404 35.847 24.2899 35.797C24.0325 35.5415 23.7752 35.2858 23.5182 35.03C23.3065 34.8192 23.0941 34.6091 22.8813 34.3995C22.6218 34.1438 22.3632 33.8871 22.1053 33.6298C22.0074 33.5324 21.9092 33.4354 21.8107 33.3388C21.6743 33.2048 21.5391 33.0696 21.4041 32.9341C21.3633 32.8946 21.3225 32.855 21.2804 32.8143C21.1704 32.7023 21.1704 32.7023 21.0156 32.5C21.0216 32.1569 21.2972 31.951 21.5252 31.7253C21.5706 31.6793 21.6161 31.6334 21.6629 31.5861C21.8158 31.4319 21.9695 31.2786 22.1232 31.1253C22.2328 31.0151 22.3424 30.9048 22.4519 30.7945C22.7498 30.4949 23.0485 30.196 23.3473 29.8973C23.5964 29.6482 23.8452 29.3988 24.094 29.1493C24.6806 28.5612 25.2679 27.9736 25.8556 27.3865C26.4627 26.7799 27.0687 26.1722 27.6741 25.5639C28.1933 25.0423 28.7132 24.5214 29.2338 24.0012C29.545 23.6902 29.8558 23.3789 30.166 23.0668C30.4575 22.7736 30.7499 22.4813 31.043 22.1898C31.1507 22.0824 31.258 21.9746 31.365 21.8665C31.5106 21.7195 31.6573 21.5738 31.8044 21.4283C31.8469 21.3848 31.8895 21.3413 31.9332 21.2965C32.221 21.0155 32.221 21.0155 32.4361 21.0162Z" fill="black"/>
<path d="M11.7968 0.859373C11.8777 0.899354 11.9585 0.939335 12.0419 0.980528C12.4961 1.22494 12.8858 1.51983 13.2726 1.85735C13.3234 1.90158 13.3742 1.94581 13.4266 1.99138C14.0193 2.51354 14.5753 3.07137 15.1315 3.63189C15.2436 3.74433 15.3558 3.85673 15.468 3.9691C15.7592 4.26093 16.05 4.55323 16.3407 4.84564C16.6389 5.14554 16.9377 5.44499 17.2364 5.74447C17.8195 6.32921 18.402 6.91444 18.9843 7.5C18.8572 7.82105 18.6259 8.03599 18.3851 8.27421C18.3394 8.32009 18.2936 8.36598 18.2465 8.41326C18.0929 8.56705 17.9389 8.72028 17.7848 8.87352C17.6746 8.9836 17.5646 9.09371 17.4545 9.20386C17.1554 9.50296 16.8559 9.80158 16.5563 10.1001C16.2433 10.4121 15.9308 10.7246 15.6182 11.037C15.0261 11.6285 14.4336 12.2197 13.841 12.8108C13.1664 13.4836 12.4923 14.1569 11.8181 14.8303C10.4313 16.2155 9.04392 17.6001 7.65617 18.9844C7.32885 18.8341 7.10435 18.6108 6.85319 18.3579C6.78053 18.2856 6.78053 18.2856 6.70639 18.2119C6.54621 18.0524 6.38661 17.8923 6.22703 17.7322C6.11533 17.6206 6.00361 17.5091 5.89187 17.3975C5.65736 17.1632 5.42314 16.9287 5.18911 16.6939C4.89108 16.395 4.59236 16.0968 4.29342 15.7988C4.06222 15.5682 3.83141 15.3372 3.6007 15.1061C3.49084 14.9961 3.38087 14.8863 3.27078 14.7765C2.66538 14.1727 2.08526 13.5688 1.56242 12.8906C1.48844 12.7955 1.48844 12.7955 1.41297 12.6984C0.0989431 10.9743 -0.20483 8.76636 0.0233802 6.65829C0.0849643 6.27489 0.18787 5.91433 0.31242 5.54687C0.329163 5.49685 0.345905 5.44682 0.363155 5.39528C1.08488 3.28894 2.61617 1.66574 4.59007 0.68384C6.87856 -0.395892 9.56293 -0.264595 11.7968 0.859373Z" fill="black"/>
</g>
<defs>
<clipPath id="clip0_156_197">
<rect width="40" height="40" fill="white"/>
</clipPath>
</defs>
</svg>
