<svg width="40" height="40" viewBox="0 0 40 40" fill="none" xmlns="http://www.w3.org/2000/svg">
<g clip-path="url(#clip0_156_201)">
<path d="M4.84367 11.7188C14.8468 11.7188 24.8499 11.7188 35.1562 11.7188C35.1562 12.5977 35.1562 12.5977 35.1261 12.9611C35.1194 13.0441 35.1127 13.1271 35.1058 13.2125C35.0983 13.3012 35.0908 13.3899 35.0831 13.4812C35.0752 13.5774 35.0673 13.6735 35.0592 13.7726C35.0375 14.0374 35.0155 14.3022 34.9933 14.567C34.9695 14.8534 34.9459 15.1399 34.9224 15.4263C34.8762 15.9868 34.8297 16.5472 34.7831 17.1076C34.7452 17.5635 34.7074 18.0194 34.6697 18.4754C34.6643 18.5404 34.659 18.6054 34.6534 18.6724C34.6425 18.8045 34.6316 18.9366 34.6207 19.0687C34.5183 20.3065 34.4156 21.5443 34.3127 22.7821C34.2246 23.8421 34.1369 24.902 34.0493 25.962C33.9475 27.1948 33.8455 28.4276 33.7432 29.6604C33.7323 29.7922 33.7213 29.9239 33.7104 30.0557C33.705 30.1205 33.6997 30.1853 33.6941 30.252C33.6564 30.7067 33.6188 31.1613 33.5813 31.616C33.5354 32.1712 33.4894 32.7263 33.4431 33.2814C33.4195 33.5642 33.3961 33.8469 33.3728 34.1297C33.0362 38.2195 33.0362 38.2195 31.6637 39.3939C30.9908 39.9089 30.2967 40.0235 29.4694 40.0209C29.3433 40.0214 29.3433 40.0214 29.2146 40.022C28.9333 40.023 28.652 40.0228 28.3707 40.0227C28.1688 40.0232 27.9669 40.0237 27.765 40.0243C27.2738 40.0256 26.7825 40.026 26.2913 40.0261C25.8918 40.0262 25.4923 40.0265 25.0927 40.027C23.959 40.0284 22.8252 40.0291 21.6915 40.029C21.5999 40.029 21.5999 40.029 21.5064 40.029C21.4147 40.0289 21.4147 40.0289 21.3211 40.0289C20.3305 40.0289 19.34 40.0304 18.3494 40.0326C17.3312 40.0348 16.313 40.0359 15.2948 40.0358C14.7236 40.0357 14.1524 40.0361 13.5812 40.0378C13.0439 40.0394 12.5065 40.0393 11.9691 40.0382C11.7722 40.038 11.5753 40.0384 11.3784 40.0394C11.1089 40.0406 10.8395 40.0398 10.5701 40.0386C10.4927 40.0394 10.4153 40.0402 10.3356 40.0411C9.49131 40.0328 8.78605 39.7353 8.12492 39.2188C8.07678 39.1814 8.02864 39.144 7.97905 39.1055C7.08045 38.3128 6.87883 37.1102 6.78848 35.9792C6.78105 35.891 6.77362 35.8029 6.76596 35.7121C6.74119 35.417 6.71712 35.1218 6.69304 34.8267C6.67531 34.6132 6.65745 34.3997 6.63958 34.1862C6.59596 33.6638 6.55286 33.1414 6.50992 32.619C6.45951 32.0058 6.4086 31.3927 6.35765 30.7795C6.28718 29.9312 6.21684 29.0829 6.1468 28.2346C5.99563 26.4038 5.84322 24.5732 5.69003 22.7425C5.60758 21.7571 5.52539 20.7717 5.44324 19.7863C5.43083 19.6374 5.41842 19.4885 5.40601 19.3397C5.39989 19.2663 5.39377 19.1929 5.38747 19.1173C5.34431 18.5999 5.30102 18.0825 5.25767 17.5651C5.20457 16.9313 5.15171 16.2974 5.09914 15.6635C5.07215 15.3382 5.04506 15.0129 5.01769 14.6876C4.99249 14.3881 4.96759 14.0886 4.94292 13.7891C4.93395 13.6808 4.92488 13.5726 4.91568 13.4643C4.90311 13.3162 4.89099 13.1681 4.87889 13.02C4.87204 12.9379 4.86519 12.8557 4.85813 12.7711C4.83945 12.4208 4.84367 12.0696 4.84367 11.7188ZM12.1093 14.4531C11.8231 14.8115 11.8439 15.1385 11.8542 15.5762C11.8551 15.6485 11.856 15.7208 11.857 15.7952C11.8709 16.6248 11.9199 17.4524 11.9716 18.2803C11.982 18.4533 11.9924 18.6264 12.0028 18.7994C12.0307 19.2639 12.0593 19.7284 12.0881 20.1929C12.1121 20.582 12.1359 20.9711 12.1596 21.3603C12.2125 22.2257 12.2659 23.0912 12.3196 23.9566C12.3228 24.0083 12.326 24.0599 12.3293 24.1131C12.3342 24.1906 12.3342 24.1906 12.3391 24.2697C12.3912 25.1102 12.4424 25.9508 12.4932 26.7914C12.5455 27.658 12.5986 28.5246 12.6524 29.3911C12.6825 29.8762 12.7123 30.3614 12.7413 30.8466C12.7686 31.3019 12.7969 31.7572 12.8258 32.2125C12.8362 32.3792 12.8463 32.546 12.8561 32.7127C12.8695 32.9408 12.8841 33.1688 12.899 33.3968C12.9025 33.4623 12.9061 33.5279 12.9098 33.5954C12.947 34.1343 13.0162 34.7117 13.4423 35.083C13.7881 35.294 14.1388 35.3043 14.5312 35.2344C14.8845 35.0609 15.0704 34.8866 15.2343 34.5312C15.2658 34.2865 15.2608 34.0451 15.255 33.7988C15.2541 33.7265 15.2532 33.6542 15.2522 33.5798C15.2383 32.7502 15.1893 31.9226 15.1376 31.0947C15.1272 30.9217 15.1168 30.7486 15.1064 30.5756C15.0785 30.1111 15.0499 29.6466 15.0212 29.1821C14.9971 28.793 14.9733 28.4039 14.9496 28.0147C14.8967 27.1493 14.8433 26.2838 14.7896 25.4184C14.7864 25.3667 14.7832 25.3151 14.7799 25.2619C14.7767 25.2102 14.7735 25.1585 14.7701 25.1053C14.718 24.2648 14.6668 23.4242 14.616 22.5836C14.5637 21.717 14.5106 20.8504 14.4569 19.9839C14.4268 19.4988 14.397 19.0136 14.3679 18.5284C14.3406 18.0731 14.3124 17.6178 14.2834 17.1625C14.273 16.9958 14.2629 16.829 14.2531 16.6623C14.2397 16.4342 14.2251 16.2062 14.2103 15.9782C14.2067 15.9127 14.2031 15.8471 14.1994 15.7796C14.1631 15.2541 14.0946 14.7151 13.706 14.3359C13.1741 14.0087 12.584 14.0247 12.1093 14.4531ZM19.1405 14.4531C18.7877 14.9277 18.8166 15.4288 18.8176 15.9954C18.8174 16.0726 18.8172 16.1497 18.8171 16.2292C18.8166 16.488 18.8166 16.7468 18.8167 17.0056C18.8165 17.191 18.8162 17.3764 18.8159 17.5619C18.8153 18.0135 18.815 18.465 18.815 18.9166C18.815 19.2837 18.8148 19.6508 18.8145 20.018C18.8139 21.0591 18.8135 22.1003 18.8136 23.1414C18.8136 23.1975 18.8136 23.2536 18.8136 23.3114C18.8136 23.3676 18.8136 23.4238 18.8136 23.4817C18.8136 24.3921 18.8129 25.3026 18.8118 26.2131C18.8106 27.1483 18.8101 28.0835 18.8102 29.0187C18.8102 29.5436 18.81 30.0685 18.8091 30.5934C18.8084 31.087 18.8084 31.5806 18.8089 32.0743C18.809 32.2554 18.8088 32.4366 18.8084 32.6178C18.8078 32.8651 18.8081 33.1124 18.8087 33.3597C18.8083 33.4314 18.8079 33.5031 18.8075 33.577C18.8102 34.0837 18.83 34.5095 19.1747 34.9072C19.5352 35.2149 19.7335 35.2692 20.1946 35.2591C20.4837 35.2226 20.6451 35.1152 20.8593 34.9219C21.2122 34.4473 21.1832 33.9462 21.1822 33.3796C21.1824 33.3024 21.1826 33.2253 21.1828 33.1458C21.1833 32.887 21.1832 32.6282 21.1831 32.3694C21.1834 32.184 21.1836 31.9986 21.1839 31.8131C21.1846 31.3615 21.1848 30.91 21.1848 30.4584C21.1849 30.0913 21.185 29.7242 21.1853 29.357C21.186 28.3159 21.1863 27.2747 21.1863 26.2336C21.1863 26.1494 21.1863 26.1494 21.1863 26.0636C21.1863 26.0074 21.1863 25.9512 21.1863 25.8933C21.1862 24.9829 21.187 24.0724 21.1881 23.1619C21.1892 22.2267 21.1897 21.2915 21.1897 20.3563C21.1896 19.8314 21.1899 19.3065 21.1907 18.7816C21.1915 18.288 21.1915 17.7944 21.1909 17.3007C21.1908 17.1196 21.191 16.9384 21.1915 16.7572C21.1921 16.5099 21.1917 16.2626 21.1911 16.0153C21.1915 15.9436 21.1919 15.8719 21.1923 15.798C21.1896 15.2913 21.1698 14.8655 20.8251 14.4678C20.4647 14.1601 20.2663 14.1058 19.8052 14.1159C19.5162 14.1524 19.3548 14.2598 19.1405 14.4531ZM26.0937 14.5312C25.873 14.9929 25.8171 15.4736 25.7896 15.9782C25.7849 16.0497 25.7803 16.1213 25.7754 16.195C25.7602 16.4329 25.7462 16.6709 25.7323 16.909C25.7216 17.0803 25.7107 17.2517 25.6999 17.4231C25.6706 17.8877 25.6425 18.3523 25.6147 18.8169C25.5853 19.3048 25.5549 19.7926 25.5246 20.2804C25.4738 21.1005 25.4238 21.9207 25.3743 22.7409C25.3236 23.5813 25.2721 24.4216 25.22 25.2619C25.2168 25.3135 25.2136 25.3652 25.2103 25.4184C25.2071 25.4699 25.2039 25.5215 25.2006 25.5746C25.144 26.4863 25.088 27.398 25.0322 28.3098C25.0086 28.6961 24.9849 29.0825 24.9609 29.4688C24.9327 29.9256 24.905 30.3824 24.8776 30.8393C24.8676 31.0056 24.8574 31.172 24.847 31.3384C24.8148 31.8556 24.7872 32.3728 24.7655 32.8906C24.7622 32.9657 24.7588 33.0408 24.7553 33.1182C24.7461 33.3418 24.7401 33.5653 24.7351 33.789C24.7322 33.8558 24.7293 33.9225 24.7263 33.9913C24.7205 34.4778 24.8368 34.7105 25.1562 35.0781C25.4844 35.3082 25.8649 35.2901 26.2499 35.2344C26.5356 35.125 26.7354 34.9722 26.869 34.6927C27.012 34.2581 27.076 33.8527 27.1009 33.3968C27.1055 33.3253 27.1102 33.2537 27.115 33.18C27.1303 32.9421 27.1442 32.7041 27.1582 32.466C27.1689 32.2947 27.1797 32.1233 27.1906 31.9519C27.2199 31.4873 27.248 31.0227 27.2758 30.558C27.3052 30.0702 27.3356 29.5824 27.3659 29.0946C27.4166 28.2745 27.4666 27.4543 27.5162 26.6341C27.5669 25.7937 27.6183 24.9534 27.6705 24.1131C27.6737 24.0615 27.6769 24.0098 27.6802 23.9566C27.6834 23.9051 27.6866 23.8535 27.6899 23.8004C27.7465 22.8887 27.8025 21.977 27.8582 21.0652C27.8818 20.6789 27.9056 20.2925 27.9295 19.9062C27.9578 19.4494 27.9855 18.9926 28.0128 18.5357C28.0229 18.3694 28.0331 18.203 28.0434 18.0366C28.0757 17.5194 28.1033 17.0022 28.1249 16.4844C28.13 16.3717 28.13 16.3717 28.1352 16.2568C28.1443 16.0332 28.1503 15.8097 28.1554 15.586C28.1583 15.5192 28.1612 15.4525 28.1642 15.3837C28.17 14.8972 28.0536 14.6645 27.7343 14.2969C27.2124 13.931 26.4998 14.0723 26.0937 14.5312Z" fill="black"/>
<path d="M14.9971 -0.020864C15.0886 -0.0215304 15.18 -0.0221968 15.2742 -0.0228834C15.3734 -0.0228126 15.4727 -0.0227418 15.5749 -0.0226688C15.6814 -0.0231368 15.7878 -0.0236686 15.8942 -0.0242591C16.1825 -0.025636 16.4708 -0.0260055 16.7592 -0.0261053C16.9396 -0.0262166 17.1201 -0.0265506 17.3006 -0.0269642C17.9312 -0.0284089 18.5618 -0.029048 19.1925 -0.0289249C19.7786 -0.0288312 20.3648 -0.0304776 20.9509 -0.0329474C21.4554 -0.0349969 21.9599 -0.0358284 22.4645 -0.0357288C22.7652 -0.0356891 23.066 -0.0361248 23.3667 -0.0377879C23.65 -0.0393114 23.9332 -0.0393056 24.2164 -0.0381759C24.3686 -0.0379371 24.5208 -0.039231 24.673 -0.0405884C25.6785 -0.033467 26.4324 0.273984 27.1876 0.937529C27.7695 1.55611 28.2274 2.34084 28.2185 3.20743C28.218 3.29403 28.2175 3.38064 28.2169 3.46988C28.2156 3.5591 28.2143 3.64833 28.213 3.74026C28.2123 3.8313 28.2116 3.92234 28.2108 4.01614C28.209 4.23995 28.2064 4.46373 28.2032 4.68753C28.2974 4.68666 28.3916 4.68579 28.4886 4.6849C29.3782 4.67697 30.2678 4.67112 31.1575 4.66729C31.6148 4.66526 32.0721 4.6625 32.5294 4.65806C32.9711 4.6538 33.4128 4.65148 33.8546 4.65047C34.0227 4.64975 34.1908 4.64834 34.3589 4.64623C34.5953 4.64337 34.8316 4.643 35.0679 4.64318C35.1367 4.64178 35.2055 4.64037 35.2764 4.63893C35.8957 4.644 36.3373 4.89197 36.8555 5.20999C37.412 5.78191 37.6028 6.38936 37.6088 7.16657C37.5996 7.66491 37.4687 8.02357 37.1876 8.43753C37.1441 8.50843 37.1006 8.57933 37.0557 8.65237C36.5629 9.13186 36.0196 9.38444 35.3374 9.38573C35.257 9.38604 35.257 9.38604 35.175 9.38636C34.9941 9.38696 34.8133 9.38701 34.6324 9.38705C34.5019 9.38737 34.3714 9.38771 34.2409 9.38809C33.8813 9.38903 33.5217 9.38947 33.1621 9.38982C32.7747 9.39029 32.3872 9.39119 31.9998 9.39203C31.0635 9.39395 30.1273 9.39509 29.191 9.3961C28.9266 9.39639 28.6622 9.3967 28.3978 9.39702C26.7565 9.39899 25.1152 9.40071 23.4738 9.40168C23.0936 9.40191 22.7133 9.40214 22.333 9.40238C22.2385 9.40244 22.1439 9.4025 22.0465 9.40256C20.5153 9.40355 18.9841 9.40614 17.4529 9.4094C15.8813 9.41271 14.3097 9.41455 12.7381 9.41496C11.8555 9.41523 10.9729 9.41614 10.0903 9.41872C9.33866 9.4209 8.58702 9.42176 7.83535 9.42089C7.45187 9.42048 7.06841 9.42071 6.68493 9.42264C6.33364 9.4244 5.9824 9.42434 5.6311 9.42286C5.50424 9.42264 5.37736 9.42308 5.2505 9.42425C4.5368 9.43045 3.96929 9.3873 3.35945 8.9844C3.28855 8.9409 3.21765 8.89739 3.14461 8.85257C2.58814 8.28065 2.39731 7.6732 2.39136 6.89599C2.40057 6.39765 2.53141 6.03899 2.81258 5.62503C2.85608 5.55413 2.89959 5.48323 2.94441 5.41018C3.34914 5.0164 3.88397 4.6774 4.45955 4.67813C4.55666 4.67797 4.55666 4.67797 4.65574 4.67781C4.72649 4.67809 4.79724 4.67837 4.87013 4.67866C4.98219 4.67864 4.98219 4.67864 5.09652 4.67862C5.34381 4.67868 5.5911 4.67929 5.83839 4.6799C6.00971 4.68004 6.18103 4.68016 6.35235 4.68023C6.80355 4.68053 7.25475 4.6813 7.70594 4.68216C8.16624 4.68296 8.62654 4.68332 9.08684 4.68371C9.99021 4.68455 10.8936 4.68589 11.797 4.68753C11.7945 4.60553 11.7945 4.60553 11.792 4.52188C11.7854 4.26949 11.7814 4.01712 11.7774 3.76468C11.7748 3.67872 11.7722 3.59277 11.7695 3.50421C11.7577 2.50915 12.0799 1.76055 12.7345 1.01565C13.3519 0.434844 14.1333 -0.0180045 14.9971 -0.020864ZM14.546 2.69046C14.0056 3.32347 14.1407 3.80697 14.1407 4.68753C18.0079 4.68753 21.8751 4.68753 25.8595 4.68753C25.931 3.63883 25.931 3.63883 25.5128 2.74905C25.1108 2.40587 24.8062 2.33433 24.2884 2.33333C24.2097 2.333 24.1311 2.33267 24.0501 2.33232C23.9647 2.33236 23.8793 2.33239 23.7913 2.33243C23.7007 2.33217 23.6101 2.33191 23.5167 2.33163C23.2171 2.33089 22.9175 2.33074 22.6179 2.33066C22.4622 2.33047 22.3065 2.33028 22.1509 2.33007C21.6615 2.32944 21.1721 2.32925 20.6827 2.3293C20.1787 2.32935 19.6747 2.32852 19.1707 2.32729C18.7373 2.32627 18.3038 2.32585 17.8703 2.3259C17.6118 2.32592 17.3532 2.32563 17.0947 2.32487C16.8061 2.3241 16.5176 2.32433 16.2291 2.3248C16.144 2.32436 16.0589 2.32392 15.9712 2.32347C15.2009 2.32377 15.2009 2.32377 14.546 2.69046Z" fill="black"/>
</g>
<defs>
<clipPath id="clip0_156_201">
<rect width="40" height="40" fill="white"/>
</clipPath>
</defs>
</svg>
