<svg width="40" height="40" viewBox="0 0 40 40" fill="none" xmlns="http://www.w3.org/2000/svg">
<g clip-path="url(#clip0_155_186)">
<path d="M19.9855 -0.0195312C20.0649 -0.0215454 20.1444 -0.0235596 20.2262 -0.0256348C20.7567 0.0304086 21.069 0.336514 21.4308 0.693359C24.7297 3.84095 29.1633 5.44415 33.6744 5.66315C33.7355 5.66619 33.7965 5.66923 33.8594 5.67236C34.1633 5.6872 34.4671 5.70014 34.7712 5.71018C35.9811 5.75767 35.9811 5.75767 36.472 6.23291C36.5003 6.27722 36.5286 6.32153 36.5577 6.36719C36.5874 6.4115 36.6171 6.45581 36.6477 6.50146C36.7773 6.75501 36.807 7.00144 36.813 7.28342C36.8146 7.34904 36.8161 7.41465 36.8177 7.48226C36.819 7.55388 36.8204 7.62549 36.8217 7.69928C36.8233 7.77561 36.825 7.85194 36.8267 7.93058C36.8319 8.18581 36.8365 8.44104 36.8409 8.69629C36.8425 8.7847 36.8441 8.87311 36.8458 8.9642C36.968 15.8606 36.968 15.8606 36.7189 18.75C36.7109 18.8431 36.7029 18.9362 36.6947 19.0321C36.1364 25.2546 33.9499 31.2572 29.0431 35.3564C28.8945 35.4734 28.7445 35.5888 28.5939 35.7031C28.5403 35.7441 28.4867 35.7851 28.4315 35.8273C27.6288 36.4391 26.8189 37.008 25.9376 37.5C25.8405 37.5547 25.8405 37.5547 25.7413 37.6104C20.9677 40.2875 20.9677 40.2875 19.4312 39.9623C19.2516 39.908 19.077 39.8465 18.9015 39.7803C18.8352 39.7561 18.769 39.7319 18.7007 39.7069C16.0389 38.7124 13.5638 37.3789 11.3282 35.625C11.286 35.592 11.2438 35.5589 11.2004 35.5249C10.7457 35.1665 10.3224 34.7926 9.92198 34.375C9.72851 34.1799 9.53383 33.9867 9.33543 33.7967C8.76967 33.2487 8.28282 32.6624 7.8126 32.0312C7.76198 31.9637 7.76198 31.9637 7.71033 31.8948C7.20188 31.2123 6.74885 30.5052 6.32823 29.7656C6.29975 29.7163 6.27128 29.6669 6.24194 29.6161C4.38952 26.3796 3.62478 22.6082 3.30088 18.9307C3.29395 18.8523 3.29395 18.8523 3.28688 18.7723C3.2547 18.4005 3.22738 18.0286 3.20323 17.6562C3.19942 17.5977 3.19562 17.5392 3.19169 17.4789C3.11594 16.2607 3.11255 15.0431 3.11503 13.823C3.11534 13.6602 3.11554 13.4974 3.1157 13.3347C3.11743 11.8911 3.12574 10.4475 3.15006 9.00408C3.15293 8.83266 3.15559 8.66124 3.15802 8.48981C3.16152 8.25334 3.16603 8.01691 3.17088 7.78046C3.17178 7.712 3.17269 7.64354 3.17362 7.57301C3.18886 6.94633 3.28586 6.46955 3.7501 6.01562C4.13974 5.81726 4.44038 5.74939 4.88261 5.73242C4.93744 5.72994 4.99227 5.72745 5.04876 5.72489C5.16569 5.71961 5.28264 5.71475 5.3996 5.71027C5.70806 5.69813 6.0163 5.6819 6.32457 5.66559C6.38573 5.66238 6.44689 5.65917 6.50991 5.65586C7.31499 5.61184 8.11062 5.52012 8.90635 5.39062C8.97996 5.37869 9.05356 5.36676 9.1294 5.35446C12.5471 4.77493 15.7792 3.25861 18.3174 0.885315C19.2911 -0.00905089 19.2911 -0.00905086 19.9855 -0.0195312ZM25.7032 13.8281C25.671 13.8608 25.6388 13.8934 25.6056 13.927C25.3478 14.1877 25.0893 14.4477 24.8298 14.7067C24.7805 14.756 24.7311 14.8053 24.6803 14.8561C24.4836 15.0461 24.2784 15.2248 24.0693 15.401C23.789 15.6519 23.5286 15.9232 23.2641 16.1907C22.9954 16.4613 22.72 16.7165 22.429 16.9632C22.1661 17.1986 21.9216 17.452 21.6737 17.703C21.4153 17.9633 21.1488 18.2072 20.8692 18.4448C20.649 18.6424 20.4423 18.8521 20.2345 19.0625C19.9375 19.3631 19.6369 19.6496 19.3132 19.9216C19.1646 20.0565 19.0264 20.1948 18.8877 20.3397C18.8426 20.3865 18.7974 20.4333 18.7508 20.4816C18.6603 20.576 18.5706 20.6713 18.4819 20.7673C18.3558 20.8984 18.3558 20.8984 18.1251 21.0938C17.8088 21.0595 17.6882 20.9057 17.4855 20.6689C17.4239 20.5981 17.3624 20.5273 17.299 20.4544C17.2365 20.3818 17.1739 20.3092 17.1095 20.2344C16.9926 20.1039 16.8755 19.9736 16.7579 19.8438C16.0548 19.0625 16.0548 19.0625 15.8799 18.8681C15.7598 18.7347 15.6396 18.6015 15.5192 18.4683C15.1845 18.0978 14.8542 17.7246 14.5314 17.3438C14.093 17.6589 13.6919 17.9973 13.3009 18.3691C13.2504 18.4166 13.2 18.464 13.148 18.5129C12.9022 18.7445 12.659 18.9781 12.422 19.2188C12.8003 19.641 13.1807 20.0613 13.5646 20.4785C13.8427 20.781 14.1163 21.0867 14.3855 21.3971C14.6078 21.6491 14.8358 21.8959 15.0632 22.1432C15.2942 22.3944 15.5239 22.6467 15.7521 22.9004C15.8084 22.9629 15.8646 23.0255 15.9227 23.0899C16.0414 23.2227 16.1596 23.356 16.2773 23.4897C16.834 24.1827 16.834 24.1827 17.6005 24.5554C18.1992 24.5831 18.5336 24.4524 18.9845 24.0625C19.1261 23.9302 19.2619 23.7948 19.3956 23.6545C19.5355 23.5114 19.6819 23.3819 19.8341 23.252C20.0692 23.0495 20.29 22.8381 20.5079 22.6172C20.7705 22.351 21.0421 22.1035 21.3258 21.8604C21.5029 21.7023 21.6693 21.5362 21.836 21.3672C22.0986 21.101 22.3702 20.8535 22.6539 20.6104C22.8311 20.4523 22.9974 20.2862 23.1642 20.1172C23.4268 19.851 23.6983 19.6035 23.982 19.3604C24.222 19.1463 24.4445 18.9157 24.6702 18.6868C24.8772 18.4827 25.0948 18.2943 25.3154 18.1052C25.4773 17.9612 25.6294 17.8106 25.7814 17.6562C25.9813 17.4531 26.1851 17.2607 26.4015 17.0752C26.7604 16.7666 27.0904 16.4312 27.422 16.0938C27.5 16.0155 27.5781 15.9374 27.6564 15.8594C27.6119 15.8159 27.5675 15.7724 27.5218 15.7275C27.1798 15.3895 26.8522 15.0463 26.5391 14.6814C26.3238 14.4378 26.092 14.2114 25.8595 13.9844C25.7821 13.907 25.7821 13.907 25.7032 13.8281Z" fill="black"/>
</g>
<defs>
<clipPath id="clip0_155_186">
<rect width="40" height="40" fill="white"/>
</clipPath>
</defs>
</svg>
