<svg width="50" height="50" viewBox="0 0 50 50" fill="none" xmlns="http://www.w3.org/2000/svg">
<g clip-path="url(#clip0_55_516)">
<path d="M18.8925 -0.0152042C19.0032 -0.0160441 19.114 -0.016884 19.2281 -0.0177493C19.3497 -0.0181653 19.4713 -0.0185813 19.5966 -0.0190099C19.7246 -0.0198085 19.8526 -0.0206071 19.9845 -0.0214299C20.4094 -0.0239886 20.8343 -0.0254856 21.2592 -0.0268778C21.4057 -0.0274013 21.5522 -0.0279265 21.6987 -0.0284532C22.3085 -0.0305655 22.9183 -0.0323949 23.5281 -0.0334944C24.4005 -0.0350781 25.2729 -0.0383124 26.1453 -0.0438851C26.7595 -0.0476735 27.3736 -0.0495729 27.9878 -0.0500882C28.3542 -0.0504439 28.7205 -0.0516057 29.0869 -0.0547858C29.4322 -0.0577394 29.7774 -0.0583341 30.1226 -0.0571897C30.3083 -0.0571581 30.4941 -0.0595369 30.6798 -0.0620117C31.4419 -0.0565166 31.9706 0.0834708 32.6174 0.488106C32.706 0.542489 32.7947 0.596871 32.886 0.652901C33.5734 1.3594 33.8258 2.12235 33.8338 3.0851C33.8163 3.86103 33.5509 4.49151 33.0328 5.07452C32.6983 5.37926 32.3389 5.56104 31.9338 5.76154C31.8993 7.24384 31.8736 8.72612 31.8579 10.2087C31.8504 10.8975 31.8402 11.586 31.8233 12.2746C31.5864 16.3165 31.5864 16.3165 33.2112 19.8754C33.5419 20.3016 33.7841 20.7786 34.0395 21.2523C34.143 21.4358 34.2469 21.6192 34.3512 21.8023C34.6867 22.3951 35.0194 22.9893 35.3518 23.5838C35.7893 24.3662 36.2286 25.1475 36.6702 25.9276C37.1699 26.8103 37.6662 27.695 38.1613 28.5803C38.5414 29.2596 38.9234 29.9377 39.3069 30.6151C39.8066 31.4978 40.3029 32.3825 40.798 33.2678C41.1781 33.9471 41.5602 34.6252 41.9436 35.3026C42.1553 35.6769 42.3669 36.0512 42.5784 36.4256C42.6353 36.5264 42.6923 36.6271 42.7509 36.731C43.0986 37.3469 43.4443 37.964 43.7873 38.5826C43.889 38.7653 43.9912 38.9477 44.0943 39.1297C45.1542 41.0029 45.6588 42.8225 45.1338 44.9667C44.5052 46.8716 43.3327 48.3863 41.5606 49.3395C40.7666 49.7304 39.9308 50.0112 39.0405 50.0129C38.8884 50.0136 38.8884 50.0136 38.7331 50.0143C38.6223 50.0142 38.5115 50.0142 38.3973 50.0142C38.2791 50.0146 38.1609 50.0149 38.0391 50.0153C37.7112 50.0162 37.3834 50.0166 37.0555 50.0169C36.7017 50.0173 36.3479 50.0182 35.9942 50.0191C35.1398 50.021 34.2855 50.022 33.4311 50.0228C33.0284 50.0233 32.6256 50.0238 32.2228 50.0243C30.8831 50.026 29.5434 50.0274 28.2037 50.0281C27.8562 50.0283 27.5086 50.0285 27.1611 50.0286C27.0747 50.0287 26.9884 50.0287 26.8994 50.0288C25.5016 50.0296 24.1039 50.0321 22.7062 50.0353C21.2697 50.0385 19.8332 50.0402 18.3967 50.0405C17.5908 50.0408 16.7848 50.0416 15.9789 50.0441C15.2922 50.0462 14.6055 50.047 13.9188 50.0461C13.569 50.0456 13.2191 50.0458 12.8692 50.0477C10.4177 50.0603 8.50455 49.8111 6.64086 48.0467C5.32627 46.6991 4.64927 44.8162 4.65829 42.9547C4.69773 41.1798 5.50265 39.8012 6.34789 38.2811C6.40102 38.1854 6.45414 38.0898 6.50887 37.9912C6.82037 37.4327 7.13665 36.877 7.45411 36.3218C7.73928 35.8209 8.01994 35.3175 8.30102 34.8143C8.79028 33.9393 9.2823 33.066 9.77616 32.1936C10.1653 31.5057 10.552 30.8165 10.9377 30.1268C11.4271 29.2518 11.919 28.3785 12.4129 27.5061C12.802 26.8182 13.1887 26.129 13.5745 25.4393C14.0637 24.5645 14.5555 23.6912 15.0494 22.819C15.4925 22.0359 15.9322 21.251 16.3702 20.4651C16.4216 20.3731 16.473 20.2812 16.5259 20.1864C16.5776 20.091 16.6293 19.9956 16.6826 19.8973C16.8348 19.625 17.0037 19.3708 17.1819 19.1149C18.1462 17.675 18.2381 16.4374 18.2154 14.7371C18.2157 14.4787 18.2164 14.2203 18.2174 13.9619C18.2186 13.4249 18.2151 12.888 18.2087 12.351C18.2013 11.7316 18.2017 11.1126 18.2062 10.4932C18.2103 9.89291 18.2088 9.2928 18.2049 8.69254C18.2038 8.43872 18.204 8.18489 18.2057 7.93108C18.2073 7.57757 18.2025 7.2247 18.1961 6.87126C18.1978 6.76701 18.1994 6.66276 18.2012 6.55535C18.1919 6.26008 18.175 6.03671 18.0666 5.76154C17.8337 5.56035 17.6105 5.43221 17.3319 5.30232C16.7284 4.9861 16.4366 4.32475 16.2112 3.71076C16.0958 2.76764 16.1565 1.9711 16.6995 1.1717C16.7538 1.08308 16.8082 0.994454 16.8643 0.903145C17.43 0.352709 18.1014 -0.0107385 18.8925 -0.0152042ZM18.4573 2.24592C18.2179 2.60498 18.1815 2.90307 18.262 3.32014C18.5255 3.66419 18.719 3.83113 19.1409 3.90608C19.3279 3.91919 19.5153 3.9279 19.7028 3.93354C19.8103 3.93719 19.9179 3.94084 20.0287 3.9446C20.2551 3.95148 20.4814 3.95835 20.7077 3.9652C20.8152 3.96885 20.9226 3.9725 21.0333 3.97627C21.1807 3.9807 21.1807 3.9807 21.3311 3.98523C21.5823 4.00373 21.5823 4.00373 21.8752 4.10139C21.9712 4.3893 21.986 4.58249 21.9851 4.88264C21.9855 5.00953 21.9855 5.00953 21.9859 5.13899C21.9729 5.37092 21.9729 5.37092 21.8752 5.66389C21.5275 5.7798 21.1942 5.79582 20.8315 5.81648C20.763 5.82069 20.6944 5.82491 20.6238 5.82925C20.455 5.83959 20.2862 5.84944 20.1174 5.8592C20.1182 5.92087 20.1189 5.98254 20.1197 6.04607C20.1378 7.5587 20.1481 9.07117 20.1501 10.5839C20.1512 11.3155 20.1548 12.047 20.1646 12.7785C20.1732 13.4174 20.1767 14.0562 20.1747 14.6952C20.1738 15.0325 20.1751 15.3693 20.1824 15.7066C20.2173 17.5965 19.881 18.8539 18.8294 20.4311C18.5356 20.8828 18.2786 21.3548 18.0178 21.826C17.9132 22.0112 17.8085 22.1964 17.7035 22.3814C17.3671 22.9766 17.0331 23.5731 16.6995 24.1697C16.2105 25.044 15.7189 25.9168 15.2254 26.7885C14.7671 27.5985 14.3119 28.4103 13.8588 29.2233C13.6152 29.6598 13.3708 30.0954 13.1159 30.5254C13.0782 30.5894 13.0405 30.6534 13.0016 30.7194C12.9056 30.8812 12.8085 31.0423 12.7112 31.2033C12.562 31.4495 12.562 31.4495 12.6955 31.7381C12.8801 31.8213 12.8801 31.8213 13.1091 31.8667C13.1955 31.8869 13.282 31.9071 13.3711 31.9279C13.4624 31.9478 13.5537 31.9678 13.6477 31.9884C13.7344 32.0087 13.8212 32.029 13.9105 32.05C15.1562 32.3342 16.3645 32.4588 17.6394 32.4522C17.7491 32.4519 17.7491 32.4519 17.861 32.4516C18.9927 32.4464 20.0887 32.3989 21.1916 32.1287C21.3143 32.0988 21.3143 32.0988 21.4395 32.0684C22.8416 31.716 24.1482 31.2145 25.4546 30.6009C28.2813 29.2747 31.0456 28.5231 34.1738 28.4544C34.3177 28.4507 34.4616 28.4469 34.6055 28.443C34.9519 28.4338 35.2983 28.4255 35.6448 28.4178C35.2572 27.6292 34.861 26.8516 34.418 26.0924C34.3158 25.9153 34.2137 25.7381 34.1116 25.561C34.059 25.4696 34.0063 25.3782 33.952 25.284C33.6705 24.7924 33.3942 24.298 33.1179 23.8035C33.0326 23.651 33.0326 23.651 32.9455 23.4953C32.712 23.0777 32.4787 22.6599 32.2456 22.2421C32.1278 22.0309 32.0099 21.8198 31.892 21.6087C31.7832 21.4139 31.6745 21.219 31.566 21.0241C31.4892 20.8866 31.4892 20.8866 31.4108 20.7464C31.3603 20.6531 31.3097 20.5597 31.2577 20.4635C31.1168 20.2126 30.96 19.9831 30.7896 19.7514C29.853 18.4166 29.828 17.1573 29.8521 15.569C29.8561 15.2264 29.8539 14.8838 29.8525 14.5411C29.8507 13.8954 29.8542 13.2498 29.8598 12.6041C29.866 11.8677 29.8659 11.1313 29.8654 10.3949C29.8645 8.88295 29.8712 7.37112 29.883 5.8592C29.7295 5.85033 29.7295 5.85033 29.5729 5.84127C29.4383 5.83303 29.3036 5.82476 29.1689 5.81648C29.1015 5.81264 29.0341 5.8088 28.9647 5.80484C28.6651 5.78603 28.4114 5.75928 28.1252 5.66389C28.0293 5.37597 28.0145 5.18278 28.0154 4.88264C28.0151 4.79804 28.0149 4.71345 28.0146 4.62629C28.0276 4.39436 28.0276 4.39436 28.1252 4.10139C28.4254 4.00132 28.6421 3.98873 28.9568 3.98313C29.063 3.98036 29.1691 3.97759 29.2784 3.97474C29.5009 3.96969 29.7235 3.96535 29.946 3.96177C30.5464 3.94476 31.019 3.91866 31.5432 3.61311C31.7826 3.25404 31.819 2.95596 31.7385 2.53889C31.4754 2.19532 31.2813 2.0278 30.8596 1.95295C30.6974 1.94386 30.5348 1.93979 30.3723 1.93924C30.2742 1.93868 30.176 1.93812 30.0749 1.93755C29.9143 1.93738 29.9143 1.93738 29.7504 1.93721C29.5805 1.93649 29.5805 1.93649 29.4072 1.93575C29.0321 1.93432 28.6571 1.93365 28.282 1.93311C28.0873 1.93269 27.8926 1.93227 27.6979 1.93185C27.1554 1.93069 26.6129 1.92996 26.0704 1.92962C25.3699 1.92918 24.6693 1.92747 23.9688 1.92464C23.4265 1.92253 22.8843 1.92154 22.342 1.92141C22.0185 1.92131 21.695 1.9206 21.3715 1.91899C21.0103 1.91732 20.6492 1.91751 20.288 1.91814C20.1815 1.91724 20.075 1.91634 19.9653 1.91541C19.3884 1.91858 18.9617 1.95534 18.4573 2.24592ZM26.0613 32.4883C24.5986 33.2135 23.08 33.7355 21.4846 34.0819C21.4106 34.098 21.3365 34.1141 21.2603 34.1307C18.2473 34.7492 14.9676 34.4816 12.0463 33.589C11.7287 33.4826 11.7287 33.4826 11.426 33.4959C11.3853 33.5699 11.3446 33.644 11.3027 33.7202C10.6128 34.975 9.9226 36.2296 9.21655 37.4754C9.1663 37.5642 9.11606 37.653 9.06429 37.7444C8.84758 38.1272 8.63063 38.5097 8.41284 38.8919C8.22649 39.219 8.04094 39.5465 7.85546 39.8741C7.7699 40.0235 7.7699 40.0235 7.68261 40.1759C6.95729 41.4604 6.50308 42.6824 6.80528 44.1778C7.21391 45.6123 7.99881 46.6958 9.27758 47.4608C10.7678 48.25 12.5801 48.0748 14.2111 48.072C14.4727 48.0722 14.7343 48.0726 14.9959 48.073C15.63 48.0739 16.2641 48.0737 16.8983 48.0731C17.4141 48.0727 17.9298 48.0726 18.4456 48.0728C18.5193 48.0729 18.593 48.0729 18.6689 48.0729C18.8187 48.073 18.9684 48.0731 19.1181 48.0731C20.5189 48.0737 21.9198 48.073 23.3206 48.072C24.52 48.0711 25.7195 48.0713 26.9189 48.0722C28.3151 48.0732 29.7112 48.0736 31.1074 48.073C31.2565 48.073 31.4057 48.0729 31.5548 48.0728C31.6282 48.0728 31.7016 48.0728 31.7771 48.0727C32.2917 48.0726 32.8063 48.0729 33.3209 48.0733C33.9489 48.0739 34.5768 48.0737 35.2048 48.0727C35.5246 48.0722 35.8444 48.0721 36.1642 48.0726C39.3422 48.1 39.3422 48.1 41.9924 46.4842C42.9638 45.3341 43.3652 44.0721 43.262 42.578C43.0762 40.9532 41.9319 39.4311 41.1326 38.0438C40.8003 37.4662 40.4743 36.8852 40.1492 36.3035C40.0923 36.2018 40.0353 36.1 39.9767 35.9952C39.7432 35.5776 39.51 35.1599 39.2769 34.7421C38.8813 34.033 38.4845 33.3246 38.0862 32.617C38.0336 32.5233 37.9809 32.4297 37.9267 32.3332C37.7792 32.0713 37.6308 31.81 37.4819 31.5489C37.4167 31.4327 37.4167 31.4327 37.3501 31.3142C37.3096 31.2437 37.2692 31.1733 37.2275 31.1007C37.1927 31.0395 37.158 30.9783 37.1221 30.9153C37.004 30.7313 37.004 30.7313 36.719 30.5662C33.0302 29.965 29.3585 30.8509 26.0613 32.4883Z" fill="black"/>
<path d="M17.5331 42.1253C17.6169 42.1245 17.7008 42.1238 17.7871 42.123C18.0679 42.121 18.3486 42.1226 18.6294 42.1241C18.8307 42.1235 19.032 42.1226 19.2333 42.1215C19.7801 42.1193 20.3269 42.1202 20.8737 42.1217C21.4456 42.123 22.0176 42.1218 22.5895 42.121C23.55 42.1202 24.5105 42.1213 25.471 42.1236C26.5819 42.1263 27.6927 42.1254 28.8035 42.1228C29.7569 42.1205 30.7102 42.1202 31.6636 42.1215C32.2332 42.1223 32.8027 42.1224 33.3723 42.1208C33.9077 42.1193 34.4431 42.1203 34.9786 42.1231C35.1752 42.1238 35.3719 42.1236 35.5685 42.1225C35.8367 42.1212 36.1047 42.1229 36.373 42.1253C36.451 42.1242 36.529 42.1231 36.6094 42.122C37.0053 42.129 37.1855 42.1702 37.4992 42.4201C37.7122 42.6977 37.7616 42.8189 37.7563 43.1639C37.7575 43.2444 37.7588 43.325 37.7601 43.408C37.6639 43.7701 37.4986 43.9081 37.2069 44.1404C36.9105 44.1885 36.669 44.2066 36.373 44.2024C36.2891 44.2032 36.2053 44.204 36.119 44.2047C35.8382 44.2067 35.5575 44.2051 35.2767 44.2036C35.0754 44.2043 34.8741 44.2051 34.6727 44.2062C34.1259 44.2084 33.5792 44.2076 33.0324 44.206C32.4604 44.2048 31.8885 44.2059 31.3166 44.2067C30.3561 44.2076 29.3956 44.2064 28.435 44.2041C27.3242 44.2014 26.2134 44.2023 25.1025 44.205C24.1492 44.2072 23.1958 44.2075 22.2425 44.2062C21.6729 44.2055 21.1034 44.2054 20.5338 44.207C19.9983 44.2084 19.4629 44.2074 18.9275 44.2046C18.7308 44.2039 18.5342 44.2041 18.3376 44.2052C18.0693 44.2065 17.8013 44.2049 17.5331 44.2024C17.4551 44.2035 17.377 44.2046 17.2966 44.2057C16.9008 44.1987 16.7206 44.1575 16.4069 43.9077C16.1939 43.6301 16.1444 43.5088 16.1498 43.1639C16.1486 43.0833 16.1473 43.0027 16.146 42.9197C16.3356 42.2058 16.8822 42.1162 17.5331 42.1253Z" fill="black"/>
<path d="M22.4306 22.8761C22.5732 22.962 22.714 23.0511 22.8517 23.1446C22.9847 23.2262 22.9847 23.2262 23.1203 23.3094C23.8159 24.0243 24.0544 24.7836 24.0618 25.7551C24.0503 26.3781 23.8868 26.8264 23.5353 27.3438C23.4809 27.4325 23.4265 27.5211 23.3705 27.6124C22.6556 28.308 21.8963 28.5465 20.9248 28.5539C20.3019 28.5424 19.8535 28.3789 19.3361 28.0274C19.2475 27.973 19.1588 27.9187 19.0675 27.8626C18.372 27.1477 18.1334 26.3884 18.126 25.4169C18.1375 24.794 18.301 24.3457 18.6525 23.8282C18.7069 23.7396 18.7613 23.651 18.8173 23.5597C19.7537 22.6485 21.2248 22.2823 22.4306 22.8761ZM20.215 25.1954C20.1468 25.4727 20.1468 25.6993 20.215 25.9766C20.4093 26.268 20.5456 26.4261 20.8925 26.5115C21.2756 26.539 21.4524 26.4863 21.7775 26.2696C21.9942 25.9445 22.0469 25.7677 22.0194 25.3846C21.934 25.0377 21.7759 24.9014 21.4845 24.7071C20.9165 24.5674 20.5462 24.6985 20.215 25.1954Z" fill="black"/>
<path d="M13.7694 42.1874C14.0746 42.3705 14.0746 42.3705 14.2577 42.6757C14.3543 43.1665 14.3336 43.5258 14.0746 43.9574C13.643 44.2164 13.2837 44.2371 12.7929 44.1405C12.4877 43.9574 12.4877 43.9574 12.3046 43.6522C12.208 43.1614 12.2287 42.8021 12.4877 42.3705C12.9193 42.1115 13.2786 42.0908 13.7694 42.1874Z" fill="black"/>
<path d="M29.3944 22.6561C29.6996 22.8392 29.6996 22.8392 29.8827 23.1444C29.9793 23.6353 29.9586 23.9945 29.6996 24.4262C29.268 24.6851 28.9087 24.7058 28.4179 24.6093C28.1127 24.4262 28.1127 24.4262 27.9296 24.121C27.833 23.6301 27.8537 23.2709 28.1127 22.8392C28.5443 22.5803 28.9036 22.5596 29.3944 22.6561Z" fill="black"/>
<path d="M25.4882 16.7968C25.7933 16.9799 25.7933 16.9799 25.9764 17.285C26.073 17.7759 26.0523 18.1352 25.7933 18.5668C25.3617 18.8258 25.0024 18.8464 24.5116 18.7499C24.2064 18.5668 24.2064 18.5668 24.0233 18.2616C23.9268 17.7708 23.9475 17.4115 24.2064 16.9799C24.6381 16.7209 24.9973 16.7002 25.4882 16.7968Z" fill="black"/>
</g>
<defs>
<clipPath id="clip0_55_516">
<rect width="50" height="50" fill="white"/>
</clipPath>
</defs>
</svg>
