<svg width="50" height="50" viewBox="0 0 50 50" fill="none" xmlns="http://www.w3.org/2000/svg">
<g clip-path="url(#clip0_386_680)">
<path d="M35.625 -0.0268302C35.6898 -0.0273293 35.7547 -0.0278284 35.8215 -0.0283427C36.0348 -0.0296945 36.2481 -0.0296067 36.4614 -0.0293813C36.6103 -0.0297612 36.7593 -0.0301845 36.9083 -0.0306494C37.2201 -0.031377 37.532 -0.0313505 37.8438 -0.0308356C38.2426 -0.0302698 38.6413 -0.0319235 39.04 -0.0341896C39.3476 -0.0356313 39.6551 -0.0357136 39.9627 -0.0354094C40.1097 -0.0354594 40.2567 -0.0359684 40.4036 -0.0369535C40.6095 -0.0381643 40.8153 -0.0374958 41.0212 -0.036367C41.1382 -0.0364284 41.2551 -0.0364899 41.3756 -0.0365532C42.092 0.0445047 42.5091 0.451624 42.9437 0.994865C43.1222 1.39657 43.1603 1.80807 43.1634 2.24609C43.1312 2.31054 43.0989 2.37499 43.0657 2.4414C43.1473 2.45065 43.1473 2.45065 43.2305 2.46009C44.0059 2.58451 44.4586 2.96114 44.9212 3.58276C45.2883 4.79877 44.7749 5.85924 44.3292 6.97631C44.2298 7.22778 44.1309 7.47944 44.0336 7.73172C43.9734 7.88764 43.9119 8.0431 43.8491 8.198C43.6964 8.59086 43.5922 8.86468 43.7493 9.27734C43.8538 9.46532 43.8538 9.46532 43.992 9.63744C44.0676 9.73821 44.0676 9.73821 44.1448 9.841C44.1996 9.91281 44.2544 9.98461 44.3109 10.0586C45.7318 11.9733 46.9182 14.0628 47.9486 16.2109C47.9838 16.2834 48.0191 16.3558 48.0554 16.4304C49.5013 19.4208 50.8216 23.3522 49.7254 26.6598C49.6869 26.7566 49.6484 26.8534 49.6087 26.9531C49.5722 27.0469 49.5357 27.1407 49.4981 27.2373C49.3832 27.5079 49.2563 27.7667 49.1204 28.0273C49.0736 28.1204 49.0268 28.2134 48.9785 28.3092C48.0658 30.004 46.5953 31.1444 44.9212 32.0312C44.8374 32.0764 44.7535 32.1216 44.6672 32.1682C43.4079 32.7938 41.9193 33.1547 40.5267 33.3008C40.3971 33.3168 40.3971 33.3168 40.265 33.3332C36.6438 33.7179 32.6975 33.1094 29.7887 30.7952C29.0997 30.2266 28.4683 29.5909 28.0267 28.8086C27.6758 28.8668 27.498 29.0033 27.2332 29.2358C23.9558 31.9244 19.7677 32.7784 15.6237 32.4998C15.0941 32.4466 14.5791 32.3507 14.0618 32.2266C13.9395 32.1974 13.9395 32.1974 13.8147 32.1678C10.9898 31.4727 8.55349 30.1197 6.44465 28.125C6.31701 28.0068 6.31701 28.0068 6.18678 27.8862C4.98656 26.7374 4.07561 25.3991 3.31965 23.9258C3.28859 23.866 3.25753 23.8063 3.22553 23.7448C1.62581 20.6323 1.08093 16.594 1.95247 13.1836C1.98079 13.0658 1.98079 13.0658 2.00969 12.9455C2.63207 10.3945 3.80123 8.09831 5.56575 6.15234C5.64115 6.06522 5.71656 5.97811 5.79425 5.88836C8.37426 2.932 12.105 1.25463 15.9661 0.805656C20.3757 0.522729 24.6234 1.76609 27.9809 4.69169C29.7159 6.23949 31.044 8.05315 32.0306 10.1562C32.0306 10.2207 32.0306 10.2851 32.0306 10.3516C32.2878 10.1141 32.5208 9.85735 32.7447 9.58861C32.7967 9.52756 32.8487 9.46651 32.9022 9.4036C33.073 9.03906 32.9696 8.68686 32.8511 8.31055C32.7783 8.11197 32.7011 7.91567 32.6222 7.71941C32.5646 7.57079 32.5071 7.42214 32.4496 7.27347C32.3595 7.04265 32.2688 6.81207 32.177 6.58192C31.3809 4.57884 31.3809 4.57884 31.7926 3.58276C32.071 3.10861 32.4238 2.73288 32.9537 2.55736C33.1667 2.50915 33.3767 2.46986 33.5931 2.4414C33.5709 2.34673 33.5488 2.25207 33.526 2.15453C33.4622 1.68361 33.5712 1.29771 33.7884 0.878898C34.2999 0.214991 34.7835 -0.0235902 35.625 -0.0268302ZM35.4486 1.7578C35.2281 2.01954 35.2281 2.01954 35.2769 2.24418C35.2973 2.3153 35.3177 2.38643 35.3387 2.45971C35.4475 2.89913 35.4946 3.25824 35.4486 3.71093C35.2975 3.92493 35.2975 3.92493 35.0579 4.10155C34.7984 4.14041 34.5727 4.1606 34.3133 4.16259C33.8089 4.14462 33.8089 4.14462 33.3978 4.39452C33.6246 5.75529 34.2723 7.01222 34.765 8.30077C37.1175 8.30077 39.47 8.30077 41.8939 8.30077C42.1195 7.72069 42.345 7.14062 42.5775 6.54296C42.65 6.3569 42.7225 6.17084 42.7972 5.97915C42.8543 5.8294 42.9112 5.67961 42.9681 5.52978C42.9984 5.45248 43.0288 5.37519 43.06 5.29555C43.0881 5.22103 43.1162 5.14651 43.1451 5.06972C43.1699 5.00522 43.1947 4.94072 43.2202 4.87427C43.2694 4.64951 43.2389 4.51234 43.1634 4.29687C42.9574 4.09086 42.442 4.16998 42.1512 4.16583C41.8209 4.15195 41.6295 4.1227 41.361 3.92417C41.1344 3.60351 41.1651 3.30342 41.2103 2.92968C41.2584 2.67076 41.3117 2.4146 41.3724 2.15835C41.4269 1.94818 41.4269 1.94818 41.3079 1.7578C40.5473 1.75102 39.7868 1.74581 39.0262 1.74262C38.673 1.74109 38.3198 1.73902 37.9667 1.7357C37.626 1.73253 37.2854 1.73077 36.9447 1.73001C36.7512 1.7292 36.5576 1.72691 36.364 1.72461C36.2467 1.72459 36.1295 1.72457 36.0086 1.72454C35.9049 1.72389 35.8013 1.72324 35.6945 1.72257C35.6133 1.7342 35.5322 1.74583 35.4486 1.7578ZM8.39778 5.85937C8.27976 5.95963 8.27976 5.95963 8.15936 6.06193C5.277 8.57441 3.62177 12.0861 3.34445 15.8859C3.14162 19.4677 4.35601 23.0538 6.67621 25.7896C9.01889 28.3864 12.3016 30.497 15.8897 30.7507C17.4739 30.829 19.0576 30.8515 20.6048 30.4687C20.6817 30.4499 20.7586 30.431 20.8378 30.4115C22.6821 29.9418 24.3473 29.1562 25.8782 28.0273C25.9327 27.9875 25.9872 27.9476 26.0433 27.9066C26.6452 27.5005 26.6452 27.5005 27.0383 26.9203C27.0533 26.5899 26.9906 26.3152 26.9097 25.9949C26.8817 25.8814 26.8536 25.768 26.8247 25.6512C26.8024 25.5652 26.7801 25.4792 26.7572 25.3906C26.4673 25.358 26.4673 25.358 26.3162 25.5237C26.2603 25.5866 26.2044 25.6494 26.1468 25.7141C23.9964 27.9311 20.8558 29.07 17.8112 29.1357C14.2394 29.1627 11.0912 27.9 8.49543 25.4272C6.12079 22.9812 4.94325 19.6916 4.97981 16.3086C5.09111 13.4961 6.05104 10.7324 7.9095 8.59374C7.97546 8.51481 8.04142 8.43588 8.10939 8.35456C10.1947 5.93063 13.2359 4.48565 16.4056 4.19921C19.9229 4.01373 23.2473 5.008 25.9019 7.37189C25.9908 7.45284 26.0796 7.53378 26.1712 7.61718C26.2359 7.67496 26.3006 7.73274 26.3673 7.79227C28.1633 9.48388 29.1464 11.8278 29.7845 14.1601C30.0354 13.8338 30.2674 13.4977 30.4925 13.1531C30.5635 13.0467 30.6345 12.9403 30.7077 12.8307C30.9269 12.3507 30.8316 12.0318 30.6722 11.5448C29.1889 8.04524 26.553 5.07814 22.9798 3.61518C18.0527 1.69772 12.454 2.34401 8.39778 5.85937ZM15.1361 6.11571C15.064 6.13312 14.9918 6.15052 14.9176 6.16845C13.3056 6.57614 11.8176 7.32212 10.5462 8.39843C10.608 8.46905 10.608 8.46905 10.671 8.5411C10.7245 8.60278 10.778 8.66447 10.8331 8.72802C10.8863 8.7892 10.9396 8.85038 10.9944 8.91341C11.2541 9.23128 11.2541 9.45807 11.2298 9.86327C11.0931 10.2246 11.0931 10.2246 10.8392 10.3516C10.1718 10.4307 10.1718 10.4307 9.86491 10.2173C9.74813 10.1099 9.63455 9.99898 9.52502 9.88425C9.4753 9.8451 9.42557 9.80595 9.37434 9.76562C8.97696 9.89808 8.84388 10.1619 8.62361 10.498C8.55928 10.5962 8.55928 10.5962 8.49365 10.6963C7.50712 12.2398 6.82833 13.9758 6.73762 15.8203C6.85942 15.8258 6.85942 15.8258 6.98367 15.8314C7.08979 15.8378 7.19591 15.8442 7.30525 15.8508C7.41062 15.8565 7.51598 15.8622 7.62454 15.868C7.9095 15.918 7.9095 15.918 8.08879 16.0477C8.27605 16.3166 8.2832 16.573 8.30012 16.8945C8.22265 17.1551 8.16519 17.2484 7.93353 17.3893C7.68338 17.4933 7.47104 17.5202 7.20149 17.5415C7.07082 17.5524 7.07082 17.5524 6.93751 17.5636C6.87155 17.5684 6.80559 17.5732 6.73762 17.5781C6.95771 19.6508 7.64743 21.8634 9.08137 23.4375C9.54297 23.4375 9.62392 23.339 9.96028 23.0469C10.2424 22.9058 10.4287 22.9124 10.7415 22.9492C11.0551 23.181 11.2021 23.3334 11.3031 23.7121C11.1918 24.1848 10.8825 24.4667 10.5462 24.8047C12.0578 26.4674 14.3545 27.1275 16.5032 27.4414C16.5355 27.4414 16.5677 27.4414 16.6009 27.4414C16.6023 27.3695 16.6037 27.2976 16.6051 27.2236C16.643 26.4481 16.643 26.4481 16.9122 26.0559C17.3016 25.8049 17.5565 25.8497 17.9986 25.9094C18.0802 25.9426 18.0802 25.9426 18.1634 25.9766C18.2663 26.2854 18.2916 26.5497 18.316 26.8738C18.3283 27.033 18.3283 27.033 18.3408 27.1953C18.3467 27.2765 18.3526 27.3577 18.3587 27.4414C20.5269 27.1865 22.8413 26.5107 24.4134 24.9023C24.3711 24.855 24.3288 24.8077 24.2852 24.7589C23.7856 24.1575 23.7856 24.1575 23.7847 23.6999C23.8275 23.3398 23.8275 23.3398 23.9251 23.0469C24.704 22.906 24.704 22.906 25.0726 23.0652C25.1451 23.1236 25.2176 23.182 25.2923 23.2422C25.455 23.3724 25.6178 23.5026 25.7806 23.6328C26.429 22.8409 26.8437 22.1667 27.0509 21.1487C27.1627 20.6009 27.3305 20.071 27.4957 19.5373C27.5243 19.4437 27.553 19.35 27.5825 19.2536C27.7553 18.6923 27.9366 18.1345 28.1243 17.5781C27.7054 17.5137 27.2864 17.4492 26.8548 17.3828C26.7649 17.1132 26.7383 16.9303 26.7327 16.6504C26.729 16.5371 26.729 16.5371 26.7251 16.4215C26.7572 16.2109 26.7572 16.2109 26.8674 16.0412C27.1267 15.8663 27.3445 15.8675 27.6544 15.8508C27.7605 15.8444 27.8666 15.838 27.9759 15.8314C28.0977 15.8259 28.0977 15.8259 28.222 15.8203C28.138 13.5658 27.201 11.4938 25.7806 9.76562C25.5301 9.87298 25.3972 9.95183 25.2252 10.1684C24.9228 10.4136 24.7065 10.3945 24.3276 10.3939C24.0732 10.3419 23.9869 10.2599 23.8275 10.0586C23.6959 9.72018 23.7275 9.57712 23.8458 9.22851C24.0092 8.91294 24.1882 8.67078 24.4134 8.39843C22.8156 6.92794 20.5377 5.96498 18.3587 5.95702C18.3562 6.03004 18.3537 6.10305 18.3511 6.17828C18.3065 6.95315 18.3065 6.95315 18.1085 7.29369C17.7508 7.48628 17.4939 7.45399 17.0892 7.42187C16.9925 7.38964 16.8958 7.35741 16.7962 7.32421C16.6995 6.64745 16.6995 6.64745 16.6009 5.95702C16.0709 5.95702 15.6408 5.99358 15.1361 6.11571ZM33.7403 10.8818C33.6107 11.118 33.4973 11.3531 33.3931 11.6015C33.2692 11.8878 33.0996 12.1295 32.9183 12.3825C32.8149 12.5432 32.7123 12.7045 32.6104 12.8662C32.5542 12.9551 32.4981 13.0441 32.4402 13.1357C31.0852 15.3066 29.9244 17.5948 29.1009 20.0195C29.0619 20.1316 29.0229 20.2436 28.9826 20.359C28.2714 22.5141 28.0176 24.981 29.0277 27.0691C29.3184 27.6363 29.6526 28.1383 30.0775 28.6133C30.1717 28.7211 30.1717 28.7211 30.2678 28.8311C32.1354 30.8368 34.9852 31.5283 37.6314 31.6513C40.5572 31.7476 43.6583 31.2404 45.9283 29.2541C46.0824 29.1072 46.2351 28.9588 46.3861 28.8086C46.4542 28.7439 46.5223 28.6792 46.5924 28.6125C47.8883 27.289 48.2924 25.5583 48.2826 23.7633C48.2239 21.3299 47.3269 19.0642 46.2884 16.8945C46.2513 16.8157 46.2142 16.7368 46.176 16.6555C45.208 14.6048 44.0023 12.677 42.6751 10.8398C42.6454 10.7758 42.6157 10.7117 42.5851 10.6457C42.4431 10.3878 42.325 10.2376 42.0892 10.0586C41.54 9.92667 40.9945 9.9246 40.4317 9.92049C40.267 9.91748 40.1023 9.91439 39.9376 9.91121C39.5924 9.90566 39.2473 9.90342 38.902 9.90309C38.5496 9.90228 38.1981 9.89552 37.8459 9.88306C35.5213 9.6859 35.5213 9.6859 33.7403 10.8818Z" fill="black"/>
<path d="M25.8689 33.4919C25.9957 33.5122 26.1225 33.5326 26.2531 33.5535C26.596 33.6086 26.9388 33.665 27.2814 33.7219C27.6429 33.7816 28.0046 33.8401 28.3662 33.8988C28.973 33.9975 29.5795 34.0971 30.186 34.1973C30.8838 34.3126 31.5818 34.4264 32.28 34.5395C32.9562 34.649 33.6322 34.7595 34.3081 34.8705C34.5937 34.9174 34.8794 34.9639 35.1652 35.0101C35.5653 35.075 35.9652 35.1413 36.3651 35.2078C36.5397 35.2358 36.5397 35.2358 36.7178 35.2644C39.0059 35.6496 39.0059 35.6496 39.747 36.5235C40.1376 37.0755 40.1376 37.0755 40.1376 37.4025C40.392 37.2195 40.6463 37.0363 40.9005 36.8531C40.9791 36.7966 41.0578 36.7401 41.1388 36.6818C41.5571 36.3803 41.9728 36.076 42.3841 35.7648C44.7623 33.9678 44.7623 33.9678 46.2899 34.1798C47.0882 34.3924 47.72 34.8815 48.1393 35.5897C48.4664 36.3102 48.4818 37.1305 48.2541 37.8846C47.8149 38.8418 46.9915 39.4097 46.1804 40.0369C45.7886 40.3406 45.4042 40.6531 45.0204 40.9669C44.5381 41.3607 44.0528 41.7499 43.5616 42.1327C43.048 42.5333 42.5436 42.944 42.0419 43.3595C41.4859 43.8199 40.9249 44.2721 40.3557 44.716C39.6561 45.2626 38.9698 45.8255 38.2821 46.3868C33.8146 50.0335 33.8146 50.0335 31.6232 50.0367C31.5395 50.0391 31.4559 50.0415 31.3697 50.044C30.6265 50.0473 29.9933 49.8529 29.2977 49.6095C29.1183 49.5476 28.9388 49.4858 28.7594 49.4239C28.1058 49.1975 27.4536 48.9672 26.8014 48.7367C26.5651 48.6534 26.3289 48.5701 26.0926 48.4868C24.5313 47.9357 22.9717 47.38 21.4159 46.8135C21.2905 46.7681 21.1649 46.723 21.0392 46.6784C20.7518 46.576 20.4711 46.4679 20.1918 46.3449C19.1036 45.8876 18.023 45.9199 16.8588 45.9169C16.6533 45.9146 16.4478 45.9121 16.2423 45.9094C15.7439 45.9033 15.2454 45.9001 14.747 45.8985C14.7288 45.9549 14.7107 46.0113 14.692 46.0694C14.4817 46.3986 14.2294 46.5549 13.868 46.6798C13.4535 46.7355 13.0432 46.7332 12.6254 46.7303C12.5014 46.731 12.3775 46.7317 12.2498 46.7324C11.9115 46.7342 11.5731 46.7335 11.2348 46.7323C10.8799 46.7313 10.525 46.7322 10.1701 46.7328C9.57437 46.7335 8.97865 46.7326 8.38292 46.7307C7.69499 46.7286 7.0071 46.7293 6.31917 46.7314C5.72749 46.7332 5.13582 46.7335 4.54414 46.7324C4.1912 46.7318 3.83828 46.7317 3.48534 46.733C3.0919 46.7344 2.69854 46.7325 2.3051 46.7303C2.18866 46.7311 2.07222 46.7319 1.95224 46.7327C1.33769 46.7264 0.952837 46.7085 0.48914 46.2892C0.0172775 45.7535 -0.0143389 45.4129 -0.016427 44.7142C-0.0170688 44.6217 -0.017712 44.5293 -0.0183731 44.4341C-0.0203028 44.1273 -0.0214382 43.8204 -0.0224113 43.5136C-0.0228093 43.4089 -0.0232083 43.3042 -0.0236183 43.1964C-0.0256567 42.6423 -0.0270519 42.0882 -0.0279665 41.5342C-0.0290469 40.9617 -0.0324062 40.3892 -0.0362843 39.8167C-0.0388371 39.3767 -0.0396559 38.9367 -0.0400066 38.4967C-0.0404825 38.2857 -0.0416183 38.0747 -0.0434279 37.8636C-0.0458043 37.5681 -0.0457161 37.2727 -0.0450373 36.9772C-0.0462883 36.8901 -0.0475392 36.8031 -0.0488281 36.7133C-0.0443494 36.178 0.0353139 35.8742 0.391483 35.4493C0.817848 35.0646 1.11391 34.9491 1.68228 34.9473C1.78783 34.9468 1.89339 34.9462 2.00214 34.9456C2.17587 34.9455 2.17587 34.9455 2.35312 34.9453C2.53608 34.9446 2.53608 34.9446 2.72274 34.9438C3.05749 34.9427 3.39223 34.9419 3.72698 34.9415C3.93619 34.9412 4.1454 34.9408 4.35462 34.9404C5.00942 34.939 5.66422 34.9381 6.31902 34.9377C7.07448 34.9373 7.82992 34.9356 8.58537 34.9327C9.16958 34.9306 9.75378 34.9296 10.338 34.9295C10.6868 34.9294 11.0356 34.9288 11.3844 34.9271C11.7736 34.9252 12.1628 34.9256 12.5521 34.9262C12.6673 34.9253 12.7826 34.9244 12.9013 34.9235C13.887 34.9285 13.887 34.9285 14.3563 35.254C14.4336 35.3395 14.5108 35.425 14.5904 35.5131C14.9175 35.8081 15.1716 35.8087 15.5911 35.7968C15.6623 35.7966 15.7335 35.7964 15.8068 35.7962C15.9569 35.7952 16.107 35.7931 16.2571 35.7899C16.4847 35.7851 16.7122 35.7839 16.9398 35.7833C17.0864 35.7819 17.2329 35.7803 17.3795 35.7785C17.4465 35.778 17.5136 35.7775 17.5827 35.7769C18.8036 35.7475 19.6212 35.2067 20.5514 34.4667C22.1925 33.168 23.8894 33.1596 25.8689 33.4919ZM21.3387 36.1268C20.4969 36.773 19.6461 37.3981 18.5432 37.4225C18.464 37.4245 18.3847 37.4264 18.3031 37.4285C18.2207 37.4301 18.1384 37.4317 18.0535 37.4334C17.9771 37.4352 17.9007 37.437 17.822 37.4389C17.5376 37.4455 17.2531 37.4514 16.9686 37.4574C16.3322 37.4715 15.6957 37.4856 15.0399 37.5001C15.0399 39.6915 15.0399 41.8829 15.0399 44.1407C16.3968 44.1573 16.3968 44.1573 17.7538 44.1698C17.9268 44.1727 18.0998 44.1757 18.2729 44.1789C18.3592 44.179 18.4454 44.1791 18.5343 44.1792C19.273 44.1956 19.9115 44.3881 20.6063 44.629C20.7158 44.6664 20.8252 44.7037 20.9379 44.7422C21.2911 44.8641 21.6432 44.9887 21.9953 45.1139C22.1263 45.1603 22.2574 45.2067 22.3885 45.253C22.7346 45.3756 23.0806 45.4985 23.4266 45.6214C23.7124 45.7229 23.9982 45.8242 24.2841 45.9255C26.0275 46.5434 27.7699 47.1642 29.5074 47.7986C29.572 47.8221 29.6365 47.8457 29.7031 47.8699C29.8699 47.9306 30.0366 47.9916 30.2033 48.0527C31.1717 48.3871 32.2607 48.3589 33.2162 47.9917C33.7548 47.7231 34.2078 47.3552 34.6688 46.9728C34.8004 46.8649 34.932 46.7571 35.0636 46.6493C35.3484 46.4155 35.6323 46.1807 35.9159 45.9455C36.3331 45.6006 36.7576 45.2658 37.1846 44.9331C37.62 44.593 38.0494 44.246 38.4774 43.8966C38.9598 43.5028 39.445 43.1136 39.9362 42.7308C40.5226 42.2735 41.0964 41.8018 41.6692 41.3274C42.0979 40.9731 42.5307 40.625 42.9696 40.2833C43.5623 39.822 44.1427 39.3468 44.721 38.8675C45.1768 38.49 45.637 38.1199 46.1061 37.7587C46.4253 37.4792 46.5714 37.2978 46.6256 36.8714C46.5763 36.4698 46.475 36.318 46.1923 36.0353C45.8892 35.8837 45.6391 35.8692 45.3134 35.9376C44.5112 36.328 43.8049 36.9395 43.0963 37.4772C42.6742 37.7966 42.2459 38.1069 41.816 38.4156C41.2047 38.8551 40.5966 39.2986 39.9911 39.7462C39.3199 40.2422 38.6452 40.7331 37.9677 41.2205C37.4244 41.6119 36.8855 42.0089 36.3473 42.4073C35.8116 42.8029 35.2751 43.197 34.7299 43.5792C34.6344 43.6462 34.539 43.7132 34.4407 43.7822C33.9257 44.1053 33.5604 44.1859 32.9625 44.106C32.5304 43.9958 32.2627 43.7494 31.9345 43.4571C31.8297 43.3674 31.7248 43.2779 31.6197 43.1886C31.3834 42.9873 31.1481 42.785 30.9133 42.582C30.527 42.2492 30.1333 41.9263 29.7372 41.6051C29.493 41.4064 29.493 41.4064 29.2314 41.1535C28.8885 40.8689 28.6081 40.8582 28.1621 40.8593C28.0578 40.8582 28.0578 40.8582 27.9514 40.857C27.7307 40.8547 27.5103 40.8556 27.2897 40.857C27.0687 40.8574 26.8479 40.8571 26.6269 40.855C26.4268 40.8533 26.2266 40.854 26.0264 40.8549C25.6364 40.8156 25.3774 40.7087 25.0985 40.4298C25.0787 40.2383 25.0787 40.2383 25.0741 40.0025C25.0716 39.9253 25.0691 39.848 25.0665 39.7683C25.107 39.4935 25.1732 39.4262 25.3915 39.2579C25.6168 39.2209 25.6168 39.2209 25.8869 39.2203C25.9893 39.2194 26.0917 39.2184 26.1972 39.2174C26.3095 39.2179 26.4218 39.2183 26.5376 39.2188C26.6559 39.2181 26.7742 39.2174 26.8961 39.2167C27.1535 39.2154 27.4108 39.2147 27.6682 39.2148C28.0753 39.215 28.4824 39.2131 28.8895 39.2109C29.6804 39.2069 30.4713 39.2051 31.2623 39.2035C32.2683 39.2013 33.2744 39.198 34.2804 39.193C34.6849 39.1911 35.0895 39.1901 35.494 39.19C35.8051 39.1896 36.1161 39.1881 36.4272 39.1868C36.5391 39.187 36.651 39.1873 36.7663 39.1875C36.9208 39.1865 36.9208 39.1865 37.0783 39.1855C37.1675 39.1853 37.2567 39.1852 37.3486 39.185C37.7589 39.1444 38.0175 39.0323 38.3126 38.7452C38.5117 38.4208 38.5398 38.2651 38.4774 37.8907C38.3676 37.6063 38.3676 37.6063 38.0868 37.4025C37.2997 37.1435 36.4673 37.0212 35.6515 36.888C35.5311 36.8679 35.4107 36.8479 35.2867 36.8272C34.9603 36.773 34.6339 36.7192 34.3074 36.6657C34.0334 36.6207 33.7594 36.5754 33.4854 36.5302C32.8387 36.4234 32.1918 36.3171 31.5449 36.2112C30.8804 36.1023 30.2159 35.9925 29.5516 35.8822C28.9782 35.787 28.4048 35.6925 27.8312 35.5985C27.49 35.5426 27.1487 35.4864 26.8076 35.4295C26.4272 35.3662 26.0465 35.3042 25.6657 35.2423C25.5546 35.2236 25.4434 35.2049 25.3288 35.1856C23.7109 34.9261 22.6346 35.0942 21.3387 36.1268ZM1.75867 36.7189C1.75867 39.4259 1.75867 42.1329 1.75867 44.922C5.56141 44.922 9.36414 44.922 13.2821 44.922C13.2821 42.215 13.2821 39.5079 13.2821 36.7189C9.47937 36.7189 5.67664 36.7189 1.75867 36.7189ZM31.7391 40.9181C32.0432 41.2981 32.2988 41.5714 32.6669 41.8763C32.7585 41.9535 32.8502 42.0307 32.9446 42.1102C33.2058 42.3217 33.2058 42.3217 33.5946 42.2853C33.8078 42.1716 33.8078 42.1716 34.0173 42.011C34.0953 41.9542 34.1734 41.8973 34.2538 41.8388C34.3746 41.7486 34.3746 41.7486 34.4979 41.6566C34.58 41.5969 34.6621 41.5371 34.7466 41.4756C35.0538 41.2512 35.0538 41.2512 35.3524 41.0157C35.3524 40.9835 35.3524 40.9513 35.3524 40.9181C34.16 40.9181 32.9677 40.9181 31.7391 40.9181Z" fill="black"/>
<path d="M38.6714 13.2812C38.98 13.5294 39.1319 13.6861 39.2574 14.0625C39.2641 14.2475 39.2656 14.4328 39.2635 14.6179C39.2626 14.715 39.2617 14.812 39.2608 14.912C39.2597 14.9862 39.2585 15.0603 39.2574 15.1367C39.3302 15.1488 39.4031 15.1609 39.4782 15.1733C40.2642 15.3527 40.8583 15.9596 41.3081 16.6015C41.6426 17.2451 41.8254 17.9279 41.6988 18.6523C41.5462 18.9514 41.5462 18.9514 41.3081 19.1406C40.9225 19.2528 40.7193 19.2804 40.3499 19.1162C40.0043 18.8397 39.9227 18.6102 39.8677 18.1885C39.7697 17.6604 39.5668 17.3395 39.1597 16.9922C38.7752 16.7654 38.4289 16.7582 37.9878 16.7969C37.4742 16.9817 37.2271 17.2459 36.9136 17.6758C36.7645 18.1231 36.7235 18.5261 36.9045 18.9644C37.1677 19.4217 37.3911 19.6217 37.8902 19.8242C38.1589 19.8845 38.4292 19.9213 38.7019 19.9585C39.7057 20.1178 40.4763 20.4656 41.1128 21.289C41.6785 22.2388 41.8954 23.2007 41.632 24.3026C41.3035 25.1805 40.7551 25.8921 39.941 26.3672C39.7109 26.4576 39.5005 26.5118 39.2574 26.5625C39.2625 26.6686 39.2625 26.6686 39.2677 26.7769C39.2957 27.7771 39.2957 27.7771 38.9644 28.2226C38.6783 28.4004 38.5134 28.4195 38.177 28.4057C37.8339 28.3035 37.7163 28.2135 37.4995 27.9297C37.4614 27.5924 37.4614 27.5924 37.4751 27.2217C37.4787 27.0983 37.4822 26.9749 37.4858 26.8478C37.4903 26.7537 37.4949 26.6595 37.4995 26.5625C37.4119 26.5517 37.3243 26.5408 37.234 26.5297C36.5703 26.3953 35.9961 25.9272 35.5808 25.4005C35.1058 24.6621 34.7804 23.8333 34.9605 22.9492C35.1619 22.6379 35.1619 22.6379 35.4488 22.4609C35.832 22.3993 36.0484 22.4227 36.4009 22.583C36.6949 22.9423 36.738 23.2902 36.8346 23.7381C36.9596 24.1897 37.1755 24.4697 37.58 24.7192C37.994 24.8857 38.4295 24.8548 38.8667 24.8047C39.3077 24.6042 39.5585 24.343 39.7758 23.9185C39.9367 23.4703 39.8906 23.0786 39.7273 22.6318C39.3975 22.1314 39.0404 21.9424 38.4761 21.7773C38.2692 21.745 38.0616 21.7165 37.8535 21.6919C36.9515 21.5577 36.247 21.2077 35.6441 20.5078C35.0321 19.4948 34.785 18.5699 35.0169 17.3881C35.2431 16.6665 35.6468 16.1053 36.23 15.625C36.439 15.5276 36.6507 15.4359 36.8648 15.3503C37.1685 15.2312 37.1685 15.2312 37.4019 15.039C37.4902 14.703 37.4936 14.4107 37.4892 14.064C37.4995 13.7695 37.4995 13.7695 37.7071 13.446C38.068 13.2342 38.2594 13.2077 38.6714 13.2812Z" fill="black"/>
<path d="M17.8719 9.96093C18.1269 10.1228 18.2218 10.191 18.3601 10.4492C18.4288 10.8712 18.4168 11.288 18.4078 11.7145C18.4071 11.8374 18.4064 11.9603 18.4057 12.0869C18.4035 12.4123 18.3991 12.7377 18.3937 13.0631C18.3886 13.3957 18.3864 13.7282 18.384 14.0608C18.3786 14.7124 18.3704 15.364 18.3601 16.0156C18.4339 16.0356 18.5077 16.0557 18.5837 16.0763C18.6804 16.1026 18.7772 16.1289 18.8769 16.156C18.9728 16.1821 19.0687 16.2082 19.1675 16.235C20.3531 16.5618 20.3531 16.5618 20.771 16.9311C20.9319 17.2529 20.9645 17.4181 20.8992 17.7734C20.7039 18.103 20.7039 18.103 20.4109 18.3594C19.6542 18.4581 18.9891 18.1822 18.2808 17.9382C18.161 17.8988 18.0412 17.8593 17.9178 17.8186C16.9289 17.4843 16.9289 17.4843 16.7 17.1875C16.5929 16.8662 16.588 16.6247 16.585 16.2863C16.5838 16.1608 16.5825 16.0353 16.5812 15.9061C16.5804 15.7689 16.5797 15.6317 16.579 15.4945C16.5787 15.4254 16.5783 15.3562 16.5778 15.285C16.5758 14.9191 16.5744 14.5532 16.5735 14.1872C16.5724 13.8097 16.5691 13.4322 16.5652 13.0547C16.5626 12.764 16.5618 12.4733 16.5615 12.1826C16.561 12.0434 16.5598 11.9042 16.558 11.7651C16.5557 11.5702 16.556 11.3753 16.5564 11.1803C16.5556 11.0141 16.5556 11.0141 16.5547 10.8446C16.6128 10.4812 16.739 10.3199 16.9929 10.0586C17.2995 9.90533 17.5338 9.92655 17.8719 9.96093Z" fill="black"/>
</g>
<defs>
<clipPath id="clip0_386_680">
<rect width="50" height="50" fill="white"/>
</clipPath>
</defs>
</svg>
