<svg width="50" height="50" viewBox="0 0 50 50" fill="none" xmlns="http://www.w3.org/2000/svg">
<g clip-path="url(#clip0_386_702)">
<path d="M5.58799 -0.0252047C5.77293 -0.0261494 5.77293 -0.0261494 5.96161 -0.0271132C6.09819 -0.0268258 6.23477 -0.0265196 6.37135 -0.0261966C6.51663 -0.0265615 6.66191 -0.0270109 6.80719 -0.0275375C7.20653 -0.0287333 7.60587 -0.0287062 8.00521 -0.0284761C8.43585 -0.0284363 8.8665 -0.0295139 9.29714 -0.0304405C10.1409 -0.0320634 10.9847 -0.0325996 11.8284 -0.0327085C12.5142 -0.0328013 13.2 -0.0332025 13.8858 -0.0338219C15.8298 -0.0355421 17.7739 -0.0364428 19.7179 -0.0362964C19.8751 -0.0362847 19.8751 -0.0362847 20.0355 -0.0362728C20.1405 -0.0362648 20.2454 -0.0362568 20.3536 -0.0362486C22.0546 -0.0361692 23.7556 -0.0380383 25.4566 -0.040792C27.2028 -0.0435966 28.9491 -0.0449464 30.6953 -0.0447776C31.6758 -0.0447127 32.6563 -0.0452505 33.6369 -0.0473514C34.4717 -0.0491287 35.3065 -0.0495555 36.1413 -0.0482285C36.5672 -0.0475902 36.9932 -0.0475816 37.4191 -0.049274C37.8091 -0.050808 38.1992 -0.0505329 38.5892 -0.0488279C38.7302 -0.0485276 38.8711 -0.0488847 39.0121 -0.0499725C39.9014 -0.0563795 40.53 -0.0177926 41.2302 0.572124C41.7992 1.2422 42.0072 1.72755 41.9977 2.61413C41.9963 2.78517 41.9963 2.78517 41.9949 2.95967C41.9937 3.04643 41.9925 3.13319 41.9912 3.22258C42.0674 3.22149 42.1435 3.22041 42.2219 3.21929C42.9431 3.20946 43.6642 3.20205 44.3853 3.19728C44.756 3.19474 45.1266 3.1913 45.4973 3.18574C45.8557 3.18039 46.214 3.17751 46.5724 3.17625C46.7085 3.17535 46.8445 3.17361 46.9805 3.17095C47.8238 3.15515 48.5197 3.19947 49.2178 3.71086C49.7667 4.29241 50.0229 4.83145 50.0252 5.63816C50.0256 5.70302 50.026 5.76789 50.0265 5.83473C50.0277 6.05137 50.0276 6.26799 50.0274 6.48464C50.028 6.64027 50.0287 6.7959 50.0294 6.95153C50.0311 7.37385 50.0316 7.79615 50.0317 8.21847C50.0319 8.48249 50.0323 8.7465 50.0328 9.01052C50.0346 9.93208 50.0354 10.8536 50.0352 11.7752C50.0351 12.6334 50.0372 13.4916 50.0403 14.3498C50.0428 15.0873 50.0439 15.8248 50.0437 16.5623C50.0437 17.0024 50.0443 17.4426 50.0463 17.8827C50.0482 18.2969 50.0482 18.711 50.0468 19.1252C50.0466 19.2769 50.0471 19.4285 50.0482 19.5801C50.0549 20.4881 50.0313 21.168 49.4303 21.8951C49.3702 21.9469 49.3102 21.9986 49.2483 22.0519C49.1601 22.1314 49.1601 22.1314 49.0702 22.2125C48.2787 22.7033 47.4678 22.6957 46.5593 22.6848C46.427 22.6842 46.2947 22.6838 46.1624 22.6835C45.8171 22.6824 45.4718 22.6795 45.1265 22.6763C44.7729 22.6733 44.4194 22.6719 44.0659 22.6705C43.3743 22.6675 42.6828 22.6618 41.9912 22.6562C42.0235 24.3642 42.0557 26.0722 42.0889 27.8319C42.5723 28.0253 43.0557 28.2187 43.5537 28.4179C46.2319 29.7444 48.3665 31.9372 49.4131 34.7655C50.1404 37.0497 50.3612 39.6829 49.6084 41.9921C49.5778 42.0902 49.5778 42.0902 49.5466 42.1902C49.0676 43.6933 48.3099 45.0106 47.2647 46.1913C47.2088 46.2601 47.1529 46.3288 47.0953 46.3996C45.4549 48.3915 42.7658 49.6798 40.2334 49.9999C39.7448 50.0309 39.2581 50.0372 38.7686 50.0365C38.7021 50.0365 38.6356 50.0364 38.5671 50.0364C35.4427 50.0249 32.6901 48.8007 30.4678 46.5819C28.4893 44.4375 27.3428 41.6947 27.3428 38.7694C26.3116 38.7694 25.2803 38.7694 24.2178 38.7694C24.2201 39.1893 24.2201 39.1893 24.2224 39.6176C24.2273 40.5438 24.2305 41.4699 24.233 42.396C24.2345 42.9574 24.2366 43.5187 24.2399 44.0801C24.2431 44.6221 24.2448 45.1641 24.2456 45.7061C24.2461 45.9126 24.2472 46.1191 24.2488 46.3256C24.2509 46.6155 24.2512 46.9053 24.2511 47.1952C24.2521 47.28 24.2532 47.3649 24.2543 47.4523C24.2505 48.2037 24.0825 48.8657 23.5342 49.414C22.8998 49.8673 22.4275 50.0145 21.6454 50.015C21.5613 50.0154 21.4771 50.0158 21.3905 50.0162C21.1076 50.0176 20.8247 50.0182 20.5417 50.0188C20.3393 50.0195 20.1369 50.0203 19.9345 50.0212C19.2686 50.0237 18.6028 50.0252 17.9369 50.0266C17.7077 50.0271 17.4785 50.0277 17.2493 50.0282C16.2957 50.0303 15.3421 50.0321 14.3885 50.0332C13.022 50.0348 11.6556 50.0381 10.2891 50.0436C9.32829 50.0474 8.36748 50.0493 7.40665 50.0498C6.83285 50.0502 6.25908 50.0514 5.68529 50.0545C5.14512 50.0575 4.60499 50.0581 4.0648 50.0569C3.86695 50.0569 3.66909 50.0577 3.47124 50.0594C1.4002 50.0764 1.4002 50.0764 0.625656 49.3707C0.141375 48.8361 -0.03744 48.3199 -0.0394664 47.6085C-0.0400613 47.5369 -0.0406562 47.4654 -0.0412691 47.3916C-0.0428892 47.1528 -0.0424272 46.914 -0.0419579 46.6751C-0.042675 46.5034 -0.0435135 46.3318 -0.0444643 46.1601C-0.0466328 45.6944 -0.0469202 45.2287 -0.0467352 44.763C-0.0467235 44.3737 -0.0475601 43.9845 -0.0483736 43.5953C-0.0502517 42.6765 -0.0505335 41.7578 -0.0498734 40.839C-0.0492254 39.8925 -0.0514561 38.9461 -0.0550799 37.9996C-0.0580815 37.186 -0.0591865 36.3724 -0.0588067 35.5588C-0.0586051 35.0733 -0.0591345 34.5879 -0.0615306 34.1024C-0.0637112 33.6455 -0.0635167 33.1886 -0.0615377 32.7317C-0.0612057 32.5646 -0.0616972 32.3974 -0.0630986 32.2303C-0.0764036 30.525 -0.0764036 30.525 0.487331 29.7851C1.11212 29.1898 1.70657 28.9752 2.57473 28.9916C2.69634 28.9934 2.81794 28.9951 2.94323 28.997C3.08108 29.0004 3.08108 29.0004 3.22171 29.0038C3.22152 28.9465 3.22134 28.8893 3.22114 28.8302C3.21021 25.4337 3.20184 22.0372 3.19677 18.6407C3.19616 18.2327 3.19553 17.8247 3.19488 17.4167C3.19476 17.3355 3.19463 17.2542 3.1945 17.1705C3.19237 15.8561 3.18852 14.5417 3.18403 13.2272C3.17946 11.8781 3.17675 10.5289 3.17576 9.17971C3.1751 8.34749 3.17298 7.51529 3.16901 6.68308C3.16643 6.11205 3.16565 5.54104 3.16629 4.97C3.1666 4.64074 3.16586 4.31158 3.1635 3.98232C3.16107 3.62468 3.16166 3.26717 3.16299 2.90953C3.16157 2.80637 3.16014 2.7032 3.15868 2.5969C3.16566 1.90117 3.31041 1.35863 3.70999 0.781169C4.26914 0.24995 4.80858 -0.0241977 5.58799 -0.0252047ZM4.97952 2.0507C4.32426 3.36122 4.88186 4.98003 4.88186 6.44523C11.7783 6.44523 18.6748 6.44523 25.7803 6.44523C25.8125 5.96183 25.8448 5.47843 25.878 4.98039C26.1608 4.23289 26.5621 3.7591 27.2966 3.403C27.7815 3.23682 28.2847 3.26477 28.7922 3.26692C28.9781 3.26541 28.9781 3.26541 29.1678 3.26386C29.5055 3.26115 29.8432 3.26081 30.1809 3.26091C30.5346 3.2606 30.8883 3.25809 31.2421 3.25583C31.9109 3.25188 32.5798 3.24988 33.2486 3.2486C34.0105 3.24705 34.7724 3.2433 35.5343 3.23937C37.1007 3.23133 38.667 3.22604 40.2334 3.22258C40.2467 3.05393 40.2561 2.88497 40.2639 2.71598C40.2696 2.62195 40.2753 2.52791 40.2811 2.43103C40.2487 2.13714 40.2487 2.13714 40.0724 1.87257C39.5459 1.5307 38.9953 1.59318 38.384 1.59873C38.2421 1.59824 38.1002 1.59753 37.9582 1.59663C37.5682 1.59478 37.1781 1.59598 36.788 1.59768C36.3674 1.59898 35.9467 1.59748 35.5261 1.59633C34.702 1.59453 33.878 1.59536 33.0539 1.59712C32.3844 1.59849 31.7148 1.59887 31.0453 1.59854C30.95 1.59849 30.8548 1.59844 30.7567 1.5984C30.5633 1.5983 30.3698 1.59819 30.1764 1.59809C28.4653 1.59725 26.7543 1.59888 25.0432 1.60178C23.3819 1.6046 21.7207 1.60529 20.0594 1.60378C18.2513 1.60215 16.4432 1.60175 14.635 1.60346C14.4423 1.60364 14.2496 1.60382 14.0569 1.604C13.9621 1.60409 13.8673 1.60418 13.7696 1.60427C13.1006 1.60482 12.4316 1.60449 11.7626 1.60385C10.9477 1.6031 10.1328 1.60375 9.31787 1.60621C8.90188 1.60743 8.48591 1.60803 8.06992 1.60694C7.68939 1.60596 7.30892 1.60678 6.9284 1.60905C6.79047 1.60955 6.65253 1.60939 6.5146 1.60852C6.32763 1.60743 6.14066 1.60897 5.95369 1.61065C5.84968 1.61076 5.74567 1.61088 5.63851 1.611C5.30339 1.67228 5.19053 1.78918 4.97952 2.0507ZM27.5381 5.27336C27.4045 5.54061 27.4275 5.75312 27.4267 6.0524C27.4262 6.17686 27.4256 6.30132 27.4251 6.42955C27.4249 6.56827 27.4248 6.70699 27.4247 6.8457C27.4243 6.99118 27.4238 7.13666 27.4233 7.28214C27.422 7.67802 27.4213 8.0739 27.4209 8.46978C27.4206 8.71702 27.4202 8.96427 27.4198 9.21151C27.4184 9.98484 27.4175 10.7582 27.4171 11.5315C27.4167 12.4246 27.415 13.3177 27.4121 14.2109C27.41 14.9009 27.4091 15.5909 27.4089 16.281C27.4088 16.6932 27.4082 17.1055 27.4065 17.5178C27.4049 17.9056 27.4047 18.2935 27.4055 18.6814C27.4056 18.8237 27.4052 18.966 27.4042 19.1083C27.403 19.3027 27.4037 19.4971 27.4046 19.6915C27.4044 19.8002 27.4043 19.909 27.4041 20.0211C27.4453 20.351 27.5368 20.535 27.7334 20.8007C28.022 20.945 28.2709 20.8996 28.5926 20.889C28.7343 20.8848 28.8759 20.8807 29.0176 20.8767C29.093 20.8745 29.1683 20.8723 29.2459 20.8701C29.7307 20.8576 30.2157 20.8535 30.7006 20.8484C31.1258 20.8436 31.5504 20.8354 31.9754 20.8197C34.7206 20.7217 34.7206 20.7217 35.4413 21.1765C35.8838 21.5987 36.1661 22.079 36.4171 22.6326C36.565 22.9399 36.7558 23.1763 36.9741 23.4374C37.0298 23.5079 37.0854 23.5784 37.1428 23.651C37.4338 23.9711 37.5713 24.1133 38.0186 24.1412C38.5389 23.9706 38.7385 23.6468 39.0493 23.2116C39.1082 23.1323 39.1671 23.0531 39.2277 22.9715C39.346 22.8119 39.4636 22.6518 39.5803 22.4911C39.7272 22.2902 39.8768 22.0921 40.029 21.8951C40.4416 21.441 40.4416 21.441 40.624 20.8984C40.7582 20.9 40.7582 20.9 40.8951 20.9016C41.7385 20.9114 42.582 20.9189 43.4254 20.9237C43.8591 20.9262 44.2926 20.9297 44.7263 20.9352C45.1448 20.9405 45.5633 20.9434 45.9819 20.9447C46.1415 20.9456 46.3011 20.9473 46.4607 20.95C46.6844 20.9535 46.908 20.954 47.1318 20.9538C47.2591 20.9549 47.3864 20.956 47.5175 20.9571C47.9453 20.8817 48.0676 20.7439 48.3389 20.4101C48.4108 20.1135 48.4108 20.1135 48.3989 19.7868C48.3999 19.6609 48.4008 19.5351 48.4018 19.4055C48.4004 19.2667 48.3989 19.128 48.3974 18.9893C48.3976 18.8426 48.398 18.696 48.3986 18.5493C48.3996 18.1516 48.3975 17.754 48.3948 17.3563C48.3925 16.9401 48.3928 16.5239 48.3928 16.1076C48.3923 15.4087 48.39 14.7099 48.3865 14.011C48.3824 13.203 48.3807 12.3949 48.3803 11.5868C48.38 10.7265 48.3781 9.86623 48.3757 9.00592C48.3751 8.75799 48.3748 8.51006 48.3745 8.26213C48.3739 7.87265 48.3723 7.48318 48.3699 7.09371C48.3692 6.95073 48.3688 6.80774 48.3687 6.66476C48.3686 6.4697 48.3672 6.27464 48.3657 6.07959C48.365 5.91581 48.365 5.91581 48.3643 5.74872C48.3386 5.46597 48.3074 5.30839 48.1436 5.07804C47.7941 4.81163 47.3804 4.85493 46.9604 4.85662C46.8798 4.85617 46.7993 4.85573 46.7163 4.85527C46.446 4.85404 46.1758 4.8542 45.9055 4.85436C45.7119 4.85378 45.5183 4.85311 45.3247 4.85237C44.7985 4.85065 44.2723 4.85019 43.7461 4.85006C43.307 4.84988 42.868 4.84916 42.429 4.84847C41.3934 4.84688 40.3578 4.8464 39.3222 4.84654C38.2533 4.84666 37.1843 4.8446 36.1154 4.84151C35.1981 4.83896 34.2808 4.83791 33.3635 4.83804C32.8155 4.83808 32.2674 4.83752 31.7194 4.83546C31.204 4.83357 30.6887 4.83355 30.1734 4.83498C29.9842 4.83518 29.7949 4.83472 29.6057 4.83354C29.3476 4.83204 29.0895 4.83293 28.8314 4.83444C28.7188 4.83294 28.7188 4.83294 28.6039 4.8314C28.1234 4.83761 27.8746 4.92918 27.5381 5.27336ZM4.88186 8.10539C4.88186 15.0019 4.88186 21.8984 4.88186 29.0038C7.52444 29.0038 10.167 29.0038 12.8897 29.0038C12.8897 22.1073 12.8897 15.2109 12.8897 8.10539C10.2471 8.10539 7.60452 8.10539 4.88186 8.10539ZM14.5498 8.10539C14.5498 15.0019 14.5498 21.8984 14.5498 29.0038C18.417 29.0522 18.417 29.0522 22.3623 29.1015C23.3574 29.5437 23.3574 29.5437 23.6258 29.8705C23.679 29.9327 23.7323 29.9949 23.7871 30.059C24.0785 30.5126 24.1449 30.9594 24.1513 31.4906C24.1532 31.6137 24.1552 31.7368 24.1572 31.8637C24.1583 31.9966 24.1595 32.1295 24.1606 32.2623C24.1624 32.3994 24.1643 32.5365 24.1663 32.6736C24.1713 33.0329 24.1752 33.3922 24.1788 33.7515C24.1827 34.1188 24.1877 34.486 24.1926 34.8533C24.2022 35.5727 24.2099 36.2922 24.2178 37.0116C25.3135 37.0116 26.4092 37.0116 27.5381 37.0116C27.5905 36.7679 27.6429 36.5242 27.6968 36.2731C28.3821 33.2861 30.1314 30.7586 32.7139 29.1015C34.697 27.9124 36.8771 27.4164 39.1714 27.4352C39.6971 27.4382 39.6971 27.4382 40.2334 27.4413C40.2334 26.4745 40.2334 25.5077 40.2334 24.5116C40.0723 24.6728 39.9112 24.8339 39.7451 24.9999C39.1304 25.5339 38.5529 25.8354 37.7119 25.8124C36.8545 25.6865 36.2143 25.2547 35.7012 24.5731C35.5816 24.4086 35.4627 24.2437 35.3445 24.0783C35.2254 23.9136 35.1063 23.7489 34.9871 23.5843C34.9349 23.5116 34.8828 23.4389 34.8291 23.364C34.7756 23.2916 34.7221 23.2191 34.667 23.1444C34.6118 23.0606 34.5567 22.9767 34.4998 22.8903C34.296 22.6328 34.296 22.6328 33.995 22.5957C33.8861 22.5959 33.7771 22.5962 33.6648 22.5964C33.5409 22.5954 33.417 22.5945 33.2894 22.5935C33.1543 22.5948 33.0191 22.5961 32.884 22.5974C32.7446 22.5969 32.6052 22.5961 32.4658 22.5951C32.0985 22.5928 31.7313 22.5932 31.364 22.5944C30.7783 22.5962 30.1926 22.5952 29.6069 22.5919C29.4037 22.5913 29.2004 22.5926 28.9972 22.5941C28.1276 22.5916 27.378 22.5306 26.6287 22.0641C25.9272 21.2974 25.8062 20.5362 25.8136 19.5244C25.8125 19.4005 25.8115 19.2765 25.8105 19.1488C25.8077 18.8119 25.8079 18.475 25.8087 18.1381C25.809 17.7849 25.8066 17.4317 25.8044 17.0785C25.8008 16.411 25.7996 15.7436 25.7993 15.0761C25.7988 14.1732 25.7944 13.2703 25.7902 12.3673C25.7838 10.9467 25.7825 9.52607 25.7803 8.10539C22.0742 8.10539 18.3682 8.10539 14.5498 8.10539ZM31.4688 32.3058C29.6121 34.456 28.9297 37.0475 29.1006 39.8437C29.3895 42.3291 30.7286 44.6992 32.6773 46.2646C34.7952 47.8903 37.4033 48.6282 40.0591 48.2944C42.577 47.9091 44.7733 46.5512 46.3823 44.5903C47.9315 42.4721 48.6605 39.9032 48.2718 37.2909C47.8144 34.6378 46.4234 32.342 44.2159 30.7834C42.5818 29.6614 40.731 29.0591 38.7442 29.071C38.6462 29.0715 38.5481 29.0721 38.4472 29.0726C35.7189 29.1169 33.3242 30.3475 31.4688 32.3058ZM1.75686 31.0546C1.61536 31.3376 1.64559 31.5841 1.64418 31.9004C1.64375 31.968 1.64332 32.0356 1.64288 32.1053C1.64157 32.333 1.64097 32.5606 1.64037 32.7883C1.6396 32.9511 1.63879 33.1139 1.63795 33.2767C1.63539 33.8123 1.6339 34.3478 1.6325 34.8834C1.63198 35.0676 1.63145 35.2518 1.63093 35.4361C1.62882 36.2022 1.62699 36.9683 1.62589 37.7344C1.6243 38.8332 1.62106 39.9319 1.6155 41.0307C1.61172 41.8029 1.60981 42.575 1.60929 43.3471C1.60894 43.8085 1.60776 44.2699 1.6046 44.7313C1.60166 45.1653 1.60104 45.5993 1.60219 46.0334C1.60221 46.1927 1.6014 46.352 1.59969 46.5114C1.59748 46.7289 1.59828 46.9463 1.59983 47.1638C1.59951 47.2855 1.59918 47.4073 1.59885 47.5327C1.6787 47.9545 1.79771 48.0933 2.14749 48.3398C2.43587 48.3877 2.66767 48.4055 2.95552 48.4011C3.03655 48.4018 3.11758 48.4025 3.20106 48.4032C3.47241 48.4049 3.74362 48.4032 4.01497 48.4014C4.20956 48.4019 4.40415 48.4026 4.59874 48.4035C5.12718 48.4053 5.65557 48.4041 6.184 48.4021C6.73678 48.4005 7.28956 48.4014 7.84234 48.4019C8.77068 48.4023 9.69899 48.4008 10.6273 48.3981C11.7009 48.3949 12.7744 48.3949 13.848 48.3966C14.8804 48.3982 15.9127 48.3975 16.9451 48.3958C17.3846 48.3952 17.8241 48.3953 18.2636 48.396C18.7811 48.3967 19.2986 48.3956 19.8161 48.3929C20.0061 48.3922 20.1961 48.3922 20.3862 48.3929C20.6454 48.3937 20.9045 48.3922 21.1637 48.39C21.2767 48.3912 21.2767 48.3912 21.3921 48.3925C21.873 48.385 22.1231 48.2938 22.46 47.9491C22.6007 47.6677 22.5706 47.4254 22.5714 47.1108C22.5716 47.044 22.5719 46.9771 22.5722 46.9083C22.5731 46.6833 22.5732 46.4583 22.5734 46.2334C22.5738 46.0725 22.5743 45.9116 22.5748 45.7507C22.5761 45.3129 22.5768 44.875 22.5772 44.4372C22.5775 44.1638 22.5779 43.8904 22.5783 43.6169C22.5797 42.7619 22.5806 41.9068 22.581 41.0517C22.5814 40.0639 22.5831 39.0762 22.586 38.0884C22.5881 37.3254 22.5891 36.5624 22.5892 35.7994C22.5893 35.3435 22.5899 34.8875 22.5916 34.4316C22.5932 34.0027 22.5934 33.5738 22.5926 33.1449C22.5925 32.9874 22.5929 32.83 22.5939 32.6726C22.5951 32.4576 22.5946 32.2428 22.5935 32.0278C22.5937 31.9075 22.5938 31.7873 22.594 31.6633C22.5538 31.3139 22.4816 31.1343 22.2647 30.8593C21.9175 30.5919 21.5045 30.6362 21.0852 30.6379C21.005 30.6374 20.9249 30.637 20.8423 30.6365C20.5734 30.6353 20.3045 30.6354 20.0356 30.6356C19.8429 30.635 19.6503 30.6344 19.4576 30.6336C18.934 30.6319 18.4105 30.6314 17.8869 30.6313C17.45 30.6311 17.0132 30.6304 16.5763 30.6297C15.5459 30.6281 14.5155 30.6276 13.485 30.6278C12.4214 30.6279 11.3578 30.6258 10.2942 30.6228C9.38144 30.6202 8.46874 30.6192 7.55602 30.6193C7.01068 30.6193 6.46536 30.6188 5.92002 30.6167C5.40726 30.6148 4.89453 30.6148 4.38177 30.6162C4.19348 30.6164 4.00518 30.616 3.81689 30.6148C3.56003 30.6133 3.30328 30.6142 3.04642 30.6157C2.97174 30.6147 2.89705 30.6137 2.8201 30.6126C2.34059 30.6189 2.09275 30.7114 1.75686 31.0546Z" fill="black"/>
<path d="M45.3116 6.83595C46.0807 7.37259 46.4828 8.00593 46.7764 8.88673C46.8567 10.0457 46.7926 10.9493 46.044 11.8897C45.5886 12.3753 45.0387 12.6331 44.4327 12.8906C44.4953 12.9191 44.5578 12.9475 44.6223 12.9769C45.61 13.4449 46.2746 13.9847 46.6899 15.0162C46.915 15.8374 46.8991 16.8741 46.527 17.6457C46.0039 18.4812 45.3911 19.0614 44.4327 19.336C43.5319 19.5247 42.7261 19.4423 41.8936 19.043C41.1185 18.5355 40.6305 17.8659 40.3311 16.9922C40.231 16.4702 40.2334 15.9591 40.2335 15.4297C39.8899 15.24 39.546 15.051 39.202 14.8621C39.1052 14.8086 39.0085 14.7552 38.9088 14.7001C38.7196 14.5964 38.5295 14.4943 38.3385 14.394C38.085 14.2578 38.085 14.2578 37.9024 14.1356C37.7242 14.0159 37.7242 14.0159 37.4014 13.9649C36.9959 14.0938 36.6407 14.2977 36.2723 14.5081C36.1104 14.5965 36.1104 14.5965 35.9451 14.6866C35.6155 14.867 35.2878 15.0506 34.96 15.2344C34.6066 15.4286 34.2522 15.6213 33.898 15.8142C33.813 15.8607 33.7279 15.9072 33.6403 15.9551C33.3643 16.1059 33.088 16.2562 32.8116 16.4063C32.6998 16.467 32.588 16.5278 32.4728 16.5904C32.1752 16.7516 31.8767 16.911 31.5777 17.0695C31.4057 17.161 31.2344 17.254 31.0632 17.3469C30.9575 17.4026 30.8518 17.4582 30.7429 17.5156C30.6497 17.5654 30.5565 17.6152 30.4604 17.6665C30.1166 17.7953 29.8558 17.8057 29.4913 17.7735C29.2044 17.572 29.2044 17.572 29.003 17.2852C28.9404 16.8958 28.9433 16.6948 29.1574 16.3605C29.4393 16.0655 29.7423 15.899 30.1039 15.7223C30.1735 15.6871 30.2431 15.6519 30.3147 15.6157C30.4634 15.5406 30.6123 15.4661 30.7615 15.392C31.15 15.199 31.5366 15.0024 31.9235 14.8064C32.0001 14.7677 32.0766 14.7291 32.1555 14.6893C32.7997 14.3636 33.4362 14.0256 34.0689 13.678C34.1539 13.6314 34.239 13.5848 34.3266 13.5368C34.705 13.3283 35.0785 13.1142 35.4483 12.8906C35.0436 12.6727 34.6387 12.455 34.2337 12.2376C34.1726 12.2047 34.1115 12.1719 34.0485 12.1381C33.0664 11.611 32.0803 11.0926 31.088 10.585C29.3177 9.67345 29.3177 9.67345 29.003 9.27736C28.929 8.61152 28.929 8.61152 29.1556 8.25807C29.4727 8.05481 29.7011 8.02801 30.0772 8.00783C30.3285 8.09944 30.5304 8.19051 30.7608 8.31911C30.8269 8.35407 30.893 8.38904 30.961 8.42506C31.1079 8.50284 31.2543 8.58135 31.4004 8.66047C31.6541 8.79678 31.9094 8.92926 32.1654 9.06107C33.1236 9.55507 34.0751 10.0604 35.0211 10.5774C35.1103 10.6261 35.1995 10.6747 35.2913 10.7248C35.6748 10.9344 36.0574 11.1452 36.4371 11.3617C36.4959 11.3948 36.5548 11.4278 36.6154 11.4619C36.7652 11.5463 36.9144 11.6319 37.0635 11.7176C37.3486 11.8349 37.4087 11.8154 37.6944 11.7188C37.8849 11.6271 38.0731 11.5308 38.2598 11.4315C38.3678 11.3746 38.4758 11.3176 38.5871 11.2589C38.6993 11.1992 38.8116 11.1394 38.9273 11.0779C39.1502 10.9594 39.3732 10.8413 39.5964 10.7235C39.6952 10.6709 39.794 10.6184 39.8957 10.5642C40.1358 10.4492 40.1358 10.4492 40.3311 10.4492C40.3218 10.3901 40.3125 10.3309 40.3029 10.2699C40.1618 9.20319 40.361 8.38386 41.0147 7.51955C42.0705 6.33466 43.9295 5.98355 45.3116 6.83595ZM42.2415 8.74635C41.9734 9.16469 41.9269 9.57209 41.9913 10.0586C42.1658 10.5291 42.4543 10.8556 42.8702 11.1328C43.2952 11.2745 43.7082 11.3138 44.1336 11.1637C44.5571 10.9438 44.8054 10.6886 45.0186 10.2539C45.1525 9.78527 45.1637 9.40323 44.9637 8.95387C44.7122 8.52438 44.4207 8.28289 43.9341 8.14478C43.2284 8.01967 42.7294 8.23348 42.2415 8.74635ZM41.1124 11.9141C40.8372 12.0556 40.5628 12.1983 40.2884 12.3413C40.21 12.3816 40.1317 12.4219 40.0509 12.4634C39.9764 12.5024 39.9018 12.5414 39.8249 12.5816C39.7559 12.6174 39.6868 12.6532 39.6157 12.6901C39.4358 12.7836 39.4358 12.7836 39.3546 12.9883C39.6217 13.1414 39.8907 13.291 40.1602 13.44C40.2361 13.4835 40.3121 13.5271 40.3903 13.5719C40.4639 13.6122 40.5375 13.6525 40.6134 13.694C40.7147 13.7508 40.7147 13.7508 40.818 13.8087C41.0184 13.89 41.0184 13.89 41.2233 13.7878C41.2834 13.7496 41.3435 13.7113 41.4054 13.6719C41.4675 13.6326 41.5297 13.5933 41.5938 13.5529C41.6565 13.5116 41.7192 13.4703 41.7838 13.4277C42.103 13.2251 42.4057 13.0892 42.7725 12.9883C42.6263 12.6958 42.3989 12.6447 42.1073 12.5061C41.7464 12.3343 41.4233 12.1663 41.1124 11.9141ZM42.3224 15.1142C41.9915 15.5855 41.9179 15.9354 41.9913 16.5039C42.1728 17.0182 42.4408 17.265 42.8702 17.5781C43.3981 17.7541 43.798 17.7354 44.3045 17.5293C44.6978 17.274 44.9341 16.9319 45.1163 16.5039C45.2077 15.9353 45.0489 15.5022 44.7257 15.0391C44.3462 14.6949 43.9884 14.5689 43.4859 14.5359C43.002 14.5679 42.6471 14.7572 42.3224 15.1142Z" fill="black"/>
<path d="M34.1797 32.2265C34.5357 32.3562 34.8693 32.5243 35.2071 32.6954C35.3056 32.7439 35.4041 32.7925 35.5056 32.8425C35.7115 32.9441 35.9171 33.0463 36.1225 33.149C36.4068 33.2912 36.692 33.4318 36.9775 33.5716C38.153 34.1475 39.3241 34.7323 40.4957 35.3159C40.9227 35.5285 41.3499 35.7404 41.7774 35.9517C42.2991 36.2097 42.8202 36.4687 43.3409 36.7286C43.538 36.8267 43.7353 36.9244 43.9328 37.0218C44.2071 37.157 44.4807 37.2938 44.7541 37.4308C44.835 37.4703 44.9159 37.5098 44.9993 37.5505C45.4292 37.7682 45.7363 37.9562 45.9961 38.3788C46.051 38.7206 46.051 38.7206 45.9961 39.0624C45.5832 39.5899 45.012 39.8334 44.4218 40.1261C44.3122 40.1814 44.2025 40.2367 44.0896 40.2937C43.7902 40.4447 43.4903 40.5945 43.1901 40.744C42.9392 40.8691 42.6886 40.9948 42.4381 41.1205C41.8469 41.417 41.2552 41.7126 40.6633 42.0075C40.0531 42.3115 39.4438 42.617 38.8348 42.9233C38.3112 43.1867 37.7871 43.4491 37.2626 43.7108C36.9497 43.867 36.6369 44.0234 36.3246 44.1808C35.9765 44.356 35.6275 44.5294 35.2783 44.7026C35.1238 44.7809 35.1238 44.7809 34.9661 44.8608C34.8706 44.9077 34.7752 44.9547 34.6769 45.003C34.5946 45.0442 34.5122 45.0853 34.4273 45.1277C34.1318 45.2316 33.905 45.2423 33.5937 45.2148C33.3301 45.039 33.1502 44.9136 33.0078 44.6288C32.9983 44.4726 32.995 44.3159 32.9947 44.1594C32.9943 44.0603 32.9939 43.9611 32.9935 43.859C32.9936 43.6952 32.9936 43.6952 32.9936 43.5282C32.9933 43.4135 32.993 43.2989 32.9926 43.1807C32.9919 42.8658 32.9915 42.5508 32.9915 42.2358C32.9914 41.973 32.991 41.7102 32.9907 41.4474C32.9899 40.8273 32.9896 40.2072 32.9897 39.5871C32.9898 38.9472 32.9887 38.3074 32.9872 37.6676C32.9859 37.1185 32.9854 36.5694 32.9855 36.0203C32.9855 35.6922 32.9852 35.3642 32.9842 35.0361C32.9832 34.6702 32.9835 34.3043 32.9841 33.9384C32.9835 33.8296 32.983 33.7208 32.9824 33.6088C32.9828 33.5091 32.9832 33.4094 32.9837 33.3067C32.9836 33.2202 32.9836 33.1337 32.9835 33.0445C33.0102 32.7893 33.0639 32.6366 33.2031 32.4218C33.5793 32.171 33.7302 32.1784 34.1797 32.2265ZM34.7656 34.4726C34.7656 37.2441 34.7656 40.0156 34.7656 42.871C35.2574 42.7091 35.2574 42.7091 35.7186 42.5039C35.8184 42.4542 35.8184 42.4542 35.9203 42.4035C35.9912 42.3677 36.0621 42.3319 36.1352 42.295C36.2115 42.2568 36.2878 42.2187 36.3664 42.1794C36.617 42.054 36.8674 41.9281 37.1178 41.8022C37.2921 41.7148 37.4664 41.6275 37.6407 41.5403C38.0984 41.311 38.5559 41.0813 39.0134 40.8515C39.4806 40.6169 39.9481 40.3827 40.4156 40.1485C41.3319 39.6893 42.2481 39.2295 43.1641 38.7695C42.8602 38.4426 42.4998 38.2711 42.1043 38.0757C42.0263 38.0366 41.9483 37.9975 41.868 37.9572C41.6103 37.8283 41.3523 37.7001 41.0942 37.572C40.9153 37.4827 40.7364 37.3934 40.5575 37.304C40.1829 37.1169 39.808 36.9302 39.433 36.7438C38.9512 36.5042 38.4697 36.264 37.9884 36.0236C37.6192 35.8392 37.2499 35.655 36.8806 35.4709C36.7029 35.3824 36.5253 35.2938 36.3477 35.2052C36.1001 35.0817 35.8525 34.9586 35.6048 34.8355C35.5307 34.7985 35.4567 34.7615 35.3804 34.7234C35.086 34.5498 35.086 34.5498 34.7656 34.4726Z" fill="black"/>
<path d="M16.1133 19.3359C18.7881 19.3359 21.4629 19.3359 24.2188 19.3359C24.2188 22.0107 24.2188 24.6855 24.2188 27.4414C21.5439 27.4414 18.8691 27.4414 16.1133 27.4414C16.1133 24.7666 16.1133 22.0918 16.1133 19.3359ZM17.7734 20.9961C17.7734 22.5752 17.7734 24.1543 17.7734 25.7812C19.3525 25.7812 20.9316 25.7812 22.5586 25.7812C22.5586 24.2021 22.5586 22.623 22.5586 20.9961C20.9795 20.9961 19.4004 20.9961 17.7734 20.9961Z" fill="black"/>
<path d="M16.1133 9.66797C18.7881 9.66797 21.4629 9.66797 24.2188 9.66797C24.2188 12.3428 24.2188 15.0176 24.2188 17.7734C21.5439 17.7734 18.8691 17.7734 16.1133 17.7734C16.1133 15.0986 16.1133 12.4238 16.1133 9.66797ZM17.7734 11.3281C17.7734 12.9072 17.7734 14.4863 17.7734 16.1133C19.3525 16.1133 20.9316 16.1133 22.5586 16.1133C22.5586 14.5342 22.5586 12.9551 22.5586 11.3281C20.9795 11.3281 19.4004 11.3281 17.7734 11.3281Z" fill="black"/>
<path d="M11.2304 32.2266C11.8104 32.2266 12.3905 32.2266 12.9882 32.2266C12.9865 32.3744 12.9849 32.5222 12.9832 32.6745C12.9782 33.2238 12.9791 33.7729 12.9816 34.3223C12.9819 34.5598 12.9807 34.7974 12.9778 35.0349C12.974 35.3769 12.9758 35.7184 12.9786 36.0603C12.9762 36.1663 12.9738 36.2722 12.9714 36.3813C12.9742 36.9477 12.9742 36.9477 13.2803 37.398C13.5123 37.5558 13.5123 37.5558 13.753 37.6765C14.1458 37.8926 14.2918 38.2453 14.4774 38.6353C14.6588 39.4513 14.6316 40.1636 14.215 40.8985C13.879 41.3714 13.5526 41.6558 12.9882 41.7969C12.9882 43.4404 12.9882 45.084 12.9882 46.7773C12.4081 46.7773 11.828 46.7773 11.2304 46.7773C11.2304 45.1338 11.2304 43.4902 11.2304 41.7969C11.0692 41.7324 10.9081 41.668 10.7421 41.6016C10.2218 41.2619 9.83151 40.8408 9.66786 40.2344C9.55686 39.3568 9.62809 38.6172 10.1561 37.8906C10.4438 37.5794 10.752 37.3974 11.1327 37.207C11.1649 35.5635 11.1972 33.9199 11.2304 32.2266ZM11.4257 39.0625C11.3032 39.3908 11.3032 39.3908 11.328 39.7461C11.5654 40.0842 11.7068 40.2143 12.1154 40.2893C12.4666 40.2221 12.58 40.1275 12.7929 39.8438C12.898 39.6593 12.898 39.6593 12.8905 39.4531C12.7539 39.1798 12.6183 38.9856 12.4022 38.7695C11.9811 38.7238 11.7118 38.734 11.4257 39.0625Z" fill="black"/>
<path d="M4.78421 32.2266C5.36429 32.2266 5.94436 32.2266 6.54202 32.2266C6.54191 32.473 6.5418 32.7195 6.54169 32.9734C6.54175 33.7873 6.54501 34.6011 6.54986 35.415C6.5527 35.9085 6.55446 36.402 6.55375 36.8955C6.55311 37.3717 6.5553 37.8478 6.55946 38.3239C6.56055 38.5057 6.56061 38.6875 6.55964 38.8692C6.55845 39.1237 6.56089 39.3779 6.56419 39.6323C6.563 39.7076 6.56181 39.7829 6.56058 39.8605C6.55981 40.0979 6.55981 40.0979 6.63968 40.4297C6.91422 40.6704 6.91422 40.6704 7.22561 40.8203C7.82948 41.3896 8.10516 41.8769 8.13504 42.7124C8.11721 43.4862 7.90024 44.0128 7.37744 44.5824C7.12991 44.8175 6.89225 45.0195 6.54202 45.0195C6.54202 45.5996 6.54202 46.1797 6.54202 46.7773C5.96194 46.7773 5.38186 46.7773 4.78421 46.7773C4.78421 46.1973 4.78421 45.6172 4.78421 45.0195C4.62307 44.9551 4.46194 44.8906 4.29593 44.8242C3.77557 44.4845 3.3823 44.0646 3.22171 43.457C3.11217 42.6045 3.143 41.9208 3.64628 41.2067C3.9587 40.8367 4.25512 40.6454 4.68655 40.4297C4.71878 37.7227 4.751 35.0156 4.78421 32.2266ZM4.88186 42.4805C4.88186 42.8265 4.91521 43.0533 5.08938 43.3533C5.38816 43.5226 5.62094 43.4982 5.95608 43.457C6.19415 43.2816 6.31033 43.1416 6.43826 42.8772C6.44733 42.578 6.32593 42.4244 6.1514 42.1875C5.59818 41.8187 5.26647 41.9488 4.88186 42.4805Z" fill="black"/>
<path d="M17.6767 32.2266C18.2568 32.2266 18.8369 32.2266 19.4345 32.2266C19.4345 33.3545 19.4345 34.4824 19.4345 35.6445C19.6279 35.709 19.8212 35.7734 20.0204 35.8398C20.5575 36.2934 20.9484 36.8709 21.0275 37.5771C21.0545 38.2419 20.9934 38.8016 20.6064 39.3555C20.3359 39.647 20.0575 39.9137 19.7275 40.1367C19.6308 40.1367 19.5341 40.1367 19.4345 40.1367C19.4345 42.3281 19.4345 44.5195 19.4345 46.7773C18.8544 46.7773 18.2744 46.7773 17.6767 46.7773C17.6768 46.5812 17.6769 46.385 17.677 46.1829C17.677 45.5347 17.6737 44.8865 17.6689 44.2383C17.666 43.8453 17.6643 43.4523 17.665 43.0593C17.6656 42.68 17.6634 42.3008 17.6593 41.9215C17.6582 41.7768 17.6581 41.6321 17.6591 41.4874C17.6603 41.2846 17.6578 41.0821 17.6545 40.8793C17.6541 40.764 17.6537 40.6486 17.6532 40.5297C17.6044 40.2078 17.6044 40.2078 17.2974 40.0125C17.197 39.9568 17.0966 39.9011 16.9931 39.8438C16.464 39.3903 16.1568 38.9434 16.0764 38.2473C16.0553 37.5653 16.0655 36.9725 16.5048 36.4258C16.8728 36.0397 17.1526 35.7756 17.6767 35.6445C17.6767 34.5166 17.6767 33.3887 17.6767 32.2266ZM18.1894 37.2253C17.9501 37.4 17.9501 37.4 17.7744 37.6953C17.7824 38.0738 17.8309 38.2355 18.0856 38.5193C18.3524 38.6976 18.3524 38.6976 18.6655 38.6658C18.952 38.5723 19.0718 38.528 19.2392 38.2812C19.3533 37.9716 19.3552 37.8395 19.2331 37.5305C18.9282 37.1667 18.6372 37.032 18.1894 37.2253Z" fill="black"/>
<path d="M6.44531 25.7812C8.05664 25.7812 9.66797 25.7812 11.3281 25.7812C11.3281 26.3291 11.3281 26.877 11.3281 27.4414C9.7168 27.4414 8.10547 27.4414 6.44531 27.4414C6.44531 26.8936 6.44531 26.3457 6.44531 25.7812Z" fill="black"/>
<path d="M6.44531 22.5586C8.05664 22.5586 9.66797 22.5586 11.3281 22.5586C11.3281 23.1064 11.3281 23.6543 11.3281 24.2188C9.7168 24.2188 8.10547 24.2188 6.44531 24.2188C6.44531 23.6709 6.44531 23.123 6.44531 22.5586Z" fill="black"/>
<path d="M6.44531 19.3359C8.05664 19.3359 9.66797 19.3359 11.3281 19.3359C11.3281 19.8838 11.3281 20.4316 11.3281 20.9961C9.7168 20.9961 8.10547 20.9961 6.44531 20.9961C6.44531 20.4482 6.44531 19.9004 6.44531 19.3359Z" fill="black"/>
<path d="M6.44531 16.1133C8.05664 16.1133 9.66797 16.1133 11.3281 16.1133C11.3281 16.6611 11.3281 17.209 11.3281 17.7734C9.7168 17.7734 8.10547 17.7734 6.44531 17.7734C6.44531 17.2256 6.44531 16.6777 6.44531 16.1133Z" fill="black"/>
<path d="M6.44531 12.8906C8.05664 12.8906 9.66797 12.8906 11.3281 12.8906C11.3281 13.4385 11.3281 13.9863 11.3281 14.5508C9.7168 14.5508 8.10547 14.5508 6.44531 14.5508C6.44531 14.0029 6.44531 13.4551 6.44531 12.8906Z" fill="black"/>
<path d="M6.44531 9.66797C8.05664 9.66797 9.66797 9.66797 11.3281 9.66797C11.3281 10.2158 11.3281 10.7637 11.3281 11.3281C9.7168 11.3281 8.10547 11.3281 6.44531 11.3281C6.44531 10.7803 6.44531 10.2324 6.44531 9.66797Z" fill="black"/>
<path d="M12.8906 3.22266C13.4385 3.22266 13.9863 3.22266 14.5508 3.22266C14.5508 3.77051 14.5508 4.31836 14.5508 4.88281C14.0029 4.88281 13.4551 4.88281 12.8906 4.88281C12.8906 4.33496 12.8906 3.78711 12.8906 3.22266Z" fill="black"/>
<path d="M9.66797 3.22266C10.2158 3.22266 10.7637 3.22266 11.3281 3.22266C11.3281 3.77051 11.3281 4.31836 11.3281 4.88281C10.7803 4.88281 10.2324 4.88281 9.66797 4.88281C9.66797 4.33496 9.66797 3.78711 9.66797 3.22266Z" fill="black"/>
<path d="M6.44531 3.22266C6.99316 3.22266 7.54102 3.22266 8.10547 3.22266C8.10547 3.77051 8.10547 4.31836 8.10547 4.88281C7.55762 4.88281 7.00977 4.88281 6.44531 4.88281C6.44531 4.33496 6.44531 3.78711 6.44531 3.22266Z" fill="black"/>
</g>
<defs>
<clipPath id="clip0_386_702">
<rect width="50" height="50" fill="white"/>
</clipPath>
</defs>
</svg>
