<svg width="24" height="24" viewBox="0 0 24 24" fill="none" xmlns="http://www.w3.org/2000/svg">
<g clip-path="url(#clip0_121_892)">
<path d="M9.6913 -0.00618342C9.91164 -0.0060625 10.132 -0.00617541 10.3523 -0.00624839C10.7219 -0.00633303 11.0915 -0.00622299 11.4611 -0.00599805C11.885 -0.00574299 12.3089 -0.00582582 12.7328 -0.00608367C13.1004 -0.00629814 13.4681 -0.00632556 13.8358 -0.00620373C14.0538 -0.00613161 14.2717 -0.00611818 14.4897 -0.00627575C17.283 -0.00800874 20.0811 0.0255383 22.1846 2.12176C24.0939 4.14476 24.0082 7.07009 24.0063 9.66021C24.0062 9.88346 24.0063 10.1067 24.0064 10.3299C24.0065 10.7044 24.0064 11.0789 24.0062 11.4533C24.0059 11.8831 24.006 12.3128 24.0062 12.7425C24.0065 13.115 24.0065 13.4875 24.0064 13.86C24.0063 14.0809 24.0063 14.3019 24.0064 14.5228C24.0079 16.9764 24.0079 16.9764 23.8946 17.8214C23.8886 17.8672 23.8826 17.9129 23.8764 17.9601C23.6683 19.453 23.132 20.839 22.0782 21.9376C22.0426 21.9761 22.0071 22.0146 21.9705 22.0543C20.4625 23.6387 18.2071 23.9458 16.125 24.0001C15.5178 24.0104 14.9104 24.0089 14.3031 24.0095C14.1613 24.0096 14.0195 24.0098 13.8777 24.01C13.4313 24.0107 12.9848 24.0111 12.5384 24.0113C12.0283 24.0115 11.5182 24.0123 11.008 24.0137C10.6101 24.0147 10.2122 24.0152 9.81435 24.0153C9.57834 24.0153 9.34234 24.0156 9.10633 24.0164C6.58657 24.025 4.07429 23.8912 2.10942 22.1251C2.07172 22.0914 2.03401 22.0577 1.99516 22.0229C0.507473 20.6149 0.0865044 18.5121 4.6452e-05 16.547C-0.00820995 16.2453 -0.00733207 15.9435 -0.00750665 15.6418C-0.0077242 15.553 -0.00795981 15.4642 -0.00821189 15.3754C-0.00882163 15.136 -0.00912774 14.8967 -0.00933699 14.6573C-0.00947534 14.507 -0.00966797 14.3566 -0.00987629 14.2063C-0.0105161 13.7336 -0.0109699 13.2609 -0.0111516 12.7882C-0.0113609 12.2469 -0.0121804 11.7056 -0.013542 11.1643C-0.0145638 10.7431 -0.015029 10.3219 -0.0150912 9.90068C-0.0151398 9.65044 -0.0154037 9.40021 -0.0162542 9.14997C-0.0245548 6.55773 0.101312 3.99804 1.9688 2.01574C1.99689 1.98462 2.02499 1.9535 2.05394 1.92144C3.47923 0.403801 5.6234 0.0777214 7.59936 0.00962599C8.29643 -0.0107084 8.99399 -0.00668786 9.6913 -0.00618342ZM3.48308 3.49743C2.06791 4.96537 2.14302 7.24909 2.13578 9.14097C2.13486 9.36048 2.13347 9.57999 2.13215 9.7995C2.13 10.1681 2.1282 10.5366 2.12662 10.9052C2.12481 11.3279 2.1225 11.7506 2.1199 12.1733C2.11739 12.5839 2.11519 12.9946 2.11314 13.4052C2.11228 13.5781 2.11132 13.751 2.11028 13.9238C2.01301 16.772 2.01301 16.772 2.81255 19.4532C2.83418 19.4938 2.85581 19.5344 2.8781 19.5763C3.43417 20.5594 4.28928 21.1643 5.35627 21.4714C6.79072 21.8576 8.32679 21.8117 9.80097 21.8096C10.0205 21.8093 10.2401 21.8096 10.4596 21.8097C10.8277 21.8099 11.1957 21.8097 11.5638 21.8092C11.9856 21.8087 12.4074 21.8089 12.8291 21.8094C13.1955 21.8098 13.5619 21.8099 13.9283 21.8096C14.1453 21.8095 14.3623 21.8095 14.5793 21.8098C17.8082 21.8495 17.8082 21.8495 20.5437 20.3356C21.9839 18.8303 21.8122 16.3849 21.8095 14.4583C21.8093 14.2323 21.8095 14.0062 21.8096 13.7802C21.8098 13.4008 21.8096 13.0213 21.8091 12.6419C21.8086 12.2075 21.8088 11.773 21.8093 11.3386C21.8097 10.9614 21.8098 10.5842 21.8096 10.207C21.8094 9.98358 21.8094 9.76016 21.8097 9.53673C21.8107 8.71056 21.8079 7.88632 21.7544 7.06161C21.7507 7.00415 21.7469 6.94668 21.7431 6.88748C21.6502 5.60731 21.3229 4.31834 20.3438 3.42199C18.5725 2.01428 16.1219 2.14833 13.9824 2.15007C13.7858 2.15019 13.5892 2.15007 13.3925 2.15C13.0624 2.14992 12.7323 2.15003 12.4022 2.15025C12.0244 2.15051 11.6466 2.15042 11.2688 2.15017C10.9407 2.14995 10.6125 2.14992 10.2844 2.15005C10.0901 2.15012 9.89575 2.15013 9.70143 2.14997C6.36578 2.04858 6.36578 2.04858 3.48308 3.49743Z" fill="black"/>
<path d="M15.9713 7.23178C16.0878 7.33422 16.2005 7.43956 16.3125 7.5469C16.3509 7.58237 16.3893 7.61784 16.4289 7.65439C17.5132 8.68651 18.152 10.2301 18.197 11.7199C18.2231 13.5101 17.6382 15.0746 16.3995 16.3819C15.4399 17.366 14.1936 17.9406 12.8437 18.1407C12.8026 18.1468 12.7615 18.153 12.7192 18.1593C11.0886 18.3604 9.43938 17.8581 8.15035 16.8604C6.8808 15.8485 6.04875 14.3903 5.84761 12.7764C5.73925 11.7753 5.84016 10.791 6.18746 9.84378C6.20474 9.79598 6.22202 9.74819 6.23982 9.69894C6.84231 8.15117 8.05469 6.95282 9.56246 6.28128C11.7096 5.40813 14.1859 5.7384 15.9713 7.23178ZM9.32808 9.0469C9.29237 9.07814 9.25666 9.10938 9.21987 9.14157C8.51466 9.80033 8.05707 10.8024 8.01558 11.7657C8.01371 11.8008 8.01184 11.836 8.00991 11.8722C7.97766 13.0444 8.46146 14.0549 9.25191 14.8916C9.90939 15.5212 10.8536 15.9451 11.7656 15.9844C11.8007 15.9863 11.8359 15.9881 11.8721 15.9901C12.9097 16.0186 13.9004 15.6406 14.6718 14.9532C14.7074 14.922 14.743 14.8908 14.7797 14.8587C15.4492 14.2343 15.9444 13.2461 15.9843 12.3282C15.9867 12.2813 15.9892 12.2344 15.9917 12.1861C16.022 11.0621 15.6407 10.0685 14.872 9.24868C14.0968 8.46147 13.1158 8.00998 12 7.99807C11.0042 8.00871 10.071 8.39339 9.32808 9.0469Z" fill="black"/>
<path d="M19.2775 4.39165C19.6388 4.68867 19.8311 5.03268 19.8884 5.49779C19.9062 5.92 19.7755 6.28583 19.5035 6.6074C19.1846 6.92203 18.8201 7.06032 18.3752 7.07817C17.9566 7.05526 17.6714 6.9108 17.3586 6.64165C17.0368 6.26772 16.9053 5.90702 16.9277 5.4044C16.9888 5.00478 17.1884 4.66863 17.4963 4.40922C18.0336 4.02699 18.7332 4.01111 19.2775 4.39165Z" fill="black"/>
</g>
<defs>
<clipPath id="clip0_121_892">
<rect width="24" height="24" fill="white"/>
</clipPath>
</defs>
</svg>
