<svg width="50" height="50" viewBox="0 0 50 50" fill="none" xmlns="http://www.w3.org/2000/svg">
<g clip-path="url(#clip0_78_665)">
<path d="M25.7947 0.120355C26.1445 0.289085 26.4851 0.471293 26.8249 0.659181C26.9507 0.726831 27.0767 0.794277 27.2028 0.861527C27.4568 0.997266 27.7102 1.13397 27.9632 1.27158C28.4572 1.53986 28.9564 1.79813 29.4555 2.05689C29.6349 2.15083 29.8143 2.2448 29.9937 2.33879C30.3562 2.52813 30.7196 2.71541 31.0841 2.90096C31.3232 3.0228 31.5622 3.14516 31.8011 3.26752C31.9709 3.35419 32.141 3.44008 32.3112 3.52595C32.9417 3.84914 33.5757 4.18123 34.0819 4.6875C34.1454 5.1773 34.161 5.54663 33.8805 5.96314C33.5328 6.19248 33.3259 6.2312 32.9101 6.25C32.6367 6.15478 32.4074 6.05809 32.1532 5.92651C32.0811 5.89083 32.0089 5.85515 31.9346 5.81839C31.7052 5.70401 31.4774 5.58688 31.2499 5.46875C31.1799 5.43256 31.1099 5.39637 31.0378 5.35908C30.6679 5.16703 30.2994 4.97229 29.9315 4.77638C29.522 4.55876 29.1107 4.34451 28.6986 4.1317C28.6379 4.1003 28.5771 4.0689 28.5144 4.03655C28.2042 3.87639 27.8938 3.7166 27.5831 3.55721C27.0763 3.29673 26.5707 3.03612 26.076 2.75307C25.9751 2.69588 25.9751 2.69588 25.872 2.63753C25.7056 2.54214 25.5406 2.4444 25.3757 2.34642C25.0076 2.21365 24.8723 2.2997 24.5116 2.44141C24.2916 2.54626 24.0736 2.65549 23.8574 2.76795C23.7961 2.79968 23.7348 2.83142 23.6716 2.86413C23.4733 2.96695 23.2753 3.07038 23.0773 3.17383C22.9391 3.24563 22.8009 3.31741 22.6627 3.38914C21.8848 3.79331 21.1082 4.20015 20.3332 4.60992C19.6367 4.97774 18.937 5.33924 18.2372 5.70068C17.3778 6.14458 16.5188 6.58937 15.6615 7.03735C14.8526 7.46006 14.0427 7.88092 13.2323 8.30078C12.043 8.91702 10.8551 9.53605 9.66788 10.1563C9.30169 10.3475 8.93548 10.5388 8.56924 10.73C8.47828 10.7775 8.38731 10.825 8.29358 10.8739C7.77582 11.1441 7.25762 11.4134 6.73895 11.6817C6.68094 11.7118 6.62293 11.7418 6.56317 11.7727C6.28217 11.9182 6.00111 12.0635 5.71995 12.2087C5.07292 12.5434 5.07292 12.5434 4.43116 12.8881C4.37308 12.9198 4.315 12.9515 4.25516 12.9842C4.0926 13.0732 3.93035 13.1627 3.76811 13.2523C3.51553 13.3789 3.51553 13.3789 3.32022 13.3789C3.32022 13.4434 3.32022 13.5078 3.32022 13.5742C3.40076 13.5984 3.48131 13.6226 3.56429 13.6475C3.95859 13.7883 4.31773 13.9673 4.68855 14.1602C4.76289 14.1984 4.83722 14.2367 4.91381 14.2761C5.1539 14.3998 5.39368 14.5241 5.63345 14.6484C5.79944 14.7341 5.96544 14.8198 6.13146 14.9055C6.98966 15.3486 7.84675 15.7938 8.70026 16.2459C9.38659 16.6092 10.0765 16.9655 10.7665 17.3218C11.7161 17.8122 12.6648 18.3044 13.6121 18.7995C14.3392 19.1793 15.0674 19.5569 15.7958 19.9341C16.5336 20.3162 17.2707 20.6995 18.0053 21.0876C18.7802 21.497 19.5582 21.9 20.3368 22.3022C21.2326 22.765 22.1281 23.2282 23.0224 23.6938C23.1111 23.74 23.1999 23.7861 23.2914 23.8336C23.3753 23.8774 23.4593 23.9211 23.5457 23.9662C23.6257 24.0075 23.7057 24.0489 23.7882 24.0914C23.9483 24.1781 24.1056 24.2702 24.26 24.3667C24.6922 24.6466 24.6922 24.6466 25.188 24.6719C25.287 24.6191 25.3861 24.5662 25.4882 24.5117C25.5585 24.4768 25.6288 24.4419 25.7012 24.4059C25.9641 24.2743 26.2235 24.1371 26.4831 23.999C26.6848 23.8927 26.8866 23.7864 27.0885 23.6801C27.194 23.6244 27.2995 23.5687 27.4083 23.5113C27.9551 23.2237 28.5039 22.9401 29.0526 22.6563C29.958 22.1872 30.8626 21.7166 31.7663 21.2445C32.4967 20.8631 33.2282 20.4839 33.9599 20.105C34.6977 19.7229 35.4347 19.3396 36.1693 18.9514C37.0055 18.5097 37.8455 18.0753 38.6857 17.6413C39.5736 17.1827 40.4604 16.7222 41.346 16.2593C42.1892 15.8188 43.0339 15.3814 43.8789 14.9444C44.3717 14.6892 44.8639 14.433 45.3532 14.1712C45.431 14.1296 45.5087 14.0881 45.5888 14.0452C45.7298 13.9696 45.8705 13.8936 46.011 13.8171C46.4631 13.5742 46.4631 13.5742 46.6796 13.5742C46.6796 13.5098 46.6796 13.4453 46.6796 13.3789C46.5955 13.353 46.5115 13.327 46.4248 13.3003C46.0922 13.1831 45.7947 13.0415 45.4822 12.8784C45.4251 12.8488 45.3681 12.8192 45.3093 12.7887C45.125 12.6929 44.941 12.5965 44.757 12.5C44.6293 12.4334 44.5016 12.3668 44.3738 12.3003C44.12 12.168 43.8664 12.0354 43.6129 11.9026C43.3102 11.7441 43.0071 11.5863 42.7039 11.4288C40.2626 10.1576 40.2626 10.1576 39.9413 9.76563C39.838 9.37442 39.8205 9.14904 39.9535 8.76465C40.1617 8.45932 40.2789 8.33383 40.6249 8.20313C41.2698 8.23214 41.7281 8.42445 42.2931 8.7246C42.3764 8.76766 42.4598 8.81073 42.5457 8.85509C42.8114 8.99269 43.0762 9.13193 43.341 9.27124C43.5145 9.36144 43.6882 9.45153 43.8619 9.54151C44.7849 10.0206 45.7044 10.5064 46.6243 10.9916C47.055 11.2184 47.4869 11.4423 47.9209 11.6627C48.0606 11.734 48.0606 11.734 48.2032 11.8067C48.3888 11.9012 48.5747 11.995 48.7609 12.0882C49.2462 12.3372 49.6628 12.5528 49.9999 12.9883C50.0648 13.2076 50.0648 13.2076 50.0609 13.4216C50.0622 13.492 50.0635 13.5624 50.0648 13.6349C49.9379 14.0893 49.6736 14.354 49.2817 14.5939C48.9992 14.7414 48.7137 14.8792 48.4252 15.0146C48.2116 15.1181 47.9981 15.2218 47.7847 15.3255C47.6794 15.3764 47.574 15.4272 47.4655 15.4796C47.0626 15.6764 46.6662 15.884 46.2707 16.095C45.5437 16.4809 44.8136 16.8606 44.0822 17.2381C43.185 17.7012 42.288 18.1648 41.394 18.634C41.2813 18.6929 41.2813 18.6929 41.1664 18.7531C40.8787 18.9045 40.6027 19.0578 40.3319 19.2383C41.4925 19.8518 42.6563 20.459 43.8221 21.0627C44.6256 21.4789 45.4286 21.8959 46.2301 22.316C46.7303 22.5779 47.2319 22.8365 47.7355 23.0919C47.8465 23.1485 47.9574 23.2052 48.0717 23.2635C48.2857 23.3727 48.5002 23.4812 48.715 23.5888C49.6686 24.077 49.6686 24.077 49.9999 24.5117C50.0648 24.7311 50.0648 24.7311 50.0609 24.9451C50.0622 25.0154 50.0635 25.0858 50.0648 25.1583C49.9455 25.5857 49.6854 25.8665 49.3184 26.099C49.0886 26.2201 48.8562 26.3314 48.6205 26.4404C48.443 26.5258 48.2657 26.6114 48.0884 26.6972C47.9991 26.74 47.9098 26.7828 47.8178 26.8269C47.4357 27.0129 47.0607 27.2111 46.6857 27.4109C45.8969 27.8291 45.1047 28.2403 44.3114 28.6499C43.4036 29.119 42.4958 29.5882 41.5893 30.0598C41.4956 30.1084 41.4019 30.157 41.3054 30.207C41.2195 30.2517 41.1337 30.2964 41.0453 30.3425C40.9707 30.3812 40.8962 30.42 40.8194 30.4599C40.6042 30.5741 40.6042 30.5741 40.3319 30.7617C41.4911 31.405 42.6564 32.0295 43.8447 32.6174C44.479 32.9316 45.1072 33.2553 45.732 33.5878C46.222 33.848 46.7146 34.1025 47.2091 34.354C47.402 34.4525 47.5949 34.551 47.7878 34.6496C47.9144 34.7141 48.0411 34.7783 48.168 34.8422C49.7546 35.6421 49.7546 35.6421 49.9999 36.1328C50.0335 36.3235 50.0335 36.3235 50.0487 36.5479C50.0558 36.6209 50.0628 36.6939 50.0701 36.7691C49.9409 37.2157 49.505 37.4816 49.1204 37.7182C48.9096 37.8328 48.6967 37.9413 48.4817 38.0478C48.4025 38.088 48.3233 38.1282 48.2418 38.1696C47.99 38.2972 47.7377 38.4236 47.4853 38.5498C47.2383 38.6743 46.9916 38.7991 46.7448 38.924C46.5798 39.0074 46.4148 39.0907 46.2498 39.1739C45.5229 39.541 44.8025 39.9196 44.0826 40.3002C43.4775 40.6201 42.8691 40.9338 42.2607 41.2476C42.0152 41.3743 41.7698 41.5011 41.5244 41.6279C41.4642 41.659 41.404 41.6901 41.342 41.7221C40.6988 42.0547 40.0569 42.3899 39.4151 42.7253C38.688 43.1051 37.9598 43.4827 37.2314 43.8599C36.4936 44.242 35.7565 44.6253 35.0219 45.0134C34.1857 45.4551 33.3457 45.8895 32.5055 46.3235C31.6182 46.7818 30.7319 47.242 29.8469 47.7047C29.335 47.9722 28.8226 48.2386 28.3095 48.5039C28.2505 48.5344 28.1914 48.565 28.1305 48.5965C27.8429 48.7453 27.5553 48.8939 27.2675 49.0423C27.163 49.0964 27.0584 49.1505 26.9507 49.2062C26.8504 49.2576 26.7501 49.3091 26.6468 49.3621C26.4713 49.456 26.2982 49.5547 26.1293 49.6602C25.587 49.9983 25.1485 50.1377 24.5116 50C24.037 49.8126 23.5962 49.5748 23.1505 49.3286C23.0235 49.2604 22.8963 49.1924 22.7691 49.1245C22.5179 48.9903 22.2673 48.8551 22.0172 48.7187C21.5976 48.4906 21.1751 48.2683 20.7519 48.0469C20.6069 47.9703 20.4619 47.8938 20.317 47.8172C19.6292 47.4553 18.9382 47.0995 18.2476 46.7429C17.3594 46.2841 16.4722 45.8232 15.5861 45.3602C14.8674 44.9848 14.1476 44.6113 13.4276 44.2383C12.1472 43.5748 10.8686 42.908 9.59044 42.2403C8.49406 41.6677 7.39699 41.0964 6.29874 40.5273C5.38525 40.054 4.4719 39.5804 3.56059 39.1029C3.07934 38.8509 2.59692 38.6015 2.11249 38.3556C2.01024 38.3033 1.90799 38.2511 1.80264 38.1972C1.60727 38.0973 1.41153 37.9982 1.21537 37.8999C0.73747 37.6547 0.332113 37.4402 -9.15527e-05 37.0117C-0.0615082 36.7889 -0.0615082 36.7889 -0.0550232 36.5723C-0.0551491 36.5008 -0.055275 36.4293 -0.0554047 36.3556C0.0436331 35.9567 0.250172 35.7326 0.596932 35.515C0.861006 35.3708 1.12816 35.2352 1.39761 35.1013C1.60222 34.9972 1.80682 34.8931 2.0114 34.7889C2.11577 34.7362 2.22015 34.6836 2.32768 34.6293C2.79919 34.3902 3.26709 34.1444 3.73526 33.8989C4.67128 33.4101 5.60867 32.9239 6.54657 32.4387C7.07731 32.1639 7.6073 31.8878 8.13551 31.6082C8.27824 31.5328 8.27824 31.5328 8.42386 31.4558C8.60209 31.3615 8.78015 31.2668 8.95801 31.1718C9.03629 31.1304 9.11458 31.089 9.19524 31.0463C9.26335 31.01 9.33146 30.9737 9.40164 30.9363C9.57022 30.8594 9.57022 30.8594 9.76553 30.8594C9.76553 30.7949 9.76553 30.7305 9.76553 30.6641C9.68675 30.6408 9.60797 30.6175 9.5268 30.5935C9.10169 30.4408 8.71234 30.2429 8.31175 30.0354C8.22811 29.9925 8.14447 29.9495 8.05829 29.9053C7.79099 29.768 7.52399 29.6301 7.25699 29.4922C7.08248 29.4025 6.90796 29.3129 6.73342 29.2233C5.81303 28.7501 4.89574 28.2714 3.9808 27.7878C3.50198 27.5353 3.02069 27.2886 2.53668 27.0462C2.35679 26.9555 2.17694 26.8648 1.99709 26.7741C1.87597 26.7133 1.75462 26.6529 1.63308 26.593C0.339514 25.9535 0.339514 25.9535 -9.15527e-05 25.3906C-0.0649414 25.1831 -0.0649414 25.1831 -0.0611267 25C-0.0623856 24.9396 -0.0636444 24.8792 -0.0649414 24.8169C0.0673221 24.3937 0.331798 24.1209 0.699762 23.8916C0.955919 23.7576 1.21495 23.633 1.47696 23.5107C1.67248 23.4163 1.86792 23.3217 2.06328 23.2269C2.1606 23.1801 2.25793 23.1333 2.3582 23.085C2.75063 22.8936 3.13638 22.6907 3.52164 22.4854C4.37544 22.0323 5.23364 21.588 6.09268 21.1451C6.69575 20.8341 7.29851 20.5227 7.89748 20.2038C8.02456 20.1362 8.02456 20.1362 8.15421 20.0672C8.30714 19.9856 8.45987 19.9036 8.61235 19.8212C8.98947 19.6199 9.35342 19.4578 9.76553 19.3359C9.76553 19.2715 9.76553 19.207 9.76553 19.1406C9.64604 19.105 9.64604 19.105 9.52413 19.0687C9.11444 18.922 8.74018 18.7335 8.35448 18.5333C8.27517 18.4926 8.19586 18.4518 8.11416 18.4098C7.86078 18.2795 7.60772 18.1485 7.35464 18.0176C7.18955 17.9326 7.02444 17.8477 6.85931 17.7628C5.96132 17.3004 5.06629 16.8327 4.17312 16.3612C3.71206 16.1181 3.24957 15.8781 2.78502 15.6418C2.67556 15.5859 2.5661 15.53 2.45333 15.4724C2.23385 15.3605 2.01412 15.2492 1.79415 15.1382C0.236193 14.3398 0.236193 14.3398 -9.15527e-05 13.8672C-0.0267944 13.673 -0.0267944 13.673 -0.0367126 13.446C-0.0414963 13.3719 -0.0462799 13.2978 -0.0512085 13.2214C0.022834 12.8837 0.227145 12.7096 0.48819 12.5C0.779513 12.3204 1.08275 12.1686 1.38922 12.0167C1.52139 11.9497 1.52139 11.9497 1.65624 11.8813C1.93783 11.7387 2.22006 11.5975 2.50235 11.4563C2.77847 11.3172 3.05445 11.1778 3.33042 11.0383C3.51359 10.9458 3.69681 10.8534 3.88008 10.7611C4.70597 10.3443 5.52436 9.91404 6.34186 9.48115C6.83051 9.22311 7.3216 8.96973 7.81241 8.71582C7.92243 8.65883 8.03246 8.60183 8.14581 8.54311C8.60556 8.30495 9.06539 8.06693 9.52521 7.8289C11.1308 6.99808 11.1308 6.99808 12.7318 6.15845C13.568 5.71674 14.408 5.28236 15.2482 4.84837C16.046 4.43628 16.8432 4.02304 17.6391 3.60718C18.448 3.18448 19.2579 2.76362 20.0683 2.34375C20.919 1.90282 21.7696 1.46174 22.6195 1.01929C22.7091 0.972774 22.7987 0.926259 22.891 0.878335C22.9759 0.834087 23.0608 0.789838 23.1483 0.744248C23.23 0.702061 23.3117 0.659874 23.3959 0.616408C23.5524 0.531745 23.7062 0.441861 23.8565 0.346805C24.5197 -0.0666182 25.0522 -0.171213 25.7947 0.120355ZM11.5451 20.6322C11.4496 20.68 11.3541 20.7278 11.2557 20.7771C11.1012 20.8553 11.1012 20.8553 10.9435 20.9351C10.7838 21.0154 10.7838 21.0154 10.6209 21.0974C9.9279 21.4474 9.23867 21.8037 8.55291 22.1675C7.83275 22.5494 7.10856 22.9233 6.38419 23.2971C5.35955 23.826 4.33738 24.3592 3.32022 24.9023C3.32022 24.9668 3.32022 25.0313 3.32022 25.0977C4.19863 25.6332 5.08906 26.1435 6.01454 26.5938C6.12932 26.6536 6.12932 26.6536 6.24641 26.7146C6.78768 26.9688 7.14356 26.9623 7.7166 26.7991C8.0442 26.6621 8.29644 26.4626 8.57029 26.2399C8.96716 25.9392 9.41852 25.7391 9.86319 25.5188C10.0534 25.4194 10.2434 25.3194 10.4331 25.219C11.0757 24.8804 11.7206 24.5464 12.3656 24.2126C13.4864 23.6321 14.6052 23.0479 15.7226 22.4609C15.7226 22.3965 15.7226 22.332 15.7226 22.2656C15.6404 22.2233 15.5581 22.181 15.4734 22.1374C15.1656 21.9788 14.8579 21.82 14.5501 21.6612C14.4175 21.5928 14.2848 21.5244 14.1521 21.4561C13.9602 21.3573 13.7685 21.2584 13.5768 21.1594C13.5184 21.1293 13.46 21.0993 13.3998 21.0684C13.1011 20.9139 12.8079 20.7534 12.5181 20.5831C12.0795 20.3393 11.9742 20.4166 11.5451 20.6322ZM37.3656 20.6184C37.2788 20.6643 37.192 20.7101 37.1026 20.7573C36.9609 20.8332 36.9609 20.8332 36.8163 20.9106C36.6119 21.0188 36.4074 21.1269 36.2029 21.2349C36.0955 21.2918 35.9882 21.3488 35.8775 21.4074C35.3295 21.6967 34.7789 21.981 34.2284 22.2656C33.4139 22.6875 32.6 23.1105 31.787 23.5352C30.8634 24.0176 29.9385 24.4975 29.0133 24.9768C28.168 25.4149 27.3237 25.8547 26.48 26.2959C26.3935 26.341 26.307 26.3862 26.2179 26.4328C26.1427 26.4722 26.0674 26.5115 25.9898 26.5521C25.921 26.5878 25.8521 26.6234 25.7812 26.6602C25.7117 26.6965 25.6423 26.7329 25.5708 26.7704C25.2612 26.9165 24.9443 26.8922 24.6093 26.8555C24.4783 26.7919 24.348 26.727 24.2187 26.6602C23.7491 26.7039 23.3682 26.9239 22.9575 27.1389C22.8458 27.1965 22.8458 27.1965 22.7318 27.2553C22.4906 27.3798 22.2499 27.5052 22.0092 27.6306C21.8429 27.7167 21.6766 27.8028 21.5103 27.8888C20.6473 28.3354 19.785 28.7837 18.9266 29.2391C18.4791 29.4764 18.0297 29.7099 17.5792 29.9416C17.4578 30.0041 17.3365 30.0666 17.2151 30.1291C17.0351 30.2219 16.855 30.3145 16.6746 30.4067C16.5078 30.4921 16.3412 30.5779 16.1746 30.6637C16.078 30.7132 15.9814 30.7627 15.8819 30.8138C15.6485 30.9439 15.4429 31.0839 15.2343 31.25C15.5573 31.4299 15.881 31.6086 16.2047 31.7871C16.3376 31.8611 16.3376 31.8611 16.4731 31.9366C16.6644 32.0418 16.8573 32.1443 17.0513 32.2443C17.2986 32.3768 17.5283 32.5138 17.7637 32.6646C18.4655 33.0961 18.4655 33.0961 19.2631 33.1738C19.833 33.0013 20.3309 32.6913 20.8373 32.3853C20.9976 32.2947 21.1583 32.2048 21.3193 32.1155C21.6316 31.9413 21.9417 31.7642 22.2503 31.5835C22.7152 31.3116 23.19 31.0619 23.6693 30.8167C23.8081 30.7435 23.9467 30.6701 24.0851 30.5965C24.5924 30.3279 25.1013 30.0627 25.6103 29.7974C25.7045 29.7482 25.7988 29.6991 25.8959 29.6484C26.0875 29.5486 26.2791 29.4487 26.4707 29.3489C26.9408 29.1038 27.4108 28.8585 27.8808 28.6133C28.0679 28.5156 28.2551 28.418 28.4423 28.3203C28.5349 28.272 28.6276 28.2236 28.7231 28.1738C36.3036 24.2188 36.3036 24.2188 36.5848 24.0721C36.7705 23.9752 36.9562 23.8781 37.1418 23.781C37.6317 23.5249 38.1226 23.2708 38.6149 23.0194C38.7174 22.9668 38.8199 22.9142 38.9255 22.86C39.1219 22.7591 39.3186 22.6589 39.5156 22.5594C39.6041 22.5138 39.6926 22.4682 39.7838 22.4213C39.9004 22.3619 39.9004 22.3619 40.0194 22.3013C40.2578 22.1534 40.4342 21.9821 40.6249 21.7773C40.5723 21.7498 40.5197 21.7223 40.4654 21.6939C40.2235 21.5672 39.9817 21.4404 39.7399 21.3135C39.6157 21.2485 39.6157 21.2485 39.4891 21.1823C39.1162 20.9865 38.747 20.7892 38.3853 20.5734C37.9567 20.3397 37.7746 20.4004 37.3656 20.6184ZM42.3324 23.262C42.2436 23.3089 42.1547 23.3557 42.0632 23.4039C41.9673 23.4553 41.8713 23.5067 41.7724 23.5596C41.5674 23.6679 41.3624 23.7763 41.1574 23.8846C41.0525 23.9403 40.9476 23.996 40.8395 24.0534C40.3623 24.3061 39.8832 24.5554 39.4042 24.8047C39.217 24.9023 39.0298 25 38.8427 25.0977C35.4735 26.8555 35.4735 26.8555 35.1927 27.002C35.0058 27.0995 34.819 27.197 34.6321 27.2945C34.1594 27.5412 33.6866 27.7878 33.2137 28.0342C32.3548 28.482 31.4962 28.9303 30.6396 29.3823C29.7701 29.841 28.8972 30.293 28.0243 30.7449C27.3172 31.1112 26.6116 31.4801 25.9076 31.8521C25.1119 32.2718 24.3126 32.6847 23.5131 33.0973C22.7674 33.4828 22.027 33.8772 21.289 34.2773C21.568 34.5823 21.8285 34.7652 22.1995 34.9453C22.3001 34.9947 22.4006 35.0441 22.5041 35.095C22.661 35.1707 22.661 35.1707 22.821 35.2478C23.0269 35.3482 23.2328 35.4488 23.4386 35.5495C23.5379 35.5976 23.6373 35.6457 23.7397 35.6952C24.0713 35.8643 24.3846 36.056 24.695 36.2612C25.0812 36.3859 25.4054 36.1719 25.7549 36.0068C25.8455 35.9593 25.9361 35.9117 26.0295 35.8627C26.133 35.8087 26.2366 35.7547 26.3433 35.699C26.4538 35.6407 26.5644 35.5825 26.6784 35.5225C26.7953 35.4613 26.9122 35.4002 27.0291 35.3391C27.2725 35.2119 27.5157 35.0846 27.7588 34.9571C28.3355 34.6551 28.9139 34.3567 29.4921 34.0576C30.2217 33.6796 30.9505 33.3001 31.6772 32.9163C32.5134 32.4745 33.3533 32.0402 34.1936 31.6062C34.9914 31.1941 35.7885 30.7809 36.5844 30.365C37.3933 29.9423 38.2032 29.5214 39.0136 29.1016C40.1107 28.5331 41.2066 27.9624 42.3018 27.3903C42.5851 27.2424 42.8684 27.0947 43.1518 26.947C44.3292 26.3333 45.5052 25.7171 46.6796 25.0977C46.6796 25.0332 46.6796 24.9688 46.6796 24.9023C46.1708 24.6373 45.6615 24.3731 45.1519 24.1096C44.9786 24.0198 44.8053 23.9298 44.6322 23.8396C44.3835 23.7101 44.1345 23.5814 43.8853 23.4528C43.8078 23.4122 43.7303 23.3716 43.6504 23.3298C43.5781 23.2926 43.5058 23.2555 43.4313 23.2172C43.3677 23.1842 43.3042 23.1513 43.2387 23.1173C42.8755 22.9689 42.6565 23.0896 42.3324 23.262ZM17.5905 23.7169C17.5124 23.7567 17.4343 23.7966 17.3539 23.8377C17.2689 23.8816 17.1838 23.9255 17.0962 23.9708C17.0077 24.0162 16.9192 24.0615 16.828 24.1083C16.5427 24.2546 16.2578 24.4015 15.9728 24.5483C15.7871 24.6436 15.6014 24.7389 15.4157 24.8341C14.3873 25.3619 13.3625 25.8961 12.3402 26.4356C11.7217 26.7619 11.1007 27.0834 10.4796 27.4048C10.3611 27.4662 10.2425 27.5276 10.1239 27.589C9.84173 27.7352 9.5595 27.8813 9.27725 28.0273C9.55624 28.3323 9.81677 28.5152 10.1878 28.6953C10.2883 28.7447 10.3889 28.7941 10.4924 28.845C10.597 28.8954 10.7015 28.9459 10.8092 28.9978C11.0152 29.0982 11.2211 29.1988 11.4268 29.2995C11.5261 29.3476 11.6253 29.3957 11.7276 29.4452C12.0616 29.6153 12.3785 29.8071 12.6929 30.0112C12.8968 30.1015 12.8968 30.1015 13.1311 30.0064C13.2128 29.9656 13.2946 29.9248 13.3788 29.8828C13.4525 29.8481 13.5261 29.8133 13.602 29.7775C13.6777 29.7398 13.7533 29.702 13.8312 29.6631C13.9598 29.5989 13.9598 29.5989 14.091 29.5335C14.1823 29.4876 14.2736 29.4418 14.3676 29.3945C14.4636 29.3464 14.5595 29.2983 14.6584 29.2487C15.3202 28.9157 15.9778 28.5753 16.6322 28.228C17.1109 27.9742 17.5913 27.7238 18.0732 27.4761C19.3203 26.8348 20.5644 26.1931 21.7773 25.4883C21.4308 25.2052 21.0466 25.0067 20.6504 24.8035C20.5799 24.7671 20.5094 24.7307 20.4367 24.6931C20.2882 24.6166 20.1397 24.5401 19.991 24.4639C19.7629 24.3468 19.5353 24.229 19.3076 24.111C19.1632 24.0366 19.0187 23.9623 18.8743 23.888C18.7719 23.8349 18.7719 23.8349 18.6674 23.7808C18.2035 23.5439 18.0484 23.4816 17.5905 23.7169ZM11.8285 31.9967C11.7258 32.0495 11.7258 32.0495 11.621 32.1033C11.5435 32.1426 11.4659 32.1819 11.386 32.2224C11.3024 32.2661 11.2188 32.3098 11.1327 32.3547C11.045 32.3996 10.9573 32.4444 10.867 32.4907C10.5969 32.6293 10.3276 32.7694 10.0585 32.9102C9.98336 32.9494 9.90823 32.9886 9.83081 33.0291C9.54102 33.1808 9.25155 33.333 8.96249 33.4861C8.24391 33.8666 7.52173 34.2401 6.79922 34.613C5.63729 35.213 4.47763 35.8171 3.32022 36.4258C3.32022 36.4902 3.32022 36.5547 3.32022 36.6211C3.46096 36.6933 3.46096 36.6933 3.60454 36.767C6.74397 38.378 6.74397 38.378 7.89435 38.9875C8.62918 39.376 9.3684 39.7561 10.1073 40.1367C10.9977 40.5954 11.887 41.0559 12.7724 41.5242C13.4688 41.8919 14.1684 42.2534 14.8681 42.6147C15.818 43.1054 16.7669 43.5978 17.7145 44.0929C18.4332 44.4683 19.153 44.8418 19.873 45.2148C20.616 45.5999 21.359 45.985 22.1011 46.3718C22.2894 46.4698 22.4778 46.5677 22.6662 46.6652C23.0757 46.8779 23.482 47.0934 23.8818 47.3236C23.9488 47.3616 24.0158 47.3995 24.0849 47.4387C24.2587 47.5379 24.4312 47.6393 24.6036 47.7409C24.9896 47.8839 25.11 47.8066 25.4882 47.6563C25.7234 47.5439 25.9544 47.429 26.1851 47.3084C26.2508 47.2744 26.3164 47.2405 26.3841 47.2056C26.5963 47.0958 26.8082 46.9854 27.0202 46.875C27.1676 46.7986 27.3151 46.7222 27.4626 46.6458C28.2673 46.2287 29.0706 45.809 29.8718 45.3851C30.5649 45.0188 31.2614 44.6591 31.9579 44.2993C32.8174 43.8554 33.6763 43.4106 34.5336 42.9626C35.3425 42.5399 36.1524 42.1191 36.9628 41.6992C38.1521 41.083 39.34 40.464 40.5273 39.8438C40.8934 39.6525 41.2596 39.4612 41.6259 39.27C41.7169 39.2225 41.8078 39.175 41.9015 39.1261C42.4193 38.8559 42.9375 38.5867 43.4562 38.3183C43.5142 38.2882 43.5722 38.2582 43.632 38.2273C43.913 38.0818 44.194 37.9365 44.4752 37.7913C45.2143 37.4089 45.948 37.0176 46.6796 36.6211C46.6796 36.5566 46.6796 36.4922 46.6796 36.4258C46.6311 36.401 46.5826 36.3763 46.5327 36.3508C46.0175 36.0878 45.5024 35.8247 44.9874 35.5615C44.7965 35.4639 44.6055 35.3664 44.4145 35.2689C43.7692 34.9396 43.1244 34.6091 42.4804 34.2773C42.3955 34.2337 42.3107 34.19 42.2233 34.1451C41.4449 33.7435 40.6752 33.3398 39.9322 32.8754C38.9033 32.2026 38.9033 32.2026 37.735 31.9358C37.2273 32.0582 36.8207 32.3452 36.3966 32.64C35.9291 32.9457 35.4247 33.1838 34.9258 33.4335C34.6172 33.5891 34.3111 33.7494 34.0049 33.9096C33.8844 33.9725 33.764 34.0354 33.6435 34.0982C33.5304 34.1573 33.4173 34.2165 33.3007 34.2773C33.1046 34.3796 32.9085 34.4818 32.7125 34.584C32.4398 34.7262 32.1672 34.8685 31.8947 35.0108C31.0651 35.4442 30.2341 35.8749 29.403 36.3054C28.5694 36.7374 27.7367 37.1712 26.905 37.6068C26.7373 37.6945 26.5695 37.7816 26.4013 37.8682C26.2539 37.9453 26.1077 38.025 25.9633 38.1076C25.8661 38.1614 25.8661 38.1614 25.767 38.2164C25.7127 38.2479 25.6583 38.2794 25.6023 38.3119C25.1138 38.4665 24.7197 38.422 24.2541 38.2402C24.1322 38.1769 24.0112 38.1119 23.891 38.0455C23.7911 37.993 23.7911 37.993 23.6892 37.9394C23.5472 37.8647 23.4056 37.7894 23.2642 37.7136C22.9752 37.5595 22.6834 37.4113 22.3915 37.2629C22.0132 37.0706 21.6359 36.8762 21.2585 36.6821C21.1789 36.6413 21.0994 36.6004 21.0174 36.5583C20.0887 36.0811 19.1607 35.6025 18.2379 35.1139C17.3739 34.6566 16.5052 34.2083 15.6371 33.7589C15.2189 33.5424 14.8009 33.3255 14.3833 33.1077C14.1397 32.9808 13.8961 32.854 13.6524 32.7272C13.4795 32.6371 13.3067 32.5468 13.1339 32.4565C13.0294 32.4021 12.9249 32.3478 12.8173 32.2918C12.7251 32.2437 12.633 32.1957 12.5381 32.1461C12.1956 31.9604 12.1956 31.9604 11.8285 31.9967Z" fill="black"/>
<path d="M37.5 6.25C37.8052 6.4331 37.8052 6.4331 37.9883 6.73828C38.0848 7.22912 38.0642 7.58839 37.8052 8.02001C37.3753 8.27794 37.0126 8.30271 36.5234 8.20312C36.19 7.97177 36.07 7.81494 35.9375 7.43408C35.9375 7.04071 36.045 6.78977 36.2305 6.44531C36.6464 6.16801 37.0121 6.17774 37.5 6.25Z" fill="black"/>
</g>
<defs>
<clipPath id="clip0_78_665">
<rect width="50" height="50" fill="white"/>
</clipPath>
</defs>
</svg>
