<svg width="40" height="40" viewBox="0 0 40 40" fill="none" xmlns="http://www.w3.org/2000/svg">
<path d="M20.6841 4.52209C20.8248 4.59092 20.9648 4.66112 21.1042 4.73241C21.1819 4.77085 21.2595 4.80928 21.3395 4.84888C21.599 4.97779 21.8577 5.10847 22.1164 5.23916C22.3024 5.33202 22.4885 5.42478 22.6747 5.51742C23.1274 5.74299 23.5795 5.96989 24.0313 6.19726C24.5574 6.46195 25.0842 6.72532 25.611 6.98865C26.5507 7.45842 27.4898 7.9294 28.4286 8.40105C29.3398 8.85885 30.2514 9.31578 31.1635 9.77174C31.2479 9.8139 31.2479 9.8139 31.3339 9.85691C31.4181 9.89899 31.4181 9.89899 31.504 9.94192C32.5423 10.461 33.5803 10.9809 34.618 11.5012C34.9852 11.6852 35.3525 11.869 35.7198 12.0528C36.1671 12.2765 36.6142 12.5008 37.061 12.7256C37.289 12.8403 37.5172 12.9548 37.7455 13.0689C37.9927 13.1924 38.2395 13.3167 38.4863 13.4412C38.559 13.4773 38.6316 13.5134 38.7065 13.5506C38.7723 13.584 38.8381 13.6174 38.9059 13.6518C38.9629 13.6804 39.0199 13.709 39.0787 13.7385C39.2186 13.8282 39.2186 13.8282 39.3749 14.0626C39.4281 14.6217 39.4281 14.6217 39.2585 14.8316C38.9921 15.0604 38.7019 15.2011 38.3879 15.3553C38.3228 15.3878 38.2578 15.4203 38.1907 15.4538C38.0536 15.5221 37.9164 15.5902 37.779 15.6579C37.5681 15.7619 37.3577 15.8669 37.1474 15.9721C37.0141 16.0384 36.8807 16.1046 36.7473 16.1708C36.6842 16.2023 36.621 16.2337 36.5559 16.2662C36.4975 16.2949 36.4391 16.3236 36.3789 16.3532C36.3275 16.3786 36.276 16.404 36.223 16.4302C36.0936 16.4845 36.0936 16.4845 35.9374 16.4845C35.9374 16.536 35.9374 16.5876 35.9374 16.6407C36.0012 16.66 36.065 16.6793 36.1308 16.6992C36.4545 16.8142 36.7546 16.9585 37.0616 17.1116C37.123 17.1421 37.1844 17.1725 37.2477 17.2039C37.3767 17.268 37.5057 17.3323 37.6345 17.3967C37.832 17.4953 38.03 17.5929 38.228 17.6904C38.3536 17.7529 38.4791 17.8155 38.6046 17.8782C38.6638 17.9073 38.7231 17.9363 38.7841 17.9663C39.0528 18.1018 39.2049 18.1827 39.3749 18.4376C39.3921 18.6719 39.4005 18.8987 39.4011 19.1331C39.4016 19.2014 39.4021 19.2697 39.4027 19.34C39.4035 19.4845 39.4038 19.6289 39.4038 19.7733C39.4042 19.9941 39.407 20.2149 39.41 20.4357C39.4104 20.5761 39.4107 20.7164 39.4109 20.8567C39.412 20.9227 39.4131 20.9888 39.4143 21.0568C39.4108 21.5076 39.4108 21.5076 39.2585 21.7408C38.9805 21.9312 38.6901 22.0819 38.3879 22.2303C38.3228 22.2628 38.2578 22.2953 38.1907 22.3288C38.0536 22.3971 37.9164 22.4652 37.779 22.5329C37.5681 22.6369 37.3577 22.7419 37.1474 22.8471C37.0141 22.9134 36.8807 22.9796 36.7473 23.0458C36.6842 23.0773 36.621 23.1087 36.5559 23.1412C36.4975 23.1699 36.4391 23.1986 36.3789 23.2282C36.3275 23.2536 36.276 23.279 36.223 23.3052C36.0936 23.3595 36.0936 23.3595 35.9374 23.3595C35.9374 23.411 35.9374 23.4626 35.9374 23.5157C36.0012 23.535 36.065 23.5543 36.1308 23.5742C36.4545 23.6892 36.7546 23.8335 37.0616 23.9866C37.123 24.0171 37.1844 24.0475 37.2477 24.0789C37.3767 24.143 37.5057 24.2073 37.6345 24.2717C37.832 24.3703 38.03 24.4679 38.228 24.5654C38.3536 24.6279 38.4791 24.6905 38.6046 24.7532C38.6638 24.7823 38.7231 24.8113 38.7841 24.8413C39.0528 24.9768 39.2049 25.0577 39.3749 25.3126C39.428 25.8704 39.428 25.8704 39.2629 26.0792C38.9752 26.3244 38.6546 26.476 38.3172 26.6436C38.2408 26.6822 38.1644 26.7207 38.0857 26.7604C37.8293 26.8896 37.5725 27.0179 37.3156 27.1462C37.1318 27.2385 36.9481 27.331 36.7643 27.4234C36.3168 27.6485 35.8689 27.8728 35.4209 28.0969C35.0567 28.2791 34.6927 28.4615 34.3286 28.644C33.2964 29.1615 32.2638 29.6785 31.2309 30.1948C31.1753 30.2226 31.1196 30.2504 31.0623 30.2791C30.9787 30.3209 30.9787 30.3209 30.8934 30.3635C29.99 30.8152 29.0873 31.268 28.1848 31.7215C27.258 32.1871 26.3306 32.6519 25.4028 33.1156C24.882 33.376 24.3614 33.6367 23.8413 33.8984C23.3985 34.1213 22.9553 34.3432 22.5115 34.5641C22.2852 34.6767 22.0591 34.7899 21.8334 34.9039C21.5886 35.0275 21.343 35.1496 21.0972 35.2713C21.0263 35.3076 20.9554 35.3438 20.8823 35.3812C20.4791 35.5784 20.1375 35.7212 19.6874 35.6251C19.4116 35.5279 19.1556 35.4008 18.8955 35.2678C18.8179 35.2294 18.7402 35.1909 18.6603 35.1513C18.4007 35.0224 18.142 34.8918 17.8834 34.7611C17.6973 34.6682 17.5112 34.5754 17.325 34.4828C16.8723 34.2572 16.4203 34.0303 15.9684 33.803C15.4423 33.5383 14.9155 33.2749 14.3887 33.0116C13.449 32.5418 12.5099 32.0708 11.5712 31.5992C10.66 31.1414 9.74832 30.6844 8.83619 30.2285C8.77997 30.2004 8.72375 30.1723 8.66582 30.1433C8.6097 30.1153 8.55358 30.0872 8.49576 30.0583C7.45739 29.5392 6.41944 29.0193 5.38168 28.499C5.01451 28.315 4.64722 28.1312 4.27989 27.9474C3.83259 27.7237 3.38552 27.4995 2.93875 27.2746C2.71073 27.1599 2.48257 27.0454 2.25421 26.9314C2.00699 26.8078 1.76018 26.6835 1.51345 26.559C1.44077 26.5229 1.36809 26.4869 1.2932 26.4497C1.22742 26.4163 1.16164 26.3829 1.09386 26.3485C1.03682 26.3198 0.97979 26.2912 0.921027 26.2617C0.781113 26.172 0.781112 26.172 0.624862 25.9376C0.571614 25.3785 0.571615 25.3785 0.741212 25.1686C1.00758 24.9398 1.29781 24.7991 1.6118 24.6449C1.67688 24.6124 1.74197 24.5799 1.80902 24.5464C1.94611 24.4781 2.08336 24.4101 2.22074 24.3423C2.43164 24.2383 2.64202 24.1333 2.85234 24.0281C2.98567 23.9618 3.11903 23.8956 3.25243 23.8295C3.34715 23.7822 3.34715 23.7822 3.44379 23.734C3.50221 23.7053 3.56063 23.6766 3.62081 23.647C3.67226 23.6216 3.72371 23.5962 3.77672 23.57C3.90611 23.5157 3.90611 23.5157 4.06236 23.5157C4.06236 23.4642 4.06236 23.4126 4.06236 23.3595C3.99854 23.3402 3.93472 23.3209 3.86896 23.301C3.54525 23.1861 3.24517 23.0417 2.9381 22.8886C2.8767 22.8582 2.81531 22.8277 2.75206 22.7964C2.62302 22.7322 2.49408 22.668 2.3652 22.6035C2.16771 22.5049 1.96973 22.4074 1.77171 22.3098C1.64615 22.2473 1.52062 22.1847 1.39513 22.122C1.33588 22.0929 1.27664 22.0639 1.2156 22.0339C0.946905 21.8984 0.794824 21.8176 0.624862 21.5626C0.607627 21.3283 0.599233 21.1015 0.598617 20.8671C0.598097 20.7988 0.597577 20.7305 0.597041 20.6602C0.59625 20.5158 0.595884 20.3714 0.595909 20.227C0.595567 20.0061 0.592729 19.7853 0.589767 19.5645C0.589309 19.4241 0.588998 19.2838 0.588851 19.1435C0.587729 19.0775 0.586606 19.0115 0.585449 18.9435C0.588957 18.4926 0.588958 18.4926 0.741212 18.2594C1.01926 18.069 1.30959 17.9183 1.6118 17.7699C1.70942 17.7211 1.70942 17.7211 1.80902 17.6714C1.94611 17.6031 2.08336 17.5351 2.22074 17.4673C2.43164 17.3633 2.64202 17.2583 2.85234 17.1531C2.98567 17.0868 3.11903 17.0206 3.25243 16.9545C3.34715 16.9072 3.34715 16.9072 3.44379 16.859C3.50221 16.8303 3.56063 16.8016 3.62081 16.772C3.67226 16.7466 3.72371 16.7212 3.77672 16.695C3.90611 16.6407 3.90611 16.6407 4.06236 16.6407C4.06236 16.5892 4.06236 16.5376 4.06236 16.4845C3.99854 16.4652 3.93472 16.4459 3.86896 16.426C3.54525 16.3111 3.24517 16.1667 2.9381 16.0136C2.8767 15.9832 2.81531 15.9527 2.75206 15.9214C2.62302 15.8572 2.49408 15.793 2.3652 15.7285C2.16771 15.6299 1.96973 15.5324 1.77171 15.4348C1.64615 15.3723 1.52062 15.3097 1.39513 15.247C1.33588 15.2179 1.27664 15.1889 1.2156 15.1589C0.946905 15.0234 0.794824 14.9426 0.624862 14.6876C0.571739 14.1298 0.57174 14.1298 0.736789 13.921C1.02456 13.6758 1.34513 13.5242 1.68256 13.3566C1.79715 13.2988 1.79715 13.2988 1.91405 13.2398C2.17044 13.1106 2.42727 12.9823 2.68411 12.854C2.8679 12.7617 3.05166 12.6693 3.23539 12.5768C3.68292 12.3517 4.13079 12.1274 4.57881 11.9033C4.94299 11.7211 5.30707 11.5388 5.67109 11.3563C6.70337 10.8387 7.73591 10.3217 8.76879 9.80542C8.82445 9.7776 8.88012 9.74977 8.93747 9.7211C8.9932 9.69324 9.04894 9.66538 9.10636 9.63668C10.0097 9.18506 10.9125 8.7322 11.8149 8.27877C12.7418 7.81309 13.6691 7.34835 14.5969 6.88458C15.1177 6.62423 15.6383 6.3635 16.1584 6.10177C16.6012 5.87895 17.0444 5.657 17.4882 5.43617C17.7146 5.32351 17.9406 5.21032 18.1663 5.0963C18.4111 4.97267 18.6567 4.85061 18.9025 4.72892C18.9734 4.69265 19.0443 4.65639 19.1174 4.61903C19.6949 4.33652 20.0855 4.26141 20.6841 4.52209ZM19.5392 5.91435C19.4792 5.94401 19.4193 5.97368 19.3575 6.00424C19.2922 6.03737 19.2268 6.07051 19.1595 6.10465C19.0896 6.13942 19.0198 6.17419 18.9479 6.21002C18.7132 6.32711 18.479 6.44509 18.2447 6.56307C18.0769 6.64702 17.9091 6.73091 17.7412 6.81476C17.3794 6.99561 17.0179 7.17684 16.6565 7.35842C16.1339 7.62095 15.6111 7.8828 15.0881 8.14447C14.2397 8.56904 13.3915 8.99416 12.5435 9.41963C11.7197 9.83295 10.8958 10.246 10.0717 10.6587C10.0209 10.6842 9.97015 10.7096 9.91782 10.7358C9.66302 10.8634 9.40822 10.991 9.15342 11.1186C7.03933 12.1773 4.92571 13.2368 2.81236 14.297C2.81236 14.3485 2.81236 14.4001 2.81236 14.4532C4.97334 15.5409 7.13495 16.6272 9.29747 17.7117C9.5527 17.8398 9.80793 17.9678 10.0631 18.0958C10.114 18.1213 10.1648 18.1468 10.2171 18.173C11.0401 18.5859 11.8627 18.9996 12.6851 19.4137C13.5288 19.8385 14.3729 20.2623 15.2175 20.6852C15.7388 20.9463 16.2597 21.2081 16.7801 21.4708C17.179 21.6721 17.5786 21.8721 17.9784 22.0716C18.1425 22.1537 18.3063 22.2363 18.4699 22.3193C18.693 22.4323 18.9167 22.5438 19.1407 22.655C19.2056 22.6883 19.2705 22.7217 19.3373 22.7561C19.6951 22.9313 19.9182 23.0243 20.3124 22.8907C20.55 22.7907 20.7794 22.6776 21.0094 22.561C21.0787 22.5265 21.148 22.492 21.2194 22.4564C21.4515 22.3406 21.683 22.224 21.9146 22.1073C22.0809 22.0241 22.2473 21.941 22.4136 21.8579C22.8183 21.6556 23.2227 21.4527 23.6269 21.2496C24.0974 21.0133 24.5683 20.7776 25.0392 20.542C25.8789 20.1218 26.7183 19.701 27.5575 19.28C28.3726 18.871 29.1879 18.4622 30.0033 18.0538C30.0536 18.0286 30.1039 18.0035 30.1557 17.9775C30.408 17.8512 30.6602 17.7249 30.9125 17.5985C33.0045 16.5509 35.0961 15.5024 37.1874 14.4532C37.1874 14.4017 37.1874 14.3501 37.1874 14.297C35.0234 13.2114 32.859 12.1265 30.6943 11.0425C30.4388 10.9146 30.1834 10.7866 29.928 10.6587C29.8771 10.6332 29.8263 10.6078 29.7739 10.5815C28.95 10.1689 28.1262 9.7558 27.3026 9.34255C26.4578 8.91868 25.6127 8.49529 24.7675 8.07234C24.2457 7.81124 23.7241 7.54976 23.2027 7.28781C22.8033 7.08716 22.4035 6.88718 22.0036 6.68743C21.8394 6.60526 21.6752 6.52287 21.5112 6.44026C21.2878 6.32781 21.0641 6.21613 20.8403 6.10465C20.7422 6.05494 20.7422 6.05494 20.6422 6.00424C20.5823 5.97458 20.5223 5.94491 20.4605 5.91435C20.4089 5.88848 20.3573 5.86261 20.3041 5.83596C20.0133 5.72867 19.8021 5.78259 19.5392 5.91435ZM4.85704 17.6344C4.79853 17.6639 4.74001 17.6933 4.67972 17.7237C4.49316 17.8179 4.30706 17.9129 4.12096 18.0079C3.99444 18.072 3.86789 18.136 3.74132 18.1999C3.43133 18.3566 3.12175 18.5141 2.81236 18.672C2.81236 18.7235 2.81236 18.7751 2.81236 18.8282C4.97334 19.9159 7.13495 21.0022 9.29747 22.0867C9.5527 22.2148 9.80793 22.3428 10.0631 22.4708C10.114 22.4963 10.1648 22.5218 10.2171 22.548C11.0401 22.9609 11.8627 23.3746 12.6851 23.7887C13.5288 24.2135 14.3729 24.6373 15.2175 25.0602C15.7388 25.3213 16.2597 25.5831 16.7801 25.8458C17.179 26.0471 17.5786 26.2471 17.9784 26.4466C18.1425 26.5287 18.3063 26.6113 18.4699 26.6943C18.693 26.8073 18.9167 26.9188 19.1407 27.03C19.238 27.08 19.238 27.08 19.3373 27.1311C19.6951 27.3063 19.9182 27.3993 20.3124 27.2657C20.55 27.1657 20.7794 27.0526 21.0094 26.936C21.1133 26.8842 21.1133 26.8842 21.2194 26.8314C21.4515 26.7156 21.683 26.599 21.9146 26.4823C22.0809 26.3991 22.2473 26.316 22.4136 26.2329C22.8183 26.0306 23.2227 25.8277 23.6269 25.6246C24.0974 25.3883 24.5683 25.1526 25.0392 24.917C25.8789 24.4968 26.7183 24.076 27.5575 23.655C28.3726 23.246 29.1879 22.8372 30.0033 22.4288C30.0536 22.4036 30.1039 22.3785 30.1557 22.3525C30.408 22.2262 30.6602 22.0999 30.9125 21.9735C33.0045 20.9259 35.0961 19.8774 37.1874 18.8282C37.1874 18.7767 37.1874 18.7251 37.1874 18.672C36.8185 18.4798 36.4488 18.2893 36.0782 18.1003C35.9524 18.0358 35.8267 17.9708 35.7013 17.9054C35.5208 17.8113 35.3395 17.7189 35.1579 17.6268C35.0744 17.5826 35.0744 17.5826 34.9892 17.5375C34.9095 17.4976 34.9095 17.4976 34.8282 17.4569C34.782 17.4331 34.7359 17.4094 34.6883 17.3849C34.2586 17.2727 33.8609 17.5009 33.4866 17.6919C33.4022 17.734 33.4022 17.734 33.3161 17.777C33.1281 17.871 32.9406 17.9658 32.7531 18.0607C32.6183 18.1284 32.4834 18.196 32.3484 18.2636C32.0582 18.409 31.7682 18.5549 31.4783 18.7011C31.02 18.9321 30.5613 19.1623 30.1025 19.3923C29.2116 19.8391 28.3212 20.2868 27.4308 20.7346C26.2973 21.3047 25.1635 21.8744 24.0293 22.4432C23.5731 22.672 23.1172 22.9013 22.6615 23.1309C22.3781 23.2736 22.0946 23.4159 21.811 23.5581C21.6794 23.6241 21.5479 23.6904 21.4165 23.7568C21.2373 23.8473 21.0578 23.9373 20.8782 24.0271C20.8261 24.0536 20.7741 24.0801 20.7205 24.1073C20.0863 24.4226 20.0863 24.4226 19.7579 24.3278C19.6754 24.2869 19.6754 24.2869 19.5912 24.2452C19.4939 24.1978 19.4939 24.1978 19.3945 24.1495C19.3231 24.1134 19.2516 24.0772 19.1779 24.0399C19.1002 24.0017 19.0225 23.9634 18.9424 23.924C18.7187 23.8135 18.4955 23.7019 18.2726 23.5899C18.0666 23.4865 17.8602 23.3839 17.6539 23.2812C16.9879 22.9498 16.3231 22.616 15.6584 22.2819C15.2524 22.0777 14.8461 21.874 14.4399 21.6703C13.2863 21.0918 12.1328 20.5132 10.9798 19.9336C10.3395 19.6117 9.69905 19.2903 9.05831 18.9693C8.72045 18.8001 8.38271 18.6306 8.04524 18.4606C7.72942 18.3015 7.41332 18.1429 7.09698 17.9848C6.98097 17.9267 6.86507 17.8684 6.74928 17.8098C6.59154 17.7301 6.43344 17.6512 6.27522 17.5724C6.18681 17.528 6.09841 17.4836 6.00732 17.4378C5.55328 17.2492 5.26164 17.4263 4.85704 17.6344ZM1.87486 19.8439C1.87486 20.179 1.87486 20.5142 1.87486 20.8595C4.08151 21.9646 6.28832 23.0694 8.49536 24.1737C8.75568 24.304 9.01601 24.4342 9.27633 24.5645C9.32816 24.5904 9.37998 24.6164 9.43338 24.6431C10.2735 25.0635 11.1135 25.4841 11.9535 25.9048C12.8148 26.3362 13.6763 26.7674 14.5379 27.1983C15.0699 27.4644 15.6018 27.7307 16.1336 27.9973C16.5408 28.2013 16.9481 28.4051 17.3555 28.6087C17.5231 28.6925 17.6906 28.7764 17.858 28.8604C18.0857 28.9746 18.3135 29.0884 18.5414 29.2021C18.6084 29.2359 18.6754 29.2696 18.7445 29.3044C18.8356 29.3497 18.8356 29.3497 18.9285 29.3959C19.0075 29.4354 19.0075 29.4354 19.088 29.4758C19.2189 29.5416 19.2189 29.5416 19.3749 29.5314C19.3749 29.1962 19.3749 28.861 19.3749 28.5157C17.1682 27.4106 14.9614 26.3058 12.7544 25.2015C12.494 25.0712 12.2337 24.941 11.9734 24.8107C11.9216 24.7848 11.8697 24.7588 11.8163 24.7321C10.9762 24.3117 10.1362 23.8911 9.29623 23.4704C8.43489 23.039 7.57343 22.6078 6.71185 22.1769C6.17986 21.9108 5.64795 21.6445 5.11616 21.378C4.70897 21.1739 4.30161 20.9702 3.89419 20.7666C3.72664 20.6828 3.55915 20.5989 3.39172 20.5148C3.16407 20.4006 2.93623 20.2868 2.70834 20.1731C2.64131 20.1393 2.57428 20.1056 2.50522 20.0708C2.4445 20.0406 2.38377 20.0104 2.3212 19.9793C2.26858 19.9529 2.21595 19.9266 2.16173 19.8995C2.03081 19.8337 2.03081 19.8337 1.87486 19.8439ZM37.6785 19.9793C37.5874 20.0246 37.5874 20.0246 37.4945 20.0708C37.394 20.1214 37.394 20.1214 37.2914 20.1731C37.2204 20.2085 37.1495 20.2439 37.0764 20.2804C36.837 20.3999 36.5979 20.5199 36.3588 20.6399C36.1879 20.7254 36.017 20.8108 35.8461 20.8962C35.4773 21.0806 35.1087 21.2651 34.7401 21.4499C34.2072 21.7169 33.6741 21.9837 33.141 22.2503C32.2761 22.6829 31.4114 23.1158 30.5468 23.5489C29.7067 23.9696 28.8666 24.3903 28.0263 24.8107C27.9487 24.8496 27.9487 24.8496 27.8695 24.8892C27.6098 25.0191 27.3501 25.1491 27.0904 25.279C24.935 26.3575 22.7799 27.4365 20.6249 28.5157C20.6249 28.8509 20.6249 29.186 20.6249 29.5314C20.9137 29.4351 21.1528 29.3553 21.4173 29.2229C21.4775 29.1929 21.5378 29.1629 21.5999 29.1321C21.6972 29.083 21.6972 29.083 21.7966 29.033C21.9015 28.9807 21.9015 28.9807 22.0085 28.9273C22.2426 28.8104 22.4764 28.693 22.7102 28.5757C22.8781 28.4917 23.046 28.4078 23.2138 28.3239C23.6221 28.1198 24.0303 27.9153 24.4384 27.7108C24.9134 27.4727 25.3886 27.235 25.8638 26.9974C26.7111 26.5735 27.5584 26.1494 28.4055 25.7251C29.2283 25.3129 30.0511 24.901 30.8741 24.4892C30.9248 24.4638 30.9756 24.4384 31.0279 24.4122C31.2825 24.2848 31.5371 24.1574 31.7917 24.03C33.9029 22.9736 36.014 21.9167 38.1249 20.8595C38.1249 20.5243 38.1249 20.1892 38.1249 19.8439C37.9369 19.8439 37.8464 19.8952 37.6785 19.9793ZM4.85704 24.5094C4.79853 24.5389 4.74001 24.5683 4.67972 24.5987C4.49316 24.6929 4.30706 24.7879 4.12096 24.8829C3.99444 24.947 3.86789 25.011 3.74132 25.0749C3.43133 25.2316 3.12175 25.3891 2.81236 25.547C2.81236 25.5985 2.81236 25.6501 2.81236 25.7032C4.97334 26.7909 7.13495 27.8772 9.29747 28.9617C9.5527 29.0898 9.80793 29.2178 10.0631 29.3458C10.114 29.3713 10.1648 29.3968 10.2171 29.423C11.0401 29.8359 11.8627 30.2496 12.6851 30.6637C13.5288 31.0885 14.3729 31.5123 15.2175 31.9352C15.7388 32.1963 16.2597 32.4581 16.7801 32.7208C17.179 32.9221 17.5786 33.1221 17.9784 33.3216C18.1425 33.4037 18.3063 33.4863 18.4699 33.5693C18.693 33.6823 18.9167 33.7938 19.1407 33.905C19.238 33.955 19.238 33.955 19.3373 34.0061C19.6951 34.1813 19.9182 34.2743 20.3124 34.1407C20.55 34.0407 20.7794 33.9276 21.0094 33.811C21.1133 33.7592 21.1133 33.7592 21.2194 33.7064C21.4515 33.5906 21.683 33.474 21.9146 33.3573C22.0809 33.2741 22.2473 33.191 22.4136 33.1079C22.8183 32.9056 23.2227 32.7027 23.6269 32.4996C24.0974 32.2633 24.5683 32.0276 25.0392 31.792C25.8789 31.3718 26.7183 30.951 27.5575 30.53C28.3726 30.121 29.1879 29.7122 30.0033 29.3038C30.0536 29.2787 30.1039 29.2535 30.1557 29.2275C30.408 29.1012 30.6602 28.9749 30.9125 28.8485C33.0045 27.8009 35.0961 26.7524 37.1874 25.7032C37.1874 25.6517 37.1874 25.6001 37.1874 25.547C36.8185 25.3548 36.4488 25.1643 36.0782 24.9753C35.9524 24.9108 35.8267 24.8458 35.7013 24.7804C35.5208 24.6863 35.3395 24.5939 35.1579 24.5018C35.0744 24.4576 35.0744 24.4576 34.9892 24.4125C34.9095 24.3726 34.9095 24.3726 34.8282 24.3319C34.782 24.3081 34.7359 24.2844 34.6883 24.2599C34.2586 24.1477 33.8609 24.3759 33.4866 24.5669C33.4022 24.609 33.4022 24.609 33.3161 24.652C33.1281 24.746 32.9406 24.8408 32.7531 24.9357C32.6183 25.0034 32.4834 25.071 32.3484 25.1386C32.0582 25.284 31.7682 25.4299 31.4783 25.5761C31.02 25.8071 30.5613 26.0373 30.1025 26.2673C29.2116 26.7141 28.3212 27.1618 27.4308 27.6096C26.2973 28.1797 25.1635 28.7494 24.0293 29.3182C23.5731 29.547 23.1172 29.7763 22.6615 30.0059C22.3781 30.1486 22.0946 30.2909 21.811 30.4331C21.6794 30.4991 21.5479 30.5654 21.4165 30.6318C21.2373 30.7223 21.0578 30.8123 20.8782 30.9021C20.8261 30.9286 20.7741 30.9551 20.7205 30.9823C20.0863 31.2976 20.0863 31.2976 19.7579 31.2028C19.6754 31.1619 19.6754 31.1619 19.5912 31.1202C19.4939 31.0728 19.4939 31.0728 19.3945 31.0245C19.3231 30.9884 19.2516 30.9522 19.1779 30.9149C19.1002 30.8767 19.0225 30.8384 18.9424 30.799C18.7187 30.6885 18.4955 30.5769 18.2726 30.4649C18.0666 30.3615 17.8602 30.2589 17.6539 30.1562C16.9879 29.8248 16.3231 29.491 15.6584 29.1569C15.2524 28.9527 14.8461 28.749 14.4399 28.5453C13.2863 27.9668 12.1328 27.3882 10.9798 26.8086C10.3395 26.4867 9.69905 26.1653 9.05831 25.8443C8.72045 25.6751 8.38271 25.5056 8.04524 25.3356C7.72942 25.1765 7.41332 25.0179 7.09698 24.8598C6.98097 24.8017 6.86507 24.7434 6.74928 24.6848C6.59154 24.6051 6.43344 24.5262 6.27522 24.4474C6.18681 24.403 6.09841 24.3586 6.00732 24.3128C5.55328 24.1242 5.26164 24.3013 4.85704 24.5094Z" fill="black"/>
</svg>
