<svg width="50" height="50" viewBox="0 0 50 50" fill="none" xmlns="http://www.w3.org/2000/svg">
<g clip-path="url(#clip0_78_671)">
<path d="M18.8651 7.48024C18.9628 7.49806 19.0606 7.51587 19.1614 7.53422C19.4802 7.59298 19.7987 7.6536 20.117 7.71485C20.2242 7.7354 20.3313 7.75596 20.4417 7.77714C21.1052 7.90546 21.7675 8.03904 22.4293 8.17645C22.6567 8.22333 22.8843 8.26941 23.1121 8.31473C23.447 8.38142 23.7813 8.45049 24.1156 8.52013C24.2171 8.53988 24.3186 8.55963 24.4232 8.57998C24.9747 8.69808 25.3366 8.7987 25.6834 9.27735C25.7445 9.62525 25.7445 9.62525 25.6834 9.96094C25.482 10.199 25.482 10.199 25.1952 10.3516C24.74 10.3754 24.3332 10.3314 23.889 10.235C23.7106 10.1969 23.7106 10.1969 23.5285 10.158C23.4659 10.1443 23.4034 10.1306 23.3389 10.1165C23.1411 10.0731 22.943 10.0307 22.745 9.98847C22.2533 9.88347 21.762 9.77698 21.2707 9.67054C20.8546 9.58046 20.4384 9.49095 20.022 9.40219C19.8278 9.36056 19.6339 9.31809 19.4399 9.27559C19.2615 9.23747 19.2615 9.23747 19.0794 9.19857C18.9235 9.16474 18.9235 9.16474 18.7643 9.13023C18.2549 9.05038 17.8108 8.99333 17.3796 9.30481C17.2747 9.37867 17.2747 9.37867 17.1676 9.45401C17.0936 9.50851 17.0195 9.563 16.9432 9.61914C16.7788 9.73588 16.6144 9.85261 16.45 9.96933C16.3637 10.0315 16.2773 10.0936 16.1884 10.1577C15.7215 10.4922 15.2485 10.8178 14.7765 11.145C14.5857 11.2779 14.395 11.4107 14.2043 11.5437C13.4464 12.0713 12.6851 12.5939 11.9232 13.1157C11.142 13.6509 10.3636 14.1899 9.58847 14.7339C8.88144 15.23 8.17081 15.7205 7.45715 16.207C6.73774 16.6981 6.02295 17.1957 5.30831 17.6937C4.75661 18.078 4.20401 18.4609 3.64975 18.8416C3.58822 18.884 3.5267 18.9264 3.46331 18.9702C3.16251 19.1775 2.86039 19.3822 2.55531 19.5831C2.49591 19.6228 2.43651 19.6625 2.37531 19.7033C2.21482 19.8104 2.0536 19.9163 1.89232 20.0222C1.6404 20.2311 1.61971 20.2991 1.56235 20.6055C1.63436 20.617 1.70637 20.6286 1.78056 20.6405C2.46359 20.752 3.14152 20.8785 3.81893 21.0198C3.97119 21.0513 3.97119 21.0513 4.12653 21.0835C4.45898 21.1523 4.79136 21.2214 5.12375 21.2906C5.35855 21.3393 5.59336 21.388 5.82817 21.4366C6.32004 21.5386 6.81189 21.6407 7.30371 21.743C7.92582 21.8723 8.54799 22.0014 9.17019 22.1303C9.65569 22.231 10.1412 22.3317 10.6267 22.4325C10.8555 22.48 11.0844 22.5275 11.3133 22.5749C11.6379 22.6423 11.9626 22.7098 12.2872 22.7773C12.3913 22.7989 12.4954 22.8205 12.6026 22.8427C13.1769 22.9623 13.7504 23.085 14.3233 23.2109C14.4475 23.2381 14.5717 23.2652 14.6996 23.2932C14.9388 23.3456 15.1779 23.3985 15.4169 23.452C15.525 23.4757 15.633 23.4993 15.7444 23.5237C15.8393 23.5448 15.9343 23.5659 16.0321 23.5876C16.5574 23.6735 16.9108 23.6672 17.3682 23.3887C17.4579 23.335 17.5477 23.2814 17.6402 23.2262C17.7365 23.167 17.8328 23.1078 17.932 23.0469C18.1427 22.9206 18.3535 22.7945 18.5645 22.6685C18.6746 22.6022 18.7848 22.536 18.8983 22.4678C19.4052 22.1648 19.919 21.874 20.4326 21.5825C21.3399 21.0673 22.244 20.5468 23.1444 20.0195C24.0454 19.4919 24.9507 18.9722 25.8579 18.4553C26.5614 18.0544 27.2634 17.651 27.9622 17.2417C28.2491 17.0738 28.5366 16.9069 28.8241 16.74C29.2183 16.5108 29.6088 16.2762 29.9982 16.0389C30.1957 15.9212 30.3932 15.8036 30.5907 15.686C30.679 15.6308 30.7672 15.5755 30.8582 15.5185C31.509 15.1361 32.0611 15.0077 32.8123 15.1367C33.1668 15.2575 33.4703 15.4297 33.7889 15.625C33.8835 15.6808 33.9781 15.7367 34.0756 15.7942C34.3415 15.9528 34.6058 16.1138 34.8692 16.2764C35.1685 16.461 35.4686 16.6443 35.7687 16.8274C35.8308 16.8652 35.8928 16.9031 35.9567 16.9421C36.6855 17.3857 37.4226 17.815 38.1605 18.2432C38.7708 18.5975 39.3772 18.9554 39.9722 19.3352C40.1137 19.4253 40.1137 19.4253 40.2581 19.5172C40.4323 19.629 40.6057 19.7421 40.7782 19.8566C40.8545 19.9056 40.9308 19.9546 41.0094 20.005C41.1074 20.0697 41.1074 20.0697 41.2074 20.1357C41.4755 20.2425 41.6217 20.2031 41.8944 20.1172C42.088 20.0172 42.088 20.0172 42.269 19.8849C42.3749 19.8115 42.3749 19.8115 42.4829 19.7366C42.5586 19.683 42.6343 19.6293 42.7122 19.574C42.7925 19.518 42.8728 19.4621 42.9556 19.4045C43.1293 19.2833 43.3028 19.1618 43.4761 19.04C43.851 18.7766 44.2273 18.5154 44.6036 18.254C44.8892 18.0556 45.1746 17.8567 45.46 17.6579C45.9907 17.2883 46.5232 16.9213 47.0571 16.5563C47.1138 16.5175 47.1704 16.4787 47.2289 16.4387C47.2829 16.4017 47.3369 16.3648 47.3925 16.3268C47.5742 16.2 47.7522 16.0686 47.9308 15.9374C48.242 15.7227 48.242 15.7227 48.4373 15.7227C48.4051 15.5938 48.3729 15.4648 48.3397 15.332C45.0722 14.6355 41.8038 13.9436 38.5325 13.265C38.2348 13.2032 37.9371 13.1414 37.6393 13.0796C36.358 12.8135 35.0767 12.5475 33.7951 12.2824C33.1122 12.1412 32.4294 11.9996 31.7467 11.8575C31.3217 11.7691 30.8966 11.6811 30.4715 11.5935C30.1503 11.5272 29.8293 11.4602 29.5083 11.3933C29.3352 11.3578 29.3352 11.3578 29.1586 11.3217C29.0004 11.2885 29.0004 11.2885 28.8391 11.2546C28.7477 11.2357 28.6564 11.2168 28.5622 11.1973C28.2475 11.1135 28.0042 11.0335 27.8014 10.7727C27.7021 10.4387 27.7466 10.1981 27.8319 9.86328C27.9845 9.67408 27.9845 9.67408 28.2225 9.57032C28.9668 9.51559 29.6652 9.68676 30.3896 9.84168C30.5293 9.87095 30.669 9.90016 30.8088 9.92929C31.1879 10.0086 31.5668 10.0888 31.9457 10.1692C32.3476 10.2543 32.7496 10.3385 33.1516 10.4227C33.9178 10.5835 34.6837 10.7451 35.4496 10.9069C36.3863 11.1048 37.3232 11.3018 38.2601 11.4986C39.2479 11.7062 40.2357 11.914 41.2232 12.1227C42.6298 12.4198 44.0365 12.7155 45.4455 13.001C45.667 13.0461 45.8886 13.0912 46.1101 13.1364C46.5032 13.2165 46.8966 13.2952 47.2901 13.373C47.4608 13.4077 47.6315 13.4424 47.8022 13.4772C47.8762 13.4914 47.9502 13.5056 48.0264 13.5202C48.8296 13.6867 49.4254 13.9694 49.9022 14.6484C50.0024 14.9492 50.026 15.181 50.0365 15.4968C50.0413 15.5939 50.046 15.6909 50.051 15.7909C49.9426 16.474 49.5755 16.874 49.0275 17.2749C48.8379 17.4039 48.6472 17.5314 48.4557 17.6575C48.356 17.7249 48.2563 17.7922 48.1536 17.8617C47.9526 17.9974 47.7512 18.1326 47.5495 18.2671C47.1569 18.5297 46.7687 18.7985 46.3805 19.0674C45.9617 19.3558 45.5407 19.6407 45.117 19.9219C45.5518 20.0775 45.9847 20.1809 46.4377 20.2652C46.5791 20.2929 46.7205 20.3208 46.8619 20.3487C47.0818 20.3919 47.3017 20.4345 47.522 20.4752C48.4853 20.6545 49.2804 20.827 49.9022 21.6431C50.0885 22.2718 50.0884 22.8832 49.8778 23.5046C49.5181 24.02 48.9476 24.3561 48.4373 24.707C48.3668 24.7557 48.2962 24.8044 48.2235 24.8545C47.8313 25.1244 47.438 25.3927 47.0442 25.6603C46.622 25.948 46.204 26.2409 45.7884 26.5381C45.7312 26.5789 45.674 26.6198 45.6151 26.6619C45.3551 26.843 45.3551 26.843 45.117 27.0508C45.2248 27.0714 45.3327 27.092 45.4437 27.1132C45.8476 27.1909 46.251 27.2713 46.6542 27.3524C46.8281 27.387 47.0021 27.4209 47.1762 27.454C49.2498 27.8501 49.2498 27.8501 49.9083 28.6682C50.0819 29.3047 50.1211 29.9813 49.8656 30.5969C49.2069 31.2713 48.4184 31.8019 47.6378 32.3242C47.4494 32.4514 47.2611 32.5787 47.0728 32.7061C46.9764 32.7713 46.8799 32.8365 46.7806 32.9037C46.2843 33.2416 45.7924 33.5858 45.3001 33.9294C45.1127 34.0596 44.9253 34.1896 44.7379 34.3197C44.4436 34.5241 44.1508 34.7301 43.8605 34.94C43.709 35.047 43.709 35.047 43.5545 35.1563C43.474 35.2147 43.3934 35.2731 43.3104 35.3333C42.9863 35.4872 42.737 35.4791 42.3827 35.4492C42.1446 35.3027 42.1446 35.3027 41.992 35.0586C41.9063 34.5756 41.9063 34.5756 41.992 34.2773C42.3999 33.8038 42.9901 33.4629 43.5057 33.1177C43.6702 33.0064 43.8346 32.895 43.9989 32.7835C44.0853 32.725 44.1716 32.6666 44.2605 32.6063C44.8296 32.2184 45.3937 31.8234 45.958 31.4287C46.3905 31.1266 46.8238 30.8266 47.2636 30.5351C47.3367 30.4863 47.4098 30.4375 47.4851 30.3872C47.6194 30.2978 47.7543 30.2093 47.8898 30.1219C48.2237 29.9112 48.2237 29.9112 48.4055 29.5762C48.416 29.5163 48.4265 29.4563 48.4373 29.3945C48.3442 29.3805 48.3442 29.3805 48.2492 29.3662C47.6079 29.2647 46.9733 29.1411 46.3385 29.0058C46.2564 28.9884 46.1743 28.971 46.0898 28.9531C45.7477 28.8806 45.4056 28.8079 45.0639 28.7337C44.8115 28.679 44.5588 28.6256 44.306 28.5725C44.1911 28.547 44.1911 28.547 44.0739 28.521C43.5484 28.412 43.1132 28.3699 42.6337 28.6583C42.5549 28.72 42.4761 28.7817 42.3949 28.8452C42.301 28.9165 42.207 28.9877 42.1103 29.0611C42.0597 29.0996 42.009 29.1381 41.9568 29.1778C41.6733 29.3887 41.3807 29.5863 41.0887 29.7852C40.4272 30.2375 39.7687 30.6942 39.1112 31.1523C38.4175 31.6355 37.7229 32.1174 37.0253 32.595C36.6417 32.8581 36.2597 33.1234 35.8786 33.39C32.5669 35.7062 32.5669 35.7062 31.1153 35.5C30.7519 35.432 30.3904 35.357 30.029 35.2789C29.8903 35.2499 29.7516 35.221 29.6129 35.1922C29.2372 35.1138 28.8619 35.034 28.4865 34.9539C28.0864 34.8688 27.6859 34.785 27.2855 34.7011C26.6036 34.558 25.9218 34.414 25.2402 34.2695C24.2705 34.0639 23.3004 33.8599 22.3303 33.6562C19.4831 33.0583 16.6367 32.4568 13.791 31.8517C13.0897 31.7026 12.3883 31.5541 11.6869 31.4058C11.1663 31.2957 10.646 31.1844 10.1259 31.0722C9.81463 31.0052 9.5032 30.9392 9.1917 30.8734C9.05273 30.8439 8.91384 30.8139 8.77505 30.7835C8.59051 30.7431 8.40563 30.7043 8.22073 30.6655C8.06902 30.633 8.06902 30.633 7.91425 30.5997C7.25012 30.5253 6.84546 30.6802 6.32309 31.0791C6.20296 31.1688 6.08266 31.2583 5.96222 31.3477C5.86644 31.4192 5.86644 31.4192 5.76872 31.4922C5.41072 31.7546 5.04254 32.002 4.67514 32.251C4.16882 32.595 3.66463 32.9415 3.1649 33.2951C3.0756 33.3582 2.9863 33.4213 2.8943 33.4863C2.72093 33.609 2.54783 33.7322 2.37502 33.8557C2.25807 33.9385 2.25807 33.9385 2.13875 34.0229C2.06976 34.0721 2.00076 34.1213 1.92968 34.172C1.75766 34.2773 1.75766 34.2773 1.56235 34.2773C1.61069 34.4707 1.61069 34.4707 1.66 34.668C2.23912 34.7896 2.81824 34.9111 3.39736 35.0327C3.55114 35.065 3.70492 35.0972 3.8587 35.1295C3.93877 35.1463 4.01883 35.1631 4.10132 35.1805C4.60973 35.2872 5.11813 35.3939 5.62651 35.5008C7.66319 35.9287 9.70009 36.3555 11.7374 36.7805C11.8054 36.7947 11.8734 36.8088 11.9435 36.8235C12.0118 36.8377 12.0802 36.852 12.1506 36.8667C13.0498 37.0543 13.949 37.2422 14.8481 37.4301C15.6064 37.5885 16.3646 37.7467 17.123 37.9045C17.7123 38.0272 18.3015 38.1504 18.8907 38.2737C19.1358 38.3249 19.381 38.376 19.6262 38.4269C19.9636 38.4969 20.3008 38.5675 20.638 38.6383C20.7371 38.6587 20.8362 38.6792 20.9382 38.7002C21.0293 38.7194 21.1205 38.7387 21.2143 38.7585C21.2929 38.7749 21.3715 38.7913 21.4524 38.8081C21.8144 38.9023 22.0961 38.9908 22.3631 39.2578C22.4589 39.5531 22.472 39.7091 22.3814 40.0085C22.2655 40.2344 22.2655 40.2344 22.0702 40.4297C21.7109 40.5352 21.4435 40.5234 21.0797 40.4474C20.9788 40.4267 20.8778 40.4061 20.7738 40.3849C20.6619 40.361 20.5501 40.3372 20.4348 40.3126C20.3127 40.2874 20.1907 40.2621 20.0649 40.2361C19.7185 40.1645 19.3724 40.0917 19.0263 40.0186C18.6501 39.9393 18.2737 39.861 17.8973 39.7826C17.3794 39.6746 16.8616 39.5664 16.3438 39.4578C15.0354 39.1834 13.7264 38.9121 12.4171 38.6423C11.2317 38.398 10.0465 38.1529 8.86144 37.9073C8.11209 37.752 7.36267 37.5971 6.61308 37.4429C5.96411 37.3095 5.31531 37.1752 4.6667 37.0401C4.3299 36.9699 3.99304 36.9001 3.65597 36.8312C3.28501 36.7554 2.91442 36.6779 2.54385 36.6002C2.43548 36.5784 2.32711 36.5565 2.21546 36.534C1.32885 36.3457 0.63435 36.1162 0.0975037 35.3516C-0.00274524 35.0508 -0.0262594 34.819 -0.0367737 34.5032C-0.0415573 34.4061 -0.0463409 34.3091 -0.0512695 34.2091C0.0389812 33.6399 0.336114 33.1923 0.798645 32.8491C0.91794 32.7703 1.0383 32.693 1.15952 32.6172C1.29746 32.5267 1.43529 32.436 1.57303 32.3452C1.68604 32.2715 1.68604 32.2715 1.80134 32.1964C2.28535 31.8758 2.75911 31.5402 3.23471 31.2073C4.35091 30.4282 4.35091 30.4282 4.88266 30.0781C4.44785 29.9225 4.01495 29.8191 3.56201 29.7348C3.42059 29.7071 3.2792 29.6792 3.13782 29.6513C2.91794 29.6081 2.69803 29.5655 2.47768 29.5248C1.51444 29.3455 0.719295 29.173 0.0975037 28.3569C-0.0887776 27.7282 -0.0887254 27.1168 0.121918 26.4954C0.481557 25.98 1.05208 25.6439 1.56235 25.293C1.66821 25.22 1.66821 25.22 1.77621 25.1455C2.16843 24.8756 2.5617 24.6073 2.95547 24.3397C3.37765 24.052 3.79573 23.7591 4.21127 23.4619C4.26847 23.4211 4.32567 23.3802 4.3846 23.3382C4.64458 23.157 4.64458 23.157 4.88266 22.9492C4.72017 22.9176 4.72017 22.9176 4.55441 22.8853C4.1493 22.8059 3.74465 22.7244 3.34009 22.6423C3.16556 22.6071 2.99091 22.5726 2.81614 22.5386C2.5637 22.4894 2.31174 22.4382 2.05978 22.3866C1.94407 22.3647 1.94407 22.3647 1.82603 22.3424C1.14176 22.1986 0.597981 21.9287 0.146332 21.3867C-0.10727 20.8716 -0.0678791 20.2828 -0.000152588 19.7266C0.395598 18.7732 1.67549 18.1392 2.50839 17.5964C3.25058 17.1077 3.98097 16.6105 4.69314 16.0791C5.11777 15.7628 5.55255 15.4678 5.99503 15.1772C6.48448 14.8527 6.96451 14.5144 7.44614 14.1785C8.08776 13.731 8.72957 13.284 9.37485 12.8418C10.0117 12.4053 10.6456 11.9647 11.2791 11.5234C11.9727 11.0404 12.667 10.5587 13.3643 10.0812C13.7515 9.81563 14.1372 9.54788 14.522 9.27887C14.6205 9.21008 14.719 9.14128 14.8205 9.0704C15.0129 8.93593 15.2052 8.80129 15.3973 8.66642C15.6673 8.47775 15.9386 8.291 16.2108 8.10547C16.3054 8.04083 16.4 7.97619 16.4974 7.90959C16.5905 7.84784 16.6836 7.78609 16.7796 7.72248C16.9041 7.63925 16.9041 7.63925 17.0312 7.55434C17.6531 7.22976 18.2057 7.35546 18.8651 7.48024ZM31.5695 16.9468C31.4781 17.0009 31.3868 17.055 31.2926 17.1108C31.1939 17.1704 31.0952 17.2299 30.9935 17.2913C30.7804 17.4177 30.5673 17.5441 30.3542 17.6704C30.2439 17.7361 30.1337 17.8017 30.0202 17.8693C29.4928 18.1817 28.9614 18.4872 28.43 18.7927C28.2166 18.9157 28.0033 19.0386 27.7899 19.1616C27.631 19.2532 27.631 19.2532 27.4688 19.3466C26.9387 19.652 26.4087 19.9579 25.8788 20.2637C25.2853 20.6061 24.6918 20.9485 24.0982 21.2907C23.9272 21.3893 23.7563 21.4878 23.5854 21.5864C23.3725 21.7092 23.1597 21.8319 22.9468 21.9545C22.7524 22.0666 22.5582 22.1788 22.364 22.2912C22.1549 22.412 21.9455 22.5322 21.7359 22.6521C21.6284 22.7139 21.5209 22.7757 21.4102 22.8394C21.3121 22.8955 21.2141 22.9516 21.113 23.0095C21.0067 23.0763 21.0067 23.0763 20.8983 23.1445C20.8983 23.1768 20.8983 23.209 20.8983 23.2422C21.9308 23.1829 22.9473 23.0655 23.9715 22.9273C24.1382 22.9051 24.3048 22.8829 24.4715 22.8608C24.9196 22.8013 25.3676 22.7412 25.8156 22.6811C26.2854 22.6181 26.7553 22.5556 27.2251 22.493C28.113 22.3747 29.0007 22.256 29.8885 22.1371C30.8999 22.0017 31.9115 21.8668 32.9231 21.7319C35.0021 21.4546 37.0811 21.1767 39.16 20.8984C39.16 20.834 39.16 20.7695 39.16 20.7031C38.9583 20.5561 38.9583 20.5561 38.6931 20.4075C38.5901 20.3471 38.4871 20.2867 38.381 20.2245C38.2663 20.1582 38.1516 20.0919 38.037 20.0256C37.9192 19.9569 37.8016 19.888 37.6839 19.8191C37.4314 19.6712 37.1786 19.5236 36.9258 19.3761C36.3022 19.0119 35.6817 18.6423 35.061 18.2731C34.8613 18.1544 34.6616 18.0358 34.4618 17.9173C34.3988 17.8798 34.3357 17.8424 34.2708 17.8038C34.1483 17.7312 34.0258 17.6586 33.9032 17.5861C33.635 17.4273 33.3684 17.2665 33.1042 17.101C32.975 17.0203 32.975 17.0203 32.8432 16.938C32.7338 16.8682 32.7338 16.8682 32.6222 16.7969C32.2044 16.5933 31.9359 16.7271 31.5695 16.9468ZM42.4803 21.6797C42.4102 22.0625 42.4237 22.4407 42.4326 22.8287C42.4333 22.9408 42.434 23.053 42.4347 23.1686C42.4375 23.5268 42.4436 23.8849 42.4498 24.2432C42.4522 24.486 42.4545 24.7289 42.4565 24.9718C42.4619 25.5672 42.47 26.1625 42.4803 26.7578C42.7798 26.641 43.0414 26.5295 43.3016 26.3401C43.36 26.298 43.4183 26.2559 43.4784 26.2125C43.5378 26.1689 43.5971 26.1253 43.6583 26.0803C43.7479 26.0155 43.7479 26.0155 43.8393 25.9493C44.0053 25.8289 44.1708 25.7078 44.3358 25.5859C44.4061 25.5501 44.4763 25.5142 44.5487 25.4773C44.7861 25.2311 44.7708 25.0257 44.7707 24.694C44.7687 24.6143 44.7666 24.5347 44.7646 24.4526C44.764 24.3706 44.7635 24.2887 44.7629 24.2042C44.7607 23.9425 44.7558 23.6809 44.7508 23.4192C44.7489 23.2417 44.7471 23.0643 44.7455 22.8869C44.7412 22.4519 44.7344 22.017 44.7264 21.582C44.5554 21.5337 44.3842 21.4859 44.213 21.4382C44.07 21.3982 44.07 21.3982 43.9241 21.3573C43.3174 21.205 42.9039 21.1885 42.4803 21.6797ZM46.2889 21.875C46.2889 22.6162 46.2889 23.3574 46.2889 24.1211C46.7324 23.9441 46.7324 23.9441 47.1136 23.7C47.2018 23.6361 47.2018 23.6361 47.2918 23.571C47.3516 23.527 47.4114 23.4829 47.473 23.4375C47.5933 23.35 47.7135 23.2625 47.8339 23.1751C47.9363 23.1005 48.0388 23.026 48.1444 22.9492C48.2411 22.8848 48.3377 22.8203 48.4373 22.7539C48.4373 22.625 48.4373 22.4961 48.4373 22.3633C48.1892 22.2999 47.941 22.2369 47.6927 22.1741C47.6231 22.1563 47.5535 22.1384 47.4818 22.1201C47.4132 22.1028 47.3446 22.0855 47.2739 22.0676C47.2115 22.0518 47.1491 22.0359 47.0848 22.0196C46.8217 21.9608 46.5549 21.9193 46.2889 21.875ZM38.867 22.4609C38.867 24.7168 38.867 26.9727 38.867 29.2969C39.0926 29.168 39.3182 29.0391 39.5506 28.9063C39.6704 28.8573 39.7901 28.8083 39.9135 28.7579C40.3401 28.5597 40.6749 28.3418 40.9178 27.9297C41.1381 27.043 41.0531 26.0978 41.0117 25.1917C40.9976 24.8507 40.9914 24.5096 40.9846 24.1684C40.97 23.5012 40.9467 22.8347 40.9178 22.168C40.2273 22.168 39.5499 22.3585 38.867 22.4609ZM35.0584 22.9492C35.0584 25.9141 35.0584 28.8789 35.0584 31.9336C35.284 31.8047 35.5096 31.6758 35.742 31.543C35.8763 31.4729 36.0106 31.403 36.1452 31.3336C36.8893 30.9299 36.8893 30.9299 37.3914 30.2764C37.522 29.7415 37.4843 29.2001 37.4571 28.6549C37.4542 28.4813 37.452 28.3076 37.4504 28.134C37.4445 27.6801 37.4292 27.227 37.4118 26.7734C37.3957 26.3094 37.3887 25.8452 37.3808 25.3809C37.3641 24.4723 37.3375 23.5644 37.3045 22.6563C36.5495 22.6563 35.8059 22.8424 35.0584 22.9492ZM31.4452 23.4375C31.4452 26.8857 31.4452 30.334 31.4452 33.8867C31.7227 34.0255 31.9171 34.0081 32.2264 33.9844C32.7426 33.8085 33.1892 33.5644 33.4959 33.1055C33.7273 32.3853 33.6433 31.5859 33.6199 30.8407C33.6175 30.6186 33.6157 30.3965 33.6145 30.1745C33.6096 29.592 33.5972 29.0099 33.5831 28.4276C33.5701 27.8326 33.5643 27.2375 33.5579 26.6424C33.5443 25.4763 33.5227 24.3104 33.4959 23.1445C32.8054 23.1445 32.1281 23.3351 31.4452 23.4375ZM6.3414 23.9075C6.2518 23.9737 6.2518 23.9737 6.16039 24.0412C5.99403 24.1644 5.82886 24.289 5.66391 24.4141C5.59364 24.4501 5.52338 24.4861 5.45098 24.5232C5.21341 24.769 5.2289 24.9745 5.22903 25.306C5.23104 25.3857 5.23306 25.4653 5.23514 25.5474C5.23569 25.6294 5.23624 25.7113 5.23681 25.7958C5.239 26.0575 5.2439 26.3191 5.24887 26.5808C5.25083 26.7583 5.25261 26.9357 5.25421 27.1132C5.25852 27.5481 5.26526 27.983 5.27328 28.418C5.51935 28.4815 5.76554 28.5445 6.01181 28.6072C6.115 28.6339 6.115 28.6339 6.22028 28.6612C6.32272 28.6871 6.32272 28.6871 6.42723 28.7136C6.48911 28.7295 6.55099 28.7453 6.61475 28.7617C6.91346 28.8251 7.21708 28.8631 7.51938 28.9063C7.51938 27.1016 7.51938 25.2969 7.51938 23.4375C6.96788 23.4375 6.75735 23.5903 6.3414 23.9075ZM27.5389 23.9258C27.5389 26.9551 27.5389 29.9844 27.5389 33.1055C28.3123 33.2666 29.0858 33.4277 29.8827 33.5938C29.8827 30.3066 29.8827 27.0195 29.8827 23.6328C29.0953 23.6328 28.3196 23.824 27.5389 23.9258ZM9.08188 23.8281C9.08188 25.6006 9.08188 27.373 9.08188 29.1992C9.74852 29.4214 10.4436 29.5497 11.1327 29.6875C11.1327 27.8828 11.1327 26.0781 11.1327 24.2188C10.76 24.0945 10.4311 23.9892 10.0523 23.9136C9.97265 23.8972 9.89297 23.8808 9.81087 23.864C9.53023 23.8161 9.53023 23.8161 9.08188 23.8281ZM24.0233 24.4141C24.0233 27.0244 24.0233 29.6348 24.0233 32.3242C24.9899 32.6 24.9899 32.6 25.9764 32.7148C25.9764 29.9111 25.9764 27.1074 25.9764 24.2188C25.1913 24.2014 25.1913 24.2014 24.0233 24.4141ZM12.6952 24.5117C12.6952 26.3164 12.6952 28.1211 12.6952 29.9805C13.8087 30.3095 13.8087 30.3095 14.9413 30.4688C14.9413 28.6641 14.9413 26.8594 14.9413 25C13.8258 24.7171 13.8258 24.7171 12.6952 24.5117ZM20.117 24.9023C20.117 27.0938 20.117 29.2852 20.117 31.543C20.8905 31.7041 21.6639 31.8652 22.4608 32.0313C22.4608 29.582 22.4608 27.1328 22.4608 24.6094C21.6735 24.6094 20.8978 24.8005 20.117 24.9023ZM16.5038 25.293C16.5038 27.0977 16.5038 28.9023 16.5038 30.7617C17.8768 31.1721 17.8768 31.1721 18.5545 31.1523C18.5545 29.1865 18.5545 27.2207 18.5545 25.1953C17.8702 25.1953 17.1866 25.2474 16.5038 25.293ZM3.14354 26.1284C3.03411 26.2064 3.03411 26.2064 2.92248 26.2859C2.84625 26.3409 2.77003 26.396 2.6915 26.4526C2.54109 26.5602 2.39066 26.6678 2.24022 26.7754C2.17344 26.8234 2.10667 26.8715 2.03787 26.921C1.88137 27.0323 1.7221 27.1396 1.56235 27.2461C1.56235 27.375 1.56235 27.5039 1.56235 27.6367C1.81049 27.7001 2.0587 27.7631 2.30698 27.8259C2.37659 27.8437 2.44621 27.8616 2.51793 27.8799C2.58654 27.8972 2.65514 27.9145 2.72583 27.9324C2.78822 27.9482 2.85061 27.9641 2.9149 27.9804C3.17804 28.0392 3.44481 28.0807 3.71078 28.125C3.71078 27.3838 3.71078 26.6426 3.71078 25.8789C3.4496 25.8789 3.35491 25.9767 3.14354 26.1284Z" fill="black"/>
<path d="M40.1369 35.9375C40.4021 36.126 40.5028 36.2639 40.6191 36.5662C40.6277 36.918 40.5558 37.0285 40.3322 37.3047C39.7435 37.8039 39.1043 38.2357 38.4645 38.6658C37.6877 39.1916 36.9146 39.7222 36.1452 40.2588C35.9582 40.3891 35.7711 40.5195 35.5841 40.6498C35.4953 40.7116 35.4066 40.7734 35.3152 40.8371C34.9393 41.0988 34.5629 41.3598 34.186 41.6199C34.097 41.6816 34.097 41.6816 34.0062 41.7445C33.8939 41.8218 33.7812 41.8985 33.668 41.9744C33.5467 42.056 33.4266 42.1393 33.3074 42.224C33.2427 42.268 33.178 42.3119 33.1114 42.3573C33.0542 42.3972 32.9969 42.4371 32.938 42.4783C32.1392 42.836 31.3393 42.5904 30.5212 42.4179C30.3843 42.3899 30.2474 42.362 30.1105 42.3342C29.8244 42.2758 29.5386 42.2167 29.2528 42.1568C28.8889 42.0807 28.5246 42.006 28.1602 41.932C27.8777 41.8744 27.5953 41.8163 27.3129 41.758C27.1787 41.7303 27.0445 41.7028 26.9103 41.6753C25.0153 41.2865 25.0153 41.2865 24.5974 40.9424C24.4687 40.6117 24.5233 40.378 24.6096 40.0391C24.7621 39.8103 24.856 39.7595 25.1193 39.6838C25.4415 39.6418 25.6825 39.6857 26.0002 39.7539C26.1211 39.7793 26.242 39.8047 26.3666 39.8309C26.4307 39.8449 26.4949 39.8588 26.5609 39.8732C26.7628 39.9172 26.9649 39.9599 27.1671 40.0024C27.5237 40.0776 27.8801 40.1537 28.2365 40.2302C28.806 40.3525 29.3758 40.4739 29.9458 40.594C30.1441 40.636 30.3421 40.6789 30.5402 40.7219C30.6618 40.7476 30.7833 40.7734 30.9085 40.7999C31.0148 40.8227 31.1211 40.8456 31.2307 40.8691C31.7925 40.957 32.2123 40.9891 32.6845 40.6525C32.7677 40.5944 32.8509 40.5363 32.9366 40.4765C33.0246 40.4127 33.1126 40.3489 33.2033 40.2832C33.2965 40.2176 33.3897 40.1521 33.4856 40.0846C33.6828 39.9457 33.8795 39.8062 34.0758 39.6662C34.4647 39.3894 34.8567 39.1175 35.249 38.8457C35.5323 38.6492 35.8152 38.4522 36.0979 38.2549C36.6141 37.8952 37.1312 37.537 37.6514 37.183C37.9508 36.9789 38.2465 36.7716 38.5374 36.5555C38.5942 36.5141 38.6509 36.4726 38.7094 36.43C38.8617 36.3184 39.0128 36.2053 39.1638 36.092C39.5154 35.9044 39.7436 35.8963 40.1369 35.9375Z" fill="black"/>
</g>
<defs>
<clipPath id="clip0_78_671">
<rect width="50" height="50" fill="white"/>
</clipPath>
</defs>
</svg>
