<svg width="50" height="50" viewBox="0 0 50 50" fill="none" xmlns="http://www.w3.org/2000/svg">
<path d="M30.3711 0C30.4678 0.0483398 30.4678 0.0483398 30.5664 0.0976562C30.1738 2.47538 29.7808 4.85304 29.3873 7.23063C29.2047 8.33453 29.0221 9.43844 28.8399 10.5424C28.681 11.5043 28.522 12.4662 28.3627 13.428C28.2783 13.9375 28.194 14.4471 28.11 14.9567C28.031 15.4359 27.9517 15.9151 27.8722 16.3942C27.843 16.5705 27.8139 16.7468 27.7849 16.9231C27.7455 17.163 27.7057 17.4028 27.6657 17.6426C27.6542 17.7131 27.6427 17.7836 27.6309 17.8562C27.5502 18.3371 27.5502 18.3371 27.4414 18.5547C31.1152 18.5547 34.7891 18.5547 38.5742 18.5547C38.4201 18.9399 38.2633 19.2594 38.055 19.614C38.007 19.696 38.007 19.696 37.958 19.7797C37.8525 19.9596 37.7465 20.1391 37.6404 20.3186C37.5655 20.4459 37.4906 20.5732 37.4156 20.7005C36.8506 21.6592 36.2748 22.611 35.6952 23.5609C35.167 24.4273 34.6476 25.2986 34.1309 26.1719C33.5176 27.2081 32.8982 28.2403 32.2713 29.2685C31.7124 30.1854 31.1622 31.1072 30.6152 32.0312C30.0019 33.0675 29.3825 34.0997 28.7557 35.1278C28.1968 36.0448 27.6465 36.9665 27.0996 37.8906C26.4863 38.9269 25.8669 39.9591 25.24 40.9872C24.6812 41.9041 24.1309 42.8259 23.584 43.75C22.9224 44.8678 22.2536 45.9809 21.578 47.0902C20.989 48.0575 20.4054 49.028 19.8242 50C19.7598 49.9678 19.6953 49.9355 19.6289 49.9023C20.0125 47.0069 20.3965 44.1115 20.7809 41.2162C20.8263 40.8746 20.8716 40.5331 20.917 40.1916C20.926 40.1236 20.935 40.0556 20.9443 39.9855C21.0906 38.8834 21.2367 37.7812 21.3827 36.6791C21.5324 35.5488 21.6824 34.4186 21.8326 33.2884C21.917 32.6533 22.0013 32.0182 22.0853 31.383C22.1642 30.7858 22.2435 30.1887 22.3231 29.5916C22.3523 29.3718 22.3814 29.1521 22.4104 28.9323C22.4498 28.6334 22.4896 28.3346 22.5296 28.0358C22.5411 27.9478 22.5526 27.8598 22.5644 27.7692C22.6451 27.1707 22.6451 27.1707 22.7539 26.9531C19.0156 26.9531 15.2773 26.9531 11.4258 26.9531C11.8651 26.1843 11.8651 26.1843 12.0697 25.898C12.1153 25.8338 12.1608 25.7697 12.2078 25.7036C12.2559 25.6366 12.304 25.5696 12.3535 25.5005C12.4583 25.3532 12.5631 25.206 12.6678 25.0587C12.7211 24.9841 12.7743 24.9095 12.8292 24.8326C13.0788 24.4824 13.3264 24.1308 13.5742 23.7793C13.6719 23.6409 13.7695 23.5026 13.8672 23.3643C13.9155 23.2958 13.9639 23.2273 14.0137 23.1567C18.457 16.862 22.9004 10.5672 27.3438 4.27246C27.3921 4.20396 27.4405 4.13545 27.4903 4.06487C27.5878 3.92676 27.6853 3.78865 27.7828 3.65055C28.0295 3.30112 28.2761 2.95162 28.5225 2.60201C29.1356 1.73242 29.7515 0.864959 30.3711 0ZM27.4414 7.22656C27.4061 7.27703 27.3708 7.32751 27.3345 7.37951C26.5741 8.46716 25.8118 9.5534 25.0457 10.637C24.8024 10.9812 24.5594 11.3256 24.3164 11.6699C24.2188 11.8083 24.1211 11.9466 24.0234 12.085C23.9751 12.1534 23.9268 12.2219 23.877 12.2925C17.5781 21.2158 17.5781 21.2158 17.4315 21.4235C17.3342 21.5613 17.237 21.6992 17.1397 21.8371C16.8903 22.1908 16.6402 22.5441 16.3891 22.8966C16.3378 22.9688 16.2865 23.041 16.2336 23.1153C16.1375 23.2507 16.0411 23.3859 15.9445 23.5209C15.5559 24.0683 15.2058 24.6264 14.8438 25.1953C18.0986 25.1953 21.3535 25.1953 24.707 25.1953C24.5519 26.3528 24.3969 27.5103 24.2371 28.7029C24.1391 29.435 24.0412 30.1671 23.9433 30.8992C23.7879 32.062 23.6324 33.2247 23.4765 34.3874C23.363 35.2341 23.2496 36.0809 23.1366 36.9276C23.0767 37.3761 23.0167 37.8245 22.9565 38.2729C22.8998 38.6948 22.8434 39.1168 22.7872 39.5389C22.7665 39.6938 22.7457 39.8487 22.7248 40.0036C22.6963 40.2151 22.6682 40.4266 22.6402 40.6382C22.6243 40.7565 22.6085 40.8749 22.5921 40.9969C22.5631 41.2671 22.5518 41.5255 22.5586 41.7969C22.8527 41.5387 23.0333 41.2222 23.2277 40.8878C23.2639 40.8264 23.3002 40.7649 23.3375 40.7016C23.4157 40.5688 23.4937 40.4359 23.5716 40.3029C23.7805 39.946 23.9909 39.5899 24.2012 39.2338C24.2439 39.1613 24.2867 39.0889 24.3307 39.0142C24.727 38.3431 25.131 37.677 25.5371 37.0117C26.1302 36.0393 26.7148 35.0622 27.2949 34.082C27.9082 33.0458 28.5276 32.0136 29.1545 30.9855C29.7133 30.0685 30.2636 29.1467 30.8105 28.2227C31.3907 27.2425 31.9755 26.2655 32.5684 25.293C33.1473 24.3423 33.7225 23.3894 34.2923 22.4332C34.3752 22.2942 34.4582 22.1554 34.5413 22.0165C34.657 21.8232 34.7722 21.6296 34.8873 21.4359C34.9216 21.3788 34.9559 21.3216 34.9913 21.2628C35.1773 20.9483 35.312 20.6555 35.4492 20.3125C32.1299 20.3125 28.8105 20.3125 25.3906 20.3125C25.5468 19.3924 25.7031 18.4723 25.864 17.5243C25.9625 16.9427 26.0609 16.361 26.1591 15.7793C26.3152 14.8553 26.4714 13.9312 26.6285 13.0074C26.743 12.3346 26.8569 11.6618 26.9702 10.9888C27.0303 10.6324 27.0906 10.276 27.1515 9.91971C27.2194 9.52232 27.2862 9.12474 27.3529 8.72715C27.3734 8.60857 27.3938 8.49 27.4149 8.36784C27.4328 8.2598 27.4508 8.15175 27.4692 8.04043C27.4852 7.94636 27.5011 7.85229 27.5175 7.75537C27.5562 7.50572 27.5562 7.50572 27.4414 7.22656Z" fill="black"/>
</svg>
