<svg width="50" height="50" viewBox="0 0 50 50" fill="none" xmlns="http://www.w3.org/2000/svg">
<path d="M3.54719 20.9831C3.62213 20.9829 3.69706 20.9826 3.77427 20.9824C4.02801 20.9817 4.28174 20.9818 4.53548 20.9818C4.71818 20.9815 4.90087 20.9811 5.08357 20.9807C5.58769 20.9797 6.0918 20.9794 6.59592 20.9791C7.1388 20.9787 7.68168 20.9778 8.22455 20.977C9.53656 20.975 10.8486 20.974 12.1606 20.9732C12.7778 20.9727 13.3951 20.9722 14.0124 20.9717C16.0632 20.9701 18.1141 20.9686 20.1649 20.9679C20.2976 20.9679 20.4303 20.9678 20.5629 20.9678C20.6287 20.9678 20.6945 20.9677 20.7623 20.9677C21.0957 20.9676 21.429 20.9675 21.7624 20.9674C21.8616 20.9673 21.8616 20.9673 21.9629 20.9673C24.1085 20.9665 26.2542 20.9642 28.3998 20.9611C30.6673 20.9577 32.9348 20.9558 35.2022 20.9555C36.4387 20.9553 37.6751 20.9544 38.9116 20.9519C39.9643 20.9498 41.017 20.949 42.0697 20.9499C42.6071 20.9504 43.1445 20.9502 43.682 20.9483C44.1736 20.9466 44.6651 20.9467 45.1568 20.9482C45.335 20.9484 45.5132 20.948 45.6914 20.9469C45.933 20.9454 46.1745 20.9463 46.4161 20.9478C46.4859 20.9469 46.5557 20.9459 46.6276 20.9448C47.0933 20.9513 47.329 21.0575 47.6563 21.3868C47.7961 21.6664 47.7673 21.9051 47.7684 22.2178C47.7687 22.2838 47.7691 22.3498 47.7695 22.4178C47.7705 22.6401 47.7709 22.8624 47.7713 23.0847C47.7719 23.2436 47.7725 23.4026 47.7732 23.5615C47.7749 23.9941 47.776 24.4267 47.7768 24.8593C47.7773 25.1295 47.7779 25.3996 47.7785 25.6697C47.7803 26.5146 47.7817 27.3595 47.7825 28.2043C47.7835 29.1803 47.7861 30.1562 47.79 31.1321C47.7929 31.886 47.7944 32.6399 47.7947 33.3938C47.7949 33.8443 47.7958 34.2947 47.7983 34.7452C47.8005 35.169 47.801 35.5927 47.8 36.0165C47.7999 36.1721 47.8005 36.3276 47.8019 36.4832C47.8036 36.6956 47.8029 36.9078 47.8016 37.1202C47.8019 37.2391 47.8021 37.3579 47.8023 37.4804C47.7446 37.8537 47.6255 38.0145 47.3634 38.2813C47.0716 38.4272 46.773 38.3928 46.453 38.3921C46.3406 38.3925 46.3406 38.3925 46.2259 38.3928C45.9722 38.3935 45.7184 38.3934 45.4647 38.3934C45.282 38.3937 45.0993 38.3941 44.9166 38.3945C44.4125 38.3954 43.9084 38.3958 43.4042 38.3961C42.8614 38.3964 42.3185 38.3974 41.7756 38.3982C40.4636 38.4002 39.1516 38.4011 37.8396 38.402C37.2223 38.4024 36.6051 38.403 35.9878 38.4035C33.937 38.4051 31.8861 38.4066 29.8352 38.4073C29.7026 38.4073 29.5699 38.4074 29.4372 38.4074C29.3714 38.4074 29.3056 38.4074 29.2379 38.4075C28.9045 38.4076 28.5711 38.4077 28.2378 38.4078C28.1385 38.4079 28.1385 38.4079 28.0373 38.4079C25.8917 38.4087 23.746 38.411 21.6003 38.4141C19.3329 38.4175 17.0654 38.4194 14.7979 38.4197C13.5615 38.4199 12.3251 38.4208 11.0886 38.4233C10.0359 38.4254 8.9832 38.4262 7.93049 38.4252C7.39305 38.4248 6.85564 38.425 6.3182 38.4269C5.82659 38.4286 5.33502 38.4285 4.84341 38.427C4.66518 38.4268 4.48695 38.4272 4.30873 38.4283C4.06713 38.4298 3.82566 38.4289 3.58406 38.4273C3.51427 38.4283 3.44448 38.4293 3.37257 38.4304C2.90683 38.4239 2.67113 38.3177 2.34383 37.9884C2.20406 37.7088 2.2329 37.47 2.2318 37.1574C2.23145 37.0914 2.23109 37.0254 2.23072 36.9574C2.22964 36.7351 2.22926 36.5128 2.22889 36.2905C2.22828 36.1316 2.22763 35.9726 2.22695 35.8137C2.22525 35.3811 2.22422 34.9485 2.22341 34.5159C2.22291 34.2457 2.22231 33.9756 2.2217 33.7054C2.21984 32.8606 2.21845 32.0157 2.21764 31.1709C2.21668 30.1949 2.21411 29.219 2.21017 28.2431C2.20722 27.4892 2.20578 26.7353 2.20545 25.9814C2.20522 25.5309 2.20434 25.0805 2.20189 24.63C2.19962 24.2062 2.1992 23.7824 2.20021 23.3586C2.20026 23.2031 2.19964 23.0476 2.1983 22.892C2.19657 22.6796 2.19726 22.4674 2.19854 22.255C2.19831 22.1361 2.19808 22.0173 2.19784 21.8948C2.25555 21.5215 2.37466 21.3607 2.6368 21.0938C2.92861 20.9479 3.22719 20.9824 3.54719 20.9831ZM4.00399 22.754C4.00399 27.3302 4.00399 31.9063 4.00399 36.6212C17.8614 36.6212 31.7188 36.6212 45.9962 36.6212C45.9962 32.045 45.9962 27.4688 45.9962 22.754C45.545 22.754 45.0938 22.754 44.629 22.754C44.6276 22.9316 44.6262 23.1092 44.6248 23.2923C44.6202 23.5258 44.6155 23.7594 44.6107 23.993C44.6098 24.1685 44.6098 24.1685 44.609 24.3476C44.5847 25.3163 44.5847 25.3163 44.3005 25.6146C43.9797 25.8224 43.832 25.8594 43.4571 25.7813C43.2072 25.6196 43.1087 25.547 42.9688 25.2931C42.8937 24.8604 42.8916 24.4314 42.8895 23.993C42.8858 23.8147 42.8858 23.8147 42.882 23.6327C42.8763 23.3398 42.8735 23.0469 42.8712 22.754C42.42 22.754 41.9688 22.754 41.504 22.754C41.5036 22.923 41.5032 23.092 41.5028 23.2662C41.5009 23.8256 41.4967 24.3849 41.4911 24.9442C41.4877 25.2832 41.4853 25.6222 41.4849 25.9613C41.4844 26.3514 41.48 26.7413 41.4754 27.1314C41.4758 27.2527 41.4761 27.3741 41.4765 27.4992C41.4607 28.4371 41.4607 28.4371 41.1762 28.7388C40.855 28.9473 40.7076 28.9846 40.3321 28.9063C40.0832 28.7448 39.9838 28.6708 39.8438 28.4181C39.7686 27.99 39.7734 27.5651 39.7748 27.1314C39.7733 27.0063 39.7718 26.8813 39.7703 26.7525C39.7664 26.4213 39.7654 26.0901 39.765 25.7589C39.7641 25.4204 39.7605 25.082 39.757 24.7436C39.7509 24.0804 39.7478 23.4172 39.7462 22.754C39.295 22.754 38.8438 22.754 38.379 22.754C38.3776 22.9316 38.3762 23.1092 38.3748 23.2923C38.3702 23.5258 38.3655 23.7594 38.3607 23.993C38.3598 24.1685 38.3598 24.1685 38.359 24.3476C38.3347 25.3163 38.3347 25.3163 38.0505 25.6146C37.7297 25.8224 37.582 25.8594 37.2071 25.7813C36.9572 25.6196 36.8587 25.547 36.7188 25.2931C36.6437 24.8604 36.6416 24.4314 36.6395 23.993C36.6358 23.8147 36.6358 23.8147 36.632 23.6327C36.6263 23.3398 36.6235 23.0469 36.6212 22.754C36.17 22.754 35.7188 22.754 35.254 22.754C35.2536 22.923 35.2532 23.092 35.2528 23.2662C35.2509 23.8256 35.2467 24.3849 35.2411 24.9442C35.2377 25.2832 35.2353 25.6222 35.2349 25.9613C35.2344 26.3514 35.23 26.7413 35.2254 27.1314C35.2258 27.2527 35.2261 27.3741 35.2265 27.4992C35.2107 28.4371 35.2107 28.4371 34.9262 28.7388C34.605 28.9473 34.4576 28.9846 34.0821 28.9063C33.8332 28.7448 33.7338 28.6708 33.5938 28.4181C33.5186 27.99 33.5234 27.5651 33.5248 27.1314C33.5233 27.0063 33.5218 26.8813 33.5203 26.7525C33.5164 26.4213 33.5154 26.0901 33.515 25.7589C33.5141 25.4204 33.5105 25.082 33.507 24.7436C33.5009 24.0804 33.4978 23.4172 33.4962 22.754C33.045 22.754 32.5938 22.754 32.129 22.754C32.1276 22.9316 32.1262 23.1092 32.1248 23.2923C32.1202 23.5258 32.1155 23.7594 32.1107 23.993C32.1098 24.1685 32.1098 24.1685 32.109 24.3476C32.0847 25.3163 32.0847 25.3163 31.8005 25.6146C31.4797 25.8224 31.332 25.8594 30.9571 25.7813C30.7072 25.6196 30.6087 25.547 30.4688 25.2931C30.3937 24.8604 30.3916 24.4314 30.3895 23.993C30.3858 23.8147 30.3858 23.8147 30.382 23.6327C30.3763 23.3398 30.3735 23.0469 30.3712 22.754C29.92 22.754 29.4688 22.754 29.004 22.754C29.0036 22.923 29.0032 23.092 29.0028 23.2662C29.0009 23.8256 28.9967 24.3849 28.9911 24.9442C28.9877 25.2832 28.9853 25.6222 28.9849 25.9613C28.9844 26.3514 28.98 26.7413 28.9754 27.1314C28.9758 27.2527 28.9761 27.3741 28.9765 27.4992C28.9607 28.4371 28.9607 28.4371 28.6762 28.7388C28.355 28.9473 28.2076 28.9846 27.8321 28.9063C27.5832 28.7448 27.4838 28.6708 27.3438 28.4181C27.2686 27.99 27.2734 27.5651 27.2748 27.1314C27.2726 26.9438 27.2726 26.9438 27.2703 26.7525C27.2664 26.4213 27.2654 26.0901 27.265 25.7589C27.2641 25.4204 27.2605 25.082 27.257 24.7436C27.2509 24.0804 27.2478 23.4172 27.2462 22.754C26.795 22.754 26.3438 22.754 25.879 22.754C25.8776 22.9316 25.8762 23.1092 25.8748 23.2923C25.8702 23.5258 25.8655 23.7594 25.8607 23.993C25.8598 24.1685 25.8598 24.1685 25.859 24.3476C25.8347 25.3163 25.8347 25.3163 25.5505 25.6146C25.2297 25.8224 25.082 25.8594 24.7071 25.7813C24.4572 25.6196 24.3587 25.547 24.2188 25.2931C24.1437 24.8604 24.1416 24.4314 24.1395 23.993C24.137 23.8741 24.1346 23.7552 24.132 23.6327C24.1263 23.3398 24.1235 23.0469 24.1212 22.754C23.67 22.754 23.2188 22.754 22.754 22.754C22.7536 22.923 22.7532 23.092 22.7528 23.2662C22.7509 23.8256 22.7467 24.3849 22.7411 24.9442C22.7377 25.2832 22.7353 25.6222 22.7349 25.9613C22.7344 26.3514 22.73 26.7413 22.7254 27.1314C22.7258 27.2527 22.7261 27.3741 22.7265 27.4992C22.7107 28.4371 22.7107 28.4371 22.4262 28.7388C22.105 28.9473 21.9576 28.9846 21.5821 28.9063C21.3332 28.7448 21.2338 28.6708 21.0938 28.4181C21.0186 27.99 21.0234 27.5651 21.0248 27.1314C21.0226 26.9438 21.0226 26.9438 21.0203 26.7525C21.0164 26.4213 21.0154 26.0901 21.015 25.7589C21.0141 25.4204 21.0105 25.082 21.007 24.7436C21.0009 24.0804 20.9978 23.4172 20.9962 22.754C20.545 22.754 20.0938 22.754 19.629 22.754C19.6276 22.9316 19.6262 23.1092 19.6248 23.2923C19.6202 23.5258 19.6155 23.7594 19.6107 23.993C19.6098 24.1685 19.6098 24.1685 19.609 24.3476C19.5847 25.3163 19.5847 25.3163 19.3005 25.6146C18.9797 25.8224 18.832 25.8594 18.4571 25.7813C18.2072 25.6196 18.1087 25.547 17.9688 25.2931C17.8937 24.8604 17.8916 24.4314 17.8895 23.993C17.887 23.8741 17.8846 23.7552 17.882 23.6327C17.8763 23.3398 17.8735 23.0469 17.8712 22.754C17.42 22.754 16.9688 22.754 16.504 22.754C16.5036 22.923 16.5032 23.092 16.5028 23.2662C16.5009 23.8256 16.4967 24.3849 16.4911 24.9442C16.4877 25.2832 16.4853 25.6222 16.4849 25.9613C16.4844 26.3514 16.48 26.7413 16.4754 27.1314C16.4758 27.2527 16.4761 27.3741 16.4765 27.4992C16.4607 28.4371 16.4607 28.4371 16.1762 28.7388C15.855 28.9473 15.7076 28.9846 15.3321 28.9063C15.0832 28.7448 14.9838 28.6708 14.8438 28.4181C14.7686 27.99 14.7734 27.5651 14.7748 27.1314C14.7726 26.9438 14.7726 26.9438 14.7703 26.7525C14.7664 26.4213 14.7654 26.0901 14.765 25.7589C14.7641 25.4204 14.7605 25.082 14.757 24.7436C14.7509 24.0804 14.7478 23.4172 14.7462 22.754C14.295 22.754 13.8438 22.754 13.379 22.754C13.3776 22.9316 13.3762 23.1092 13.3748 23.2923C13.3702 23.5258 13.3655 23.7594 13.3607 23.993C13.3598 24.1685 13.3598 24.1685 13.359 24.3476C13.3347 25.3163 13.3347 25.3163 13.0505 25.6146C12.7297 25.8224 12.582 25.8594 12.2071 25.7813C11.9572 25.6196 11.8587 25.547 11.7188 25.2931C11.6437 24.8604 11.6416 24.4314 11.6395 23.993C11.637 23.8741 11.6346 23.7552 11.632 23.6327C11.6263 23.3398 11.6235 23.0469 11.6212 22.754C11.17 22.754 10.7188 22.754 10.254 22.754C10.2536 22.923 10.2532 23.092 10.2528 23.2662C10.2509 23.8256 10.2467 24.3849 10.2411 24.9442C10.2377 25.2832 10.2353 25.6222 10.2349 25.9613C10.2344 26.3514 10.23 26.7413 10.2254 27.1314C10.226 27.3134 10.226 27.3134 10.2265 27.4992C10.2107 28.4371 10.2107 28.4371 9.92619 28.7388C9.60498 28.9473 9.4576 28.9846 9.08211 28.9063C8.83316 28.7448 8.73382 28.6708 8.59383 28.4181C8.51856 27.99 8.52341 27.5651 8.52479 27.1314C8.52331 27.0063 8.52183 26.8813 8.52031 26.7525C8.51643 26.4213 8.51543 26.0901 8.51504 25.7589C8.51412 25.4204 8.51047 25.082 8.50705 24.7436C8.5009 24.0804 8.49775 23.4172 8.49618 22.754C8.045 22.754 7.59383 22.754 7.12899 22.754C7.12691 23.0204 7.12691 23.0204 7.12479 23.2923C7.12021 23.5258 7.1155 23.7594 7.11068 23.993C7.11011 24.11 7.10955 24.227 7.10896 24.3476C7.08468 25.3163 7.08468 25.3163 6.80054 25.6146C6.47968 25.8224 6.33196 25.8594 5.95711 25.7813C5.70723 25.6196 5.60873 25.547 5.46883 25.2931C5.39367 24.8604 5.39161 24.4314 5.38949 23.993C5.38703 23.8741 5.38458 23.7552 5.38205 23.6327C5.37631 23.3398 5.37346 23.0469 5.37118 22.754C4.92 22.754 4.46883 22.754 4.00399 22.754Z" fill="black"/>
<path d="M6.54297 11.6211C6.80663 11.7969 6.98651 11.9222 7.12891 12.207C7.18618 12.5077 7.18557 12.7069 7.01408 12.9673C6.50627 13.5575 5.91711 14.1024 5.37109 14.6484C18.3262 14.6484 31.2813 14.6484 44.6289 14.6484C44.0811 14.1006 43.5332 13.5527 42.9688 12.9883C42.8294 12.7096 42.8408 12.5162 42.8711 12.207C43.0469 11.9434 43.1722 11.7635 43.457 11.6211C43.7134 11.5723 43.7134 11.5723 44.043 11.6211C44.801 12.1377 45.4417 12.9074 46.0878 13.5555C46.2845 13.7528 46.4818 13.9495 46.6791 14.1462C46.8043 14.2715 46.9295 14.3968 47.0547 14.5222C47.1432 14.6104 47.1432 14.6104 47.2334 14.7003C47.7284 15.1981 47.7284 15.1981 47.8027 15.5884C47.6697 16.4863 46.4468 17.3375 45.8195 17.9628C45.6222 18.1595 45.4255 18.3568 45.2288 18.5541C45.1035 18.6793 44.9782 18.8045 44.8528 18.9297C44.794 18.9887 44.7352 19.0477 44.6747 19.1084C44.1649 19.6154 44.1649 19.6154 43.7683 19.6594C43.3857 19.6219 43.2409 19.5027 42.9688 19.2383C42.8214 18.9436 42.8222 18.7868 42.8711 18.457C43.3243 17.7689 44.0706 17.1598 44.6289 16.6016C31.6738 16.6016 18.7187 16.6016 5.37109 16.6016C5.91895 17.1494 6.4668 17.6973 7.03125 18.2617C7.17057 18.5404 7.15921 18.7338 7.12891 19.043C6.95313 19.3066 6.82776 19.4865 6.54297 19.6289C6.28662 19.6777 6.28662 19.6777 5.95703 19.6289C5.19897 19.1123 4.55825 18.3426 3.91223 17.6945C3.71548 17.4972 3.51821 17.3005 3.32088 17.1038C3.19567 16.9785 3.07048 16.8532 2.94533 16.7278C2.88634 16.669 2.82734 16.6102 2.76656 16.5497C2.2716 16.0519 2.2716 16.0519 2.19727 15.6616C2.3303 14.7637 3.55325 13.9125 4.1805 13.2872C4.37778 13.0905 4.57453 12.8932 4.77123 12.6959C4.89651 12.5707 5.02183 12.4455 5.14717 12.3203C5.20597 12.2613 5.26476 12.2023 5.32534 12.1416C5.74676 11.7225 5.93868 11.5619 6.54297 11.6211Z" fill="black"/>
</svg>
