<svg width="20" height="20" viewBox="0 0 20 20" fill="none" xmlns="http://www.w3.org/2000/svg">
<g clip-path="url(#clip0_113_833)">
<path d="M9.60093 -0.00935003C9.62944 -0.00973083 9.65795 -0.0101116 9.68733 -0.010504C10.5629 -0.0197862 11.3573 0.0576371 12.1874 0.35152C12.2507 0.373047 12.2507 0.373047 12.3153 0.395008C13.8552 0.948215 15.0876 2.1509 15.8203 3.59371C15.8398 3.63167 15.8593 3.66964 15.8795 3.70876C16.4744 4.94008 16.6545 6.52045 16.3281 7.85152C16.3164 7.90019 16.3164 7.90019 16.3046 7.94984C16.0814 8.85731 15.6698 9.65487 15.1475 10.4242C15.0213 10.6108 14.9008 10.8009 14.7802 10.9912C14.7574 11.0272 14.7345 11.0633 14.7109 11.1004C14.663 11.1759 14.6151 11.2515 14.5672 11.327C14.4361 11.5336 14.3042 11.7397 14.1723 11.9458C14.1458 11.9872 14.1193 12.0286 14.092 12.0713C13.9277 12.3277 13.7627 12.5836 13.5969 12.8391C13.4513 13.0637 13.3076 13.2896 13.164 13.5156C13.0039 13.7677 12.8432 14.0194 12.6806 14.27C12.3969 14.7072 12.1166 15.1467 11.8359 15.5859C11.0972 16.7415 11.0972 16.7415 10.8272 17.1556C10.7819 17.2254 10.7371 17.2955 10.6924 17.3657C10.6518 17.4285 10.6518 17.4285 10.6103 17.4926C10.5874 17.5283 10.5646 17.564 10.541 17.6008C10.4326 17.7423 10.3258 17.8341 10.1562 17.8906C9.93778 17.9049 9.79407 17.9031 9.60932 17.7734C9.38232 17.5368 9.21998 17.2422 9.04902 16.9644C8.94844 16.8012 8.84477 16.6401 8.74018 16.4794C8.57682 16.2281 8.41511 15.9757 8.25434 15.7226C7.86301 15.1068 7.47064 14.4917 7.07343 13.8796C6.90395 13.6181 6.737 13.3549 6.5699 13.0918C6.43168 12.8744 6.29262 12.6575 6.15229 12.4414C5.96411 12.1516 5.77861 11.8601 5.59336 11.5684C5.45513 11.3509 5.31602 11.1341 5.17573 10.9179C5.14129 10.8647 5.10685 10.8114 5.07243 10.7582C5.01324 10.6666 4.9539 10.5752 4.8943 10.4839C4.60128 10.035 4.32436 9.58959 4.10151 9.10152C4.08041 9.05691 4.05931 9.01229 4.03757 8.96633C3.87336 8.6048 3.76416 8.23653 3.67182 7.85152C3.66531 7.82603 3.6588 7.80054 3.6521 7.77427C3.42842 6.87075 3.47927 5.77805 3.71088 4.88277C3.7182 4.85319 3.72551 4.82362 3.73305 4.79314C3.83833 4.37448 3.99177 3.9819 4.17963 3.59371C4.19167 3.56883 4.2037 3.54396 4.2161 3.51833C4.46332 3.01569 4.77067 2.56729 5.15314 2.1574C5.22769 2.07739 5.29824 1.99526 5.3686 1.91158C6.36908 0.774665 8.09028 0.00743657 9.60093 -0.00935003ZM7.89057 4.45308C7.86741 4.47559 7.84425 4.4981 7.82038 4.52129C7.28399 5.0712 7.09791 5.79892 7.09986 6.5447C7.10969 7.29099 7.40102 7.91543 7.90522 8.45943C7.93906 8.49085 7.97289 8.52227 8.00776 8.55465C8.03027 8.57781 8.05277 8.60097 8.07597 8.62484C8.62587 9.16123 9.3536 9.34731 10.0994 9.34536C10.8457 9.33553 11.4701 9.0442 12.0141 8.54C12.0455 8.50616 12.0769 8.47232 12.1093 8.43746C12.1325 8.41495 12.1556 8.39244 12.1795 8.36925C12.7159 7.81935 12.902 7.09162 12.9 6.34584C12.8902 5.59955 12.5989 4.97511 12.0947 4.43111C12.0608 4.39969 12.027 4.36827 11.9921 4.3359C11.9696 4.31273 11.9471 4.28957 11.9239 4.2657C11.374 3.72931 10.6463 3.54323 9.90052 3.54518C9.12006 3.55546 8.42292 3.87979 7.89057 4.45308Z" fill="black"/>
<path d="M5.46889 13.4766C5.52965 13.5551 5.52965 13.5551 5.59508 13.6597C5.61968 13.6986 5.64427 13.7375 5.66962 13.7775C5.70923 13.8413 5.70923 13.8413 5.74965 13.9062C5.77756 13.9506 5.80551 13.9949 5.8335 14.0392C5.89166 14.1314 5.94967 14.2236 6.00758 14.3159C6.1391 14.5253 6.27285 14.7333 6.40639 14.9414C6.45823 15.0224 6.51006 15.1033 6.56187 15.1843C6.58762 15.2246 6.61337 15.2648 6.6399 15.3062C6.72063 15.4324 6.80132 15.5586 6.882 15.6848C7.125 16.0648 7.36808 16.4448 7.61391 16.823C7.73819 17.0146 7.86034 17.2074 7.98219 17.4006C8.59622 18.3803 8.59622 18.3803 9.60768 18.885C10.1239 18.977 10.5942 18.8698 11.0472 18.6148C11.2922 18.4431 11.4634 18.26 11.6237 18.0078C11.6435 17.9774 11.6633 17.9469 11.6838 17.9155C11.748 17.8164 11.8117 17.7168 11.8751 17.6172C11.8965 17.5839 11.9178 17.5506 11.9397 17.5163C12.0528 17.3397 12.1654 17.1627 12.2777 16.9855C12.4276 16.7488 12.5785 16.5128 12.7296 16.2769C12.7557 16.2361 12.7818 16.1954 12.8086 16.1535C12.8616 16.0707 12.9146 15.988 12.9676 15.9052C13.0723 15.7417 13.177 15.5782 13.2816 15.4146C13.3334 15.3338 13.3851 15.253 13.4368 15.1722C13.5575 14.9838 13.678 14.7953 13.7982 14.6066C13.8404 14.5404 13.8826 14.4742 13.9248 14.408C13.9774 14.3254 14.03 14.2427 14.0826 14.16C14.2391 13.9146 14.4015 13.6745 14.5705 13.4375C15.9906 13.7165 17.6774 14.2755 18.5319 15.5231C18.8057 15.9735 18.8566 16.455 18.7652 16.9713C18.5238 17.7808 17.7697 18.2913 17.0645 18.6728C16.6392 18.8977 16.2001 19.0719 15.7423 19.2188C15.6915 19.2351 15.6915 19.2351 15.6397 19.2517C14.655 19.5631 13.6414 19.7568 12.6173 19.8828C12.5715 19.8887 12.5257 19.8946 12.4785 19.9007C10.8211 20.1052 9.03847 20.0991 7.38295 19.8828C7.32936 19.876 7.27577 19.8693 7.22218 19.8625C5.26665 19.6116 2.85156 19.1749 1.52861 17.5674C1.21653 17.1363 1.15461 16.6505 1.21108 16.1328C1.34906 15.4616 1.87784 14.9587 2.42461 14.59C3.17267 14.1047 4.00483 13.8167 4.85609 13.5693C4.90363 13.5555 4.95116 13.5416 5.00013 13.5273C5.06637 13.5087 5.06637 13.5087 5.13396 13.4897C5.1732 13.4786 5.21244 13.4676 5.25287 13.4562C5.3517 13.4375 5.3517 13.4375 5.46889 13.4766Z" fill="black"/>
</g>
<defs>
<clipPath id="clip0_113_833">
<rect width="20" height="20" fill="white"/>
</clipPath>
</defs>
</svg>
