<svg width="20" height="20" viewBox="0 0 20 20" fill="none" xmlns="http://www.w3.org/2000/svg">
<g clip-path="url(#clip0_113_840)">
<path d="M0.000159426 6.67969C0.0553198 6.70991 0.110428 6.74023 0.165514 6.77058C0.211555 6.79589 0.211555 6.79589 0.258526 6.82171C0.408588 6.90752 0.550496 7.00445 0.693061 7.10205C0.725147 7.12382 0.757232 7.14559 0.79029 7.16802C0.859463 7.21496 0.928597 7.26196 0.997693 7.30901C1.18561 7.43693 1.37389 7.56432 1.5622 7.69165C1.60111 7.71796 1.64001 7.74427 1.6801 7.77137C2.08146 8.04234 2.48592 8.30852 2.89078 8.57422C3.45991 8.94787 4.02622 9.32536 4.59 9.70703C5.23063 10.1407 5.8746 10.5689 6.52148 10.9932C6.86583 11.2192 7.20918 11.4464 7.55006 11.6776C7.61404 11.7208 7.67803 11.764 7.74202 11.8073C7.85977 11.8869 7.97712 11.967 8.09425 12.0475C8.84257 12.5563 9.6457 12.8224 10.5579 12.6711C11.2137 12.5346 11.7649 12.1577 12.3074 11.7837C12.4913 11.6569 12.6762 11.5315 12.8609 11.4058C12.8989 11.3798 12.937 11.3539 12.9762 11.3272C13.3745 11.056 13.777 10.7915 14.1798 10.5273C14.749 10.1538 15.3153 9.7762 15.8791 9.39453C16.5166 8.96297 17.1577 8.53709 17.8012 8.11437C18.1626 7.87688 18.5235 7.63863 18.8831 7.39838C18.9367 7.36254 18.9367 7.36254 18.9914 7.32599C19.1622 7.21185 19.3329 7.09758 19.5034 6.98316C19.5638 6.94278 19.6241 6.9024 19.6845 6.86203C19.7259 6.83411 19.7259 6.83411 19.7683 6.80562C19.9567 6.67969 19.9567 6.67969 20.0002 6.67969C20.0046 7.86536 20.0081 9.05103 20.0101 10.2367C20.0104 10.3769 20.0106 10.5171 20.0109 10.6572C20.0109 10.6851 20.011 10.713 20.011 10.7418C20.0119 11.1928 20.0134 11.6439 20.0152 12.0949C20.0171 12.5582 20.0181 13.0215 20.0185 13.4847C20.0188 13.7447 20.0194 14.0048 20.0208 14.2648C20.0221 14.5098 20.0225 14.7547 20.0223 14.9997C20.0223 15.0894 20.0227 15.1791 20.0234 15.2688C20.029 15.9625 19.9591 16.4579 19.4704 16.9824C19.0957 17.3283 18.6881 17.5095 18.1749 17.51C18.1317 17.5103 18.1317 17.5103 18.0876 17.5105C17.9914 17.5108 17.8952 17.5106 17.799 17.5104C17.7291 17.5106 17.6593 17.5108 17.5894 17.511C17.3978 17.5115 17.2062 17.5115 17.0146 17.5114C16.8079 17.5113 16.6011 17.5118 16.3943 17.5121C15.9893 17.5128 15.5843 17.513 15.1793 17.5131C14.8501 17.5131 14.5208 17.5132 14.1916 17.5135C13.2578 17.5142 12.3241 17.5145 11.3904 17.5145C11.3149 17.5145 11.3149 17.5145 11.2379 17.5145C11.1875 17.5145 11.1371 17.5145 11.0852 17.5145C10.2686 17.5144 9.45211 17.5152 8.63556 17.5163C7.79691 17.5174 6.95827 17.5179 6.11962 17.5179C5.64887 17.5179 5.17813 17.5181 4.70739 17.5189C4.30656 17.5196 3.90574 17.5198 3.50491 17.5193C3.3005 17.519 3.09609 17.519 2.89168 17.5197C2.70433 17.5203 2.51699 17.5202 2.32964 17.5195C2.26209 17.5194 2.19453 17.5195 2.12697 17.52C1.52392 17.5236 1.02057 17.4326 0.559241 17.0142C0.529432 16.9811 0.499622 16.9481 0.468909 16.9141C0.450127 16.895 0.431345 16.8759 0.411994 16.8562C0.169898 16.5982 -0.00483413 16.2473 -0.00464713 15.889C-0.00472491 15.8561 -0.00480268 15.8231 -0.00488281 15.7891C-0.00476903 15.7531 -0.00465525 15.7171 -0.00453802 15.68C-0.00457139 15.6416 -0.00460477 15.6032 -0.00463916 15.5636C-0.00470363 15.4345 -0.00448838 15.3054 -0.00427516 15.1764C-0.00426414 15.084 -0.00427032 14.9916 -0.00429245 14.8992C-0.00430368 14.648 -0.00407362 14.3969 -0.00380127 14.1458C-0.00356358 13.91 -0.00354258 13.6742 -0.00350237 13.4384C-0.00341688 12.9715 -0.00315691 12.5045 -0.00278743 12.0375C-0.00242888 11.5838 -0.00215237 11.1302 -0.00198634 10.6765C-0.00197608 10.6486 -0.00196582 10.6206 -0.00195524 10.5918C-0.00190426 10.4515 -0.0018549 10.3112 -0.00180634 10.171C-0.00140138 9.00721 -0.000710457 7.84345 0.000159426 6.67969Z" fill="black"/>
<path d="M1.82547 2.49001C1.8543 2.48987 1.88313 2.48974 1.91284 2.4896C2.00904 2.48923 2.10524 2.48942 2.20144 2.48961C2.27128 2.48947 2.34111 2.48929 2.41095 2.48908C2.60255 2.4886 2.79416 2.48861 2.98577 2.4887C3.19253 2.48872 3.3993 2.48829 3.60607 2.48792C4.01107 2.48727 4.41606 2.48705 4.82106 2.48701C5.15032 2.48697 5.47957 2.48681 5.80882 2.48656C6.74254 2.48588 7.67627 2.48552 8.61 2.48557C8.68549 2.48558 8.68549 2.48558 8.76251 2.48558C8.8129 2.48559 8.86329 2.48559 8.91521 2.48559C9.73175 2.48563 10.5483 2.48488 11.3648 2.48378C12.2035 2.48265 13.0421 2.48211 13.8808 2.48218C14.3515 2.48221 14.8223 2.48199 15.293 2.48115C15.6938 2.48044 16.0947 2.48027 16.4955 2.4808C16.6999 2.48106 16.9043 2.48106 17.1087 2.48038C17.2961 2.47977 17.4834 2.47988 17.6707 2.48056C17.7383 2.48068 17.8059 2.48054 17.8734 2.4801C18.4765 2.47647 18.9798 2.56748 19.4412 2.9859C19.471 3.01893 19.5008 3.05196 19.5315 3.086C19.5597 3.11394 19.5597 3.11394 19.5884 3.14246C19.9594 3.53135 20.0185 4.01892 20.0111 4.52963C19.9926 5.0266 19.7282 5.40276 19.3836 5.74196C19.249 5.86399 19.1025 5.96126 18.9497 6.05887C18.9166 6.08047 18.8834 6.10208 18.8493 6.12434C18.778 6.17079 18.7067 6.21708 18.6352 6.26322C18.4412 6.38841 18.2481 6.51487 18.0549 6.64114C18.0151 6.66709 17.9753 6.69304 17.9343 6.71977C17.5328 6.98204 17.1355 7.25044 16.7385 7.51959C16.1393 7.92544 15.5367 8.32581 14.9317 8.72305C14.3936 9.07649 13.8586 9.43418 13.3254 9.79498C12.8099 10.1436 12.2937 10.4912 11.7746 10.8343C11.7108 10.8765 11.6471 10.9187 11.5835 10.961C10.9272 11.397 10.3677 11.7122 9.55635 11.5803C9.31475 11.5165 9.10932 11.4099 8.89977 11.2762C8.87289 11.2592 8.84601 11.2422 8.81831 11.2247C8.50417 11.0247 8.19627 10.8154 7.88832 10.606C7.26748 10.1841 6.64338 9.76744 6.01586 9.35553C5.41174 8.95888 4.81108 8.55748 4.21265 8.15231C3.70789 7.81068 3.20075 7.47291 2.69139 7.13817C2.38008 6.93358 2.06903 6.72859 1.75805 6.5235C1.72846 6.504 1.69887 6.4845 1.66839 6.4644C1.51018 6.36005 1.35227 6.25529 1.19483 6.14977C1.12892 6.10572 1.06275 6.06205 0.996565 6.01841C0.64562 5.78198 0.336866 5.53392 0.156483 5.1441C0.13473 5.09833 0.112977 5.05256 0.0905653 5.0054C-0.077242 4.60436 -0.0653121 4.06736 0.0832411 3.66217C0.310859 3.16064 0.702401 2.78739 1.21117 2.57819C1.42214 2.51786 1.6045 2.49025 1.82547 2.49001Z" fill="black"/>
</g>
<defs>
<clipPath id="clip0_113_840">
<rect width="20" height="20" fill="white"/>
</clipPath>
</defs>
</svg>
