<svg width="30" height="30" viewBox="0 0 30 30" fill="none" xmlns="http://www.w3.org/2000/svg">
<g clip-path="url(#clip0_15_351)">
<path d="M1.66056 13.4543C1.70765 13.454 1.75474 13.4538 1.80327 13.4535C1.96066 13.4529 2.11803 13.4535 2.27542 13.4541C2.38957 13.4539 2.50372 13.4536 2.61786 13.4532C2.93123 13.4525 3.24458 13.4529 3.55794 13.4534C3.89601 13.4538 4.23408 13.4532 4.57214 13.4527C5.2343 13.4519 5.89645 13.4521 6.5586 13.4526C7.0967 13.453 7.6348 13.4531 8.1729 13.4529C8.24945 13.4528 8.32601 13.4528 8.40489 13.4528C8.56041 13.4527 8.71593 13.4527 8.87145 13.4526C10.2885 13.4521 11.7055 13.4526 13.1226 13.4536C14.416 13.4544 15.7095 13.4543 17.0029 13.4535C18.4563 13.4525 19.9097 13.4522 21.363 13.4527C21.518 13.4528 21.6729 13.4528 21.8279 13.4529C21.9422 13.4529 21.9423 13.4529 22.0589 13.4529C22.5964 13.4531 23.1339 13.4528 23.6715 13.4524C24.3264 13.4519 24.9814 13.4521 25.6363 13.453C25.9706 13.4535 26.3048 13.4536 26.639 13.4531C26.9449 13.4525 27.2508 13.4528 27.5567 13.4538C27.6675 13.454 27.7782 13.4539 27.8889 13.4534C28.0394 13.4529 28.1898 13.4535 28.3402 13.4543C28.3832 13.4539 28.4262 13.4534 28.4705 13.453C28.9422 13.4581 29.3193 13.6203 29.6626 13.9454C29.994 14.3201 30.0424 14.718 30.0265 15.2083C29.9685 15.6563 29.7645 15.9854 29.4225 16.274C29.0664 16.483 28.745 16.5493 28.3402 16.5454C28.2931 16.5456 28.246 16.5459 28.1975 16.5462C28.0401 16.5468 27.8828 16.5462 27.7254 16.5456C27.6112 16.5458 27.4971 16.5461 27.3829 16.5464C27.0696 16.5471 26.7562 16.5468 26.4428 16.5462C26.1048 16.5458 25.7667 16.5465 25.4286 16.5469C24.7665 16.5477 24.1043 16.5476 23.4422 16.547C22.9041 16.5466 22.366 16.5466 21.8279 16.5468C21.7513 16.5468 21.6748 16.5468 21.5959 16.5469C21.4404 16.5469 21.2849 16.547 21.1293 16.547C19.7123 16.5475 18.2952 16.547 16.8782 16.5461C15.5848 16.5453 14.2913 16.5453 12.9979 16.5462C11.5445 16.5471 10.0911 16.5475 8.63775 16.547C8.4828 16.5469 8.32785 16.5468 8.1729 16.5468C8.05854 16.5467 8.05854 16.5467 7.94187 16.5467C7.40435 16.5466 6.86684 16.5468 6.32933 16.5472C5.67436 16.5477 5.0194 16.5476 4.36444 16.5466C4.03021 16.5462 3.69598 16.546 3.36175 16.5466C3.05584 16.5471 2.74995 16.5468 2.44404 16.5459C2.33332 16.5457 2.22261 16.5458 2.1119 16.5462C1.96143 16.5467 1.81101 16.5462 1.66056 16.5454C1.59605 16.546 1.59605 16.546 1.53024 16.5466C1.05856 16.5415 0.6815 16.3793 0.338223 16.0543C0.00679894 15.6796 -0.0415684 15.2817 -0.0256995 14.7913C0.0322662 14.3434 0.236303 14.0142 0.57832 13.7256C0.934392 13.5167 1.25578 13.4504 1.66056 13.4543Z" fill="black"/>
<path d="M9.60524 4.43063C9.68749 4.43043 9.76975 4.43015 9.852 4.4298C10.0769 4.42907 10.3019 4.42943 10.5268 4.42997C10.7698 4.43037 11.0128 4.42975 11.2558 4.42927C11.7314 4.42849 12.207 4.42866 12.6827 4.42917C13.0693 4.42957 13.4559 4.42962 13.8425 4.42943C13.8976 4.4294 13.9526 4.42937 14.0094 4.42935C14.1212 4.42929 14.2331 4.42923 14.345 4.42918C15.3935 4.42867 16.4421 4.42925 17.4906 4.43019C18.39 4.43098 19.2893 4.43084 20.1886 4.43003C21.2334 4.42909 22.2783 4.42872 23.3231 4.42926C23.4346 4.42932 23.546 4.42937 23.6575 4.42943C23.7398 4.42947 23.7398 4.42947 23.8237 4.42951C24.2097 4.42966 24.5958 4.42941 24.9819 4.42899C25.4525 4.4285 25.9231 4.42863 26.3937 4.42957C26.6337 4.43003 26.8737 4.43021 27.1137 4.42963C27.3336 4.4291 27.5535 4.4294 27.7734 4.43033C27.8902 4.43062 28.0071 4.43005 28.1239 4.42944C28.6946 4.43317 29.2236 4.50846 29.6484 4.9217C30.013 5.40428 30.042 5.85508 30 6.44514C29.9033 6.86059 29.5742 7.14131 29.2383 7.38264C29.0154 7.48954 28.8383 7.51457 28.5921 7.5149C28.5208 7.51528 28.4495 7.51565 28.376 7.51604C28.297 7.51587 28.2181 7.51569 28.1391 7.51549C28.0551 7.51571 27.9711 7.51598 27.8871 7.5163C27.6561 7.51702 27.4252 7.517 27.1943 7.51686C26.9453 7.51684 26.6962 7.51748 26.4472 7.51804C25.9593 7.51901 25.4713 7.51934 24.9834 7.5194C24.5868 7.51946 24.1902 7.5197 23.7936 7.52007C22.6694 7.5211 21.5451 7.52164 20.4208 7.52155C20.3602 7.52155 20.2996 7.52154 20.2371 7.52154C20.1765 7.52154 20.1158 7.52153 20.0532 7.52153C19.0696 7.52148 18.0859 7.5226 17.1022 7.52425C16.0924 7.52593 15.0825 7.52674 14.0726 7.52664C13.5056 7.5266 12.9386 7.52693 12.3716 7.52819C11.8888 7.52925 11.406 7.52951 10.9232 7.52871C10.6769 7.52833 10.4307 7.52833 10.1844 7.52934C9.95878 7.53026 9.73323 7.5301 9.50765 7.52907C9.42615 7.52889 9.34464 7.52911 9.26314 7.52976C8.73355 7.53372 8.38593 7.49323 7.95662 7.16726C7.59636 6.79998 7.49083 6.53021 7.4707 6.01667C7.48168 5.55369 7.56968 5.20844 7.89825 4.87272C8.4097 4.45334 8.96564 4.42731 9.60524 4.43063Z" fill="black"/>
<path d="M15.1949 22.4703C15.283 22.4697 15.283 22.4697 15.3729 22.4692C15.5685 22.4682 15.7641 22.469 15.9598 22.4697C16.1006 22.4694 16.2413 22.469 16.3821 22.4685C16.724 22.4675 17.0658 22.4676 17.4077 22.4683C17.6857 22.4688 17.9636 22.4689 18.2416 22.4687C18.301 22.4686 18.301 22.4686 18.3617 22.4686C18.4422 22.4685 18.5227 22.4684 18.6033 22.4683C19.3574 22.4677 20.1116 22.4684 20.8658 22.4697C21.5123 22.4707 22.1588 22.4706 22.8054 22.4695C23.557 22.4682 24.3087 22.4677 25.0603 22.4684C25.1405 22.4685 25.2207 22.4686 25.3009 22.4687C25.3601 22.4687 25.3601 22.4687 25.4205 22.4688C25.698 22.469 25.9755 22.4686 26.2531 22.4681C26.6268 22.4674 27.0005 22.4679 27.3743 22.4692C27.5113 22.4695 27.6484 22.4695 27.7855 22.4689C27.9728 22.4683 28.16 22.4691 28.3473 22.4703C28.4285 22.4695 28.4285 22.4695 28.5113 22.4687C28.9571 22.4741 29.3201 22.6052 29.6372 22.9285C30.009 23.3334 30.0321 23.6818 30.0204 24.2224C29.9788 24.6483 29.7986 24.9211 29.4724 25.1953C29.0312 25.5119 28.6864 25.5556 28.1522 25.5551C28.0957 25.5553 28.0391 25.5555 27.9809 25.5557C27.7912 25.5562 27.6016 25.5563 27.412 25.5563C27.2761 25.5566 27.1402 25.5569 27.0043 25.5572C26.6349 25.558 26.2655 25.5584 25.8962 25.5586C25.6653 25.5588 25.4345 25.559 25.2037 25.5593C24.5642 25.56 23.9247 25.5606 23.2852 25.5608C23.2443 25.5608 23.2034 25.5608 23.1612 25.5609C23.1202 25.5609 23.0792 25.5609 23.037 25.5609C22.9539 25.5609 22.8708 25.561 22.7877 25.561C22.7259 25.561 22.7259 25.561 22.6629 25.561C21.9955 25.5612 21.3281 25.5623 20.6607 25.5636C19.9748 25.565 19.289 25.5658 18.6032 25.5658C18.2184 25.5659 17.8335 25.5662 17.4487 25.5673C17.0866 25.5682 16.7246 25.5684 16.3625 25.5679C16.2298 25.5678 16.0971 25.5681 15.9644 25.5686C15.7828 25.5694 15.6012 25.569 15.4197 25.5684C15.3675 25.5689 15.3154 25.5694 15.2617 25.5699C14.6961 25.5654 14.2335 25.435 13.8231 25.037C13.5233 24.678 13.4373 24.285 13.458 23.8241C13.5114 23.3801 13.7115 23.0174 14.0623 22.7344C14.44 22.5201 14.7654 22.4661 15.1949 22.4703Z" fill="black"/>
</g>
<defs>
<clipPath id="clip0_15_351">
<rect width="30" height="30" fill="white"/>
</clipPath>
</defs>
</svg>
