<svg width="50" height="50" viewBox="0 0 50 50" fill="none" xmlns="http://www.w3.org/2000/svg">
<path d="M14.9598 3.87574C15.2641 4.13126 15.5496 4.39638 15.8204 4.6875C15.8855 4.75208 15.9506 4.81666 16.0177 4.8832C17.6122 6.53206 18.0223 8.56089 17.9952 10.7864C17.9475 12.4409 17.2329 14.1075 16.1134 15.332C16.0352 15.4191 15.9571 15.5063 15.8765 15.596C14.5675 16.9827 12.7349 17.932 10.8075 18.0111C10.5966 18.0134 10.3856 18.0135 10.1747 18.0115C10.0633 18.0106 9.95202 18.0097 9.83732 18.0088C8.0518 17.9722 6.31042 17.3317 4.98059 16.1133C4.89234 16.0328 4.8041 15.9524 4.71318 15.8695C3.81059 15.0085 3.18053 14.0549 2.73449 12.8906C2.69597 12.7903 2.65745 12.69 2.61776 12.5866C1.95126 10.5288 2.24013 8.30149 3.20876 6.40433C3.4872 5.88454 3.81322 5.42634 4.19934 4.98047C4.25762 4.90305 4.31591 4.82563 4.37596 4.74587C5.17674 3.79663 6.27552 3.16939 7.42199 2.73438C7.53051 2.69208 7.63902 2.64978 7.75082 2.60621C10.1698 1.81634 12.9496 2.34888 14.9598 3.87574ZM4.00402 10.1563C3.92218 11.6909 4.47387 13.0508 5.45285 14.2204C6.77773 15.6792 8.24476 16.2102 10.1564 16.4063C10.1564 15.8906 10.1564 15.375 10.1564 14.8438C9.95092 14.8196 9.74548 14.7954 9.53381 14.7705C8.21245 14.5776 7.26186 14.0332 6.40309 13.0051C5.77311 12.1316 5.55568 11.2125 5.46887 10.1563C4.98547 10.1563 4.50207 10.1563 4.00402 10.1563Z" fill="black"/>
<path d="M43.3293 5.98437C44.7312 7.12791 45.875 8.70812 46.0936 10.5469C46.2361 12.668 45.964 14.6441 44.5331 16.2997C43.2434 17.7124 41.6372 18.69 39.6918 18.7805C37.6712 18.8383 35.8582 18.4465 34.3321 17.0532C32.8924 15.6724 32.0496 14.0612 31.992 12.0474C31.9689 10.0555 32.4674 8.30281 33.867 6.84344C36.3623 4.34519 40.4214 3.78669 43.3293 5.98437ZM39.0623 6.34767C39.0623 6.83107 39.0623 7.31447 39.0623 7.81251C39.2517 7.83467 39.441 7.85683 39.6361 7.87965C40.6172 8.03306 41.4203 8.43705 42.0897 9.1797C42.6716 9.98269 42.8786 10.7434 42.9686 11.7188C43.452 11.7188 43.9354 11.7188 44.4334 11.7188C44.5098 10.4398 44.1069 9.42408 43.3592 8.39845C43.3164 8.33652 43.2736 8.27458 43.2295 8.21077C42.5576 7.32838 41.4778 6.73934 40.4295 6.44533C40.3338 6.41681 40.3338 6.41681 40.2361 6.38772C39.9956 6.33888 39.7714 6.33834 39.5262 6.34157C39.2966 6.34459 39.2966 6.34459 39.0623 6.34767Z" fill="black"/>
<path d="M27.4412 35.5469C27.5456 35.5932 27.6501 35.6395 27.7578 35.6872C29.3703 36.4764 30.43 37.7761 31.0544 39.4531C31.4745 40.812 31.4544 42.5473 30.8591 43.8476C30.8128 43.9521 30.7665 44.0566 30.7188 44.1643C29.9353 45.7651 28.6294 46.8577 26.9529 47.4609C25.2519 47.9547 23.3793 47.7578 21.834 46.9199C20.3262 46.047 19.3486 44.6649 18.8364 43.0077C18.5353 41.7372 18.5954 40.1553 19.1404 38.9648C19.2099 38.8081 19.2099 38.8081 19.2808 38.6482C20.07 37.0357 21.3696 35.976 23.0466 35.3516C24.4055 34.9315 26.1409 34.9516 27.4412 35.5469ZM22.4447 43.9423C22.3654 44.0238 22.2861 44.1054 22.2043 44.1894C22.1245 44.271 22.0447 44.3526 21.9625 44.4366C21.9013 44.5001 21.8401 44.5635 21.7771 44.6289C22.2252 45.3214 23.0414 45.7434 23.8256 45.9499C25.3149 46.1828 26.6005 45.9836 27.8356 45.0863C28.0483 44.9186 28.0483 44.9186 28.2224 44.6289C27.7874 44.1938 27.7874 44.1938 27.3435 43.75C26.9673 43.9005 26.6225 44.0606 26.2659 44.2478C25.5455 44.5786 24.5725 44.5449 23.8279 44.3115C23.4654 44.1704 23.1679 43.9739 22.8513 43.75C22.6325 43.7281 22.6325 43.7281 22.4447 43.9423Z" fill="black"/>
<path d="M45.9394 38.8191C46.7991 39.4383 47.4451 40.2573 47.6564 41.3086C47.7871 42.5212 47.6833 43.5927 46.9545 44.6045C46.2892 45.3941 45.4782 46.0022 44.4268 46.1155C43.166 46.203 42.1144 46.0501 41.1199 45.2122C40.2881 44.4181 39.8437 43.5734 39.798 42.4184C39.7828 41.1963 40.0579 40.2566 40.9181 39.3555C42.2639 38.0708 44.3464 37.8257 45.9394 38.8191Z" fill="black"/>
<path d="M27.1894 21.6316C28.0491 22.2508 28.6951 23.0698 28.9064 24.1211C29.0371 25.3337 28.9333 26.4052 28.2045 27.417C27.5392 28.2066 26.7282 28.8147 25.6768 28.928C24.416 29.0155 23.3644 28.8626 22.3699 28.0247C21.5381 27.2306 21.0937 26.3859 21.048 25.2309C21.0328 24.0088 21.3079 23.0691 22.1681 22.168C23.5139 20.8833 25.5964 20.6382 27.1894 21.6316Z" fill="black"/>
<path d="M8.58295 40.1115C9.39786 40.5975 9.90462 41.2701 10.1561 42.1875C10.2536 43.2715 10.1903 44.2124 9.49695 45.0989C8.94445 45.6905 8.2563 46.0538 7.4477 46.1266C6.3999 46.1501 5.53627 46.0279 4.73926 45.2835C4.01723 44.4804 3.84931 43.6295 3.87562 42.577C3.92194 41.7581 4.27476 41.0739 4.8827 40.5274C5.9314 39.7387 7.37944 39.534 8.58295 40.1115Z" fill="black"/>
<path d="M42.1767 27.6115C42.9916 28.0975 43.4984 28.7701 43.7499 29.6875C43.8474 30.7715 43.784 31.7124 43.0907 32.5989C42.5382 33.1905 41.8501 33.5538 41.0414 33.6266C39.9936 33.6501 39.13 33.5279 38.333 32.7835C37.611 31.9804 37.4431 31.1295 37.4694 30.077C37.5157 29.2581 37.8685 28.5739 38.4764 28.0274C39.5251 27.2387 40.9732 27.034 42.1767 27.6115Z" fill="black"/>
<path d="M13.2705 25.2678C14.0854 25.7537 14.5921 26.4263 14.8436 27.3438C14.9411 28.4277 14.8778 29.3686 14.1845 30.2551C13.6319 30.8467 12.9438 31.2101 12.1352 31.2828C11.0874 31.3064 10.2238 31.1841 9.42676 30.4398C8.70473 29.6367 8.53681 28.7857 8.56312 27.7332C8.60944 26.9143 8.96226 26.2302 9.5702 25.6836C10.6189 24.895 12.0669 24.6903 13.2705 25.2678Z" fill="black"/>
<path d="M26.5517 9.6428C27.3666 10.1287 27.8734 10.8013 28.1249 11.7188C28.2224 12.8027 28.159 13.7436 27.4657 14.6301C26.9132 15.2217 26.2251 15.5851 25.4164 15.6578C24.3686 15.6814 23.505 15.5591 22.708 14.8148C21.986 14.0117 21.8181 13.1607 21.8444 12.1082C21.8907 11.2893 22.2435 10.6052 22.8514 10.0586C23.9001 9.26998 25.3482 9.06527 26.5517 9.6428Z" fill="black"/>
<path d="M30.2734 25.9766C31.0163 26.1711 31.738 26.3956 32.4608 26.6544C32.5622 26.6904 32.6635 26.7264 32.768 26.7634C33.0881 26.8772 33.4081 26.9914 33.728 27.1057C33.9448 27.1827 34.1616 27.2597 34.3784 27.3367C34.5856 27.4103 34.7927 27.484 34.9998 27.5578C35.1448 27.6093 35.1448 27.6093 35.2927 27.662C35.383 27.6942 35.4734 27.7265 35.5665 27.7598C35.6849 27.802 35.6849 27.802 35.8057 27.8451C36.0469 27.934 36.2853 28.0285 36.5234 28.125C36.4586 28.4619 36.3864 28.7946 36.2976 29.126C36.2649 29.2536 36.2649 29.2536 36.2316 29.3839C36.1328 29.5898 36.1328 29.5898 35.9643 29.6612C35.6748 29.6955 35.4893 29.6287 35.2141 29.5329C35.1085 29.4967 35.0029 29.4605 34.8941 29.4232C34.7804 29.383 34.6668 29.3428 34.5497 29.3015C34.4324 29.2608 34.3152 29.2202 34.1943 29.1783C33.9461 29.0921 33.698 29.0055 33.4501 28.9182C33.1337 28.8068 32.8169 28.6966 32.4999 28.5869C32.1963 28.4818 31.8929 28.3759 31.5895 28.27C31.4763 28.2306 31.363 28.1912 31.2464 28.1506C31.1401 28.1132 31.0339 28.0757 30.9245 28.0372C30.8315 28.0046 30.7386 27.972 30.6428 27.9384C30.3492 27.8234 30.0672 27.6801 29.7852 27.5391C29.9463 27.0234 30.1074 26.5078 30.2734 25.9766Z" fill="black"/>
<path d="M17.2852 16.1133C17.8435 16.5773 18.3571 17.0748 18.8686 17.5896C18.9522 17.6733 19.0358 17.757 19.1219 17.8432C19.3867 18.1086 19.6513 18.3744 19.9158 18.6401C20.0961 18.821 20.2765 19.0018 20.4569 19.1826C20.8973 19.6241 21.3374 20.0658 21.7773 20.5078C21.6097 20.8777 21.4133 21.038 21.0938 21.2891C20.9596 21.4486 20.8282 21.6106 20.7031 21.7773C20.3623 21.6313 20.1431 21.4363 19.8827 21.1744C19.7986 21.0903 19.7146 21.0063 19.628 20.9197C19.5382 20.8288 19.4483 20.738 19.3558 20.6444C19.2622 20.5505 19.1686 20.4566 19.075 20.3628C18.8293 20.1163 18.5841 19.8692 18.3391 19.622C18.0887 19.3696 17.8378 19.1178 17.5869 18.866C17.0951 18.3721 16.604 17.8777 16.1133 17.3828C16.207 17.2729 16.3008 17.163 16.3947 17.0532C16.4469 16.992 16.4991 16.9308 16.5529 16.8678C16.7839 16.6017 17.0332 16.3593 17.2852 16.1133Z" fill="black"/>
<path d="M32.2266 16.6992C32.4097 16.8991 32.4097 16.8991 32.6172 17.1631C32.6857 17.2492 32.7542 17.3353 32.8247 17.424C33.0078 17.6758 33.0078 17.6758 33.2031 18.0664C31.9785 19.291 30.7539 20.5156 29.4922 21.7773C29.0891 21.5758 28.9807 21.437 28.7109 21.0938C28.5514 20.9596 28.3894 20.8282 28.2227 20.7031C28.361 20.3894 28.5272 20.1786 28.7687 19.9365C28.8404 19.8642 28.9121 19.7918 28.986 19.7173C29.0634 19.6403 29.1408 19.5633 29.2206 19.4839C29.3398 19.3645 29.3398 19.3645 29.4614 19.2426C29.6293 19.0746 29.7974 18.9068 29.9657 18.7393C30.2243 18.4818 30.4818 18.2232 30.7392 17.9646C30.9023 17.8016 31.0654 17.6387 31.2286 17.4759C31.3448 17.3592 31.3448 17.3592 31.4632 17.2401C31.5349 17.169 31.6066 17.0979 31.6805 17.0247C31.7437 16.9617 31.8068 16.8987 31.8719 16.8338C32.0312 16.6992 32.0312 16.6992 32.2266 16.6992Z" fill="black"/>
<path d="M19.629 25.3906C19.6783 25.5939 19.727 25.7974 19.7755 26.001C19.8026 26.1143 19.8298 26.2276 19.8579 26.3443C19.9219 26.6602 19.9219 26.6602 19.9219 27.0508C19.1392 27.265 18.3549 27.4711 17.566 27.6611C17.4967 27.6782 17.4274 27.6953 17.356 27.7129C17.0002 27.7973 16.6746 27.852 16.3087 27.832C16.2567 27.6289 16.2061 27.4253 16.1561 27.2217C16.1277 27.1084 16.0994 26.9951 16.0702 26.8784C16.0185 26.5789 16.03 26.4521 16.1133 26.1719C16.5826 26.0603 17.0519 25.9491 17.5212 25.8381C17.6809 25.8003 17.8406 25.7624 18.0003 25.7244C18.2296 25.6699 18.4589 25.6157 18.6883 25.5615C18.7599 25.5444 18.8315 25.5273 18.9053 25.5097C19.4114 25.3906 19.4114 25.3906 19.629 25.3906Z" fill="black"/>
<path d="M24.2188 30.3711C24.7344 30.3711 25.25 30.3711 25.7812 30.3711C25.7812 31.4668 25.7812 32.5625 25.7812 33.6914C25.2656 33.6914 24.75 33.6914 24.2188 33.6914C24.2188 32.5957 24.2188 31.5 24.2188 30.3711Z" fill="black"/>
<path d="M24.2188 17.0898C24.7344 17.0898 25.25 17.0898 25.7812 17.0898C25.7812 17.9277 25.7812 18.7656 25.7812 19.6289C25.2656 19.6289 24.75 19.6289 24.2188 19.6289C24.2188 18.791 24.2188 17.9531 24.2188 17.0898Z" fill="black"/>
</svg>
