<svg width="50" height="50" viewBox="0 0 50 50" fill="none" xmlns="http://www.w3.org/2000/svg">
<path d="M18.3107 13.3789C18.835 13.6803 19.1661 14.113 19.4338 14.6484C20.0138 14.6807 20.5939 14.7129 21.1916 14.7461C21.2238 14.6172 21.256 14.4883 21.2892 14.3555C21.6177 13.738 22.1001 13.4016 22.7541 13.1836C23.5257 13.1238 24.2734 13.069 24.9025 13.5742C25.5066 14.1495 25.802 14.6635 25.8749 15.4957C25.8887 16.2408 25.5658 16.8179 25.0978 17.3828C24.4397 17.9176 23.7781 18.0497 22.9494 17.9687C22.2411 17.8174 21.7085 17.4078 21.2953 16.8213C21.1916 16.6016 21.1916 16.6016 21.1916 16.4062C20.5793 16.4062 19.967 16.4062 19.3361 16.4062C19.2717 16.5996 19.2072 16.793 19.1408 16.9922C18.9646 17.1955 18.9646 17.1955 18.7624 17.3645C18.663 17.45 18.663 17.45 18.5617 17.5373C18.3595 17.6758 18.3595 17.6758 17.9689 17.7734C17.9689 18.8691 17.9689 19.9648 17.9689 21.0937C18.2912 21.1904 18.6134 21.2871 18.9455 21.3867C19.957 21.9094 20.6188 22.7668 20.9963 23.8281C21.1104 24.2269 21.1047 24.6127 21.1 25.0244C21.0996 25.0972 21.0991 25.1699 21.0987 25.2449C21.0975 25.4237 21.0958 25.6025 21.0939 25.7812C21.1526 25.798 21.2113 25.8149 21.2718 25.8322C21.8875 26.0121 22.4867 26.2207 23.086 26.4488C23.1793 26.4841 23.2727 26.5194 23.3689 26.5557C23.5651 26.6299 23.7612 26.7043 23.9573 26.7788C24.2539 26.8915 24.5507 27.0036 24.8476 27.1156C25.7838 27.4698 26.7178 27.8256 27.6369 28.2227C27.6664 28.1306 27.6959 28.0386 27.7264 27.9438C28.0702 26.9461 28.9015 26.4325 29.796 25.967C30.6649 25.605 31.8522 25.6472 32.7333 25.9521C33.116 26.1166 33.457 26.3093 33.7892 26.5625C33.8678 26.6149 33.9463 26.6672 34.0273 26.7212C34.2759 26.9516 34.4433 27.1774 34.6349 27.4559C34.6961 27.5444 34.7573 27.633 34.8204 27.7242C34.8668 27.792 34.9133 27.8598 34.9611 27.9297C35.4324 27.7578 35.9014 27.581 36.369 27.3992C36.5281 27.3382 36.6879 27.2785 36.8481 27.2203C37.7608 26.934 37.7608 26.934 38.4199 26.3131C38.4644 26.0656 38.4748 25.8367 38.4767 25.5859C38.8071 24.9445 39.3501 24.4408 40.0392 24.2187C40.397 24.1962 40.397 24.1962 40.7839 24.2004C40.912 24.2011 41.0402 24.2017 41.1722 24.2023C41.5041 24.2187 41.5041 24.2187 41.797 24.3164C42.2186 23.9142 42.6374 23.5095 43.0541 23.1023C43.1962 22.9641 43.3389 22.8267 43.4824 22.69C43.6886 22.4933 43.8922 22.2941 44.0954 22.0943C44.16 22.0338 44.2246 21.9732 44.2911 21.9108C44.4601 21.7421 44.6032 21.5912 44.7267 21.3867C44.7348 21.0203 44.7348 21.0203 44.6291 20.7031C44.5584 20.0205 44.6682 19.4433 45.0197 18.8477C45.4768 18.3191 46.0292 17.9196 46.7386 17.844C47.5093 17.8175 48.0943 17.9507 48.7062 18.4265C49.2899 18.9768 49.4384 19.4617 49.4631 20.2637C49.4359 21.1184 49.2648 21.5741 48.6452 22.1558C48.1503 22.5865 47.6548 22.6829 47.0094 22.6746C46.9014 22.6739 46.7934 22.6733 46.6821 22.6726C46.3869 22.6562 46.3869 22.6562 46.1928 22.5909C45.9942 22.5365 45.9942 22.5365 45.8374 22.6541C45.7602 22.7299 45.7602 22.7299 45.6814 22.8071C45.6225 22.8639 45.5635 22.9207 45.5028 22.9792C45.4404 23.0419 45.3781 23.1047 45.3138 23.1693C45.2491 23.2331 45.1844 23.2969 45.1177 23.3626C44.9811 23.498 44.8451 23.6341 44.7097 23.7707C44.502 23.9796 44.2914 24.1851 44.0803 24.3906C43.9481 24.5225 43.816 24.6545 43.6842 24.7868C43.6208 24.8481 43.5574 24.9095 43.4922 24.9727C43.3303 25.1389 43.1885 25.2909 43.0666 25.4883C43.0598 25.8055 43.0598 25.8055 43.1642 26.0742C43.2184 26.7392 43.1346 27.2211 42.8713 27.832C42.7583 28.1087 42.7663 28.2027 42.871 28.4898C42.9219 28.5915 42.9729 28.6931 43.0254 28.7979C43.0819 28.9126 43.1385 29.0272 43.1968 29.1453C43.2273 29.2059 43.2579 29.2665 43.2894 29.3289C43.4167 29.5815 43.5414 29.8353 43.6662 30.0891C43.7301 30.2189 43.794 30.3486 43.8581 30.4782C44.1704 31.1111 44.4692 31.7498 44.7634 32.3914C44.8092 32.4904 44.8551 32.5894 44.9023 32.6915C44.9438 32.7821 44.9853 32.8728 45.0281 32.9662C45.0644 33.0454 45.1007 33.1245 45.1381 33.2061C45.215 33.3984 45.215 33.3984 45.215 33.5937C45.3077 33.5857 45.4003 33.5776 45.4958 33.5693C46.1665 33.5734 46.7749 33.8528 47.2597 34.3079C47.844 34.9638 47.9078 35.5245 47.8849 36.3892C47.8175 37.0586 47.5639 37.428 47.0766 37.8784C46.49 38.3529 45.8662 38.5327 45.1097 38.456C44.3825 38.3042 43.8361 37.9593 43.4145 37.3474C43.0486 36.7721 42.9946 36.2193 43.0666 35.5469C43.204 35.085 43.3853 34.6781 43.6525 34.2773C43.5674 34.0326 43.4753 33.8183 43.3607 33.5876C43.3281 33.5193 43.2954 33.4509 43.2618 33.3805C43.1553 33.158 43.0469 32.9364 42.9384 32.7148C42.8655 32.5635 42.7927 32.412 42.72 32.2605C42.5765 31.9619 42.4324 31.6636 42.2877 31.3656C42.0402 30.8552 41.7994 30.3417 41.559 29.8279C41.3794 29.3862 41.3794 29.3862 41.1134 29.0039C41.0027 29.0099 40.8919 29.016 40.7778 29.0222C40.2589 29.0297 39.8101 28.8547 39.3556 28.6133C39.3099 28.5585 39.2642 28.5038 39.2172 28.4473C39.0625 28.2899 39.0625 28.2899 38.8046 28.3432C38.4385 28.4267 38.1069 28.5559 37.7641 28.7052C37.6982 28.7333 37.6323 28.7613 37.5644 28.7902C37.3556 28.8791 37.1471 28.9689 36.9386 29.0588C36.7288 29.149 36.5188 29.239 36.3087 29.3285C36.1783 29.3841 36.0481 29.4401 35.9181 29.4964C35.4712 29.6875 35.4712 29.6875 35.2541 29.6875C35.2621 29.8104 35.2702 29.9332 35.2785 30.0598C35.2752 31.0947 34.7721 31.9045 34.0788 32.6298C33.4662 33.2164 32.8462 33.4877 32.0314 33.6914C31.7092 34.8516 31.3869 36.0117 31.0549 37.207C31.1838 37.2715 31.3127 37.3359 31.4455 37.4023C31.6084 37.5999 31.6084 37.5999 31.7568 37.8296C31.8065 37.9049 31.8562 37.9801 31.9074 38.0577C32.1978 38.5812 32.1964 39.1614 32.1291 39.7461C31.8891 40.4981 31.4645 41.0357 30.7707 41.4089C30.1026 41.6971 29.4785 41.6887 28.7966 41.449C28.1852 41.1789 27.7309 40.7782 27.4477 40.1672C27.3439 39.8437 27.3439 39.8437 27.3439 39.4531C27.2433 39.4231 27.2433 39.4231 27.1406 39.3925C27.0086 39.353 27.0086 39.353 26.8739 39.3127C26.7867 39.2867 26.6995 39.2606 26.6096 39.2338C26.4304 39.1793 26.2521 39.1217 26.0744 39.0625C25.8716 39.1707 25.8716 39.1707 25.6655 39.331C24.7946 39.9403 23.8212 40.1732 22.7674 39.9906C21.6281 39.7344 20.7097 39.2418 20.0502 38.2629C19.4415 37.253 19.281 36.2527 19.4795 35.0815C19.7495 34.0594 20.3272 33.224 21.1916 32.6172C22.226 32.0467 23.2604 31.866 24.4333 32.0911C25.4307 32.3867 26.2956 32.9486 26.835 33.8512C27.5048 35.1583 27.5404 36.1983 27.1486 37.5977C27.4223 37.6758 27.4223 37.6758 27.7345 37.6953C27.9539 37.5683 27.9539 37.5683 28.1313 37.3718C28.5483 36.9731 28.8062 36.8164 29.3947 36.8164C29.4053 36.7602 29.4158 36.704 29.4267 36.6461C29.5593 35.9601 29.7232 35.2841 29.8952 34.6069C29.9223 34.4996 29.9493 34.3922 29.9772 34.2815C30.0432 34.0197 30.1095 33.7579 30.1759 33.4961C30.0882 33.4853 30.0005 33.4744 29.9101 33.4633C29.1721 33.3138 28.4807 32.7184 28.0275 32.1289C27.5821 31.3637 27.3269 30.769 27.3439 29.8828C27.2803 29.8729 27.2167 29.8629 27.1512 29.8527C26.764 29.7642 26.4034 29.6268 26.0324 29.4861C25.9524 29.456 25.8724 29.426 25.7899 29.3951C25.5306 29.2976 25.2715 29.1996 25.0124 29.1016C24.8348 29.0348 24.6573 28.968 24.4797 28.9013C23.4281 28.5052 22.3785 28.1046 21.3381 27.6796C21.258 27.6475 21.1779 27.6153 21.0954 27.5822C21.0283 27.5547 20.9611 27.5272 20.8918 27.4988C20.6739 27.4224 20.6739 27.4224 20.3127 27.4414C20.203 27.5777 20.0937 27.7143 19.9865 27.8526C19.2526 28.6436 18.2047 28.9978 17.151 29.0466C15.913 29.0059 14.8733 28.4937 14.0321 27.6062C13.1643 26.5827 13.0779 25.4138 13.1838 24.1211C13.4042 23.0416 14.0703 22.2273 14.9416 21.582C15.4097 21.2917 15.7521 21.1865 16.3088 21.0937C16.3088 19.998 16.3088 18.9023 16.3088 17.7734C16.1799 17.7412 16.0509 17.709 15.9181 17.6758C15.3725 17.3081 14.9185 16.8571 14.7463 16.2109C14.6322 15.3634 14.7291 14.6654 15.2345 13.9648C16.0334 13.0895 17.2199 12.8873 18.3107 13.3789ZM16.559 15.0024C16.3616 15.3026 16.3549 15.467 16.4064 15.8203C16.5031 16.0551 16.5031 16.0551 16.6994 16.2109C17.0042 16.3017 17.1993 16.3349 17.505 16.2415C17.7196 16.0806 17.7926 15.98 17.8713 15.7227C17.8529 15.4232 17.8186 15.2118 17.6637 14.9536C17.286 14.727 16.9168 14.7639 16.559 15.0024ZM22.7541 15.1367C22.6397 15.416 22.6397 15.416 22.6564 15.7227C22.8437 16.0598 22.9704 16.1832 23.3339 16.3147C23.6415 16.3306 23.6415 16.3306 23.9137 16.1621C24.1502 15.9267 24.1502 15.9267 24.1762 15.5762C24.1457 15.2353 24.1457 15.2353 23.9626 14.9963C23.5309 14.7123 23.1022 14.7499 22.7541 15.1367ZM46.4845 19.7266C46.3181 19.9564 46.2872 20.077 46.3014 20.3613C46.4088 20.6681 46.5147 20.8043 46.7775 20.9961C47.1326 21.0553 47.2934 21.0421 47.5954 20.8435C47.8165 20.5118 47.8168 20.3124 47.7541 19.9219C47.5464 19.6727 47.5464 19.6727 47.2658 19.5312C46.8977 19.5312 46.7768 19.5317 46.4845 19.7266ZM15.1369 23.7305C14.7799 24.3177 14.7663 24.9171 14.8439 25.5859C15.0192 26.2365 15.4668 26.6819 16.0158 27.0508C16.5991 27.3517 17.1391 27.4098 17.7736 27.2461C18.5219 26.9925 18.9417 26.5235 19.3239 25.8484C19.5269 25.1831 19.5232 24.6374 19.2323 23.999C18.8872 23.3832 18.4812 23.0086 17.8163 22.7661C16.7513 22.4667 15.8038 22.8598 15.1369 23.7305ZM40.1918 26.0376C39.9932 26.3395 39.98 26.5004 40.0392 26.8555C40.2279 27.1139 40.3728 27.2227 40.6679 27.3437C40.9334 27.3644 40.9334 27.3644 41.1867 27.1912C41.4529 26.9028 41.5121 26.7587 41.5041 26.3672C41.3731 26.0733 41.3731 26.0733 41.1134 25.8789C40.7229 25.8161 40.5235 25.8165 40.1918 26.0376ZM29.4435 28.3203C29.0099 28.9455 28.919 29.5245 29.0041 30.2734C29.2441 31.0427 29.7889 31.5285 30.4689 31.9336C31.1725 32.1514 31.8707 32.0765 32.5197 31.7383C33.0852 31.3724 33.3794 30.9117 33.5939 30.2734C33.7315 29.4946 33.5499 28.8691 33.1056 28.2227C32.7077 27.7668 32.1868 27.4905 31.5881 27.4067C30.7125 27.3611 29.9922 27.6188 29.4435 28.3203ZM21.5242 34.6542C21.1605 35.2078 21.0011 35.7648 21.0939 36.4258C21.2465 37.0885 21.593 37.6262 22.1536 38.0165C22.691 38.3141 23.2543 38.4554 23.8634 38.3324C24.6757 38.0843 25.1519 37.7145 25.5666 36.9709C25.8282 36.4077 25.8234 35.8745 25.6696 35.2772C25.4313 34.6535 24.9974 34.2026 24.4142 33.8867C23.3352 33.4176 22.2399 33.7428 21.5242 34.6542ZM44.922 35.5469C44.6959 35.822 44.6959 35.822 44.745 36.1328C44.8382 36.4973 44.8382 36.4973 45.1174 36.7187C45.5012 36.7676 45.7131 36.7773 46.039 36.5601C46.2376 36.2581 46.2508 36.0973 46.1916 35.7422C46.0162 35.5104 45.8724 35.3861 45.6117 35.26C45.3125 35.2509 45.1589 35.3723 44.922 35.5469ZM29.1567 38.6352C28.958 38.9372 28.9449 39.098 29.0041 39.4531C29.1927 39.7116 29.3376 39.8203 29.6327 39.9414C29.8982 39.962 29.8982 39.962 30.1515 39.7888C30.4177 39.5005 30.4769 39.3564 30.4689 38.9648C30.3379 38.6709 30.3379 38.6709 30.0783 38.4766C29.6878 38.4138 29.4883 38.4141 29.1567 38.6352Z" fill="black"/>
<path d="M9.10285 8.83217C9.68333 9.29721 9.99925 9.79477 10.0954 10.5362C10.1266 11.2955 10.1266 11.2955 9.94694 11.6408C9.68736 12.139 9.68736 12.139 9.75516 12.6789C9.91481 12.9739 10.0893 13.2485 10.2785 13.5254C10.4014 13.7155 10.524 13.9057 10.6463 14.0961C10.7019 14.1788 10.7576 14.2616 10.815 14.3469C10.9377 14.5508 10.9377 14.5508 10.9377 14.7461C11.0525 14.7542 11.1673 14.7622 11.2856 14.7705C11.9922 14.8627 12.4192 15.2078 12.8653 15.7345C13.3006 16.3827 13.2581 17.1228 13.1838 17.8711C12.9759 18.5566 12.5201 18.9799 11.9143 19.3359C11.6208 19.4794 11.4204 19.5419 11.0945 19.5042C10.615 19.4541 10.3061 19.4629 9.92415 19.7697C9.62762 20.0334 9.35245 20.315 9.08225 20.6055C9.1389 20.6802 9.1389 20.6802 9.19669 20.7565C9.96577 21.8302 10.1884 22.9201 10.0588 24.2188C9.83445 25.2347 9.26457 26.1691 8.39865 26.7578C7.33728 27.3925 6.30145 27.5908 5.09055 27.3377C4.03934 27.0511 3.17415 26.4176 2.61328 25.481C2.0785 24.4564 1.98913 23.3667 2.21236 22.2359C2.46491 21.4706 2.94361 20.8691 3.51584 20.3125C3.33881 19.6942 3.13806 19.0914 2.9074 18.491C2.83225 18.2617 2.83225 18.2617 2.83225 17.9688C2.77082 17.9615 2.70938 17.9542 2.64609 17.9466C1.8932 17.831 1.38291 17.5958 0.917651 16.98C0.489578 16.2509 0.436413 15.4213 0.64757 14.6069C0.903782 14.0152 1.41502 13.5516 1.98538 13.2645C2.62768 13.0654 3.44433 13.0586 4.05905 13.3484C4.66357 13.717 5.12318 14.2521 5.33164 14.9365C5.46206 15.5948 5.39403 16.2041 5.07834 16.7969C4.97144 16.9156 4.86357 17.0334 4.75485 17.1505C4.56886 17.394 4.4874 17.5061 4.50885 17.815C4.58841 18.0722 4.68554 18.3099 4.79758 18.5547C4.85045 18.6822 4.85045 18.6822 4.90439 18.8122C4.9916 19.021 5.08207 19.2277 5.176 19.4336C5.27859 19.4325 5.38119 19.4313 5.48689 19.4302C5.62537 19.4293 5.76384 19.4284 5.90232 19.4275C5.97422 19.4265 6.04612 19.4256 6.12021 19.4246C6.504 19.4223 6.83499 19.447 7.20847 19.5435C7.54377 19.5961 7.62419 19.5263 7.90885 19.3203C8.18555 19.0796 8.44051 18.8218 8.69162 18.5547C8.67047 18.4944 8.64932 18.4341 8.62754 18.372C8.33039 17.4681 8.29206 16.8177 8.67636 15.9351C8.80867 15.6862 8.95802 15.5064 9.1799 15.332C8.96314 14.6136 8.64101 13.8247 8.10568 13.2813C7.78509 13.1678 7.55141 13.1638 7.21343 13.1771C6.70837 13.1888 6.3531 12.973 5.98509 12.6427C5.496 12.1189 5.26559 11.5666 5.23093 10.8521C5.2592 10.1159 5.48576 9.50224 6.02439 8.99048C6.94851 8.26218 8.10971 8.18471 9.10285 8.83217ZM7.12912 10.2539C6.94143 10.5042 6.93281 10.6281 6.95212 10.9436C7.04698 11.3039 7.04698 11.3039 7.32443 11.5234C7.66208 11.5886 7.66208 11.5886 8.00803 11.5234C8.26959 11.3348 8.26959 11.3348 8.39865 11.0352C8.42347 10.6799 8.42347 10.6799 8.301 10.3516C7.8958 10.021 7.57348 9.96723 7.12912 10.2539ZM2.405 15.0024C2.19989 15.3022 2.19427 15.4634 2.24631 15.8203C2.39656 16.1292 2.49407 16.1952 2.82004 16.3086C3.13404 16.334 3.13404 16.334 3.39987 16.1499C3.63778 15.8916 3.71115 15.7794 3.71115 15.4297C3.54014 15.0671 3.54014 15.0671 3.22287 14.8438C2.87309 14.8057 2.69916 14.8012 2.405 15.0024ZM10.1565 16.7969C10.043 17.0306 10.043 17.0306 10.0588 17.2852C10.2475 17.6173 10.3757 17.7468 10.7363 17.8772C11.0439 17.8931 11.0439 17.8931 11.3161 17.7246C11.5525 17.4892 11.5525 17.4892 11.5786 17.1387C11.5481 16.7978 11.5481 16.7978 11.365 16.5588C10.8776 16.2382 10.492 16.3371 10.1565 16.7969ZM4.23911 21.9883C3.78137 22.5872 3.71956 23.1974 3.80881 23.9258C3.98508 24.6242 4.37829 25.1023 4.98068 25.4883C5.5847 25.7878 6.12244 25.8281 6.77664 25.6756C7.51355 25.4163 7.95956 24.906 8.301 24.2188C8.4919 23.646 8.47143 23.0546 8.25217 22.4915C7.94719 21.8847 7.45444 21.4582 6.83005 21.1975C5.8479 20.8924 4.91332 21.2362 4.23911 21.9883Z" fill="black"/>
</svg>
