<svg width="24" height="24" viewBox="0 0 24 24" fill="none" xmlns="http://www.w3.org/2000/svg">
<g clip-path="url(#clip0_15_355)">
<path d="M4.59088 2.37291C4.65468 2.40946 4.71813 2.44663 4.78131 2.48424C4.80982 2.50029 4.83834 2.51634 4.86771 2.53288C5.26304 2.77414 5.57454 3.11561 5.89935 3.44133C5.96625 3.50802 6.03318 3.5747 6.10012 3.64136C6.2399 3.78072 6.37941 3.92034 6.51875 4.06015C6.69633 4.23827 6.87464 4.41563 7.05318 4.5928C7.19145 4.73021 7.32928 4.86805 7.46699 5.00603C7.53251 5.07156 7.59817 5.13694 7.66399 5.20218C8.18972 5.72389 8.70585 6.24814 8.73639 7.03111C8.70887 7.73548 8.28131 8.19429 7.79925 8.66588C7.75717 8.70765 7.71509 8.74943 7.67173 8.79246C7.56118 8.9021 7.45035 9.01144 7.33935 9.12062C7.18201 9.2755 7.02515 9.43087 6.86834 9.58628C6.78507 9.66875 6.70166 9.75108 6.6181 9.83325C6.58068 9.8702 6.54327 9.90716 6.50472 9.94524C6.47167 9.97776 6.43862 10.0103 6.40457 10.0438C6.30681 10.1475 6.28331 10.1994 6.26849 10.342C6.28453 10.5395 6.35343 10.6937 6.43951 10.869C6.46463 10.9211 6.46463 10.9211 6.49025 10.9742C6.89161 11.7865 7.43312 12.5279 8.01568 13.2186C8.05611 13.2672 8.09651 13.3159 8.1369 13.3645C8.59099 13.9095 9.0737 14.4212 9.57428 14.9237C9.61364 14.9633 9.653 15.0029 9.69356 15.0436C10.6747 16.0222 11.8101 16.8287 13.0284 17.4842C13.0706 17.5074 13.1128 17.5305 13.1563 17.5544C13.1967 17.5757 13.2371 17.597 13.2787 17.619C13.3325 17.6478 13.3325 17.6478 13.3874 17.6772C13.5294 17.7294 13.6305 17.7323 13.7813 17.7186C13.8896 17.6497 13.8896 17.6497 13.9822 17.5474C14.0192 17.51 14.0561 17.4726 14.0942 17.434C14.1333 17.393 14.1724 17.352 14.2127 17.3097C14.2539 17.2679 14.295 17.226 14.3374 17.1828C14.4468 17.0713 14.5557 16.9593 14.6642 16.8468C14.8161 16.6896 14.9686 16.5331 15.1216 16.3771C15.2029 16.2941 15.2838 16.2107 15.3643 16.1269C15.8228 15.6571 16.3125 15.2854 16.9893 15.2547C17.8579 15.2867 18.4348 15.982 19.0084 16.555C19.0732 16.6194 19.1379 16.6839 19.2027 16.7483C19.3377 16.8828 19.4725 17.0174 19.6072 17.1522C19.7788 17.3238 19.9511 17.4948 20.1235 17.6656C20.2572 17.7982 20.3905 17.9313 20.5237 18.0646C20.587 18.1278 20.6504 18.1908 20.714 18.2537C21.713 19.2422 21.713 19.2422 21.7208 19.9803C21.709 20.7341 21.2653 21.2258 20.7534 21.7356C20.7067 21.7825 20.66 21.8295 20.6133 21.8764C20.5159 21.9743 20.4182 22.0719 20.3203 22.1693C20.1961 22.293 20.0726 22.4174 19.9494 22.542C19.8532 22.639 19.7566 22.7356 19.6599 22.832C19.6143 22.8777 19.5688 22.9234 19.5234 22.9694C19.1415 23.3556 18.7399 23.6794 18.2198 23.8534C18.1668 23.8716 18.1138 23.8899 18.0592 23.9087C17.2286 24.1494 16.2113 24.0472 15.3751 23.8592C15.3405 23.8517 15.3059 23.8441 15.2703 23.8364C12.4863 23.2118 9.80624 21.5519 7.64068 19.7342C7.59216 19.694 7.54364 19.6537 7.49511 19.6134C7.17786 19.3488 6.871 19.0749 6.56915 18.7929C6.47393 18.704 6.37788 18.6162 6.28057 18.5296C6.06081 18.3335 5.85551 18.1376 5.66607 17.9122C5.55621 17.7874 5.4387 17.6711 5.32037 17.5546C5.11487 17.3512 4.92154 17.142 4.73443 16.9217C4.69365 16.8752 4.65286 16.8287 4.61084 16.7807C4.24141 16.3581 3.89847 15.9182 3.56256 15.4686C3.53964 15.4381 3.51672 15.4075 3.49311 15.3761C2.26998 13.7432 1.22891 11.9382 0.556583 10.0078C0.520764 9.90506 0.483804 9.80289 0.446285 9.70079C0.152208 8.87195 -0.00820273 8.02366 -0.0116622 7.14537C-0.012629 7.08528 -0.0135958 7.02519 -0.0145919 6.96327C-0.0167476 6.42948 0.0420477 5.90641 0.287166 5.42565C0.311457 5.3761 0.335747 5.32655 0.360774 5.2755C0.604438 4.86373 0.999538 4.52349 1.33416 4.18584C1.375 4.14462 1.41584 4.10341 1.45792 4.06094C1.54364 3.97457 1.62944 3.88827 1.7153 3.80204C1.80231 3.71448 1.88912 3.62671 1.97572 3.53873C2.10222 3.41022 2.22935 3.28234 2.35662 3.15459C2.39468 3.11571 2.43273 3.07684 2.47194 3.03679C3.0266 2.48418 3.79495 2.03542 4.59088 2.37291Z" fill="black"/>
<path d="M12.4713 -0.000976562C15.1569 0.196165 17.8526 1.64395 19.7812 3.46869C19.8282 3.51114 19.8754 3.55344 19.9226 3.59558C21.3697 4.88849 22.4607 6.55996 23.2031 8.34369C23.2176 8.37774 23.2322 8.41179 23.2471 8.44687C23.6119 9.30583 24.0085 10.3556 24 11.2968C23.7858 11.3372 23.5715 11.3773 23.3571 11.417C23.2843 11.4305 23.2115 11.4442 23.1388 11.4579C23.0337 11.4777 22.9287 11.4972 22.8235 11.5165C22.7914 11.5227 22.7593 11.5288 22.7261 11.5352C22.5234 11.5721 22.3309 11.5837 22.125 11.5781C22.1123 11.5251 22.1123 11.5251 22.0993 11.471C21.5683 9.26739 20.6951 7.0786 19.0243 5.47571C18.9375 5.39056 18.9375 5.39056 18.8408 5.26752C18.7315 5.13349 18.6084 5.02757 18.477 4.91559C18.4114 4.85933 18.3468 4.80203 18.2833 4.74347C17.7267 4.23053 17.1024 3.80742 16.4531 3.42181C16.4234 3.40388 16.3937 3.38595 16.3632 3.36748C15.2465 2.69593 14.0174 2.29181 12.75 2.01556C12.7148 2.00782 12.6796 2.00008 12.6433 1.9921C12.4603 1.95198 12.2771 1.9131 12.0938 1.87494C12.3141 0.000517964 12.3141 0.000517973 12.4713 -0.000976562Z" fill="black"/>
<path d="M12.0938 4.78125C13.5116 4.8812 14.9202 5.4984 16.0312 6.375C16.0565 6.39486 16.0817 6.41471 16.1077 6.43517C17.0081 7.15333 17.7233 7.99251 18.2812 9C18.2972 9.02821 18.3131 9.05642 18.3295 9.08549C18.5495 9.47939 18.7133 9.88551 18.8584 10.3125C18.8737 10.3569 18.8889 10.4014 18.9046 10.4472C19.0308 10.8335 19.1035 11.2252 19.1719 11.625C18.9434 11.6654 18.7149 11.7054 18.4864 11.7452C18.4087 11.7587 18.3311 11.7724 18.2534 11.7861C18.1415 11.8059 18.0296 11.8253 17.9176 11.8447C17.8832 11.8509 17.8487 11.857 17.8133 11.8634C17.6232 11.896 17.4427 11.9126 17.25 11.9062C17.238 11.85 17.226 11.7937 17.2136 11.7358C16.946 10.5471 16.4313 9.52338 15.6094 8.625C15.5748 8.58705 15.5401 8.54911 15.5045 8.51001C14.5903 7.55404 13.331 6.96011 12.0399 6.73022C11.9062 6.70312 11.9062 6.70312 11.8594 6.65625C11.8686 6.23645 11.9417 5.81694 12.0029 5.40234C12.0117 5.34228 12.0204 5.28222 12.0294 5.22034C12.0507 5.07395 12.0721 4.92759 12.0938 4.78125Z" fill="black"/>
</g>
<defs>
<clipPath id="clip0_15_355">
<rect width="24" height="24" fill="white"/>
</clipPath>
</defs>
</svg>
