<svg width="20" height="20" viewBox="0 0 20 20" fill="none" xmlns="http://www.w3.org/2000/svg">
<g clip-path="url(#clip0_113_836)">
<path d="M3.82573 1.97751C3.8789 2.00796 3.93177 2.03894 3.98442 2.07028C4.00818 2.08366 4.03195 2.09703 4.05643 2.11081C4.38587 2.31186 4.64545 2.59642 4.91612 2.86786C4.97188 2.92343 5.02765 2.979 5.08343 3.03454C5.19991 3.15068 5.31618 3.26703 5.43229 3.38354C5.58027 3.53197 5.72887 3.67978 5.87765 3.82741C5.99287 3.94192 6.10773 4.05679 6.22249 4.17177C6.27709 4.22638 6.33181 4.28087 6.38666 4.33523C6.82476 4.76999 7.25487 5.20686 7.28032 5.85934C7.25739 6.44632 6.90109 6.82865 6.49938 7.22165C6.46431 7.25646 6.42924 7.29127 6.39311 7.32713C6.30099 7.4185 6.20863 7.50962 6.11612 7.6006C5.985 7.72966 5.85429 7.85914 5.72362 7.98865C5.65423 8.05738 5.58472 8.12598 5.51508 8.19445C5.4839 8.22525 5.45272 8.25605 5.4206 8.28778C5.39306 8.31488 5.36552 8.34198 5.33714 8.3699C5.25568 8.45637 5.23609 8.49955 5.22374 8.61844C5.23711 8.78301 5.29452 8.91154 5.36626 9.05759C5.38719 9.10096 5.38719 9.10096 5.40854 9.14522C5.74301 9.82213 6.19427 10.44 6.67973 11.0156C6.71342 11.0561 6.74709 11.0967 6.78075 11.1372C7.15916 11.5913 7.56142 12.0177 7.97856 12.4365C8.01137 12.4695 8.04417 12.5025 8.07796 12.5364C8.89557 13.352 9.84171 14.024 10.857 14.5703C10.8922 14.5896 10.9273 14.6089 10.9636 14.6287C10.9972 14.6465 11.0309 14.6643 11.0656 14.6826C11.1104 14.7066 11.1104 14.7066 11.1562 14.7311C11.2745 14.7746 11.3588 14.777 11.4844 14.7656C11.5747 14.7082 11.5747 14.7082 11.6518 14.6229C11.6826 14.5917 11.7134 14.5606 11.7451 14.5284C11.7777 14.4943 11.8103 14.4601 11.8439 14.4249C11.8782 14.39 11.9125 14.3551 11.9478 14.3191C12.039 14.2262 12.1297 14.1328 12.2202 14.0391C12.3467 13.9081 12.4739 13.7777 12.6014 13.6476C12.6691 13.5785 12.7365 13.509 12.8036 13.4392C13.1857 13.0477 13.5938 12.7379 14.1578 12.7124C14.8816 12.739 15.3623 13.3184 15.8403 13.7959C15.8943 13.8496 15.9483 13.9033 16.0022 13.957C16.1147 14.069 16.2271 14.1812 16.3394 14.2936C16.4824 14.4366 16.6259 14.5791 16.7696 14.7214C16.881 14.832 16.9921 14.9429 17.1031 15.0539C17.1558 15.1065 17.2087 15.1591 17.2617 15.2115C18.0942 16.0353 18.0942 16.0353 18.1006 16.6504C18.0908 17.2785 17.7211 17.6882 17.2945 18.1131C17.2556 18.1522 17.2167 18.1913 17.1777 18.2305C17.0965 18.312 17.0151 18.3933 16.9336 18.4745C16.8301 18.5775 16.7272 18.6812 16.6245 18.7851C16.5444 18.8659 16.4639 18.9464 16.3833 19.0268C16.3452 19.0648 16.3073 19.1029 16.2695 19.1412C15.9512 19.4631 15.6166 19.7329 15.1832 19.8779C15.139 19.8931 15.0948 19.9083 15.0493 19.924C14.3572 20.1246 13.5094 20.0394 12.8125 19.8828C12.7837 19.8765 12.7549 19.8702 12.7253 19.8637C10.4052 19.3432 8.17186 17.96 6.36723 16.4453C6.3268 16.4117 6.28637 16.3781 6.24593 16.3446C5.98155 16.1241 5.72583 15.8958 5.47429 15.6608C5.39494 15.5867 5.3149 15.5136 5.23381 15.4414C5.05068 15.278 4.87959 15.1147 4.72173 14.9269C4.63018 14.8229 4.53225 14.726 4.43364 14.6289C4.26239 14.4594 4.10128 14.2851 3.94536 14.1015C3.91137 14.0628 3.87738 14.024 3.84236 13.984C3.53451 13.6318 3.24873 13.2653 2.9688 12.8906C2.9497 12.8651 2.9306 12.8397 2.91093 12.8135C1.89165 11.4527 1.02409 9.94856 0.463819 8.33989C0.43397 8.2543 0.40317 8.16915 0.371904 8.08408C0.12684 7.39337 -0.00683561 6.68646 -0.00971854 5.95456C-0.0105242 5.90448 -0.0113299 5.8544 -0.0121599 5.80281C-0.0139563 5.35799 0.0350397 4.92209 0.239305 4.52145C0.259547 4.48016 0.27979 4.43887 0.300645 4.39633C0.503698 4.05319 0.832948 3.76966 1.1118 3.48828C1.14583 3.45393 1.17987 3.41959 1.21493 3.3842C1.28637 3.31222 1.35786 3.24031 1.42941 3.16845C1.50193 3.09548 1.57427 3.02234 1.64643 2.94903C1.75185 2.84193 1.85779 2.73537 1.96385 2.62891C1.99556 2.59651 2.02728 2.56411 2.05995 2.53074C2.52216 2.07023 3.16246 1.69626 3.82573 1.97751Z" fill="black"/>
<path d="M10.3928 -0.000732422C12.6308 0.163552 14.8772 1.37004 16.4844 2.89066C16.5235 2.92603 16.5628 2.96128 16.6022 2.9964C17.8081 4.07382 18.7172 5.46672 19.3359 6.95315C19.348 6.98153 19.3601 7.0099 19.3726 7.03914C19.6766 7.75494 20.0071 8.62978 20 9.41409C19.8215 9.44779 19.6429 9.48115 19.4643 9.51423C19.4036 9.52551 19.3429 9.53687 19.2823 9.54833C19.1948 9.56485 19.1072 9.58105 19.0196 9.5972C18.9928 9.60232 18.9661 9.60745 18.9385 9.61273C18.7695 9.64348 18.6091 9.65315 18.4375 9.64847C18.4269 9.60429 18.4269 9.60429 18.4161 9.55922C17.9736 7.72291 17.2459 5.89891 15.8536 4.56317C15.7812 4.49222 15.7812 4.49222 15.7007 4.38968C15.6096 4.27799 15.507 4.18972 15.3975 4.0964C15.3429 4.04953 15.289 4.00177 15.2361 3.95297C14.7722 3.52552 14.252 3.17293 13.7109 2.85159C13.6862 2.83665 13.6615 2.82171 13.636 2.80631C12.7054 2.24669 11.6812 1.90993 10.625 1.67972C10.5957 1.67327 10.5663 1.66681 10.5361 1.66017C10.3836 1.62673 10.2309 1.59433 10.0781 1.56253C10.2617 0.000513017 10.2617 0.000513024 10.3928 -0.000732422Z" fill="black"/>
<path d="M10.0781 3.98438C11.2597 4.06767 12.4335 4.582 13.3594 5.3125C13.3804 5.32905 13.4014 5.3456 13.423 5.36264C14.1734 5.96111 14.7695 6.66042 15.2344 7.5C15.2476 7.52351 15.2609 7.54702 15.2746 7.57124C15.4579 7.89949 15.5944 8.23792 15.7153 8.59375C15.728 8.63078 15.7408 8.66781 15.7539 8.70597C15.859 9.02795 15.9196 9.35437 15.9766 9.6875C15.7862 9.72113 15.5958 9.7545 15.4053 9.78764C15.3406 9.79893 15.2759 9.8103 15.2112 9.82174C15.1179 9.83821 15.0246 9.85443 14.9313 9.87061C14.9026 9.87573 14.8739 9.88086 14.8444 9.88614C14.686 9.9133 14.5356 9.92718 14.375 9.92188C14.365 9.875 14.355 9.82812 14.3446 9.77982C14.1217 8.78921 13.6927 7.93615 13.0078 7.1875C12.979 7.15588 12.9501 7.12426 12.9204 7.09167C12.1586 6.29504 11.1092 5.80009 10.0333 5.60852C9.92188 5.58594 9.92188 5.58594 9.88281 5.54688C9.89052 5.19705 9.95141 4.84745 10.0024 4.50195C10.0097 4.4519 10.017 4.40185 10.0245 4.35028C10.0422 4.22829 10.0601 4.10633 10.0781 3.98438Z" fill="black"/>
</g>
<defs>
<clipPath id="clip0_113_836">
<rect width="20" height="20" fill="white"/>
</clipPath>
</defs>
</svg>
