<svg width="14" height="14" viewBox="0 0 14 14" fill="none" xmlns="http://www.w3.org/2000/svg">
<g clip-path="url(#clip0_82_720)">
<path d="M9.40641 1.09371C10.5717 1.91935 11.2077 3.16897 11.552 4.53304C11.7775 6.03742 11.5312 7.40682 10.7522 8.70894C10.5599 9.03972 10.5599 9.03972 10.5002 9.40621C10.7036 9.6724 10.7036 9.6724 10.9923 9.92574C11.3319 10.2484 11.6615 10.5652 11.963 10.9238C12.361 11.3906 12.7962 11.8176 13.2347 12.2461C13.7718 12.7742 13.7718 12.7742 13.8087 13.2822C13.7814 13.6718 13.7814 13.6718 13.672 13.8837C13.3057 14.0783 12.9729 14.0978 12.5783 14C12.2005 13.7349 11.8994 13.4083 11.5871 13.0703C11.5035 12.9837 11.42 12.8971 11.3339 12.8079C10.8796 12.3338 10.4416 11.8466 10.0137 11.3485C9.75157 11.0517 9.47103 10.7764 9.18766 10.5C8.92903 10.6001 8.67379 10.7028 8.42374 10.823C6.94351 11.5263 5.38247 11.5534 3.82828 11.0468C2.4363 10.4647 1.23348 9.38475 0.625644 7.99117C-0.00312144 6.30248 0.0538635 4.66794 0.772616 3.01375C1.45622 1.65129 2.62227 0.691911 4.04019 0.170855C5.94144 -0.353235 7.79678 -0.0223715 9.40641 1.09371ZM2.7623 2.94368C2.26477 3.56653 1.83063 4.33585 1.75016 5.14058C1.74325 5.20713 1.73634 5.27368 1.72922 5.34224C1.67153 6.36956 1.99335 7.44036 2.66019 8.22829C2.72082 8.29216 2.78144 8.35603 2.84391 8.42183C2.93823 8.52271 2.93823 8.52271 3.03446 8.62563C3.84041 9.4065 4.78534 9.78488 5.90641 9.80269C7.13608 9.78028 8.07313 9.33027 8.94754 8.47695C9.78032 7.5271 10.1184 6.4292 10.0451 5.16664C9.86777 4.06973 9.29737 2.99066 8.39041 2.33443C6.49561 1.13771 4.32888 1.2264 2.7623 2.94368Z" fill="#101010"/>
</g>
<defs>
<clipPath id="clip0_82_720">
<rect width="14" height="14" fill="white"/>
</clipPath>
</defs>
</svg>
