<svg width="50" height="50" viewBox="0 0 50 50" fill="none" xmlns="http://www.w3.org/2000/svg">
<path d="M25.4884 1.56251C25.7752 1.68032 25.9346 1.76915 26.172 1.95313C27.7066 3.12285 29.3341 4.01325 31.0548 4.88282C31.1259 4.91893 31.1971 4.95504 31.2704 4.99225C34.6183 6.67478 38.2527 7.79043 41.8588 8.76427C41.9249 8.78232 41.9911 8.80037 42.0592 8.81897C42.4203 8.91714 42.7819 9.01092 43.1454 9.10001C43.3019 9.13992 43.4585 9.17983 43.615 9.21975C43.6868 9.23641 43.7585 9.25307 43.8325 9.27023C44.3678 9.40946 44.7514 9.63918 45.1173 10.0586C45.3915 10.576 45.3424 11.1625 45.342 11.7352C45.3425 11.8421 45.343 11.9491 45.3436 12.0594C45.3448 12.4077 45.3441 12.7559 45.3431 13.1043C45.343 13.2231 45.3428 13.3419 45.3427 13.4643C45.3383 15.4372 45.2538 17.3775 45.0196 19.3359C45.006 19.4558 44.9924 19.5756 44.9784 19.6991C43.9693 28.445 40.6762 38.0581 33.5725 43.7275C33.4013 43.8648 33.2321 44.0046 33.0659 44.1479C31.1908 45.753 28.9825 46.9438 26.7518 47.9736C26.6543 48.0204 26.5569 48.0671 26.4564 48.1152C25.6234 48.487 24.8638 48.608 23.9791 48.3324C23.6227 48.1893 23.2764 48.031 22.931 47.8638C22.806 47.8052 22.6809 47.7468 22.5558 47.6886C18.5168 45.7908 15.0105 43.0057 12.3048 39.4531C12.2614 39.3968 12.2179 39.3404 12.1732 39.2824C7.55832 33.2748 5.57883 25.6765 4.78524 18.2617C4.77352 18.1537 4.7618 18.0457 4.74972 17.9345C4.5808 16.2969 4.56774 14.6574 4.55941 13.0127C4.55847 12.9061 4.55753 12.7996 4.55656 12.6898C4.55424 12.3829 4.55402 12.076 4.55445 11.7691C4.55356 11.6772 4.55267 11.5852 4.55176 11.4905C4.55662 10.7837 4.64289 10.2123 5.14955 9.68171C5.4881 9.46005 5.79474 9.34533 6.18295 9.25294C6.3405 9.2119 6.49805 9.17082 6.65559 9.12972C6.74495 9.10701 6.83431 9.08431 6.92638 9.06091C11.3725 7.92768 15.7478 6.49948 19.8357 4.39168C19.9576 4.32885 20.0797 4.26641 20.2021 4.20437C21.5278 3.53138 22.8065 2.76129 23.9468 1.80283C24.3924 1.43817 24.9394 1.51421 25.4884 1.56251ZM24.4924 5.45841C19.8754 8.66259 14.2603 10.444 8.88681 11.9141C8.77603 11.9444 8.66525 11.9747 8.55111 12.006C8.30499 12.0732 8.05882 12.1402 7.81259 12.207C7.65845 20.8109 9.39134 29.7913 16.3579 39.1911C16.5656 39.4143 16.7648 39.6416 16.9618 39.8743C17.2994 40.2619 17.6737 40.5876 18.0665 40.918C18.1579 40.9984 18.2493 41.0789 18.3434 41.1617C19.1497 41.8674 20.0008 42.4825 20.8985 43.0664C20.9556 43.1039 21.0126 43.1413 21.0714 43.1799C21.8953 43.7156 22.7638 44.159 23.6451 44.5923C23.7517 44.6456 23.8583 44.6989 23.9682 44.7538C24.1198 44.8268 24.1198 44.8268 24.2745 44.9013C24.3649 44.9453 24.4553 44.9893 24.5485 45.0347C25.3648 45.2976 26.529 44.4942 27.2462 44.1406C28.9107 43.2725 30.4355 42.163 31.836 40.918C31.9319 40.834 32.0279 40.75 32.1267 40.6635C38.6092 34.8738 41.232 25.8678 41.9923 17.4805C42.0018 17.3787 42.0114 17.277 42.0212 17.1722C42.1076 16.1398 42.1009 15.1098 42.096 14.0747C42.0955 13.8928 42.0951 13.7108 42.0947 13.5288C42.0936 13.0882 42.092 12.6476 42.0899 12.207C41.9841 12.1777 41.8783 12.1483 41.7692 12.1181C36.0413 10.5245 30.2716 8.71041 25.2904 5.36614C24.8768 5.09497 24.88 5.18731 24.4924 5.45841Z" fill="black"/>
<path d="M25.5861 14.0625C26.4896 14.4376 27.0042 15.6553 27.4599 16.4734C27.5142 16.5703 27.5685 16.6673 27.6245 16.7671C28.2038 17.8075 28.7603 18.859 29.2971 19.9219C29.3437 20.014 29.3902 20.1061 29.4383 20.2011C31.0298 23.3727 32.9415 27.6063 31.7755 31.21C30.9865 33.1612 29.67 34.6664 27.7044 35.5003C25.9811 36.1897 23.8972 36.1961 22.1795 35.469C20.4101 34.6807 19.0609 33.2607 18.3374 31.4638C18.0407 30.6235 17.9144 29.8135 17.9201 28.9246C17.9207 28.8193 17.9214 28.7141 17.922 28.6057C18.0229 24.0651 20.7453 19.3903 23.0471 15.625C23.1047 15.5288 23.1624 15.4327 23.2218 15.3336C23.2801 15.2386 23.3384 15.1435 23.3984 15.0456C23.4504 14.96 23.5024 14.8745 23.556 14.7864C24.1136 14.0343 24.7034 13.9848 25.5861 14.0625ZM24.9025 18.9453C23.5703 21.2894 22.4109 23.7 21.5822 26.2695C21.5577 26.3445 21.5331 26.4194 21.5078 26.4966C21.1086 27.7491 20.9044 29.2922 21.4533 30.5321C22.0111 31.5256 22.8139 32.2949 23.9111 32.6504C25.0224 32.8831 26.1183 32.7825 27.0925 32.177C27.9515 31.5563 28.5984 30.7394 28.8088 29.6875C28.9614 28.3866 28.7237 27.2082 28.3205 25.9766C28.2948 25.8963 28.2692 25.8159 28.2427 25.7332C27.4733 23.3644 26.3392 21.0987 25.0978 18.9453C25.0334 18.9453 24.9689 18.9453 24.9025 18.9453Z" fill="black"/>
</svg>
