<svg width="50" height="50" viewBox="0 0 50 50" fill="none" xmlns="http://www.w3.org/2000/svg">
<path d="M25.4882 3.12494C25.8778 3.30044 26.2217 3.52619 26.5746 3.76581C26.7822 3.90088 26.9899 4.03592 27.1975 4.17093C27.3554 4.27531 27.3554 4.27531 27.5165 4.38179C31.0863 6.73576 34.5997 8.39268 38.8682 8.91107C38.9554 8.92169 39.0425 8.93231 39.1323 8.94325C39.5748 8.9968 40.0174 9.04858 40.4604 9.09783C40.626 9.11707 40.7916 9.13633 40.9572 9.1556C41.071 9.16749 41.071 9.16749 41.1872 9.17962C41.7594 9.24761 42.3015 9.39062 42.6757 9.86322C42.7811 10.1795 42.7859 10.4084 42.7864 10.7411C42.7868 10.8635 42.7872 10.9858 42.7877 11.1119C42.7876 11.2477 42.7876 11.3836 42.7875 11.5195C42.7878 11.6625 42.7881 11.8054 42.7885 11.9484C42.7894 12.3375 42.7896 12.7266 42.7897 13.1157C42.7897 13.3596 42.7899 13.6036 42.7902 13.8475C42.7911 14.7008 42.7915 15.5542 42.7914 16.4076C42.7914 17.1985 42.7924 17.9895 42.7939 18.7804C42.7952 19.4621 42.7957 20.1438 42.7957 20.8254C42.7957 21.2313 42.7959 21.6372 42.797 22.0431C42.802 24.1206 42.7969 26.1903 42.3766 28.2348C42.356 28.3352 42.3353 28.4356 42.3141 28.539C41.5996 31.8264 40.1363 34.9997 37.9882 37.5976C37.9428 37.6529 37.8973 37.7083 37.8505 37.7653C36.8573 38.9689 35.8011 40.0529 34.5702 41.0156C34.4821 41.0881 34.394 41.1606 34.3032 41.2353C33.3496 42.0022 32.3087 42.6267 31.2672 43.266C30.7715 43.5711 30.2784 43.8804 29.7851 44.1894C29.5918 44.3102 29.3985 44.431 29.2052 44.5518C29.1088 44.6121 29.0124 44.6723 28.913 44.7344C26.776 46.07 26.776 46.07 26.512 46.2326C26.3595 46.3295 26.2094 46.4304 26.0634 46.5369C25.6388 46.8394 25.2949 46.961 24.7688 46.9314C24.2568 46.819 23.8536 46.525 23.4252 46.2341C23.2175 46.0986 23.0097 45.9632 22.8019 45.8278C22.6966 45.7582 22.5913 45.6885 22.4829 45.6168C21.9926 45.2951 21.4942 44.9868 20.996 44.6777C20.8017 44.5562 20.6074 44.4346 20.4131 44.313C20.0129 44.0628 19.612 43.8137 19.2107 43.5653C17.1783 42.3055 15.3139 41.0017 13.5741 39.3554C13.5077 39.2931 13.4412 39.2308 13.3727 39.1666C12.872 38.6833 12.444 38.1416 12.0116 37.5976C11.8968 37.4577 11.8968 37.4577 11.7797 37.3149C9.68751 34.7031 8.29325 31.501 7.62319 28.2348C7.60489 28.1458 7.58659 28.0567 7.56773 27.965C7.18724 25.9301 7.19568 23.8723 7.19701 21.8107C7.19712 21.4849 7.19664 21.1592 7.19617 20.8334C7.1951 20.0656 7.19504 19.2979 7.19563 18.5301C7.19623 17.7397 7.19501 16.9492 7.19294 16.1587C7.19122 15.4766 7.19064 14.7944 7.19095 14.1122C7.19113 13.7062 7.19088 13.3002 7.18952 12.8941C7.18829 12.5138 7.18848 12.1336 7.18975 11.7533C7.18998 11.614 7.18972 11.4747 7.18891 11.3353C7.18789 11.1451 7.18885 10.9549 7.18992 10.7646C7.1899 10.6583 7.18989 10.5519 7.18987 10.4424C7.23981 10.0518 7.4166 9.8127 7.63974 9.49851C7.90835 9.30627 8.2043 9.29075 8.52422 9.25325C8.59523 9.2439 8.66624 9.23455 8.7394 9.22492C8.89202 9.20494 9.04471 9.1855 9.19747 9.16657C9.43774 9.13668 9.67775 9.10518 9.91776 9.07317C10.2388 9.03036 10.5599 8.98789 10.8811 8.94579C14.7147 8.44077 17.9166 7.28213 21.1791 5.21845C21.2556 5.17023 21.3321 5.12202 21.4109 5.07234C21.8685 4.78291 22.322 4.48813 22.7733 4.18886C22.9804 4.05393 23.1875 3.91902 23.3947 3.78412C23.491 3.71884 23.5874 3.65356 23.6866 3.5863C24.283 3.20137 24.774 2.943 25.4882 3.12494ZM24.5597 5.67354C24.4887 5.71886 24.4177 5.76418 24.3446 5.81087C24.2668 5.8611 24.189 5.91133 24.1088 5.96308C23.9392 6.07106 23.7696 6.17902 23.5999 6.28694C23.3217 6.46462 23.0437 6.64256 22.7659 6.82095C18.7608 9.38877 14.9135 10.695 10.1953 11.2352C10.1019 11.2461 10.0086 11.257 9.91239 11.2682C9.82963 11.2775 9.74687 11.2867 9.6616 11.2963C9.47245 11.3093 9.47245 11.3093 9.3749 11.4257C9.36531 11.582 9.36256 11.7386 9.3625 11.8952C9.36222 11.9968 9.36195 12.0985 9.36166 12.2032C9.36186 12.3158 9.36206 12.4283 9.36226 12.5443C9.36209 12.6622 9.36192 12.78 9.36175 12.9014C9.36139 13.2262 9.36147 13.5509 9.36178 13.8757C9.36203 14.2169 9.3618 14.5581 9.36165 14.8993C9.36147 15.4744 9.3617 16.0495 9.36217 16.6247C9.3627 17.2847 9.36253 17.9447 9.36199 18.6047C9.36154 19.1737 9.36149 19.7427 9.36174 20.3116C9.36189 20.6503 9.36192 20.989 9.36159 21.3277C9.33997 24.1624 9.33997 24.1624 9.63125 26.9775C9.65653 27.1297 9.65653 27.1297 9.68232 27.2849C10.5897 32.4271 13.5254 36.9983 17.7651 40.0252C18.6173 40.6198 19.5084 41.1564 20.3922 41.7022C20.7987 41.9536 21.2041 42.2067 21.6093 42.4601C21.8053 42.5827 22.0015 42.7049 22.1979 42.8268C22.666 43.118 23.1305 43.413 23.5892 43.7187C23.7164 43.8024 23.7164 43.8024 23.8462 43.8878C24.0048 43.9924 24.1624 44.0985 24.3189 44.2063C24.3889 44.2522 24.4589 44.2981 24.5311 44.3454C24.6215 44.4066 24.6215 44.4066 24.7137 44.469C24.9095 44.5532 24.9095 44.5532 25.1397 44.4631C25.3916 44.3353 25.6297 44.1988 25.8685 44.0479C25.9606 43.9899 26.0528 43.932 26.1477 43.8723C26.2463 43.8098 26.3449 43.7472 26.4464 43.6828C26.658 43.5495 26.8696 43.4163 27.0812 43.283C27.2436 43.1805 27.2436 43.1805 27.4093 43.0759C27.8195 42.8173 28.2309 42.5605 28.6423 42.3039C28.9351 42.1213 29.2275 41.9383 29.5199 41.7552C29.8783 41.5309 30.2371 41.3074 30.5964 41.0846C32.8581 39.6777 34.8922 38.0405 36.5006 35.9017C36.6071 35.7606 36.7155 35.621 36.8243 35.4816C40.0416 31.2552 40.643 26.2714 40.638 21.1289C40.6378 20.7868 40.638 20.4447 40.6382 20.1026C40.6383 19.5308 40.6381 18.959 40.6376 18.3872C40.6371 17.7261 40.6373 17.0649 40.6378 16.4038C40.6383 15.8332 40.6383 15.2627 40.6381 14.6921C40.6379 14.3525 40.6379 14.0128 40.6382 13.6732C40.6385 13.2969 40.6381 12.9206 40.6375 12.5443C40.6378 12.3755 40.6378 12.3755 40.6381 12.2032C40.6379 12.1016 40.6376 11.9999 40.6373 11.8952C40.6373 11.8063 40.6372 11.7175 40.6372 11.626C40.6471 11.4264 40.6471 11.4264 40.5272 11.3281C40.2797 11.2904 40.0335 11.258 39.7849 11.2289C39.6277 11.2096 39.4704 11.1902 39.3132 11.1708C39.189 11.1555 39.189 11.1555 39.0623 11.14C34.5083 10.5767 30.8013 9.11415 26.953 6.64057C26.6096 6.42024 26.2657 6.20065 25.9215 5.98139C25.8419 5.93004 25.7622 5.8787 25.6801 5.82579C25.5698 5.75553 25.5698 5.75553 25.4573 5.68384C25.3924 5.6422 25.3275 5.60057 25.2606 5.55767C24.962 5.3947 24.8254 5.50249 24.5597 5.67354Z" fill="black"/>
<path d="M31.4454 17.9688C31.7292 18.1051 31.9308 18.2354 32.1519 18.4608C32.2359 18.5458 32.2359 18.5458 32.3216 18.6325C32.3789 18.6914 32.4362 18.7503 32.4952 18.811C32.554 18.8707 32.6128 18.9304 32.6733 18.9919C32.8178 19.1387 32.9617 19.2861 33.1055 19.4336C32.6702 19.9547 32.2107 20.44 31.73 20.9194C31.6531 20.9965 31.5762 21.0736 31.4969 21.153C31.2445 21.4059 30.9917 21.6584 30.7389 21.9109C30.5628 22.087 30.3868 22.2631 30.2108 22.4393C29.8428 22.8073 29.4748 23.1752 29.1065 23.543C28.6808 23.9682 28.2553 24.3938 27.8301 24.8196C27.4203 25.2299 27.0102 25.64 26.5999 26.0499C26.4256 26.2242 26.2513 26.3985 26.0771 26.573C25.8344 26.8159 25.5915 27.0585 25.3484 27.301C25.2761 27.3735 25.2037 27.4461 25.1292 27.5208C25.0632 27.5865 24.9973 27.6522 24.9293 27.7199C24.8719 27.7773 24.8145 27.8346 24.7554 27.8937C24.4575 28.1665 24.1721 28.1715 23.7824 28.1623C23.0296 28.0487 22.3773 27.1952 21.8625 26.6838C21.781 26.6032 21.6995 26.5226 21.6155 26.4395C21.4448 26.2702 21.2744 26.1007 21.1042 25.9308C20.8425 25.6703 20.579 25.4116 20.3154 25.153C20.1494 24.9879 19.9836 24.8227 19.8178 24.6574C19.7386 24.5801 19.6593 24.5028 19.5777 24.4231C19.5059 24.3508 19.4342 24.2784 19.3602 24.2038C19.2964 24.1405 19.2326 24.0772 19.1669 24.012C19.043 23.8281 19.043 23.8281 19.0644 23.6195C19.2104 23.2711 19.4931 23.0351 19.7571 22.7722C19.814 22.7126 19.8708 22.653 19.9294 22.5916C19.9849 22.5358 20.0405 22.4799 20.0978 22.4224C20.1483 22.3712 20.1988 22.32 20.2509 22.2672C20.4102 22.168 20.4102 22.168 20.5948 22.192C20.8363 22.2783 20.9522 22.3816 21.1321 22.5636C21.1946 22.6261 21.2571 22.6887 21.3216 22.7531C21.3879 22.821 21.4542 22.8888 21.5226 22.9588C21.5914 23.028 21.6602 23.0972 21.7311 23.1685C21.9507 23.3897 22.1692 23.612 22.3878 23.8342C22.5365 23.9844 22.6852 24.1345 22.8341 24.2846C23.1988 24.6525 23.5626 25.0213 23.9258 25.3906C24.4114 24.9836 24.8679 24.5598 25.3146 24.1107C25.3813 24.0439 25.4481 23.9771 25.5169 23.9083C25.7354 23.6898 25.9535 23.471 26.1716 23.2521C26.3238 23.0997 26.4761 22.9472 26.6284 22.7948C27.0276 22.3953 27.4264 21.9955 27.8253 21.5956C28.2329 21.1869 28.6409 20.7785 29.0488 20.3701C29.8479 19.5699 30.6467 18.7694 31.4454 17.9688Z" fill="black"/>
</svg>
