<svg width="50" height="50" viewBox="0 0 50 50" fill="none" xmlns="http://www.w3.org/2000/svg">
<g clip-path="url(#clip0_55_512)">
<path d="M35.2538 12.1096C35.5746 12.593 35.5879 13.0152 35.5956 13.5744C35.7246 17.3985 36.8723 21.2018 39.698 23.9119C42.0355 25.9233 44.9721 27.0868 48.0274 27.3912C48.111 27.3996 48.1946 27.408 48.2808 27.4167C48.447 27.433 48.6133 27.4483 48.7797 27.4627C48.8943 27.4734 48.8943 27.4734 49.0112 27.4843C49.0794 27.4902 49.1476 27.4962 49.2179 27.5022C49.4455 27.5452 49.6076 27.6129 49.8046 27.7346C50.0094 28.0416 50.0356 28.2386 50.064 28.6005C49.9576 28.9463 49.721 29.1305 49.414 29.2971C49.1081 29.3707 48.806 29.3821 48.4924 29.3947C45.0927 29.6312 41.4466 30.947 39.1307 33.5539C38.9061 33.8231 38.6896 34.0968 38.4765 34.3752C38.4183 34.4502 38.3602 34.5252 38.3003 34.6025C36.7479 36.7057 35.9692 39.2755 35.7685 41.8596C35.7626 41.9341 35.7567 42.0085 35.7506 42.0852C35.7213 42.4606 35.6952 42.8359 35.6739 43.2118C35.6643 43.3515 35.6546 43.4911 35.6449 43.6308C35.634 43.817 35.634 43.817 35.6229 44.0069C35.5287 44.4146 35.3844 44.5683 35.0585 44.8244C34.653 44.8968 34.4631 44.8815 34.1163 44.6569C33.7183 44.2325 33.7956 43.5946 33.7768 43.0483C33.7635 42.7998 33.7497 42.5513 33.7352 42.3029C33.7283 42.1823 33.7215 42.0616 33.7144 41.9373C33.6657 41.2285 33.5485 40.5377 33.3984 39.8439C33.3829 39.7712 33.3675 39.6985 33.3516 39.6236C32.8177 37.1891 31.7362 35.1451 30.0781 33.301C30.0213 33.236 29.9645 33.1711 29.906 33.1041C27.761 30.7916 24.0783 29.5094 20.9945 29.3756C20.9286 29.3725 20.8627 29.3694 20.7947 29.3662C20.6105 29.3586 20.4262 29.354 20.2419 29.3497C19.8659 29.2879 19.7031 29.1705 19.4335 28.9064C19.3147 28.6687 19.3313 28.5408 19.3542 28.2778C19.3596 28.2014 19.365 28.125 19.3706 28.0462C19.4553 27.7581 19.5704 27.6952 19.8242 27.5392C20.0737 27.4853 20.0737 27.4853 20.3559 27.4603C20.4602 27.45 20.5646 27.4398 20.672 27.4292C20.783 27.4192 20.8939 27.4092 21.0082 27.3989C24.7159 27.0156 28.3361 25.6451 30.7614 22.6902C32.8323 20.0518 33.5567 16.8394 33.7088 13.5585C33.7183 13.3826 33.7183 13.3826 33.728 13.2032C33.7351 13.0459 33.7351 13.0459 33.7425 12.8854C33.7946 12.563 33.8908 12.3724 34.082 12.1096C34.5028 11.8407 34.8091 11.9119 35.2538 12.1096ZM34.5703 19.1408C34.5394 19.2211 34.5394 19.2211 34.5078 19.3031C33.0873 22.9761 30.8083 25.8511 27.164 27.5148C26.6748 27.7292 26.1809 27.9306 25.6835 28.1252C25.5838 28.1651 25.4841 28.205 25.3814 28.2461C25.32 28.2707 25.2585 28.2952 25.1953 28.3205C25.4321 28.5573 25.6244 28.6114 25.9399 28.7233C27.5963 29.3484 29.2665 30.2078 30.5519 31.4398C30.7409 31.621 30.936 31.7823 31.1401 31.946C32.7951 33.3971 33.8847 35.5413 34.5703 37.5978C34.6347 37.5978 34.6992 37.5978 34.7656 37.5978C34.7977 37.5043 34.8298 37.4108 34.8628 37.3144C36.1505 33.6672 38.6109 30.9617 42.0909 29.2829C42.5795 29.0526 43.0755 28.8413 43.5748 28.6356C43.86 28.5198 43.86 28.5198 44.1406 28.3205C44.053 28.2873 43.9653 28.254 43.8751 28.2198C42.0697 27.5234 40.3412 26.6618 38.8671 25.3908C38.7737 25.3116 38.6803 25.2324 38.5841 25.1509C36.7701 23.5771 35.4835 21.4244 34.7656 19.1408C34.7011 19.1408 34.6367 19.1408 34.5703 19.1408Z" fill="black"/>
<path d="M16.6016 1.36734C16.9066 1.60642 17.0168 1.77526 17.0899 2.14859C17.1056 2.29339 17.1183 2.43855 17.1284 2.58385C17.2962 4.76795 17.8088 6.81097 19.4931 8.33641C20.6481 9.2651 22.0738 9.84645 23.547 10.0076C23.6517 10.0192 23.6517 10.0192 23.7585 10.031C23.8949 10.045 24.0315 10.0574 24.1682 10.0676C24.6218 10.111 24.8771 10.2199 25.1953 10.547C25.3075 10.9327 25.3351 11.1359 25.1709 11.5053C24.9736 11.7519 24.8095 11.8935 24.4952 11.9571C24.3736 11.9702 24.3736 11.9702 24.2497 11.9836C24.1596 11.9942 24.0696 12.0047 23.9769 12.0156C23.8815 12.0265 23.786 12.0373 23.6878 12.0485C22.8826 12.1501 22.1363 12.2726 21.3867 12.5978C21.2402 12.6611 21.2402 12.6611 21.0907 12.7256C19.5787 13.4301 18.321 14.6334 17.6997 16.2019C17.2727 17.3834 17.0796 18.5565 17.0353 19.8118C16.9841 20.1745 16.8629 20.4419 16.6016 20.7033C15.8956 20.7612 15.8956 20.7612 15.5823 20.5202C15.3477 20.2011 15.3111 19.9892 15.2756 19.5978C15.0503 17.2932 14.6118 15.2577 12.8239 13.6285C11.5857 12.6373 10.1535 12.1423 8.58727 11.9653C8.48806 11.9538 8.48806 11.9538 8.38683 11.942C8.20147 11.9215 8.01576 11.9042 7.83005 11.8871C7.47281 11.8059 7.34454 11.7187 7.12891 11.4259C7.0358 10.7742 7.0358 10.7742 7.31545 10.3853C7.72954 10.0712 8.08639 10.0519 8.59376 10.0038C10.5524 9.76691 12.2331 9.09602 13.5742 7.61734C13.8374 7.27469 14.055 6.92425 14.2578 6.54312C14.325 6.41869 14.325 6.41869 14.3936 6.29174C14.9813 5.10759 15.1802 3.85574 15.2482 2.54842C15.2819 2.04075 15.3287 1.7287 15.7227 1.36734C16.0727 1.25067 16.247 1.27327 16.6016 1.36734ZM16.0156 6.83609C15.9641 6.93712 15.9641 6.93712 15.9115 7.04018C15.5769 7.67711 15.2065 8.23734 14.7461 8.78922C14.6708 8.88426 14.5955 8.97931 14.518 9.07723C13.8071 9.92707 12.8155 10.4948 11.8164 10.9377C12.0496 11.2001 12.2915 11.3362 12.6038 11.4931C13.1807 11.8013 13.6691 12.1675 14.1602 12.5978C14.2274 12.6557 14.2946 12.7136 14.3639 12.7733C15.1119 13.4651 15.5956 14.3674 16.1133 15.2345C16.3449 14.9424 16.5179 14.6415 16.6931 14.3129C17.5686 12.8079 18.8778 11.8233 20.4102 11.0353C20.1162 10.8023 19.8124 10.6268 19.4824 10.4494C18.787 10.0477 18.2406 9.5485 17.6758 8.98453C17.6105 8.92033 17.5451 8.85613 17.4778 8.78998C16.9369 8.21844 16.5826 7.5235 16.2109 6.83609C16.1465 6.83609 16.082 6.83609 16.0156 6.83609Z" fill="black"/>
<path d="M9.47242 29.297C9.73564 29.4792 9.83866 29.5938 9.91912 29.9035C9.96756 30.2208 9.98294 30.5328 9.99732 30.8534C10.1189 32.9314 10.8463 34.8975 12.4021 36.3283C13.695 37.327 15.0641 37.8128 16.6813 37.9861C17.2181 38.0459 17.7443 38.1061 18.1089 38.5499C18.1916 38.8808 18.1484 39.1243 18.0662 39.4533C17.7889 39.8001 17.5878 39.8969 17.1514 39.9503C17.0495 39.9641 16.9475 39.978 16.8425 39.9922C16.6808 40.0124 16.6808 40.0124 16.5159 40.0331C14.5628 40.3134 12.8335 40.9575 11.5266 42.5138C10.4548 43.9609 10.0538 45.6169 9.93829 47.3804C9.90271 47.8585 9.83883 48.2207 9.57007 48.6329C9.2016 48.7721 9.03441 48.7499 8.66675 48.6085C8.3982 48.4376 8.3982 48.4376 8.20288 48.1447C8.16312 47.8973 8.16312 47.8973 8.14032 47.6011C8.1308 47.492 8.12127 47.3829 8.11145 47.2706C8.09629 47.096 8.09629 47.096 8.08081 46.9179C7.86128 44.7306 7.22454 42.8513 5.46851 41.4064C4.17543 40.4819 2.66165 40.0103 1.08619 39.8988C0.687734 39.8669 0.413714 39.8145 0.097416 39.5509C-0.0553879 39.2453 -0.0683086 38.9053 -0.000240249 38.5744C0.202106 38.306 0.33142 38.1993 0.658176 38.1132C0.809616 38.0967 0.809616 38.0967 0.964115 38.08C3.13323 37.7985 5.09066 37.1654 6.54273 35.4494C7.63144 34.0172 7.96786 32.4431 8.0857 30.6765C8.15812 29.7617 8.15812 29.7617 8.431 29.4671C8.83044 29.2059 9.00218 29.2298 9.47242 29.297ZM8.88648 34.8634C8.85324 34.9296 8.82001 34.9958 8.78577 35.0641C8.42977 35.7477 8.01496 36.3262 7.51929 36.9142C7.45912 36.9941 7.39894 37.0741 7.33695 37.1564C7.09856 37.438 6.83467 37.662 6.54273 37.8847C6.48788 37.9268 6.43304 37.969 6.37653 38.0124C5.84805 38.4072 5.29067 38.6975 4.68726 38.965C4.9192 39.2259 5.15732 39.3596 5.46851 39.5143C6.8488 40.2536 7.845 41.3586 8.62021 42.6969C8.76029 42.9229 8.884 43.0877 9.08179 43.2619C9.12094 43.1827 9.16009 43.1035 9.20043 43.0219C10.1182 41.2343 11.4695 39.9334 13.281 39.0626C12.9673 38.8156 12.6365 38.6173 12.2922 38.4157C11.6775 38.0447 11.1536 37.6179 10.6443 37.1095C10.5762 37.0425 10.5081 36.9756 10.4379 36.9066C9.85867 36.2992 9.47476 35.5981 9.08179 34.8634C9.01734 34.8634 8.95288 34.8634 8.88648 34.8634Z" fill="black"/>
</g>
<defs>
<clipPath id="clip0_55_512">
<rect width="50" height="50" fill="white"/>
</clipPath>
</defs>
</svg>
