<svg width="24" height="24" viewBox="0 0 24 24" fill="none" xmlns="http://www.w3.org/2000/svg">
<g clip-path="url(#clip0_121_896)">
<path d="M12.5156 0C13.8305 0 15.1453 0 16.5 0C16.5309 0.324844 16.5619 0.649688 16.5938 0.984375C16.8437 2.25192 17.3956 3.27697 18.2813 4.21875C18.3064 4.24697 18.3316 4.27519 18.3576 4.30426C19.4547 5.48385 21.0204 5.81682 22.5469 6C22.5469 7.29937 22.5469 8.59875 22.5469 9.9375C21.1575 9.9375 19.8403 9.68901 18.5625 9.14062C18.5247 9.1245 18.4869 9.10837 18.448 9.09176C17.7702 8.79795 17.1232 8.43277 16.5469 7.96875C16.5467 8.03884 16.5467 8.03884 16.5465 8.11035C16.5438 9.25097 16.5402 10.3916 16.5358 11.5322C16.5337 12.0838 16.5319 12.6354 16.5306 13.187C16.5296 13.6682 16.528 14.1494 16.5258 14.6306C16.5247 14.885 16.5238 15.1394 16.5236 15.3938C16.5233 15.6341 16.5223 15.8743 16.5209 16.1145C16.5205 16.202 16.5203 16.2894 16.5204 16.3769C16.5209 17.1409 16.455 17.9037 16.2334 18.6387C16.2215 18.679 16.2096 18.7193 16.1974 18.7608C15.8522 19.8874 15.2445 20.8513 14.4375 21.7031C14.3957 21.748 14.3539 21.7928 14.3108 21.839C13.7624 22.4153 13.1256 22.8384 12.4219 23.2031C12.3934 23.2181 12.3649 23.2331 12.3355 23.2485C10.5899 24.155 8.46604 24.2298 6.60828 23.6561C6.2685 23.5457 5.94532 23.4076 5.625 23.25C5.59542 23.2356 5.56585 23.2213 5.53537 23.2064C4.84238 22.8658 4.25704 22.4256 3.70313 21.8906C3.66029 21.8507 3.61744 21.8109 3.5733 21.7698C2.26376 20.5183 1.50216 18.6975 1.43976 16.8953C1.4013 14.9505 1.98759 13.0689 3.33032 11.6299C3.40503 11.5494 3.47412 11.468 3.54199 11.3818C3.69106 11.2098 3.85659 11.0673 4.03125 10.9219C4.066 10.8924 4.10074 10.8629 4.13654 10.8325C4.67733 10.385 5.27003 10.0418 5.90625 9.75C5.94909 9.73033 5.94909 9.73033 5.99279 9.71027C6.34735 9.55085 6.70515 9.43553 7.08106 9.33984C7.13578 9.32587 7.13578 9.32587 7.19161 9.31161C7.75709 9.17538 8.31348 9.1259 8.89293 9.13098C8.99503 9.13184 9.09712 9.13194 9.19922 9.13193C9.51366 9.13302 9.81129 9.14829 10.125 9.1875C10.125 10.5178 10.125 11.8481 10.125 13.2188C9.80016 13.1723 9.47531 13.1259 9.14063 13.0781C8.21689 13.085 7.35402 13.3444 6.65625 13.9688C6.62121 13.9994 6.58616 14.0301 6.55005 14.0618C5.94544 14.6252 5.55011 15.4542 5.5155 16.2836C5.49794 17.3938 5.78449 18.2693 6.56635 19.0864C7.31465 19.8013 8.24041 20.0485 9.24664 20.0299C10.0757 19.9971 10.8938 19.6103 11.4844 19.0312C12.2279 18.2203 12.4835 17.2975 12.4818 16.2174C12.482 16.1472 12.4823 16.077 12.4826 16.0067C12.4834 15.8149 12.4835 15.6232 12.4836 15.4314C12.4838 15.2241 12.4845 15.0169 12.4851 14.8096C12.4862 14.4509 12.4869 14.0922 12.4873 13.7335C12.488 13.2149 12.4892 12.6963 12.4905 12.1777C12.4927 11.3362 12.4944 10.4947 12.4959 9.65317C12.4973 8.83594 12.4989 8.01871 12.5007 7.20148C12.5009 7.15107 12.501 7.10066 12.5011 7.04872C12.5017 6.79582 12.5023 6.54292 12.5028 6.29001C12.5077 4.19334 12.5118 2.09667 12.5156 0Z" fill="black"/>
</g>
<defs>
<clipPath id="clip0_121_896">
<rect width="24" height="24" fill="white"/>
</clipPath>
</defs>
</svg>
