<svg width="426" height="426" viewBox="0 0 426 426" fill="none" xmlns="http://www.w3.org/2000/svg">
<path d="M92.4902 278.82C92.6802 278.41 92.9402 278.01 93.0602 277.58C93.9302 274.42 95.9102 272.22 98.9002 270.97C103.23 269.17 107.59 267.44 111.94 265.68C118.03 263.22 124.12 260.76 130.21 258.32C131.15 257.94 132.12 257.65 132.91 257.37C134.41 257.65 135.5 258.2 135.99 259.51C136.68 261.32 135.96 263.05 134 263.91C130.92 265.25 127.79 266.49 124.68 267.75C117.36 270.7 110.03 273.63 102.7 276.58C102.12 276.81 101.52 277.03 101 277.36C98.8902 278.7 98.8402 281.68 100.91 283.06C101.49 283.44 102.16 283.7 102.81 283.96C130.15 294.97 157.49 305.97 184.83 316.97C190.78 319.36 196.75 321.69 202.66 324.18C209.36 327 215.97 326.94 222.7 324.22C248.2 313.9 273.74 303.66 299.26 293.38C307.02 290.26 314.78 287.13 322.53 284C323.11 283.77 323.7 283.53 324.23 283.21C326.61 281.8 326.62 278.67 324.25 277.27C323.65 276.91 322.98 276.66 322.33 276.4C312.4 272.4 302.46 268.4 292.53 264.4C292.02 264.2 291.53 263.96 291.03 263.74C289.66 263.14 288.92 262.06 288.98 260.61C289.05 259.19 289.78 258.09 291.22 257.62C291.52 257.52 291.81 257.44 292.29 257.29C292.98 257.52 293.8 257.76 294.59 258.08C304.61 262.09 314.62 266.1 324.63 270.13C325.57 270.51 326.51 270.92 327.4 271.4C330.91 273.26 332.68 276.33 332.71 280.18C332.73 284.03 331.02 287.19 327.49 289C325.06 290.24 322.48 291.2 319.95 292.22C291.82 303.55 263.68 314.86 235.54 326.19C232.06 327.59 228.58 328.99 225.1 330.41C216.8 333.8 208.53 333.74 200.23 330.38C186.1 324.66 171.96 318.97 157.83 313.28C138.83 305.63 119.84 297.99 100.84 290.34C99.9002 289.96 98.9702 289.55 98.0602 289.09C95.6302 287.86 94.0602 285.9 93.1802 283.34C92.9802 282.76 92.7302 282.21 92.5002 281.65C92.5002 280.71 92.5002 279.77 92.5002 278.83L92.4902 278.82Z" fill="#216BDC"/>
<path d="M92.4902 227.23C92.6802 226.82 92.9402 226.42 93.0602 225.99C93.9302 222.83 95.9102 220.63 98.9002 219.38C103.23 217.58 107.59 215.85 111.94 214.09C118.03 211.63 124.12 209.17 130.21 206.73C131.15 206.35 132.12 206.06 132.91 205.78C134.41 206.06 135.5 206.61 135.99 207.92C136.68 209.73 135.96 211.46 134 212.32C130.92 213.66 127.79 214.9 124.68 216.16C117.36 219.11 110.03 222.04 102.7 224.99C102.12 225.22 101.52 225.44 101 225.77C98.8902 227.11 98.8402 230.09 100.91 231.47C101.49 231.85 102.16 232.11 102.81 232.37C130.15 243.38 157.49 254.38 184.83 265.38C190.78 267.77 196.75 270.1 202.66 272.59C209.36 275.41 215.97 275.35 222.7 272.63C248.2 262.31 273.74 252.07 299.26 241.79C307.02 238.67 314.78 235.54 322.53 232.41C323.11 232.18 323.7 231.94 324.23 231.62C326.61 230.21 326.62 227.08 324.25 225.68C323.65 225.32 322.98 225.07 322.33 224.81C312.4 220.81 302.46 216.81 292.53 212.81C292.02 212.61 291.53 212.37 291.03 212.15C289.66 211.55 288.92 210.47 288.98 209.02C289.05 207.6 289.78 206.5 291.22 206.03C291.52 205.93 291.81 205.85 292.29 205.7C292.98 205.93 293.8 206.17 294.59 206.49C304.61 210.5 314.62 214.51 324.63 218.54C325.57 218.92 326.51 219.33 327.4 219.81C330.91 221.67 332.68 224.74 332.71 228.59C332.73 232.44 331.02 235.6 327.49 237.41C325.06 238.65 322.48 239.61 319.95 240.63C291.82 251.96 263.68 263.27 235.54 274.6C232.06 276 228.58 277.4 225.1 278.82C216.8 282.21 208.53 282.15 200.23 278.79C186.1 273.07 171.96 267.38 157.83 261.69C138.83 254.04 119.84 246.4 100.84 238.75C99.9002 238.37 98.9702 237.96 98.0602 237.5C95.6302 236.27 94.0602 234.31 93.1802 231.75C92.9802 231.17 92.7302 230.62 92.5002 230.06C92.5002 229.12 92.5002 228.18 92.5002 227.24L92.4902 227.23Z" fill="#216BDC"/>
<path d="M92.4902 330.47C92.6502 330.21 92.9002 329.96 92.9502 329.68C93.7602 325.77 96.3002 323.47 99.8802 322.07C104.03 320.45 108.15 318.74 112.28 317.08C118.37 314.63 124.47 312.19 130.56 309.74C131.07 309.54 131.57 309.29 132.09 309.15C133.55 308.75 135.26 309.51 135.87 310.78C136.55 312.19 136.13 314.12 134.84 314.98C134.07 315.49 133.18 315.84 132.31 316.19C122.6 320.11 112.88 324.02 103.17 327.94C102.45 328.23 101.7 328.5 101.04 328.9C98.8902 330.22 98.8102 333.18 100.9 334.58C101.6 335.05 102.44 335.34 103.23 335.66C120.42 342.58 137.61 349.48 154.79 356.41C170.6 362.78 186.39 369.18 202.21 375.52C204.3 376.36 206.5 376.99 208.7 377.49C213.46 378.57 218.02 377.6 222.45 375.83C230.58 372.58 238.7 369.31 246.82 366.04C265.67 358.45 284.52 350.85 303.36 343.25C309.74 340.68 316.12 338.12 322.5 335.54C323.22 335.25 323.97 334.96 324.6 334.51C326.56 333.11 326.49 330.26 324.46 328.96C323.61 328.42 322.64 328.06 321.7 327.68C311.99 323.76 302.27 319.84 292.56 315.93C292.05 315.73 291.52 315.56 291.05 315.3C289.42 314.39 288.77 312.53 289.49 310.88C290.12 309.44 292.26 308.63 293.67 309.24C296.82 310.61 300.04 311.82 303.24 313.1C310.64 316.07 318.03 319.05 325.44 322.01C327.13 322.69 328.69 323.52 329.97 324.85C334.21 329.29 333.46 336.61 328.36 340.02C327.33 340.71 326.17 341.22 325.01 341.69C305.29 349.65 285.57 357.59 265.85 365.53C252.44 370.93 239 376.29 225.62 381.77C220.44 383.89 215.13 384.81 209.58 384.34C206.6 384.09 203.74 383.32 200.97 382.2C167.26 368.63 133.55 355.05 99.8302 341.47C96.3602 340.07 93.8502 337.83 92.9902 334.04C92.9302 333.76 92.6702 333.53 92.5002 333.27C92.5002 332.33 92.5002 331.39 92.5002 330.45L92.4902 330.47Z" fill="#216BDC"/>
<path d="M325.89 219.1C324.58 218.57 323.28 218.04 321.98 217.51C289.78 204.54 257.58 191.58 225.4 178.58C216.85 175.13 208.44 175.18 199.87 178.65C170.39 190.61 140.86 202.45 111.35 214.33C107.36 215.94 103.37 217.54 99.39 219.15C96.15 220.46 93.91 222.69 93.03 226.16C92.94 226.51 92.68 226.83 92.5 227.16V229.98C92.64 230.17 92.86 230.34 92.9 230.54C93.73 234.74 96.51 237.04 100.33 238.57C119.57 246.26 138.77 254.01 157.98 261.77C159.53 262.4 161.09 262.69 162.77 262.69C167.9 262.69 173.04 262.69 178.17 262.69L159.84 255.3C159.49 255.2 159.14 255.08 158.78 254.93C149.29 251.09 139.79 247.26 130.3 243.43C121.24 239.78 112.18 236.12 103.12 232.47C102.47 232.21 101.8 231.97 101.19 231.62C98.81 230.23 98.81 227.1 101.19 225.69C101.79 225.33 102.46 225.1 103.12 224.83C120.3 217.91 137.49 211.01 154.67 204.09C170.55 197.7 186.42 191.29 202.29 184.88C205.65 183.52 209.1 182.62 212.79 182.49C216.13 182.64 219.39 183.36 222.54 184.63C238.55 191.09 254.58 197.53 270.6 203.98C287.71 210.87 304.81 217.77 321.91 224.66C322.63 224.95 323.36 225.24 324.06 225.58C325.38 226.22 326.06 227.29 326.02 228.77C325.98 230.15 325.31 231.17 324.07 231.74C322.43 232.48 320.76 233.15 319.1 233.82C301.85 240.77 284.59 247.69 267.36 254.7C266.87 254.9 266.41 255.04 265.96 255.13L247.21 262.69C252.33 262.69 257.44 262.69 262.56 262.69C264.4 262.69 266.1 262.35 267.8 261.66C278.81 257.19 289.83 252.75 300.86 248.31C309.2 244.95 317.54 241.6 325.89 238.26C330.17 236.55 332.68 233.39 332.74 228.81C332.79 224.66 330.9 221.09 325.94 219.1H325.89Z" fill="#216BDC"/>
<path d="M209.35 260.37C209.37 258.57 210.69 257.29 212.5 257.33C214.22 257.37 215.63 258.85 215.56 260.54C215.49 262.1 213.99 263.54 212.45 263.54C210.73 263.54 209.35 262.12 209.36 260.38L209.35 260.37Z" fill="#216BDC"/>
<path d="M209.35 250.6C209.37 248.8 210.69 247.52 212.5 247.56C214.22 247.6 215.63 249.08 215.56 250.77C215.49 252.33 213.99 253.77 212.45 253.77C210.73 253.77 209.35 252.35 209.36 250.61L209.35 250.6Z" fill="#216BDC"/>
<path d="M207.63 252.35C209.43 252.37 210.71 253.69 210.67 255.5C210.63 257.22 209.15 258.63 207.46 258.56C205.9 258.49 204.46 256.99 204.46 255.45C204.46 253.73 205.88 252.35 207.62 252.36L207.63 252.35Z" fill="#216BDC"/>
<path d="M217.4 252.35C219.2 252.37 220.48 253.69 220.44 255.5C220.4 257.22 218.92 258.63 217.23 258.56C215.67 258.49 214.23 256.99 214.23 255.45C214.23 253.73 215.65 252.35 217.39 252.36L217.4 252.35Z" fill="#216BDC"/>
<path d="M209.35 232.62C209.37 230.82 210.69 229.54 212.5 229.58C214.22 229.62 215.63 231.1 215.56 232.79C215.49 234.35 213.99 235.79 212.45 235.79C210.73 235.79 209.35 234.37 209.36 232.63L209.35 232.62Z" fill="#216BDC"/>
<path d="M209.35 222.85C209.37 221.05 210.69 219.77 212.5 219.81C214.22 219.85 215.63 221.33 215.56 223.02C215.49 224.58 213.99 226.02 212.45 226.02C210.73 226.02 209.35 224.6 209.36 222.86L209.35 222.85Z" fill="#216BDC"/>
<path d="M207.63 224.6C209.43 224.62 210.71 225.94 210.67 227.75C210.63 229.47 209.15 230.88 207.46 230.81C205.9 230.74 204.46 229.24 204.46 227.7C204.46 225.98 205.88 224.6 207.62 224.61L207.63 224.6Z" fill="#216BDC"/>
<path d="M217.4 224.6C219.2 224.62 220.48 225.94 220.44 227.75C220.4 229.47 218.92 230.88 217.23 230.81C215.67 230.74 214.23 229.24 214.23 227.7C214.23 225.98 215.65 224.6 217.39 224.61L217.4 224.6Z" fill="#216BDC"/>
<path d="M152.78 232.62C152.8 230.82 154.12 229.54 155.93 229.58C157.65 229.62 159.06 231.1 158.99 232.79C158.92 234.35 157.42 235.79 155.88 235.79C154.16 235.79 152.78 234.37 152.79 232.63L152.78 232.62Z" fill="#216BDC"/>
<path d="M152.78 222.85C152.8 221.05 154.12 219.77 155.93 219.81C157.65 219.85 159.06 221.33 158.99 223.02C158.92 224.58 157.42 226.02 155.88 226.02C154.16 226.02 152.78 224.6 152.79 222.86L152.78 222.85Z" fill="#216BDC"/>
<path d="M151.07 224.6C152.87 224.62 154.15 225.94 154.11 227.75C154.07 229.47 152.59 230.88 150.9 230.81C149.34 230.74 147.9 229.24 147.9 227.7C147.9 225.98 149.32 224.6 151.06 224.61L151.07 224.6Z" fill="#216BDC"/>
<path d="M160.84 224.6C162.64 224.62 163.92 225.94 163.88 227.75C163.84 229.47 162.36 230.88 160.67 230.81C159.11 230.74 157.67 229.24 157.67 227.7C157.67 225.98 159.09 224.6 160.83 224.61L160.84 224.6Z" fill="#216BDC"/>
<path d="M261.2 232.62C261.22 230.82 262.54 229.54 264.35 229.58C266.07 229.62 267.48 231.1 267.41 232.79C267.34 234.35 265.84 235.79 264.3 235.79C262.58 235.79 261.2 234.37 261.21 232.63L261.2 232.62Z" fill="#216BDC"/>
<path d="M261.2 222.85C261.22 221.05 262.54 219.77 264.35 219.81C266.07 219.85 267.48 221.33 267.41 223.02C267.34 224.58 265.84 226.02 264.3 226.02C262.58 226.02 261.2 224.6 261.21 222.86L261.2 222.85Z" fill="#216BDC"/>
<path d="M259.48 224.6C261.28 224.62 262.56 225.94 262.52 227.75C262.48 229.47 261 230.88 259.31 230.81C257.75 230.74 256.31 229.24 256.31 227.7C256.31 225.98 257.73 224.6 259.47 224.61L259.48 224.6Z" fill="#216BDC"/>
<path d="M269.25 224.6C271.05 224.62 272.33 225.94 272.29 227.75C272.25 229.47 270.77 230.88 269.08 230.81C267.52 230.74 266.08 229.24 266.08 227.7C266.08 225.98 267.5 224.6 269.24 224.61L269.25 224.6Z" fill="#216BDC"/>
<path d="M209.35 204.9C209.37 203.1 210.69 201.82 212.5 201.86C214.22 201.9 215.63 203.38 215.56 205.07C215.49 206.63 213.99 208.07 212.45 208.07C210.73 208.07 209.35 206.65 209.36 204.91L209.35 204.9Z" fill="#216BDC"/>
<path d="M209.35 195.13C209.37 193.33 210.69 192.05 212.5 192.09C214.22 192.13 215.63 193.61 215.56 195.3C215.49 196.86 213.99 198.3 212.45 198.3C210.73 198.3 209.35 196.88 209.36 195.14L209.35 195.13Z" fill="#216BDC"/>
<path d="M207.63 196.88C209.43 196.9 210.71 198.22 210.67 200.03C210.63 201.75 209.15 203.16 207.46 203.09C205.9 203.02 204.46 201.52 204.46 199.98C204.46 198.26 205.88 196.88 207.62 196.89L207.63 196.88Z" fill="#216BDC"/>
<path d="M217.4 196.88C219.2 196.9 220.48 198.22 220.44 200.03C220.4 201.75 218.92 203.16 217.23 203.09C215.67 203.02 214.23 201.52 214.23 199.98C214.23 198.26 215.65 196.88 217.39 196.89L217.4 196.88Z" fill="#216BDC"/>
<path d="M180.88 215.63C180.9 213.83 182.22 212.55 184.03 212.59C185.75 212.63 187.16 214.11 187.09 215.8C187.02 217.36 185.52 218.8 183.98 218.8C182.26 218.8 180.88 217.38 180.89 215.64L180.88 215.63Z" fill="#216BDC"/>
<path d="M180.88 205.86C180.9 204.06 182.22 202.78 184.03 202.82C185.75 202.86 187.16 204.34 187.09 206.03C187.02 207.59 185.52 209.03 183.98 209.03C182.26 209.03 180.88 207.61 180.89 205.87L180.88 205.86Z" fill="#216BDC"/>
<path d="M179.16 207.61C180.96 207.63 182.24 208.95 182.2 210.76C182.16 212.48 180.68 213.89 178.99 213.82C177.43 213.75 175.99 212.25 175.99 210.71C175.99 208.99 177.41 207.61 179.15 207.62L179.16 207.61Z" fill="#216BDC"/>
<path d="M188.93 207.61C190.73 207.63 192.01 208.95 191.97 210.76C191.93 212.48 190.45 213.89 188.76 213.82C187.2 213.75 185.76 212.25 185.76 210.71C185.76 208.99 187.18 207.61 188.92 207.62L188.93 207.61Z" fill="#216BDC"/>
<path d="M235.48 215.63C235.5 213.83 236.82 212.55 238.63 212.59C240.35 212.63 241.76 214.11 241.69 215.8C241.62 217.36 240.12 218.8 238.58 218.8C236.86 218.8 235.48 217.38 235.49 215.64L235.48 215.63Z" fill="#216BDC"/>
<path d="M235.48 205.86C235.5 204.06 236.82 202.78 238.63 202.82C240.35 202.86 241.76 204.34 241.69 206.03C241.62 207.59 240.12 209.03 238.58 209.03C236.86 209.03 235.48 207.61 235.49 205.87L235.48 205.86Z" fill="#216BDC"/>
<path d="M233.76 207.61C235.56 207.63 236.84 208.95 236.8 210.76C236.76 212.48 235.28 213.89 233.59 213.82C232.03 213.75 230.59 212.25 230.59 210.71C230.59 208.99 232.01 207.61 233.75 207.62L233.76 207.61Z" fill="#216BDC"/>
<path d="M243.53 207.61C245.33 207.63 246.61 208.95 246.57 210.76C246.53 212.48 245.05 213.89 243.36 213.82C241.8 213.75 240.36 212.25 240.36 210.71C240.36 208.99 241.78 207.61 243.52 207.62L243.53 207.61Z" fill="#216BDC"/>
<path d="M236.43 248.4C236.45 246.6 237.77 245.32 239.58 245.36C241.3 245.4 242.71 246.88 242.64 248.57C242.57 250.13 241.07 251.57 239.53 251.57C237.81 251.57 236.43 250.15 236.44 248.41L236.43 248.4Z" fill="#216BDC"/>
<path d="M236.43 238.63C236.45 236.83 237.77 235.55 239.58 235.59C241.3 235.63 242.71 237.11 242.64 238.8C242.57 240.36 241.07 241.8 239.53 241.8C237.81 241.8 236.43 240.38 236.44 238.64L236.43 238.63Z" fill="#216BDC"/>
<path d="M234.71 240.38C236.51 240.4 237.79 241.72 237.75 243.53C237.71 245.25 236.23 246.66 234.54 246.59C232.98 246.52 231.54 245.02 231.54 243.48C231.54 241.76 232.96 240.38 234.7 240.39L234.71 240.38Z" fill="#216BDC"/>
<path d="M244.48 240.38C246.28 240.4 247.56 241.72 247.52 243.53C247.48 245.25 246 246.66 244.31 246.59C242.75 246.52 241.31 245.02 241.31 243.48C241.31 241.76 242.73 240.38 244.47 240.39L244.48 240.38Z" fill="#216BDC"/>
<path d="M181.25 248.4C181.27 246.6 182.59 245.32 184.4 245.36C186.12 245.4 187.53 246.88 187.46 248.57C187.39 250.13 185.89 251.57 184.35 251.57C182.63 251.57 181.25 250.15 181.26 248.41L181.25 248.4Z" fill="#216BDC"/>
<path d="M181.25 238.63C181.27 236.83 182.59 235.55 184.4 235.59C186.12 235.63 187.53 237.11 187.46 238.8C187.39 240.36 185.89 241.8 184.35 241.8C182.63 241.8 181.25 240.38 181.26 238.64L181.25 238.63Z" fill="#216BDC"/>
<path d="M179.53 240.38C181.33 240.4 182.61 241.72 182.57 243.53C182.53 245.25 181.05 246.66 179.36 246.59C177.8 246.52 176.36 245.02 176.36 243.48C176.36 241.76 177.78 240.38 179.52 240.39L179.53 240.38Z" fill="#216BDC"/>
<path d="M189.3 240.38C191.1 240.4 192.38 241.72 192.34 243.53C192.3 245.25 190.82 246.66 189.13 246.59C187.57 246.52 186.13 245.02 186.13 243.48C186.13 241.76 187.55 240.38 189.29 240.39L189.3 240.38Z" fill="#216BDC"/>
<path d="M174.63 143.59C176.95 140.53 179.27 137.48 181.58 134.43C181.72 134.25 181.86 134.06 182 133.88C184.77 130.39 187.53 126.89 190.33 123.43C191.09 122.49 191.23 121.84 190.27 120.87C186.26 116.8 184.48 111.75 183.68 106.17C183.2 102.85 183.62 99.71 184.51 96.58C185.09 94.56 185.82 92.59 186.52 90.5C181.72 87.11 176.71 83.58 171.61 79.99C169.4 82.19 166.77 83.36 163.83 83.91C160.1 84.61 156.6 84.21 153.2 82.37C147.87 79.48 145.32 75.06 144.76 69.06C144.02 61.07 150.68 53.57 158.28 52.38C167.01 51.01 175.54 57.69 176.54 65.88C176.96 69.3 176.31 72.27 175.05 75.36C180.04 78.89 185.03 82.41 190.19 86.05C196.5 78.59 204.84 76.51 214.49 77.54C214.97 75.82 215.46 74 215.97 72.2C216.25 71.22 216.58 70.25 216.88 69.28C217.71 66.59 218.57 63.9 219.34 61.2C219.43 60.89 219.19 60.29 218.91 60.09C215.12 57.44 214.05 53.6 214.07 49.26C214.07 48.81 214.19 48.34 214.34 47.9C215.79 43.44 218.58 40.63 223.27 39.26C229.12 37.55 236.74 42.52 237.33 49.7C237.86 56.1 232.55 62.54 225.18 62.21C223.48 67.82 221.76 73.5 220.04 79.16C221.81 80.28 223.5 81.33 225.17 82.39C225.63 82.68 226.12 82.96 226.52 83.33C229.93 86.45 232.71 90 234.1 94.48C234.38 95.39 234.81 95.64 235.7 95.48C238.95 94.91 242.21 94.41 245.46 93.83C246.73 93.6 247.99 93.3 249.21 92.89C249.59 92.76 249.98 92.17 250.06 91.74C250.98 86.41 255.69 81.85 260.83 81.68C268.42 81.43 273.61 87.1 273.26 94.37C273.03 99.11 268.42 104.65 263.03 104.87C258.7 105.05 254.92 103.89 252.41 100.09C251.65 98.94 250.89 98.62 249.58 98.88C246.76 99.44 243.89 99.81 241.06 100.34C239.34 100.66 237.65 101.15 236.25 101.48C235.66 104.63 235.34 107.79 234.44 110.77C233.56 113.71 232.09 116.48 230.84 119.4C235.95 124.25 241.22 129.25 246.48 134.23C251.16 131.17 255.98 130.28 261.31 132.3C267.46 134.63 270.68 139.09 271.54 145.44C272.87 155.17 264.69 163.5 255.1 163.1C247.32 162.78 240.59 156.31 239.92 148.79C239.64 145.6 240.28 142.84 241.62 140.1C242.14 139.03 242.13 138.27 241.17 137.37C236.8 133.29 232.51 129.12 228.18 125C227.59 124.43 226.89 123.97 226.34 123.54C222.69 126.4 218.65 128.05 214.21 129.01C210.5 129.81 206.92 129.58 203.36 128.56C200.77 127.82 198.26 126.8 195.57 125.86C193.94 128.02 192.1 130.44 190.26 132.87C190.15 133.02 190.03 133.16 189.92 133.31C187.29 136.62 184.66 139.92 182.05 143.23C181.17 144.35 180.29 145.48 179.54 146.69C179.35 147 179.52 147.7 179.75 148.09C181.89 151.76 182.62 155.63 181.14 159.67C178.8 166.06 172.9 169.08 166.26 167.99C159.73 166.92 155.19 160.17 155.88 153.72C156.45 148.31 161.64 142.74 167.52 142.29C170.05 142.1 172.27 142.56 174.61 143.58L174.63 143.59ZM210.27 123.6C215.08 123.38 219.36 122 222.99 118.53C226.8 114.89 229.33 110.81 229.76 105.43C230.17 100.31 229.2 95.73 226.03 91.57C222.65 87.13 218.5 84.28 212.9 83.36C206.97 82.39 201.82 83.8 197.16 87.46C192.59 91.05 189.94 95.63 189.48 101.49C189.15 105.68 189.6 109.62 191.97 113.21C194.13 116.49 196.58 119.33 200.17 121.24C203.39 122.96 206.66 123.78 210.26 123.59L210.27 123.6ZM170.89 68.11C170.93 63.33 167.75 59.67 163.11 58.47C158.62 57.3 152.49 59.97 151.06 65.46C149.71 70.68 152.13 75.69 157.1 77.73C163.26 80.26 171.11 76.08 170.88 68.11H170.89ZM255.47 137.12C251.07 137.14 247.32 140.06 246.16 144.37C244.63 150.04 247.08 154.73 252.52 156.78C258.14 158.89 263.64 155.42 265.42 150.23C267.61 143.81 262.62 136.62 255.47 137.13V137.12ZM169.37 162.58C171.29 162.03 173.45 161.33 174.95 159.02C177.19 155.57 175.98 150.14 171.74 148.6C168.69 147.49 165.6 148.01 163.44 150.49C161.5 152.72 160.77 155.43 162.1 157.99C163.43 160.54 165.59 162.58 169.36 162.58H169.37ZM219.91 50.81C219.91 53.94 222.59 56.47 225.86 56.48C229.29 56.48 231.38 53.99 231.45 50.54C231.52 47.17 229.03 44.89 225.46 44.92C222.36 44.94 219.92 47.54 219.92 50.81H219.91ZM261.71 87.66C258.97 87.73 257.57 88.53 256.57 90.78C255.2 93.86 256.23 97.04 259.08 98.54C261.7 99.91 265.08 98.79 266.69 95.98C267.77 94.09 267.81 92.14 266.67 90.29C265.64 88.61 264.25 87.37 261.71 87.66Z" fill="#216BDC"/>
</svg>
