<svg width="233" height="255" viewBox="0 0 233 255" fill="none" xmlns="http://www.w3.org/2000/svg">
<path d="M0.0200043 99.4176C0.210004 99.0176 0.460007 98.6377 0.570007 98.2177C1.41001 95.1577 3.32 93.0277 6.22 91.8277C10.41 90.0877 14.62 88.4077 18.83 86.7077C24.72 84.3277 30.61 81.9576 36.5 79.5876C37.41 79.2276 38.34 78.9376 39.11 78.6676C40.56 78.9376 41.61 79.4777 42.09 80.7377C42.76 82.4877 42.06 84.1677 40.16 84.9877C37.18 86.2877 34.16 87.4876 31.14 88.6976C24.06 91.5476 16.97 94.3877 9.88 97.2377C9.32 97.4677 8.74001 97.6777 8.24001 97.9977C6.20001 99.2976 6.15 102.178 8.16 103.518C8.72 103.888 9.37 104.138 10 104.388C36.44 115.038 62.88 125.678 89.33 136.318C95.08 138.628 100.86 140.888 106.57 143.288C113.05 146.008 119.45 145.958 125.96 143.328C150.63 133.348 175.32 123.438 200.01 113.498C207.51 110.478 215.02 107.458 222.52 104.428C223.08 104.198 223.65 103.978 224.17 103.668C226.47 102.298 226.48 99.2776 224.18 97.9176C223.6 97.5776 222.95 97.3277 222.32 97.0777C212.71 93.2077 203.11 89.3377 193.5 85.4677C193.01 85.2677 192.53 85.0476 192.05 84.8376C190.73 84.2576 190.01 83.2076 190.07 81.8076C190.13 80.4376 190.84 79.3676 192.24 78.9176C192.53 78.8276 192.81 78.7377 193.27 78.5977C193.93 78.8277 194.73 79.0577 195.49 79.3577C205.18 83.2377 214.86 87.1177 224.54 91.0077C225.45 91.3777 226.36 91.7676 227.22 92.2276C230.61 94.0276 232.33 96.9977 232.35 100.718C232.37 104.438 230.72 107.498 227.3 109.248C224.95 110.448 222.46 111.378 220 112.368C192.79 123.328 165.57 134.268 138.35 145.218C134.98 146.568 131.62 147.928 128.26 149.298C120.23 152.578 112.23 152.518 104.2 149.268C90.54 143.728 76.86 138.228 63.19 132.728C44.82 125.328 26.44 117.938 8.07001 110.538C7.16001 110.168 6.26 109.768 5.38 109.328C3.03 108.138 1.51 106.238 0.660004 103.768C0.470004 103.208 0.22 102.678 0 102.128C0 101.218 0 100.308 0 99.3977L0.0200043 99.4176Z" fill="#216BDC"/>
<path d="M0.0200043 49.5278C0.210004 49.1278 0.460007 48.7478 0.570007 48.3278C1.41001 45.2678 3.32 43.1378 6.22 41.9378C10.41 40.1978 14.62 38.5178 18.83 36.8178C24.72 34.4378 30.61 32.0678 36.5 29.6978C37.41 29.3378 38.34 29.0478 39.11 28.7778C40.56 29.0478 41.61 29.5878 42.09 30.8478C42.76 32.5978 42.06 34.2778 40.16 35.0978C37.18 36.3978 34.16 37.5978 31.14 38.8078C24.06 41.6578 16.97 44.4978 9.88 47.3478C9.32 47.5778 8.74001 47.7878 8.24001 48.1078C6.20001 49.4078 6.15 52.2878 8.16 53.6278C8.72 53.9978 9.37 54.2478 10 54.4978C36.44 65.1478 62.88 75.7878 89.33 86.4278C95.08 88.7378 100.86 90.9978 106.57 93.3978C113.05 96.1178 119.45 96.0678 125.96 93.4378C150.63 83.4578 175.32 73.5478 200.01 63.6078C207.51 60.5878 215.02 57.5678 222.52 54.5378C223.08 54.3078 223.65 54.0878 224.17 53.7778C226.47 52.4078 226.48 49.3878 224.18 48.0278C223.6 47.6878 222.95 47.4378 222.32 47.1878C212.71 43.3178 203.11 39.4478 193.5 35.5778C193.01 35.3778 192.53 35.1578 192.05 34.9478C190.73 34.3678 190.01 33.3178 190.07 31.9178C190.13 30.5478 190.84 29.4778 192.24 29.0278C192.53 28.9378 192.81 28.8478 193.27 28.7078C193.93 28.9378 194.73 29.1678 195.49 29.4678C205.18 33.3478 214.86 37.2278 224.54 41.1178C225.45 41.4878 226.36 41.8778 227.22 42.3378C230.61 44.1378 232.33 47.1078 232.35 50.8278C232.37 54.5478 230.72 57.6078 227.3 59.3578C224.95 60.5578 222.46 61.4878 220 62.4778C192.79 73.4378 165.57 84.3778 138.35 95.3278C134.98 96.6778 131.62 98.0378 128.26 99.4078C120.23 102.688 112.23 102.628 104.2 99.3778C90.54 93.8378 76.86 88.3378 63.19 82.8378C44.82 75.4378 26.44 68.0478 8.07001 60.6478C7.16001 60.2778 6.26 59.8778 5.38 59.4378C3.03 58.2478 1.51 56.3478 0.660004 53.8778C0.470004 53.3178 0.22 52.7878 0 52.2378C0 51.3278 0 50.4178 0 49.5078L0.0200043 49.5278Z" fill="#216BDC"/>
<path d="M0.0195312 149.378C0.169531 149.128 0.409528 148.888 0.469528 148.608C1.25953 144.828 3.70953 142.608 7.16953 141.248C11.1795 139.678 15.1595 138.028 19.1595 136.418C25.0495 134.048 30.9495 131.688 36.8395 129.318C37.3295 129.118 37.8095 128.888 38.3195 128.748C39.7295 128.368 41.3895 129.098 41.9795 130.328C42.6395 131.688 42.2395 133.558 40.9795 134.388C40.2295 134.888 39.3695 135.218 38.5295 135.558C29.1395 139.358 19.7395 143.138 10.3395 146.928C9.63953 147.208 8.90953 147.468 8.27953 147.858C6.19953 149.138 6.11953 151.998 8.14953 153.348C8.82953 153.808 9.63953 154.088 10.4095 154.398C27.0295 161.088 43.6595 167.768 60.2795 174.468C75.5695 180.628 90.8395 186.828 106.14 192.948C108.16 193.758 110.29 194.378 112.41 194.858C117.01 195.898 121.42 194.958 125.71 193.248C133.57 190.108 141.43 186.948 149.28 183.778C167.51 176.438 185.74 169.088 203.97 161.738C210.14 159.248 216.31 156.768 222.48 154.278C223.18 153.998 223.9 153.718 224.51 153.278C226.4 151.928 226.34 149.168 224.37 147.918C223.55 147.398 222.61 147.048 221.7 146.688C212.31 142.888 202.91 139.108 193.52 135.318C193.03 135.118 192.52 134.958 192.06 134.708C190.48 133.828 189.86 132.028 190.56 130.428C191.17 129.038 193.24 128.248 194.6 128.838C197.65 130.158 200.77 131.338 203.85 132.578C211.01 135.448 218.16 138.338 225.32 141.198C226.95 141.848 228.47 142.658 229.7 143.948C233.8 148.248 233.08 155.318 228.15 158.618C227.15 159.278 226.03 159.778 224.91 160.228C205.84 167.928 186.76 175.608 167.69 183.288C154.72 188.518 141.72 193.698 128.78 198.998C123.77 201.048 118.63 201.938 113.26 201.488C110.38 201.248 107.61 200.498 104.93 199.418C72.3195 186.288 39.7195 173.158 7.10953 160.028C3.74953 158.678 1.32953 156.508 0.489532 152.838C0.429532 152.568 0.179531 152.338 0.0195312 152.098C0.0195312 151.188 0.0195312 150.278 0.0195312 149.368V149.378Z" fill="#216BDC"/>
<path d="M0.0195312 202.568C0.169531 202.318 0.409528 202.078 0.469528 201.798C1.25953 198.018 3.70953 195.798 7.16953 194.438C11.1795 192.868 15.1595 191.218 19.1595 189.608C25.0495 187.238 30.9495 184.878 36.8395 182.508C37.3295 182.308 37.8095 182.078 38.3195 181.938C39.7295 181.558 41.3895 182.288 41.9795 183.518C42.6395 184.878 42.2395 186.748 40.9795 187.578C40.2295 188.078 39.3695 188.408 38.5295 188.748C29.1395 192.548 19.7395 196.328 10.3395 200.118C9.63953 200.398 8.90953 200.658 8.27953 201.048C6.19953 202.328 6.11953 205.188 8.14953 206.538C8.82953 206.998 9.63953 207.278 10.4095 207.588C27.0295 214.278 43.6595 220.958 60.2795 227.658C75.5695 233.818 90.8395 240.018 106.14 246.138C108.16 246.948 110.29 247.568 112.41 248.048C117.01 249.088 121.42 248.148 125.71 246.438C133.57 243.298 141.43 240.138 149.28 236.968C167.51 229.628 185.74 222.278 203.97 214.928C210.14 212.438 216.31 209.958 222.48 207.468C223.18 207.188 223.9 206.908 224.51 206.468C226.4 205.118 226.34 202.358 224.37 201.108C223.55 200.588 222.61 200.238 221.7 199.878C212.31 196.078 202.91 192.298 193.52 188.508C193.03 188.308 192.52 188.148 192.06 187.898C190.48 187.018 189.86 185.218 190.56 183.618C191.17 182.228 193.24 181.438 194.6 182.028C197.65 183.348 200.77 184.528 203.85 185.768C211.01 188.638 218.16 191.528 225.32 194.388C226.95 195.038 228.47 195.848 229.7 197.138C233.8 201.438 233.08 208.508 228.15 211.808C227.15 212.468 226.03 212.968 224.91 213.418C205.84 221.118 186.76 228.798 167.69 236.478C154.72 241.708 141.72 246.888 128.78 252.188C123.77 254.238 118.63 255.128 113.26 254.678C110.38 254.438 107.61 253.688 104.93 252.608C72.3195 239.478 39.7195 226.348 7.10953 213.218C3.74953 211.868 1.32953 209.698 0.489532 206.028C0.429532 205.758 0.179531 205.528 0.0195312 205.288C0.0195312 204.378 0.0195312 203.468 0.0195312 202.558V202.568Z" fill="#216BDC"/>
<path d="M225.77 41.6577C224.51 41.1477 223.25 40.6277 221.99 40.1277C190.85 27.5777 159.7 15.0477 128.58 2.4777C120.31 -0.862298 112.17 -0.812299 103.89 2.5477C75.3803 14.1177 46.8203 25.5677 18.2703 37.0577C14.4103 38.6077 10.5603 40.1677 6.70027 41.7277C3.56027 42.9977 1.40027 45.1477 0.55027 48.5077C0.46027 48.8477 0.210273 49.1477 0.0302734 49.4677V52.1977C0.160273 52.3777 0.370271 52.5477 0.410271 52.7477C1.22027 56.8077 3.90027 59.0377 7.59027 60.5077C26.1903 67.9377 44.7703 75.4477 63.3503 82.9477C64.8503 83.5577 66.3503 83.8377 67.9803 83.8377C72.9403 83.8377 77.9103 83.8377 82.8703 83.8377L65.1403 76.6877C64.8003 76.5977 64.4603 76.4677 64.1203 76.3277C54.9403 72.6177 45.7603 68.9177 36.5703 65.2077C27.8103 61.6777 19.0403 58.1377 10.2803 54.6077C9.65027 54.3577 9.00027 54.1177 8.42027 53.7777C6.12027 52.4377 6.11027 49.4077 8.42027 48.0377C9.00027 47.6977 9.65027 47.4677 10.2803 47.2077C26.9003 40.5177 43.5203 33.8377 60.1403 27.1477C75.5003 20.9577 90.8503 14.7677 106.19 8.5677C109.44 7.2577 112.78 6.3777 116.34 6.2577C119.58 6.3977 122.72 7.0977 125.77 8.3277C141.26 14.5777 156.76 20.8077 172.25 27.0477C188.8 33.7077 205.34 40.3777 221.88 47.0477C222.58 47.3277 223.29 47.6077 223.96 47.9377C225.24 48.5577 225.9 49.5877 225.85 51.0277C225.81 52.3677 225.17 53.3577 223.97 53.8977C222.39 54.6177 220.77 55.2577 219.16 55.9077C202.48 62.6277 185.78 69.3277 169.12 76.1077C168.65 76.2977 168.2 76.4377 167.76 76.5177L149.63 83.8277C154.58 83.8277 159.53 83.8277 164.48 83.8277C166.26 83.8277 167.91 83.4977 169.55 82.8377C180.2 78.5177 190.86 74.2277 201.52 69.9277C209.59 66.6777 217.66 63.4377 225.73 60.1977C229.87 58.5377 232.3 55.4877 232.35 51.0577C232.4 47.0477 230.57 43.5977 225.77 41.6677V41.6577Z" fill="#216BDC"/>
<path d="M112.66 86.9376C112.68 84.8976 114.18 83.4376 116.23 83.4776C118.18 83.5176 119.78 85.2076 119.7 87.1176C119.62 88.8876 117.92 90.5276 116.17 90.5276C114.22 90.5276 112.65 88.9176 112.66 86.9376Z" fill="#216BDC"/>
<path d="M112.66 75.8475C112.68 73.8075 114.18 72.3475 116.23 72.3875C118.18 72.4275 119.78 74.1175 119.7 76.0275C119.62 77.7975 117.92 79.4375 116.17 79.4375C114.22 79.4375 112.65 77.8275 112.66 75.8475Z" fill="#216BDC"/>
<path d="M110.71 77.8374C112.75 77.8574 114.21 79.3575 114.17 81.4075C114.13 83.3575 112.44 84.9575 110.53 84.8775C108.76 84.7975 107.12 83.0975 107.12 81.3475C107.12 79.3975 108.73 77.8274 110.71 77.8374Z" fill="#216BDC"/>
<path d="M121.8 77.8374C123.84 77.8574 125.3 79.3575 125.26 81.4075C125.22 83.3575 123.53 84.9575 121.62 84.8775C119.85 84.7975 118.21 83.0975 118.21 81.3475C118.21 79.3975 119.82 77.8274 121.8 77.8374Z" fill="#216BDC"/>
<path d="M112.66 55.4276C112.68 53.3876 114.18 51.9276 116.23 51.9676C118.18 52.0076 119.78 53.6976 119.7 55.6076C119.62 57.3776 117.92 59.0176 116.17 59.0176C114.22 59.0176 112.65 57.4076 112.66 55.4276Z" fill="#216BDC"/>
<path d="M112.66 44.3375C112.68 42.2975 114.18 40.8375 116.23 40.8775C118.18 40.9175 119.78 42.6075 119.7 44.5175C119.62 46.2875 117.92 47.9275 116.17 47.9275C114.22 47.9275 112.65 46.3175 112.66 44.3375Z" fill="#216BDC"/>
<path d="M110.71 46.3274C112.75 46.3474 114.21 47.8474 114.17 49.8974C114.13 51.8474 112.44 53.4474 110.53 53.3674C108.76 53.2874 107.12 51.5874 107.12 49.8374C107.12 47.8874 108.73 46.3174 110.71 46.3274Z" fill="#216BDC"/>
<path d="M121.8 46.3274C123.84 46.3474 125.3 47.8474 125.26 49.8974C125.22 51.8474 123.53 53.4474 121.62 53.3674C119.85 53.2874 118.21 51.5874 118.21 49.8374C118.21 47.8874 119.82 46.3174 121.8 46.3274Z" fill="#216BDC"/>
<path d="M48.4405 55.4276C48.4605 53.3876 49.9605 51.9276 52.0105 51.9676C53.9605 52.0076 55.5605 53.6976 55.4805 55.6076C55.4005 57.3776 53.7005 59.0176 51.9505 59.0176C50.0005 59.0176 48.4305 57.4076 48.4405 55.4276Z" fill="#216BDC"/>
<path d="M48.4405 44.3375C48.4605 42.2975 49.9605 40.8375 52.0105 40.8775C53.9605 40.9175 55.5605 42.6075 55.4805 44.5175C55.4005 46.2875 53.7005 47.9275 51.9505 47.9275C50.0005 47.9275 48.4305 46.3175 48.4405 44.3375Z" fill="#216BDC"/>
<path d="M46.4904 46.3274C48.5304 46.3474 49.9904 47.8474 49.9504 49.8974C49.9104 51.8474 48.2204 53.4474 46.3104 53.3674C44.5404 53.2874 42.9004 51.5874 42.9004 49.8374C42.9004 47.8874 44.5104 46.3174 46.4904 46.3274Z" fill="#216BDC"/>
<path d="M57.59 46.3274C59.63 46.3474 61.09 47.8474 61.05 49.8974C61.01 51.8474 59.32 53.4474 57.41 53.3674C55.64 53.2874 54 51.5874 54 49.8374C54 47.8874 55.61 46.3174 57.59 46.3274Z" fill="#216BDC"/>
<path d="M171.54 55.4276C171.56 53.3876 173.06 51.9276 175.11 51.9676C177.06 52.0076 178.66 53.6976 178.58 55.6076C178.5 57.3776 176.8 59.0176 175.05 59.0176C173.1 59.0176 171.53 57.4076 171.54 55.4276Z" fill="#216BDC"/>
<path d="M171.54 44.3375C171.56 42.2975 173.06 40.8375 175.11 40.8775C177.06 40.9175 178.66 42.6075 178.58 44.5175C178.5 46.2875 176.8 47.9275 175.05 47.9275C173.1 47.9275 171.53 46.3175 171.54 44.3375Z" fill="#216BDC"/>
<path d="M169.59 46.3274C171.63 46.3474 173.09 47.8474 173.05 49.8974C173.01 51.8474 171.32 53.4474 169.41 53.3674C167.64 53.2874 166 51.5874 166 49.8374C166 47.8874 167.61 46.3174 169.59 46.3274Z" fill="#216BDC"/>
<path d="M180.68 46.3274C182.72 46.3474 184.18 47.8474 184.14 49.8974C184.1 51.8474 182.41 53.4474 180.5 53.3674C178.73 53.2874 177.09 51.5874 177.09 49.8374C177.09 47.8874 178.7 46.3174 180.68 46.3274Z" fill="#216BDC"/>
<path d="M112.66 28.2477C112.68 26.2077 114.18 24.7477 116.23 24.7877C118.18 24.8277 119.78 26.5177 119.7 28.4277C119.62 30.1977 117.92 31.8377 116.17 31.8377C114.22 31.8377 112.65 30.2277 112.66 28.2477Z" fill="#216BDC"/>
<path d="M112.66 17.1576C112.68 15.1176 114.18 13.6576 116.23 13.6976C118.18 13.7376 119.78 15.4276 119.7 17.3376C119.62 19.1076 117.92 20.7476 116.17 20.7476C114.22 20.7476 112.65 19.1376 112.66 17.1576Z" fill="#216BDC"/>
<path d="M110.71 19.1475C112.75 19.1675 114.21 20.6675 114.17 22.7175C114.13 24.6675 112.44 26.2675 110.53 26.1875C108.76 26.1075 107.12 24.4075 107.12 22.6575C107.12 20.7075 108.73 19.1375 110.71 19.1475Z" fill="#216BDC"/>
<path d="M121.8 19.1475C123.84 19.1675 125.3 20.6675 125.26 22.7175C125.22 24.6675 123.53 26.2675 121.62 26.1875C119.85 26.1075 118.21 24.4075 118.21 22.6575C118.21 20.7075 119.82 19.1375 121.8 19.1475Z" fill="#216BDC"/>
<path d="M80.3409 40.4176C80.3609 38.3776 81.8609 36.9176 83.9109 36.9576C85.8609 36.9976 87.4609 38.6876 87.3809 40.5976C87.3009 42.3676 85.6009 44.0076 83.8509 44.0076C81.9009 44.0076 80.3309 42.3976 80.3409 40.4176Z" fill="#216BDC"/>
<path d="M80.3409 29.3275C80.3609 27.2875 81.8609 25.8275 83.9109 25.8675C85.8609 25.9075 87.4609 27.5975 87.3809 29.5075C87.3009 31.2775 85.6009 32.9175 83.8509 32.9175C81.9009 32.9175 80.3309 31.3075 80.3409 29.3275Z" fill="#216BDC"/>
<path d="M78.3908 31.3174C80.4308 31.3374 81.8908 32.8374 81.8508 34.8874C81.8108 36.8374 80.1208 38.4374 78.2108 38.3574C76.4408 38.2774 74.8008 36.5774 74.8008 34.8274C74.8008 32.8774 76.4108 31.3074 78.3908 31.3174Z" fill="#216BDC"/>
<path d="M89.4806 31.3174C91.5206 31.3374 92.9806 32.8374 92.9406 34.8874C92.9006 36.8374 91.2106 38.4374 89.3006 38.3574C87.5306 38.2774 85.8906 36.5774 85.8906 34.8274C85.8906 32.8774 87.5006 31.3074 89.4806 31.3174Z" fill="#216BDC"/>
<path d="M142.341 40.4176C142.361 38.3776 143.861 36.9176 145.911 36.9576C147.861 36.9976 149.461 38.6876 149.381 40.5976C149.301 42.3676 147.601 44.0076 145.851 44.0076C143.901 44.0076 142.331 42.3976 142.341 40.4176Z" fill="#216BDC"/>
<path d="M142.341 29.3275C142.361 27.2875 143.861 25.8275 145.911 25.8675C147.861 25.9075 149.461 27.5975 149.381 29.5075C149.301 31.2775 147.601 32.9175 145.851 32.9175C143.901 32.9175 142.331 31.3075 142.341 29.3275Z" fill="#216BDC"/>
<path d="M140.391 31.3174C142.431 31.3374 143.891 32.8374 143.851 34.8874C143.811 36.8374 142.121 38.4374 140.211 38.3574C138.441 38.2774 136.801 36.5774 136.801 34.8274C136.801 32.8774 138.411 31.3074 140.391 31.3174Z" fill="#216BDC"/>
<path d="M151.481 31.3174C153.521 31.3374 154.981 32.8374 154.941 34.8874C154.901 36.8374 153.211 38.4374 151.301 38.3574C149.531 38.2774 147.891 36.5774 147.891 34.8274C147.891 32.8774 149.501 31.3074 151.481 31.3174Z" fill="#216BDC"/>
<path d="M143.41 73.3478C143.43 71.3078 144.93 69.8478 146.98 69.8878C148.93 69.9278 150.53 71.6178 150.45 73.5278C150.37 75.2978 148.67 76.9378 146.92 76.9378C144.97 76.9378 143.4 75.3278 143.41 73.3478Z" fill="#216BDC"/>
<path d="M143.41 62.2577C143.43 60.2177 144.93 58.7577 146.98 58.7977C148.93 58.8377 150.53 60.5277 150.45 62.4377C150.37 64.2077 148.67 65.8477 146.92 65.8477C144.97 65.8477 143.4 64.2377 143.41 62.2577Z" fill="#216BDC"/>
<path d="M141.46 64.2376C143.5 64.2576 144.96 65.7576 144.92 67.8076C144.88 69.7576 143.19 71.3576 141.28 71.2776C139.51 71.1976 137.87 69.4976 137.87 67.7476C137.87 65.7976 139.48 64.2276 141.46 64.2376Z" fill="#216BDC"/>
<path d="M152.56 64.2376C154.6 64.2576 156.06 65.7576 156.02 67.8076C155.98 69.7576 154.29 71.3576 152.38 71.2776C150.61 71.1976 148.97 69.4976 148.97 67.7476C148.97 65.7976 150.58 64.2276 152.56 64.2376Z" fill="#216BDC"/>
<path d="M80.7608 73.3478C80.7808 71.3078 82.2808 69.8478 84.3308 69.8878C86.2808 69.9278 87.8808 71.6178 87.8008 73.5278C87.7208 75.2978 86.0208 76.9378 84.2708 76.9378C82.3208 76.9378 80.7508 75.3278 80.7608 73.3478Z" fill="#216BDC"/>
<path d="M80.7608 62.2577C80.7808 60.2177 82.2808 58.7577 84.3308 58.7977C86.2808 58.8377 87.8808 60.5277 87.8008 62.4377C87.7208 64.2077 86.0208 65.8477 84.2708 65.8477C82.3208 65.8477 80.7508 64.2377 80.7608 62.2577Z" fill="#216BDC"/>
<path d="M78.8107 64.2376C80.8507 64.2576 82.3107 65.7576 82.2707 67.8076C82.2307 69.7576 80.5407 71.3576 78.6307 71.2776C76.8607 71.1976 75.2207 69.4976 75.2207 67.7476C75.2207 65.7976 76.8307 64.2276 78.8107 64.2376Z" fill="#216BDC"/>
<path d="M89.9103 64.2376C91.9503 64.2576 93.4103 65.7576 93.3703 67.8076C93.3303 69.7576 91.6403 71.3576 89.7303 71.2776C87.9603 71.1976 86.3203 69.4976 86.3203 67.7476C86.3203 65.7976 87.9303 64.2276 89.9103 64.2376Z" fill="#216BDC"/>
</svg>
