<svg width="241" height="209" viewBox="0 0 241 209" fill="none" xmlns="http://www.w3.org/2000/svg">
<path d="M0.0195312 102.14C0.0895313 102.1 0.199536 102.08 0.219536 102.03C1.43954 97.9297 4.37953 95.6997 8.23953 94.1997C18.1895 90.3197 28.0695 86.2697 37.9795 82.2897C38.5595 82.0597 39.1295 81.7697 39.7295 81.6197C41.4295 81.1897 43.0495 82.0297 43.7495 83.6497C44.4395 85.2397 43.9495 87.0197 42.4595 87.9597C41.8095 88.3697 41.0595 88.6497 40.3395 88.9397C30.2995 92.9997 20.2495 97.0497 10.1995 101.1C9.97953 101.19 9.74953 101.23 9.52953 101.32C8.11953 101.88 7.12953 102.81 7.08953 104.43C7.04953 106.17 8.09953 107.12 9.59953 107.72C16.8295 110.62 24.0695 113.53 31.2995 116.43C57.6895 127.05 84.0995 137.63 110.46 148.32C117.13 151.02 123.61 150.95 130.25 148.27C159.23 136.56 188.23 124.9 217.22 113.23C221.34 111.57 225.46 109.91 229.58 108.25C230.01 108.08 230.45 107.9 230.88 107.73C232.39 107.14 233.42 106.15 233.39 104.43C233.36 102.7 232.23 101.81 230.74 101.22C228.42 100.31 226.12 99.3497 223.8 98.4197C215.78 95.1897 207.75 91.9597 199.73 88.7297C199.22 88.5297 198.7 88.3497 198.23 88.0897C196.54 87.1497 195.89 85.3797 196.58 83.7197C197.31 81.9397 199.11 81.0597 201 81.7097C202.77 82.3197 204.48 83.0997 206.21 83.7897C214.96 87.2997 223.72 90.8097 232.47 94.3197C233.12 94.5797 233.77 94.8497 234.4 95.1597C238.39 97.0697 240.46 100.3 240.41 104.68C240.36 108.96 238.26 112.15 234.31 113.89C230.74 115.46 227.1 116.84 223.48 118.3C193.12 130.53 162.75 142.76 132.4 155.01C124.25 158.3 116.16 158.27 108.01 154.98C79.9695 143.65 51.9195 132.36 23.8695 121.06C18.4495 118.87 13.0695 116.59 7.59953 114.52C3.99953 113.15 1.41954 110.96 0.359535 107.17C0.329535 107.05 0.139533 106.97 0.0295334 106.88C0.0295334 105.31 0.0295334 103.75 0.0295334 102.18L0.0195312 102.14Z" fill="#216BDC"/>
<path d="M0.0199966 153.79C0.0899966 153.75 0.199999 153.72 0.209999 153.67C1.37 149.54 4.29 147.31 8.15 145.8C18.09 141.91 27.97 137.86 37.87 133.87C38.45 133.64 39.02 133.35 39.62 133.21C41.47 132.77 43.11 133.66 43.76 135.4C44.37 137.03 43.81 138.7 42.24 139.62C41.51 140.05 40.68 140.34 39.89 140.66C29.92 144.7 19.95 148.72 9.99 152.76C9.56 152.93 9.1 153.06 8.7 153.3C6.6 154.55 6.5 157.4 8.52 158.74C9.03 159.08 9.65 159.27 10.22 159.5C42.38 172.46 74.54 185.42 106.7 198.38C108.51 199.11 110.31 199.84 112.14 200.5C117.64 202.48 123.18 202.49 128.63 200.38C136.76 197.22 144.85 193.94 152.94 190.68C178.53 180.39 204.12 170.09 229.71 159.79C230.29 159.56 230.85 159.27 231.42 159.02C232.69 158.45 233.34 157.44 233.37 156.08C233.4 154.69 232.68 153.68 231.43 153.13C229.65 152.34 227.83 151.65 226.02 150.92C217.21 147.36 208.39 143.8 199.58 140.24C199.15 140.07 198.7 139.92 198.29 139.69C196.72 138.79 196.09 137.14 196.66 135.51C197.29 133.73 198.87 132.82 200.73 133.2C201.26 133.31 201.77 133.54 202.27 133.74C212.39 137.81 222.51 141.87 232.63 145.95C233.21 146.18 233.77 146.46 234.34 146.72C238.29 148.53 240.33 151.69 240.39 155.96C240.45 160.36 238.3 163.61 234.32 165.44C231.06 166.93 227.69 168.16 224.36 169.5C194.08 181.7 163.79 193.89 133.52 206.1C129.95 207.54 126.34 208.64 122.46 208.91C117.53 209.25 112.83 208.46 108.26 206.62C74.65 193.08 41.05 179.54 7.43 166.02C4.07 164.67 1.5 162.61 0.43 159.01C0.37 158.82 0.15 158.68 0 158.52C0 156.95 0 155.39 0 153.82L0.0199966 153.79Z" fill="#216BDC"/>
<path d="M239.95 49.82C238.99 46.72 236.91 44.5899 233.92 43.3799C226.84 40.5099 219.76 37.65 212.68 34.79C185.86 23.99 159.04 13.1999 132.22 2.38995C124.07 -0.890051 115.98 -0.75005 107.84 2.53995C74.6798 15.93 41.4998 29.3 8.28976 42.59C4.44976 44.13 1.47976 46.29 0.209763 50.37C0.189763 50.42 0.0797656 50.44 0.00976562 50.48V55.18C1.40977 59.04 3.99976 61.5699 7.88976 63.1099C27.1598 70.7499 46.3798 78.5199 65.5898 86.2799C67.0098 86.8499 68.3998 87.09 69.9098 87.09C103.48 87.07 137.05 87.07 170.62 87.09C172.13 87.09 173.52 86.8399 174.94 86.2699C191.41 79.6099 207.9 73.0099 224.38 66.3699C227.78 64.9999 231.21 63.7099 234.53 62.1699C239.33 59.9399 241.5 54.8599 239.95 49.8299V49.82ZM87.1898 79.9699C87.1598 79.8999 87.1298 79.8299 87.1098 79.7499C89.6798 78.7199 92.2598 77.6799 94.8298 76.6499C100.76 74.2799 106.66 71.8399 112.63 69.5799C117.55 67.7199 122.68 67.6499 127.56 69.4599C136.02 72.6099 144.35 76.1299 152.72 79.4999C152.92 79.5799 153.2 79.5999 153.24 79.9599H87.1898V79.9699ZM231.29 55.95C230.59 56.29 229.86 56.5699 229.14 56.8599C210.78 64.2599 192.41 71.6399 174.07 79.0799C172.71 79.6299 171.6 79.5099 170.3 78.9799C157.44 73.7599 144.58 68.56 131.69 63.43C123.94 60.35 116.15 60.45 108.4 63.57C95.6098 68.7299 82.8098 73.8699 70.0298 79.0599C68.7898 79.5699 67.7398 79.5899 66.4698 79.0799C47.8398 71.5199 29.1798 64.0099 10.5298 56.4999C10.0998 56.3299 9.64977 56.18 9.22977 55.98C7.91977 55.38 7.05976 54.4199 7.08976 52.9199C7.11976 51.4499 7.85976 50.4299 9.23976 49.8799C12.4198 48.5999 15.5898 47.2999 18.7698 46.0199C47.6098 34.3999 76.4498 22.7699 105.31 11.1699C108.63 9.82995 111.87 8.20994 115.42 7.54994C117.18 7.21994 118.98 7.11995 120.76 6.91995C124.62 6.99995 128.14 8.27994 131.62 9.68994C153.31 18.4299 174.99 27.1799 196.67 35.9199C207.73 40.3799 218.8 44.8199 229.86 49.2699C230.37 49.4699 230.85 49.7299 231.36 49.9399C232.65 50.4799 233.33 51.4599 233.38 52.8299C233.44 54.3399 232.61 55.3199 231.31 55.9399L231.29 55.95Z" fill="#216BDC"/>
</svg>
