<svg width="88" height="72" viewBox="0 0 88 72" fill="none" xmlns="http://www.w3.org/2000/svg">
<path d="M29.3593 0.00326657C34.2337 0.00326657 39.1082 -0.00408322 43.9789 0.00326657C53.273 0.021641 62.5671 0.0473646 71.8612 0.0657391C72.3746 0.0657391 72.9138 -0.0555332 73.3979 0.0620634C73.9114 0.183335 74.5679 0.389131 74.832 0.77867C79.149 7.18769 83.4109 13.6298 87.6875 20.0682C88.1313 20.7333 88.1093 21.3471 87.5774 21.9681C73.6693 38.1487 59.7539 54.3255 45.8752 70.5355C44.232 72.4575 43.8469 72.5273 42.1194 70.5098C28.468 54.5461 14.769 38.6227 1.08463 22.6847C0.868235 22.4311 0.644503 22.1849 0.417102 21.9387C-0.111053 21.3617 -0.122055 20.748 0.296069 20.1196C4.58733 13.6555 8.86759 7.18769 13.1955 0.752945C13.4486 0.378106 14.0868 0.069414 14.5489 0.0657391C19.4821 0.0179655 24.4188 0.0363393 29.352 0.0363393C29.352 0.0289895 29.352 0.0179649 29.352 0.0106151L29.3593 0.00326657ZM30.8741 22.3062C35.235 36.9213 39.5703 51.4555 43.9056 65.986C43.9789 65.9823 44.0486 65.975 44.122 65.9713C48.4573 51.4297 52.7962 36.8919 57.1462 22.3062H30.8741ZM4.01883 22.229C16.3828 36.6273 28.5891 50.8491 40.953 65.2437C40.9017 64.8541 40.9054 64.7071 40.865 64.5712C36.7168 50.6727 32.5612 36.7743 28.4314 22.8685C28.259 22.2841 27.9509 22.218 27.4484 22.2217C22.2402 22.2327 17.032 22.229 11.8238 22.229C9.31139 22.229 6.79898 22.229 4.01883 22.229ZM47.0562 64.9276C47.1149 64.9717 47.1735 65.0158 47.2286 65.0636C59.4422 50.8381 71.6558 36.6126 84.0051 22.229C83.4512 22.229 83.1541 22.229 82.8571 22.229C75.5326 22.229 68.2117 22.2474 60.8873 22.207C60.0363 22.2033 59.6989 22.4495 59.4605 23.2617C56.3099 33.9446 53.119 44.6128 49.939 55.2884C48.9817 58.5039 48.0208 61.7158 47.0598 64.9313L47.0562 64.9276ZM41.4445 2.63082H16.878C21.0115 8.09538 25.057 13.446 29.1649 18.8738C33.2801 13.4313 37.322 8.08436 41.4445 2.63082ZM71.1349 2.64551H46.5904C50.7203 8.10641 54.7621 13.4497 58.8627 18.8738C62.9852 13.4203 67.0197 8.08803 71.1349 2.64551ZM31.7837 19.5831H56.2402C52.136 14.159 48.1125 8.83771 44.0119 3.42092C39.9041 8.84874 35.8805 14.1663 31.7837 19.5831ZM26.5755 19.6272C22.4529 14.1773 18.4441 8.88181 14.3766 3.50176C10.7748 8.92958 7.25745 14.2288 3.67406 19.6272H26.5755ZM61.4704 19.5978H84.3315C80.7408 14.192 77.2197 8.89284 73.64 3.50544C69.5468 8.91488 65.5526 14.1994 61.4668 19.5978H61.4704Z" fill="black"/>
</svg>
