<svg width="312" height="312" viewBox="0 0 312 312" fill="none" xmlns="http://www.w3.org/2000/svg">
<path d="M183.94 91.9203C184 142.48 142.88 183.71 92.14 183.96C41.51 184.21 0.01 142.77 0 91.9603C0 41.2203 40.98 0.120262 91.72 0.000261598C142.56 -0.119738 183.87 41.0603 183.93 91.9203H183.94ZM10.15 92.1403C10.35 137.34 47.19 173.93 92.32 173.75C137.21 173.57 173.85 136.68 173.74 91.7503C173.63 46.7803 136.92 10.1603 91.94 10.1603C46.83 10.1603 9.96 47.1203 10.16 92.1403H10.15Z" fill="#216BDC"/>
<path d="M311.649 229.85C311.709 275.1 275.119 311.73 229.869 311.69C184.769 311.65 148.289 275.18 148.239 230.08C148.189 184.8 184.729 148.24 230.019 148.27C275.119 148.29 311.589 184.74 311.659 229.86L311.649 229.85ZM301.499 230.06C301.589 190.77 269.709 158.69 230.219 158.37C190.939 158.05 158.479 190.34 158.359 229.86C158.239 269.25 190.599 301.61 230.019 301.53C269.389 301.45 301.409 269.44 301.499 230.06Z" fill="#216BDC"/>
<path d="M306.529 81.5703C306.619 112.61 281.569 137.85 250.619 137.91C219.459 137.97 194.099 112.73 194.109 81.6803C194.119 50.7903 219.409 25.5403 250.319 25.5303C281.369 25.5303 306.439 50.5203 306.519 81.5703H306.529ZM250.299 127.68C275.559 127.72 296.309 107.14 296.429 81.9003C296.559 56.7003 275.919 35.9203 250.649 35.7903C225.109 35.6703 204.429 56.2303 204.429 81.7303C204.429 107.06 224.969 127.64 250.289 127.68H250.299Z" fill="#216BDC"/>
<path d="M86.6893 275.89C69.6793 275.81 56.1393 262.11 56.2093 245.07C56.2893 228.29 69.9393 214.72 86.7793 214.7C103.739 214.68 117.559 228.46 117.529 245.35C117.499 262.25 103.639 275.98 86.6893 275.9V275.89ZM107.209 245.41C107.249 234.12 98.1693 224.9 86.9393 224.83C75.6993 224.76 66.5093 233.88 66.4493 245.18C66.3893 256.46 75.4792 265.7 86.7092 265.78C97.8892 265.86 107.169 256.64 107.209 245.41Z" fill="#216BDC"/>
<path d="M122.719 302.37C120.289 305.3 118.849 307.37 117.069 309.09C114.549 311.54 111.489 311.55 109.499 309.29C107.289 306.78 107.629 304.23 109.859 301.97C111.599 300.21 113.569 298.67 116.139 296.42C113.989 294.56 112.339 293.29 110.869 291.84C107.569 288.58 107.179 285.87 109.519 283.45C111.869 281.01 114.749 281.34 117.929 284.55C119.409 286.05 120.699 287.73 122.659 290C124.849 287.47 126.419 285.35 128.289 283.55C130.579 281.34 133.249 281.1 135.589 283.45C137.929 285.81 137.639 288.46 135.429 290.75C133.709 292.54 131.719 294.07 128.479 296.93C130.889 298.57 132.809 299.55 134.329 300.98C137.619 304.08 137.969 307 135.689 309.37C133.409 311.73 130.339 311.41 127.299 308.26C125.839 306.75 124.699 304.93 122.729 302.38L122.719 302.37Z" fill="#216BDC"/>
<path d="M40.6994 286.28C40.6494 289.07 38.4394 291.3 35.7194 291.3C32.8594 291.3 30.5794 288.85 30.7094 285.92C30.8394 283.19 33.2094 280.98 35.8794 281.08C38.6194 281.19 40.7394 283.47 40.6894 286.27L40.6994 286.28Z" fill="#216BDC"/>
<path d="M189.189 20.3204C186.399 20.3904 184.169 18.3004 184.049 15.5004C183.939 12.6904 185.959 10.4104 188.739 10.2404C191.659 10.0604 194.049 12.3004 194.069 15.2404C194.079 18.0304 191.959 20.2504 189.189 20.3204Z" fill="#216BDC"/>
<path d="M40.7099 204.48C43.5199 204.42 45.7199 206.48 45.8399 209.28C45.9599 212.24 43.7199 214.56 40.7799 214.52C37.9799 214.49 35.8599 212.34 35.8399 209.52C35.8299 206.69 37.8999 204.53 40.7199 204.47L40.7099 204.48Z" fill="#216BDC"/>
<path d="M58.1792 77.1303C53.5392 68.6603 50.7492 59.6803 49.0992 50.3103C48.9492 49.4503 48.7792 48.5903 48.7592 47.7203C48.6692 44.7803 50.1592 42.8703 52.9792 42.4303C55.9992 41.9503 57.9692 43.5003 58.7392 46.4803C60.1192 51.7803 61.2792 57.1403 62.9292 62.3503C63.9692 65.6203 65.7492 68.6603 67.5992 72.6703C70.6592 64.5603 75.3992 59.4103 83.1692 57.6603C90.9192 55.9103 97.3692 58.4603 103.249 64.2603C104.789 57.2103 103.539 50.7703 102.439 44.3503C102.099 42.3903 101.529 40.4703 101.049 38.5403C100.049 34.5103 101.169 31.7803 104.189 30.9203C107.329 30.0203 109.769 31.9303 110.949 36.1303C113.349 44.7203 114.619 53.4403 113.969 62.3703C113.919 63.0803 113.969 63.8003 113.969 65.3403C120.089 58.9203 122.839 51.8403 123.609 43.8903C123.809 41.7903 123.679 39.6503 123.669 37.5303C123.649 33.7503 125.179 31.6703 128.219 31.4203C131.429 31.1603 133.569 33.0403 133.899 36.9503C134.859 48.4803 131.709 58.8903 124.959 68.2403C123.949 69.6403 122.839 70.9603 122.069 71.9303C126.699 74.1403 131.639 75.7603 135.749 78.6003C145.979 85.6703 150.229 96.3503 151.879 108.23C152.299 111.27 150.079 113.79 147.239 113.92C143.909 114.08 142.159 112.2 141.689 109.08C140.659 102.17 138.439 95.7903 133.819 90.4103C133.419 89.9403 133.149 89.3503 132.949 89.0503C133.619 96.3303 134.759 103.47 134.819 110.62C134.909 121.92 132.179 132.85 128.829 143.59C127.749 147.05 125.299 148.43 122.329 147.62C119.339 146.8 118.369 144.17 119.109 140.38C121.099 130.26 123.379 120.16 124.559 109.94C125.139 104.91 123.859 99.5603 122.809 94.4803C122.069 90.8703 119.679 88.0303 115.499 86.3303C118.279 94.7603 119.309 103.05 117.539 111.26C116.219 117.38 114.519 123.71 111.509 129.12C106.169 138.7 96.6392 140.56 87.5792 134.16C75.7992 125.84 69.3492 114 66.7392 99.9503C66.6292 99.3403 66.6092 98.7203 66.5392 98.1003C66.1692 97.9703 65.7892 97.8403 65.4192 97.7103C64.6092 100.09 62.9392 102.56 63.1792 104.83C63.6992 109.71 64.5892 114.73 66.4392 119.24C70.5992 129.37 77.3492 137.92 84.4892 146.14C84.9792 146.7 85.5192 147.23 85.9992 147.8C88.4392 150.66 88.4892 153.71 86.1692 155.74C83.8792 157.73 81.0392 157.51 78.5992 154.79C75.3492 151.17 72.1492 147.49 69.2292 143.61C62.3792 134.5 56.3992 124.89 53.7492 113.6C53.2692 111.56 53.0092 109.47 52.6192 107.24C49.9792 111.36 49.5392 118.48 51.3792 125.93C51.7092 127.26 52.2292 128.55 52.4592 129.89C52.9792 132.9 51.7992 135.11 48.8492 135.97C46.0292 136.79 43.7992 135.51 42.8492 132.87C38.0592 119.43 38.5492 101.54 51.6992 90.1803C52.7192 89.3003 53.7492 88.4403 54.9892 87.4003C43.4292 82.3803 34.9892 74.6303 29.8892 63.4603C29.2692 62.1103 28.7192 60.7003 28.3192 59.2703C27.4692 56.2503 28.6492 54.0803 31.4992 53.0203C34.2892 51.9803 36.3592 53.1903 37.6892 55.7003C39.3292 58.7703 40.6392 62.0403 42.5292 64.9403C46.2792 70.7103 51.4592 74.8503 58.1792 77.1503V77.1303ZM108.719 104.87C107.719 99.3503 107.229 95.2703 106.199 91.3203C105.279 87.7703 102.539 85.6703 98.8892 86.3103C92.7992 87.3903 86.7392 88.8003 80.7892 90.5203C77.5192 91.4603 76.2092 94.4203 76.7292 97.7103C78.4792 108.88 83.6992 118.2 92.5492 125.24C97.3392 129.06 101.269 128.3 103.579 122.58C106.009 116.56 107.269 110.06 108.719 104.87ZM77.9992 79.9203C84.6092 78.4503 90.9592 77.0303 97.3092 75.6103C96.4292 69.9503 91.4492 66.4803 85.7192 67.5303C80.0992 68.5603 76.7092 73.9703 77.9992 79.9203Z" fill="#216BDC"/>
<path d="M257.59 194.98C263.71 202.96 266.76 211.65 264.28 221.39C263.24 225.49 263.68 228.89 264.96 232.8C273.29 258.31 257 285.6 230.96 290.17C210.05 293.84 189.13 278.37 185.8 256.61C183.12 239.04 188.57 224.44 202.24 212.95C203.13 212.2 204.06 211.09 204.26 210.02C206.3 198.93 212.68 191.39 222.82 186.81C223.15 186.66 223.45 186.41 223.9 186.12C222.4 183.52 220.85 180.97 219.43 178.35C217.9 175.55 218.24 173 220.97 171.14C223.35 169.52 226.28 170.27 228.06 173.03C230.43 176.68 231.85 181.47 235.08 183.89C238.29 186.3 243.22 186.46 247.44 187.42C248.49 187.66 249.86 187.47 250.81 186.97C254 185.28 257.05 183.32 260.18 181.53C262.97 179.93 265.49 180.26 267.39 182.96C269.14 185.46 268.35 188.35 265.37 190.3C262.88 191.93 260.28 193.38 257.6 194.98H257.59ZM252.74 230.42C247.57 217.93 231.99 211.3 218.25 215.75C203.73 220.45 192.75 237.68 195.91 250.78C203.78 248.28 208.9 249.96 211.26 255.8C213.64 261.7 210.92 266.52 203.23 270.06C210.41 279.49 223.9 282.97 235.59 278.41C248.78 273.27 258.06 258.54 256.63 245.03C249.89 246.65 245.81 244.87 244.82 239.89C243.83 234.93 246.6 231.62 252.75 230.42H252.74ZM254.57 215.19C254.58 204.78 247.25 196.48 237.34 194.94C229.05 193.65 219.5 198.52 217.41 205.27C231.32 202.16 243.59 205.35 254.56 215.19H254.57Z" fill="#216BDC"/>
<path d="M269.849 70.1103C270.299 72.4303 270.669 74.3703 271.039 76.2503C279.319 77.2803 281.169 78.2203 280.899 81.7403C280.399 88.1803 275.049 86.4603 271.229 87.1003C269.739 91.1203 269.329 94.5503 273.329 97.6403C276.529 100.1 276.609 103.53 274.419 105.74C272.209 107.98 269.199 107.64 266.229 104.83C265.429 104.07 264.609 103.33 263.669 102.47C254.889 108.82 246.099 108.99 237.119 102.46C235.849 103.62 234.639 104.82 233.329 105.9C231.099 107.73 228.699 107.85 226.569 105.88C224.299 103.78 224.259 101.33 226.109 98.8503C226.259 98.6503 226.399 98.4203 226.599 98.2903C230.709 95.5503 231.779 91.9103 229.349 87.0903C225.849 86.4003 219.609 88.2603 219.909 81.3803C220.169 75.4403 225.669 76.8703 229.409 76.4803C229.639 76.1203 229.849 75.9403 229.879 75.7303C230.453 71.8969 228.973 69.1003 225.439 67.3403C224.439 66.8403 223.399 66.3903 222.459 65.7903C219.909 64.1503 218.939 61.8103 220.349 59.0503C221.739 56.3403 224.179 55.5203 227.009 56.7503C229.629 57.8903 232.089 59.4303 234.749 60.4603C235.759 60.8503 237.409 60.7403 238.299 60.1603C246.389 54.8403 254.339 54.8703 262.459 60.1203C263.409 60.7403 265.189 60.7203 266.329 60.2903C268.879 59.3403 271.229 57.8503 273.739 56.7603C276.559 55.5303 278.999 56.2703 280.389 59.0203C281.769 61.7503 280.949 64.2103 278.309 65.7503C275.639 67.3103 272.809 68.6103 269.859 70.1203L269.849 70.1103ZM260.559 82.0803C260.559 79.9703 260.729 77.8303 260.529 75.7403C259.989 70.2403 255.619 66.4103 250.199 66.5003C244.759 66.5903 240.589 70.5503 240.319 76.1403C240.139 79.8603 240.139 83.6103 240.319 87.3303C240.599 92.9003 244.809 96.8803 250.219 96.9603C255.619 97.0403 259.979 93.1703 260.529 87.6803C260.709 85.8303 260.559 83.9503 260.559 82.0903V82.0803Z" fill="#216BDC"/>
<path d="M244.21 257.25C244.26 262.97 239.79 267.47 234.07 267.47C228.49 267.47 224.05 263.16 223.93 257.62C223.8 251.9 228.22 247.27 233.89 247.18C239.59 247.09 244.17 251.56 244.21 257.25Z" fill="#216BDC"/>
<path d="M216.4 226.69C220.65 226.75 223.99 230.16 223.93 234.37C223.87 238.51 220.33 241.96 216.2 241.91C211.99 241.86 208.66 238.41 208.71 234.17C208.76 229.91 212.13 226.63 216.4 226.69Z" fill="#216BDC"/>
</svg>
