<svg width="296" height="296" viewBox="0 0 296 296" fill="none" xmlns="http://www.w3.org/2000/svg">
<path d="M191.37 295.162C189.16 293.882 188.38 292.012 188.39 289.432C188.47 265.422 188.45 241.402 188.42 217.392C188.42 210.982 189.59 204.812 191.68 198.772C195.51 187.722 199.55 176.732 202.98 165.552C204.59 160.302 205.67 154.692 205.76 149.222C206.09 129.532 205.9 109.842 205.87 90.1516C205.87 88.9116 205.82 87.6216 205.47 86.4616C204.57 83.4516 201.63 81.3716 198.53 81.3316C195.42 81.2916 192.45 83.2516 191.47 86.2816C191.01 87.7116 190.86 89.2916 190.86 90.8116C190.82 104.552 190.83 118.282 190.83 132.022C190.83 132.792 190.86 133.562 190.81 134.322C190.64 136.892 189.04 138.572 186.71 138.672C184.32 138.772 182.43 137.022 182.22 134.382C182.1 132.852 182.18 131.312 182.18 129.772C182.18 112.382 182.2 95.0016 182.16 77.6116C182.16 72.7816 179.06 69.5216 174.68 69.5216C170.34 69.5216 167.26 72.8316 167.15 77.6116C167.13 78.3816 167.15 79.1516 167.15 79.9216C167.15 97.3116 167.15 114.692 167.15 132.082C167.15 133.042 167.23 134.022 167.08 134.962C166.69 137.242 165.24 138.582 162.95 138.652C160.65 138.722 159.15 137.422 158.63 135.192C158.42 134.272 158.51 133.282 158.51 132.322C158.51 110.802 158.51 89.2916 158.51 67.7716C158.51 66.8116 158.54 65.8516 158.48 64.8916C158.22 60.8716 155.14 57.8116 151.25 57.6816C147.4 57.5516 144.06 60.4516 143.56 64.4216C143.43 65.4616 143.48 66.5316 143.48 67.5916C143.48 89.1116 143.48 110.622 143.48 132.142C143.48 133.192 143.59 134.292 143.33 135.292C142.76 137.492 141.24 138.782 138.93 138.652C136.64 138.532 135.23 137.172 134.9 134.872C134.78 134.022 134.85 133.142 134.85 132.282C134.85 114.222 134.85 96.1616 134.85 78.1116C134.85 73.4416 132.52 70.3316 128.65 69.6816C124.1 68.9116 120.16 71.9716 119.88 76.5716C119.77 78.3916 119.83 80.2216 119.83 82.0416C119.83 107.972 119.83 133.912 119.83 159.842C119.83 160.702 119.87 161.572 119.82 162.432C119.65 165.302 117.89 167.182 115.42 167.152C112.96 167.122 111.23 165.232 111.21 162.322C111.16 155.022 111.19 147.722 111.19 140.422C111.19 137.342 110.21 134.762 107.46 133.102C102.65 130.202 96.3803 133.312 96.2603 138.962C96.0503 149.232 95.9503 159.532 96.4503 169.782C96.6203 173.232 98.2703 176.862 100.05 179.942C107.75 193.222 115.69 206.372 123.68 219.472C127.34 225.472 129.09 231.852 129.06 238.872C128.98 255.582 128.99 272.302 129.08 289.012C129.09 291.632 128.41 293.672 126.25 295.172H123.37C120.95 293.882 120.34 291.822 120.35 289.182C120.43 272.372 120.35 255.562 120.42 238.752C120.44 233.402 119.1 228.582 116.32 224.002C108.35 210.882 100.34 197.772 92.7103 184.442C90.4203 180.442 89.1303 175.812 87.8403 171.342C87.3703 169.712 86.7703 169.002 85.3203 168.432C70.8603 162.712 62.9503 147.912 66.4903 132.772C67.0903 130.222 66.3103 129.522 64.2903 128.572C41.9703 118.052 32.1303 91.2916 42.2203 68.8016C42.3403 68.5416 42.4803 68.2916 42.6003 68.0316C44.1603 64.7716 46.4303 63.6516 48.9403 64.9016C51.3203 66.0916 51.8703 68.4716 50.4703 71.6016C45.3803 82.9416 45.7103 94.1716 51.4903 105.142C55.3303 112.422 61.2003 117.682 68.6903 121.132C75.2203 124.132 76.6403 127.112 74.9703 134.232C72.4803 144.862 77.5603 155.632 87.2403 159.722C87.3403 158.952 87.4903 158.252 87.5003 157.562C87.5203 151.992 87.5003 146.422 87.5203 140.842C87.5703 127.862 97.6103 120.582 109.89 124.602C110.24 124.712 110.61 124.772 111.22 124.922C111.22 121.422 111.22 118.082 111.22 114.742C111.22 102.832 111.69 90.8916 111.09 79.0116C110.46 66.4216 122.11 57.0116 134.86 62.5616C137.58 53.9316 143 48.3416 152.59 49.1616C160.44 49.8316 165.08 54.8316 167.19 62.5416C172.22 60.5216 177.15 60.1216 182.01 62.5716C186.87 65.0216 189.57 69.1616 190.87 74.5016C194.76 72.8116 198.54 72.1716 202.52 73.2216C209.32 75.0116 214.47 81.0016 214.5 88.0416C214.6 109.942 214.68 131.852 214.34 153.742C214.26 158.622 212.81 163.602 211.3 168.312C207.86 179.092 204.04 189.742 200.29 200.422C198.14 206.552 197.06 212.802 197.09 219.322C197.17 242.572 197.09 265.812 197.16 289.062C197.16 291.692 196.5 293.732 194.29 295.182H191.41L191.37 295.162Z" fill="#216BDC"/>
<path d="M295.13 153.362C294.91 154.082 294.65 154.792 294.46 155.512C291.63 166.722 281.07 174.252 269.72 173.142C258.15 172.012 249.11 162.772 248.48 151.422C247.83 139.642 255.82 129.312 267.34 127.012C279.37 124.612 291.32 132.232 294.44 144.292C294.63 145.012 294.9 145.722 295.13 146.432V153.352V153.362ZM271.72 135.312C263.6 135.342 257.09 141.852 257.09 149.932C257.09 157.982 263.64 164.582 271.69 164.652C279.81 164.722 286.52 157.982 286.47 149.812C286.41 141.742 279.84 135.272 271.72 135.302V135.312Z" fill="#216BDC"/>
<path d="M115.031 30.2814C118.051 25.5114 120.421 20.7214 123.731 16.7014C140.621 -3.84858 170.941 -5.66858 190.271 12.5414C191.521 13.7214 192.611 14.1214 194.311 13.8214C212.771 10.6114 229.351 23.0114 231.411 41.5314C231.951 46.4114 230.941 51.0814 229.121 55.5914C228.771 56.4714 228.391 57.3414 227.931 58.4214C237.221 64.1514 242.851 72.2914 243.711 83.1814C244.581 94.1014 240.321 103.031 231.821 110.151C235.011 116.171 237.181 122.451 237.701 129.241C238.641 141.391 235.211 152.191 227.711 161.721C225.911 164.011 223.371 164.401 221.411 162.891C219.391 161.331 219.101 158.881 220.891 156.511C230.931 143.181 231.911 129.171 224.271 114.401C222.111 110.231 222.841 106.271 226.561 103.281C239.341 93.0014 237.421 73.8714 223.731 66.0514C219.131 63.4214 218.141 58.9114 220.431 53.8014C226.381 40.5214 219.061 25.5614 204.821 22.4214C201.831 21.7614 198.501 21.9414 195.441 22.4514C191.301 23.1514 188.021 22.4114 184.951 19.4214C165.681 0.741415 134.761 7.21141 124.431 32.0014C122.001 37.8414 119.071 39.5114 112.751 38.6714C104.301 37.5514 97.2009 40.0514 91.6709 46.6314C89.6909 48.9814 87.2609 50.1914 84.1609 50.2114C75.5209 50.2814 67.7909 52.9814 60.9509 58.2914C58.1809 60.4414 55.8009 60.3614 54.1009 58.2514C52.3309 56.0414 52.8909 53.6214 55.7509 51.3814C63.4809 45.3414 72.2909 42.2514 82.0409 41.5114C83.4709 41.4014 85.1609 40.6814 86.1509 39.6714C94.2609 31.3814 104.051 28.5714 115.021 30.2514L115.031 30.2814Z" fill="#216BDC"/>
<path d="M47.8501 270.802C47.9301 258.002 58.4501 247.652 71.3101 247.722C84.1901 247.792 94.5501 258.212 94.5201 271.052C94.4901 283.842 83.9901 294.342 71.2001 294.362C58.3301 294.382 47.7701 283.732 47.8501 270.802ZM71.1601 256.362C63.0501 256.372 56.5201 262.882 56.5001 270.962C56.4801 279.012 63.0101 285.612 71.0801 285.712C79.2001 285.802 85.9301 279.072 85.8801 270.902C85.8401 262.832 79.2801 256.352 71.1601 256.362Z" fill="#216BDC"/>
<path d="M20.8002 0.0315264C32.1702 0.0515264 41.4802 9.38153 41.4902 20.7615C41.4902 32.2515 32.0502 41.6115 20.5402 41.5215C9.1902 41.4315 -0.049798 32.0315 0.00020197 20.6415C0.060202 9.28153 9.4102 0.0115264 20.8002 0.0315264ZM20.8402 8.68153C14.1902 8.63153 8.6902 14.0315 8.6402 20.6715C8.5902 27.3215 13.9902 32.8215 20.6302 32.8715C27.2802 32.9215 32.7802 27.5115 32.8302 20.8715C32.8802 14.2215 27.4702 8.72153 20.8402 8.67153V8.68153Z" fill="#216BDC"/>
<path d="M39.1306 181.431C48.0506 181.401 55.3006 188.561 55.3306 197.441C55.3606 206.311 48.1406 213.591 39.2606 213.641C30.4206 213.691 23.0906 206.421 23.0606 197.571C23.0306 188.681 30.2106 181.461 39.1306 181.431ZM46.6706 197.492C46.6706 193.372 43.2806 190.061 39.1006 190.101C35.0506 190.141 31.7806 193.361 31.7206 197.381C31.6506 201.481 35.0306 204.932 39.1406 204.962C43.2506 204.992 46.6806 201.592 46.6706 197.492Z" fill="#216BDC"/>
<path d="M263.461 0.031537C272.021 0.041537 279.001 7.05154 278.991 15.6115C278.981 24.1515 271.951 31.1515 263.401 31.1415C254.851 31.1215 247.871 24.1115 247.881 15.5515C247.891 6.99154 254.901 0.011537 263.461 0.031537ZM256.541 15.5615C256.521 19.3415 259.701 22.5115 263.481 22.4915C267.141 22.4715 270.241 19.4315 270.331 15.7615C270.431 11.9915 267.311 8.75154 263.531 8.69154C259.751 8.63154 256.551 11.7715 256.541 15.5615Z" fill="#216BDC"/>
</svg>
