<svg width="284" height="288" viewBox="0 0 284 288" fill="none" xmlns="http://www.w3.org/2000/svg">
<path d="M124.612 282.6C122.762 280.79 122.742 277.82 124.572 275.99C141.942 258.59 159.332 241.21 176.712 223.83C192.692 207.85 208.672 191.88 224.642 175.89C225.902 174.63 227.142 173.32 228.182 171.87C235.202 162.11 231.372 146.54 217.462 142.96C211.182 141.34 205.232 142.75 200.262 147.24C199.382 148.04 198.552 148.9 197.712 149.75C163.702 183.76 129.692 217.76 95.6919 251.78C88.9019 258.57 80.7219 264 71.4919 266.65C52.7619 272.03 35.7419 268.62 20.5619 256.71C9.86191 248.31 3.36191 237.21 0.891912 224.04C-1.49809 211.25 1.02191 197.93 7.17191 186.47C9.81191 181.54 12.0619 178.99 14.9319 175.43C14.5019 174.93 14.1019 174.51 13.7419 174.06C11.8119 171.62 11.8519 169.39 13.8819 167.1C14.0819 166.88 14.3019 166.68 14.5119 166.46C18.8019 162.17 23.0819 157.88 27.3819 153.6C27.8719 153.11 28.3719 152.59 28.9519 152.24C30.6219 151.24 32.3719 151.23 34.0319 152.24C34.7819 152.7 35.4119 153.35 36.3119 154.09C38.7319 151.93 40.9119 149.52 43.5519 147C42.4719 146.93 41.7519 146.84 41.0319 146.84C37.7519 146.82 34.4719 146.81 31.1919 146.84C20.3719 146.9 11.2619 132.67 21.7419 122.52C24.7219 119.64 28.8119 118.14 32.9519 118.11C40.0419 118.05 47.1319 118.08 54.2219 118.13C55.9619 118.14 57.4019 117.79 58.9119 116.75C64.1319 113.13 69.8619 112.41 76.1219 114.4C78.6419 111.88 81.2419 109.28 83.8419 106.69C84.4719 106.06 85.0819 105.38 85.7819 104.84C87.5719 103.46 89.7319 103.41 91.5919 104.69C92.2419 105.13 92.8019 105.7 93.4119 106.22C95.7419 103.73 98.0219 101.29 100.462 98.67C100.442 98.64 100.082 98.2101 99.7219 97.7601C97.6819 95.2101 97.7119 92.94 99.9619 90.59C102.372 88.08 104.752 85.52 107.362 83.23C111.742 79.4 115.022 74.5001 117.452 69.2201C120.292 63.0601 123.462 57.0601 126.492 50.9901C126.842 50.2801 127.172 49.5501 127.592 48.8801C129.252 46.2701 132.332 45.7301 134.812 47.6301C135.362 48.0501 135.832 48.5701 136.332 49.0601C148.292 61.0101 160.242 72.96 172.192 84.92C172.542 85.27 172.912 85.61 173.242 85.98C175.712 88.81 175.202 92.16 171.862 93.92C166.852 96.54 161.762 99.0101 156.702 101.54C153.112 103.34 149.502 105.09 145.952 106.96C144.772 107.58 143.692 108.38 142.732 109.31C139.022 112.91 135.402 116.6 131.742 120.26C131.252 120.75 130.782 121.28 130.252 121.72C128.272 123.35 126.042 123.43 123.972 121.94C123.412 121.54 122.932 121.04 122.272 120.47C120.822 121.38 119.822 122.75 118.602 123.87C117.362 125.01 116.142 126.18 114.802 127.45C115.442 128.25 115.942 128.83 116.392 129.44C117.902 131.52 117.862 133.75 116.242 135.73C115.672 136.42 115.002 137.02 114.372 137.65C99.4619 152.56 84.5619 167.47 69.6419 182.36C68.8719 183.13 67.9819 183.78 67.0319 184.59C67.6419 185.4 68.0319 185.92 68.4319 186.44C70.3019 188.87 70.2319 191.11 68.1519 193.4C67.2819 194.36 66.3319 195.24 65.4219 196.15C61.9719 199.6 58.4119 202.93 55.1219 206.52C52.4919 209.38 49.0019 209.86 46.3919 206.8C46.2919 206.68 46.0419 206.68 45.6719 206.56C43.3619 209.97 42.7119 213.55 43.9519 217.26C45.4719 221.8 49.7619 225.2 54.5319 225.57C58.5419 225.87 61.7419 224.31 64.5319 221.52C83.4919 202.51 102.492 183.54 121.472 164.56C137.622 148.41 153.762 132.26 169.912 116.12C177.682 108.35 186.992 102.1 197.462 98.75C205.282 96.25 213.292 95.0301 221.432 95.6101C238.892 96.8501 253.822 103.73 265.772 116.59C274.542 126.04 280.162 137.15 282.232 149.98C282.902 154.1 283.422 158.23 283.282 162.41C282.822 176.26 278.762 188.92 270.402 200.05C265.612 206.44 262.442 204.57 256.212 208.99C256.212 208.99 205.782 258.2 187.242 283.97C185.742 286.05 185.022 278.87 183.162 280.6C180.812 278.45 188.952 280.29 186.682 277.89C187.622 276.92 194.782 270.33 195.612 269.5C221.482 243.62 230.362 227.49 256.252 201.63C260.062 197.82 263.432 193.69 266.122 188.99C270.082 182.09 272.342 174.72 273.252 166.82C274.772 153.62 271.562 141.27 264.072 129.93C255.952 117.64 243.482 109.3 229.032 106.41C209.462 102.49 192.102 107.74 177.812 121.98C142.592 157.07 107.482 192.27 72.3119 227.42C70.9119 228.82 69.4619 230.22 67.8519 231.35C55.6619 239.95 37.5819 234.25 34.0819 217.89C32.8619 212.21 33.9019 206.61 37.2719 201.66C37.7619 200.93 38.2419 200.19 38.5619 199.71C32.9019 194.05 27.3619 188.51 21.6219 182.77C21.1119 183.37 20.3519 184.23 19.6319 185.13C14.0319 192.01 10.9819 199.89 9.91191 208.7C7.62191 227.73 18.0419 245.9 34.0419 254.2C39.0919 256.82 44.4619 258.37 50.1419 259.11C58.9219 260.26 67.1819 258.55 75.1519 254.96C80.0519 252.75 84.3719 249.43 88.1719 245.62C102.872 230.87 117.612 216.16 132.332 201.43C152.162 181.6 172.002 161.78 191.802 141.94C195.962 137.77 200.772 134.9 206.542 133.46C218.012 130.59 230.702 136.1 236.792 145.75C239.842 150.58 241.492 155.88 241.372 161.52C241.212 168.79 238.632 175.27 233.632 180.66C232.822 181.53 231.972 182.37 231.122 183.21C197.982 216.35 164.852 249.49 131.712 282.62C129.762 284.57 126.602 284.59 124.622 282.66L124.612 282.6ZM84.3919 119.95C91.6019 130.3 89.0319 139.47 83.8319 145.35C80.9119 148.65 77.1419 150.68 72.8119 151.39C67.0519 152.35 61.8619 150.67 57.3619 147.21C53.8319 150.03 44.5419 159.54 43.8019 160.82C49.4319 166.46 54.9519 171.99 60.1719 177.23C75.0319 162.36 90.1119 147.27 105.212 132.16C102.442 128.73 90.3119 116.85 88.8019 116.02C87.3319 117.33 85.9319 118.58 84.3919 119.95ZM161.162 88.4701C151.582 78.8901 142.192 69.5201 132.752 60.0801C129.692 66.2001 126.512 72.5701 123.432 78.7201C129.872 85.1501 136.122 91.4001 142.512 97.7901C148.702 94.6901 155.072 91.5101 161.162 88.4601V88.4701ZM45.3719 127.74C41.8919 127.74 38.4119 127.74 34.9319 127.74C33.6419 127.74 32.3319 127.65 31.0619 127.8C28.6619 128.1 26.8119 130.17 26.7819 132.42C26.7519 134.65 28.5719 136.75 30.9619 137.13C31.7419 137.25 32.5519 137.19 33.3419 137.19C41.1019 137.19 48.8519 137.26 56.6119 137.15C59.3319 137.11 61.4619 137.72 63.6119 139.62C68.5119 143.93 76.0219 141.94 78.4219 135.98C80.4219 131 77.9219 125.43 72.8719 123.59C69.1019 122.22 65.8119 123.19 63.0019 125.81C61.5119 127.2 59.9219 127.79 57.9019 127.76C53.7219 127.68 49.5519 127.74 45.3719 127.74ZM31.2319 163.43C28.9219 165.9 26.3619 168.06 24.2719 170.65C27.7719 174.81 48.9019 195.67 51.1219 197.08C52.1819 195.89 53.2719 194.61 54.4319 193.38C55.5619 192.17 56.7619 191.02 57.7919 189.99C48.8619 181.06 40.1719 172.38 31.2319 163.44V163.43ZM110.402 93.9901C116.092 99.6801 121.612 105.22 127.182 110.79C129.362 108.6 131.712 106.24 134.062 103.87C132.242 101.42 119.162 88.4301 117.392 87.2701C115.012 89.5601 112.652 91.82 110.402 93.98V93.9901ZM108.102 120.59C110.502 118.19 112.852 115.83 114.892 113.8C112.382 111.12 110.102 108.69 107.992 106.45C105.612 108.79 103.242 111.12 100.832 113.5C103.112 115.72 105.492 118.04 108.102 120.6V120.59Z" fill="#216BDC"/>
<path d="M276.142 180.76C260.962 195.97 245.162 212.39 229.962 227.58C212.582 244.96 195.192 262.35 177.822 279.74C175.992 281.57 176.012 284.54 177.862 286.35C179.842 288.28 183.002 288.26 184.952 286.31C216.292 254.97 236.242 234.55 267.072 203.7C268.442 202.33 269.502 200.62 270.102 198.77L276.132 180.76H276.142Z" fill="#216BDC"/>
<path d="M151.362 40.0301L157.832 11.3601" stroke="#216BDC" stroke-width="7.54" stroke-linecap="round" stroke-linejoin="round"/>
<path d="M208.812 62.9601L179.842 67.8801" stroke="#216BDC" stroke-width="7.54" stroke-linecap="round" stroke-linejoin="round"/>
<path d="M166.162 54.38L222.402 4" stroke="#216BDC" stroke-width="7.54" stroke-linecap="round" stroke-linejoin="round"/>
</svg>
