<svg width="49" height="86" viewBox="0 0 49 86" fill="none" xmlns="http://www.w3.org/2000/svg">
<path d="M48.0002 0C49.1971 0.989408 49.2806 1.50614 48.4575 2.92016C42.8108 12.65 37.1601 22.3758 31.5134 32.1057C31.3623 32.3701 31.2191 32.6384 30.9805 33.0711C31.3821 33.0711 31.6645 33.0711 31.9468 33.0711C35.4502 33.0711 38.9495 33.0791 42.4529 33.063C43.2243 33.063 43.9123 33.1712 44.2861 33.9363C44.6837 34.7454 44.302 35.3743 43.789 35.9872C30.5192 51.9539 17.2494 67.9247 3.98363 83.8954C3.62574 84.324 3.2758 84.7606 2.90996 85.1812C2.19418 86.0104 1.43068 86.2107 0.722848 85.7781C0.00706675 85.3414 -0.187781 84.5723 0.186016 83.5549C2.13453 78.2914 4.091 73.0319 6.04349 67.7724C8.8907 60.1055 11.7379 52.4346 14.5812 44.7637C14.6846 44.4833 14.7681 44.1989 14.8953 43.8143C14.4778 43.8143 14.1756 43.8143 13.8733 43.8143C10.0916 43.8143 6.31389 43.8143 2.53218 43.8143C0.782497 43.8143 0.146247 42.9331 0.698989 41.2827C5.13285 28.0439 9.55876 14.8051 14.0244 1.57824C14.2233 0.993411 14.7601 0.524744 15.1379 0.0040035C26.0893 0.0040035 37.0447 0.0040035 47.9962 0.0040035L48.0002 0ZM4.16655 40.6779C4.6159 40.6779 4.91812 40.6779 5.21636 40.6779C9.02591 40.6779 12.8315 40.6779 16.641 40.6779C18.4305 40.6779 19.0508 41.5912 18.4225 43.2936C15.0822 52.2984 11.7419 61.3032 8.40159 70.308C7.69376 72.2108 6.98991 74.1135 6.28606 76.0162C6.33378 76.0442 6.3815 76.0722 6.42921 76.1043C17.4483 62.8414 28.4633 49.5825 39.6176 36.1595C38.9257 36.1595 38.4604 36.1595 37.9951 36.1595C34.8258 36.1595 31.6565 36.1715 28.4872 36.1514C26.9602 36.1394 26.32 34.9778 27.0517 33.6238C27.159 33.4276 27.2783 33.2393 27.3897 33.043C32.9966 23.3853 38.5996 13.7275 44.2065 4.06979C44.3656 3.7934 44.5167 3.513 44.7354 3.11243C44.3219 3.11243 44.0753 3.11243 43.8288 3.11243C35.0724 3.11243 26.316 3.12044 17.5596 3.09641C16.9114 3.09641 16.6569 3.32473 16.4621 3.92158C13.253 13.5673 10.0201 23.201 6.79108 32.8387C5.93215 35.4024 5.07321 37.97 4.16258 40.6819L4.16655 40.6779Z" fill="black"/>
</svg>
