<svg width="63" height="77" viewBox="0 0 63 77" fill="none" xmlns="http://www.w3.org/2000/svg">
<path d="M6.34353 77C5.20976 76.5087 3.96605 76.1754 2.96284 75.4883C1.02857 74.169 0.0734516 72.1969 0.028788 69.847C-0.0124399 67.4935 -0.00556667 65.1367 0.0253543 62.7798C0.0665822 59.5675 2.6021 57.0388 5.83162 56.9907C7.98578 56.9564 10.1399 56.9839 12.38 56.9839C12.4006 56.6094 12.4315 56.2761 12.4315 55.9394C12.4315 39.2765 12.4418 22.6101 12.4246 5.94713C12.4246 3.9407 13.019 2.26066 14.6716 1.041C15.6988 0.285159 16.8635 0 18.1313 0C25.5489 0.010307 32.9665 0.00343639 40.384 0.00343639C45.8983 0.00343639 51.4091 0.00343639 56.9233 0.00343639C60.4139 0.00343639 62.5921 2.18164 62.5921 5.67914C62.5921 26.6023 62.5612 47.5289 62.6162 68.4521C62.6299 73.2345 59.1977 76.4709 55.7071 76.8935C55.6384 76.9004 55.5765 76.9622 55.5112 76.9966H6.34353V77ZM12.6858 74.7325H13.6993C27.1533 74.7325 40.6108 74.7325 54.0648 74.7325C57.8715 74.7325 60.3315 72.2897 60.3315 68.4967C60.3315 47.5495 60.3315 26.6023 60.3315 5.6551C60.3315 3.45627 59.1462 2.27441 56.9405 2.27441C44.0361 2.27441 31.1318 2.27441 18.2275 2.27441C15.9737 2.27441 14.7197 3.50094 14.7197 5.74099C14.7197 26.6642 14.7197 47.5839 14.7403 68.507C14.7403 70.7505 14.4208 72.8532 12.6858 74.7325ZM12.4384 59.2617C10.0609 59.2617 7.80712 59.2033 5.5602 59.2789C3.80458 59.3373 2.32725 60.9245 2.29633 62.7077C2.2551 65.1332 2.23105 67.5657 2.30663 69.9878C2.39596 72.9184 5.23038 75.1585 8.10946 74.6672C10.7584 74.2171 12.4212 72.2416 12.4418 69.4553C12.4624 66.6277 12.4418 63.8002 12.4418 60.9726C12.4418 60.4264 12.4418 59.8801 12.4418 59.2583L12.4384 59.2617Z" fill="#216BDC"/>
<path d="M30.957 40.9256C31.2284 39.1459 31.4724 37.3388 31.7885 35.5453C31.9671 34.5215 32.5821 33.8138 33.551 33.3637C36.2514 32.1131 38.9381 30.8282 41.6213 29.5398C42.8959 28.9283 44.1706 28.8561 45.459 29.4642C48.3105 30.811 51.1587 32.1612 54 33.5217C54.8039 33.9065 55.2437 34.5937 55.443 35.4354C56.9787 41.9185 56.027 47.9618 52.186 53.4692C50.5643 55.7951 48.5236 57.7122 46.2354 59.3716C44.6756 60.502 42.7654 60.5913 41.2434 59.5125C36.5091 56.1593 33.07 51.8544 31.7266 46.1066C31.335 44.4368 31.2113 42.7018 30.957 40.929V40.9256ZM33.2383 40.9359C33.4754 42.5575 33.5853 44.1414 33.9529 45.6634C35.1795 50.7481 38.2544 54.5652 42.4253 57.5714C43.2189 58.1451 44.095 58.1314 44.8715 57.537C45.8266 56.8086 46.7851 56.07 47.6406 55.2351C53.0346 49.9579 54.9379 43.6226 53.2819 36.2497C53.2098 35.9336 52.9487 35.5453 52.667 35.4079C50.0181 34.1092 47.3417 32.8621 44.6791 31.5909C43.9747 31.2542 43.3014 31.2439 42.5902 31.584C39.931 32.8621 37.2546 34.1092 34.6023 35.401C34.3343 35.5316 34.0491 35.8717 33.9976 36.1569C33.7056 37.751 33.4788 39.3555 33.2349 40.9393L33.2383 40.9359Z" fill="#216BDC"/>
<path d="M37.1677 19.1228C31.4577 19.1228 25.7442 19.1228 20.0341 19.1228C19.7833 19.1228 19.5325 19.1365 19.2817 19.109C18.6426 19.0403 18.2682 18.6589 18.2407 18.0302C18.2132 17.3946 18.5877 17.0029 19.2061 16.8793C19.4225 16.8346 19.6562 16.8552 19.8795 16.8552C31.4267 16.8552 42.9774 16.8552 54.5247 16.8552C54.7514 16.8552 54.9851 16.8312 55.1981 16.8827C55.8062 17.0304 56.1635 17.4152 56.1188 18.0646C56.0776 18.6692 55.7203 19.0197 55.1259 19.1021C54.8785 19.1365 54.6243 19.1193 54.3769 19.1193C48.6394 19.1193 42.9053 19.1193 37.1677 19.1193V19.1228Z" fill="#216BDC"/>
<path d="M33.8221 10.9632C29.2149 10.9632 24.6077 10.9632 19.997 10.9632C19.7462 10.9632 19.492 10.9804 19.248 10.9426C18.6159 10.8464 18.1727 10.3276 18.2414 9.74701C18.317 9.12516 18.6743 8.75067 19.3236 8.70601C19.5469 8.68883 19.7737 8.69226 20.0004 8.69226C29.2149 8.69226 38.4328 8.69226 47.6472 8.69226C47.8224 8.69226 47.9976 8.68883 48.1729 8.6957C48.9528 8.73349 49.3994 9.14577 49.3994 9.81916C49.3994 10.4788 48.9321 10.9495 48.1729 10.9564C46.3451 10.977 44.5173 10.9632 42.6895 10.9632C39.7349 10.9632 36.7802 10.9632 33.8255 10.9632H33.8221Z" fill="#216BDC"/>
<path d="M41.4974 68.1464C37.2166 68.1464 32.9357 68.1464 28.6549 68.1464C28.4282 68.1464 28.2014 68.1602 27.9781 68.1361C27.3425 68.064 26.9714 67.6963 26.9474 67.0573C26.9233 66.4114 27.2978 66.0369 27.9094 65.9064C28.1258 65.8617 28.3594 65.8857 28.5828 65.8857C37.22 65.8857 45.8538 65.8857 54.4911 65.8857C54.7178 65.8857 54.948 65.8583 55.1645 65.9064C55.7726 66.0404 56.1505 66.408 56.1196 67.0607C56.0921 67.7032 55.721 68.064 55.0854 68.1361C54.8621 68.1602 54.6354 68.1464 54.4086 68.1464C50.1037 68.1464 45.7988 68.1464 41.4905 68.1464H41.4974Z" fill="#216BDC"/>
<path d="M44.6929 25.0323C47.9739 25.0323 51.2584 25.0323 54.5395 25.0358C54.8624 25.0358 55.2816 24.9945 55.4808 25.1732C55.7797 25.4412 56.1061 25.8981 56.0786 26.2486C56.0512 26.5956 55.6457 26.9632 55.3228 27.214C55.1407 27.3548 54.7937 27.3033 54.5189 27.3033C47.9293 27.3067 41.3397 27.3033 34.7501 27.3033C34.6264 27.3033 34.4993 27.3067 34.3756 27.2964C33.6266 27.2415 33.1319 26.7845 33.1387 26.1524C33.1456 25.5168 33.6403 25.0461 34.3962 25.0358C36.2514 25.0152 38.1033 25.0289 39.9585 25.0289C41.5355 25.0289 43.1159 25.0289 44.6929 25.0289V25.0323Z" fill="#216BDC"/>
<path d="M26.3974 57.7432C28.6237 57.7432 30.85 57.7432 33.0798 57.7432C34.0177 57.7432 34.5193 58.1554 34.5021 58.8941C34.4884 59.5984 33.9937 60.0038 33.1038 60.0038C28.6237 60.0073 24.1471 60.0038 19.667 60.0038C18.7497 60.0038 18.2137 59.5606 18.2309 58.846C18.2446 58.1554 18.7634 57.7466 19.6429 57.7466C21.8933 57.7432 24.1471 57.7466 26.3974 57.7466V57.7432Z" fill="#216BDC"/>
<path d="M24.4637 27.3027C22.7836 27.3027 21.107 27.3199 19.4304 27.2959C18.7124 27.2856 18.252 26.8183 18.2348 26.1999C18.2176 25.5506 18.6918 25.0902 19.4442 25.0386C19.5679 25.0283 19.695 25.0352 19.8187 25.0352C22.976 25.0352 26.13 25.0352 29.2873 25.0352C29.387 25.0352 29.4866 25.0352 29.5862 25.0352C30.3696 25.0764 30.8334 25.4818 30.8506 26.138C30.8677 26.8217 30.3868 27.289 29.5691 27.2993C27.865 27.3199 26.1609 27.3062 24.4602 27.3062L24.4637 27.3027Z" fill="#216BDC"/>
<path d="M24.5394 49.5661C26.1679 49.5661 27.793 49.5592 29.4215 49.5661C30.3216 49.573 30.8266 49.9681 30.8507 50.6552C30.8747 51.3698 30.3422 51.8405 29.4283 51.8439C26.1748 51.8543 22.9178 51.8543 19.6642 51.8439C18.7503 51.8439 18.2143 51.3767 18.2349 50.6621C18.2556 49.9784 18.764 49.573 19.6573 49.5661C21.2858 49.5558 22.9109 49.5661 24.5394 49.5661Z" fill="#216BDC"/>
<path d="M23.6426 33.2194C24.9447 33.2194 26.2434 33.2125 27.5455 33.2194C28.3632 33.2262 28.8717 33.6488 28.8889 34.3119C28.9061 35.0025 28.377 35.48 27.5318 35.48C24.8795 35.4903 22.2306 35.4903 19.5782 35.48C18.7365 35.48 18.2108 34.9922 18.2383 34.2947C18.2658 33.6317 18.7674 33.2228 19.592 33.2159C20.9422 33.2091 22.2924 33.2159 23.6426 33.2159V33.2194Z" fill="#216BDC"/>
<path d="M23.6043 43.639C22.2541 43.639 20.9039 43.6459 19.5537 43.639C18.7463 43.6321 18.2378 43.1923 18.2344 42.5258C18.231 41.8524 18.7326 41.3852 19.5365 41.3818C22.2129 41.3714 24.8893 41.3714 27.5656 41.3818C28.373 41.3818 28.8815 41.8421 28.8884 42.5086C28.8952 43.1752 28.3868 43.6321 27.5828 43.639C26.2567 43.6493 24.9305 43.639 23.6078 43.639H23.6043Z" fill="#216BDC"/>
<path d="M21.3986 68.1424C20.7458 68.1424 20.0965 68.1562 19.4437 68.139C18.7359 68.1218 18.2584 67.6855 18.2309 67.0705C18.2 66.4177 18.6844 65.9058 19.4162 65.8921C20.7698 65.868 22.1201 65.868 23.4737 65.8921C24.1643 65.9058 24.6487 66.3971 24.6556 67.0086C24.6659 67.6546 24.1711 68.1115 23.4222 68.1459C23.3706 68.1459 23.3225 68.1459 23.271 68.1459C22.6457 68.1459 22.0204 68.1459 21.3917 68.1459L21.3986 68.1424Z" fill="#216BDC"/>
<path d="M53.8963 8.70181C54.2949 8.70181 54.6968 8.67433 55.0919 8.70869C55.7275 8.76366 56.0951 9.13471 56.1226 9.77374C56.1536 10.4231 55.7859 10.8628 55.1744 10.9178C54.3361 10.9934 53.4772 10.9934 52.6389 10.9109C52.0273 10.8491 51.6769 10.3922 51.7181 9.74969C51.7593 9.11066 52.1338 8.74991 52.7729 8.70525C53.1439 8.6812 53.5218 8.70181 53.8929 8.70181H53.8963Z" fill="#216BDC"/>
<path d="M41.4738 48.2476C43.2604 46.035 44.9679 43.9118 46.6788 41.792C47.3213 40.9949 47.9603 40.1875 48.6166 39.4007C49.1422 38.7686 49.7847 38.6724 50.3206 39.1087C50.8326 39.5279 50.8669 40.215 50.3653 40.8437C48.0462 43.7331 45.7306 46.6225 43.3875 49.4878C42.4015 50.6938 40.8829 50.7831 39.7457 49.7421C38.8215 48.8969 37.9214 48.0277 37.0246 47.1585C36.444 46.5985 36.3856 45.9216 36.8357 45.4372C37.2926 44.9493 37.9763 44.9631 38.5638 45.5059C39.5155 46.3854 40.4534 47.2821 41.4738 48.2441V48.2476Z" fill="#216BDC"/>
</svg>
