<svg width="236" height="221" viewBox="0 0 236 221" fill="none" xmlns="http://www.w3.org/2000/svg">
<path d="M91.0908 87.1057C91.3708 110.336 73.6908 130.156 50.4508 132.666C25.3908 135.366 3.02076 117.406 0.340762 92.4456C-0.859238 81.2856 1.69077 70.7357 5.57077 60.4357C12.7308 41.4057 23.8908 24.7356 36.4208 8.90565C38.3408 6.48565 40.3308 4.11565 42.3808 1.80565C44.4608 -0.544352 46.6408 -0.62435 48.6308 1.70565C64.4908 20.3056 78.3308 40.1556 86.6008 63.4256C89.3208 71.0756 90.9008 78.9656 91.0908 87.0956V87.1057ZM45.6408 9.30565C44.2808 10.9456 43.2408 12.1256 42.2708 13.3656C30.2408 28.5856 19.4508 44.5656 12.5208 62.8356C8.81076 72.6156 6.33076 82.6357 7.84076 93.2457C10.6208 112.826 28.3908 126.886 48.6308 125.536C67.7708 124.256 83.4708 107.526 83.6708 88.2656C83.7508 80.4756 82.1208 73.0157 79.6008 65.7157C74.0508 49.6857 65.2308 35.4456 55.2908 21.8356C52.2608 17.6956 49.0308 13.7056 45.6408 9.31565V9.30565Z" fill="#216BDC"/>
<path d="M184.841 106.386C180.081 106.386 175.821 106.416 171.571 106.376C169.181 106.346 167.591 104.986 167.391 102.996C167.191 100.936 168.841 99.0257 171.181 99.0057C178.781 98.9257 186.391 98.9457 193.991 98.9957C196.131 99.0057 197.561 100.456 197.581 102.596C197.631 110.126 197.631 117.646 197.581 125.176C197.561 127.586 195.881 129.256 193.801 129.196C191.711 129.136 190.231 127.466 190.201 124.986C190.151 120.806 190.191 116.636 190.191 111.846C189.131 112.836 188.451 113.436 187.821 114.066C160.891 141.246 133.951 168.426 107.031 195.616C101.191 201.506 94.561 202.986 88.141 199.616C86.631 198.816 85.191 197.726 83.991 196.506C70.521 182.866 57.091 169.176 43.671 155.496C41.571 153.356 41.301 151.596 42.711 149.866C44.281 147.936 46.571 147.966 48.661 150.096C55.731 157.256 62.771 164.446 69.821 171.626C76.261 178.186 82.671 184.766 89.141 191.296C92.791 194.976 97.241 195.026 100.871 191.366C128.541 163.466 156.191 135.546 183.841 107.626C184.061 107.406 184.241 107.146 184.851 106.416L184.841 106.386Z" fill="#216BDC"/>
<path d="M117.821 220.536C80.501 220.536 43.171 220.536 5.85097 220.536C1.91096 220.536 0.0509664 219.376 0.000966387 216.886C-0.0490336 214.366 1.84097 213.106 5.72097 213.106C80.451 213.106 155.171 213.106 229.901 213.106C233.781 213.106 235.671 214.356 235.631 216.876C235.591 219.366 233.731 220.536 229.791 220.536C192.471 220.536 155.141 220.536 117.821 220.536Z" fill="#216BDC"/>
<path d="M228.231 147.046C220.911 154.096 213.511 161.036 206.321 168.186C197.101 177.346 188.071 186.696 178.921 195.926C171.631 203.286 162.781 203.226 155.531 195.866C150.921 191.176 146.271 186.516 141.671 181.816C139.811 179.916 139.691 177.696 141.281 176.166C142.931 174.566 144.921 174.706 146.911 176.696C151.611 181.406 156.271 186.166 160.971 190.886C165.161 195.096 169.411 195.116 173.561 190.916C189.421 174.836 205.271 158.746 221.121 142.656C221.611 142.166 222.051 141.626 222.921 140.646C219.171 140.646 215.901 140.646 212.631 140.646C211.601 140.646 210.571 140.676 209.541 140.636C207.101 140.536 205.431 139.006 205.431 136.916C205.431 134.836 207.111 133.256 209.561 133.236C214.871 133.186 220.181 133.216 225.491 133.216C227.471 133.216 229.451 133.176 231.431 133.226C234.121 133.296 235.611 134.686 235.631 137.326C235.681 144.696 235.681 152.066 235.631 159.436C235.611 161.846 233.911 163.516 231.831 163.446C229.821 163.376 228.291 161.776 228.251 159.456C228.181 155.206 228.231 150.956 228.231 147.056V147.046Z" fill="#216BDC"/>
<path d="M94.7608 125.126C96.0708 125.916 97.1508 126.316 97.8908 127.056C105.331 134.516 112.741 142.016 120.111 149.546C121.931 151.406 121.961 153.426 120.371 155.016C118.891 156.496 116.621 156.406 114.881 154.666C107.451 147.196 100.051 139.686 92.6608 132.176C91.4708 130.966 90.6808 129.476 91.7008 127.916C92.4108 126.836 93.6508 126.106 94.7608 125.126Z" fill="#216BDC"/>
<path d="M44.9808 111.786C44.9908 114.466 43.0108 116.296 40.7108 115.836C29.9808 113.676 22.4808 107.546 18.5208 97.2758C17.7208 95.2158 18.6008 93.2658 20.3708 92.4958C22.2908 91.6658 24.4108 92.4158 25.2608 94.5458C28.3508 102.286 33.9108 106.966 42.0808 108.646C43.8708 109.016 44.9108 110.296 44.9808 111.796V111.786Z" fill="#216BDC"/>
<path d="M26.1909 74.3157C25.5409 76.8757 25.2009 78.7457 24.5709 80.5257C23.9209 82.3457 22.3609 82.9457 20.5309 82.6057C18.6409 82.2557 17.5209 80.8757 17.6709 79.0757C17.8409 77.0657 18.3709 75.0157 19.1309 73.1357C19.8509 71.3657 21.7009 70.7557 23.3209 71.5057C24.5609 72.0757 25.4109 73.4957 26.2009 74.3057L26.1909 74.3157Z" fill="#216BDC"/>
<path d="M126.291 53.2856C126.261 50.7356 127.531 49.0856 129.641 48.9256C131.701 48.7656 133.141 50.2056 133.531 52.8156C134.391 58.5556 136.941 61.1156 142.681 61.9956C145.301 62.3956 146.741 63.8056 146.611 65.8556C146.471 68.0456 144.781 69.2956 142.051 69.2356C133.641 69.0456 126.391 61.7056 126.291 53.2856Z" fill="#216BDC"/>
<path d="M147.311 83.2657C166.182 83.2657 181.481 67.9672 181.481 49.0957C181.481 30.2241 166.182 14.9257 147.311 14.9257C128.439 14.9257 113.141 30.2241 113.141 49.0957C113.141 67.9672 128.439 83.2657 147.311 83.2657Z" stroke="#216BDC" stroke-width="7" stroke-miterlimit="10"/>
</svg>
