<svg width="188" height="224" viewBox="0 0 188 224" fill="none" xmlns="http://www.w3.org/2000/svg">
<path d="M143.961 0C144.341 0.67 145.111 0.510004 145.671 0.770004C149.761 2.61 152.071 5.69001 152.331 10.19C152.461 12.37 152.261 14.57 152.821 16.71C154.231 22.01 158.991 25.57 164.861 25.67C168.361 25.73 171.851 25.65 175.351 25.69C182.491 25.77 187.221 30.51 187.291 37.63C187.331 41.34 187.311 45.06 187.291 48.77C187.281 51.29 186.001 52.83 184.001 52.79C182.021 52.75 180.771 51.2 180.751 48.67C180.721 45.03 180.771 41.39 180.731 37.74C180.691 34.09 178.871 32.28 175.171 32.24C171.751 32.2 168.321 32.28 164.901 32.22C153.891 32.03 146.021 24.14 145.811 13.12C145.811 12.61 145.811 12.1 145.811 11.59C145.761 7.98 144.361 6.55 140.781 6.55C130.151 6.54 119.511 6.55 108.881 6.55C88.2711 6.55 67.6511 6.55 47.0411 6.55C42.8611 6.55 41.5811 7.83 41.5611 12.01C41.5011 22.16 36.0711 29.54 27.0311 31.7C24.6011 32.28 22.1211 32.25 19.6411 32.23C17.1611 32.21 14.6911 32.2 12.2111 32.23C8.51112 32.28 6.71112 34.08 6.63112 37.72C6.63112 37.87 6.63112 38.01 6.63112 38.16C6.63112 59.14 6.30112 80.12 6.71112 101.09C7.53112 143.06 25.7311 175.74 60.4711 199.22C68.0611 204.35 75.8011 209.25 83.5411 214.16C89.6211 218.02 96.2311 218.72 102.351 214.93C114.461 207.44 126.851 200.29 137.871 191.19C160.161 172.79 173.841 149.26 178.991 120.79C180.261 113.75 180.771 106.65 180.751 99.49C180.721 88.42 180.751 77.35 180.751 66.28C180.751 65.41 180.691 64.54 181.061 63.7C181.701 62.27 182.811 61.53 184.341 61.68C185.951 61.84 186.991 62.78 187.261 64.44C187.331 64.87 187.311 65.31 187.311 65.75C187.311 77.62 187.571 89.5 187.251 101.37C186.091 145.3 167.171 179.65 130.941 204.44C123.441 209.57 115.721 214.37 108.061 219.27C98.4411 225.42 88.7711 225.42 79.2111 219.17C69.4111 212.77 59.2411 206.9 49.9111 199.82C23.2511 179.61 7.22112 152.87 1.58112 119.92C0.441118 113.24 0.0511162 106.48 0.0711162 99.69C0.111116 79.3 0.251116 58.9 0.00111647 38.51C-0.0888835 31.12 5.27112 25.13 12.9111 25.65C15.6711 25.84 18.4411 25.68 21.2111 25.68C30.1311 25.68 34.9811 20.85 35.0111 11.93C35.0311 5.63 37.2911 2.42001 43.1711 0.310005C43.2811 0.270005 43.3411 0.11 43.4311 0C76.9411 0 110.451 0 143.961 0Z" fill="#216BDC"/>
<path d="M93.7912 19.67C105.151 19.67 116.521 19.67 127.881 19.67C131.821 19.67 133.221 20.67 134.631 24.23C139.501 36.48 148.481 43.46 161.561 45.11C166.051 45.68 167.631 47.41 167.631 51.98C167.631 68.59 167.981 85.21 167.541 101.8C166.571 138.42 150.571 167.04 120.461 187.79C115.191 191.42 109.751 194.79 104.361 198.24C97.1912 202.82 90.0212 202.85 82.9012 198.12C73.7612 192.05 64.1012 186.71 55.8312 179.4C34.8912 160.9 22.9112 137.76 20.2112 109.93C19.1812 99.33 19.9112 88.67 19.7712 78.05C19.7412 75.91 21.0012 74.66 22.9012 74.61C24.9012 74.56 26.2712 75.96 26.2912 78.31C26.3312 84.65 26.4212 90.99 26.2912 97.32C25.9212 114.15 29.3712 130.12 37.0712 145.11C45.0512 160.66 56.4612 173.16 71.1112 182.7C76.2312 186.03 81.3812 189.32 86.4812 192.67C91.3212 195.85 96.1412 195.89 100.951 192.66C109.701 186.78 119.001 181.7 126.971 174.72C146.731 157.4 157.991 135.67 160.671 109.51C161.351 102.89 161.051 96.26 161.081 89.64C161.131 77.62 161.081 65.6 161.131 53.58C161.131 52.14 160.791 51.71 159.281 51.47C145.051 49.15 134.971 41.35 129.151 28.15C128.541 26.77 127.981 26.19 126.371 26.19C104.591 26.25 82.8112 26.25 61.0312 26.2C59.6012 26.2 58.9112 26.54 58.3112 27.93C52.5312 41.36 42.3312 49.21 27.9112 51.49C26.5712 51.7 26.2412 52.1 26.2812 53.35C26.3612 56.12 26.3412 58.89 26.3012 61.65C26.2612 64.16 24.9212 65.63 22.8712 65.55C20.9212 65.47 19.7812 64.06 19.7612 61.6C19.7412 58.4 19.7512 55.19 19.7612 51.99C19.7612 47.34 21.3612 45.56 26.0312 45.1C33.4912 44.37 39.8212 41.26 45.1712 36.07C48.5112 32.83 50.9712 29.01 52.6212 24.66C54.2012 20.49 55.4112 19.67 59.9312 19.67C71.2212 19.67 82.5112 19.67 93.8012 19.67H93.7912Z" fill="#216BDC"/>
<path d="M19.751 56.03L19.771 82.87L26.341 86.42L26.321 60.4L19.751 56.03Z" fill="#216BDC"/>
<path d="M180.761 45.5901L180.751 70.0301L187.291 68.7101L187.311 48.2201L180.761 45.5901Z" fill="#216BDC"/>
</svg>
