<svg width="202" height="231" viewBox="0 0 202 231" fill="none" xmlns="http://www.w3.org/2000/svg">
<path d="M176.8 160.777C183.9 172.977 190.9 184.977 197.8 196.877C198.3 197.777 198.9 198.777 199.1 199.777C199.6 202.777 196.7 204.677 193.4 203.777C183.6 201.177 173.9 198.577 164.1 195.977C163.6 195.877 163 195.777 162.1 195.577C161.4 198.177 160.7 200.677 160 203.177C157.9 210.877 155.9 218.577 153.9 226.177C153.3 228.277 152.5 230.177 150 230.477C147.6 230.677 146.5 229.077 145.5 227.277C139.4 216.577 133.2 205.877 127 195.277C126.4 194.277 125.2 193.477 124.1 193.077C121 191.777 117.9 190.877 114.8 189.677C112.1 188.577 109.5 187.277 106.9 186.177C103 184.477 99 184.477 95.1 186.177C90.5 188.177 86 190.777 81.2 191.977C77 193.077 74.8 195.377 72.8 198.977C67.6 208.577 61.9 217.977 56.5 227.477C55.5 229.277 54.3 230.977 51.9 230.577C49.5 230.277 48.7 228.377 48.1 226.277C45.5 216.177 42.7 206.177 39.9 195.877C39.2 195.977 38.6 195.977 38 196.177C28.3 198.777 18.6 201.277 9.00001 203.977C7.00001 204.477 5.2 204.677 3.8 202.877C2.3 201.077 2.90001 199.177 4.00001 197.377C10.6 186.077 17.1 174.677 23.6 163.377C24 162.577 24.5 161.777 25 160.877C16.4 156.277 15.7 148.677 16.7 140.277C17.1 137.177 17.4 133.977 17.8 130.877C18.4 126.077 17.1 121.877 13.7 118.377C10.8 115.377 8 112.277 5.4 109.177C-1.8 100.477 -1.8 93.0769 5.4 84.3769C8 81.2769 10.7 78.2769 13.6 75.3769C17.3 71.5769 18.4 67.0769 17.7 61.8769C17.1 57.1769 16.5 52.4769 16.4 47.7769C16.2 39.3769 20.1 33.9769 28.2 31.4769C33.1 29.9769 38.2 29.0769 43.2 27.9769C47.8 27.0769 51.1 24.5769 53.4 20.4769C55.9 15.9769 58.4 11.4769 61.3 7.27689C65.5 1.17689 71.4 -1.32311 78.8 0.676887C81.1 1.27689 83.3 2.27689 85.6 3.17689C88.6 4.37689 91.5 5.77689 94.4 7.07689C98.7 9.07689 103 9.07689 107.4 7.17689C109.9 6.07689 112.4 4.97689 114.9 3.87689C116.2 3.27689 117.5 2.67689 118.8 2.17689C129.4 -2.02311 136.2 0.0768871 142.3 9.67689C144.6 13.2769 146.6 16.9769 148.6 20.6769C150.8 24.6769 154.1 27.0769 158.7 28.0769C163.6 29.0769 168.6 30.0769 173.4 31.4769C181.9 34.0769 185.6 39.1769 185.5 48.0769C185.4 53.1769 184.7 58.2769 184.2 63.4769C183.7 67.8769 184.8 71.6769 187.8 74.8769C190.8 78.1769 193.9 81.3769 196.7 84.8769C203.5 93.3769 203.5 100.577 196.7 109.177C194.8 111.577 192.8 113.977 190.5 115.977C184.5 121.277 182.9 127.677 184.4 135.277C185 138.277 185.1 141.377 185.3 144.377C185.8 151.177 183.7 157.077 176.8 160.777ZM177.4 50.2769C177.7 42.3769 176.1 40.1769 169.4 38.3769C166.6 37.5769 163.8 36.9769 160.9 36.5769C151 35.2769 143.9 30.2769 139.6 21.1769C138.1 17.9769 136.2 14.8769 134.1 11.9769C131.1 7.67689 128.5 6.87689 123.6 8.67689C119.8 10.0769 116.1 11.6769 112.5 13.4769C104.7 17.2769 96.9 17.2769 89.1 13.3769C85.8 11.6769 82.4 10.1769 78.9 8.87689C73.2 6.67689 70.4 7.57689 67 12.5769C64.8 15.7769 62.9 19.1769 61.1 22.6769C57.2 30.2769 51 34.6769 42.5 36.0769C38.6 36.6769 34.7 37.4769 30.9 38.5769C25.7 40.0769 24 42.3769 24.1 47.7769C24.2 51.1769 24.4 54.5769 25 57.8769C26.6 67.4769 24.5 75.7769 17.2 82.5769C14.8 84.7769 12.7 87.2769 10.7 89.7769C6.6 94.9769 6.6 98.1769 10.7 103.277C13.4 106.577 16.3 109.577 19.1 112.677C23.9 117.877 26 123.877 25.2 130.877C24.7 135.777 24.1 140.577 24 145.477C23.9 150.577 25.4 152.677 30.4 154.177C34 155.277 37.8 156.177 41.5 156.677C50.6 158.077 57.3 162.677 61.4 170.977C62.2 172.577 63 174.077 63.9 175.577C65.3 177.777 66.6 179.977 68.1 181.977C70.3 184.977 73.4 185.977 76.9 184.577C80.8 183.177 84.7 181.677 88.3 179.777C96.5 175.577 104.6 175.577 112.8 179.677C116.1 181.377 119.5 182.877 123 184.177C128.2 186.077 131 185.177 134.1 180.677C136.2 177.577 138.1 174.377 139.8 171.077C144 162.477 150.9 157.877 160.3 156.577C164.2 155.977 168.1 154.977 171.9 153.777C175.5 152.677 177.4 150.077 177.2 146.277C177.1 142.377 176.9 138.477 176.3 134.677C174.9 125.477 176.7 117.477 183.6 110.777C186.2 108.277 188.6 105.477 190.9 102.677C194.6 97.9769 194.5 94.8769 191 90.0769C190 88.6769 188.8 87.3769 187.6 86.0769C185.4 83.5769 183.1 81.1769 181 78.6769C177 74.0769 175.4 68.5769 175.9 62.5769C176.6 58.3769 177.1 53.8769 177.4 50.2769ZM66.5 193.377C64.5 190.677 62.9 188.677 61.3 186.477C59.8 184.277 58.4 182.077 57 179.777C55.6 177.477 54.3 175.077 53 172.677C50.8 168.677 47.4 166.277 42.9 165.377C40.1 164.877 37.4 164.377 34.7 163.577C33 163.077 32.2 163.577 31.4 165.077C26.4 173.977 21.3 182.677 16.2 191.577C15.8 192.177 15.6 192.777 15.1 193.777C16.1 193.577 16.7 193.377 17.3 193.277C25 191.277 32.6 189.177 40.3 187.177C44.1 186.177 45.6 187.077 46.6 190.977C47.1 192.877 47.6 194.777 48.1 196.777C49.8 203.077 51.5 209.477 53.4 216.377C58.2 207.877 62.7 199.977 66.5 193.377ZM186.7 193.977C180.8 183.777 175.3 174.077 169.7 164.577C169.4 164.077 168.3 163.677 167.6 163.777C165.3 164.077 163.1 164.677 160.8 164.977C154.7 165.877 150.2 168.977 147.5 174.577C146.6 176.377 145.6 178.077 144.6 179.777C142 184.577 139.1 189.077 134.2 191.977C138.8 199.977 143.4 207.877 148.2 216.277C150.6 207.377 152.8 199.277 155 191.077C156.1 186.977 157.5 186.177 161.7 187.277C162.7 187.577 163.8 187.877 164.8 188.177C171.8 189.977 178.9 191.977 186.7 193.977Z" fill="#216BDC"/>
<path d="M100.7 158.577C66.5002 158.477 38.7002 130.677 38.7002 96.5767C38.7002 62.3767 66.7002 34.4767 101 34.5767C135.1 34.6767 163 62.6767 162.9 96.7767C162.7 130.877 134.8 158.677 100.7 158.577ZM100.7 150.577C130.6 150.577 154.9 126.377 154.9 96.5767C154.9 66.8767 130.7 42.5767 101 42.4767C71.1002 42.3767 46.8002 66.5767 46.7002 96.3767C46.5002 126.177 70.8002 150.477 100.7 150.577Z" fill="#216BDC"/>
<path d="M92.6002 112.977C93.2002 111.977 93.6002 111.077 94.2002 110.477C106.5 98.1769 118.8 85.8769 131.1 73.5769C131.7 72.9769 132.4 72.1769 133.1 71.7769C134.9 70.6769 136.6 70.8769 138.1 72.3769C139.4 73.7769 139.6 75.4769 138.5 77.1769C138 77.9769 137.3 78.5769 136.7 79.1769C123.3 92.6769 109.8 106.177 96.3002 119.677C93.0002 123.077 91.4002 122.977 88.0002 119.677C80.3002 111.977 72.5002 104.177 64.8002 96.4769C64.4002 96.0769 64.0002 95.6769 63.6002 95.2769C62.0002 93.4769 61.9002 91.2769 63.4002 89.6769C65.0002 87.9769 67.3002 87.8769 69.2002 89.5769C72.8002 92.9769 76.3002 96.5769 79.8002 100.077C83.8002 104.177 87.9002 108.277 92.6002 112.977Z" fill="#216BDC"/>
</svg>
