<svg width="366" height="201" viewBox="0 0 366 201" fill="none" xmlns="http://www.w3.org/2000/svg">
<path d="M174.205 100.12C174.205 131.09 174.205 162.06 174.205 193.03C174.205 193.58 174.205 194.13 174.205 194.68C174.195 198.53 172.995 200.19 170.265 200.14C167.615 200.09 166.455 198.47 166.445 194.79C166.445 187.54 166.445 180.29 166.445 173.04C166.445 117.48 166.445 61.9304 166.445 6.37044C166.445 5.50044 166.415 4.63044 166.475 3.77044C166.645 1.58044 168.215 0.0304308 170.265 0.000430776C172.305 -0.0295692 173.965 1.51043 174.155 3.66043C174.235 4.52043 174.195 5.39044 174.195 6.26044C174.195 37.5504 174.195 68.8304 174.195 100.12H174.205Z" fill="#216BDC"/>
<path d="M155.205 99.7804C155.175 130.93 149.145 160.94 138.155 190.02C137.125 192.75 135.155 193.93 132.955 193.19C130.645 192.41 129.755 190.13 130.805 187.33C136.725 171.6 141.235 155.49 144.035 138.9C147.655 117.4 148.285 95.8204 145.885 74.1404C143.575 53.2904 138.465 33.1304 131.045 13.5404C130.985 13.3904 130.935 13.2404 130.885 13.1004C129.835 10.1604 130.505 8.04038 132.785 7.14038C135.055 6.25038 137.135 7.39039 138.175 10.2704C140.015 15.3804 141.885 20.4704 143.535 25.6404C151.205 49.7504 155.185 74.4504 155.225 99.7704L155.205 99.7804Z" fill="#216BDC"/>
<path d="M184.265 99.7004C184.275 68.7904 190.275 39.0104 201.305 10.1904C202.545 6.94037 205.115 5.93037 207.545 7.68037C209.495 9.09037 209.335 10.9204 208.655 12.9604C205.845 21.3904 202.785 29.7504 200.425 38.3104C193.175 64.6804 190.625 91.5104 192.905 118.81C194.825 141.8 200.005 164.02 208.035 185.6C208.285 186.26 208.525 186.93 208.745 187.6C209.585 190.13 208.755 192.29 206.635 193.11C204.485 193.93 202.375 192.91 201.465 190.36C199.495 184.88 197.515 179.41 195.775 173.86C188.195 149.72 184.265 125.01 184.265 99.6904V99.7004Z" fill="#216BDC"/>
<path d="M325.885 99.8504C325.855 119.52 309.715 135.61 290.045 135.6C270.305 135.59 254.165 119.4 254.265 99.6204C254.345 81.6504 267.935 64.1204 290.185 64.2204C312.795 64.3204 325.885 82.1804 325.885 99.8404V99.8504ZM318.725 99.7104C318.705 83.8804 305.815 71.0704 289.965 71.1104C274.225 71.1504 261.435 83.9904 261.425 99.7504C261.425 115.59 274.265 128.44 290.095 128.43C305.925 128.43 318.755 115.56 318.725 99.7004V99.7104Z" fill="#216BDC" stroke="#216BDC" stroke-width="0.5" stroke-miterlimit="10"/>
<path d="M258.985 64.9104C258.045 65.9604 257.335 67.1604 256.295 67.8204C254.875 68.7204 253.415 68.1404 252.255 66.9904C249.215 63.9604 246.195 60.9204 243.165 57.8804C241.145 55.8604 239.095 53.8604 237.105 51.8104C235.385 50.0504 235.325 47.9204 236.865 46.4304C238.305 45.0404 240.455 45.1404 242.125 46.8004C247.205 51.8304 252.265 56.8804 257.285 61.9804C257.945 62.6604 258.275 63.6604 258.995 64.9204L258.985 64.9104Z" fill="#216BDC" stroke="#216BDC" stroke-width="0.5" stroke-miterlimit="10"/>
<path d="M344.375 49.5105C344.075 50.0305 343.725 51.0904 343.025 51.8004C338.005 56.9104 332.945 61.9805 327.845 67.0205C326.245 68.6005 324.205 68.5905 322.735 67.1505C321.215 65.6505 321.245 63.5704 322.895 61.9104C327.945 56.8305 333.025 51.7805 338.085 46.7105C339.245 45.5505 340.605 45.1105 342.165 45.7605C343.565 46.3405 344.245 47.4805 344.375 49.5105Z" fill="#216BDC" stroke="#216BDC" stroke-width="0.5" stroke-miterlimit="10"/>
<path d="M325.075 131.12C326.365 131.84 327.435 132.18 328.145 132.88C333.245 137.88 338.295 142.94 343.325 148.02C344.935 149.64 344.945 151.83 343.475 153.26C342.045 154.65 339.895 154.63 338.355 153.1C333.245 148.02 328.165 142.91 323.065 137.81C321.835 136.58 321.365 135.06 322.245 133.6C322.845 132.61 324.045 131.98 325.065 131.11L325.075 131.12Z" fill="#216BDC" stroke="#216BDC" stroke-width="0.5" stroke-miterlimit="10"/>
<path d="M258.285 135.61C258.015 136.1 257.715 137.11 257.055 137.79C252.005 142.94 246.905 148.04 241.775 153.11C240.225 154.65 238.075 154.65 236.655 153.26C235.175 151.82 235.205 149.64 236.815 148.01C241.855 142.93 246.925 137.89 251.985 132.83C253.155 131.66 254.495 131.25 256.055 131.89C257.465 132.47 258.135 133.6 258.295 135.61H258.285Z" fill="#216BDC" stroke="#216BDC" stroke-width="0.5" stroke-miterlimit="10"/>
<path d="M228.965 96.1905C232.365 96.1905 235.765 96.1905 239.165 96.1905C241.955 96.1905 243.535 97.5205 243.515 99.8105C243.495 102.02 241.925 103.35 239.265 103.35C232.285 103.36 225.305 103.36 218.325 103.35C215.895 103.35 214.325 101.9 214.345 99.7305C214.365 97.5805 215.935 96.2005 218.405 96.1905C221.925 96.1805 225.445 96.1905 228.965 96.1905Z" fill="#216BDC" stroke="#216BDC" stroke-width="0.5" stroke-miterlimit="10"/>
<path d="M350.595 96.1904C354.115 96.1904 357.635 96.1804 361.155 96.1904C363.765 96.2004 365.335 97.6004 365.295 99.8304C365.265 101.98 363.705 103.34 361.205 103.34C354.165 103.36 347.125 103.35 340.085 103.34C337.675 103.34 336.095 101.86 336.135 99.6904C336.165 97.6004 337.705 96.1904 340.035 96.1804C343.555 96.1604 347.075 96.1804 350.595 96.1804V96.1904Z" fill="#216BDC" stroke="#216BDC" stroke-width="0.5" stroke-miterlimit="10"/>
<path d="M286.485 38.6904C286.485 35.2904 286.465 31.8805 286.485 28.4805C286.505 26.0305 287.935 24.4704 290.095 24.4604C292.245 24.4604 293.635 26.0005 293.635 28.5105C293.655 35.3705 293.655 42.2404 293.635 49.1004C293.635 51.6104 292.275 53.1605 290.125 53.2005C287.885 53.2405 286.495 51.6705 286.475 49.0605C286.455 45.6005 286.475 42.1404 286.475 38.6704L286.485 38.6904Z" fill="#216BDC" stroke="#216BDC" stroke-width="0.5" stroke-miterlimit="10"/>
<path d="M293.645 160.86C293.645 164.2 293.655 167.55 293.645 170.89C293.635 173.5 292.225 175.07 289.995 175.03C287.845 174.99 286.495 173.44 286.485 170.93C286.475 164.07 286.465 157.2 286.485 150.34C286.485 147.88 287.915 146.31 290.055 146.28C292.205 146.26 293.615 147.8 293.635 150.3C293.655 153.82 293.635 157.34 293.635 160.87L293.645 160.86Z" fill="#216BDC" stroke="#216BDC" stroke-width="0.5" stroke-miterlimit="10"/>
<path d="M51.1251 106.721V106.701C65.9151 106.701 80.7151 106.791 95.5051 106.671C105.405 106.591 114.755 100.211 118.195 91.5305C122.885 79.7005 118.155 66.4805 107.005 60.2805C96.6451 54.5105 83.2851 57.4505 75.6351 67.1705C73.1851 70.2905 72.7751 72.9305 74.8551 74.2205C77.9751 76.1505 79.1851 73.3605 80.5851 71.4505C84.4851 66.1305 90.0651 63.6905 96.2851 63.9005C105.145 64.1905 113.165 72.1305 113.515 80.7905C113.815 88.2405 109.535 97.2105 99.2951 99.4805C96.0451 100.201 92.6651 100.611 89.3451 100.621C62.6751 100.711 35.9951 100.671 9.32514 100.681C7.31514 100.681 5.22514 100.521 3.32514 101.011C2.37514 101.251 1.13514 102.811 1.16514 103.751C1.18514 104.701 2.44514 106.141 3.44514 106.431C5.10514 106.921 6.99514 106.721 8.78514 106.721C22.9051 106.731 37.0251 106.721 51.1551 106.721H51.1251ZM34.4451 119.531C34.4451 119.531 34.4451 119.521 34.4451 119.511C25.9151 119.511 17.3951 119.511 8.86514 119.511C7.51514 119.511 6.17514 119.491 4.82514 119.551C2.92514 119.631 1.12514 120.031 1.00514 122.391C0.895143 124.751 2.56514 125.391 4.52514 125.501C6.09514 125.591 7.66514 125.561 9.23514 125.561C24.9451 125.561 40.6551 125.481 56.3551 125.631C59.6551 125.661 63.1051 126.111 66.2251 127.151C72.1051 129.101 75.2551 133.661 75.7851 139.741C76.2251 144.851 72.4751 150.701 67.7251 152.761C62.0951 155.191 56.8051 154.621 52.1151 150.451C50.9551 149.411 50.0651 147.931 48.7451 147.251C47.7651 146.741 45.8951 146.721 45.1351 147.351C44.3651 147.981 44.1451 149.721 44.2951 150.891C44.4251 151.881 45.3651 152.821 46.0751 153.671C52.5551 161.351 64.3351 162.971 72.9551 157.401C81.5051 151.881 84.8151 140.311 80.3051 131.301C76.4251 123.541 69.9451 119.701 61.3651 119.571C52.3951 119.441 43.4151 119.541 34.4351 119.541L34.4451 119.531ZM20.4651 87.8405C25.1751 87.8405 29.8851 87.8105 34.6051 87.8405C45.3951 87.9305 56.6151 78.9605 55.2151 64.7905C54.0951 53.4505 43.1851 45.1605 31.0451 46.9705C25.4551 47.8005 21.0451 50.8205 17.8251 55.4405C16.7151 57.0305 16.3651 59.1205 18.2751 60.1505C19.3251 60.7105 21.2451 60.2605 22.4951 59.6705C23.6251 59.1405 24.3051 57.7205 25.3051 56.8405C30.0251 52.6705 35.3351 52.2005 40.9351 54.6805C45.6551 56.7705 49.3751 62.7405 48.8551 67.7905C48.2351 73.8605 45.0551 78.3605 39.1551 80.2905C36.2351 81.2405 33.0351 81.6805 29.9451 81.7505C21.6451 81.9505 13.3451 81.8105 5.03514 81.8605C2.86514 81.8705 0.805141 82.3605 1.01514 85.1505C1.19514 87.4905 3.10514 87.8205 4.98514 87.8305C10.1451 87.8705 15.3051 87.8405 20.4651 87.8505V87.8405Z" fill="white"/>
<path d="M51.1253 106.72C37.0053 106.72 22.8852 106.72 8.75525 106.72C6.96525 106.72 5.08525 106.92 3.41525 106.43C2.42525 106.14 1.16525 104.7 1.13525 103.75C1.11525 102.81 2.34525 101.25 3.29525 101.01C5.19525 100.52 7.28525 100.68 9.29525 100.68C35.9653 100.67 62.6452 100.71 89.3152 100.62C92.6352 100.61 96.0152 100.2 99.2652 99.4805C109.515 97.2205 113.785 88.2505 113.485 80.7905C113.135 72.1305 105.115 64.1905 96.2552 63.9005C90.0352 63.6905 84.4653 66.1305 80.5553 71.4505C79.1553 73.3605 77.9452 76.1605 74.8252 74.2205C72.7452 72.9305 73.1552 70.2905 75.6052 67.1705C83.2552 57.4405 96.6153 54.5105 106.975 60.2805C118.115 66.4905 122.845 79.7005 118.165 91.5305C114.725 100.21 105.375 106.59 95.4753 106.67C80.6853 106.79 65.8852 106.7 51.0952 106.7V106.72H51.1253Z" fill="#216BDC" stroke="#216BDC" stroke-width="0.5" stroke-miterlimit="10"/>
<path d="M34.4451 119.541C43.4251 119.541 52.3951 119.441 61.3751 119.571C69.9551 119.701 76.4251 123.541 80.3151 131.301C84.8251 140.311 81.5151 151.881 72.9651 157.401C64.3451 162.971 52.5651 161.351 46.0851 153.671C45.3651 152.821 44.4351 151.881 44.3051 150.891C44.1551 149.721 44.3751 147.98 45.1451 147.35C45.9151 146.72 47.7751 146.751 48.7551 147.251C50.0751 147.931 50.9651 149.411 52.1251 150.451C56.8051 154.631 62.1051 155.201 67.7351 152.761C72.4851 150.711 76.2351 144.851 75.7951 139.741C75.2651 133.651 72.1151 129.101 66.2351 127.151C63.1151 126.111 59.6751 125.671 56.3651 125.631C40.6551 125.481 24.9551 125.561 9.24509 125.561C7.67509 125.561 6.10509 125.581 4.53509 125.501C2.57509 125.391 0.895091 124.751 1.01509 122.391C1.12509 120.041 2.93509 119.631 4.83509 119.551C6.17509 119.491 7.52509 119.511 8.87509 119.511C17.4051 119.511 25.9251 119.511 34.4551 119.511C34.4551 119.511 34.4551 119.521 34.4551 119.531L34.4451 119.541Z" fill="#216BDC" stroke="#216BDC" stroke-width="0.5" stroke-miterlimit="10"/>
<path d="M20.465 87.8404C15.305 87.8404 10.145 87.8604 4.98504 87.8204C3.11504 87.8104 1.19504 87.4804 1.01504 85.1404C0.805036 82.3404 2.86504 81.8604 5.03504 81.8504C13.335 81.8004 21.645 81.9404 29.945 81.7404C33.035 81.6604 36.235 81.2304 39.155 80.2804C45.055 78.3504 48.235 73.8504 48.855 67.7804C49.375 62.7304 45.665 56.7704 40.935 54.6704C35.335 52.1904 30.025 52.6604 25.305 56.8304C24.305 57.7204 23.625 59.1304 22.495 59.6604C21.245 60.2504 19.325 60.7104 18.275 60.1404C16.365 59.1104 16.715 57.0204 17.825 55.4304C21.045 50.8104 25.455 47.7904 31.045 46.9604C43.185 45.1604 54.095 53.4504 55.215 64.7804C56.615 78.9504 45.395 87.9304 34.605 87.8304C29.895 87.7904 25.185 87.8304 20.465 87.8304V87.8404Z" fill="#216BDC" stroke="#216BDC" stroke-width="0.5" stroke-miterlimit="10"/>
</svg>
