<svg width="92" height="79" viewBox="0 0 92 79" fill="none" xmlns="http://www.w3.org/2000/svg">
<path d="M45.9268 78.8727C32.8662 78.8727 19.8093 78.8874 6.74867 78.8469C5.60113 78.8469 4.36532 78.6851 3.32444 78.2401C0.698341 77.1219 -0.599997 74.0949 0.268014 71.2408C2.69182 63.2595 5.15609 55.2929 7.6461 47.3337C8.41113 44.8915 10.6143 43.332 13.1925 43.3063C15.6053 43.2806 18.0218 43.2953 20.4346 43.3063C21.5196 43.31 22.2184 43.9168 22.1926 44.7922C22.1669 45.6345 21.4975 46.1972 20.4529 46.2009C18.1027 46.2119 15.7488 46.2009 13.3985 46.2046C11.7581 46.2083 10.7945 46.9034 10.309 48.4702C7.89989 56.2272 5.49447 63.9841 3.10376 71.7484C2.35712 74.1722 3.69224 75.9818 6.208 75.9818C32.7301 75.9854 59.2523 75.9854 85.7744 75.9818C88.3123 75.9818 89.6621 74.1942 88.9228 71.7815C86.5284 63.9878 84.1157 56.1977 81.6955 48.4114C81.2284 46.9108 80.2353 46.2119 78.6538 46.2082C76.8295 46.2009 75.0015 46.2082 73.1772 46.2082C72.0076 46.2046 71.2978 45.6345 71.3162 44.7334C71.3346 43.8654 72.0223 43.3137 73.1368 43.31C74.9942 43.3026 76.8516 43.2989 78.709 43.31C81.4417 43.3284 83.6154 44.8915 84.4246 47.4919C86.8594 55.3077 89.2869 63.1197 91.674 70.9502C92.9649 75.1947 90.2984 78.8359 85.8627 78.8653C78.3117 78.9131 70.7608 78.8874 63.2098 78.8911C57.4537 78.8911 51.6977 78.8911 45.9416 78.8911V78.88L45.9268 78.8727Z" fill="#216BDC"/>
<path d="M80.8419 25.3944C79.2456 25.3944 77.6457 25.4496 76.0531 25.3613C75.5308 25.3319 74.9019 25.0524 74.5598 24.6699C74.3171 24.3977 74.2803 23.629 74.4973 23.3347C74.7989 22.9302 75.4131 22.544 75.9097 22.5293C78.3519 22.4483 80.7977 22.4925 83.2399 22.4925C86.0021 22.4925 86.0831 22.5734 86.0831 25.354C86.0831 27.7042 86.0867 30.0582 86.0831 32.4084C86.0831 33.5927 85.535 34.2952 84.6376 34.2952C83.7402 34.2952 83.1921 33.5927 83.1885 32.4121C83.1811 30.8489 83.1885 29.2858 83.1885 27.4872C82.7287 27.9212 82.4418 28.175 82.1696 28.4509C70.1352 40.4853 58.0971 52.5161 46.0737 64.5616C44.4222 66.213 42.4986 67.07 40.2035 66.4153C39.1774 66.121 38.1108 65.551 37.3531 64.8117C32.9873 60.5599 28.7024 56.2235 24.3991 51.9055C23.6231 51.1295 23.5716 50.3461 24.1932 49.7024C24.8331 49.0404 25.6497 49.0955 26.4625 49.9084C30.6481 54.0829 34.8226 58.2648 39.0008 62.443C40.7847 64.2269 42.3294 64.2306 44.1169 62.443C56.1514 50.4086 68.1822 38.3741 80.2203 26.3434C80.4594 26.1043 80.772 25.9388 81.0479 25.7402C80.9817 25.6262 80.9154 25.5121 80.8456 25.3981L80.8419 25.3944Z" fill="#216BDC"/>
<path d="M29.6883 28.4594C29.8243 23.4022 31.3728 19.121 33.4692 15.0163C36.1027 9.87077 39.4129 5.17763 43.1902 0.811827C44.0619 -0.195949 44.9042 -0.280543 45.6913 0.642638C50.8221 6.64883 55.3166 13.0596 57.9243 20.6069C59.2227 24.3658 59.8737 28.2093 58.7887 32.1669C56.9754 38.791 50.6897 43.3591 43.8412 43.028C36.8861 42.6933 31.0234 37.5 29.9089 30.6736C29.7692 29.8203 29.7324 28.9523 29.6846 28.4631L29.6883 28.4594ZM44.4481 3.73585C39.9609 9.34114 35.9519 15.1083 33.7046 21.9126C32.8146 24.6049 32.2886 27.3524 32.7667 30.2102C33.6715 35.6352 38.3941 39.9164 43.7162 40.1298C49.6599 40.3688 54.6877 36.7166 56.0817 31.1444C56.9129 27.8268 56.2803 24.6306 55.1989 21.5006C52.948 14.9795 49.1339 9.37056 44.8269 4.06687C44.7534 3.97859 44.6504 3.91239 44.4481 3.73952V3.73585Z" fill="#216BDC"/>
<path d="M38.0114 29.7354C38.2431 29.9413 38.7985 30.2319 39.0413 30.688C39.9608 32.4387 41.3143 33.5678 43.2305 34.0644C44.1831 34.3108 44.6465 35.0721 44.4222 35.8482C44.1794 36.6978 43.4218 37.0693 42.4287 36.8118C39.7254 36.1093 37.7466 34.5131 36.5292 31.9973C35.9885 30.8829 36.577 29.7721 38.0114 29.7354Z" fill="#216BDC"/>
<path d="M37.6073 22.3165C38.5157 22.3091 39.2844 22.9197 39.2146 23.6332C39.1337 24.446 38.9314 25.292 38.5636 26.0092C38.3833 26.3623 37.6624 26.686 37.2652 26.6124C36.8165 26.5278 36.0956 25.954 36.1177 25.6414C36.1876 24.6667 36.5002 23.6921 36.8386 22.7615C36.9305 22.5077 37.4418 22.4047 37.6036 22.3165H37.6073Z" fill="#216BDC"/>
</svg>
