<svg width="55" height="78" viewBox="0 0 55 78" fill="none" xmlns="http://www.w3.org/2000/svg">
<path d="M6.50316 77.1705C5.52997 76.7979 4.4808 76.5482 3.59082 76.0273C0.598898 74.2618 -0.783101 70.6006 0.450571 67.3445C2.0822 63.0321 3.89472 58.7848 5.64212 54.5158C9.33228 45.5147 13.0297 36.5172 16.7271 27.5197C17.7618 25.0054 18.29 22.4005 18.2646 19.6727C18.2357 16.4818 18.2393 13.2945 18.2646 10.1036C18.2755 8.78675 17.9535 7.61458 17.0237 6.66309C15.5513 5.15447 15.3812 3.28768 15.5477 1.33768C15.6128 0.559857 16.1916 0.0135668 17.031 0.0135668C24.0387 -0.00452226 31.0463 -0.00452226 38.054 0.0135668C38.9476 0.0135668 39.4686 0.606887 39.5409 1.50048C39.7001 3.50113 39.3854 5.34259 37.8985 6.85122C37.1025 7.65799 36.8095 8.6963 36.8059 9.8142C36.8059 13.2801 36.7914 16.7459 36.8095 20.2118C36.824 22.7768 37.4064 25.2261 38.3832 27.5993C43.7014 40.5402 48.9509 53.5101 54.3378 66.4184C56.4289 71.429 53.2958 76.4325 48.7483 77.0656C48.6795 77.0764 48.618 77.1343 48.5529 77.1705H6.49954H6.50316ZM4.19138 66.0277C4.61466 66.0277 4.93665 66.0204 5.25501 66.0277C6.35483 66.053 7.05668 66.6391 7.0603 67.5363C7.06753 68.4299 6.35845 69.0268 5.26587 69.0413C4.54592 69.0485 3.8296 69.0413 3.13136 69.0413C2.70084 71.8559 4.81726 74.1496 7.78024 74.1533C20.9418 74.1641 34.0998 74.1605 47.2613 74.146C47.8293 74.146 48.4154 74.0519 48.9617 73.9C51.0564 73.3103 52.8617 70.7272 51.5557 67.5833C47.8402 58.6473 44.1898 49.686 40.5358 40.7247C40.3224 40.2038 40.0402 40.0916 39.5301 40.0952C36.2885 40.1133 33.0506 40.1061 29.8091 40.1061C25.0372 40.1061 20.2653 40.1025 15.4934 40.1169C15.2329 40.1169 14.8133 40.2038 14.7373 40.3738C14.162 41.6473 13.6519 42.9497 13.0876 44.3281C13.5868 44.3281 13.9848 44.31 14.3791 44.3281C15.3776 44.3787 16.0071 44.972 16.0071 45.8439C16.0071 46.723 15.374 47.3091 14.3683 47.3345C13.6917 47.3525 13.0116 47.3236 12.3351 47.3489C12.1397 47.3562 11.8394 47.4394 11.7779 47.5732C11.2099 48.8648 10.6853 50.1744 10.1137 51.5637C10.6347 51.5637 11.0109 51.542 11.3836 51.5673C12.3604 51.6288 13.0044 52.2691 12.9754 53.1266C12.9465 53.9623 12.3133 54.5411 11.3582 54.5701C10.6817 54.5918 10.0016 54.5628 9.32505 54.5845C9.14777 54.5918 8.86558 54.6569 8.81493 54.7763C8.25417 56.0751 7.72597 57.392 7.15074 58.8029C7.66447 58.8029 8.04072 58.7776 8.41336 58.8065C9.33228 58.8861 9.97625 59.5482 9.94731 60.3513C9.91837 61.1726 9.26354 61.7731 8.33015 61.8021C7.67894 61.8238 7.02412 61.7876 6.37292 61.8201C6.18117 61.8274 5.88451 61.9251 5.82662 62.0625C5.26948 63.3432 4.75575 64.642 4.18776 66.0277H4.19138ZM16.0976 37.0273H38.9802C38.8644 36.7234 38.7812 36.4883 38.6871 36.2604C37.6307 33.6881 36.5671 31.1158 35.5179 28.54C34.6026 26.2969 33.9406 23.9743 33.8863 21.5431C33.8067 17.9036 33.8501 14.2641 33.785 10.6246C33.7452 8.29111 34.3132 6.22172 35.9376 4.47794C36.2668 4.12701 36.4079 3.59881 36.6829 3.05976H18.3225C18.7422 3.74714 19.0063 4.33685 19.4115 4.80354C20.7103 6.30131 21.2819 8.03424 21.2819 9.98786C21.2783 13.3018 21.2819 16.6157 21.2819 19.9296C21.2783 22.5127 20.9093 25.0379 19.9614 27.4474C18.8037 30.385 17.599 33.3046 16.4159 36.2314C16.3146 36.481 16.217 36.7307 16.1012 37.0237L16.0976 37.0273Z" fill="#216BDC"/>
<path d="M38.0358 47.6736C38.962 47.7315 39.3853 48.238 39.6711 48.9398C40.7166 51.5121 41.7803 54.0807 42.8331 56.653C43.4987 58.2737 44.1572 59.8981 44.8265 61.5189C45.105 62.1991 45.1159 62.8467 44.5696 63.3966C43.7881 64.178 42.5581 63.8633 42.0842 62.7381C41.2485 60.7556 40.4453 58.7549 39.6277 56.7651C38.7051 54.5185 37.7681 52.2791 36.8601 50.0288C36.3644 48.7987 37.0048 47.6664 38.0395 47.6772L38.0358 47.6736Z" fill="#216BDC"/>
<path d="M45.666 69.0305C44.8556 69.0413 44.2008 68.3901 44.1791 67.5544C44.161 66.7476 44.8158 66.053 45.6226 66.0241C46.4257 65.9987 47.171 66.7332 47.171 67.5508C47.171 68.3359 46.4728 69.0196 45.666 69.0305Z" fill="#216BDC"/>
</svg>
