<svg width="69" height="98" viewBox="0 0 69 98" fill="none" xmlns="http://www.w3.org/2000/svg">
<path d="M0 68.0389C0.0538873 67.9226 0.127628 67.8092 0.161662 67.6872C0.408409 66.791 0.969972 66.167 1.81799 65.8125C3.04605 65.302 4.28262 64.8113 5.51635 64.3122C7.24358 63.6145 8.97081 62.9168 10.698 62.2247C10.9646 62.117 11.2397 62.0347 11.4638 61.9553C11.8892 62.0347 12.1984 62.1907 12.3373 62.5622C12.533 63.0756 12.3288 63.5663 11.7729 63.8102C10.8994 64.1902 10.0117 64.5419 9.12964 64.8992C7.05356 65.7359 4.97464 66.5669 2.89573 67.4036C2.73123 67.4688 2.56106 67.5312 2.41358 67.6248C1.81515 68.0049 1.80097 68.85 2.38806 69.2414C2.55256 69.3492 2.74258 69.4229 2.92693 69.4967C10.681 72.6193 18.4351 75.7391 26.1892 78.8589C27.8767 79.5367 29.5699 80.1976 31.2461 80.9038C33.1463 81.7036 35.021 81.6865 36.9298 80.9151C44.162 77.9882 51.4056 75.0839 58.6435 72.1684C60.8444 71.2835 63.0452 70.3957 65.2433 69.508C65.4078 69.4428 65.5751 69.3747 65.7254 69.284C66.4004 68.8841 66.4033 67.9963 65.7311 67.5993C65.5609 67.4972 65.3709 67.4263 65.1866 67.3525C62.3702 66.2181 59.5511 65.0836 56.7348 63.9491C56.5901 63.8924 56.4512 63.8243 56.3093 63.7619C55.9208 63.5918 55.7109 63.2855 55.7279 62.8742C55.7478 62.4715 55.9548 62.1595 56.3632 62.0262C56.4483 61.9978 56.5306 61.9752 56.6667 61.9326C56.8624 61.9978 57.095 62.0659 57.319 62.1567C60.1609 63.294 62.9999 64.4313 65.8389 65.5743C66.1055 65.682 66.3721 65.7983 66.6245 65.9345C67.62 66.462 68.122 67.3327 68.1305 68.4246C68.1362 69.5165 67.6512 70.4128 66.65 70.9261C65.9608 71.2778 65.2291 71.5501 64.5116 71.8394C56.5334 75.0527 48.5524 78.2605 40.5714 81.4738C39.5844 81.8709 38.5975 82.268 37.6105 82.6707C35.2564 83.6322 32.9109 83.6151 30.5569 82.6622C26.5494 81.0399 22.5391 79.4261 18.5315 77.8123C13.1428 75.6427 7.75693 73.4758 2.3682 71.3062C2.1016 71.1984 1.83784 71.0821 1.57975 70.9516C0.890558 70.6028 0.44528 70.0469 0.195697 69.3208C0.138973 69.1563 0.0680687 69.0004 0.00283678 68.8415C0.00283678 68.5749 0.00283678 68.3083 0.00283678 68.0417L0 68.0389Z" fill="#216BDC"/>
<path d="M0 53.4071C0.0538873 53.2908 0.127628 53.1773 0.161662 53.0554C0.408409 52.1591 0.969972 51.5352 1.81799 51.1807C3.04605 50.6702 4.28262 50.1795 5.51635 49.6803C7.24358 48.9826 8.97081 48.2849 10.698 47.5929C10.9646 47.4851 11.2397 47.4029 11.4638 47.3235C11.8892 47.4029 12.1984 47.5589 12.3373 47.9304C12.533 48.4438 12.3288 48.9344 11.7729 49.1783C10.8994 49.5584 10.0117 49.9101 9.12964 50.2674C7.05356 51.1041 4.97464 51.9351 2.89573 52.7718C2.73123 52.837 2.56106 52.8994 2.41358 52.993C1.81515 53.373 1.80097 54.2182 2.38806 54.6096C2.55256 54.7174 2.74258 54.7911 2.92693 54.8648C10.681 57.9875 18.4351 61.1073 26.1892 64.2271C27.8767 64.9049 29.5699 65.5657 31.2461 66.2719C33.1463 67.0717 35.021 67.0547 36.9298 66.2833C44.162 63.3563 51.4056 60.4521 58.6435 57.5365C60.8444 56.6516 63.0452 55.7639 65.2433 54.8762C65.4078 54.811 65.5751 54.7429 65.7254 54.6521C66.4004 54.2522 66.4033 53.3645 65.7311 52.9674C65.5609 52.8653 65.3709 52.7944 65.1866 52.7207C62.3702 51.5862 59.5511 50.4518 56.7348 49.3173C56.5901 49.2606 56.4512 49.1925 56.3093 49.1301C55.9208 48.9599 55.7109 48.6536 55.7279 48.2424C55.7478 47.8397 55.9548 47.5277 56.3632 47.3944C56.4483 47.366 56.5306 47.3433 56.6667 47.3008C56.8624 47.366 57.095 47.4341 57.319 47.5248C60.1609 48.6621 62.9999 49.7994 65.8389 50.9424C66.1055 51.0502 66.3721 51.1665 66.6245 51.3026C67.62 51.8301 68.122 52.7009 68.1305 53.7928C68.1362 54.8847 67.6512 55.7809 66.65 56.2943C65.9608 56.646 65.2291 56.9182 64.5116 57.2075C56.5334 60.4209 48.5524 63.6286 40.5714 66.842C39.5844 67.2391 38.5975 67.6361 37.6105 68.0389C35.2564 69.0003 32.9109 68.9833 30.5569 68.0304C26.5494 66.4081 22.5391 64.7943 18.5315 63.1805C13.1428 61.0108 7.75693 58.844 2.3682 56.6743C2.1016 56.5666 1.83784 56.4503 1.57975 56.3198C0.890558 55.971 0.44528 55.4151 0.195697 54.689C0.138973 54.5245 0.0680687 54.3685 0.00283678 54.2097C0.00283678 53.9431 0.00283678 53.6765 0.00283678 53.4099L0 53.4071Z" fill="#216BDC"/>
<path d="M0 82.6878C0.0453787 82.614 0.116283 82.5431 0.130464 82.4637C0.360193 81.3548 1.08058 80.7025 2.09593 80.3054C3.27294 79.8459 4.44144 79.3609 5.61278 78.8901C7.34001 78.1953 9.07008 77.5033 10.7973 76.8084C10.9419 76.7517 11.0838 76.6808 11.2312 76.6411C11.6453 76.5276 12.1303 76.7432 12.3033 77.1034C12.4962 77.5033 12.3771 78.0506 12.0112 78.2946C11.7928 78.4392 11.5404 78.5385 11.2936 78.6377C8.53971 79.7495 5.78295 80.8584 3.02903 81.9702C2.82483 82.0525 2.61211 82.1291 2.42493 82.2425C1.81515 82.6169 1.79246 83.4564 2.38522 83.8534C2.58375 83.9867 2.82199 84.069 3.04605 84.1598C7.92143 86.1224 12.7968 88.0793 17.6693 90.0448C22.1533 91.8514 26.6316 93.6666 31.1185 95.4647C31.7112 95.703 32.3352 95.8816 32.9591 96.0235C34.3092 96.3298 35.6025 96.0546 36.8589 95.5526C39.1647 94.6309 41.4677 93.7035 43.7706 92.776C49.1168 90.6234 54.463 88.4679 59.8063 86.3124C61.6158 85.5835 63.4253 84.8575 65.2348 84.1257C65.439 84.0435 65.6517 83.9612 65.8304 83.8336C66.3863 83.4365 66.3664 82.6282 65.7907 82.2595C65.5496 82.1064 65.2745 82.0043 65.0079 81.8965C62.254 80.7847 59.4972 79.6729 56.7433 78.564C56.5986 78.5073 56.4483 78.459 56.315 78.3853C55.8527 78.1272 55.6684 77.5997 55.8726 77.1317C56.0513 76.7233 56.6582 76.4936 57.0581 76.6666C57.9515 77.0551 58.8647 77.3983 59.7723 77.7614C61.8711 78.6037 63.967 79.4489 66.0686 80.2884C66.5479 80.4812 66.9904 80.7166 67.3534 81.0939C68.5559 82.3531 68.3432 84.4292 66.8968 85.3963C66.6046 85.592 66.2757 85.7367 65.9467 85.87C60.3537 88.1276 54.7608 90.3795 49.1679 92.6314C45.3646 94.1629 41.5527 95.6831 37.7579 97.2373C36.2888 97.8386 34.7828 98.0995 33.2087 97.9662C32.3635 97.8953 31.5524 97.6769 30.7668 97.3593C21.2061 93.5106 11.6453 89.6591 2.08175 85.8076C1.0976 85.4105 0.385719 84.7752 0.141809 83.7003C0.124792 83.6209 0.0510517 83.5556 0.00283678 83.4819C0.00283678 83.2153 0.00283678 82.9487 0.00283678 82.6821L0 82.6878Z" fill="#216BDC"/>
<path d="M66.1973 51.1021C65.8258 50.9518 65.4571 50.8014 65.0884 50.6511C55.9559 46.9726 46.8234 43.2969 37.6966 39.6099C35.2717 38.6314 32.8865 38.6456 30.4559 39.6298C22.0948 43.0218 13.7196 46.3798 5.35009 49.7492C4.21846 50.2058 3.08682 50.6596 1.95803 51.1162C1.03911 51.4878 0.403806 52.1203 0.154223 53.1044C0.128697 53.2037 0.0549573 53.2944 0.00390625 53.388V54.1878C0.0436126 54.2417 0.106009 54.2899 0.117354 54.3466C0.352756 55.5378 1.14121 56.1902 2.22463 56.6241C7.68142 58.8051 13.1269 61.0031 18.5752 63.204C19.0148 63.3827 19.4572 63.4649 19.9337 63.4649C21.3886 63.4649 22.8464 63.4649 24.3014 63.4649L19.1027 61.369C19.0034 61.3406 18.9042 61.3066 18.802 61.2641C16.1105 60.175 13.4162 59.0887 10.7246 58.0025C8.15506 56.9673 5.58549 55.9292 3.01592 54.894C2.83157 54.8203 2.64155 54.7522 2.46854 54.653C1.79353 54.2587 1.79353 53.371 2.46854 52.9711C2.63871 52.869 2.82873 52.8038 3.01592 52.7272C7.88846 50.7646 12.7638 48.8076 17.6364 46.845C22.1402 45.0327 26.6412 43.2147 31.1422 41.3967C32.0952 41.011 33.0737 40.7557 34.1202 40.7188C35.0675 40.7614 35.9921 40.9656 36.8855 41.3258C41.4262 43.158 45.9726 44.9844 50.5161 46.8138C55.3688 48.7679 60.2187 50.7249 65.0685 52.679C65.2727 52.7612 65.4798 52.8435 65.6783 52.9399C66.0527 53.1214 66.2455 53.4249 66.2342 53.8446C66.2228 54.236 66.0328 54.5253 65.6811 54.687C65.216 54.8969 64.7424 55.0869 64.2716 55.2769C59.3792 57.2481 54.4839 59.2107 49.5972 61.1988C49.4582 61.2556 49.3278 61.2953 49.2001 61.3208L43.8823 63.4649C45.3344 63.4649 46.7837 63.4649 48.2358 63.4649C48.7577 63.4649 49.2398 63.3685 49.722 63.1728C52.8446 61.905 55.9701 60.6458 59.0984 59.3865C61.4637 58.4336 63.8291 57.4835 66.1973 56.5362C67.4112 56.0512 68.1231 55.155 68.1401 53.856C68.1543 52.679 67.6182 51.6665 66.2115 51.1021H66.1973Z" fill="#216BDC"/>
<path d="M33.1426 62.8058C33.1483 62.2953 33.5226 61.9323 34.036 61.9436C34.5238 61.955 34.9237 62.3747 34.9038 62.854C34.884 63.2965 34.4586 63.7049 34.0218 63.7049C33.534 63.7049 33.1426 63.3021 33.1454 62.8087L33.1426 62.8058Z" fill="#216BDC"/>
<path d="M33.1426 60.0353C33.1483 59.5248 33.5226 59.1618 34.036 59.1731C34.5238 59.1845 34.9237 59.6042 34.9038 60.0835C34.884 60.526 34.4586 60.9344 34.0218 60.9344C33.534 60.9344 33.1426 60.5316 33.1454 60.0381L33.1426 60.0353Z" fill="#216BDC"/>
<path d="M32.6539 60.5312C33.1645 60.5369 33.5275 60.9113 33.5161 61.4246C33.5048 61.9125 33.085 62.3124 32.6057 62.2925C32.1633 62.2727 31.7549 61.8472 31.7549 61.4105C31.7549 60.9226 32.1576 60.5312 32.6511 60.5341L32.6539 60.5312Z" fill="#216BDC"/>
<path d="M35.4254 60.5312C35.9359 60.5369 36.299 60.9113 36.2876 61.4246C36.2763 61.9125 35.8565 62.3124 35.3772 62.2925C34.9348 62.2727 34.5264 61.8472 34.5264 61.4105C34.5264 60.9226 34.9291 60.5312 35.4226 60.5341L35.4254 60.5312Z" fill="#216BDC"/>
<path d="M33.1426 54.9347C33.1483 54.4242 33.5226 54.0612 34.036 54.0725C34.5238 54.0839 34.9237 54.5036 34.9038 54.9829C34.884 55.4254 34.4586 55.8338 34.0218 55.8338C33.534 55.8338 33.1426 55.4311 33.1454 54.9376L33.1426 54.9347Z" fill="#216BDC"/>
<path d="M33.1426 52.1642C33.1483 51.6537 33.5226 51.2907 34.036 51.302C34.5238 51.3134 34.9237 51.7331 34.9038 52.2124C34.884 52.6549 34.4586 53.0633 34.0218 53.0633C33.534 53.0633 33.1426 52.6605 33.1454 52.167L33.1426 52.1642Z" fill="#216BDC"/>
<path d="M32.6539 52.6602C33.1645 52.6658 33.5275 53.0402 33.5161 53.5535C33.5048 54.0414 33.085 54.4413 32.6057 54.4214C32.1633 54.4016 31.7549 53.9761 31.7549 53.5394C31.7549 53.0515 32.1576 52.6602 32.6511 52.663L32.6539 52.6602Z" fill="#216BDC"/>
<path d="M35.4254 52.6602C35.9359 52.6658 36.299 53.0402 36.2876 53.5535C36.2763 54.0414 35.8565 54.4413 35.3772 54.4214C34.9348 54.4016 34.5264 53.9761 34.5264 53.5394C34.5264 53.0515 34.9291 52.6602 35.4226 52.663L35.4254 52.6602Z" fill="#216BDC"/>
<path d="M17.0996 54.9357C17.1053 54.4252 17.4797 54.0622 17.993 54.0735C18.4808 54.0848 18.8807 54.5046 18.8609 54.9839C18.841 55.4264 18.4156 55.8348 17.9788 55.8348C17.491 55.8348 17.0996 55.432 17.1024 54.9385L17.0996 54.9357Z" fill="#216BDC"/>
<path d="M17.0986 52.1652C17.1043 51.6547 17.4787 51.2916 17.992 51.303C18.4798 51.3143 18.8798 51.7341 18.8599 52.2134C18.84 52.6558 18.4146 53.0643 17.9778 53.0643C17.49 53.0643 17.0986 52.6615 17.1015 52.168L17.0986 52.1652Z" fill="#216BDC"/>
<path d="M16.6129 52.6611C17.1234 52.6668 17.4865 53.0412 17.4751 53.5545C17.4638 54.0423 17.044 54.4422 16.5647 54.4224C16.1223 54.4025 15.7139 53.9771 15.7139 53.5403C15.7139 53.0525 16.1166 52.6611 16.6101 52.664L16.6129 52.6611Z" fill="#216BDC"/>
<path d="M19.3844 52.6611C19.8949 52.6668 20.258 53.0412 20.2466 53.5545C20.2353 54.0423 19.8155 54.4422 19.3362 54.4224C18.8938 54.4025 18.4854 53.9771 18.4854 53.5403C18.4854 53.0525 18.8881 52.6611 19.3816 52.664L19.3844 52.6611Z" fill="#216BDC"/>
<path d="M47.8477 54.9357C47.8533 54.4252 48.2277 54.0622 48.741 54.0735C49.2289 54.0848 49.6288 54.5046 49.6089 54.9839C49.5891 55.4264 49.1636 55.8348 48.7269 55.8348C48.239 55.8348 47.8477 55.432 47.8505 54.9385L47.8477 54.9357Z" fill="#216BDC"/>
<path d="M47.8467 52.1652C47.8524 51.6547 48.2267 51.2916 48.7401 51.303C49.2279 51.3143 49.6278 51.7341 49.6079 52.2134C49.5881 52.6558 49.1627 53.0643 48.7259 53.0643C48.2381 53.0643 47.8467 52.6615 47.8495 52.168L47.8467 52.1652Z" fill="#216BDC"/>
<path d="M47.36 52.6611C47.8705 52.6668 48.2335 53.0412 48.2222 53.5545C48.2109 54.0423 47.7911 54.4422 47.3118 54.4224C46.8693 54.4025 46.4609 53.9771 46.4609 53.5403C46.4609 53.0525 46.8637 52.6611 47.3572 52.664L47.36 52.6611Z" fill="#216BDC"/>
<path d="M50.1315 52.6621C50.642 52.6678 51.005 53.0422 50.9937 53.5555C50.9823 54.0433 50.5626 54.4432 50.0833 54.4234C49.6408 54.4035 49.2324 53.9781 49.2324 53.5413C49.2324 53.0535 49.6352 52.6621 50.1287 52.6649L50.1315 52.6621Z" fill="#216BDC"/>
<path d="M33.1426 47.0734C33.1483 46.5629 33.5226 46.1999 34.036 46.2112C34.5238 46.2225 34.9237 46.6423 34.9038 47.1216C34.884 47.5641 34.4586 47.9725 34.0218 47.9725C33.534 47.9725 33.1426 47.5697 33.1454 47.0762L33.1426 47.0734Z" fill="#216BDC"/>
<path d="M33.1426 44.3029C33.1483 43.7924 33.5226 43.4293 34.036 43.4407C34.5238 43.452 34.9237 43.8718 34.9038 44.3511C34.884 44.7935 34.4586 45.202 34.0218 45.202C33.534 45.202 33.1426 44.7992 33.1454 44.3057L33.1426 44.3029Z" fill="#216BDC"/>
<path d="M32.6539 44.7988C33.1645 44.8045 33.5275 45.1789 33.5161 45.6922C33.5048 46.18 33.085 46.5799 32.6057 46.5601C32.1633 46.5402 31.7549 46.1148 31.7549 45.678C31.7549 45.1902 32.1576 44.7988 32.6511 44.8017L32.6539 44.7988Z" fill="#216BDC"/>
<path d="M35.4254 44.7988C35.9359 44.8045 36.299 45.1789 36.2876 45.6922C36.2763 46.18 35.8565 46.5799 35.3772 46.5601C34.9348 46.5402 34.5264 46.1148 34.5264 45.678C34.5264 45.1902 34.9291 44.7988 35.4226 44.8017L35.4254 44.7988Z" fill="#216BDC"/>
<path d="M25.0684 50.1173C25.074 49.6068 25.4484 49.2438 25.9618 49.2551C26.4496 49.2665 26.8495 49.6862 26.8296 50.1656C26.8098 50.608 26.3843 51.0164 25.9476 51.0164C25.4597 51.0164 25.0684 50.6137 25.0712 50.1202L25.0684 50.1173Z" fill="#216BDC"/>
<path d="M25.0684 47.3468C25.074 46.8363 25.4484 46.4733 25.9618 46.4846C26.4496 46.496 26.8495 46.9157 26.8296 47.395C26.8098 47.8375 26.3843 48.2459 25.9476 48.2459C25.4597 48.2459 25.0684 47.8432 25.0712 47.3497L25.0684 47.3468Z" fill="#216BDC"/>
<path d="M24.5807 47.8428C25.0912 47.8484 25.4542 48.2228 25.4429 48.7362C25.4316 49.224 25.0118 49.6239 24.5325 49.604C24.09 49.5842 23.6816 49.1588 23.6816 48.722C23.6816 48.2342 24.0844 47.8428 24.5779 47.8456L24.5807 47.8428Z" fill="#216BDC"/>
<path d="M27.3522 47.8428C27.8627 47.8484 28.2257 48.2228 28.2144 48.7362C28.203 49.224 27.7833 49.6239 27.304 49.604C26.8615 49.5842 26.4531 49.1588 26.4531 48.722C26.4531 48.2342 26.8559 47.8428 27.3494 47.8456L27.3522 47.8428Z" fill="#216BDC"/>
<path d="M40.5537 50.1173C40.5594 49.6068 40.9338 49.2438 41.4471 49.2551C41.9349 49.2665 42.3348 49.6862 42.315 50.1656C42.2951 50.608 41.8697 51.0164 41.4329 51.0164C40.9451 51.0164 40.5537 50.6137 40.5565 50.1202L40.5537 50.1173Z" fill="#216BDC"/>
<path d="M40.5537 47.3468C40.5594 46.8363 40.9338 46.4733 41.4471 46.4846C41.9349 46.496 42.3348 46.9157 42.315 47.395C42.2951 47.8375 41.8697 48.2459 41.4329 48.2459C40.9451 48.2459 40.5537 47.8432 40.5565 47.3497L40.5537 47.3468Z" fill="#216BDC"/>
<path d="M40.0661 47.8428C40.5766 47.8484 40.9396 48.2228 40.9283 48.7362C40.9169 49.224 40.4972 49.6239 40.0178 49.604C39.5754 49.5842 39.167 49.1588 39.167 48.722C39.167 48.2342 39.5697 47.8428 40.0632 47.8456L40.0661 47.8428Z" fill="#216BDC"/>
<path d="M42.8375 47.8428C43.3481 47.8484 43.7111 48.2228 43.6997 48.7362C43.6884 49.224 43.2686 49.6239 42.7893 49.604C42.3469 49.5842 41.9385 49.1588 41.9385 48.722C41.9385 48.2342 42.3412 47.8428 42.8347 47.8456L42.8375 47.8428Z" fill="#216BDC"/>
<path d="M40.8242 59.4103C40.8299 58.8998 41.2043 58.5368 41.7176 58.5481C42.2054 58.5595 42.6053 58.9792 42.5855 59.4585C42.5656 59.901 42.1402 60.3094 41.7034 60.3094C41.2156 60.3094 40.8242 59.9066 40.8271 59.4131L40.8242 59.4103Z" fill="#216BDC"/>
<path d="M40.8242 56.6398C40.8299 56.1293 41.2043 55.7663 41.7176 55.7776C42.2054 55.7889 42.6053 56.2087 42.5855 56.688C42.5656 57.1305 42.1402 57.5389 41.7034 57.5389C41.2156 57.5389 40.8242 57.1361 40.8271 56.6426L40.8242 56.6398Z" fill="#216BDC"/>
<path d="M40.3356 57.1357C40.8461 57.1414 41.2091 57.5158 41.1978 58.0291C41.1864 58.517 40.7667 58.9169 40.2874 58.897C39.8449 58.8771 39.4365 58.4517 39.4365 58.015C39.4365 57.5271 39.8393 57.1357 40.3328 57.1386L40.3356 57.1357Z" fill="#216BDC"/>
<path d="M43.1071 57.1357C43.6176 57.1414 43.9806 57.5158 43.9693 58.0291C43.9579 58.517 43.5382 58.9169 43.0589 58.897C42.6164 58.8771 42.208 58.4517 42.208 58.015C42.208 57.5271 42.6107 57.1357 43.1042 57.1386L43.1071 57.1357Z" fill="#216BDC"/>
<path d="M25.1758 59.4103C25.1815 58.8998 25.5558 58.5368 26.0692 58.5481C26.557 58.5595 26.9569 58.9792 26.937 59.4585C26.9172 59.901 26.4918 60.3094 26.055 60.3094C25.5672 60.3094 25.1758 59.9066 25.1786 59.4131L25.1758 59.4103Z" fill="#216BDC"/>
<path d="M25.1748 56.6398C25.1805 56.1293 25.5548 55.7663 26.0682 55.7776C26.556 55.7889 26.9559 56.2087 26.9361 56.688C26.9162 57.1305 26.4908 57.5389 26.054 57.5389C25.5662 57.5389 25.1748 57.1361 25.1776 56.6426L25.1748 56.6398Z" fill="#216BDC"/>
<path d="M24.6862 57.1357C25.1967 57.1414 25.5597 57.5158 25.5484 58.0291C25.537 58.517 25.1173 58.9169 24.638 58.897C24.1955 58.8771 23.7871 58.4517 23.7871 58.015C23.7871 57.5271 24.1898 57.1357 24.6833 57.1386L24.6862 57.1357Z" fill="#216BDC"/>
<path d="M27.4577 57.1357C27.9682 57.1414 28.3312 57.5158 28.3199 58.0291C28.3085 58.517 27.8888 58.9169 27.4094 58.897C26.967 58.8771 26.5586 58.4517 26.5586 58.015C26.5586 57.5271 26.9613 57.1357 27.4548 57.1386L27.4577 57.1357Z" fill="#216BDC"/>
<path d="M23.2952 29.6857C23.9532 28.8179 24.6112 27.9528 25.2664 27.0878C25.3061 27.0367 25.3458 26.9829 25.3855 26.9318C26.1711 25.942 26.9539 24.9493 27.748 23.968C27.9636 23.7014 28.0033 23.5171 27.731 23.242C26.5937 22.0876 26.0889 20.6554 25.862 19.0728C25.7258 18.1312 25.845 17.2406 26.0974 16.3529C26.2619 15.78 26.4689 15.2213 26.6674 14.6285C25.3061 13.667 23.8852 12.6659 22.4387 11.6477C21.8119 12.2716 21.066 12.6035 20.2322 12.7595C19.1743 12.958 18.1816 12.8445 17.2173 12.3227C15.7056 11.503 14.9824 10.2495 14.8236 8.54775C14.6137 6.28165 16.5026 4.15452 18.6581 3.81702C21.1341 3.42846 23.5533 5.32302 23.8369 7.64585C23.9561 8.61582 23.7717 9.45816 23.4144 10.3345C24.8296 11.3357 26.2449 12.334 27.7083 13.3664C29.4979 11.2506 31.8633 10.6607 34.6002 10.9528C34.7364 10.465 34.8753 9.94882 35.02 9.4383C35.0994 9.16036 35.193 8.88525 35.2781 8.61014C35.5135 7.84721 35.7574 7.08428 35.9758 6.31852C36.0013 6.2306 35.9332 6.06043 35.8538 6.0037C34.7789 5.25212 34.4754 4.16303 34.4811 2.93213C34.4811 2.8045 34.5151 2.6712 34.5577 2.54641C34.9689 1.28148 35.7602 0.484514 37.0904 0.0959581C38.7495 -0.389027 40.9107 1.02055 41.078 3.05692C41.2283 4.87207 39.7223 6.69856 37.6321 6.60497C37.1499 8.19606 36.6621 9.80701 36.1743 11.4123C36.6763 11.7299 37.1556 12.0277 37.6292 12.3284C37.7597 12.4106 37.8987 12.49 38.0121 12.595C38.9793 13.4799 39.7677 14.4867 40.162 15.7573C40.2414 16.0154 40.3633 16.0863 40.6157 16.0409C41.5375 15.8793 42.4621 15.7374 43.3838 15.5729C43.744 15.5077 44.1014 15.4226 44.4474 15.3063C44.5552 15.2695 44.6658 15.1021 44.6885 14.9802C44.9494 13.4685 46.2852 12.1752 47.743 12.127C49.8957 12.0561 51.3677 13.6642 51.2684 15.7261C51.2032 17.0704 49.8957 18.6417 48.367 18.7041C47.1389 18.7551 46.0669 18.4261 45.355 17.3484C45.1394 17.0222 44.9239 16.9315 44.5523 17.0052C43.7525 17.164 42.9386 17.269 42.1359 17.4193C41.6481 17.51 41.1688 17.649 40.7717 17.7426C40.6044 18.636 40.5136 19.5322 40.2584 20.3774C40.0088 21.2113 39.5919 21.9969 39.2374 22.825C40.6866 24.2006 42.1813 25.6187 43.6731 27.0311C45.0005 26.1632 46.3675 25.9108 47.8792 26.4837C49.6234 27.1445 50.5367 28.4095 50.7806 30.2104C51.1578 32.97 48.8378 35.3326 46.1179 35.2191C43.9114 35.1283 42.0026 33.2933 41.8126 31.1605C41.7332 30.2558 41.9147 29.473 42.2947 28.6959C42.4422 28.3924 42.4394 28.1769 42.1671 27.9216C40.9277 26.7645 39.711 25.5818 38.4829 24.4133C38.3156 24.2516 38.1171 24.1212 37.9611 23.9992C36.9259 24.8104 35.7801 25.2783 34.5208 25.5506C33.4686 25.7775 32.4532 25.7123 31.4436 25.423C30.709 25.2131 29.9971 24.9238 29.2342 24.6572C28.7719 25.2698 28.25 25.9562 27.7282 26.6454C27.697 26.6879 27.6629 26.7276 27.6317 26.7701C26.8858 27.7089 26.1399 28.6449 25.3997 29.5836C25.1501 29.9013 24.9005 30.2218 24.6878 30.5649C24.6339 30.6529 24.6821 30.8514 24.7474 30.962C25.3543 32.0029 25.5613 33.1005 25.1416 34.2463C24.4779 36.0586 22.8046 36.9151 20.9214 36.606C19.0693 36.3025 17.7817 34.3881 17.9774 32.5588C18.1391 31.0244 19.6111 29.4447 21.2787 29.317C21.9963 29.2631 22.6259 29.3936 23.2896 29.6829L23.2952 29.6857ZM33.4034 24.0162C34.7676 23.9538 35.9814 23.5624 37.011 22.5783C38.0915 21.5459 38.8091 20.3888 38.931 18.8629C39.0473 17.4108 38.7722 16.1118 37.8732 14.932C36.9145 13.6727 35.7375 12.8644 34.1493 12.6035C32.4674 12.3284 31.0068 12.7283 29.6851 13.7663C28.389 14.7845 27.6374 16.0835 27.507 17.7455C27.4134 18.9338 27.541 20.0513 28.2132 21.0694C28.8258 21.9997 29.5206 22.8052 30.5388 23.3469C31.4521 23.8347 32.3795 24.0673 33.4005 24.0134L33.4034 24.0162ZM22.2345 8.27831C22.2459 6.92262 21.344 5.88458 20.028 5.54424C18.7545 5.21241 17.016 5.96967 16.6104 7.52673C16.2275 9.00721 16.9139 10.4281 18.3234 11.0067C20.0705 11.7243 22.2969 10.5387 22.2317 8.27831H22.2345ZM46.2228 27.8507C44.9749 27.8564 43.9114 28.6846 43.5824 29.907C43.1484 31.5151 43.8433 32.8452 45.3862 33.4266C46.9801 34.0251 48.54 33.0409 49.0448 31.5689C49.666 29.7481 48.2507 27.7089 46.2228 27.8536V27.8507ZM21.8034 35.0716C22.348 34.9156 22.9606 34.7171 23.386 34.0619C24.0213 33.0835 23.6781 31.5434 22.4756 31.1067C21.6106 30.7918 20.7342 30.9393 20.1216 31.6427C19.5713 32.2752 19.3643 33.0438 19.7415 33.7698C20.1187 34.493 20.7313 35.0716 21.8006 35.0716H21.8034ZM36.1374 3.37174C36.1374 4.25946 36.8975 4.97701 37.8249 4.97985C38.7978 4.97985 39.3905 4.27364 39.4104 3.29516C39.4302 2.33937 38.724 1.69272 37.7115 1.70123C36.8323 1.7069 36.1403 2.44431 36.1403 3.37174H36.1374ZM47.9926 13.823C47.2155 13.8429 46.8184 14.0698 46.5348 14.7079C46.1463 15.5815 46.4384 16.4834 47.2467 16.9088C47.9898 17.2973 48.9484 16.9797 49.405 16.1827C49.7113 15.6467 49.7227 15.0936 49.3994 14.5689C49.1072 14.0925 48.713 13.7408 47.9926 13.823Z" fill="#216BDC"/>
</svg>
