<svg width="72" height="80" viewBox="0 0 72 80" fill="none" xmlns="http://www.w3.org/2000/svg">
<path d="M66.9164 48.7256C66.149 46.5443 64.2235 45.2934 61.6375 45.2934C58.4077 45.2934 55.1807 45.2934 51.9538 45.2934H46.8828V43.8627C46.8828 42.8479 46.8828 41.8303 46.8856 40.8156C46.8913 38.5359 46.8969 36.1803 46.866 33.8641C46.8266 30.8648 45.1766 28.7313 42.3403 28.0061C41.2132 27.7194 39.9229 27.5929 38.4022 27.621C36.7859 27.6491 36.6004 27.8459 36.6004 29.5353C36.6004 30.2071 36.6004 30.8789 36.6032 31.5507C36.606 33.3638 36.6116 35.2387 36.5835 37.0827C36.5751 37.6505 36.4289 38.2604 36.1731 38.803C35.7515 39.6912 35.3046 40.5851 34.8689 41.4452C34.4191 42.3419 33.9525 43.2695 33.5168 44.1887C33.1373 44.9983 32.6426 45.3131 31.7599 45.3131H31.7487C23.6335 45.285 15.3834 45.2878 7.40592 45.2906H1.75311C1.6744 45.2906 1.59569 45.2906 1.51418 45.2906C1.2893 45.285 1.07567 45.2794 0.884525 45.3215C0.305471 45.4508 0.0103207 45.7994 0.00750974 46.3616C0.0046988 46.9182 0.297038 47.2723 0.876093 47.4129C1.04475 47.455 1.2387 47.4494 1.4439 47.4438C1.51418 47.4438 1.58445 47.4354 1.65191 47.441C5.22181 47.441 8.79171 47.441 12.3616 47.441H16.1901V75.126H1.77559C1.70251 75.1176 1.61537 75.126 1.53385 75.1232C1.33428 75.1176 1.14875 75.1119 0.974476 75.14C0.356068 75.2356 0.0384311 75.5786 0.0018888 76.1829C-0.0318425 76.7254 0.389798 77.1892 0.980097 77.2623C1.14594 77.282 1.32022 77.2792 1.50574 77.2764C1.57321 77.2764 1.64067 77.2764 1.70813 77.2764H16.2604V77.8273C16.2604 77.9791 16.2604 78.1028 16.2604 78.2265C16.2773 79.7725 16.4909 79.9889 18.0088 79.9889H26.7368C27.923 79.9889 28.578 79.9889 28.8534 79.7331C29.1345 79.4745 29.202 78.8027 29.3285 77.5884L29.3791 77.0937L29.7754 77.3916C30.0762 77.6165 30.3685 77.8386 30.6552 78.055C31.358 78.5891 32.0214 79.0922 32.71 79.5645C33.0811 79.8175 33.4802 79.9721 33.7782 79.9721C41.2862 79.9945 49.7978 80.0227 58.1772 79.9721C59.6923 79.9636 61.1034 79.2665 62.0479 78.0578C63.0177 76.821 63.3606 75.2356 62.9924 73.7093C62.8659 73.1892 62.6382 72.6917 62.3936 72.1661C62.2812 71.9187 62.1659 71.6742 62.0619 71.4212L61.9776 71.216L62.1547 71.0867C64.2123 69.5828 65.615 66.7691 63.3859 63.3819L63.2397 63.1598L63.4505 63.0024C66.135 60.9869 66.6241 58.0214 64.7267 55.2582L64.603 55.0783L64.7464 54.9153C64.7604 54.8984 64.7745 54.8816 64.7886 54.8647C64.8279 54.8141 64.8785 54.7495 64.946 54.696C67.0148 53.0067 67.6951 50.9406 66.9136 48.7228L66.9164 48.7256ZM27.0657 77.7711H18.4698V47.4803H27.0657V77.7711ZM61.927 53.4255C60.4203 53.4339 58.9137 53.4311 57.4098 53.4311C56.3754 53.4311 55.3382 53.4311 54.3009 53.4311C53.6572 53.4311 52.887 53.6166 52.8758 54.4908C52.873 54.786 52.9601 55.0277 53.1372 55.2076C53.3733 55.4466 53.764 55.5759 54.2672 55.5759C55.3241 55.5787 56.381 55.5787 57.4379 55.5759C58.4414 55.5759 59.4478 55.5759 60.4513 55.5759C62.3486 55.5815 63.6895 56.7958 63.712 58.5274C63.7232 59.3425 63.4421 60.0621 62.9024 60.6131C62.3037 61.2202 61.4295 61.5576 60.44 61.5604C59.4253 61.5632 58.4105 61.5632 57.3986 61.5604C56.3529 61.5604 55.3044 61.5604 54.2559 61.5604C53.7584 61.5604 53.3705 61.6897 53.1344 61.9314C52.9573 62.1141 52.8701 62.3559 52.8758 62.6538C52.8954 63.5618 53.7303 63.7023 54.2278 63.7051C55.0627 63.7107 55.8975 63.7079 56.7324 63.7051C57.5363 63.7051 58.3374 63.7051 59.1414 63.7051C61.0106 63.7136 62.3627 64.9785 62.3543 66.7072C62.3487 68.4247 60.9882 69.6784 59.1189 69.6868C58.3318 69.6896 57.5419 69.6868 56.7521 69.6868C55.9031 69.6868 55.0543 69.6868 54.2025 69.6868C53.3593 69.6924 52.8758 70.0803 52.8701 70.7522C52.8645 71.4212 53.3564 71.8231 54.1857 71.8316C54.7675 71.8372 55.3466 71.8344 55.9285 71.8316C56.5918 71.8316 57.2524 71.8288 57.9158 71.8372C59.6558 71.8597 60.9797 73.133 60.9966 74.7971C61.005 75.6039 60.7043 76.3516 60.1561 76.9081C59.5771 77.4928 58.7703 77.8161 57.8821 77.8189C54.7732 77.8217 51.6924 77.8245 48.6453 77.8245C43.847 77.8245 39.1415 77.8189 34.5821 77.8104C34.2195 77.8104 33.8035 77.6727 33.4999 77.4563C32.072 76.4331 30.9054 75.5589 29.8316 74.7043C29.514 74.4514 29.2723 73.9735 29.2723 73.594C29.2526 65.996 29.2526 58.2716 29.2554 50.8001V48.0875C29.2554 48.0257 29.2638 47.9638 29.2751 47.8654C29.2807 47.8177 29.2891 47.7558 29.2976 47.6771L29.3257 47.4269H29.5787C29.9581 47.4269 30.3348 47.4269 30.7058 47.4213C31.5829 47.4157 32.4149 47.4101 33.261 47.4326C33.9637 47.4579 34.3994 47.1852 34.7311 46.5078C35.3017 45.3412 35.8948 44.1606 36.4655 43.0194C37.112 41.732 37.781 40.3996 38.4191 39.0812C38.6074 38.6905 38.7227 38.2042 38.7283 37.746C38.7536 36.0623 38.7508 34.3504 38.7451 32.6948C38.7451 32.0932 38.7451 31.4889 38.7451 30.8873V29.8332L38.9756 29.7911C40.6257 29.4931 42.107 29.8107 43.1527 30.6821C44.1675 31.5282 44.7268 32.8691 44.7296 34.4544C44.7296 36.5964 44.7296 38.7355 44.7296 40.8774C44.7296 42.5499 44.7296 44.2225 44.7296 45.895C44.7296 46.5443 44.8224 46.9266 45.0276 47.1318C45.23 47.3342 45.6067 47.4241 46.2419 47.4241H46.2504C50.8912 47.4185 56.381 47.4157 61.9242 47.4241C63.7148 47.4269 65.064 48.7143 65.064 50.415C65.064 52.11 63.712 53.3918 61.9214 53.403L61.927 53.4255Z" fill="#216BDC"/>
<path d="M36.0754 7.77789C36.3902 8.07304 36.7134 8.37943 37.0086 8.70831C37.2756 9.00627 37.4415 9.52067 37.3993 9.92826C37.3572 10.3555 37.2784 10.7828 37.1997 11.1932C37.0985 11.7301 37.0058 12.2389 36.9833 12.7533C36.9636 13.203 37.166 13.768 37.4162 13.9676C37.6214 14.1306 38.2089 14.1419 38.6024 13.9873C39.1056 13.7905 39.5975 13.5206 40.0753 13.262C40.4492 13.0568 40.8343 12.846 41.2306 12.6661C41.582 12.5059 42.0908 12.5059 42.4422 12.6661C42.8413 12.846 43.2264 13.0568 43.6003 13.2592C44.0781 13.5178 44.57 13.7877 45.0732 13.9816C45.4667 14.1334 46.057 14.125 46.2594 13.962C46.5124 13.7596 46.7176 13.1918 46.6951 12.7504C46.667 12.1967 46.5658 11.6542 46.4562 11.0779C46.3803 10.676 46.3016 10.2628 46.251 9.84674C46.2088 9.48413 46.355 9.02594 46.6024 8.75891C46.9762 8.35413 47.3754 7.96903 47.7605 7.59517C48.095 7.27473 48.4379 6.94022 48.7612 6.60291C49.1069 6.23749 49.239 5.82147 49.1238 5.45886C49.0085 5.09343 48.6572 4.82639 48.1624 4.72801C47.069 4.50876 46.1779 4.37383 45.3515 4.30637C44.7106 4.25296 44.3367 3.9803 44.0613 3.35908C43.6818 2.50174 43.3023 1.6697 42.8273 0.902313C42.6867 0.674627 42.4337 0.477859 42.1442 0.252983C42.043 0.174277 41.9362 0.0899503 41.8237 0C41.7113 0.0927612 41.6045 0.177088 41.5033 0.255795C41.2138 0.483482 40.9636 0.680248 40.823 0.907934C40.556 1.35206 40.3255 1.83555 40.1034 2.30497C39.9095 2.71256 39.7099 3.13139 39.4822 3.53336C39.2911 3.87348 38.8779 4.17706 38.4984 4.25577C37.6692 4.43005 36.8175 4.5453 35.9967 4.65774L35.5553 4.71677C35.2124 4.76455 34.6305 4.92478 34.5968 5.45604C34.5687 5.85239 34.7374 6.36679 34.9931 6.6788C35.3136 7.07234 35.6846 7.41808 36.0725 7.78351L36.0754 7.77789ZM38.5687 6.48204H38.5883C40.2046 6.48204 41.1182 5.81022 41.5511 4.30918L41.8097 3.4153L42.0908 4.30075C42.5799 5.84677 43.5019 6.50734 45.0957 6.4455L46.0374 6.40614L45.27 6.95428C43.946 7.90157 43.5862 9.02876 44.1428 10.5045L44.4829 11.4068L43.7099 10.8306C42.3916 9.84393 41.2447 9.84112 39.991 10.8221L39.2489 11.404L39.5497 10.5101C40.0697 8.96973 39.7183 7.88751 38.4084 6.99644L37.6495 6.47923H38.5687V6.48204Z" fill="#216BDC"/>
<path d="M13.084 22.4879C13.5563 22.696 14.0538 22.8337 14.5794 22.9799C14.9814 23.0895 15.3974 23.2047 15.7994 23.3537C16.1873 23.4971 16.578 23.8737 16.7298 24.2448C16.8929 24.6467 17.0222 25.0656 17.1458 25.4704C17.3061 25.9876 17.455 26.4739 17.6743 26.9377C17.8739 27.3593 18.3124 27.7781 18.5935 27.8175C18.7593 27.84 19.0966 27.7472 19.7628 27.185C20.0748 26.9208 20.311 26.5076 20.5162 26.1028C21.0474 25.0656 21.9807 23.7501 23.9624 24.2926C24.1029 24.2926 24.2435 24.3038 24.3868 24.3122C24.7101 24.3319 25.0165 24.3516 25.2807 24.2785C25.8457 24.1211 26.287 23.885 26.5232 23.6123C26.6131 23.5083 26.8914 23.1879 26.3011 22.4233C26.1352 22.2068 25.9694 21.9876 25.8064 21.7683C25.4719 21.3186 25.1233 20.8548 24.7579 20.4275C24.235 19.8175 24.131 19.2357 24.4178 18.5442C24.8113 17.6025 25.039 16.8773 25.157 16.1914C25.2357 15.7332 25.1458 15.1767 24.9378 14.8394C24.8591 14.7129 24.6258 14.3334 23.656 14.6763C23.4086 14.7635 23.1641 14.8534 22.9195 14.9462C22.2983 15.1767 21.6574 15.4128 21.0053 15.5927C20.6117 15.7023 20.0777 15.6264 19.7347 15.4128C19.1135 15.0249 18.5204 14.5836 17.947 14.1563C17.7558 14.0158 17.5675 13.8724 17.3763 13.7347C17.0193 13.4732 16.7579 13.3945 16.5724 13.3945C16.356 13.3945 16.2379 13.5013 16.1817 13.5519C15.8528 13.8555 15.5886 14.3643 15.5548 14.7635C15.5211 15.1711 15.5633 15.6208 15.6026 16.0593C15.6729 16.8267 15.746 17.6222 15.4255 18.2659C15.1023 18.9152 14.4192 19.3425 13.7586 19.7557C13.3904 19.9862 13.0081 20.2251 12.7045 20.495C12.3925 20.7733 12.1283 21.3102 12.1817 21.5631C12.2492 21.878 12.668 22.3165 13.0784 22.4964L13.084 22.4879ZM16.1395 20.6693C17.649 19.8288 18.1409 18.8365 17.7895 17.3552L17.5675 16.4191L18.259 17.0853C19.4227 18.2097 20.5443 18.3783 21.8963 17.6362L22.6862 17.2034L22.2814 18.0101C21.5759 19.4156 21.7727 20.5231 22.9139 21.6025L23.5632 22.2153L22.6806 22.0832C21.1121 21.8499 20.0805 22.4092 19.4311 23.8428L19.046 24.6945L18.8971 23.7725C18.6356 22.1422 17.8177 21.3467 16.2463 21.1921L15.3525 21.105L16.1367 20.6665L16.1395 20.6693Z" fill="#216BDC"/>
<path d="M69.7566 19.5809C69.1691 19.252 67.3898 18.2597 68.1431 16.2977C68.1431 16.1037 68.1543 15.921 68.1628 15.7468C68.1825 15.3701 68.1993 15.0468 68.1234 14.7685C67.9604 14.1586 67.7271 13.7285 67.4853 13.5908C67.283 13.4727 66.7545 13.5486 66.2851 13.7622C65.8072 13.9787 65.3125 14.33 64.8599 14.7798C63.8901 15.7411 62.8473 15.9014 61.6723 15.2689C61.0989 14.9597 60.5282 14.7629 60.0223 14.6983C59.4488 14.6252 58.9148 14.6983 58.7236 14.8838C58.5184 15.0806 58.4116 15.6709 58.4931 16.1487C58.6309 16.9442 58.9204 17.7228 59.2605 18.5858C59.5276 19.2661 59.4432 19.8001 58.9907 20.323C58.6168 20.753 58.2683 21.2225 57.9281 21.675C57.751 21.9112 57.5739 22.1501 57.3912 22.3834C57.0146 22.8697 56.9415 23.2379 57.1383 23.6539C57.3491 24.0981 57.7061 24.2892 58.3245 24.2892H58.3441C58.5634 24.2892 58.7855 24.2836 59.0047 24.2808C59.2914 24.278 59.581 24.2723 59.8705 24.2723C60.2978 24.2723 60.7278 24.2808 61.1551 24.3117C61.5655 24.3426 62.049 24.5956 62.302 24.9132C62.5718 25.2506 62.8107 25.6132 63.0412 25.9617C63.3251 26.3946 63.595 26.8022 63.9154 27.1676C64.2246 27.5218 64.725 27.8029 65.1045 27.8422C65.6554 27.8957 65.9196 27.3054 66.0265 26.9484C66.3019 26.0489 66.5858 25.1156 66.9485 24.2049C67.0918 23.8479 67.46 23.4937 67.8227 23.3616C68.219 23.2182 68.6294 23.103 69.0257 22.9934C69.557 22.8444 70.0602 22.7066 70.538 22.4986C70.9793 22.3075 71.4122 21.8859 71.4656 21.6019C71.5106 21.3602 71.2942 20.9189 70.8894 20.4185C70.6139 20.0784 70.1782 19.8198 69.7566 19.5837V19.5809ZM67.4347 21.1747C65.8213 21.3743 65.0033 22.167 64.7812 23.7523L64.6575 24.6378L64.2528 23.8395C63.4882 22.33 62.4819 21.8015 60.9977 22.1192L60.0785 22.3159L60.7391 21.6469C61.8972 20.4719 62.0827 19.3504 61.3434 18.0039L60.9077 17.2113L61.7145 17.616C63.2043 18.3637 64.3258 18.2035 65.3575 17.1016L66.0096 16.4017L65.8381 17.3434C65.557 18.8894 66.0771 19.9041 67.5275 20.6406L68.3483 21.0594L67.4347 21.1719V21.1747Z" fill="#216BDC"/>
<path d="M24.1855 65.7453C24.4947 65.7453 24.7786 65.6441 24.9753 65.4501C25.1749 65.2534 25.2789 64.9863 25.2789 64.6715C25.2789 64.3567 25.1749 64.0868 24.9781 63.8929C24.7786 63.6961 24.5003 63.5949 24.1883 63.5977C23.8762 63.6005 23.6092 63.7073 23.4181 63.9069C23.2241 64.1093 23.1229 64.3848 23.1313 64.7052C23.1454 65.3096 23.5783 65.7368 24.1855 65.7453Z" fill="#216BDC"/>
</svg>
