<svg width="81" height="76" viewBox="0 0 81 76" fill="none" xmlns="http://www.w3.org/2000/svg">
<path d="M38.5775 23.6066V22.5549C38.5775 15.7615 38.5775 8.96452 38.5775 2.17109C38.5775 1.86198 38.542 1.54576 38.6024 1.2473C38.7658 0.45497 39.2668 -0.01048 40.0876 0.000179188C40.8657 0.0108383 41.3453 0.472734 41.5088 1.21532C41.5727 1.51022 41.5408 1.83 41.5408 2.13912C41.5408 8.93254 41.5408 15.7295 41.5408 22.523V23.6031C42.7737 22.6331 43.8964 21.7484 45.0192 20.8637C45.2857 20.654 45.5415 20.4267 45.8222 20.2383C46.5577 19.7409 47.382 19.8475 47.8901 20.4871C48.4053 21.1373 48.3484 21.9545 47.6449 22.5407C46.2699 23.6884 44.8558 24.7862 43.4559 25.8983C42.7062 26.4953 41.96 27.0886 41.1997 27.6713C40.3256 28.3428 39.7962 28.3535 38.9541 27.6926C36.8685 26.0511 34.7864 24.4025 32.715 22.7468C31.8338 22.0433 31.6633 21.2332 32.2069 20.5119C32.7647 19.7729 33.6672 19.7303 34.5661 20.4302C35.8701 21.4464 37.1599 22.4768 38.5811 23.6031L38.5775 23.6066Z" fill="black"/>
<path d="M41.544 52.3865C41.544 59.6667 41.544 66.7373 41.544 73.8078C41.544 74.117 41.5759 74.4332 41.5191 74.7316C41.3663 75.5275 40.8689 76.0036 40.0517 76.0001C39.2345 75.993 38.7406 75.5133 38.5985 74.7139C38.5452 74.4154 38.5772 74.0992 38.5772 73.7901C38.5772 66.7195 38.5772 59.6525 38.5772 52.4078C37.426 53.3103 36.3778 54.1346 35.3297 54.9589C35.0135 55.2076 34.7079 55.467 34.381 55.7015C33.6029 56.2558 32.7644 56.1812 32.2385 55.5274C31.702 54.863 31.7908 54.0209 32.5334 53.4098C33.7237 52.4291 34.9459 51.484 36.154 50.5283C37.0742 49.7999 37.9874 49.068 38.9147 48.3467C39.7852 47.6681 40.3182 47.6432 41.1567 48.3005C43.2459 49.9385 45.328 51.5871 47.3958 53.2463C48.3161 53.9818 48.4688 54.831 47.8648 55.5523C47.2928 56.2345 46.4365 56.2593 45.566 55.5807C44.262 54.5645 42.9723 53.527 41.5404 52.3936L41.544 52.3865Z" fill="black"/>
<path d="M76.5877 30.7771C64.415 30.7771 52.2458 30.7771 40.073 30.7771C27.9003 30.7771 15.5464 30.7771 3.28124 30.7771C1.19915 30.7771 0.0124357 31.9674 0.00532957 34.0495C-0.00177652 36.5828 -0.00177652 39.1161 0.00532957 41.6494C0.0124357 43.6498 1.23113 44.8649 3.24926 44.8649C27.7759 44.8649 52.3026 44.8649 76.8329 44.8649C78.9114 44.8649 80.1052 43.6676 80.1088 41.589C80.1159 39.1481 80.1088 36.7071 80.1088 34.2697C80.1088 31.8963 78.9789 30.7771 76.5842 30.7771H76.5877ZM77.1669 41.0632C77.1846 41.756 77.007 41.9195 76.3141 41.9159C64.2302 41.891 52.1463 41.8981 40.0659 41.8981C27.9856 41.8981 15.9621 41.891 3.91013 41.9159C3.14622 41.9159 2.93659 41.7489 2.95791 40.9708C3.01831 38.8105 3.00055 36.6432 2.96502 34.4829C2.95436 33.8789 3.1178 33.7226 3.72182 33.7261C8.76004 33.751 13.7947 33.7403 18.8329 33.7403C37.9306 33.7403 57.0282 33.7474 76.1294 33.719C76.9608 33.719 77.2024 33.9073 77.174 34.7565C77.1065 36.8564 77.1207 38.9598 77.1704 41.0596L77.1669 41.0632Z" fill="black"/>
<path d="M11.8647 35.9574C11.8185 35.0833 11.2038 34.4935 10.3973 34.49C9.59076 34.49 8.94767 35.0762 8.92279 35.9467C8.88726 37.1761 8.89082 38.409 8.92279 39.6384C8.94411 40.5586 9.59787 41.1768 10.4364 41.1555C11.2394 41.1342 11.8327 40.5302 11.8718 39.6526C11.9002 39.0379 11.8789 38.4232 11.8754 37.805C11.8754 37.1903 11.9002 36.5721 11.8683 35.9574H11.8647Z" fill="black"/>
<path d="M22.2301 34.4902C21.388 34.508 20.8124 35.1227 20.7804 36.0713C20.7627 36.654 20.7769 37.2403 20.7769 37.8265C20.7769 38.3808 20.7769 38.9351 20.7769 39.4894C20.7769 39.5213 20.7769 39.5498 20.7769 39.5817C20.8231 40.5233 21.3986 41.1451 22.2407 41.1557C23.0792 41.1664 23.7117 40.5482 23.7366 39.6173C23.765 38.4163 23.765 37.2154 23.7366 36.018C23.7152 35.0907 23.0757 34.476 22.2336 34.4902H22.2301Z" fill="black"/>
<path d="M35.6001 35.9468C35.5503 35.0763 34.9285 34.4865 34.122 34.49C33.3119 34.49 32.683 35.0834 32.6581 35.9574C32.6226 37.1868 32.6262 38.4197 32.6581 39.649C32.6795 40.5302 33.287 41.1307 34.09 41.1555C34.9285 41.1804 35.5645 40.5622 35.6072 39.6419C35.6356 39.0272 35.6107 38.4126 35.6107 37.7943C35.6107 37.1797 35.6392 36.5614 35.6036 35.9468H35.6001Z" fill="black"/>
<path d="M45.9644 34.4902C45.1224 34.508 44.5468 35.1227 44.5148 36.0713C44.497 36.654 44.5112 37.2403 44.5112 37.8265C44.5112 38.3808 44.5112 38.9351 44.5112 39.4894C44.5112 39.5213 44.5112 39.5498 44.5112 39.5817C44.5574 40.5233 45.133 41.1451 45.9751 41.1557C46.8136 41.1664 47.4461 40.5482 47.4709 39.6173C47.4994 38.4163 47.4994 37.2154 47.4709 36.018C47.4496 35.0907 46.8101 34.476 45.968 34.4902H45.9644Z" fill="black"/>
<path d="M59.3313 35.9041C59.2745 35.0478 58.6172 34.4616 57.8142 34.49C57.0432 34.5149 56.4214 35.0869 56.3965 35.9077C56.3574 37.169 56.3574 38.4303 56.3965 39.6917C56.4214 40.5622 57.0609 41.1555 57.8675 41.1555C58.674 41.1555 59.2922 40.5622 59.3384 39.6881C59.3704 39.0734 59.3455 38.4588 59.3455 37.8405C59.3455 37.1939 59.3775 36.5472 59.3349 35.9041H59.3313Z" fill="black"/>
<path d="M71.2083 36.0674C71.1763 35.1188 70.5936 34.5041 69.7551 34.4863C68.913 34.4721 68.277 35.0903 68.2557 36.0141C68.2273 37.2151 68.2273 38.416 68.2557 39.6134C68.277 40.5407 68.913 41.1625 69.7515 41.1483C70.5901 41.1376 71.1763 40.5158 71.2083 39.5707C71.2296 38.988 71.2118 38.4018 71.2118 37.8155C71.2118 37.2293 71.2296 36.6466 71.2083 36.0603V36.0674Z" fill="black"/>
</svg>
