<svg width="272" height="272" viewBox="0 0 272 272" fill="none" xmlns="http://www.w3.org/2000/svg">
<path d="M271.79 136C271.7 211.06 210.71 271.96 135.75 271.82C60.6805 271.68 -0.189556 210.65 0.000443593 135.71C0.190444 60.81 61.1404 -0.0399803 135.93 1.97093e-05C210.96 0.0300197 271.88 61.02 271.79 136ZM228.42 222.18C256.78 192.84 271.25 146.37 257.91 101.96C242.43 50.4 207.24 19.27 154.14 10.63C114.53 4.18003 79.6504 16.49 49.9204 42.62C66.3804 59.08 82.4804 75.19 98.6404 91.35C101.87 86.38 105.12 81.08 108.67 75.98C116.2 65.14 123.84 54.38 131.52 43.64C134.18 39.93 137.49 40.02 140.29 43.66C140.98 44.56 141.63 45.48 142.3 46.39C161.28 72.26 179.35 98.71 193.28 127.75C197.49 136.52 201.1 145.53 202.94 155.12C205.09 166.3 203.17 177.11 199.04 187.51C197.88 190.45 198.23 192.05 200.46 194.21C208.62 202.06 216.53 210.16 224.53 218.17C225.84 219.49 227.11 220.85 228.4 222.19L228.42 222.18ZM42.6604 49.74C12.7604 84.52 1.21044 124.45 13.7804 168.98C28.4804 221.05 64.0304 252.3 117.34 261.15C157.06 267.74 192.04 255.4 221.71 229.37C211.81 219.47 202.25 209.91 192.65 200.31C192.19 200.97 191.52 201.99 190.79 202.97C177.65 220.5 160.08 230.26 138.24 230.89C113.08 231.62 92.9104 221.19 79.0604 200.11C68.1204 183.47 64.7504 165.3 71.2304 145.86C75.2204 133.92 80.6304 122.65 86.7704 111.71C88.9704 107.79 91.1804 103.87 93.1904 100.29C76.3004 83.4 59.6404 66.74 42.6504 49.75L42.6604 49.74ZM186.15 193.66C157.09 164.61 128.37 135.9 99.6804 107.22C92.8104 119.03 86.0504 131.3 81.0704 144.49C76.8504 155.65 75.7404 166.94 79.0704 178.56C87.8104 209.02 116.92 227.03 147.97 220.68C164.69 217.26 177.4 207.76 186.15 193.66ZM190.89 183.94C194.12 174.83 195.87 165.53 193.89 155.8C191.86 145.83 187.83 136.58 183.27 127.59C170.05 101.53 153.7 77.45 136.56 53.86C136.37 53.6 136.03 53.44 135.43 52.99C125.11 68.15 114.89 83.15 104.83 97.92C133.77 126.84 162.24 155.3 190.88 183.93L190.89 183.94Z" fill="#216BDC"/>
</svg>
