<svg width="426" height="426" viewBox="0 0 426 426" fill="none" xmlns="http://www.w3.org/2000/svg">
<path d="M344.69 317.83H109.5C108.288 317.83 107.126 317.348 106.269 316.491C105.412 315.634 104.93 314.472 104.93 313.26C104.93 312.048 105.412 310.886 106.269 310.028C107.126 309.171 108.288 308.69 109.5 308.69H344.69C345.902 308.69 347.065 309.171 347.922 310.028C348.779 310.886 349.26 312.048 349.26 313.26C349.26 314.472 348.779 315.634 347.922 316.491C347.065 317.348 345.902 317.83 344.69 317.83Z" fill="#216BDC"/>
<path d="M312.91 309.42C311.742 309.42 310.619 308.973 309.77 308.17L207 210.62C206.142 209.781 205.648 208.638 205.625 207.438C205.603 206.238 206.053 205.077 206.879 204.207C207.705 203.336 208.841 202.825 210.04 202.785C211.24 202.744 212.407 203.177 213.29 203.99L312.75 298.42L366.75 242.76C367.168 242.329 367.667 241.985 368.219 241.747C368.77 241.509 369.363 241.382 369.963 241.374C370.563 241.365 371.159 241.474 371.717 241.696C372.275 241.917 372.784 242.247 373.215 242.665C373.646 243.083 373.99 243.582 374.228 244.134C374.466 244.685 374.593 245.278 374.601 245.878C374.61 246.478 374.501 247.074 374.279 247.632C374.058 248.19 373.728 248.699 373.31 249.13L316.19 308C315.769 308.448 315.261 308.805 314.697 309.049C314.133 309.293 313.525 309.419 312.91 309.42Z" fill="#216BDC"/>
<path d="M375.73 267.41C374.543 267.41 373.402 266.948 372.55 266.121C371.699 265.293 371.204 264.167 371.17 262.98L370.64 244.98L350.64 247.14C350.043 247.206 349.439 247.153 348.862 246.985C348.286 246.818 347.748 246.538 347.28 246.162C346.811 245.787 346.421 245.322 346.132 244.796C345.843 244.27 345.66 243.692 345.595 243.095C345.529 242.498 345.582 241.894 345.749 241.318C345.917 240.741 346.197 240.203 346.572 239.735C346.948 239.266 347.412 238.876 347.939 238.587C348.465 238.298 349.043 238.116 349.64 238.05L374.64 235.36C375.267 235.291 375.901 235.352 376.503 235.54C377.106 235.729 377.662 236.04 378.137 236.455C378.613 236.869 378.997 237.378 379.266 237.948C379.535 238.519 379.683 239.139 379.7 239.77L380.38 262.7C380.412 263.911 379.963 265.086 379.131 265.967C378.299 266.848 377.151 267.363 375.94 267.4L375.73 267.41Z" fill="#216BDC"/>
<path d="M262.33 309.42C261.174 309.42 260.06 308.984 259.21 308.2L156.11 212.2C155.223 211.374 154.7 210.229 154.657 209.018C154.614 207.806 155.054 206.627 155.88 205.74C156.706 204.853 157.851 204.33 159.062 204.287C160.274 204.244 161.453 204.684 162.34 205.51L262.17 298.51L316.22 242.82C317.065 241.95 318.221 241.451 319.433 241.434C320.645 241.416 321.815 241.88 322.685 242.725C323.555 243.57 324.054 244.725 324.072 245.938C324.089 247.15 323.625 248.32 322.78 249.19L265.61 308C265.188 308.446 264.68 308.802 264.116 309.046C263.552 309.29 262.944 309.418 262.33 309.42Z" fill="#216BDC"/>
<path d="M325.15 267.41C323.962 267.41 322.82 266.948 321.967 266.121C321.114 265.294 320.616 264.168 320.58 262.98L320.05 244.98L300.05 247.14C298.845 247.272 297.636 246.921 296.69 246.162C295.744 245.404 295.138 244.3 295.005 243.095C294.872 241.889 295.224 240.681 295.983 239.735C296.741 238.789 297.845 238.182 299.05 238.05L324.05 235.36C324.677 235.289 325.312 235.349 325.915 235.537C326.518 235.725 327.075 236.036 327.551 236.451C328.027 236.866 328.411 237.375 328.68 237.946C328.948 238.518 329.095 239.139 329.11 239.77L329.79 262.7C329.807 263.3 329.706 263.898 329.492 264.459C329.279 265.02 328.956 265.533 328.544 265.97C328.132 266.406 327.637 266.757 327.089 267.003C326.541 267.248 325.95 267.383 325.35 267.4L325.15 267.41Z" fill="#216BDC"/>
<path d="M135 182.5C129.659 182.602 124.365 181.498 119.51 179.27C115.24 177.298 111.599 174.183 108.99 170.27C106.448 166.372 105.131 161.803 105.21 157.15V114.63C105.187 113.996 105.297 113.364 105.533 112.775C105.769 112.186 106.126 111.653 106.58 111.21C107.242 110.526 108.095 110.058 109.028 109.868C109.96 109.677 110.929 109.773 111.806 110.143C112.683 110.513 113.428 111.139 113.942 111.94C114.457 112.741 114.718 113.679 114.69 114.63V157.17C114.634 160.268 115.539 163.307 117.28 165.87C119.097 168.464 121.586 170.514 124.48 171.8C127.788 173.274 131.379 174.004 135 173.94C138.505 174.006 141.979 173.274 145.16 171.8C147.963 170.49 150.356 168.44 152.08 165.87C153.77 163.287 154.645 160.256 154.59 157.17V114.63C154.565 113.997 154.674 113.365 154.908 112.776C155.142 112.187 155.497 111.654 155.95 111.21C156.397 110.777 156.927 110.437 157.507 110.21C158.087 109.983 158.707 109.875 159.33 109.89C159.952 109.865 160.573 109.969 161.153 110.196C161.733 110.424 162.26 110.769 162.7 111.21C163.128 111.667 163.461 112.205 163.679 112.792C163.897 113.379 163.996 114.004 163.97 114.63V157.17C164.05 161.81 162.767 166.372 160.28 170.29C157.763 174.182 154.215 177.298 150.03 179.29C145.335 181.506 140.19 182.605 135 182.5Z" fill="#216BDC"/>
<path d="M206.6 181C205.662 181.01 204.743 180.726 203.974 180.188C203.205 179.65 202.623 178.885 202.31 178L175.62 117C174.774 114.933 174.684 113.233 175.35 111.9C175.716 111.224 176.274 110.673 176.955 110.317C177.635 109.961 178.407 109.815 179.17 109.9C180.108 109.837 181.041 110.078 181.83 110.588C182.619 111.098 183.223 111.849 183.55 112.73L207 168.93H206L229.87 112.72C230.195 111.823 230.78 111.043 231.55 110.48C232.347 110.052 233.246 109.848 234.15 109.89C234.906 109.822 235.666 109.974 236.337 110.329C237.008 110.684 237.561 111.226 237.93 111.89C238.282 112.557 238.466 113.3 238.466 114.055C238.466 114.81 238.282 115.553 237.93 116.22L210.93 178.08C210.571 178.958 209.988 179.727 209.24 180.31C208.459 180.822 207.532 181.064 206.6 181Z" fill="#216BDC"/>
</svg>
