<svg width="426" height="426" viewBox="0 0 426 426" fill="none" xmlns="http://www.w3.org/2000/svg">
<path d="M288.6 258.3C295.7 270.5 302.7 282.5 309.6 294.4C310.1 295.3 310.7 296.3 310.9 297.3C311.4 300.3 308.5 302.2 305.2 301.3C295.4 298.7 285.7 296.1 275.9 293.5C275.4 293.4 274.8 293.3 273.9 293.1C273.2 295.7 272.5 298.2 271.8 300.7C269.7 308.4 267.7 316.1 265.7 323.7C265.1 325.8 264.3 327.7 261.8 328C259.4 328.2 258.3 326.6 257.3 324.8C251.2 314.1 245 303.4 238.8 292.8C238.2 291.8 237 291 235.9 290.6C232.8 289.3 229.7 288.4 226.6 287.2C223.9 286.1 221.3 284.8 218.7 283.7C214.8 282 210.8 282 206.9 283.7C202.3 285.7 197.8 288.3 193 289.5C188.8 290.6 186.6 292.9 184.6 296.5C179.4 306.1 173.7 315.5 168.3 325C167.3 326.8 166.1 328.5 163.7 328.1C161.3 327.8 160.5 325.9 159.9 323.8C157.3 313.7 154.5 303.7 151.7 293.4C151 293.5 150.4 293.5 149.8 293.7C140.1 296.3 130.4 298.8 120.8 301.5C118.8 302 117 302.2 115.6 300.4C114.1 298.6 114.7 296.7 115.8 294.9C122.4 283.6 128.9 272.2 135.4 260.9C135.8 260.1 136.3 259.3 136.8 258.4C128.2 253.8 127.5 246.2 128.5 237.8C128.9 234.7 129.2 231.5 129.6 228.4C130.2 223.6 128.9 219.4 125.5 215.9C122.6 212.9 119.8 209.8 117.2 206.7C110 198 110 190.6 117.2 181.9C119.8 178.8 122.5 175.8 125.4 172.9C129.1 169.1 130.2 164.6 129.5 159.4C128.9 154.7 128.3 150 128.2 145.3C128 136.9 131.9 131.5 140 129C144.9 127.5 150 126.6 155 125.5C159.6 124.6 162.9 122.1 165.2 118C167.7 113.5 170.2 109 173.1 104.8C177.3 98.7001 183.2 96.2001 190.6 98.2001C192.9 98.8001 195.1 99.8001 197.4 100.7C200.4 101.9 203.3 103.3 206.2 104.6C210.5 106.6 214.8 106.6 219.2 104.7C221.7 103.6 224.2 102.5 226.7 101.4C228 100.8 229.3 100.2 230.6 99.7001C241.2 95.5001 248 97.6001 254.1 107.2C256.4 110.8 258.4 114.5 260.4 118.2C262.6 122.2 265.9 124.6 270.5 125.6C275.4 126.6 280.4 127.6 285.2 129C293.7 131.6 297.4 136.7 297.3 145.6C297.2 150.7 296.5 155.8 296 161C295.5 165.4 296.6 169.2 299.6 172.4C302.6 175.7 305.7 178.9 308.5 182.4C315.3 190.9 315.3 198.1 308.5 206.7C306.6 209.1 304.6 211.5 302.3 213.5C296.3 218.8 294.7 225.2 296.2 232.8C296.8 235.8 296.9 238.9 297.1 241.9C297.6 248.7 295.5 254.6 288.6 258.3ZM289.2 147.8C289.5 139.9 287.9 137.7 281.2 135.9C278.4 135.1 275.6 134.5 272.7 134.1C262.8 132.8 255.7 127.8 251.4 118.7C249.9 115.5 248 112.4 245.9 109.5C242.9 105.2 240.3 104.4 235.4 106.2C231.6 107.6 227.9 109.2 224.3 111C216.5 114.8 208.7 114.8 200.9 110.9C197.6 109.2 194.2 107.7 190.7 106.4C185 104.2 182.2 105.1 178.8 110.1C176.6 113.3 174.7 116.7 172.9 120.2C169 127.8 162.8 132.2 154.3 133.6C150.4 134.2 146.5 135 142.7 136.1C137.5 137.6 135.8 139.9 135.9 145.3C136 148.7 136.2 152.1 136.8 155.4C138.4 165 136.3 173.3 129 180.1C126.6 182.3 124.5 184.8 122.5 187.3C118.4 192.5 118.4 195.7 122.5 200.8C125.2 204.1 128.1 207.1 130.9 210.2C135.7 215.4 137.8 221.4 137 228.4C136.5 233.3 135.9 238.1 135.8 243C135.7 248.1 137.2 250.2 142.2 251.7C145.8 252.8 149.6 253.7 153.3 254.2C162.4 255.6 169.1 260.2 173.2 268.5C174 270.1 174.8 271.6 175.7 273.1C177.1 275.3 178.4 277.5 179.9 279.5C182.1 282.5 185.2 283.5 188.7 282.1C192.6 280.7 196.5 279.2 200.1 277.3C208.3 273.1 216.4 273.1 224.6 277.2C227.9 278.9 231.3 280.4 234.8 281.7C240 283.6 242.8 282.7 245.9 278.2C248 275.1 249.9 271.9 251.6 268.6C255.8 260 262.7 255.4 272.1 254.1C276 253.5 279.9 252.5 283.7 251.3C287.3 250.2 289.2 247.6 289 243.8C288.9 239.9 288.7 236 288.1 232.2C286.7 223 288.5 215 295.4 208.3C298 205.8 300.4 203 302.7 200.2C306.4 195.5 306.3 192.4 302.8 187.6C301.8 186.2 300.6 184.9 299.4 183.6C297.2 181.1 294.9 178.7 292.8 176.2C288.8 171.6 287.2 166.1 287.7 160.1C288.4 155.9 288.9 151.4 289.2 147.8ZM178.3 290.9C176.3 288.2 174.7 286.2 173.1 284C171.6 281.8 170.2 279.6 168.8 277.3C167.4 275 166.1 272.6 164.8 270.2C162.6 266.2 159.2 263.8 154.7 262.9C151.9 262.4 149.2 261.9 146.5 261.1C144.8 260.6 144 261.1 143.2 262.6C138.2 271.5 133.1 280.2 128 289.1C127.6 289.7 127.4 290.3 126.9 291.3C127.9 291.1 128.5 290.9 129.1 290.8C136.8 288.8 144.4 286.7 152.1 284.7C155.9 283.7 157.4 284.6 158.4 288.5C158.9 290.4 159.4 292.3 159.9 294.3C161.6 300.6 163.3 307 165.2 313.9C170 305.4 174.5 297.5 178.3 290.9ZM298.5 291.5C292.6 281.3 287.1 271.6 281.5 262.1C281.2 261.6 280.1 261.2 279.4 261.3C277.1 261.6 274.9 262.2 272.6 262.5C266.5 263.4 262 266.5 259.3 272.1C258.4 273.9 257.4 275.6 256.4 277.3C253.8 282.1 250.9 286.6 246 289.5C250.6 297.5 255.2 305.4 260 313.8C262.4 304.9 264.6 296.8 266.8 288.6C267.9 284.5 269.3 283.7 273.5 284.8C274.5 285.1 275.6 285.4 276.6 285.7C283.6 287.5 290.7 289.5 298.5 291.5Z" fill="#216BDC"/>
<path d="M212.5 256.1C178.3 256 150.5 228.2 150.5 194.1C150.5 159.9 178.5 132 212.8 132.1C246.9 132.2 274.8 160.2 274.7 194.3C274.5 228.4 246.6 256.2 212.5 256.1ZM212.5 248.1C242.4 248.1 266.7 223.9 266.7 194.1C266.7 164.4 242.5 140.1 212.8 140C182.9 139.9 158.6 164.1 158.5 193.9C158.3 223.7 182.6 248 212.5 248.1Z" fill="#216BDC"/>
<path d="M204.4 210.5C205 209.5 205.4 208.6 206 208C218.3 195.7 230.6 183.4 242.9 171.1C243.5 170.5 244.2 169.7 244.9 169.3C246.7 168.2 248.4 168.4 249.9 169.9C251.2 171.3 251.4 173 250.3 174.7C249.8 175.5 249.1 176.1 248.5 176.7C235.1 190.2 221.6 203.7 208.1 217.2C204.8 220.6 203.2 220.5 199.8 217.2C192.1 209.5 184.3 201.7 176.6 194C176.2 193.6 175.8 193.2 175.4 192.8C173.8 191 173.7 188.8 175.2 187.2C176.8 185.5 179.1 185.4 181 187.1C184.6 190.5 188.1 194.1 191.6 197.6C195.6 201.7 199.7 205.8 204.4 210.5Z" fill="#216BDC"/>
</svg>
