<svg width="426" height="426" viewBox="0 0 426 426" fill="none" xmlns="http://www.w3.org/2000/svg">
<path d="M213.57 104.69C217.78 104.69 221.99 104.69 226.2 104.69C229.39 105.1 232.59 105.43 235.77 105.93C263.43 110.27 286.41 123.1 303.78 145.02C325.65 172.62 332.34 203.92 324.56 238.3C324.37 239.15 324.43 240.32 324.89 241.01C326.85 243.99 327.73 247.19 327.72 250.74C327.68 265.76 327.66 280.78 327.72 295.79C327.74 300.34 326.35 304.37 323.05 307.33C320.06 310.01 316.8 312.73 313.16 314.3C294.82 322.23 276.18 322.39 257.43 315.59C256.14 315.12 254.5 314.69 253.29 315.07C229.37 322.64 205.48 322.53 182.14 313.41C145.36 299.04 122.77 272.13 114.17 233.58C113.15 229.02 112.75 224.32 112.06 219.68C112.06 215.05 112.06 210.41 112.06 205.78C112.18 205.17 112.36 204.57 112.41 203.96C114.33 180.81 122.73 160.3 137.81 142.65C154.14 123.54 174.74 111.54 199.45 106.74C204.11 105.83 208.86 105.37 213.56 104.7L213.57 104.69ZM223.46 297.05C228.5 296.23 233.39 295.4 238.3 294.68C239.82 294.46 240.15 293.77 240.14 292.32C240.08 278.35 240.14 264.39 240.08 250.42C240.06 246.44 241.31 243 243.79 239.95C246.74 236.34 250.51 233.81 254.69 231.88C265.93 226.7 277.84 225.39 290.03 226.23C294.26 226.52 298.45 227.32 302.9 227.91C303.34 223.96 303.78 220.03 304.24 215.96C301.32 215.65 297.54 216.73 297.51 212.54C297.47 208.2 301.42 209.41 304.14 209C303.01 188.49 295.71 170.75 282 155.52C279.92 157.21 278.04 160.25 275.22 157.5C272.32 154.66 275.39 152.72 277.12 150.63C261.79 136.74 243.98 129.35 223.32 128.24C223.1 131.04 224.1 134.7 220.13 134.86C215.63 135.05 216.77 131.02 216.45 128.23C195.91 129.41 178.19 136.71 163.03 150.33C166.48 154.41 167 155.85 165.29 157.4C161.99 160.38 160.28 156.96 158.08 155.29C144.2 170.56 136.76 188.38 135.65 209.04C138.43 209.37 142.22 208.25 142.28 212.43C142.34 216.79 138.39 215.58 135.64 216.03C136.76 236.55 144.07 254.31 157.76 269.5C161.91 266.08 163.39 265.54 164.86 267.18C167.84 270.48 164.42 272.2 162.69 274.48C178 288.31 195.82 295.66 216.44 296.75C216.74 293.92 215.65 290.45 219.86 290.05C222.17 289.83 222.88 291.25 223.46 297.04V297.05ZM240.37 301.22C186.52 313.79 133.93 275.83 129.07 220.49C124.54 168.97 163.24 124.33 215.2 121.69C240.8 120.39 263.44 128.5 282.03 146.22C306.08 169.16 314.52 197.52 309.32 230.05C312.35 231.59 315.34 233.1 318.32 234.62C327.17 199.89 314.7 151.02 270.68 125.13C228.76 100.48 174.71 109.76 142.77 147.16C111.14 184.2 110.76 239.23 142.03 276.94C173.15 314.46 219.67 318.61 246.47 309.7C244.54 307.01 242.55 304.25 240.38 301.24L240.37 301.22ZM283.92 232.7L283.83 232.19C277.96 233.08 272.02 233.67 266.24 234.95C260.04 236.32 254.2 238.77 249.66 243.51C245.91 247.42 245.75 251.88 249.69 255.55C252.16 257.85 255.04 259.98 258.12 261.3C273 267.71 288.32 267.88 303.78 263.59C309.02 262.14 313.92 259.88 317.84 255.93C322 251.73 322.14 247.25 317.81 243.29C315.42 241.1 312.6 239.23 309.68 237.82C301.57 233.91 292.82 232.84 283.92 232.7ZM246.84 262.43C246.84 265.32 247.08 267.86 246.79 270.34C246.18 275.67 248.8 279.19 252.86 281.97C254.53 283.11 256.29 284.19 258.15 284.97C272.96 291.19 288.13 291.44 303.47 287.28C308.86 285.82 313.98 283.6 317.87 279.41C319.19 277.98 320.54 276.05 320.75 274.21C321.19 270.44 320.88 266.59 320.88 262.51C309.71 270.7 297.12 273.11 283.94 273.12C270.75 273.12 258.14 270.74 246.84 262.44V262.43ZM246.84 286.02C246.84 289.48 246.93 292.56 246.82 295.64C246.71 298.59 247.85 300.94 249.84 302.99C252.94 306.18 256.77 308.23 260.89 309.71C273.37 314.18 286.12 314.62 299.03 312C305.12 310.76 310.92 308.71 315.92 304.85C318.23 303.06 320.5 300.99 320.78 297.98C321.13 294.13 320.86 290.22 320.86 286.1C309.71 294.29 297.11 296.69 283.93 296.69C270.75 296.69 258.14 294.29 246.85 286.02H246.84Z" fill="#216BDC"/>
<path d="M223.25 173.77C223.25 182.89 223.27 192.01 223.22 201.13C223.22 202.37 223.47 203.09 224.69 203.72C228.56 205.73 230.58 209.93 229.91 214.1C229.23 218.36 225.86 221.77 221.58 222.52C217.45 223.24 213.14 221.25 211.14 217.42C210.47 216.13 209.71 215.85 208.39 215.85C195.27 215.89 182.15 215.88 169.03 215.87C168.33 215.87 167.6 215.95 166.93 215.8C165.14 215.41 164.1 214.28 164.14 212.4C164.18 210.61 165.23 209.56 166.93 209.2C167.6 209.06 168.33 209.13 169.03 209.13C182.08 209.13 195.13 209.1 208.18 209.16C209.66 209.16 210.49 208.85 211.29 207.46C212.09 206.06 213.37 204.7 214.77 203.95C216.31 203.12 216.52 202.14 216.52 200.64C216.48 182.68 216.5 164.72 216.5 146.76C216.5 146.13 216.46 145.49 216.53 144.87C216.73 143.02 218.14 141.74 219.89 141.76C221.65 141.78 223.01 143.06 223.2 144.93C223.26 145.49 223.23 146.05 223.23 146.61C223.23 155.66 223.23 164.71 223.23 173.76L223.25 173.77ZM223.23 212.47C223.21 210.66 221.7 209.16 219.89 209.15C218.09 209.14 216.56 210.63 216.52 212.44C216.48 214.33 218.08 215.92 219.96 215.87C221.77 215.82 223.25 214.28 223.23 212.48V212.47Z" fill="#216BDC"/>
</svg>
