<svg width="426" height="426" viewBox="0 0 426 426" fill="none" xmlns="http://www.w3.org/2000/svg">
<path d="M102.23 271.09C102.3 264.76 105.91 257.39 112.03 251.26C141.39 221.85 170.82 192.51 200.21 163.12C203.04 160.29 206.36 158.99 210.3 159.74C211.68 160 212.49 159.66 213.43 158.72C225.62 146.47 237.91 134.32 250.02 122C253.32 118.65 256.76 117.75 261.22 119.1C270.97 122.05 280.8 124.74 290.59 127.56C294.83 128.78 295.51 131.43 292.39 134.56C275.18 151.79 257.97 169.01 240.72 186.2C239.64 187.27 239.26 188.22 239.53 189.73C240.21 193.57 238.73 196.68 235.99 199.33C223.07 211.86 210.18 224.4 197.27 236.94C192.15 241.92 187.08 246.95 181.89 251.85C175.87 257.55 171.6 264.37 168.33 271.92C165.86 277.61 163.41 283.32 160.5 288.79C153.94 301.1 139.22 307.49 126.12 304.01C112.34 300.36 102.16 287.4 102.22 271.08L102.23 271.09ZM133.55 297.75C143.19 297.78 151.35 292.72 155.47 283.97C158.05 278.49 160.5 272.94 162.91 267.38C166.31 259.54 171.13 252.75 177.28 246.81C195.2 229.48 213.02 212.06 230.92 194.72C232.45 193.23 233.17 191.73 232.59 189.59C231.09 184.09 229.72 178.55 228.16 173.06C227.95 172.31 227.04 171.43 226.28 171.2C221.16 169.68 215.94 168.46 210.84 166.86C208.14 166.01 206.33 166.63 204.37 168.59C186.54 186.51 168.62 204.35 150.73 222.22C139.36 233.58 127.96 244.91 116.64 256.3C109.25 263.73 107.21 274.03 111.12 283.34C114.8 292.1 123.53 297.71 133.55 297.74V297.75ZM245.6 136.25C254.98 138.58 263.88 140.81 272.79 142.99C273.28 143.11 274.06 143.13 274.35 142.84C277.65 139.64 280.89 136.37 284.37 132.89C275.28 130.3 266.59 127.82 257.9 125.4C257.37 125.25 256.51 125.38 256.15 125.73C252.69 129.1 249.3 132.54 245.6 136.25ZM230.33 151.28C230.82 151.64 230.92 151.77 231.04 151.8C239.8 154 248.57 156.2 257.34 158.35C257.89 158.48 258.75 158.44 259.1 158.1C262.11 155.2 265.05 152.21 268.02 149.23C267.83 149.06 267.78 148.98 267.72 148.97C258.76 146.7 249.81 144.41 240.83 142.19C240.33 142.07 239.54 142.34 239.15 142.71C236.21 145.5 233.33 148.35 230.33 151.29V151.28ZM252.93 164.32C243.45 161.98 234.42 159.73 225.38 157.54C224.93 157.43 224.26 157.66 223.89 157.97C222.43 159.2 221.04 160.52 219.33 162.09C223.41 163.23 226.86 164.31 230.38 165.13C232.63 165.66 233.76 166.93 234.28 169.09C235.13 172.66 236.12 176.19 237.09 179.91C237.51 179.62 237.76 179.51 237.95 179.32C242.83 174.44 247.71 169.55 252.93 164.32Z" fill="#216BDC"/>
<path d="M196.01 218.77C194.96 219.38 193.73 219.81 192.89 220.64C183.4 230.04 173.98 239.5 164.53 248.94C161.71 251.76 160.33 251.77 157.55 249C155.07 246.53 152.59 244.07 150.13 241.57C147.96 239.37 147.96 237.71 150.16 235.51C159.79 225.85 169.43 216.2 179.1 206.58C180.02 205.66 180.53 204.82 180.33 203.43C179.95 200.78 180.92 198.53 182.8 196.65C186.28 193.16 189.73 189.64 193.27 186.21C196.83 182.77 201.55 182.76 205.16 186.2C207.95 188.86 210.68 191.59 213.34 194.38C216.83 198.05 216.76 202.78 213.19 206.42C209.79 209.89 206.33 213.29 202.9 216.73C201.09 218.54 198.93 219.47 196.01 218.76V218.77ZM209.13 200.42C208.84 199.92 208.67 199.43 208.34 199.1C205.74 196.46 203.11 193.84 200.49 191.22C199.5 190.23 198.64 190.5 197.74 191.4C194.48 194.69 191.2 197.96 187.91 201.22C187.13 201.99 186.84 202.73 187.7 203.59C190.51 206.39 193.29 209.23 196.2 211.94C196.53 212.24 197.82 212.03 198.25 211.62C201.6 208.42 204.85 205.11 208.11 201.82C208.5 201.43 208.76 200.92 209.13 200.42ZM160.91 242.27C170.13 233.05 179.34 223.83 188.48 214.69C187.33 213.51 186.05 212.19 184.9 211C175.68 220.22 166.47 229.44 157.37 238.54C158.48 239.7 159.74 241.03 160.91 242.27Z" fill="#216BDC"/>
<path d="M264.54 306.7C290.702 306.7 311.91 285.492 311.91 259.33C311.91 233.168 290.702 211.96 264.54 211.96C238.378 211.96 217.17 233.168 217.17 259.33C217.17 285.492 238.378 306.7 264.54 306.7Z" stroke="#216BDC" stroke-width="7" stroke-miterlimit="10"/>
<path d="M245.88 239.94L283.97 278.03" stroke="#216BDC" stroke-width="7" stroke-linecap="round" stroke-linejoin="round"/>
<path d="M283.97 239.94L245.88 278.03" stroke="#216BDC" stroke-width="7" stroke-linecap="round" stroke-linejoin="round"/>
</svg>
