<svg width="426" height="426" viewBox="0 0 426 426" fill="none" xmlns="http://www.w3.org/2000/svg">
<path d="M105.99 168.3V112.56C106.95 110.25 108.59 108.6 110.91 107.64H310.53C314.53 109.13 315.94 112.04 315.91 116.25C315.78 132.43 315.86 148.62 315.86 164.8C315.86 170.8 313.43 173.23 307.42 173.23C243.1 173.23 178.78 173.21 114.45 173.29C110.43 173.29 107.6 172.04 105.99 168.32V168.3ZM112.64 166.51H250.18V114.31H112.64V166.51ZM309.2 114.34H256.99V166.56H309.2V114.34Z" fill="#216BDC"/>
<path d="M105.99 240.44V184.7C107.58 180.95 110.42 179.72 114.44 179.73C178.92 179.81 243.41 179.78 307.89 179.79C313.21 179.79 315.85 182.41 315.85 187.68C315.85 204.14 315.85 220.61 315.85 237.07C315.85 242.92 313.38 245.38 307.49 245.38C243.14 245.38 178.8 245.36 114.45 245.44C110.42 245.44 107.6 244.19 105.99 240.47V240.44ZM250.18 186.48H112.72V238.69H250.18V186.48ZM309.12 238.77V186.48H256.98V238.77H309.12Z" fill="#216BDC"/>
<path d="M105.99 312.58V256.84C107.58 253.09 110.42 251.86 114.44 251.87C178.92 251.95 243.41 251.92 307.89 251.93C313.21 251.93 315.85 254.55 315.85 259.81C315.85 276.27 315.85 292.74 315.85 309.2C315.85 315.05 313.38 317.51 307.49 317.51C243.14 317.51 178.8 317.49 114.45 317.57C110.42 317.57 107.6 316.32 105.99 312.6V312.58ZM250.18 258.62H112.72V310.84H250.18V258.62ZM256.97 258.58V310.8H309.19V258.58H256.97Z" fill="#216BDC"/>
<path d="M179.77 137.15C196.16 137.15 212.56 137.15 228.95 137.15C229.63 137.15 230.33 137.08 230.99 137.2C232.76 137.52 233.82 138.62 233.82 140.43C233.82 142.24 232.75 143.33 230.98 143.66C230.38 143.77 229.75 143.71 229.14 143.71C196.21 143.71 163.29 143.71 130.36 143.71C129.75 143.71 129.12 143.77 128.52 143.66C126.76 143.33 125.69 142.25 125.69 140.43C125.69 138.62 126.76 137.53 128.52 137.21C129.18 137.09 129.88 137.16 130.57 137.16C146.96 137.16 163.36 137.16 179.75 137.16L179.77 137.15Z" fill="#216BDC"/>
<path d="M283.01 145.72C286.65 142.07 290 138.68 293.39 135.32C294.88 133.85 296.59 133.68 297.99 134.74C299.52 135.9 299.77 138.12 298.31 139.61C294.07 143.96 289.78 148.25 285.44 152.49C283.93 153.96 282.2 153.95 280.69 152.47C276.4 148.27 272.16 144.02 267.96 139.74C266.51 138.26 266.54 136.28 267.87 134.99C269.2 133.7 271.12 133.71 272.62 135.19C276.05 138.59 279.42 142.06 283.02 145.71L283.01 145.72Z" fill="#216BDC"/>
<path d="M179.64 215.85C163.25 215.85 146.85 215.85 130.46 215.85C129.78 215.85 129.08 215.89 128.42 215.78C126.77 215.5 125.58 214.05 125.7 212.44C125.83 210.73 126.8 209.68 128.47 209.36C129.13 209.23 129.83 209.3 130.51 209.3C163.37 209.3 196.23 209.3 229.08 209.3C229.69 209.3 230.32 209.24 230.92 209.34C232.7 209.63 233.73 210.69 233.84 212.5C233.94 214.19 232.65 215.61 230.87 215.82C230.26 215.89 229.64 215.85 229.03 215.85C212.57 215.85 196.1 215.85 179.64 215.85Z" fill="#216BDC"/>
<path d="M283.01 217.89C286.27 214.61 289.29 211.57 292.31 208.53C292.79 208.05 293.25 207.53 293.77 207.1C295.18 205.92 297 205.94 298.23 207.1C299.52 208.31 299.69 210.33 298.36 211.7C294.07 216.09 289.73 220.43 285.33 224.71C283.89 226.11 282.18 226.08 280.74 224.67C276.4 220.43 272.11 216.13 267.86 211.8C266.49 210.4 266.55 208.47 267.79 207.2C269.08 205.88 271.07 205.83 272.54 207.29C275.98 210.69 279.34 214.18 283.01 217.9V217.89Z" fill="#216BDC"/>
<path d="M179.78 287.99C163.39 287.99 146.99 287.99 130.6 287.99C129.92 287.99 129.22 288.06 128.56 287.94C126.8 287.62 125.73 286.53 125.72 284.72C125.72 282.91 126.78 281.82 128.55 281.49C129.15 281.38 129.78 281.44 130.39 281.44C163.32 281.44 196.24 281.44 229.17 281.44C229.78 281.44 230.41 281.38 231.01 281.49C232.78 281.81 233.84 282.9 233.85 284.71C233.85 286.52 232.78 287.61 231.02 287.94C230.36 288.06 229.66 287.99 228.98 287.99C212.59 287.99 196.19 287.99 179.8 287.99H179.78Z" fill="#216BDC"/>
<path d="M283.07 290.03C286.72 286.34 290.08 282.95 293.43 279.55C294.55 278.41 296.01 277.84 297.29 278.72C298.21 279.35 298.9 280.66 299.14 281.79C299.29 282.5 298.59 283.6 297.97 284.24C293.97 288.34 289.91 292.39 285.83 296.41C283.89 298.33 282.25 298.33 280.33 296.43C276.25 292.4 272.21 288.35 268.17 284.28C266.57 282.66 266.44 280.76 267.75 279.37C269.11 277.93 271.13 278.01 272.8 279.67C276.17 283.03 279.5 286.43 283.06 290.03H283.07Z" fill="#216BDC"/>
</svg>
