<svg width="426" height="426" viewBox="0 0 426 426" fill="none" xmlns="http://www.w3.org/2000/svg">
<path d="M116.56 187.9C118.11 181.09 119.71 174.29 121.19 167.47C126.24 144.31 131.24 121.15 136.27 97.9899C137.03 94.4799 138.15 93.5699 141.7 93.5699C187.54 93.5699 233.38 93.5599 279.22 93.5699C290.81 93.5699 299.42 101.42 299.75 112.99C300.13 126.29 299.89 139.6 299.85 152.91C299.85 155.69 298.14 157.35 295.75 157.27C293.41 157.19 291.91 155.5 291.91 152.63C291.87 140.02 291.88 127.41 291.91 114.81C291.91 111.87 291.51 109.07 289.73 106.62C287.09 103 283.47 101.5 279.04 101.5C247.29 101.53 215.54 101.51 183.78 101.51C174.05 101.51 164.32 101.51 154.6 101.51C153.85 101.51 153.11 101.51 151.67 101.51C153.44 102.98 154.67 104 155.9 105.01C161.02 109.2 166.15 113.37 171.25 117.57C182.17 126.57 182.47 140.23 171.84 149.6C156.61 163.03 141.27 176.35 126.04 189.78C125.25 190.48 124.59 191.82 124.59 192.87C124.52 232.64 124.52 272.41 124.54 312.17C124.54 319.56 129.63 324.68 137.01 324.68C184.48 324.7 231.96 324.7 279.43 324.68C286.92 324.68 291.87 319.63 291.89 311.95C291.94 294.36 291.91 276.77 291.91 259.19C291.91 258.41 291.88 257.63 291.96 256.86C292.19 254.54 293.75 253 295.84 252.96C298.01 252.92 299.64 254.53 299.87 256.97C299.93 257.59 299.91 258.21 299.91 258.84C299.91 276.19 299.91 293.55 299.91 310.9C299.91 322.56 294.55 329.42 283.2 332.39C283.06 332.43 282.95 332.57 282.83 332.66H133.86C133.27 332.49 132.69 332.31 132.1 332.16C124.83 330.25 119.93 325.78 117.5 318.65C117.18 317.72 116.89 316.79 116.58 315.85C116.58 273.2 116.58 230.55 116.58 187.89L116.56 187.9ZM127.05 178.04C127.92 177.4 128.23 177.19 128.51 176.95C141.45 165.63 154.43 154.36 167.3 142.96C173.38 137.57 173.02 129.41 166.65 124.14C159.34 118.09 151.97 112.11 144.62 106.1C144.17 105.73 143.64 105.46 142.93 104.99C137.65 129.28 132.42 153.31 127.05 178.03V178.04Z" fill="#216BDC"/>
<path d="M199.97 292.86C201.68 288.17 203.23 283.87 204.83 279.58C207.9 271.36 210.94 263.12 214.14 254.94C214.82 253.19 215.89 251.43 217.21 250.11C250.12 217.1 283.09 184.14 316.05 151.18C323.88 143.35 333.02 143.34 340.87 151.16C344.07 154.35 347.28 157.52 350.44 160.74C357.45 167.89 357.52 177.34 350.47 184.4C317.14 217.77 283.79 251.1 250.4 284.41C249.39 285.42 248.04 286.22 246.7 286.73C235.16 291.13 223.6 295.49 212.01 299.74C210.16 300.42 208.08 300.76 206.1 300.78C196.84 300.89 187.58 300.83 178.32 300.83C177.62 300.83 176.91 300.87 176.22 300.79C173.82 300.51 172.3 298.81 172.42 296.58C172.54 294.46 174.09 292.93 176.44 292.89C181.73 292.82 187.02 292.86 192.31 292.85C194.95 292.85 197.58 292.85 199.98 292.85L199.97 292.86ZM300.55 178.9C275.29 204.16 250.01 229.43 224.77 254.67C227.23 257.12 229.93 259.8 233.13 262.98C233.56 262.32 233.93 261.5 234.52 260.9C244.73 250.64 254.97 240.41 265.21 230.19C265.81 229.59 266.41 228.93 267.13 228.5C268.86 227.48 270.6 227.61 272.03 229.07C273.46 230.54 273.54 232.27 272.49 233.98C272.05 234.69 271.38 235.28 270.78 235.88C260.55 246.12 250.32 256.36 240.06 266.56C239.48 267.14 238.55 267.36 238.33 267.47C241.65 270.91 244.33 273.67 246.84 276.27C271.97 251.11 297.2 225.85 322.27 200.76C319.68 198.17 316.94 195.44 313.79 192.3C313.42 192.83 313.01 193.63 312.41 194.23C304.07 202.61 295.7 210.97 287.33 219.33C286.73 219.93 286.13 220.59 285.41 221.02C283.78 221.98 282.12 221.94 280.68 220.61C279.16 219.21 279 217.49 279.95 215.73C280.35 215 281 214.39 281.6 213.79C290.01 205.36 298.43 196.95 306.85 188.52C307.44 187.93 308 187.31 308.55 186.73C305.72 183.95 303.02 181.29 300.56 178.87L300.55 178.9ZM317.61 160.81C325.25 168.46 332.7 175.9 340.22 183.43C341.85 181.78 343.78 179.96 345.55 178C348.47 174.76 348.52 170.36 345.55 167.22C341.75 163.22 337.84 159.3 333.83 155.5C330.69 152.52 326.26 152.59 323.05 155.5C321.09 157.27 319.27 159.19 317.62 160.81H317.61ZM208.45 292.59C219.04 288.62 229.14 284.83 239.13 281.08C232.67 274.64 226.37 268.36 219.95 261.97C216.22 271.91 212.44 281.97 208.45 292.59ZM333.59 189.58C326.24 182.24 318.79 174.79 311.63 167.63C309.89 169.19 308 170.89 306.21 172.48C313.69 179.97 321.09 187.38 328.56 194.87C330.24 193.1 331.99 191.26 333.59 189.58Z" fill="#216BDC"/>
<path d="M140.44 256.79C140.44 268.46 140.49 280.14 140.37 291.81C140.36 293.21 139.76 294.96 138.8 295.91C136.89 297.8 133.66 296.7 132.79 294.09C132.53 293.3 132.49 292.41 132.49 291.57C132.48 268.54 132.48 245.5 132.48 222.47C132.48 222.16 132.48 221.85 132.48 221.54C132.6 218.8 134.19 217.12 136.6 217.19C138.93 217.26 140.4 218.87 140.42 221.55C140.46 228.01 140.43 234.47 140.43 240.93C140.43 246.22 140.43 251.51 140.43 256.8L140.44 256.79Z" fill="#216BDC"/>
<path d="M239.99 157.34C250.02 157.34 260.05 157.34 270.08 157.34C270.93 157.34 271.8 157.32 272.64 157.47C274.67 157.82 275.79 159.1 275.87 161.15C275.95 163.2 274.94 164.59 272.95 165.08C271.99 165.32 270.95 165.32 269.94 165.32C250.03 165.33 230.13 165.33 210.22 165.32C209.22 165.32 208.18 165.32 207.21 165.08C205.23 164.57 204.22 163.18 204.31 161.13C204.4 159.08 205.54 157.82 207.56 157.47C208.39 157.33 209.26 157.35 210.12 157.35C220.07 157.35 230.03 157.35 239.98 157.35L239.99 157.34Z" fill="#216BDC"/>
<path d="M244.07 141.36C235.13 141.36 226.19 141.41 217.25 141.31C215.95 141.3 214.38 140.91 213.43 140.11C211.22 138.27 212.12 134.66 214.87 133.73C215.66 133.46 216.55 133.4 217.39 133.4C235.19 133.38 252.99 133.38 270.79 133.4C273.75 133.4 275.4 134.47 275.82 136.55C276.37 139.31 274.56 141.33 271.35 141.35C264.67 141.4 257.98 141.37 251.3 141.37C248.89 141.37 246.48 141.37 244.07 141.37V141.36Z" fill="#216BDC"/>
<path d="M184.38 165.32C181.89 165.32 179.4 165.37 176.91 165.31C174.1 165.23 172.41 163.69 172.4 161.33C172.39 158.97 174.07 157.4 176.88 157.37C181.86 157.31 186.84 157.31 191.82 157.37C194.48 157.4 196.17 158.95 196.25 161.19C196.33 163.52 194.59 165.21 191.85 165.31C189.36 165.39 186.87 165.33 184.38 165.33V165.32Z" fill="#216BDC"/>
<path d="M140.41 201.15C140.41 202.55 140.48 203.95 140.39 205.34C140.25 207.53 138.74 208.97 136.65 209.05C134.57 209.13 132.73 207.81 132.59 205.69C132.39 202.67 132.39 199.63 132.59 196.61C132.72 194.53 134.68 193.1 136.65 193.19C138.67 193.29 140.26 194.82 140.4 196.94C140.49 198.33 140.42 199.74 140.42 201.13L140.41 201.15Z" fill="#216BDC"/>
<path d="M156.53 292.9C157.93 292.9 159.33 292.82 160.72 292.92C162.79 293.08 164.2 294.54 164.29 296.53C164.39 298.69 163.34 300.38 161.26 300.57C158.04 300.87 154.75 300.83 151.52 300.57C149.54 300.41 148.21 298.37 148.47 296.51C148.76 294.44 149.91 293.07 152.1 292.92C153.57 292.82 155.05 292.9 156.53 292.9Z" fill="#216BDC"/>
<path d="M196.25 141.29C194.77 141.29 193.29 141.4 191.83 141.26C189.79 141.06 188.58 139.83 188.4 137.78C188.21 135.64 189.2 133.87 191.3 133.67C194.6 133.36 197.96 133.4 201.26 133.67C203.29 133.84 204.2 135.59 204.2 137.57C204.2 139.51 202.68 141 200.67 141.27C200.52 141.29 200.36 141.31 200.21 141.31C198.89 141.31 197.57 141.31 196.25 141.31C196.25 141.29 196.25 141.28 196.25 141.26V141.29Z" fill="#216BDC"/>
</svg>
