<svg width="426" height="426" viewBox="0 0 426 426" fill="none" xmlns="http://www.w3.org/2000/svg">
<path d="M108.61 184.62C108.8 184.22 109.05 183.84 109.16 183.42C110 180.36 111.91 178.23 114.81 177.03C119 175.29 123.21 173.61 127.42 171.91C133.31 169.53 139.2 167.16 145.09 164.79C146 164.43 146.93 164.14 147.7 163.87C149.15 164.14 150.2 164.68 150.68 165.94C151.35 167.69 150.65 169.37 148.75 170.19C145.77 171.49 142.75 172.69 139.73 173.9C132.65 176.75 125.56 179.59 118.47 182.44C117.91 182.67 117.33 182.88 116.83 183.2C114.79 184.5 114.74 187.38 116.75 188.72C117.31 189.09 117.96 189.34 118.59 189.59C145.03 200.24 171.47 210.88 197.92 221.52C203.67 223.83 209.45 226.09 215.16 228.49C221.64 231.21 228.04 231.16 234.55 228.53C259.22 218.55 283.91 208.64 308.6 198.7C316.1 195.68 323.61 192.66 331.11 189.63C331.67 189.4 332.24 189.18 332.76 188.87C335.06 187.5 335.07 184.48 332.77 183.12C332.19 182.78 331.54 182.53 330.91 182.28C321.3 178.41 311.7 174.54 302.09 170.67C301.6 170.47 301.12 170.25 300.64 170.04C299.32 169.46 298.6 168.41 298.66 167.01C298.72 165.64 299.43 164.57 300.83 164.12C301.12 164.03 301.4 163.94 301.86 163.8C302.52 164.03 303.32 164.26 304.08 164.56C313.77 168.44 323.45 172.32 333.13 176.21C334.04 176.58 334.95 176.97 335.81 177.43C339.2 179.23 340.92 182.2 340.94 185.92C340.96 189.64 339.31 192.7 335.89 194.45C333.54 195.65 331.05 196.58 328.59 197.57C301.38 208.53 274.16 219.47 246.94 230.42C243.57 231.77 240.21 233.13 236.85 234.5C228.82 237.78 220.82 237.72 212.79 234.47C199.13 228.93 185.45 223.43 171.78 217.93C153.41 210.53 135.03 203.14 116.66 195.74C115.75 195.37 114.85 194.97 113.97 194.53C111.62 193.34 110.1 191.44 109.25 188.97C109.06 188.41 108.81 187.88 108.59 187.33C108.59 186.42 108.59 185.51 108.59 184.6L108.61 184.62Z" fill="#216BDC"/>
<path d="M108.61 134.73C108.8 134.33 109.05 133.95 109.16 133.53C110 130.47 111.91 128.34 114.81 127.14C119 125.4 123.21 123.72 127.42 122.02C133.31 119.64 139.2 117.27 145.09 114.9C146 114.54 146.93 114.25 147.7 113.98C149.15 114.25 150.2 114.79 150.68 116.05C151.35 117.8 150.65 119.48 148.75 120.3C145.77 121.6 142.75 122.8 139.73 124.01C132.65 126.86 125.56 129.7 118.47 132.55C117.91 132.78 117.33 132.99 116.83 133.31C114.79 134.61 114.74 137.49 116.75 138.83C117.31 139.2 117.96 139.45 118.59 139.7C145.03 150.35 171.47 160.99 197.92 171.63C203.67 173.94 209.45 176.2 215.16 178.6C221.64 181.32 228.04 181.27 234.55 178.64C259.22 168.66 283.91 158.75 308.6 148.81C316.1 145.79 323.61 142.77 331.11 139.74C331.67 139.51 332.24 139.29 332.76 138.98C335.06 137.61 335.07 134.59 332.77 133.23C332.19 132.89 331.54 132.64 330.91 132.39C321.3 128.52 311.7 124.65 302.09 120.78C301.6 120.58 301.12 120.36 300.64 120.15C299.32 119.57 298.6 118.52 298.66 117.12C298.72 115.75 299.43 114.68 300.83 114.23C301.12 114.14 301.4 114.05 301.86 113.91C302.52 114.14 303.32 114.37 304.08 114.67C313.77 118.55 323.45 122.43 333.13 126.32C334.04 126.69 334.95 127.08 335.81 127.54C339.2 129.34 340.92 132.31 340.94 136.03C340.96 139.75 339.31 142.81 335.89 144.56C333.54 145.76 331.05 146.69 328.59 147.68C301.38 158.64 274.16 169.58 246.94 180.53C243.57 181.88 240.21 183.24 236.85 184.61C228.82 187.89 220.82 187.83 212.79 184.58C199.13 179.04 185.45 173.54 171.78 168.04C153.41 160.64 135.03 153.25 116.66 145.85C115.75 145.48 114.85 145.08 113.97 144.64C111.62 143.45 110.1 141.55 109.25 139.08C109.06 138.52 108.81 137.99 108.59 137.44C108.59 136.53 108.59 135.62 108.59 134.71L108.61 134.73Z" fill="#216BDC"/>
<path d="M108.61 234.58C108.76 234.33 109 234.09 109.06 233.81C109.85 230.03 112.3 227.81 115.76 226.45C119.77 224.88 123.75 223.23 127.75 221.62C133.64 219.25 139.54 216.89 145.43 214.52C145.92 214.32 146.4 214.09 146.91 213.95C148.32 213.57 149.98 214.3 150.57 215.53C151.23 216.89 150.83 218.76 149.57 219.59C148.82 220.09 147.96 220.42 147.12 220.76C137.73 224.56 128.33 228.34 118.93 232.13C118.23 232.41 117.5 232.67 116.87 233.06C114.79 234.34 114.71 237.2 116.74 238.55C117.42 239.01 118.23 239.29 119 239.6C135.62 246.29 152.25 252.97 168.87 259.67C184.16 265.83 199.43 272.03 214.73 278.15C216.75 278.96 218.88 279.58 221 280.06C225.6 281.1 230.01 280.16 234.3 278.45C242.16 275.31 250.02 272.15 257.87 268.98C276.1 261.64 294.33 254.29 312.56 246.94C318.73 244.45 324.9 241.97 331.07 239.48C331.77 239.2 332.49 238.92 333.1 238.48C334.99 237.13 334.93 234.37 332.96 233.12C332.14 232.6 331.2 232.25 330.29 231.89C320.9 228.09 311.5 224.31 302.11 220.52C301.62 220.32 301.11 220.16 300.65 219.91C299.07 219.03 298.45 217.23 299.15 215.63C299.76 214.24 301.83 213.45 303.19 214.04C306.24 215.36 309.36 216.54 312.44 217.78C319.6 220.65 326.75 223.54 333.91 226.4C335.54 227.05 337.06 227.86 338.29 229.15C342.39 233.45 341.67 240.52 336.74 243.82C335.74 244.48 334.62 244.98 333.5 245.43C314.43 253.13 295.35 260.81 276.28 268.49C263.31 273.72 250.31 278.9 237.37 284.2C232.36 286.25 227.22 287.14 221.85 286.69C218.97 286.45 216.2 285.7 213.52 284.62C180.91 271.49 148.31 258.36 115.7 245.23C112.34 243.88 109.92 241.71 109.08 238.04C109.02 237.77 108.77 237.54 108.61 237.3C108.61 236.39 108.61 235.48 108.61 234.57V234.58Z" fill="#216BDC"/>
<path d="M108.61 287.77C108.76 287.52 109 287.28 109.06 287C109.85 283.22 112.3 281 115.76 279.64C119.77 278.07 123.75 276.42 127.75 274.81C133.64 272.44 139.54 270.08 145.43 267.71C145.92 267.51 146.4 267.28 146.91 267.14C148.32 266.76 149.98 267.49 150.57 268.72C151.23 270.08 150.83 271.95 149.57 272.78C148.82 273.28 147.96 273.61 147.12 273.95C137.73 277.75 128.33 281.53 118.93 285.32C118.23 285.6 117.5 285.86 116.87 286.25C114.79 287.53 114.71 290.39 116.74 291.74C117.42 292.2 118.23 292.48 119 292.79C135.62 299.48 152.25 306.16 168.87 312.86C184.16 319.02 199.43 325.22 214.73 331.34C216.75 332.15 218.88 332.77 221 333.25C225.6 334.29 230.01 333.35 234.3 331.64C242.16 328.5 250.02 325.34 257.87 322.17C276.1 314.83 294.33 307.48 312.56 300.13C318.73 297.64 324.9 295.16 331.07 292.67C331.77 292.39 332.49 292.11 333.1 291.67C334.99 290.32 334.93 287.56 332.96 286.31C332.14 285.79 331.2 285.44 330.29 285.08C320.9 281.28 311.5 277.5 302.11 273.71C301.62 273.51 301.11 273.35 300.65 273.1C299.07 272.22 298.45 270.42 299.15 268.82C299.76 267.43 301.83 266.64 303.19 267.23C306.24 268.55 309.36 269.73 312.44 270.97C319.6 273.84 326.75 276.73 333.91 279.59C335.54 280.24 337.06 281.05 338.29 282.34C342.39 286.64 341.67 293.71 336.74 297.01C335.74 297.67 334.62 298.17 333.5 298.62C314.43 306.32 295.35 314 276.28 321.68C263.31 326.91 250.31 332.09 237.37 337.39C232.36 339.44 227.22 340.33 221.85 339.88C218.97 339.64 216.2 338.89 213.52 337.81C180.91 324.68 148.31 311.55 115.7 298.42C112.34 297.07 109.92 294.9 109.08 291.23C109.02 290.96 108.77 290.73 108.61 290.49C108.61 289.58 108.61 288.67 108.61 287.76V287.77Z" fill="#216BDC"/>
<path d="M334.36 126.86C333.1 126.35 331.84 125.83 330.58 125.33C299.44 112.78 268.29 100.25 237.17 87.6801C228.9 84.3401 220.76 84.3901 212.48 87.7501C183.97 99.3201 155.41 110.77 126.86 122.26C123 123.81 119.15 125.37 115.29 126.93C112.15 128.2 109.99 130.35 109.14 133.71C109.05 134.05 108.8 134.35 108.62 134.67V137.4C108.75 137.58 108.96 137.75 109 137.95C109.81 142.01 112.49 144.24 116.18 145.71C134.78 153.14 153.36 160.65 171.94 168.15C173.44 168.76 174.94 169.04 176.57 169.04C181.53 169.04 186.5 169.04 191.46 169.04L173.73 161.89C173.39 161.8 173.05 161.67 172.71 161.53C163.53 157.82 154.35 154.12 145.16 150.41C136.4 146.88 127.63 143.34 118.87 139.81C118.24 139.56 117.59 139.32 117.01 138.98C114.71 137.64 114.7 134.61 117.01 133.24C117.59 132.9 118.24 132.67 118.87 132.41C135.49 125.72 152.11 119.04 168.73 112.35C184.09 106.16 199.44 99.9701 214.78 93.7701C218.03 92.4601 221.37 91.5801 224.93 91.4601C228.17 91.6001 231.31 92.3001 234.36 93.5301C249.85 99.7801 265.35 106.01 280.84 112.25C297.39 118.91 313.93 125.58 330.47 132.25C331.17 132.53 331.88 132.81 332.55 133.14C333.83 133.76 334.49 134.79 334.44 136.23C334.4 137.57 333.76 138.56 332.56 139.1C330.98 139.82 329.36 140.46 327.75 141.11C311.07 147.83 294.37 154.53 277.71 161.31C277.24 161.5 276.79 161.64 276.35 161.72L258.22 169.03C263.17 169.03 268.12 169.03 273.07 169.03C274.85 169.03 276.5 168.7 278.14 168.04C288.79 163.72 299.45 159.43 310.11 155.13C318.18 151.88 326.25 148.64 334.32 145.4C338.46 143.74 340.89 140.69 340.94 136.26C340.99 132.25 339.16 128.8 334.36 126.87V126.86Z" fill="#216BDC"/>
<path d="M221.25 172.14C221.27 170.1 222.77 168.64 224.82 168.68C226.77 168.72 228.37 170.41 228.29 172.32C228.21 174.09 226.51 175.73 224.76 175.73C222.81 175.73 221.24 174.12 221.25 172.14Z" fill="#216BDC"/>
<path d="M221.25 161.05C221.27 159.01 222.77 157.55 224.82 157.59C226.77 157.63 228.37 159.32 228.29 161.23C228.21 163 226.51 164.64 224.76 164.64C222.81 164.64 221.24 163.03 221.25 161.05Z" fill="#216BDC"/>
<path d="M219.3 163.04C221.34 163.06 222.8 164.56 222.76 166.61C222.72 168.56 221.03 170.16 219.12 170.08C217.35 170 215.71 168.3 215.71 166.55C215.71 164.6 217.32 163.03 219.3 163.04Z" fill="#216BDC"/>
<path d="M230.39 163.04C232.43 163.06 233.89 164.56 233.85 166.61C233.81 168.56 232.12 170.16 230.21 170.08C228.44 170 226.8 168.3 226.8 166.55C226.8 164.6 228.41 163.03 230.39 163.04Z" fill="#216BDC"/>
<path d="M221.25 140.63C221.27 138.59 222.77 137.13 224.82 137.17C226.77 137.21 228.37 138.9 228.29 140.81C228.21 142.58 226.51 144.22 224.76 144.22C222.81 144.22 221.24 142.61 221.25 140.63Z" fill="#216BDC"/>
<path d="M221.25 129.54C221.27 127.5 222.77 126.04 224.82 126.08C226.77 126.12 228.37 127.81 228.29 129.72C228.21 131.49 226.51 133.13 224.76 133.13C222.81 133.13 221.24 131.52 221.25 129.54Z" fill="#216BDC"/>
<path d="M219.3 131.53C221.34 131.55 222.8 133.05 222.76 135.1C222.72 137.05 221.03 138.65 219.12 138.57C217.35 138.49 215.71 136.79 215.71 135.04C215.71 133.09 217.32 131.52 219.3 131.53Z" fill="#216BDC"/>
<path d="M230.39 131.53C232.43 131.55 233.89 133.05 233.85 135.1C233.81 137.05 232.12 138.65 230.21 138.57C228.44 138.49 226.8 136.79 226.8 135.04C226.8 133.09 228.41 131.52 230.39 131.53Z" fill="#216BDC"/>
<path d="M157.03 140.63C157.05 138.59 158.55 137.13 160.6 137.17C162.55 137.21 164.15 138.9 164.07 140.81C163.99 142.58 162.29 144.22 160.54 144.22C158.59 144.22 157.02 142.61 157.03 140.63Z" fill="#216BDC"/>
<path d="M157.03 129.54C157.05 127.5 158.55 126.04 160.6 126.08C162.55 126.12 164.15 127.81 164.07 129.72C163.99 131.49 162.29 133.13 160.54 133.13C158.59 133.13 157.02 131.52 157.03 129.54Z" fill="#216BDC"/>
<path d="M155.08 131.53C157.12 131.55 158.58 133.05 158.54 135.1C158.5 137.05 156.81 138.65 154.9 138.57C153.13 138.49 151.49 136.79 151.49 135.04C151.49 133.09 153.1 131.52 155.08 131.53Z" fill="#216BDC"/>
<path d="M166.18 131.53C168.22 131.55 169.68 133.05 169.64 135.1C169.6 137.05 167.91 138.65 166 138.57C164.23 138.49 162.59 136.79 162.59 135.04C162.59 133.09 164.2 131.52 166.18 131.53Z" fill="#216BDC"/>
<path d="M280.13 140.63C280.15 138.59 281.65 137.13 283.7 137.17C285.65 137.21 287.25 138.9 287.17 140.81C287.09 142.58 285.39 144.22 283.64 144.22C281.69 144.22 280.12 142.61 280.13 140.63Z" fill="#216BDC"/>
<path d="M280.13 129.54C280.15 127.5 281.65 126.04 283.7 126.08C285.65 126.12 287.25 127.81 287.17 129.72C287.09 131.49 285.39 133.13 283.64 133.13C281.69 133.13 280.12 131.52 280.13 129.54Z" fill="#216BDC"/>
<path d="M278.18 131.53C280.22 131.55 281.68 133.05 281.64 135.1C281.6 137.05 279.91 138.65 278 138.57C276.23 138.49 274.59 136.79 274.59 135.04C274.59 133.09 276.2 131.52 278.18 131.53Z" fill="#216BDC"/>
<path d="M289.27 131.53C291.31 131.55 292.77 133.05 292.73 135.1C292.69 137.05 291 138.65 289.09 138.57C287.32 138.49 285.68 136.79 285.68 135.04C285.68 133.09 287.29 131.52 289.27 131.53Z" fill="#216BDC"/>
<path d="M221.25 113.45C221.27 111.41 222.77 109.95 224.82 109.99C226.77 110.03 228.37 111.72 228.29 113.63C228.21 115.4 226.51 117.04 224.76 117.04C222.81 117.04 221.24 115.43 221.25 113.45Z" fill="#216BDC"/>
<path d="M221.25 102.36C221.27 100.32 222.77 98.86 224.82 98.9C226.77 98.94 228.37 100.63 228.29 102.54C228.21 104.31 226.51 105.95 224.76 105.95C222.81 105.95 221.24 104.34 221.25 102.36Z" fill="#216BDC"/>
<path d="M219.3 104.35C221.34 104.37 222.8 105.87 222.76 107.92C222.72 109.87 221.03 111.47 219.12 111.39C217.35 111.31 215.71 109.61 215.71 107.86C215.71 105.91 217.32 104.34 219.3 104.35Z" fill="#216BDC"/>
<path d="M230.39 104.35C232.43 104.37 233.89 105.87 233.85 107.92C233.81 109.87 232.12 111.47 230.21 111.39C228.44 111.31 226.8 109.61 226.8 107.86C226.8 105.91 228.41 104.34 230.39 104.35Z" fill="#216BDC"/>
<path d="M188.93 125.62C188.95 123.58 190.45 122.12 192.5 122.16C194.45 122.2 196.05 123.89 195.97 125.8C195.89 127.57 194.19 129.21 192.44 129.21C190.49 129.21 188.92 127.6 188.93 125.62Z" fill="#216BDC"/>
<path d="M188.93 114.53C188.95 112.49 190.45 111.03 192.5 111.07C194.45 111.11 196.05 112.8 195.97 114.71C195.89 116.48 194.19 118.12 192.44 118.12C190.49 118.12 188.92 116.51 188.93 114.53Z" fill="#216BDC"/>
<path d="M186.98 116.52C189.02 116.54 190.48 118.04 190.44 120.09C190.4 122.04 188.71 123.64 186.8 123.56C185.03 123.48 183.39 121.78 183.39 120.03C183.39 118.08 185 116.51 186.98 116.52Z" fill="#216BDC"/>
<path d="M198.07 116.52C200.11 116.54 201.57 118.04 201.53 120.09C201.49 122.04 199.8 123.64 197.89 123.56C196.12 123.48 194.48 121.78 194.48 120.03C194.48 118.08 196.09 116.51 198.07 116.52Z" fill="#216BDC"/>
<path d="M250.93 125.62C250.95 123.58 252.45 122.12 254.5 122.16C256.45 122.2 258.05 123.89 257.97 125.8C257.89 127.57 256.19 129.21 254.44 129.21C252.49 129.21 250.92 127.6 250.93 125.62Z" fill="#216BDC"/>
<path d="M250.93 114.53C250.95 112.49 252.45 111.03 254.5 111.07C256.45 111.11 258.05 112.8 257.97 114.71C257.89 116.48 256.19 118.12 254.44 118.12C252.49 118.12 250.92 116.51 250.93 114.53Z" fill="#216BDC"/>
<path d="M248.98 116.52C251.02 116.54 252.48 118.04 252.44 120.09C252.4 122.04 250.71 123.64 248.8 123.56C247.03 123.48 245.39 121.78 245.39 120.03C245.39 118.08 247 116.51 248.98 116.52Z" fill="#216BDC"/>
<path d="M260.07 116.52C262.11 116.54 263.57 118.04 263.53 120.09C263.49 122.04 261.8 123.64 259.89 123.56C258.12 123.48 256.48 121.78 256.48 120.03C256.48 118.08 258.09 116.51 260.07 116.52Z" fill="#216BDC"/>
<path d="M252 158.55C252.02 156.51 253.52 155.05 255.57 155.09C257.52 155.13 259.12 156.82 259.04 158.73C258.96 160.5 257.26 162.14 255.51 162.14C253.56 162.14 251.99 160.53 252 158.55Z" fill="#216BDC"/>
<path d="M252 147.46C252.02 145.42 253.52 143.96 255.57 144C257.52 144.04 259.12 145.73 259.04 147.64C258.96 149.41 257.26 151.05 255.51 151.05C253.56 151.05 251.99 149.44 252 147.46Z" fill="#216BDC"/>
<path d="M250.05 149.44C252.09 149.46 253.55 150.96 253.51 153.01C253.47 154.96 251.78 156.56 249.87 156.48C248.1 156.4 246.46 154.7 246.46 152.95C246.46 151 248.07 149.43 250.05 149.44Z" fill="#216BDC"/>
<path d="M261.15 149.44C263.19 149.46 264.65 150.96 264.61 153.01C264.57 154.96 262.88 156.56 260.97 156.48C259.2 156.4 257.56 154.7 257.56 152.95C257.56 151 259.17 149.43 261.15 149.44Z" fill="#216BDC"/>
<path d="M189.35 158.55C189.37 156.51 190.87 155.05 192.92 155.09C194.87 155.13 196.47 156.82 196.39 158.73C196.31 160.5 194.61 162.14 192.86 162.14C190.91 162.14 189.34 160.53 189.35 158.55Z" fill="#216BDC"/>
<path d="M189.35 147.46C189.37 145.42 190.87 143.96 192.92 144C194.87 144.04 196.47 145.73 196.39 147.64C196.31 149.41 194.61 151.05 192.86 151.05C190.91 151.05 189.34 149.44 189.35 147.46Z" fill="#216BDC"/>
<path d="M187.4 149.44C189.44 149.46 190.9 150.96 190.86 153.01C190.82 154.96 189.13 156.56 187.22 156.48C185.45 156.4 183.81 154.7 183.81 152.95C183.81 151 185.42 149.43 187.4 149.44Z" fill="#216BDC"/>
<path d="M198.5 149.44C200.54 149.46 202 150.96 201.96 153.01C201.92 154.96 200.23 156.56 198.32 156.48C196.55 156.4 194.91 154.7 194.91 152.95C194.91 151 196.52 149.43 198.5 149.44Z" fill="#216BDC"/>
</svg>
