<svg width="426" height="426" viewBox="0 0 426 426" fill="none" xmlns="http://www.w3.org/2000/svg">
<path d="M99.02 210.26C99.09 210.22 99.2 210.2 99.22 210.15C100.44 206.05 103.38 203.82 107.24 202.32C117.19 198.44 127.07 194.39 136.98 190.41C137.56 190.18 138.13 189.89 138.73 189.74C140.43 189.31 142.05 190.15 142.75 191.77C143.44 193.36 142.95 195.14 141.46 196.08C140.81 196.49 140.06 196.77 139.34 197.06C129.3 201.12 119.25 205.17 109.2 209.22C108.98 209.31 108.75 209.35 108.53 209.44C107.12 210 106.13 210.93 106.09 212.55C106.05 214.29 107.1 215.24 108.6 215.84C115.83 218.74 123.07 221.65 130.3 224.55C156.69 235.17 183.1 245.75 209.46 256.44C216.13 259.14 222.61 259.07 229.25 256.39C258.23 244.68 287.23 233.02 316.22 221.35C320.34 219.69 324.46 218.03 328.58 216.37C329.01 216.2 329.45 216.02 329.88 215.85C331.39 215.26 332.42 214.27 332.39 212.55C332.36 210.82 331.23 209.93 329.74 209.34C327.42 208.43 325.12 207.47 322.8 206.54C314.78 203.31 306.75 200.08 298.73 196.85C298.22 196.65 297.7 196.47 297.23 196.21C295.54 195.27 294.89 193.5 295.58 191.84C296.31 190.06 298.11 189.18 300 189.83C301.77 190.44 303.48 191.22 305.21 191.91C313.96 195.42 322.72 198.93 331.47 202.44C332.12 202.7 332.77 202.97 333.4 203.28C337.39 205.19 339.46 208.42 339.41 212.8C339.36 217.08 337.26 220.27 333.31 222.01C329.74 223.58 326.1 224.96 322.48 226.42C292.12 238.65 261.75 250.88 231.4 263.13C223.25 266.42 215.16 266.39 207.01 263.1C178.97 251.77 150.92 240.48 122.87 229.18C117.45 226.99 112.07 224.71 106.6 222.64C103 221.27 100.42 219.08 99.36 215.29C99.33 215.17 99.14 215.09 99.03 215C99.03 213.43 99.03 211.87 99.03 210.3L99.02 210.26Z" fill="#216BDC"/>
<path d="M99.02 261.91C99.09 261.87 99.2 261.84 99.21 261.79C100.37 257.66 103.29 255.43 107.15 253.92C117.09 250.03 126.97 245.98 136.87 241.99C137.45 241.76 138.02 241.47 138.62 241.33C140.47 240.89 142.11 241.78 142.76 243.52C143.37 245.15 142.81 246.82 141.24 247.74C140.51 248.17 139.68 248.46 138.89 248.78C128.92 252.82 118.95 256.84 108.99 260.88C108.56 261.05 108.1 261.18 107.7 261.42C105.6 262.67 105.5 265.52 107.52 266.86C108.03 267.2 108.65 267.39 109.22 267.62C141.38 280.58 173.54 293.54 205.7 306.5C207.51 307.23 209.31 307.96 211.14 308.62C216.64 310.6 222.18 310.61 227.63 308.5C235.76 305.34 243.85 302.06 251.94 298.8C277.53 288.51 303.12 278.21 328.71 267.91C329.29 267.68 329.85 267.39 330.42 267.14C331.69 266.57 332.34 265.56 332.37 264.2C332.4 262.81 331.68 261.8 330.43 261.25C328.65 260.46 326.83 259.77 325.02 259.04C316.21 255.48 307.39 251.92 298.58 248.36C298.15 248.19 297.7 248.04 297.29 247.81C295.72 246.91 295.09 245.26 295.66 243.63C296.29 241.85 297.87 240.94 299.73 241.32C300.26 241.43 300.77 241.66 301.27 241.86C311.39 245.93 321.51 249.99 331.63 254.07C332.21 254.3 332.77 254.58 333.34 254.84C337.29 256.65 339.33 259.81 339.39 264.08C339.45 268.48 337.3 271.73 333.32 273.56C330.06 275.05 326.69 276.28 323.36 277.62C293.08 289.82 262.79 302.01 232.52 314.22C228.95 315.66 225.34 316.76 221.46 317.03C216.53 317.37 211.83 316.58 207.26 314.74C173.65 301.2 140.05 287.66 106.43 274.14C103.07 272.79 100.5 270.73 99.43 267.13C99.37 266.94 99.15 266.8 99 266.64C99 265.07 99 263.51 99 261.94L99.02 261.91Z" fill="#216BDC"/>
<path d="M338.95 157.94C337.99 154.84 335.91 152.71 332.92 151.5C325.84 148.63 318.76 145.77 311.68 142.91C284.86 132.11 258.04 121.32 231.22 110.51C223.07 107.23 214.98 107.37 206.84 110.66C173.68 124.05 140.5 137.42 107.29 150.71C103.45 152.25 100.48 154.41 99.2098 158.49C99.1898 158.54 99.0798 158.56 99.0098 158.6V163.3C100.41 167.16 103 169.69 106.89 171.23C126.16 178.87 145.38 186.64 164.59 194.4C166.01 194.97 167.4 195.21 168.91 195.21C202.48 195.19 236.05 195.19 269.62 195.21C271.13 195.21 272.52 194.96 273.94 194.39C290.41 187.73 306.9 181.13 323.38 174.49C326.78 173.12 330.21 171.83 333.53 170.29C338.33 168.06 340.5 162.98 338.95 157.95V157.94ZM186.19 188.09C186.16 188.02 186.13 187.95 186.11 187.87C188.68 186.84 191.26 185.8 193.83 184.77C199.76 182.4 205.66 179.96 211.63 177.7C216.55 175.84 221.68 175.77 226.56 177.58C235.02 180.73 243.35 184.25 251.72 187.62C251.92 187.7 252.2 187.72 252.24 188.08H186.19V188.09ZM330.29 164.07C329.59 164.41 328.86 164.69 328.14 164.98C309.78 172.38 291.41 179.76 273.07 187.2C271.71 187.75 270.6 187.63 269.3 187.1C256.44 181.88 243.58 176.68 230.69 171.55C222.94 168.47 215.15 168.57 207.4 171.69C194.61 176.85 181.81 181.99 169.03 187.18C167.79 187.69 166.74 187.71 165.47 187.2C146.84 179.64 128.18 172.13 109.53 164.62C109.1 164.45 108.65 164.3 108.23 164.1C106.92 163.5 106.06 162.54 106.09 161.04C106.12 159.57 106.86 158.55 108.24 158C111.42 156.72 114.59 155.42 117.77 154.14C146.61 142.52 175.45 130.89 204.31 119.29C207.63 117.95 210.87 116.33 214.42 115.67C216.18 115.34 217.98 115.24 219.76 115.04C223.62 115.12 227.14 116.4 230.62 117.81C252.31 126.55 273.99 135.3 295.67 144.04C306.73 148.5 317.8 152.94 328.86 157.39C329.37 157.59 329.85 157.85 330.36 158.06C331.65 158.6 332.33 159.58 332.38 160.95C332.44 162.46 331.61 163.44 330.31 164.06L330.29 164.07Z" fill="#216BDC"/>
</svg>
