<svg width="426" height="426" viewBox="0 0 426 426" fill="none" xmlns="http://www.w3.org/2000/svg">
<path d="M283.87 122.62C286.88 125.09 287.09 126.38 285.02 129.91C270.82 154.2 256.61 178.48 242.41 202.77C242.03 203.43 241.67 204.1 241.07 205.18C242.08 205.18 242.79 205.18 243.5 205.18C252.31 205.18 261.11 205.2 269.92 205.16C271.86 205.16 273.59 205.43 274.53 207.34C275.53 209.36 274.57 210.93 273.28 212.46C239.91 252.32 206.54 292.19 173.18 332.06C172.28 333.13 171.4 334.22 170.48 335.27C168.68 337.34 166.76 337.84 164.98 336.76C163.18 335.67 162.69 333.75 163.63 331.21C168.53 318.07 173.45 304.94 178.36 291.81C185.52 272.67 192.68 253.52 199.83 234.37C200.09 233.67 200.3 232.96 200.62 232C199.57 232 198.81 232 198.05 232C188.54 232 179.04 232 169.53 232C165.13 232 163.53 229.8 164.92 225.68C176.07 192.63 187.2 159.58 198.43 126.56C198.93 125.1 200.28 123.93 201.23 122.63C228.77 122.63 256.32 122.63 283.86 122.63L283.87 122.62ZM173.64 224.17C174.77 224.17 175.53 224.17 176.28 224.17C185.86 224.17 195.43 224.17 205.01 224.17C209.51 224.17 211.07 226.45 209.49 230.7C201.09 253.18 192.69 275.66 184.29 298.14C182.51 302.89 180.74 307.64 178.97 312.39C179.09 312.46 179.21 312.53 179.33 312.61C207.04 279.5 234.74 246.4 262.79 212.89C261.05 212.89 259.88 212.89 258.71 212.89C250.74 212.89 242.77 212.92 234.8 212.87C230.96 212.84 229.35 209.94 231.19 206.56C231.46 206.07 231.76 205.6 232.04 205.11C246.14 181 260.23 156.89 274.33 132.78C274.73 132.09 275.11 131.39 275.66 130.39C274.62 130.39 274 130.39 273.38 130.39C251.36 130.39 229.34 130.41 207.32 130.35C205.69 130.35 205.05 130.92 204.56 132.41C196.49 156.49 188.36 180.54 180.24 204.6C178.08 211 175.92 217.41 173.63 224.18L173.64 224.17Z" fill="#216BDC"/>
</svg>
