<svg width="426" height="426" viewBox="0 0 426 426" fill="none" xmlns="http://www.w3.org/2000/svg">
<path d="M212.42 304.95C176.91 304.95 141.41 304.99 105.9 304.88C102.78 304.88 99.42 304.44 96.59 303.23C89.45 300.19 85.92 291.96 88.28 284.2C94.87 262.5 101.57 240.84 108.34 219.2C110.42 212.56 116.41 208.32 123.42 208.25C129.98 208.18 136.55 208.22 143.11 208.25C146.06 208.26 147.96 209.91 147.89 212.29C147.82 214.58 146 216.11 143.16 216.12C136.77 216.15 130.37 216.12 123.98 216.13C119.52 216.14 116.9 218.03 115.58 222.29C109.03 243.38 102.49 264.47 95.99 285.58C93.96 292.17 97.59 297.09 104.43 297.09C176.54 297.1 248.65 297.1 320.76 297.09C327.66 297.09 331.33 292.23 329.32 285.67C322.81 264.48 316.25 243.3 309.67 222.13C308.4 218.05 305.7 216.15 301.4 216.14C296.44 216.12 291.47 216.14 286.51 216.14C283.33 216.13 281.4 214.58 281.45 212.13C281.5 209.77 283.37 208.27 286.4 208.26C291.45 208.24 296.5 208.23 301.55 208.26C308.98 208.31 314.89 212.56 317.09 219.63C323.71 240.88 330.31 262.12 336.8 283.41C340.31 294.95 333.06 304.85 321 304.93C300.47 305.06 279.94 304.99 259.41 305C243.76 305 228.11 305 212.46 305V304.97L212.42 304.95Z" fill="#216BDC"/>
<path d="M307.35 159.55C303.01 159.55 298.66 159.7 294.33 159.46C292.91 159.38 291.2 158.62 290.27 157.58C289.61 156.84 289.51 154.75 290.1 153.95C290.92 152.85 292.59 151.8 293.94 151.76C300.58 151.54 307.23 151.66 313.87 151.66C321.38 151.66 321.6 151.88 321.6 159.44C321.6 165.83 321.61 172.23 321.6 178.62C321.6 181.84 320.11 183.75 317.67 183.75C315.23 183.75 313.74 181.84 313.73 178.63C313.71 174.38 313.73 170.13 313.73 165.24C312.48 166.42 311.7 167.11 310.96 167.86C278.24 200.58 245.51 233.29 212.82 266.04C208.33 270.53 203.1 272.86 196.86 271.08C194.07 270.28 191.17 268.73 189.11 266.72C177.24 255.16 165.59 243.37 153.89 231.63C151.78 229.52 151.64 227.39 153.33 225.64C155.07 223.84 157.29 223.99 159.5 226.2C170.88 237.55 182.23 248.92 193.59 260.28C198.44 265.13 202.64 265.14 207.5 260.28C240.22 227.56 272.93 194.84 305.66 162.13C306.31 161.48 307.16 161.03 307.91 160.49C307.73 160.18 307.55 159.87 307.36 159.56L307.35 159.55Z" fill="#216BDC"/>
<path d="M168.27 167.88C168.64 154.13 172.85 142.49 178.55 131.33C185.71 117.34 194.71 104.58 204.98 92.7099C207.35 89.9699 209.64 89.7399 211.78 92.2499C225.73 108.58 237.95 126.01 245.04 146.53C248.57 156.75 250.34 167.2 247.39 177.96C242.46 195.97 225.37 208.39 206.75 207.49C187.84 206.58 171.9 192.46 168.87 173.9C168.49 171.58 168.39 169.22 168.26 167.89L168.27 167.88ZM208.4 100.66C196.2 115.9 185.3 131.58 179.19 150.08C176.77 157.4 175.34 164.87 176.64 172.64C179.1 187.39 191.94 199.03 206.41 199.61C222.57 200.26 236.24 190.33 240.03 175.18C242.29 166.16 240.57 157.47 237.63 148.96C231.51 131.23 221.14 115.98 209.43 101.56C209.23 101.32 208.95 101.14 208.4 100.67V100.66Z" fill="#216BDC"/>
<path d="M190.9 171.35C191.53 171.91 193.04 172.7 193.7 173.94C196.2 178.7 199.88 181.77 205.09 183.12C207.68 183.79 208.94 185.86 208.33 187.97C207.67 190.28 205.61 191.29 202.91 190.59C195.56 188.68 190.18 184.34 186.87 177.5C185.4 174.47 187 171.45 190.9 171.35Z" fill="#216BDC"/>
<path d="M189.8 151.18C192.27 151.16 194.36 152.82 194.17 154.76C193.95 156.97 193.4 159.27 192.4 161.22C191.91 162.18 189.95 163.06 188.87 162.86C187.65 162.63 185.69 161.07 185.75 160.22C185.94 157.57 186.79 154.92 187.71 152.39C187.96 151.7 189.35 151.42 189.79 151.18H189.8Z" fill="#216BDC"/>
</svg>
