<svg width="426" height="426" viewBox="0 0 426 426" fill="none" xmlns="http://www.w3.org/2000/svg">
<path d="M179.29 114.65C192.58 114.65 205.87 114.63 219.15 114.65C244.49 114.7 269.83 114.77 295.17 114.82C296.57 114.82 298.04 114.49 299.36 114.81C300.76 115.14 302.55 115.7 303.27 116.76C315.04 134.2 326.66 151.73 338.32 169.25C339.53 171.06 339.47 172.73 338.02 174.42C300.1 218.45 262.16 262.47 224.32 306.58C219.84 311.81 218.79 312 214.08 306.51C176.86 263.07 139.51 219.74 102.2 176.37C101.61 175.68 101 175.01 100.38 174.34C98.9399 172.77 98.9099 171.1 100.05 169.39C111.75 151.8 123.42 134.2 135.22 116.69C135.91 115.67 137.65 114.83 138.91 114.82C152.36 114.69 165.82 114.74 179.27 114.74C179.27 114.72 179.27 114.69 179.27 114.67L179.29 114.65ZM183.42 175.34C195.31 215.11 207.13 254.66 218.95 294.2C219.15 294.19 219.34 294.17 219.54 294.16C231.36 254.59 243.19 215.03 255.05 175.34H183.42ZM110.2 175.13C143.91 214.31 177.19 253.01 210.9 292.18C210.76 291.12 210.77 290.72 210.66 290.35C199.35 252.53 188.02 214.71 176.76 176.87C176.29 175.28 175.45 175.1 174.08 175.11C159.88 175.14 145.68 175.13 131.48 175.13C124.63 175.13 117.78 175.13 110.2 175.13ZM227.54 291.32C227.7 291.44 227.86 291.56 228.01 291.69C261.31 252.98 294.61 214.27 328.28 175.13C326.77 175.13 325.96 175.13 325.15 175.13C305.18 175.13 285.22 175.18 265.25 175.07C262.93 175.06 262.01 175.73 261.36 177.94C252.77 207.01 244.07 236.04 235.4 265.09C232.79 273.84 230.17 282.58 227.55 291.33L227.54 291.32ZM212.24 121.8H145.26C156.53 136.67 167.56 151.23 178.76 166C189.98 151.19 201 136.64 212.24 121.8ZM293.19 121.84H226.27C237.53 136.7 248.55 151.24 259.73 166C270.97 151.16 281.97 136.65 293.19 121.84ZM185.9 167.93H252.58C241.39 153.17 230.42 138.69 219.24 123.95C208.04 138.72 197.07 153.19 185.9 167.93ZM171.7 168.05C160.46 153.22 149.53 138.81 138.44 124.17C128.62 138.94 119.03 153.36 109.26 168.05H171.7ZM266.84 167.97H329.17C319.38 153.26 309.78 138.84 300.02 124.18C288.86 138.9 277.97 153.28 266.83 167.97H266.84Z" fill="#216BDC"/>
</svg>
