<svg width="426" height="426" viewBox="0 0 426 426" fill="none" xmlns="http://www.w3.org/2000/svg">
<path d="M239.37 149.87C239.466 154.603 238.615 159.306 236.867 163.705C235.118 168.104 232.508 172.109 229.19 175.484C225.871 178.86 221.911 181.538 217.543 183.361C213.175 185.184 208.486 186.115 203.752 186.1C199.019 186.084 194.336 185.123 189.98 183.271C185.623 181.42 181.681 178.717 178.384 175.32C175.088 171.923 172.504 167.901 170.784 163.491C169.064 159.081 168.244 154.372 168.37 149.64C168.46 131.82 181.92 114.45 203.99 114.55C226.39 114.65 239.37 132.36 239.37 149.87ZM232.27 149.73C232.256 144.113 230.578 138.626 227.447 133.963C224.316 129.3 219.873 125.67 214.679 123.531C209.486 121.392 203.774 120.84 198.267 121.946C192.761 123.052 187.705 125.765 183.74 129.743C179.774 133.721 177.077 138.785 175.989 144.295C174.9 149.806 175.47 155.515 177.625 160.702C179.781 165.889 183.425 170.32 188.098 173.437C192.771 176.553 198.263 178.214 203.88 178.21C207.614 178.205 211.311 177.464 214.759 176.03C218.207 174.595 221.339 172.496 223.975 169.851C226.611 167.206 228.701 164.068 230.124 160.616C231.548 157.163 232.277 153.464 232.27 149.73Z" fill="#216BDC"/>
<path d="M203.85 185.56C194.349 185.534 185.248 181.735 178.547 174.999C171.847 168.263 168.096 159.141 168.12 149.64C168.179 140.58 171.616 131.868 177.76 125.21C182.42 120.21 190.71 114.3 203.76 114.3H203.96C227.12 114.41 239.61 132.71 239.61 149.87C239.579 159.338 235.799 168.408 229.097 175.096C222.396 181.785 213.318 185.547 203.85 185.56ZM203.77 114.8C190.87 114.8 182.69 120.64 178.1 125.55C172.037 132.116 168.649 140.713 168.6 149.65C168.582 159.017 172.281 168.008 178.887 174.649C185.492 181.29 194.464 185.038 203.83 185.07C213.169 185.06 222.123 181.35 228.734 174.753C235.344 168.156 239.071 159.209 239.1 149.87C239.1 132.95 226.79 114.87 203.95 114.8H203.77ZM203.86 178.46C196.35 178.335 189.188 175.267 183.916 169.917C178.644 164.566 175.682 157.361 175.668 149.849C175.653 142.338 178.588 135.12 183.839 129.75C189.091 124.379 196.24 121.284 203.75 121.13H203.82C211.416 121.122 218.705 124.13 224.084 129.493C229.464 134.855 232.494 142.134 232.51 149.73C232.519 153.497 231.786 157.229 230.352 160.712C228.917 164.196 226.81 167.362 224.151 170.03C221.492 172.699 218.333 174.817 214.855 176.263C211.377 177.71 207.647 178.456 203.88 178.46H203.86ZM203.86 121.63H203.79C196.412 121.783 189.388 124.825 184.23 130.102C179.071 135.379 176.189 142.469 176.203 149.849C176.218 157.229 179.127 164.308 184.307 169.565C189.486 174.822 196.522 177.836 203.9 177.96C207.644 178.026 211.363 177.346 214.84 175.959C218.317 174.571 221.483 172.504 224.152 169.879C226.822 167.254 228.941 164.123 230.386 160.669C231.832 157.216 232.574 153.508 232.57 149.764C232.566 146.021 231.816 142.315 230.363 138.864C228.911 135.414 226.785 132.287 224.11 129.668C221.435 127.048 218.264 124.988 214.784 123.608C211.304 122.228 207.583 121.556 203.84 121.63H203.86Z" fill="#216BDC"/>
<path d="M173 115.23C172.241 116.304 171.343 117.272 170.33 118.11C168.93 119 167.48 118.43 166.33 117.29C163.33 114.29 160.33 111.29 157.33 108.29C155.33 106.29 153.33 104.29 151.33 102.29C149.63 100.54 149.56 98.4301 151.09 96.9501C152.62 95.4701 154.65 95.6701 156.31 97.3101C161.35 102.303 166.35 107.303 171.31 112.31C171.984 113.215 172.551 114.195 173 115.23Z" fill="#216BDC"/>
<path d="M168.93 118.79C167.873 118.728 166.885 118.25 166.18 117.46L160.36 111.63L157.17 108.43L155.17 106.43C153.86 105.13 152.5 103.79 151.17 102.43C150.741 102.029 150.396 101.547 150.155 101.011C149.915 100.475 149.784 99.897 149.77 99.31C149.783 98.825 149.893 98.3477 150.094 97.9062C150.295 97.4647 150.583 97.0681 150.94 96.74C152.49 95.25 154.78 95.4 156.51 97.11C162.39 102.93 167.16 107.71 171.51 112.11C171.971 112.645 172.346 113.249 172.62 113.9C172.8 114.26 173 114.65 173.24 115.08L173.33 115.23L173.21 115.36C172.92 115.69 172.65 116.03 172.39 116.36C171.869 117.105 171.227 117.758 170.49 118.29C170.03 118.605 169.488 118.778 168.93 118.79ZM153.41 96.18C153.011 96.1803 152.617 96.26 152.249 96.4146C151.882 96.5691 151.549 96.7953 151.27 97.08C150.964 97.3648 150.718 97.7079 150.546 98.0891C150.374 98.4703 150.281 98.882 150.27 99.3C150.311 100.355 150.768 101.35 151.54 102.07C152.84 103.41 154.2 104.75 155.54 106.07L157.59 108.07L160.78 111.27L166.6 117.1C167.32 117.82 168.75 118.87 170.3 117.89C170.992 117.389 171.594 116.773 172.08 116.07C172.31 115.78 172.55 115.48 172.8 115.19L172.26 114.19C172.015 113.588 171.678 113.028 171.26 112.53C166.89 108.08 162.12 103.3 156.26 97.53C155.901 97.1236 155.464 96.7943 154.974 96.5622C154.484 96.3302 153.952 96.2001 153.41 96.18Z" fill="#216BDC"/>
<path d="M257.7 100C257.364 100.82 256.913 101.588 256.36 102.28C251.38 107.347 246.363 112.373 241.31 117.36C240.999 117.724 240.616 118.018 240.184 118.224C239.752 118.43 239.282 118.543 238.804 118.555C238.326 118.567 237.85 118.479 237.409 118.295C236.967 118.112 236.569 117.837 236.24 117.49C234.73 116.01 234.76 113.95 236.4 112.3C241.407 107.26 246.43 102.237 251.47 97.23C251.941 96.6562 252.584 96.2492 253.305 96.0691C254.025 95.8891 254.784 95.9455 255.47 96.23C256.9 96.81 257.57 97.94 257.7 100Z" fill="#216BDC"/>
<path d="M238.67 118.75C237.691 118.698 236.766 118.288 236.069 117.599C235.372 116.91 234.952 115.988 234.89 115.01C234.907 114.455 235.035 113.91 235.265 113.405C235.495 112.9 235.823 112.447 236.23 112.07C239.63 108.65 243.043 105.233 246.47 101.82L251.29 96.9999C251.805 96.3911 252.503 95.9649 253.279 95.7847C254.056 95.6045 254.87 95.68 255.6 95.9999C257.09 96.6199 257.81 97.8299 257.95 99.9399V99.9999V100.07C257.88 100.2 257.79 100.38 257.7 100.58C257.429 101.243 257.047 101.855 256.57 102.39C252.18 106.87 247.4 111.66 241.57 117.48C241.199 117.878 240.75 118.196 240.251 118.414C239.752 118.632 239.214 118.747 238.67 118.75ZM254.1 96.1799C253.633 96.2 253.174 96.314 252.751 96.515C252.329 96.716 251.951 96.9999 251.64 97.3499L246.82 102.17C243.4 105.577 239.987 108.993 236.58 112.42C236.219 112.75 235.927 113.149 235.723 113.594C235.518 114.039 235.405 114.521 235.39 115.01C235.42 115.663 235.642 116.293 236.028 116.821C236.414 117.349 236.947 117.752 237.56 117.979C238.173 118.206 238.84 118.248 239.476 118.098C240.113 117.949 240.692 117.616 241.14 117.14C247.01 111.32 251.79 106.53 256.14 102.05C256.562 101.551 256.9 100.987 257.14 100.38C257.23 100.2 257.3 100.03 257.38 99.8999C257.24 98.0299 256.63 96.9999 255.38 96.4599C254.976 96.2825 254.541 96.1873 254.1 96.1799Z" fill="#216BDC"/>
<path d="M238.57 180.87C239.632 181.341 240.638 181.928 241.57 182.62C246.63 187.58 251.647 192.58 256.62 197.62C257.012 197.927 257.334 198.312 257.566 198.752C257.798 199.192 257.935 199.676 257.967 200.172C257.999 200.668 257.926 201.165 257.753 201.631C257.579 202.097 257.309 202.522 256.961 202.876C256.612 203.23 256.192 203.507 255.729 203.688C255.266 203.869 254.77 203.95 254.273 203.926C253.776 203.902 253.29 203.773 252.847 203.548C252.404 203.323 252.013 203.007 251.7 202.62C246.63 197.62 241.59 192.52 236.54 187.47C235.32 186.25 234.85 184.74 235.73 183.29C236.36 182.36 237.55 181.74 238.57 180.87Z" fill="#216BDC"/>
<path d="M254.4 204.09C253.326 204.07 252.305 203.624 251.56 202.85C248.267 199.583 244.99 196.307 241.73 193.02L236.41 187.69C235 186.28 234.69 184.69 235.55 183.22C236.055 182.51 236.693 181.905 237.43 181.44C237.75 181.2 238.09 180.95 238.43 180.69L238.56 180.57L238.71 180.66C239.14 180.9 239.55 181.1 239.92 181.28C240.605 181.562 241.24 181.954 241.8 182.44C247.05 187.59 252.14 192.7 256.86 197.44C257.265 197.828 257.588 198.293 257.81 198.809C258.032 199.324 258.147 199.879 258.15 200.44C258.115 201.414 257.709 202.338 257.016 203.024C256.323 203.71 255.394 204.105 254.42 204.13L254.4 204.09ZM238.59 181.17C238.31 181.41 238.01 181.63 237.72 181.84C237.04 182.266 236.45 182.82 235.98 183.47C235.634 184.104 235.523 184.839 235.665 185.547C235.808 186.255 236.196 186.89 236.76 187.34L242.08 192.67C245.347 195.95 248.623 199.227 251.91 202.5C252.206 202.828 252.565 203.094 252.966 203.28C253.367 203.466 253.801 203.569 254.243 203.583C254.685 203.597 255.125 203.522 255.537 203.361C255.949 203.201 256.324 202.959 256.64 202.65C256.949 202.359 257.197 202.009 257.368 201.621C257.54 201.233 257.632 200.814 257.64 200.39C257.629 199.904 257.522 199.424 257.324 198.98C257.127 198.535 256.843 198.134 256.49 197.8C251.77 193.05 246.69 187.94 241.44 182.8C240.914 182.352 240.32 181.991 239.68 181.73L238.59 181.17Z" fill="#216BDC"/>
<path d="M172.34 185.32C172.046 186.098 171.635 186.827 171.12 187.48C166.113 192.58 161.063 197.643 155.97 202.67C155.659 203.061 155.268 203.381 154.823 203.61C154.379 203.838 153.891 203.97 153.392 203.996C152.893 204.022 152.394 203.941 151.928 203.76C151.463 203.578 151.041 203.3 150.691 202.944C150.34 202.587 150.07 202.16 149.897 201.691C149.724 201.222 149.653 200.722 149.688 200.224C149.723 199.725 149.863 199.24 150.1 198.799C150.336 198.359 150.664 197.974 151.06 197.67C156.06 192.67 161.06 187.67 166.06 182.62C166.539 182.056 167.186 181.661 167.906 181.492C168.625 181.323 169.38 181.389 170.06 181.68C171.52 182.21 172.19 183.32 172.34 185.32Z" fill="#216BDC"/>
<path d="M153.31 204.09C152.334 204.07 151.403 203.676 150.709 202.989C150.015 202.303 149.611 201.376 149.58 200.4C149.585 199.838 149.702 199.283 149.925 198.768C150.149 198.253 150.473 197.787 150.88 197.4C153.94 194.32 157.01 191.247 160.09 188.18C162.03 186.24 163.98 184.3 165.92 182.35C166.434 181.743 167.13 181.319 167.905 181.138C168.679 180.958 169.491 181.032 170.22 181.35C171.69 181.96 172.42 183.16 172.59 185.25V185.33V185.39C172.52 185.52 172.44 185.69 172.36 185.88C172.132 186.508 171.793 187.091 171.36 187.6C166.93 192.12 162.11 196.95 156.21 202.8C155.837 203.197 155.388 203.516 154.89 203.738C154.392 203.959 153.855 204.079 153.31 204.09ZM168.71 181.58C168.246 181.599 167.791 181.711 167.371 181.91C166.952 182.11 166.577 182.392 166.27 182.74L160.44 188.57C157.373 191.637 154.303 194.71 151.23 197.79C150.517 198.47 150.1 199.405 150.07 200.39C150.075 200.815 150.166 201.234 150.338 201.623C150.51 202.011 150.759 202.361 151.07 202.65C151.386 202.959 151.761 203.201 152.173 203.361C152.585 203.522 153.025 203.597 153.467 203.583C153.909 203.569 154.343 203.466 154.744 203.28C155.145 203.094 155.504 202.828 155.8 202.5C161.7 196.65 166.51 191.82 170.94 187.31C171.343 186.842 171.661 186.307 171.88 185.73C171.941 185.572 172.011 185.419 172.09 185.27C171.93 183.41 171.31 182.39 170.03 181.86C169.612 181.683 169.164 181.588 168.71 181.58Z" fill="#216BDC"/>
<path d="M143.28 146.24H153.4C156.16 146.24 157.73 147.57 157.7 149.83C157.67 152.09 156.12 153.34 153.49 153.34C146.57 153.34 139.65 153.34 132.73 153.34C130.32 153.34 128.73 151.9 128.79 149.75C128.85 147.6 130.36 146.26 132.79 146.25C136.3 146.23 139.79 146.24 143.28 146.24Z" fill="#216BDC"/>
<path d="M142.71 153.6H132.71C132.129 153.626 131.548 153.536 131.002 153.335C130.456 153.134 129.956 152.827 129.53 152.43C129.194 152.074 128.932 151.655 128.76 151.196C128.588 150.738 128.51 150.249 128.53 149.76C128.53 147.49 130.22 146.02 132.8 146.01H153.4C154.709 145.927 155.998 146.361 156.99 147.22C157.327 147.568 157.589 147.98 157.761 148.432C157.933 148.884 158.011 149.367 157.99 149.85C157.99 152.19 156.3 153.6 153.53 153.6H142.71ZM137 146.49H132.81C130.5 146.49 129.05 147.75 129.03 149.76C129.014 150.184 129.084 150.608 129.235 151.004C129.387 151.401 129.616 151.764 129.91 152.07C130.29 152.416 130.735 152.683 131.219 152.854C131.703 153.026 132.217 153.099 132.73 153.07C139.65 153.07 146.57 153.07 153.49 153.07C155.99 153.07 157.44 151.87 157.49 149.8C157.512 149.385 157.449 148.97 157.307 148.58C157.164 148.19 156.944 147.833 156.66 147.53C155.761 146.764 154.598 146.38 153.42 146.46H137V146.49Z" fill="#216BDC"/>
<path d="M263.87 146.24C267.36 146.24 270.87 146.24 274.34 146.24C276.93 146.24 278.49 147.63 278.45 149.85C278.41 152.07 276.88 153.33 274.39 153.33C267.41 153.33 260.43 153.33 253.45 153.33C251.06 153.33 249.5 151.87 249.53 149.72C249.56 147.57 251.09 146.25 253.4 146.24C256.89 146.23 260.38 146.24 263.87 146.24Z" fill="#216BDC"/>
<path d="M263.62 153.6H253.45C252.873 153.623 252.297 153.531 251.756 153.328C251.215 153.126 250.72 152.817 250.3 152.42C249.962 152.061 249.699 151.639 249.527 151.176C249.355 150.714 249.278 150.222 249.3 149.73C249.3 147.52 250.99 146.02 253.42 146.01H274.42C275.034 145.977 275.649 146.067 276.227 146.274C276.806 146.482 277.337 146.804 277.79 147.22C278.129 147.57 278.392 147.986 278.564 148.442C278.736 148.897 278.813 149.383 278.79 149.87C278.79 152.17 277.1 153.59 274.48 153.6H263.62ZM257.56 146.49H253.4C251.23 146.49 249.81 147.77 249.78 149.72C249.762 150.147 249.829 150.573 249.979 150.973C250.128 151.373 250.356 151.74 250.65 152.05C251.027 152.395 251.468 152.661 251.949 152.833C252.43 153.004 252.94 153.078 253.45 153.05C261.19 153.05 268.04 153.05 274.39 153.05C276.71 153.05 278.17 151.81 278.2 149.81C278.224 149.39 278.162 148.97 278.02 148.575C277.877 148.18 277.656 147.818 277.37 147.51C276.547 146.779 275.47 146.398 274.37 146.45C271.93 146.45 269.49 146.45 267.04 146.45H257.59L257.56 146.49Z" fill="#216BDC"/>
<path d="M200.31 89.2301C200.31 85.8601 200.31 82.4801 200.31 79.1101C200.31 76.6801 201.75 75.1101 203.89 75.1101C206.03 75.1101 207.39 76.6401 207.4 79.1101C207.4 85.9101 207.4 92.7168 207.4 99.5301C207.4 102.02 206.05 103.53 203.93 103.59C201.81 103.65 200.32 102.08 200.31 99.4901C200.29 96.1001 200.31 92.6601 200.31 89.2301Z" fill="#216BDC"/>
<path d="M203.85 103.88C202.892 103.9 201.964 103.541 201.27 102.88C200.856 102.424 200.535 101.891 200.327 101.311C200.12 100.731 200.029 100.115 200.06 99.4999C200.06 97.0999 200.06 94.7099 200.06 92.3099V86.2199C200.06 83.8466 200.06 81.4766 200.06 79.1099C200.06 76.5799 201.62 74.8799 203.89 74.8799C206.17 74.8799 207.64 76.5499 207.65 79.1499C207.65 85.6299 207.65 92.3099 207.65 99.5699C207.65 102.19 206.22 103.84 203.93 103.88H203.85ZM203.85 75.3699C201.85 75.3699 200.54 76.8399 200.52 79.1099C200.5 81.3799 200.52 83.8499 200.52 86.2199V92.3399C200.52 94.7399 200.52 97.1299 200.52 99.5299C200.489 100.075 200.566 100.622 200.748 101.137C200.93 101.652 201.213 102.125 201.58 102.53C201.888 102.815 202.251 103.036 202.646 103.179C203.041 103.321 203.461 103.383 203.88 103.36C205.88 103.36 207.11 101.9 207.11 99.5499C207.11 92.2799 207.11 85.6099 207.11 79.1299C207.15 76.8199 205.9 75.3699 203.89 75.3699H203.85Z" fill="#216BDC"/>
<path d="M207.41 210.36C207.41 213.67 207.41 216.99 207.41 220.3C207.41 222.89 206.01 224.45 203.8 224.41C201.59 224.37 200.33 222.83 200.32 220.34C200.32 213.54 200.32 206.733 200.32 199.92C200.32 197.49 201.73 195.92 203.86 195.92C205.99 195.92 207.39 197.43 207.41 199.92C207.43 203.38 207.41 206.87 207.41 210.36Z" fill="#216BDC"/>
<path d="M203.86 224.66H203.78C201.49 224.66 200.07 222.96 200.06 220.34C200.06 212.83 200.06 206.15 200.06 199.92C200.06 197.36 201.55 195.68 203.85 195.65H203.9C204.372 195.638 204.841 195.721 205.281 195.892C205.72 196.064 206.121 196.322 206.46 196.65C206.864 197.084 207.178 197.594 207.382 198.15C207.586 198.706 207.677 199.298 207.65 199.89C207.65 202.3 207.65 204.7 207.65 207.1V213.37C207.65 215.69 207.65 218.003 207.65 220.31C207.681 220.925 207.59 221.541 207.383 222.121C207.175 222.701 206.855 223.234 206.44 223.69C206.095 224.013 205.689 224.265 205.247 224.432C204.804 224.598 204.333 224.676 203.86 224.66ZM203.86 196.15H203.81C201.81 196.15 200.53 197.65 200.52 199.92C200.52 206.15 200.52 212.83 200.52 220.34C200.52 222.7 201.73 224.13 203.75 224.16C204.169 224.18 204.588 224.117 204.983 223.974C205.377 223.832 205.74 223.613 206.05 223.33C206.789 222.51 207.173 221.432 207.12 220.33C207.12 218.02 207.12 215.7 207.12 213.39V207.12C207.12 204.72 207.12 202.32 207.12 199.92C207.152 199.395 207.081 198.868 206.909 198.37C206.738 197.873 206.469 197.414 206.12 197.02C205.826 196.735 205.479 196.511 205.098 196.362C204.716 196.212 204.309 196.14 203.9 196.15H203.86Z" fill="#216BDC"/>
<path d="M212.22 325.88C177.75 325.88 143.27 325.88 108.8 325.81C105.724 325.868 102.667 325.324 99.8 324.21C92.87 321.26 89.44 313.27 91.73 305.74C98.13 284.667 104.62 263.63 111.2 242.63C112.176 239.528 114.123 236.82 116.753 234.907C119.383 232.993 122.558 231.974 125.81 232C132.18 231.94 138.55 232 144.92 232C147.79 232 149.63 233.61 149.56 235.92C149.49 238.23 147.72 239.62 144.97 239.64C138.76 239.64 132.55 239.64 126.34 239.64C122.02 239.64 119.47 241.48 118.19 245.64C111.83 266.107 105.497 286.587 99.19 307.08C97.19 313.48 100.74 318.26 107.39 318.26H317.39C324.1 318.26 327.66 313.55 325.7 307.17C319.38 286.597 313.02 266.033 306.62 245.48C305.39 241.48 302.77 239.68 298.62 239.66C293.8 239.66 288.98 239.66 284.16 239.66C281.07 239.66 279.16 238.14 279.25 235.77C279.34 233.4 281.08 232 284 232C288.9 232 293.8 232 298.7 232C302.077 231.911 305.388 232.941 308.118 234.931C310.847 236.921 312.842 239.758 313.79 243C320.223 263.667 326.607 284.333 332.94 305C336.35 316.2 329.31 325.82 317.6 325.89C297.67 326.01 277.73 325.95 257.8 325.96H212.22V325.88Z" fill="#216BDC"/>
<path d="M304.39 184.72C300.17 184.72 295.95 184.86 291.74 184.64C290.249 184.524 288.85 183.875 287.8 182.81C287.478 182.285 287.294 181.686 287.266 181.071C287.238 180.455 287.367 179.842 287.64 179.29C288.09 178.708 288.65 178.22 289.288 177.854C289.926 177.489 290.63 177.253 291.36 177.16C297.81 176.95 304.26 177.06 310.72 177.06C318.01 177.06 318.22 177.28 318.22 184.62C318.22 190.827 318.22 197.033 318.22 203.24C318.22 206.37 316.76 208.24 314.4 208.24C312.04 208.24 310.58 206.38 310.57 203.24C310.57 199.11 310.57 194.98 310.57 190.24C309.36 191.38 308.57 192.06 307.88 192.78C276.12 224.54 244.36 256.31 212.6 288.09C208.24 292.46 203.16 294.71 197.11 292.98C194.3 292.188 191.719 290.738 189.58 288.75C178.05 277.52 166.74 266.07 155.38 254.68C153.38 252.68 153.19 250.56 154.83 248.86C156.47 247.16 158.68 247.26 160.83 249.41C171.87 260.43 182.903 271.46 193.93 282.5C198.64 287.21 202.71 287.21 207.44 282.5C239.2 250.733 270.967 218.967 302.74 187.2C303.426 186.612 304.159 186.08 304.93 185.61L304.39 184.72Z" fill="#216BDC"/>
</svg>
