<svg width="426" height="426" viewBox="0 0 426 426" fill="none" xmlns="http://www.w3.org/2000/svg">
<path d="M154.55 319.26C151.86 318.23 148.96 317.54 146.5 316.1C138.23 311.22 134.41 301.1 137.82 292.1C142.33 280.18 147.34 268.44 152.17 256.64C162.37 231.76 172.59 206.89 182.81 182.02C185.67 175.07 187.13 167.87 187.06 160.33C186.98 151.51 186.99 142.7 187.06 133.88C187.09 130.24 186.2 127 183.63 124.37C179.56 120.2 179.09 115.04 179.55 109.65C179.73 107.5 181.33 105.99 183.65 105.99C203.02 105.94 222.39 105.94 241.76 105.99C244.23 105.99 245.67 107.63 245.87 110.1C246.31 115.63 245.44 120.72 241.33 124.89C239.13 127.12 238.32 129.99 238.31 133.08C238.31 142.66 238.27 152.24 238.32 161.82C238.36 168.91 239.97 175.68 242.67 182.24C257.37 218.01 271.88 253.86 286.77 289.54C292.55 303.39 283.89 317.22 271.32 318.97C271.13 319 270.96 319.16 270.78 319.26H154.54H154.55ZM148.16 288.46C149.33 288.46 150.22 288.44 151.1 288.46C154.14 288.53 156.08 290.15 156.09 292.63C156.11 295.1 154.15 296.75 151.13 296.79C149.14 296.81 147.16 296.79 145.23 296.79C144.04 304.57 149.89 310.91 158.08 310.92C194.46 310.95 230.83 310.94 267.21 310.9C268.78 310.9 270.4 310.64 271.91 310.22C277.7 308.59 282.69 301.45 279.08 292.76C268.81 268.06 258.72 243.29 248.62 218.52C248.03 217.08 247.25 216.77 245.84 216.78C236.88 216.83 227.93 216.81 218.97 216.81C205.78 216.81 192.59 216.8 179.4 216.84C178.68 216.84 177.52 217.08 177.31 217.55C175.72 221.07 174.31 224.67 172.75 228.48C174.13 228.48 175.23 228.43 176.32 228.48C179.08 228.62 180.82 230.26 180.82 232.67C180.82 235.1 179.07 236.72 176.29 236.79C174.42 236.84 172.54 236.76 170.67 236.83C170.13 236.85 169.3 237.08 169.13 237.45C167.56 241.02 166.11 244.64 164.53 248.48C165.97 248.48 167.01 248.42 168.04 248.49C170.74 248.66 172.52 250.43 172.44 252.8C172.36 255.11 170.61 256.71 167.97 256.79C166.1 256.85 164.22 256.77 162.35 256.83C161.86 256.85 161.08 257.03 160.94 257.36C159.39 260.95 157.93 264.59 156.34 268.49C157.76 268.49 158.8 268.42 159.83 268.5C162.37 268.72 164.15 270.55 164.07 272.77C163.99 275.04 162.18 276.7 159.6 276.78C157.8 276.84 155.99 276.74 154.19 276.83C153.66 276.85 152.84 277.12 152.68 277.5C151.14 281.04 149.72 284.63 148.15 288.46H148.16ZM181.07 208.3H244.32C244 207.46 243.77 206.81 243.51 206.18C240.59 199.07 237.65 191.96 234.75 184.84C232.22 178.64 230.39 172.22 230.24 165.5C230.02 155.44 230.14 145.38 229.96 135.32C229.85 128.87 231.42 123.15 235.91 118.33C236.82 117.36 237.21 115.9 237.97 114.41H187.22C188.38 116.31 189.11 117.94 190.23 119.23C193.82 123.37 195.4 128.16 195.4 133.56C195.39 142.72 195.4 151.88 195.4 161.04C195.39 168.18 194.37 175.16 191.75 181.82C188.55 189.94 185.22 198.01 181.95 206.1C181.67 206.79 181.4 207.48 181.08 208.29L181.07 208.3Z" fill="#216BDC"/>
<path d="M241.71 237.73C244.27 237.89 245.44 239.29 246.23 241.23C249.12 248.34 252.06 255.44 254.97 262.55C256.81 267.03 258.63 271.52 260.48 276C261.25 277.88 261.28 279.67 259.77 281.19C257.61 283.35 254.21 282.48 252.9 279.37C250.59 273.89 248.37 268.36 246.11 262.86C243.56 256.65 240.97 250.46 238.46 244.24C237.09 240.84 238.86 237.71 241.72 237.74L241.71 237.73Z" fill="#216BDC"/>
<path d="M262.8 296.76C260.56 296.79 258.75 294.99 258.69 292.68C258.64 290.45 260.45 288.53 262.68 288.45C264.9 288.38 266.96 290.41 266.96 292.67C266.96 294.84 265.03 296.73 262.8 296.76Z" fill="#216BDC"/>
</svg>
