<svg width="426" height="426" viewBox="0 0 426 426" fill="none" xmlns="http://www.w3.org/2000/svg">
<path d="M262.86 109.55C263.24 110.22 264.01 110.06 264.57 110.32C268.66 112.16 270.97 115.24 271.23 119.74C271.36 121.92 271.16 124.12 271.72 126.26C273.13 131.56 277.89 135.12 283.76 135.22C287.26 135.28 290.75 135.2 294.25 135.24C301.39 135.32 306.12 140.06 306.19 147.18C306.23 150.89 306.21 154.61 306.19 158.32C306.18 160.84 304.9 162.38 302.9 162.34C300.92 162.3 299.67 160.75 299.65 158.22C299.62 154.58 299.67 150.94 299.63 147.29C299.59 143.64 297.77 141.83 294.07 141.79C290.65 141.75 287.22 141.83 283.8 141.77C272.79 141.58 264.92 133.69 264.71 122.67C264.71 122.16 264.71 121.65 264.71 121.14C264.66 117.53 263.26 116.1 259.68 116.1C249.05 116.09 238.41 116.1 227.78 116.1C207.17 116.1 186.55 116.1 165.94 116.1C161.76 116.1 160.48 117.38 160.46 121.56C160.4 131.71 154.97 139.09 145.93 141.25C143.5 141.83 141.02 141.8 138.54 141.78C136.06 141.76 133.59 141.75 131.11 141.78C127.41 141.83 125.61 143.63 125.53 147.27C125.53 147.42 125.53 147.56 125.53 147.71C125.53 168.69 125.2 189.67 125.61 210.64C126.43 252.61 144.63 285.29 179.37 308.77C186.96 313.9 194.7 318.8 202.44 323.71C208.52 327.57 215.13 328.27 221.25 324.48C233.36 316.99 245.75 309.84 256.77 300.74C279.06 282.34 292.74 258.81 297.89 230.34C299.16 223.3 299.67 216.2 299.65 209.04C299.62 197.97 299.65 186.9 299.65 175.83C299.65 174.96 299.59 174.09 299.96 173.25C300.6 171.82 301.71 171.08 303.24 171.23C304.85 171.39 305.89 172.33 306.16 173.99C306.23 174.42 306.21 174.86 306.21 175.3C306.21 187.17 306.47 199.05 306.15 210.92C304.99 254.85 286.07 289.2 249.84 313.99C242.34 319.12 234.62 323.92 226.96 328.82C217.34 334.97 207.67 334.97 198.11 328.72C188.31 322.32 178.14 316.45 168.81 309.37C142.15 289.16 126.12 262.42 120.48 229.47C119.34 222.79 118.95 216.03 118.97 209.24C119.01 188.85 119.15 168.45 118.9 148.06C118.81 140.67 124.17 134.68 131.81 135.2C134.57 135.39 137.34 135.23 140.11 135.23C149.03 135.23 153.88 130.4 153.91 121.48C153.93 115.18 156.19 111.97 162.07 109.86C162.18 109.82 162.24 109.66 162.33 109.55C195.84 109.55 229.35 109.55 262.86 109.55Z" fill="#216BDC"/>
<path d="M299.66 155.14L299.65 179.58L306.2 178.26L306.21 157.77L299.66 155.14Z" fill="#216BDC"/>
<path d="M267.66 263.44C266.96 265.25 265.56 265.98 263.72 266.37C246.9 270 231 267.59 216.03 259.13C210.81 256.18 206.16 252.45 201.92 248.21C191.22 237.51 180.52 226.81 169.82 216.1C167.54 213.82 167.54 212 169.82 209.72C172.27 207.26 174.73 204.81 177.27 202.27C176.9 201.88 176.59 201.54 176.26 201.21C167.54 192.49 158.83 183.77 150.11 175.06C147.25 172.21 145.77 168.87 146.46 164.79C147.14 160.73 149.46 157.82 153.23 156.3C157.04 154.76 160.75 155.25 164.09 157.75C164.81 158.29 165.48 158.92 166.12 159.56C199.26 192.69 232.4 225.83 265.52 258.98C266.34 259.8 266.96 260.82 267.67 261.75V263.41L267.66 263.44ZM193.06 197.02C187.77 202.3 182.39 207.67 176.98 213.08C177.05 213.16 177.2 213.34 177.37 213.5C187.37 223.5 197.37 233.52 207.39 243.51C211.64 247.75 216.42 251.28 221.76 254.06C229.51 258.1 237.76 260.35 246.47 260.74C249.79 260.89 253.12 260.62 256.59 260.54C235.22 239.17 214.08 218.03 193.07 197.02H193.06ZM187.8 191.45C187.65 191.29 187.49 191.11 187.32 190.94C178.41 182.03 169.51 173.12 160.6 164.22C160.38 164 160.15 163.78 159.9 163.58C157.54 161.67 154.14 162.87 153.53 165.83C153.17 167.54 153.96 168.78 155.11 169.93C163.91 178.72 172.71 187.52 181.5 196.31C181.77 196.58 182.06 196.84 182.23 197C184.1 195.13 185.91 193.33 187.79 191.45H187.8Z" fill="#216BDC"/>
</svg>
