<svg width="426" height="426" viewBox="0 0 426 426" fill="none" xmlns="http://www.w3.org/2000/svg">
<path d="M188.03 249.4C184.2 252.35 179.99 253.87 175.12 252.88C169.95 251.83 166.24 248.9 164.14 244.1C163.55 242.74 162.87 242.35 161.45 242.37C153.82 242.44 146.19 242.44 138.56 242.37C137.1 242.36 136.33 242.67 135.72 244.19C132.82 251.49 124.97 255.24 117.53 253.04C110.35 250.92 105.63 243.57 106.83 236.38C108.15 228.47 114.79 222.98 122.67 223.48C128.26 223.83 132.42 226.63 135.15 231.53C135.53 232.22 135.84 232.95 136.24 233.77C144.93 233.77 153.63 233.79 162.33 233.72C162.83 233.72 163.57 233.1 163.8 232.59C165.49 228.72 168.16 225.89 172.03 224.14C172.56 223.9 173.13 223.03 173.13 222.44C173.21 216.47 173.21 210.49 173.13 204.52C173.13 203.93 172.56 203.06 172.03 202.81C168.17 201.05 165.49 198.23 163.81 194.35C163.58 193.82 162.71 193.26 162.13 193.25C154 193.18 145.86 193.25 137.73 193.15C136.21 193.13 136.02 194.02 135.58 195C132.89 201.01 126.59 204.65 120.21 203.92C113.66 203.17 108.38 198.4 107.04 192C105.43 184.36 109.77 176.89 117.21 174.49C124.51 172.14 132.44 175.61 135.51 182.7C136.18 184.26 136.97 184.6 138.52 184.59C146.15 184.51 153.78 184.52 161.41 184.59C162.78 184.6 163.52 184.32 164.12 182.91C167.92 174.11 178.41 171.05 186.35 176.39C187.45 177.13 188.22 177.29 189.41 176.59C193 174.46 196.64 172.43 200.32 170.47C201.45 169.87 201.74 169.18 201.64 167.93C201.09 160.85 204.38 155.49 210.92 152.38C211.55 152.08 212.18 151.08 212.23 150.37C212.39 147.86 212.19 145.33 212.33 142.82C212.41 141.32 211.87 140.73 210.48 140.25C201.82 137.21 196.4 128.62 197.47 119.87C198.61 110.63 205.74 103.56 214.91 102.58C224.38 101.57 233.47 108.04 235.7 117.41C237.96 126.91 232.84 136.79 223.64 140.01C221.3 140.83 220.54 141.89 220.91 144.13C220.98 144.55 220.95 144.99 220.91 145.42C220.64 149.19 220.79 152.12 225.19 154.3C230.2 156.79 232.07 162.03 231.55 167.73C231.42 169.19 231.81 169.9 233.08 170.57C236.83 172.56 240.51 174.66 244.18 176.79C245.21 177.39 245.91 177.5 247.02 176.72C255.08 171.09 265.55 174.06 269.57 183.09C270.09 184.27 270.69 184.67 271.95 184.66C279.79 184.61 287.64 184.6 295.48 184.66C296.85 184.67 297.45 184.23 297.99 182.99C300.95 176.2 307.98 172.67 315.16 174.25C321.81 175.7 326.8 181.86 326.9 188.73C327 195.93 322.14 202.07 315.03 203.73C308.12 205.34 300.94 201.74 298.01 195.06C297.44 193.76 296.86 193.21 295.36 193.23C287.59 193.32 279.81 193.29 272.04 193.25C270.85 193.25 270.11 193.45 269.6 194.74C268.08 198.6 265.25 201.25 261.48 202.98C260.86 203.27 260.07 204.1 260.06 204.68C259.96 211.15 260 217.63 260 224.14C264.66 225.82 267.95 228.82 269.83 233.35C270.02 233.82 270.88 234.28 271.43 234.28C279.56 234.34 287.7 234.28 295.83 234.36C297.35 234.38 297.53 233.44 297.96 232.47C300.93 225.77 308.01 222.23 315.19 223.83C322.04 225.36 326.96 231.64 326.88 238.76C326.8 245.65 321.87 251.75 315.17 253.24C308.17 254.8 301.09 251.45 298.16 244.96C297.44 243.36 296.64 242.91 294.98 242.93C287.28 243.02 279.58 242.99 271.88 242.95C270.77 242.95 270.11 243.16 269.59 244.32C265.15 254.15 254.22 256.76 245.74 250.08C245.52 249.9 245.28 249.75 244.95 249.53C240.87 251.79 236.78 254.03 232.74 256.37C232.28 256.64 231.91 257.49 231.9 258.08C231.86 265.17 228.63 270.1 222.18 273.02C221.59 273.29 220.99 274.21 220.95 274.86C220.8 277.23 221 279.61 220.85 281.98C220.75 283.68 221.25 284.44 222.98 285C231.16 287.68 236.42 295.38 236.18 303.99C235.95 312.38 230.12 319.77 221.95 322.04C211.91 324.82 201.39 319.14 198.25 309.24C195.11 299.36 200.24 288.73 210 285.22C211.84 284.56 212.43 283.72 212.29 281.85C212.11 279.49 212.34 277.1 212.19 274.73C212.15 274.07 211.57 273.13 210.98 272.85C204.84 269.92 201.75 265.12 201.61 258.32C201.6 257.64 201.04 256.7 200.46 256.36C196.36 253.98 192.19 251.73 187.99 249.41L188.03 249.4ZM228.34 248.88C232.2 246.74 236.1 244.62 239.94 242.36C240.39 242.09 240.65 241.09 240.6 240.46C240.2 235.15 241.84 230.64 245.93 227.21C247.5 225.9 249.41 225 251.38 223.78C251.38 217.58 251.41 211.11 251.33 204.64C251.33 204.12 250.77 203.36 250.27 203.12C242.93 199.49 239.98 194.21 240.85 186.25C240.92 185.65 240.5 184.68 240.01 184.4C235.81 181.93 231.54 179.59 227.35 177.24C219.24 183.06 214.5 183.05 205.78 177.27C201.75 179.54 197.66 181.78 193.65 184.16C193.14 184.47 192.72 185.54 192.81 186.17C193.91 193.6 190.3 200.15 183.32 202.95C182.21 203.4 181.77 203.87 181.79 205.09C181.86 210.7 181.84 216.31 181.79 221.92C181.79 223 182.07 223.51 183.16 223.95C190.25 226.81 193.84 233.16 192.81 240.63C192.73 241.2 192.96 242.17 193.37 242.4C197.27 244.68 201.24 246.84 205.14 249.01C212.08 241.99 221.46 242.03 228.34 248.89V248.88ZM121.71 232.07C118.21 232.11 115.31 235.07 115.32 238.57C115.33 242.06 118.27 245 121.76 245.02C125.33 245.04 128.33 241.98 128.26 238.41C128.19 234.92 125.2 232.03 121.71 232.07ZM255.58 245.1C259.17 245.13 262.09 242.3 262.13 238.75C262.17 235.26 259.22 232.24 255.73 232.18C252.26 232.13 249.23 235.1 249.19 238.6C249.15 242.15 252.02 245.07 255.59 245.1H255.58ZM223.26 258.8C223.24 255.31 220.3 252.38 216.81 252.37C213.31 252.37 210.36 255.27 210.33 258.77C210.29 262.35 213.31 265.36 216.89 265.31C220.38 265.26 223.29 262.29 223.27 258.8H223.26ZM184.39 189.05C184.49 185.57 181.64 182.53 178.15 182.4C174.66 182.27 171.61 185.09 171.45 188.58C171.29 192.15 174.21 195.27 177.79 195.34C181.27 195.41 184.29 192.54 184.39 189.05ZM311.8 195.42C315.37 195.42 318.27 192.52 318.26 188.97C318.25 185.48 315.25 182.48 311.77 182.49C308.3 182.49 305.31 185.51 305.31 189C305.31 192.55 308.22 195.42 311.79 195.42H311.8ZM223.02 166.37C222.99 162.83 220.04 159.91 216.53 159.94C212.99 159.97 210.11 162.91 210.14 166.46C210.17 170.01 213.09 172.91 216.62 172.89C220.14 172.86 223.05 169.91 223.02 166.37Z" fill="#216BDC"/>
</svg>
