<svg width="426" height="426" viewBox="0 0 426 426" fill="none" xmlns="http://www.w3.org/2000/svg">
<path d="M151.3 332.03C148.62 330.95 145.77 330.15 143.29 328.72C136.05 324.54 129.88 313.1 136.67 302.26C140.81 295.64 146.08 290.07 151.89 284.95C153.37 283.64 155.05 283.51 156.56 284.82C162.68 290.14 168.18 295.97 172.37 303C179.18 314.43 171.13 328.9 158.69 331.57C158.22 331.67 157.78 331.87 157.32 332.02H151.31L151.3 332.03ZM154.29 291.98C149.4 296.68 144.64 301.36 141.78 307.46C140.9 309.33 140.6 311.79 140.91 313.85C141.83 319.84 146.36 324.17 152.37 324.99C157.96 325.75 162.54 323.69 165.7 319.01C168.7 314.57 168.84 309.97 165.85 305.36C162.64 300.41 158.74 296.09 154.29 291.98Z" fill="#216BDC"/>
<path d="M225.54 251.77C223.94 253.5 222.4 255.27 220.74 256.93C216.54 261.11 211.6 261.24 207.2 257.36C199.74 250.79 190.47 251.06 183.39 258.1C178.16 263.29 173.01 268.56 167.74 273.7C164.08 277.27 158.95 278.05 154.44 275.98C149.95 273.91 147.19 269.35 147.49 264.39C147.68 261.26 148.98 258.62 151.2 256.41C156.17 251.46 161.12 246.5 166.07 241.54C173.55 234.05 173.88 225.07 166.97 217.1C163.38 212.95 163.51 207.96 167.38 204.03C169.08 202.3 170.88 200.66 172.73 198.89C172.14 198.23 171.74 197.75 171.31 197.31C166.28 192.07 166.26 185.04 171.39 179.88C183.85 167.36 196.37 154.89 208.86 142.39C217.46 133.79 226.06 125.2 234.66 116.6C240.36 110.9 247.56 110.86 253.23 116.52C271.55 134.82 289.86 153.13 308.16 171.45C313.74 177.04 313.75 184.05 308.16 189.64C287.28 210.54 266.39 231.43 245.5 252.31C239.3 258.51 232.99 258.57 226.54 252.55C226.34 252.36 226.1 252.21 225.53 251.77H225.54ZM186.93 174.51C207.92 195.51 229.03 216.63 250.02 237.63C264.3 223.34 278.69 208.95 292.95 194.68C271.95 173.7 250.83 152.59 229.84 131.6C215.59 145.85 201.19 160.25 186.94 174.51H186.93ZM181.19 179.46C179.9 180.86 178.58 182.36 177.17 183.79C173.52 187.5 173.49 189.77 177.13 193.41C189.07 205.35 201.01 217.28 212.95 229.21C219.22 235.48 225.48 241.77 231.77 248.02C234.21 250.45 236.91 250.79 239.22 248.76C241.25 246.98 243.04 244.92 244.82 243.1C223.72 222 202.64 200.91 181.19 179.46ZM234.95 125.83C256.3 147.18 277.41 168.29 298.81 189.69C299.96 188.43 301.21 186.96 302.56 185.59C306.4 181.7 306.44 179.49 302.63 175.67C287.42 160.45 272.2 145.24 256.98 130.02C253.9 126.94 250.84 123.82 247.71 120.78C245.38 118.52 242.64 118.51 240.26 120.7C238.42 122.39 236.66 124.16 234.94 125.82L234.95 125.83ZM177.45 203.42C175.87 205.07 174.46 206.57 173.02 208.04C170.69 210.41 170.68 211.11 173.05 213.48C185.74 226.18 198.44 238.87 211.14 251.57C211.49 251.92 211.82 252.51 212.22 252.57C213.24 252.71 214.64 253.05 215.28 252.54C217.33 250.92 219.11 248.96 221.02 247.1C220.57 246.6 220.35 246.33 220.1 246.08C205.99 231.96 191.89 217.85 177.45 203.41V203.42ZM195.51 245.47C189.99 239.88 184.65 234.48 179.31 229.08L178.76 229.36C178.59 237.44 174.42 243.35 168.8 248.6C164.46 252.65 160.38 256.97 156.18 261.17C154.72 262.63 153.95 264.32 154.53 266.41C155.63 270.36 160.27 271.4 163.41 268.32C168.46 263.36 173.46 258.33 178.44 253.3C181.41 250.3 184.81 247.97 188.89 246.81C190.91 246.24 193.02 245.97 195.52 245.48L195.51 245.47Z" fill="#216BDC"/>
<path d="M239.85 207.94C227.01 207.9 216.55 197.36 216.58 184.49C216.61 171.68 227.21 161.15 240.02 161.2C252.85 161.26 263.34 171.82 263.3 184.66C263.26 197.49 252.69 207.98 239.84 207.94H239.85ZM239.92 201.06C249.01 201.06 256.48 193.59 256.43 184.53C256.39 175.54 249 168.12 240.03 168.07C230.93 168.02 223.46 175.42 223.43 184.51C223.41 193.61 230.82 201.06 239.91 201.06H239.92Z" fill="#216BDC"/>
</svg>
