<svg width="426" height="426" viewBox="0 0 426 426" fill="none" xmlns="http://www.w3.org/2000/svg">
<path d="M162.03 281.51C169.65 292.94 165.54 304.54 158.46 310.32C150.74 316.63 139.51 316.56 131.76 310.08C124.1 303.67 122.1 292.57 127.05 283.8C132.5 274.14 142.51 271.12 154.97 275.48C164.15 264.32 173.37 253.11 182.57 241.92C170.66 229.44 166.39 209.65 176.48 191.5C176.17 191.23 175.86 190.93 175.52 190.68C168.03 185.07 160.54 179.46 152.91 173.75C146.61 178.98 139.44 181.09 131.39 179.74C125.04 178.67 119.86 175.53 115.8 170.54C107.86 160.76 108.28 146.71 116.79 137.15C124.98 127.95 138.97 126.04 149.56 132.69C159.72 139.07 165.24 152.86 158.66 166.42C166.45 172.25 174.27 178.11 182.17 184.02C193.13 173.16 206.12 168.99 221.42 171.72C222.02 169.91 222.61 168.14 223.2 166.37C225.42 159.7 227.63 153.02 229.89 146.36C230.27 145.23 230.33 144.51 229.21 143.6C222.36 138.09 220.17 129.52 223.46 121.69C226.68 114.04 234.55 109.39 242.7 110.31C251.07 111.26 257.56 117.48 259.11 126.01C261.09 136.96 252.38 147.3 240.9 147.61C240.4 147.62 239.91 147.61 239.27 147.61C236.28 156.59 233.31 165.52 230.25 174.69C241.62 180.34 249.26 189.22 253 201.52C257.27 200.86 261.41 200.22 265.56 199.56C269.07 199 272.57 198.39 276.09 197.88C277.32 197.7 277.9 197.33 278.12 195.92C279.61 186.29 288.45 179.28 297.76 180.2C308.03 181.21 315.34 189.3 315.09 199.35C314.84 209.08 306.9 217.15 297.04 217.36C289.89 217.51 284.27 214.4 280.52 208.25C279.79 207.05 279.13 206.75 277.79 206.97C270.14 208.26 262.47 209.45 255.19 210.62C254.27 215.71 253.88 220.76 252.36 225.43C250.84 230.12 248.2 234.45 246.04 238.94C253.91 246.82 262.16 255.08 270.55 263.48C276.87 259.4 283.95 258.12 291.51 260.15C297.65 261.79 302.49 265.34 306.03 270.61C313.07 281.08 311.31 295.17 301.92 303.73C292.7 312.14 278.41 312.56 268.72 304.69C258.61 296.48 256.05 281.94 263.31 270.81C254.98 262.47 246.69 254.18 238.37 245.84C222.97 256.74 206.71 257.52 189.72 247.86C180.54 259.01 171.32 270.21 162.03 281.5V281.51ZM212.62 180.14C194.81 180.04 180.15 194.77 180.09 212.81C180.04 230.43 194.64 245.13 212.37 245.3C230.27 245.47 245.07 230.9 245.22 212.95C245.37 194.95 230.75 180.24 212.62 180.14ZM268.47 284.75C268.45 293.66 275.74 301.05 284.58 301.09C293.58 301.13 300.97 293.83 301.03 284.84C301.09 275.99 293.76 268.57 284.9 268.53C275.86 268.48 268.49 275.76 268.48 284.74L268.47 284.75ZM152.17 154.59C152.21 145.66 145.03 138.39 136.07 138.27C127.12 138.15 119.72 145.53 119.72 154.56C119.72 163.55 126.9 170.82 135.82 170.85C144.88 170.89 152.13 163.67 152.17 154.59ZM133.69 294.14C133.71 300.63 138.88 305.74 145.36 305.67C151.82 305.61 156.93 300.39 156.87 293.94C156.81 287.64 151.59 282.49 145.27 282.49C138.83 282.49 133.67 287.67 133.7 294.14H133.69ZM240.47 138.23C245.69 138.25 249.76 134.26 249.8 129.08C249.84 123.87 245.85 119.81 240.65 119.75C235.46 119.69 231.34 123.73 231.32 128.9C231.3 134.12 235.3 138.21 240.47 138.23ZM287.12 198.66C287.11 203.89 291.11 207.96 296.27 207.99C301.49 208.01 305.56 204.02 305.59 198.84C305.62 193.63 301.64 189.57 296.44 189.51C291.25 189.45 287.13 193.5 287.12 198.66Z" fill="#216BDC"/>
</svg>
