<svg width="426" height="426" viewBox="0 0 426 426" fill="none" xmlns="http://www.w3.org/2000/svg">
<path d="M208.43 171.22V168.26C208.43 149.14 208.43 130.01 208.43 110.89C208.43 110.02 208.33 109.13 208.5 108.29C208.96 106.06 210.37 104.75 212.68 104.78C214.87 104.81 216.22 106.11 216.68 108.2C216.86 109.03 216.77 109.93 216.77 110.8C216.77 129.92 216.77 149.05 216.77 168.17V171.21C220.24 168.48 223.4 165.99 226.56 163.5C227.31 162.91 228.03 162.27 228.82 161.74C230.89 160.34 233.21 160.64 234.64 162.44C236.09 164.27 235.93 166.57 233.95 168.22C230.08 171.45 226.1 174.54 222.16 177.67C220.05 179.35 217.95 181.02 215.81 182.66C213.35 184.55 211.86 184.58 209.49 182.72C203.62 178.1 197.76 173.46 191.93 168.8C189.45 166.82 188.97 164.54 190.5 162.51C192.07 160.43 194.61 160.31 197.14 162.28C200.81 165.14 204.44 168.04 208.44 171.21L208.43 171.22Z" fill="#216BDC"/>
<path d="M216.78 252.22C216.78 272.71 216.78 292.61 216.78 312.51C216.78 313.38 216.87 314.27 216.71 315.11C216.28 317.35 214.88 318.69 212.58 318.68C210.28 318.66 208.89 317.31 208.49 315.06C208.34 314.22 208.43 313.33 208.43 312.46C208.43 292.56 208.43 272.67 208.43 252.28C205.19 254.82 202.24 257.14 199.29 259.46C198.4 260.16 197.54 260.89 196.62 261.55C194.43 263.11 192.07 262.9 190.59 261.06C189.08 259.19 189.33 256.82 191.42 255.1C194.77 252.34 198.21 249.68 201.61 246.99C204.2 244.94 206.77 242.88 209.38 240.85C211.83 238.94 213.33 238.87 215.69 240.72C221.57 245.33 227.43 249.97 233.25 254.64C235.84 256.71 236.27 259.1 234.57 261.13C232.96 263.05 230.55 263.12 228.1 261.21C224.43 258.35 220.8 255.43 216.77 252.24L216.78 252.22Z" fill="#216BDC"/>
<path d="M315.41 191.4C281.15 191.4 246.9 191.4 212.64 191.4C178.38 191.4 143.61 191.4 109.09 191.4C103.23 191.4 99.89 194.75 99.87 200.61C99.85 207.74 99.85 214.87 99.87 222C99.89 227.63 103.32 231.05 109 231.05C178.03 231.05 247.06 231.05 316.1 231.05C321.95 231.05 325.31 227.68 325.32 221.83C325.34 214.96 325.32 208.09 325.32 201.23C325.32 194.55 322.14 191.4 315.4 191.4H315.41ZM317.04 220.35C317.09 222.3 316.59 222.76 314.64 222.75C280.63 222.68 246.62 222.7 212.62 222.7C178.62 222.7 144.78 222.68 110.86 222.75C108.71 222.75 108.12 222.28 108.18 220.09C108.35 214.01 108.3 207.91 108.2 201.83C108.17 200.13 108.63 199.69 110.33 199.7C124.51 199.77 138.68 199.74 152.86 199.74C206.61 199.74 260.36 199.76 314.12 199.68C316.46 199.68 317.14 200.21 317.06 202.6C316.87 208.51 316.91 214.43 317.05 220.34L317.04 220.35Z" fill="#216BDC"/>
<path d="M133.25 205.98C133.12 203.52 131.39 201.86 129.12 201.85C126.85 201.85 125.04 203.5 124.97 205.95C124.87 209.41 124.88 212.88 124.97 216.34C125.03 218.93 126.87 220.67 129.23 220.61C131.49 220.55 133.16 218.85 133.27 216.38C133.35 214.65 133.29 212.92 133.28 211.18C133.28 209.45 133.35 207.71 133.26 205.98H133.25Z" fill="#216BDC"/>
<path d="M162.42 201.85C160.05 201.9 158.43 203.63 158.34 206.3C158.29 207.94 158.33 209.59 158.33 211.24C158.33 212.8 158.33 214.36 158.33 215.92C158.33 216.01 158.33 216.09 158.33 216.18C158.46 218.83 160.08 220.58 162.45 220.61C164.81 220.64 166.59 218.9 166.66 216.28C166.74 212.9 166.74 209.52 166.66 206.15C166.6 203.54 164.8 201.81 162.43 201.85H162.42Z" fill="#216BDC"/>
<path d="M200.05 205.95C199.91 203.5 198.16 201.84 195.89 201.85C193.61 201.85 191.84 203.52 191.77 205.98C191.67 209.44 191.68 212.91 191.77 216.37C191.83 218.85 193.54 220.54 195.8 220.61C198.16 220.68 199.95 218.94 200.07 216.35C200.15 214.62 200.08 212.89 200.08 211.15C200.08 209.42 200.16 207.68 200.06 205.95H200.05Z" fill="#216BDC"/>
<path d="M229.22 201.85C226.85 201.9 225.23 203.63 225.14 206.3C225.09 207.94 225.13 209.59 225.13 211.24C225.13 212.8 225.13 214.36 225.13 215.92C225.13 216.01 225.13 216.09 225.13 216.18C225.26 218.83 226.88 220.58 229.25 220.61C231.61 220.64 233.39 218.9 233.46 216.28C233.54 212.9 233.54 209.52 233.46 206.15C233.4 203.54 231.6 201.81 229.23 201.85H229.22Z" fill="#216BDC"/>
<path d="M266.84 205.83C266.68 203.42 264.83 201.77 262.57 201.85C260.4 201.92 258.65 203.53 258.58 205.84C258.47 209.39 258.47 212.94 258.58 216.49C258.65 218.94 260.45 220.61 262.72 220.61C264.99 220.61 266.73 218.94 266.86 216.48C266.95 214.75 266.88 213.02 266.88 211.28C266.88 209.46 266.97 207.64 266.85 205.83H266.84Z" fill="#216BDC"/>
<path d="M300.27 206.29C300.18 203.62 298.54 201.89 296.18 201.84C293.81 201.8 292.02 203.54 291.96 206.14C291.88 209.52 291.88 212.9 291.96 216.27C292.02 218.88 293.81 220.63 296.17 220.59C298.53 220.56 300.18 218.81 300.27 216.15C300.33 214.51 300.28 212.86 300.28 211.21C300.28 209.56 300.33 207.92 300.27 206.27V206.29Z" fill="#216BDC"/>
</svg>
