<svg width="426" height="426" viewBox="0 0 426 426" fill="none" xmlns="http://www.w3.org/2000/svg">
<path d="M123.22 325.18C119.92 323.75 116.3 322.78 113.38 320.78C107.75 316.94 104.97 311.2 104.84 304.36C104.72 297.51 104.74 290.65 104.83 283.79C104.95 274.44 112.33 267.08 121.73 266.94C128 266.84 134.27 266.92 140.79 266.92C140.85 265.83 140.94 264.86 140.94 263.88C140.94 215.38 140.97 166.87 140.92 118.37C140.92 112.53 142.65 107.64 147.46 104.09C150.45 101.89 153.84 101.06 157.53 101.06C179.12 101.09 200.71 101.07 222.3 101.07C238.35 101.07 254.39 101.07 270.44 101.07C280.6 101.07 286.94 107.41 286.94 117.59C286.94 178.49 286.85 239.4 287.01 300.3C287.05 314.22 277.06 323.64 266.9 324.87C266.7 324.89 266.52 325.07 266.33 325.17H123.22V325.18ZM141.68 318.58H144.63C183.79 318.58 222.96 318.58 262.12 318.58C273.2 318.58 280.36 311.47 280.36 300.43C280.36 239.46 280.36 178.49 280.36 117.52C280.36 111.12 276.91 107.68 270.49 107.68C232.93 107.68 195.37 107.68 157.81 107.68C151.25 107.68 147.6 111.25 147.6 117.77C147.6 178.67 147.6 239.56 147.66 300.46C147.66 306.99 146.73 313.11 141.68 318.58ZM140.96 273.55C134.04 273.55 127.48 273.38 120.94 273.6C115.83 273.77 111.53 278.39 111.44 283.58C111.32 290.64 111.25 297.72 111.47 304.77C111.73 313.3 119.98 319.82 128.36 318.39C136.07 317.08 140.91 311.33 140.97 303.22C141.03 294.99 140.97 286.76 140.97 278.53C140.97 276.94 140.97 275.35 140.97 273.54L140.96 273.55Z" fill="#216BDC"/>
<path d="M194.86 220.18C195.65 215 196.36 209.74 197.28 204.52C197.8 201.54 199.59 199.48 202.41 198.17C210.27 194.53 218.09 190.79 225.9 187.04C229.61 185.26 233.32 185.05 237.07 186.82C245.37 190.74 253.66 194.67 261.93 198.63C264.27 199.75 265.55 201.75 266.13 204.2C270.6 223.07 267.83 240.66 256.65 256.69C251.93 263.46 245.99 269.04 239.33 273.87C234.79 277.16 229.23 277.42 224.8 274.28C211.02 264.52 201.01 251.99 197.1 235.26C195.96 230.4 195.6 225.35 194.86 220.19V220.18ZM201.5 220.21C202.19 224.93 202.51 229.54 203.58 233.97C207.15 248.77 216.1 259.88 228.24 268.63C230.55 270.3 233.1 270.26 235.36 268.53C238.14 266.41 240.93 264.26 243.42 261.83C259.12 246.47 264.66 228.03 259.84 206.57C259.63 205.65 258.87 204.52 258.05 204.12C250.34 200.34 242.55 196.71 234.8 193.01C232.75 192.03 230.79 192 228.72 192.99C220.98 196.71 213.19 200.34 205.47 204.1C204.69 204.48 203.86 205.47 203.71 206.3C202.86 210.94 202.2 215.61 201.49 220.22L201.5 220.21Z" fill="#216BDC"/>
<path d="M212.94 156.72C196.32 156.72 179.69 156.72 163.07 156.72C162.34 156.72 161.61 156.76 160.88 156.68C159.02 156.48 157.93 155.37 157.85 153.54C157.77 151.69 158.86 150.55 160.66 150.19C161.29 150.06 161.97 150.12 162.62 150.12C196.23 150.12 229.85 150.12 263.46 150.12C264.12 150.12 264.8 150.05 265.42 150.2C267.19 150.63 268.23 151.75 268.1 153.64C267.98 155.4 266.94 156.42 265.21 156.66C264.49 156.76 263.75 156.71 263.03 156.71C246.33 156.71 229.64 156.71 212.94 156.71V156.72Z" fill="#216BDC"/>
<path d="M203.2 132.97C189.79 132.97 176.38 132.97 162.96 132.97C162.23 132.97 161.49 133.02 160.78 132.91C158.94 132.63 157.65 131.12 157.85 129.43C158.07 127.62 159.11 126.53 161 126.4C161.65 126.35 162.31 126.36 162.97 126.36C189.79 126.36 216.62 126.36 243.44 126.36C243.95 126.36 244.46 126.35 244.97 126.37C247.24 126.48 248.54 127.68 248.54 129.64C248.54 131.56 247.18 132.93 244.97 132.95C239.65 133.01 234.33 132.97 229.01 132.97C220.41 132.97 211.81 132.97 203.21 132.97H203.2Z" fill="#216BDC"/>
<path d="M225.54 299.41C213.08 299.41 200.62 299.41 188.16 299.41C187.5 299.41 186.84 299.45 186.19 299.38C184.34 299.17 183.26 298.1 183.19 296.24C183.12 294.36 184.21 293.27 185.99 292.89C186.62 292.76 187.3 292.83 187.95 292.83C213.09 292.83 238.22 292.83 263.36 292.83C264.02 292.83 264.69 292.75 265.32 292.89C267.09 293.28 268.19 294.35 268.1 296.25C268.02 298.12 266.94 299.17 265.09 299.38C264.44 299.45 263.78 299.41 263.12 299.41C250.59 299.41 238.06 299.41 225.52 299.41H225.54Z" fill="#216BDC"/>
<path d="M234.84 173.92C244.39 173.92 253.95 173.92 263.5 173.93C264.44 173.93 265.66 173.81 266.24 174.33C267.11 175.11 268.06 176.44 267.98 177.46C267.9 178.47 266.72 179.54 265.78 180.27C265.25 180.68 264.24 180.53 263.44 180.53C244.26 180.54 225.08 180.53 205.9 180.53C205.54 180.53 205.17 180.54 204.81 180.51C202.63 180.35 201.19 179.02 201.21 177.18C201.23 175.33 202.67 173.96 204.87 173.93C210.27 173.87 215.66 173.91 221.06 173.91C225.65 173.91 230.25 173.91 234.84 173.91V173.92Z" fill="#216BDC"/>
<path d="M181.59 269.13C188.07 269.13 194.55 269.13 201.04 269.13C203.77 269.13 205.23 270.33 205.18 272.48C205.14 274.53 203.7 275.71 201.11 275.71C188.07 275.72 175.04 275.71 162 275.71C159.33 275.71 157.77 274.42 157.82 272.34C157.86 270.33 159.37 269.14 161.93 269.14C168.48 269.13 175.04 269.14 181.59 269.14V269.13Z" fill="#216BDC"/>
<path d="M175.96 180.53C171.07 180.53 166.19 180.58 161.31 180.51C159.22 180.48 157.88 179.12 157.83 177.32C157.78 175.43 159.16 174.09 161.35 173.94C161.71 173.91 162.08 173.93 162.44 173.93C171.63 173.93 180.81 173.93 190 173.93C190.29 173.93 190.58 173.93 190.87 173.93C193.15 174.05 194.5 175.23 194.55 177.14C194.6 179.13 193.2 180.49 190.82 180.52C185.86 180.58 180.9 180.54 175.95 180.54L175.96 180.53Z" fill="#216BDC"/>
<path d="M176.18 245.33C180.92 245.33 185.65 245.31 190.39 245.33C193.01 245.35 194.48 246.5 194.55 248.5C194.62 250.58 193.07 251.95 190.41 251.96C180.94 251.99 171.46 251.99 161.99 251.96C159.33 251.96 157.77 250.6 157.83 248.52C157.89 246.53 159.37 245.35 161.97 245.33C166.71 245.3 171.44 245.33 176.18 245.33Z" fill="#216BDC"/>
<path d="M173.57 197.75C177.36 197.75 181.14 197.73 184.93 197.75C187.31 197.77 188.79 199 188.84 200.93C188.89 202.94 187.35 204.33 184.89 204.33C177.17 204.36 169.46 204.36 161.74 204.33C159.29 204.33 157.76 202.91 157.84 200.88C157.92 198.95 159.38 197.76 161.78 197.74C165.71 197.72 169.64 197.74 173.57 197.74V197.75Z" fill="#216BDC"/>
<path d="M173.46 228.08C169.53 228.08 165.6 228.1 161.67 228.08C159.32 228.06 157.84 226.78 157.83 224.84C157.82 222.88 159.28 221.52 161.62 221.51C169.41 221.48 177.2 221.48 184.99 221.51C187.34 221.51 188.82 222.85 188.84 224.79C188.86 226.73 187.38 228.06 185.04 228.08C181.18 228.11 177.32 228.08 173.47 228.08H173.46Z" fill="#216BDC"/>
<path d="M167.04 299.4C165.14 299.4 163.25 299.44 161.35 299.39C159.29 299.34 157.9 298.07 157.82 296.28C157.73 294.38 159.14 292.89 161.27 292.85C165.21 292.78 169.14 292.78 173.08 292.85C175.09 292.89 176.5 294.32 176.52 296.1C176.55 297.98 175.11 299.31 172.93 299.41C172.78 299.41 172.64 299.41 172.49 299.41C170.67 299.41 168.85 299.41 167.02 299.41L167.04 299.4Z" fill="#216BDC"/>
<path d="M261.63 126.39C262.79 126.39 263.96 126.31 265.11 126.41C266.96 126.57 268.03 127.65 268.11 129.51C268.2 131.4 267.13 132.68 265.35 132.84C262.91 133.06 260.41 133.06 257.97 132.82C256.19 132.64 255.17 131.31 255.29 129.44C255.41 127.58 256.5 126.53 258.36 126.4C259.44 126.33 260.54 126.39 261.62 126.39H261.63Z" fill="#216BDC"/>
<path d="M225.47 241.49C230.67 235.05 235.64 228.87 240.62 222.7C242.49 220.38 244.35 218.03 246.26 215.74C247.79 213.9 249.66 213.62 251.22 214.89C252.71 216.11 252.81 218.11 251.35 219.94C244.6 228.35 237.86 236.76 231.04 245.1C228.17 248.61 223.75 248.87 220.44 245.84C217.75 243.38 215.13 240.85 212.52 238.32C210.83 236.69 210.66 234.72 211.97 233.31C213.3 231.89 215.29 231.93 217 233.51C219.77 236.07 222.5 238.68 225.47 241.48V241.49Z" fill="#216BDC"/>
</svg>
