<svg width="426" height="426" viewBox="0 0 426 426" fill="none" xmlns="http://www.w3.org/2000/svg">
<path d="M318.7 204.01C317.45 207.01 316.66 210.33 314.86 212.96C310.07 220 303.08 223.09 294.68 221.89C286.01 220.65 280.27 215.52 277.44 207.2C277.24 206.61 277.07 206.01 276.87 205.35H251.31C250.22 209.05 249.43 212.82 247.98 216.33C246.55 219.79 244.45 222.97 242.53 226.5C242.7 226.69 243.09 227.17 243.53 227.61C250.86 234.95 258.22 242.26 265.51 249.65C266.45 250.61 267.22 250.67 268.43 250.29C275.32 248.12 282.37 251.92 284.37 258.78C286.34 265.53 282.45 272.53 275.65 274.45C268.9 276.36 261.76 272.45 260.15 265.57C259.6 263.23 260.25 260.62 260.28 258.14C260.28 257.41 260.32 256.41 259.89 255.98C252.21 248.2 244.46 240.48 236.72 232.76C236.58 232.62 236.37 232.55 236.09 232.38C230.03 237.13 223.16 240.06 215.36 240.93V266.95C221.53 268.46 226.37 271.89 229.5 277.52C232.05 282.11 232.69 287.03 231.62 292.17C229.54 302.11 220.32 309.16 209.97 308.72C199.85 308.29 191.21 300.28 190.08 290.08C188.9 279.5 195.51 269.65 206.83 266.92V241C199.03 240.02 192.06 237.19 185.61 232.09C184.38 233.45 183.26 234.8 182.04 236.03C175.61 242.49 169.18 248.94 162.7 255.35C161.72 256.32 161.33 257.1 161.81 258.59C163.65 264.2 161.31 270.14 156.31 273.14C151.31 276.14 144.95 275.34 140.84 271.2C136.73 267.07 135.98 260.68 139.02 255.72C142.07 250.75 147.97 248.52 153.62 250.29C154.7 250.63 155.46 250.76 156.39 249.81C163.93 242.18 171.53 234.62 179.11 227.03C179.3 226.84 179.47 226.61 179.77 226.24C175.01 220.12 172.02 213.21 171.16 205.39H145.22C141.5 219.09 129.8 223.36 121.29 221.91C110.62 220.1 103.23 211.33 103.34 200.78C103.46 190.4 111.15 181.64 121.67 180.19C131.33 178.85 142 184.39 145.19 196.79H171.12C172.08 189.08 174.87 182.15 179.77 175.99C179.39 175.54 179.07 175.1 178.69 174.71C173.39 169.4 168.05 164.13 162.81 158.77C161.78 157.72 161.09 157.72 159.79 158.37C151.97 162.31 144.26 161.94 137.22 156.7C130.25 151.51 127.47 144.24 129.18 135.75C130.92 127.09 136.38 121.42 145.05 119.41C153.62 117.42 160.97 120.04 166.37 126.94C171.84 133.92 172.36 141.71 168.42 149.63C167.63 151.22 167.81 151.99 168.99 153.14C174.59 158.63 180.09 164.22 185.76 169.92C191.99 165.07 198.91 162.09 206.73 161.22V135.21C199.82 133.48 194.68 129.55 191.77 123.06C186.27 110.81 193.5 96.7799 206.74 93.8499C207.2 93.7499 207.64 93.5599 208.09 93.4099C210.05 93.4099 212.02 93.4099 213.98 93.4099C214.36 93.5499 214.73 93.7399 215.12 93.8199C227.33 96.2199 234.92 108.8 231.17 120.69C228.72 128.47 223.23 133.16 215.33 135.23V161.21C223.12 162.08 230.05 165.03 236.1 169.76C236.4 169.61 236.55 169.58 236.65 169.48C240.08 166.07 243.46 162.62 246.95 159.26C247.89 158.35 248.05 157.61 247.64 156.36C245.85 150.88 247.91 145.11 252.63 141.97C257.3 138.86 263.58 139.25 267.86 142.92C272.06 146.52 273.43 152.6 271.16 157.65C268.8 162.9 263.31 166.15 257.61 164.8C254.47 164.06 252.79 165 250.92 167.1C248.59 169.7 246 172.08 243.52 174.56C243.09 174.99 242.71 175.47 242.28 175.96C247.21 182.13 249.99 189.07 250.95 196.77H276.9C277.11 196.09 277.27 195.49 277.47 194.9C280.31 186.59 286.06 181.46 294.72 180.24C303.21 179.04 310.22 182.21 315.02 189.35C316.76 191.94 317.52 195.18 318.73 198.13V204.02L318.7 204.01ZM211.04 169.42C193.5 169.4 179.38 183.51 179.36 201.04C179.35 218.57 193.45 232.7 210.99 232.71C228.52 232.73 242.65 218.62 242.67 201.09C242.68 183.55 228.58 169.44 211.04 169.42ZM149.84 152.54C156.84 152.49 162.58 146.68 162.48 139.74C162.38 132.71 156.58 127.04 149.63 127.15C142.71 127.26 137.08 132.97 137.08 139.84C137.08 146.81 142.89 152.58 149.84 152.53V152.54ZM223.66 287.64C223.66 280.58 218.03 274.98 210.96 275C203.98 275.02 198.4 280.58 198.36 287.53C198.32 294.58 203.95 300.29 210.96 300.31C217.98 300.33 223.66 294.66 223.66 287.63V287.64ZM223.66 114.55C223.68 107.5 218.04 101.82 211.02 101.81C204.09 101.81 198.41 107.41 198.36 114.32C198.3 121.42 203.84 127.08 210.89 127.13C217.97 127.18 223.63 121.6 223.66 114.55ZM137.06 201.22C137.13 194.22 131.63 188.52 124.73 188.42C117.63 188.32 111.85 193.82 111.74 200.8C111.63 207.84 117.22 213.63 124.21 213.71C131.31 213.79 136.99 208.26 137.06 201.22ZM297.61 188.42C290.55 188.42 284.94 194.03 284.96 201.1C284.98 208.08 290.53 213.67 297.48 213.71C304.54 213.75 310.25 208.14 310.28 201.13C310.31 194.11 304.65 188.43 297.62 188.42H297.61ZM276.46 262.37C276.51 260.1 274.71 258.2 272.42 258.09C270.04 257.98 268.07 259.82 268.03 262.2C267.99 264.49 269.76 266.39 272.05 266.5C274.39 266.62 276.41 264.72 276.46 262.37ZM263.79 152.42C263.74 150.14 261.88 148.3 259.6 148.29C257.24 148.28 255.3 150.24 255.36 152.59C255.41 154.86 257.3 156.72 259.56 156.73C261.9 156.74 263.84 154.77 263.79 152.42ZM149.88 258.08C147.52 258.03 145.54 259.95 145.55 262.29C145.55 264.55 147.42 266.45 149.68 266.51C152.02 266.57 153.98 264.65 153.98 262.28C153.98 259.98 152.17 258.13 149.88 258.08Z" fill="#216BDC"/>
</svg>
