<svg width="426" height="426" viewBox="0 0 426 426" fill="none" xmlns="http://www.w3.org/2000/svg">
<path d="M334.02 257.64C331.29 249.88 324.44 245.43 315.24 245.43C303.75 245.43 292.27 245.43 280.79 245.43H262.75V240.34C262.75 236.73 262.75 233.11 262.76 229.5C262.78 221.39 262.8 213.01 262.69 204.77C262.55 194.1 256.68 186.51 246.59 183.93C242.58 182.91 237.99 182.46 232.58 182.56C226.83 182.66 226.17 183.36 226.17 189.37C226.17 191.76 226.17 194.15 226.18 196.54C226.19 202.99 226.21 209.66 226.11 216.22C226.08 218.24 225.56 220.41 224.65 222.34C223.15 225.5 221.56 228.68 220.01 231.74C218.41 234.93 216.75 238.23 215.2 241.5C213.85 244.38 212.09 245.5 208.95 245.5H208.91C180.04 245.4 150.69 245.41 122.31 245.42H102.2C101.92 245.42 101.64 245.42 101.35 245.42C100.55 245.4 99.7901 245.38 99.1101 245.53C97.0501 245.99 96.0001 247.23 95.9901 249.23C95.9801 251.21 97.0201 252.47 99.0801 252.97C99.6801 253.12 100.37 253.1 101.1 253.08C101.35 253.08 101.6 253.05 101.84 253.07C114.54 253.07 127.24 253.07 139.94 253.07H153.56V351.56H102.28C102.02 351.53 101.71 351.56 101.42 351.55C100.71 351.53 100.05 351.51 99.4301 351.61C97.2301 351.95 96.1001 353.17 95.9701 355.32C95.8501 357.25 97.3501 358.9 99.4501 359.16C100.04 359.23 100.66 359.22 101.32 359.21C101.56 359.21 101.8 359.21 102.04 359.21H153.81V361.17C153.81 361.71 153.81 362.15 153.81 362.59C153.87 368.09 154.63 368.86 160.03 368.86H191.08C195.3 368.86 197.63 368.86 198.61 367.95C199.61 367.03 199.85 364.64 200.3 360.32L200.48 358.56L201.89 359.62C202.96 360.42 204 361.21 205.02 361.98C207.52 363.88 209.88 365.67 212.33 367.35C213.65 368.25 215.07 368.8 216.13 368.8C242.84 368.88 273.12 368.98 302.93 368.8C308.32 368.77 313.34 366.29 316.7 361.99C320.15 357.59 321.37 351.95 320.06 346.52C319.61 344.67 318.8 342.9 317.93 341.03C317.53 340.15 317.12 339.28 316.75 338.38L316.45 337.65L317.08 337.19C324.4 331.84 329.39 321.83 321.46 309.78L320.94 308.99L321.69 308.43C331.24 301.26 332.98 290.71 326.23 280.88L325.79 280.24L326.3 279.66C326.35 279.6 326.4 279.54 326.45 279.48C326.59 279.3 326.77 279.07 327.01 278.88C334.37 272.87 336.79 265.52 334.01 257.63L334.02 257.64ZM192.25 360.97H161.67V253.21H192.25V360.97ZM316.27 274.36C310.91 274.39 305.55 274.38 300.2 274.38C296.52 274.38 292.83 274.38 289.14 274.38C286.85 274.38 284.11 275.04 284.07 278.15C284.06 279.2 284.37 280.06 285 280.7C285.84 281.55 287.23 282.01 289.02 282.01C292.78 282.02 296.54 282.02 300.3 282.01C303.87 282.01 307.45 282.01 311.02 282.01C317.77 282.03 322.54 286.35 322.62 292.51C322.66 295.41 321.66 297.97 319.74 299.93C317.61 302.09 314.5 303.29 310.98 303.3C307.37 303.31 303.76 303.31 300.16 303.3C296.44 303.3 292.71 303.3 288.98 303.3C287.21 303.3 285.83 303.76 284.99 304.62C284.36 305.27 284.05 306.13 284.07 307.19C284.14 310.42 287.11 310.92 288.88 310.93C291.85 310.95 294.82 310.94 297.79 310.93C300.65 310.93 303.5 310.93 306.36 310.93C313.01 310.96 317.82 315.46 317.79 321.61C317.77 327.72 312.93 332.18 306.28 332.21C303.48 332.22 300.67 332.21 297.86 332.21C294.84 332.21 291.82 332.21 288.79 332.21C285.79 332.23 284.07 333.61 284.05 336C284.03 338.38 285.78 339.81 288.73 339.84C290.8 339.86 292.86 339.85 294.93 339.84C297.29 339.84 299.64 339.83 302 339.86C308.19 339.94 312.9 344.47 312.96 350.39C312.99 353.26 311.92 355.92 309.97 357.9C307.91 359.98 305.04 361.13 301.88 361.14C290.82 361.15 279.86 361.16 269.02 361.16C251.95 361.16 235.21 361.14 218.99 361.11C217.7 361.11 216.22 360.62 215.14 359.85C210.06 356.21 205.91 353.1 202.09 350.06C200.96 349.16 200.1 347.46 200.1 346.11C200.03 319.08 200.03 291.6 200.04 265.02V255.37C200.04 255.15 200.07 254.93 200.11 254.58C200.13 254.41 200.16 254.19 200.19 253.91L200.29 253.02H201.19C202.54 253.02 203.88 253.02 205.2 253C208.32 252.98 211.28 252.96 214.29 253.04C216.79 253.13 218.34 252.16 219.52 249.75C221.55 245.6 223.66 241.4 225.69 237.34C227.99 232.76 230.37 228.02 232.64 223.33C233.31 221.94 233.72 220.21 233.74 218.58C233.83 212.59 233.82 206.5 233.8 200.61C233.8 198.47 233.8 196.32 233.8 194.18V190.43L234.62 190.28C240.49 189.22 245.76 190.35 249.48 193.45C253.09 196.46 255.08 201.23 255.09 206.87C255.09 214.49 255.09 222.1 255.09 229.72C255.09 235.67 255.09 241.62 255.09 247.57C255.09 249.88 255.42 251.24 256.15 251.97C256.87 252.69 258.21 253.01 260.47 253.01H260.5C277.01 252.99 296.54 252.98 316.26 253.01C322.63 253.02 327.43 257.6 327.43 263.65C327.43 269.68 322.62 274.24 316.25 274.28L316.27 274.36Z" fill="#216BDC"/>
<path d="M224.3 111.97C225.42 113.02 226.57 114.11 227.62 115.28C228.57 116.34 229.16 118.17 229.01 119.62C228.86 121.14 228.58 122.66 228.3 124.12C227.94 126.03 227.61 127.84 227.53 129.67C227.46 131.27 228.18 133.28 229.07 133.99C229.8 134.57 231.89 134.61 233.29 134.06C235.08 133.36 236.83 132.4 238.53 131.48C239.86 130.75 241.23 130 242.64 129.36C243.89 128.79 245.7 128.79 246.95 129.36C248.37 130 249.74 130.75 251.07 131.47C252.77 132.39 254.52 133.35 256.31 134.04C257.71 134.58 259.81 134.55 260.53 133.97C261.43 133.25 262.16 131.23 262.08 129.66C261.98 127.69 261.62 125.76 261.23 123.71C260.96 122.28 260.68 120.81 260.5 119.33C260.35 118.04 260.87 116.41 261.75 115.46C263.08 114.02 264.5 112.65 265.87 111.32C267.06 110.18 268.28 108.99 269.43 107.79C270.66 106.49 271.13 105.01 270.72 103.72C270.31 102.42 269.06 101.47 267.3 101.12C263.41 100.34 260.24 99.86 257.3 99.62C255.02 99.43 253.69 98.46 252.71 96.25C251.36 93.2 250.01 90.24 248.32 87.51C247.82 86.7 246.92 86 245.89 85.2C245.53 84.92 245.15 84.62 244.75 84.3C244.35 84.63 243.97 84.93 243.61 85.21C242.58 86.02 241.69 86.72 241.19 87.53C240.24 89.11 239.42 90.83 238.63 92.5C237.94 93.95 237.23 95.44 236.42 96.87C235.74 98.08 234.27 99.16 232.92 99.44C229.97 100.06 226.94 100.47 224.02 100.87L222.45 101.08C221.23 101.25 219.16 101.82 219.04 103.71C218.94 105.12 219.54 106.95 220.45 108.06C221.59 109.46 222.91 110.69 224.29 111.99L224.3 111.97ZM233.17 107.36H233.24C238.99 107.36 242.24 104.97 243.78 99.63L244.7 96.45L245.7 99.6C247.44 105.1 250.72 107.45 256.39 107.23L259.74 107.09L257.01 109.04C252.3 112.41 251.02 116.42 253 121.67L254.21 124.88L251.46 122.83C246.77 119.32 242.69 119.31 238.23 122.8L235.59 124.87L236.66 121.69C238.51 116.21 237.26 112.36 232.6 109.19L229.9 107.35H233.17V107.36Z" fill="#216BDC"/>
<path d="M142.51 164.3C144.19 165.04 145.96 165.53 147.83 166.05C149.26 166.44 150.74 166.85 152.17 167.38C153.55 167.89 154.94 169.23 155.48 170.55C156.06 171.98 156.52 173.47 156.96 174.91C157.53 176.75 158.06 178.48 158.84 180.13C159.55 181.63 161.11 183.12 162.11 183.26C162.7 183.34 163.9 183.01 166.27 181.01C167.38 180.07 168.22 178.6 168.95 177.16C170.84 173.47 174.16 168.79 181.21 170.72C181.71 170.72 182.21 170.76 182.72 170.79C183.87 170.86 184.96 170.93 185.9 170.67C187.91 170.11 189.48 169.27 190.32 168.3C190.64 167.93 191.63 166.79 189.53 164.07C188.94 163.3 188.35 162.52 187.77 161.74C186.58 160.14 185.34 158.49 184.04 156.97C182.18 154.8 181.81 152.73 182.83 150.27C184.23 146.92 185.04 144.34 185.46 141.9C185.74 140.27 185.42 138.29 184.68 137.09C184.4 136.64 183.57 135.29 180.12 136.51C179.24 136.82 178.37 137.14 177.5 137.47C175.29 138.29 173.01 139.13 170.69 139.77C169.29 140.16 167.39 139.89 166.17 139.13C163.96 137.75 161.85 136.18 159.81 134.66C159.13 134.16 158.46 133.65 157.78 133.16C156.51 132.23 155.58 131.95 154.92 131.95C154.15 131.95 153.73 132.33 153.53 132.51C152.36 133.59 151.42 135.4 151.3 136.82C151.18 138.27 151.33 139.87 151.47 141.43C151.72 144.16 151.98 146.99 150.84 149.28C149.69 151.59 147.26 153.11 144.91 154.58C143.6 155.4 142.24 156.25 141.16 157.21C140.05 158.2 139.11 160.11 139.3 161.01C139.54 162.13 141.03 163.69 142.49 164.33L142.51 164.3ZM153.38 157.83C158.75 154.84 160.5 151.31 159.25 146.04L158.46 142.71L160.92 145.08C165.06 149.08 169.05 149.68 173.86 147.04L176.67 145.5L175.23 148.37C172.72 153.37 173.42 157.31 177.48 161.15L179.79 163.33L176.65 162.86C171.07 162.03 167.4 164.02 165.09 169.12L163.72 172.15L163.19 168.87C162.26 163.07 159.35 160.24 153.76 159.69L150.58 159.38L153.37 157.82L153.38 157.83Z" fill="#216BDC"/>
<path d="M344.12 153.96C342.03 152.79 335.7 149.26 338.38 142.28C338.38 141.59 338.42 140.94 338.45 140.32C338.52 138.98 338.58 137.83 338.31 136.84C337.73 134.67 336.9 133.14 336.04 132.65C335.32 132.23 333.44 132.5 331.77 133.26C330.07 134.03 328.31 135.28 326.7 136.88C323.25 140.3 319.54 140.87 315.36 138.62C313.32 137.52 311.29 136.82 309.49 136.59C307.45 136.33 305.55 136.59 304.87 137.25C304.14 137.95 303.76 140.05 304.05 141.75C304.54 144.58 305.57 147.35 306.78 150.42C307.73 152.84 307.43 154.74 305.82 156.6C304.49 158.13 303.25 159.8 302.04 161.41C301.41 162.25 300.78 163.1 300.13 163.93C298.79 165.66 298.53 166.97 299.23 168.45C299.98 170.03 301.25 170.71 303.45 170.71H303.52C304.3 170.71 305.09 170.69 305.87 170.68C306.89 170.67 307.92 170.65 308.95 170.65C310.47 170.65 312 170.68 313.52 170.79C314.98 170.9 316.7 171.8 317.6 172.93C318.56 174.13 319.41 175.42 320.23 176.66C321.24 178.2 322.2 179.65 323.34 180.95C324.44 182.21 326.22 183.21 327.57 183.35C329.53 183.54 330.47 181.44 330.85 180.17C331.83 176.97 332.84 173.65 334.13 170.41C334.64 169.14 335.95 167.88 337.24 167.41C338.65 166.9 340.11 166.49 341.52 166.1C343.41 165.57 345.2 165.08 346.9 164.34C348.47 163.66 350.01 162.16 350.2 161.15C350.36 160.29 349.59 158.72 348.15 156.94C347.17 155.73 345.62 154.81 344.12 153.97V153.96ZM335.86 159.63C330.12 160.34 327.21 163.16 326.42 168.8L325.98 171.95L324.54 169.11C321.82 163.74 318.24 161.86 312.96 162.99L309.69 163.69L312.04 161.31C316.16 157.13 316.82 153.14 314.19 148.35L312.64 145.53L315.51 146.97C320.81 149.63 324.8 149.06 328.47 145.14L330.79 142.65L330.18 146C329.18 151.5 331.03 155.11 336.19 157.73L339.11 159.22L335.86 159.62V159.63Z" fill="#216BDC"/>
<path d="M182 318.19C183.1 318.19 184.11 317.83 184.81 317.14C185.52 316.44 185.89 315.49 185.89 314.37C185.89 313.25 185.52 312.29 184.82 311.6C184.11 310.9 183.12 310.54 182.01 310.55C180.9 310.56 179.95 310.94 179.27 311.65C178.58 312.37 178.22 313.35 178.25 314.49C178.3 316.64 179.84 318.16 182 318.19Z" fill="#216BDC"/>
</svg>
