<svg width="426" height="426" viewBox="0 0 426 426" fill="none" xmlns="http://www.w3.org/2000/svg">
<path d="M98.1702 250C98.2402 250 98.3602 249.94 98.3702 249.88C99.5802 245.8 102.52 243.58 106.37 242.08C116.27 238.21 126.11 234.19 135.98 230.22C136.545 229.962 137.126 229.741 137.72 229.56C138.519 229.369 139.359 229.465 140.094 229.833C140.828 230.2 141.409 230.815 141.735 231.568C142.061 232.322 142.111 233.166 141.876 233.953C141.641 234.74 141.136 235.419 140.45 235.87C139.775 236.26 139.069 236.594 138.34 236.87L108.34 248.97C108.12 249.06 107.89 249.11 107.67 249.19C106.986 249.378 106.381 249.781 105.944 250.339C105.506 250.897 105.26 251.581 105.24 252.29C105.24 254.02 106.24 254.97 107.74 255.57L129.35 264.25C155.61 274.75 181.88 285.333 208.16 296C211.278 297.319 214.631 297.994 218.016 297.983C221.402 297.973 224.75 297.278 227.86 295.94C256.72 284.28 285.593 272.647 314.48 261.04L326.79 256L328.09 255.48C328.814 255.288 329.453 254.861 329.906 254.265C330.359 253.669 330.599 252.938 330.59 252.19C330.59 250.47 329.44 249.58 327.96 249C325.65 248.09 323.35 247.14 321.05 246.21L297.05 236.55C296.539 236.372 296.041 236.158 295.56 235.91C294.767 235.513 294.157 234.828 293.853 233.995C293.55 233.161 293.577 232.244 293.929 231.43C294.281 230.616 294.931 229.968 295.745 229.618C296.56 229.269 297.478 229.244 298.31 229.55C300.07 230.16 301.78 230.93 303.51 231.62L329.66 242.11C330.31 242.37 330.95 242.64 331.58 242.94C333.433 243.712 335.003 245.037 336.077 246.733C337.15 248.429 337.675 250.415 337.58 252.42C337.635 254.387 337.082 256.324 335.996 257.965C334.909 259.606 333.343 260.872 331.51 261.59C327.95 263.16 324.32 264.53 320.72 265.98C290.487 278.193 260.247 290.393 230 302.58C226.157 304.203 222.027 305.04 217.855 305.04C213.683 305.04 209.553 304.203 205.71 302.58C177.79 291.3 149.857 280.037 121.91 268.79C116.51 266.62 111.15 264.34 105.71 262.28C102.12 260.91 99.5602 258.72 98.5002 254.96C98.5002 254.84 98.2802 254.76 98.1602 254.66L98.1702 250Z" fill="#216BDC"/>
<path d="M98.1701 301.41C98.2401 301.36 98.3501 301.34 98.3701 301.28C99.5201 297.16 102.43 294.94 106.28 293.44C116.18 289.57 126.02 285.53 135.88 281.56C136.443 281.298 137.025 281.077 137.62 280.9C138.454 280.667 139.346 280.762 140.112 281.166C140.878 281.569 141.46 282.251 141.74 283.07C142.051 283.835 142.069 284.687 141.791 285.464C141.512 286.241 140.956 286.888 140.23 287.28C139.475 287.67 138.693 288.004 137.89 288.28L108.11 300.33C107.666 300.475 107.235 300.655 106.82 300.87C106.341 301.134 105.938 301.518 105.652 301.985C105.366 302.451 105.207 302.985 105.189 303.532C105.172 304.079 105.298 304.621 105.554 305.104C105.81 305.588 106.188 305.997 106.65 306.29C107.188 306.594 107.754 306.845 108.34 307.04L204.43 345.77C206.23 346.49 208.03 347.22 209.85 347.88C215.152 349.881 221.008 349.839 226.28 347.76C234.38 344.61 242.43 341.34 250.49 338.1L327 307.36C327.58 307.13 328.13 306.84 328.7 306.59C329.286 306.361 329.787 305.957 330.135 305.433C330.482 304.908 330.658 304.289 330.64 303.66C330.667 303.032 330.497 302.411 330.152 301.886C329.808 301.36 329.307 300.956 328.72 300.73C326.94 299.94 325.13 299.25 323.33 298.52L296.99 287.89C296.552 287.733 296.125 287.55 295.71 287.34C294.978 286.933 294.417 286.277 294.129 285.49C293.841 284.704 293.845 283.84 294.141 283.057C294.437 282.273 295.005 281.622 295.741 281.223C296.477 280.823 297.332 280.702 298.15 280.88C298.676 281.012 299.188 281.193 299.68 281.42L329.92 293.57C330.5 293.81 331.06 294.08 331.62 294.34C333.416 295.148 334.94 296.457 336.009 298.111C337.078 299.764 337.647 301.691 337.647 303.66C337.647 305.629 337.078 307.556 336.009 309.209C334.94 310.863 333.416 312.172 331.62 312.98C328.37 314.47 325.01 315.69 321.7 316.98C291.54 329.133 261.38 341.283 231.22 353.43C227.726 354.943 224.012 355.888 220.22 356.23C215.372 356.595 210.504 355.832 206 354C172.52 340.52 139.043 327.043 105.57 313.57C102.23 312.22 99.6701 310.17 98.5701 306.57C98.5701 306.38 98.2901 306.24 98.1401 306.08L98.1701 301.41Z" fill="#216BDC"/>
<path d="M257.36 130C257.345 134.781 256.388 139.513 254.545 143.925C252.701 148.336 250.006 152.342 246.615 155.712C243.223 159.082 239.201 161.752 234.777 163.567C230.354 165.383 225.617 166.31 220.835 166.295C216.054 166.28 211.322 165.323 206.91 163.479C202.499 161.636 198.493 158.941 195.123 155.549C191.753 152.158 189.084 148.135 187.268 143.712C185.452 139.289 184.525 134.551 184.54 129.77C184.63 111.49 198.43 93.6799 221.06 93.7699C244.05 93.9299 257.37 112.09 257.36 130ZM250.08 129.86C250.06 124.098 248.333 118.472 245.117 113.692C241.9 108.912 237.338 105.192 232.009 103.004C226.679 100.815 220.82 100.256 215.172 101.397C209.525 102.537 204.342 105.326 200.279 109.411C196.216 113.497 193.455 118.695 192.346 124.348C191.236 130.002 191.828 135.858 194.045 141.176C196.263 146.494 200.007 151.035 204.805 154.225C209.603 157.415 215.239 159.112 221 159.1C228.727 159.079 236.129 155.992 241.582 150.517C247.034 145.042 250.091 137.627 250.08 129.9V129.86Z" fill="#216BDC" stroke="#216BDC" stroke-width="0.51" stroke-miterlimit="10"/>
<path d="M189.34 94.5199C188.564 95.637 187.642 96.6458 186.6 97.5199C185.16 98.4399 183.67 97.8499 182.5 96.6799C179.4 93.5999 176.33 90.4999 173.25 87.4199C171.19 85.3599 169.11 83.3299 167.08 81.2499C165.34 79.4499 165.27 77.2499 166.84 75.7699C168.41 74.2899 170.49 74.4599 172.19 76.1499C177.363 81.2566 182.5 86.3999 187.6 91.5799C188.286 92.4931 188.869 93.479 189.34 94.5199Z" fill="#216BDC" stroke="#216BDC" stroke-width="0.51" stroke-miterlimit="10"/>
<path d="M276.16 78.85C275.816 79.6927 275.351 80.4809 274.78 81.19C269.68 86.39 264.537 91.5466 259.35 96.66C259.031 97.0309 258.638 97.3308 258.196 97.5404C257.754 97.75 257.273 97.8646 256.784 97.8769C256.295 97.8891 255.809 97.7987 255.357 97.6115C254.905 97.4243 254.497 97.1444 254.16 96.79C252.61 95.27 252.64 93.15 254.32 91.46C259.46 86.29 264.62 81.16 269.77 76.01C270.258 75.4166 270.926 74.9981 271.673 74.8177C272.42 74.6373 273.205 74.7048 273.91 75.01C275.34 75.63 276 76.79 276.16 78.85Z" fill="#216BDC" stroke="#216BDC" stroke-width="0.51" stroke-miterlimit="10"/>
<path d="M256.54 161.83C257.645 162.305 258.692 162.906 259.66 163.62C264.853 168.707 270 173.837 275.1 179.01C275.462 179.336 275.755 179.732 275.961 180.174C276.166 180.616 276.28 181.095 276.296 181.583C276.312 182.07 276.229 182.555 276.053 183.01C275.877 183.464 275.61 183.878 275.27 184.227C274.93 184.577 274.523 184.853 274.073 185.041C273.623 185.229 273.14 185.324 272.652 185.32C272.165 185.317 271.683 185.215 271.236 185.021C270.789 184.827 270.385 184.544 270.05 184.19C264.85 179.03 259.69 173.83 254.51 168.65C253.25 167.4 252.77 165.85 253.67 164.37C254.28 163.36 255.5 162.72 256.54 161.83Z" fill="#216BDC" stroke="#216BDC" stroke-width="0.51" stroke-miterlimit="10"/>
<path d="M188.63 166.39C188.328 167.189 187.907 167.938 187.38 168.61C182.24 173.837 177.06 179.03 171.84 184.19C171.514 184.579 171.11 184.895 170.654 185.118C170.198 185.341 169.7 185.465 169.192 185.483C168.685 185.501 168.18 185.412 167.709 185.222C167.238 185.032 166.813 184.745 166.46 184.38C166.108 184.014 165.836 183.579 165.663 183.102C165.489 182.625 165.418 182.117 165.454 181.61C165.49 181.104 165.632 180.611 165.87 180.163C166.109 179.715 166.44 179.322 166.84 179.01C171.97 173.84 177.13 168.72 182.26 163.57C182.751 162.981 183.419 162.565 184.165 162.385C184.91 162.205 185.694 162.27 186.4 162.57C187.79 163.2 188.47 164.35 188.63 166.39Z" fill="#216BDC" stroke="#216BDC" stroke-width="0.51" stroke-miterlimit="10"/>
<path d="M158.83 126.32H169.2C172.04 126.32 173.64 127.68 173.62 130C173.6 132.32 172 133.6 169.3 133.6C162.213 133.6 155.117 133.6 148.01 133.6C145.54 133.6 143.95 132.13 144.01 129.92C144.07 127.71 145.62 126.33 148.13 126.32H158.83Z" fill="#216BDC" stroke="#216BDC" stroke-width="0.51" stroke-miterlimit="10"/>
<path d="M282.49 126.32C286.07 126.32 289.65 126.32 293.23 126.32C295.89 126.32 297.48 127.75 297.44 130.02C297.4 132.29 295.83 133.58 293.28 133.59C286.12 133.59 278.96 133.59 271.8 133.59C269.35 133.59 267.75 132.09 267.8 129.89C267.85 127.69 269.39 126.33 271.8 126.32C275.33 126.31 278.91 126.32 282.49 126.32Z" fill="#216BDC" stroke="#216BDC" stroke-width="0.51" stroke-miterlimit="10"/>
<path d="M217.31 67.8599C217.31 64.3999 217.31 60.9399 217.31 57.4799C217.31 54.9899 218.79 53.3999 220.98 53.3999C223.17 53.3999 224.58 54.9699 224.58 57.5199C224.58 64.4999 224.58 71.4799 224.58 78.4599C224.58 81.0099 223.2 82.5899 221.02 82.6299C218.84 82.6699 217.32 81.0699 217.31 78.4199C217.29 74.8999 217.31 71.3799 217.31 67.8599Z" fill="#216BDC" stroke="#216BDC" stroke-width="0.51" stroke-miterlimit="10"/>
<path d="M224.59 192.07C224.59 195.47 224.59 198.87 224.59 202.27C224.59 204.92 223.16 206.51 220.89 206.48C218.62 206.45 217.33 204.86 217.32 202.31C217.32 195.33 217.32 188.35 217.32 181.37C217.32 178.87 218.77 177.27 220.95 177.24C223.13 177.21 224.57 178.79 224.59 181.33C224.61 184.91 224.59 188.49 224.59 192.07Z" fill="#216BDC" stroke="#216BDC" stroke-width="0.51" stroke-miterlimit="10"/>
<path d="M188.8 256.48V196.43C188.743 195.566 188.767 194.699 188.87 193.84C189 192.846 189.488 191.933 190.241 191.272C190.995 190.611 191.963 190.247 192.965 190.247C193.968 190.247 194.936 190.611 195.689 191.272C196.443 191.933 196.93 192.846 197.06 193.84C197.155 194.7 197.175 195.567 197.12 196.43V256.43C200.34 253.89 203.28 251.59 206.22 249.28C207.11 248.58 207.97 247.85 208.88 247.2C211.06 245.65 213.41 245.85 214.88 247.68C216.35 249.51 216.14 251.9 214.05 253.62C210.71 256.38 207.29 259.02 203.9 261.7C201.32 263.75 198.75 265.8 196.16 267.82C193.72 269.73 192.23 269.82 189.88 267.95C184.02 263.363 178.187 258.743 172.38 254.09C169.81 252.03 169.38 249.65 171.07 247.63C172.76 245.61 175.07 245.63 177.51 247.55C181.18 250.4 184.79 253.3 188.8 256.48Z" fill="#216BDC"/>
<path d="M243.19 256.48C243.19 236.08 243.19 216.26 243.19 196.43C243.13 195.567 243.15 194.7 243.25 193.84C243.38 192.846 243.867 191.933 244.621 191.272C245.374 190.611 246.343 190.247 247.345 190.247C248.347 190.247 249.316 190.611 250.069 191.272C250.823 191.933 251.31 192.846 251.44 193.84C251.535 194.7 251.555 195.567 251.5 196.43V256.43C254.72 253.89 257.66 251.59 260.6 249.28C261.49 248.58 262.35 247.85 263.26 247.2C265.44 245.65 267.79 245.85 269.26 247.68C270.73 249.51 270.52 251.9 268.43 253.62C265.1 256.38 261.67 259.02 258.28 261.7C255.7 263.75 253.14 265.8 250.55 267.82C247.96 269.84 246.62 269.82 244.26 267.95C238.4 263.363 232.57 258.743 226.77 254.09C224.19 252.03 223.77 249.65 225.45 247.63C227.13 245.61 229.45 245.63 231.89 247.55C235.57 250.4 239.19 253.3 243.19 256.48Z" fill="#216BDC"/>
</svg>
