<svg width="426" height="426" viewBox="0 0 426 426" fill="none" xmlns="http://www.w3.org/2000/svg">
<path d="M104.45 220.76V206.52C105.16 201.52 105.68 196.52 106.63 191.61C120.85 117.79 203.13 77.75 270.02 112.05C292.617 123.538 310.739 142.229 321.524 165.17C332.309 188.11 335.14 213.991 329.57 238.72C319.79 283.16 282.87 318.3 238.01 325.82C233.86 326.52 229.67 326.98 225.5 327.55H211.26C210.76 327.43 210.26 327.27 209.77 327.19C204.57 326.43 199.32 325.93 194.18 324.9C150.01 316.06 113.42 278.09 106.23 233.71C105.53 229.41 105 225.08 104.45 220.76ZM277.32 213.57C277.31 201.912 273.844 190.519 267.36 180.831C260.875 171.143 251.664 163.595 240.89 159.141C230.116 154.687 218.264 153.528 206.832 155.81C195.399 158.092 184.9 163.712 176.662 171.961C168.423 180.209 162.815 190.715 160.547 202.15C158.279 213.585 159.452 225.436 163.918 236.205C168.384 246.973 175.943 256.175 185.639 262.648C195.335 269.121 206.732 272.574 218.39 272.57C234.026 272.551 249.015 266.327 260.064 255.265C271.114 244.202 277.32 229.206 277.32 213.57ZM111.18 210.17H152.83C153.349 200.964 155.759 191.963 159.91 183.73L123.9 163C116.076 177.531 111.722 193.676 111.18 210.17ZM325.58 210.17C325.04 193.674 320.683 177.528 312.85 163L277.15 183.61C278.74 188.11 280.51 192.27 281.67 196.61C282.83 200.95 283.43 205.61 284.31 210.23L325.58 210.17ZM273.46 249.26C268.381 256.997 261.776 263.615 254.05 268.71L274.86 304.71C288.904 295.952 300.754 284.091 309.5 270.04L273.46 249.26ZM274.85 122.49C267.85 134.65 260.96 146.49 254.04 158.54C261.781 163.638 268.402 170.259 273.5 178L309.5 157.2C300.744 143.151 288.892 131.288 274.85 122.52V122.49ZM127.25 157.15L163.31 178C168.377 170.26 174.98 163.643 182.71 158.56L161.9 122.56C147.858 131.302 136.004 143.145 127.25 157.18V157.15ZM127.25 270.08C136.001 284.127 147.863 295.976 161.92 304.71L182.72 268.66C174.978 263.601 168.358 257.004 163.27 249.28L127.25 270.08ZM269.07 119.17C254.543 111.35 238.4 107.006 221.91 106.48V148.12C231.087 148.62 240.063 151.003 248.28 155.12L269.07 119.17ZM111.17 217.17C111.725 233.665 116.085 249.809 123.91 264.34L159.91 243.55C155.765 235.334 153.345 226.356 152.8 217.17H111.17ZM248.3 272.17C247.42 272.56 246.76 272.86 246.1 273.17C239.183 276.436 231.727 278.411 224.1 279C222.1 279.14 221.64 279.69 221.65 281.6C221.74 293.9 221.65 306.2 221.7 318.5C221.7 319.22 221.78 319.93 221.84 320.85C238.346 320.323 254.504 315.969 269.04 308.13L248.3 272.17ZM312.86 264.36C320.662 249.843 325.005 233.721 325.55 217.25H283.91C283.371 226.414 280.972 235.373 276.86 243.58L312.86 264.36ZM167.68 119.17C174.68 131.31 181.56 143.17 188.49 155.17C196.701 151.018 205.676 148.595 214.86 148.05V106.47C198.365 107.012 182.218 111.358 167.68 119.17ZM188.44 272.17L167.69 308.1C182.166 315.903 198.254 320.247 214.69 320.79C214.823 320.539 214.928 320.274 215 320C215 306.88 215.02 293.763 215.06 280.65C215.06 279.29 214.36 279.13 213.26 279.06C206.974 278.608 200.789 277.223 194.91 274.95C192.77 274.11 190.71 273.13 188.44 272.16V272.17Z" fill="#216BDC"/>
<path d="M235.52 210.15C233.08 206.82 230.52 203.6 228.05 200.3C225.85 197.36 223.71 194.4 222.79 190.74C222.617 189.981 222.178 189.31 221.552 188.847C220.927 188.385 220.156 188.162 219.38 188.22C218.635 188.158 217.891 188.36 217.28 188.792C216.669 189.224 216.23 189.857 216.04 190.58C214.93 194.67 212.46 197.96 209.95 201.23C207.449 204.277 205.112 207.454 202.95 210.75C201.309 213.116 200.331 215.878 200.12 218.75C200.067 221.308 200.524 223.851 201.465 226.23C202.406 228.61 203.812 230.777 205.601 232.607C207.389 234.436 209.525 235.891 211.882 236.886C214.239 237.88 216.771 238.395 219.33 238.4C220.865 238.374 222.395 238.207 223.9 237.9C235.36 235.4 243.45 221 235.52 210.15ZM229.87 226.07C228.545 228.189 226.596 229.844 224.291 230.807C221.986 231.771 219.438 231.996 217 231.45C214.652 231.017 212.481 229.907 210.756 228.257C209.031 226.606 207.826 224.487 207.29 222.16C206.951 220.934 206.879 219.65 207.079 218.394C207.279 217.138 207.746 215.94 208.45 214.88C210.52 211.43 213.17 208.42 215.55 205.21C216.83 203.49 218.1 201.77 219.55 199.85C222.55 204.63 226.29 208.63 229.41 213.12C232.53 217.61 233.16 220.62 229.87 226.07Z" fill="#216BDC"/>
</svg>
