<svg width="426" height="426" viewBox="0 0 426 426" fill="none" xmlns="http://www.w3.org/2000/svg">
<path d="M303 229.37C305.69 226.72 305.67 224.53 303 221.84L301.75 220.61C279.35 198.557 256.93 176.517 234.49 154.49C233.619 153.705 232.931 152.739 232.475 151.659C232.019 150.579 231.805 149.412 231.85 148.24C231.55 119.49 207.31 98.3201 178.78 101.78C155.52 104.6 138.08 124.42 137.94 148.28C137.87 160.93 137.94 173.58 137.94 186.23C137.971 186.839 137.864 187.447 137.629 188.009C137.394 188.572 137.035 189.074 136.58 189.48C132.51 193.37 128.5 197.32 124.51 201.29C110.51 215.21 110.51 236.16 124.62 250L152.75 277.7L178.69 303.26C181.89 306.523 185.711 309.112 189.927 310.874C194.144 312.636 198.67 313.536 203.24 313.52C213.6 313.12 221.55 309.52 228.24 302.91C245.04 286.31 261.874 269.747 278.74 253.22C286.827 245.273 294.914 237.323 303 229.37ZM235.78 201.73C235.771 202.789 235.552 203.836 235.135 204.81C234.718 205.783 234.112 206.665 233.352 207.402C232.592 208.14 231.693 208.72 230.708 209.107C229.722 209.495 228.669 209.683 227.61 209.66C225.479 209.65 223.435 208.809 221.914 207.314C220.394 205.82 219.517 203.791 219.47 201.66C219.52 199.524 220.414 197.495 221.956 196.016C223.499 194.537 225.564 193.73 227.7 193.77C228.752 193.762 229.796 193.962 230.771 194.358C231.746 194.754 232.633 195.338 233.382 196.078C234.13 196.817 234.726 197.697 235.134 198.667C235.542 199.637 235.755 200.678 235.76 201.73H235.78ZM146.94 145C148.12 127.73 160.86 114 177.94 110.85C187.591 109.007 197.581 110.955 205.832 116.289C214.083 121.624 219.96 129.933 222.24 139.49C222.46 140.41 222.61 141.35 222.91 142.9L207.77 128.04C204.24 124.57 202.48 124.56 198.97 128.04L148.47 177.74C148.02 178.18 147.54 178.58 147.06 179.01C146.89 178.79 146.74 178.68 146.74 178.57C146.78 167.38 146.17 156.17 146.94 145ZM216.05 301.44C205.71 307.14 193.42 305.35 184.65 296.73L145.72 258.43C140.31 253.09 134.79 247.85 129.52 242.37C125.744 238.387 123.423 233.247 122.931 227.781C122.439 222.315 123.806 216.843 126.81 212.25C127 211.96 127.23 211.68 127.81 210.89C130.46 213.7 132.92 216.49 135.57 219.1C162.484 245.64 189.424 272.15 216.39 298.63C217.75 300 217.8 300.48 216.05 301.45V301.44ZM225.85 293.03C224.68 294.18 224.15 294.13 223.02 293.03C193.78 264.17 164.504 235.343 135.19 206.55C133.8 205.18 133.72 204.49 135.19 203.07C157.444 181.283 179.64 159.44 201.78 137.54C203.06 136.27 203.66 136.22 204.94 137.54C210.53 143.22 216.24 148.78 221.94 154.33C222.371 154.711 222.711 155.183 222.934 155.713C223.157 156.243 223.259 156.816 223.23 157.39C223.177 166.157 223.177 174.93 223.23 183.71C223.321 184.228 223.212 184.761 222.924 185.202C222.636 185.642 222.191 185.956 221.68 186.08C217.961 187.403 214.838 190.014 212.879 193.441C210.92 196.868 210.253 200.884 211 204.76C211.796 208.516 213.84 211.892 216.799 214.338C219.759 216.784 223.459 218.157 227.297 218.232C231.136 218.307 234.887 217.081 237.94 214.753C240.992 212.425 243.167 209.132 244.11 205.41C245.037 201.496 244.5 197.378 242.601 193.832C240.702 190.287 237.572 187.558 233.8 186.16C233.182 186.037 232.637 185.675 232.283 185.153C231.93 184.631 231.796 183.99 231.91 183.37C231.99 177.3 231.91 171.24 231.96 165.17C231.96 165.05 232.08 164.93 232.14 164.81L233.14 164.01C240.76 172.01 248.25 180.1 256.05 187.91C268.23 200.13 280.6 212.16 292.94 224.22C294.13 225.37 294.1 225.91 292.94 227.06C270.527 249.02 248.164 271 225.85 293V293.03Z" fill="#216BDC"/>
<path d="M321.38 272.42C318.23 268.11 314.91 263.94 311.71 259.67C308.87 255.87 306.1 252.05 304.91 247.3C304.692 246.313 304.127 245.437 303.318 244.831C302.508 244.226 301.508 243.931 300.5 244C299.534 243.923 298.572 244.187 297.781 244.746C296.99 245.305 296.42 246.124 296.17 247.06C294.74 252.35 291.55 256.6 288.3 260.84C285.19 264.89 281.85 268.78 279.18 273.16C277.24 276.36 275.62 279.69 275.52 283.56C275.452 286.871 276.045 290.163 277.264 293.243C278.482 296.323 280.303 299.129 282.618 301.497C284.933 303.866 287.697 305.749 290.749 307.037C293.8 308.325 297.078 308.993 300.39 309C302.372 308.97 304.347 308.756 306.29 308.36C321.18 305.1 331.64 286.45 321.38 272.42ZM314.07 293C312.357 295.758 309.827 297.914 306.833 299.168C303.838 300.422 300.527 300.713 297.36 300C290.81 298.58 286.61 294.47 284.79 288C284.351 286.414 284.258 284.752 284.517 283.127C284.776 281.502 285.38 279.951 286.29 278.58C288.97 274.12 292.39 270.22 295.48 266.07L300.6 259.13C304.47 265.31 309.32 270.5 313.36 276.3C317.4 282.1 318.33 286 314.07 293Z" fill="#216BDC"/>
</svg>
