<svg width="426" height="426" viewBox="0 0 426 426" fill="none" xmlns="http://www.w3.org/2000/svg">
<path d="M341.85 317.45H106.67C105.458 317.45 104.296 316.969 103.439 316.112C102.582 315.255 102.1 314.092 102.1 312.88C102.1 311.668 102.582 310.506 103.439 309.649C104.296 308.792 105.458 308.31 106.67 308.31H341.85C343.062 308.31 344.225 308.792 345.082 309.649C345.939 310.506 346.42 311.668 346.42 312.88C346.42 314.092 345.939 315.255 345.082 316.112C344.225 316.969 343.062 317.45 341.85 317.45Z" fill="#216BDC"/>
<path d="M253.74 310.65C253.008 310.651 252.286 310.476 251.635 310.14C250.985 309.804 250.424 309.317 250 308.72L181.16 211.18C180.46 210.189 180.182 208.961 180.387 207.766C180.593 206.57 181.265 205.505 182.255 204.805C183.246 204.105 184.474 203.827 185.669 204.032C186.865 204.237 187.93 204.909 188.63 205.9L253.63 297.97L312.89 207.89C313.199 207.348 313.616 206.874 314.115 206.499C314.613 206.124 315.184 205.856 315.791 205.709C316.397 205.563 317.027 205.543 317.642 205.65C318.257 205.756 318.844 205.988 319.366 206.33C319.888 206.672 320.334 207.117 320.677 207.638C321.021 208.16 321.253 208.746 321.362 209.36C321.47 209.975 321.451 210.605 321.306 211.212C321.162 211.819 320.894 212.39 320.52 212.89L257.56 308.6C257.144 309.212 256.585 309.714 255.932 310.062C255.279 310.411 254.55 310.595 253.81 310.6L253.74 310.65Z" fill="#216BDC"/>
<path d="M320 236.27C318.812 236.271 317.67 235.808 316.817 234.981C315.964 234.154 315.466 233.028 315.43 231.84L314.91 213.84L294.84 216C294.243 216.066 293.639 216.013 293.063 215.845C292.486 215.678 291.948 215.398 291.48 215.022C291.011 214.647 290.621 214.183 290.332 213.656C290.043 213.13 289.861 212.552 289.795 211.955C289.729 211.358 289.782 210.754 289.95 210.178C290.117 209.601 290.397 209.063 290.773 208.595C291.148 208.126 291.612 207.736 292.139 207.447C292.665 207.158 293.243 206.976 293.84 206.91L318.84 204.22C319.467 204.151 320.102 204.212 320.704 204.401C321.306 204.589 321.862 204.9 322.338 205.315C322.813 205.729 323.198 206.238 323.467 206.809C323.735 207.379 323.883 207.999 323.9 208.63L324.57 231.56C324.589 232.16 324.489 232.757 324.276 233.318C324.063 233.879 323.742 234.393 323.33 234.83C322.919 235.266 322.425 235.617 321.878 235.863C321.33 236.108 320.74 236.243 320.14 236.26L320 236.27Z" fill="#216BDC"/>
<path d="M204.57 310.65C203.845 310.652 203.13 310.48 202.484 310.15C201.839 309.819 201.282 309.339 200.86 308.75L131.78 212.75C131.429 212.263 131.178 211.711 131.04 211.127C130.903 210.543 130.882 209.937 130.978 209.345C131.075 208.752 131.287 208.184 131.603 207.674C131.919 207.164 132.333 206.721 132.82 206.37C133.307 206.019 133.859 205.768 134.443 205.631C135.027 205.493 135.633 205.472 136.225 205.569C136.818 205.665 137.385 205.877 137.896 206.193C138.406 206.509 138.849 206.923 139.2 207.41L204.4 298L263.7 207.87C264.009 207.328 264.426 206.854 264.924 206.479C265.423 206.104 265.993 205.836 266.6 205.689C267.207 205.543 267.837 205.523 268.452 205.63C269.067 205.736 269.653 205.968 270.175 206.31C270.697 206.652 271.144 207.097 271.487 207.619C271.83 208.14 272.063 208.726 272.171 209.34C272.28 209.955 272.261 210.585 272.116 211.192C271.971 211.799 271.704 212.37 271.33 212.87L208.39 308.6C207.974 309.208 207.418 309.707 206.769 310.055C206.12 310.404 205.396 310.59 204.66 310.6L204.57 310.65Z" fill="#216BDC"/>
<path d="M273.7 234.43C272.511 234.428 271.369 233.964 270.517 233.135C269.664 232.306 269.167 231.179 269.13 229.99L268.61 211.99L248.56 214.16C247.355 214.293 246.146 213.941 245.2 213.182C244.254 212.424 243.648 211.32 243.515 210.115C243.383 208.91 243.734 207.701 244.493 206.755C245.251 205.809 246.355 205.203 247.56 205.07L272.56 202.37C273.186 202.302 273.82 202.364 274.421 202.554C275.021 202.743 275.576 203.055 276.05 203.47C276.525 203.885 276.909 204.393 277.179 204.962C277.449 205.531 277.599 206.15 277.62 206.78L278.29 229.71C278.309 230.31 278.209 230.908 277.997 231.47C277.784 232.031 277.463 232.546 277.051 232.983C276.64 233.421 276.146 233.773 275.599 234.019C275.051 234.266 274.46 234.402 273.86 234.42L273.7 234.43Z" fill="#216BDC"/>
<path d="M127.8 181.76C127.176 181.769 126.555 181.653 125.977 181.418C125.398 181.183 124.872 180.834 124.431 180.392C123.99 179.95 123.642 179.423 123.408 178.844C123.174 178.265 123.059 177.644 123.07 177.02V115.34C123.046 114.708 123.155 114.078 123.389 113.491C123.623 112.904 123.978 112.372 124.43 111.93C125.354 111.075 126.566 110.601 127.825 110.601C129.084 110.601 130.296 111.075 131.22 111.93C131.661 112.379 132.005 112.912 132.232 113.499C132.459 114.085 132.564 114.712 132.54 115.34V177C132.557 177.621 132.448 178.24 132.221 178.819C131.995 179.397 131.654 179.925 131.22 180.37C130.779 180.828 130.246 181.188 129.657 181.427C129.068 181.667 128.436 181.78 127.8 181.76Z" fill="#216BDC"/>
<path d="M155.5 181.76C154.875 181.768 154.255 181.651 153.677 181.416C153.098 181.18 152.572 180.831 152.13 180.39C151.689 179.948 151.34 179.422 151.104 178.843C150.869 178.265 150.752 177.645 150.76 177.02V115.34C150.736 114.707 150.846 114.077 151.082 113.489C151.318 112.902 151.675 112.37 152.13 111.93C152.575 111.496 153.102 111.155 153.681 110.929C154.26 110.702 154.879 110.593 155.5 110.61H171.89C176.105 110.526 180.271 111.514 184 113.48C187.422 115.298 190.277 118.025 192.25 121.36C194.289 124.902 195.326 128.933 195.25 133.02C195.338 136.867 194.326 140.658 192.333 143.95C190.34 147.241 187.449 149.895 184 151.6C180.242 153.483 176.083 154.424 171.88 154.34H160.23V177C160.246 177.621 160.138 178.24 159.911 178.819C159.685 179.397 159.344 179.925 158.91 180.37C158.47 180.827 157.94 181.187 157.352 181.426C156.765 181.666 156.134 181.779 155.5 181.76ZM160.23 145.59H171.89C174.441 145.645 176.968 145.1 179.27 144C181.319 143.003 183.05 141.455 184.27 139.53C185.5 137.584 186.136 135.322 186.1 133.02C186.146 130.528 185.514 128.07 184.27 125.91C183.081 123.869 181.351 122.197 179.27 121.08C176.995 119.891 174.456 119.296 171.89 119.35H160.23V145.59ZM193.3 181.76C192.493 181.772 191.696 181.583 190.98 181.21C190.239 180.808 189.623 180.209 189.2 179.48L172.81 153.06L182.01 150.42L197 174.47C197.529 175.181 197.851 176.024 197.931 176.906C198.01 177.789 197.844 178.676 197.45 179.47C197.068 180.224 196.468 180.846 195.728 181.254C194.988 181.663 194.142 181.839 193.3 181.76Z" fill="#216BDC"/>
</svg>
