<svg width="426" height="426" viewBox="0 0 426 426" fill="none" xmlns="http://www.w3.org/2000/svg">
<path d="M193.7 194.77C193.98 218 176.3 237.82 153.06 240.33C128 243.03 105.63 225.07 102.95 200.11C101.75 188.95 104.3 178.4 108.18 168.1C115.34 149.07 126.5 132.4 139.03 116.57C140.95 114.15 142.94 111.78 144.99 109.47C147.07 107.12 149.25 107.04 151.24 109.37C167.1 127.97 180.94 147.82 189.21 171.09C191.93 178.74 193.51 186.63 193.7 194.76V194.77ZM148.25 116.97C146.89 118.61 145.85 119.79 144.88 121.03C132.85 136.25 122.06 152.23 115.13 170.5C111.42 180.28 108.94 190.3 110.45 200.91C113.23 220.49 131 234.55 151.24 233.2C170.38 231.92 186.08 215.19 186.28 195.93C186.36 188.14 184.73 180.68 182.21 173.38C176.66 157.35 167.84 143.11 157.9 129.5C154.87 125.36 151.64 121.37 148.25 116.98V116.97Z" fill="#216BDC"/>
<path d="M287.45 214.05C282.69 214.05 278.43 214.08 274.18 214.04C271.79 214.01 270.2 212.65 270 210.66C269.8 208.6 271.45 206.69 273.79 206.67C281.39 206.59 289 206.61 296.6 206.66C298.74 206.67 300.17 208.12 300.19 210.26C300.24 217.79 300.24 225.31 300.19 232.84C300.17 235.25 298.49 236.92 296.41 236.86C294.32 236.8 292.84 235.13 292.81 232.65C292.76 228.47 292.8 224.3 292.8 219.51C291.74 220.5 291.06 221.1 290.43 221.73C263.5 248.91 236.56 276.09 209.64 303.28C203.8 309.17 197.17 310.65 190.75 307.28C189.24 306.48 187.8 305.39 186.6 304.17C173.13 290.53 159.7 276.84 146.28 263.16C144.18 261.02 143.91 259.26 145.32 257.53C146.89 255.6 149.18 255.63 151.27 257.76C158.34 264.92 165.38 272.11 172.43 279.29C178.87 285.85 185.28 292.43 191.75 298.96C195.4 302.64 199.85 302.69 203.48 299.03C231.15 271.13 258.8 243.21 286.45 215.29C286.67 215.07 286.85 214.81 287.46 214.08L287.45 214.05Z" fill="#216BDC"/>
<path d="M220.43 328.2C183.11 328.2 145.78 328.2 108.46 328.2C104.52 328.2 102.66 327.04 102.61 324.55C102.56 322.03 104.45 320.77 108.33 320.77C183.06 320.77 257.78 320.77 332.51 320.77C336.39 320.77 338.28 322.02 338.24 324.54C338.2 327.03 336.34 328.2 332.4 328.2C295.08 328.2 257.75 328.2 220.43 328.2Z" fill="#216BDC"/>
<path d="M330.84 254.71C323.52 261.76 316.12 268.7 308.93 275.85C299.71 285.01 290.68 294.36 281.53 303.59C274.24 310.95 265.39 310.89 258.14 303.53C253.53 298.84 248.88 294.18 244.28 289.48C242.42 287.58 242.3 285.36 243.89 283.83C245.54 282.23 247.53 282.37 249.52 284.36C254.22 289.07 258.88 293.83 263.58 298.55C267.77 302.76 272.02 302.78 276.17 298.58C292.03 282.5 307.88 266.41 323.73 250.32C324.22 249.83 324.66 249.29 325.53 248.31C321.78 248.31 318.51 248.31 315.24 248.31C314.21 248.31 313.18 248.34 312.15 248.3C309.71 248.2 308.04 246.67 308.04 244.58C308.04 242.5 309.72 240.92 312.17 240.9C317.48 240.85 322.79 240.88 328.1 240.88C330.08 240.88 332.06 240.84 334.04 240.89C336.73 240.96 338.22 242.35 338.24 244.99C338.29 252.36 338.29 259.73 338.24 267.1C338.22 269.51 336.52 271.18 334.44 271.11C332.43 271.04 330.9 269.44 330.86 267.12C330.79 262.87 330.84 258.62 330.84 254.72V254.71Z" fill="#216BDC"/>
<path d="M197.37 232.79C198.68 233.58 199.76 233.98 200.5 234.72C207.94 242.18 215.35 249.68 222.72 257.21C224.54 259.07 224.57 261.09 222.98 262.68C221.5 264.16 219.23 264.07 217.49 262.33C210.06 254.86 202.66 247.35 195.27 239.84C194.08 238.63 193.29 237.14 194.31 235.58C195.02 234.5 196.26 233.77 197.37 232.79Z" fill="#216BDC"/>
<path d="M147.59 219.45C147.6 222.13 145.62 223.96 143.32 223.5C132.59 221.34 125.09 215.21 121.13 204.94C120.33 202.88 121.21 200.93 122.98 200.16C124.9 199.33 127.02 200.08 127.87 202.21C130.96 209.95 136.52 214.63 144.69 216.31C146.48 216.68 147.52 217.96 147.59 219.46V219.45Z" fill="#216BDC"/>
<path d="M128.8 181.98C128.15 184.54 127.81 186.41 127.18 188.19C126.53 190.01 124.97 190.61 123.14 190.27C121.25 189.92 120.13 188.54 120.28 186.74C120.45 184.73 120.98 182.68 121.74 180.8C122.46 179.03 124.31 178.42 125.93 179.17C127.17 179.74 128.02 181.16 128.81 181.97L128.8 181.98Z" fill="#216BDC"/>
<path d="M228.9 160.95C228.87 158.4 230.14 156.75 232.25 156.59C234.31 156.43 235.75 157.87 236.14 160.48C237 166.22 239.55 168.78 245.29 169.66C247.91 170.06 249.35 171.47 249.22 173.52C249.08 175.71 247.39 176.96 244.66 176.9C236.25 176.71 229 169.37 228.9 160.95Z" fill="#216BDC"/>
<path d="M249.92 190.93C268.792 190.93 284.09 175.632 284.09 156.76C284.09 137.889 268.792 122.59 249.92 122.59C231.048 122.59 215.75 137.889 215.75 156.76C215.75 175.632 231.048 190.93 249.92 190.93Z" stroke="#216BDC" stroke-width="7" stroke-miterlimit="10"/>
</svg>
