<svg width="426" height="426" viewBox="0 0 426 426" fill="none" xmlns="http://www.w3.org/2000/svg">
<path d="M210.95 230.13C210.95 261.1 210.95 292.07 210.95 323.04C210.95 323.59 210.95 324.14 210.95 324.69C210.94 328.54 209.74 330.2 207.01 330.15C204.36 330.1 203.2 328.48 203.19 324.8C203.19 317.55 203.19 310.3 203.19 303.05C203.19 247.49 203.19 191.94 203.19 136.38C203.19 135.51 203.16 134.64 203.22 133.78C203.39 131.59 204.96 130.04 207.01 130.01C209.05 129.98 210.71 131.52 210.9 133.67C210.98 134.53 210.94 135.4 210.94 136.27C210.94 167.56 210.94 198.84 210.94 230.13H210.95Z" fill="#216BDC"/>
<path d="M191.95 229.79C191.92 260.94 185.89 290.95 174.9 320.03C173.87 322.76 171.9 323.94 169.7 323.2C167.39 322.42 166.5 320.14 167.55 317.34C173.47 301.61 177.98 285.5 180.78 268.91C184.4 247.41 185.03 225.83 182.63 204.15C180.32 183.3 175.21 163.14 167.79 143.55C167.73 143.4 167.68 143.25 167.63 143.11C166.58 140.17 167.25 138.05 169.53 137.15C171.8 136.26 173.88 137.4 174.92 140.28C176.76 145.39 178.63 150.48 180.28 155.65C187.95 179.76 191.93 204.46 191.97 229.78L191.95 229.79Z" fill="#216BDC"/>
<path d="M221.01 229.71C221.02 198.8 227.02 169.02 238.05 140.2C239.29 136.95 241.86 135.94 244.29 137.69C246.24 139.1 246.08 140.93 245.4 142.97C242.59 151.4 239.53 159.76 237.17 168.32C229.92 194.69 227.37 221.52 229.65 248.82C231.57 271.81 236.75 294.03 244.78 315.61C245.03 316.27 245.27 316.94 245.49 317.61C246.33 320.14 245.5 322.3 243.38 323.12C241.23 323.94 239.12 322.92 238.21 320.37C236.24 314.89 234.26 309.42 232.52 303.87C224.94 279.73 221.01 255.02 221.01 229.7V229.71Z" fill="#216BDC"/>
<path d="M362.63 229.86C362.6 249.53 346.46 265.62 326.79 265.61C307.05 265.6 290.91 249.41 291.01 229.63C291.09 211.66 304.68 194.13 326.93 194.23C349.54 194.33 362.63 212.19 362.63 229.85V229.86ZM355.47 229.72C355.45 213.89 342.56 201.08 326.71 201.12C310.97 201.16 298.18 214 298.17 229.76C298.17 245.6 311.01 258.45 326.84 258.44C342.67 258.44 355.5 245.57 355.47 229.71V229.72Z" fill="#216BDC" stroke="#216BDC" stroke-width="0.5" stroke-miterlimit="10"/>
<path d="M295.73 194.92C294.79 195.97 294.08 197.17 293.04 197.83C291.62 198.73 290.16 198.15 289 197C285.96 193.97 282.94 190.93 279.91 187.89C277.89 185.87 275.84 183.87 273.85 181.82C272.13 180.06 272.07 177.93 273.61 176.44C275.05 175.05 277.2 175.15 278.87 176.81C283.95 181.84 289.01 186.89 294.03 191.99C294.69 192.67 295.02 193.67 295.74 194.93L295.73 194.92Z" fill="#216BDC" stroke="#216BDC" stroke-width="0.5" stroke-miterlimit="10"/>
<path d="M381.12 179.52C380.82 180.04 380.47 181.1 379.77 181.81C374.75 186.92 369.69 191.99 364.59 197.03C362.99 198.61 360.95 198.6 359.48 197.16C357.96 195.66 357.99 193.58 359.64 191.92C364.69 186.84 369.77 181.79 374.83 176.72C375.99 175.56 377.35 175.12 378.91 175.77C380.31 176.35 380.99 177.49 381.12 179.52Z" fill="#216BDC" stroke="#216BDC" stroke-width="0.5" stroke-miterlimit="10"/>
<path d="M361.82 261.13C363.11 261.85 364.18 262.19 364.89 262.89C369.99 267.89 375.04 272.95 380.07 278.03C381.68 279.65 381.69 281.84 380.22 283.27C378.79 284.66 376.64 284.64 375.1 283.11C369.99 278.03 364.91 272.92 359.81 267.82C358.58 266.59 358.11 265.07 358.99 263.61C359.59 262.62 360.79 261.99 361.81 261.12L361.82 261.13Z" fill="#216BDC" stroke="#216BDC" stroke-width="0.5" stroke-miterlimit="10"/>
<path d="M295.03 265.62C294.76 266.11 294.46 267.12 293.8 267.8C288.75 272.95 283.65 278.05 278.52 283.12C276.97 284.66 274.82 284.66 273.4 283.27C271.92 281.83 271.95 279.65 273.56 278.02C278.6 272.94 283.67 267.9 288.73 262.84C289.9 261.67 291.24 261.26 292.8 261.9C294.21 262.48 294.88 263.61 295.04 265.62H295.03Z" fill="#216BDC" stroke="#216BDC" stroke-width="0.5" stroke-miterlimit="10"/>
<path d="M265.71 226.2C269.11 226.2 272.51 226.2 275.91 226.2C278.7 226.2 280.28 227.53 280.26 229.82C280.24 232.03 278.67 233.36 276.01 233.36C269.03 233.37 262.05 233.37 255.07 233.36C252.64 233.36 251.07 231.91 251.09 229.74C251.11 227.59 252.68 226.21 255.15 226.2C258.67 226.19 262.19 226.2 265.71 226.2Z" fill="#216BDC" stroke="#216BDC" stroke-width="0.5" stroke-miterlimit="10"/>
<path d="M387.34 226.2C390.86 226.2 394.38 226.19 397.9 226.2C400.51 226.21 402.08 227.61 402.04 229.84C402.01 231.99 400.45 233.35 397.95 233.35C390.91 233.37 383.87 233.36 376.83 233.35C374.42 233.35 372.84 231.87 372.88 229.7C372.91 227.61 374.45 226.2 376.78 226.19C380.3 226.17 383.82 226.19 387.34 226.19V226.2Z" fill="#216BDC" stroke="#216BDC" stroke-width="0.5" stroke-miterlimit="10"/>
<path d="M323.23 168.7C323.23 165.3 323.21 161.89 323.23 158.49C323.25 156.04 324.68 154.48 326.84 154.47C328.99 154.47 330.38 156.01 330.38 158.52C330.4 165.38 330.4 172.25 330.38 179.11C330.38 181.62 329.02 183.17 326.87 183.21C324.63 183.25 323.24 181.68 323.22 179.07C323.2 175.61 323.22 172.15 323.22 168.68L323.23 168.7Z" fill="#216BDC" stroke="#216BDC" stroke-width="0.5" stroke-miterlimit="10"/>
<path d="M330.39 290.87C330.39 294.21 330.4 297.56 330.39 300.9C330.38 303.51 328.97 305.08 326.74 305.04C324.59 305 323.24 303.45 323.23 300.94C323.22 294.08 323.21 287.21 323.23 280.35C323.23 277.89 324.66 276.32 326.8 276.29C328.95 276.27 330.36 277.81 330.38 280.31C330.4 283.83 330.38 287.35 330.38 290.88L330.39 290.87Z" fill="#216BDC" stroke="#216BDC" stroke-width="0.5" stroke-miterlimit="10"/>
<path d="M87.8698 236.73V236.71C102.66 236.71 117.46 236.8 132.25 236.68C142.15 236.6 151.5 230.22 154.94 221.54C159.63 209.71 154.9 196.49 143.75 190.29C133.39 184.52 120.03 187.46 112.38 197.18C109.93 200.3 109.52 202.94 111.6 204.23C114.72 206.16 115.93 203.37 117.33 201.46C121.23 196.14 126.81 193.7 133.03 193.91C141.89 194.2 149.91 202.14 150.26 210.8C150.56 218.25 146.28 227.22 136.04 229.49C132.79 230.21 129.41 230.62 126.09 230.63C99.4198 230.72 72.7398 230.68 46.0698 230.69C44.0598 230.69 41.9698 230.53 40.0698 231.02C39.1198 231.26 37.8798 232.82 37.9098 233.76C37.9298 234.71 39.1898 236.15 40.1898 236.44C41.8498 236.93 43.7398 236.73 45.5298 236.73C59.6498 236.74 73.7698 236.73 87.8998 236.73H87.8698ZM71.1898 249.54C71.1898 249.54 71.1898 249.53 71.1898 249.52C62.6598 249.52 54.1398 249.52 45.6098 249.52C44.2598 249.52 42.9198 249.5 41.5698 249.56C39.6698 249.64 37.8698 250.04 37.7498 252.4C37.6398 254.76 39.3098 255.4 41.2698 255.51C42.8398 255.6 44.4098 255.57 45.9798 255.57C61.6898 255.57 77.3998 255.49 93.0998 255.64C96.3998 255.67 99.8498 256.12 102.97 257.16C108.85 259.11 112 263.67 112.53 269.75C112.97 274.86 109.22 280.71 104.47 282.77C98.8398 285.2 93.5498 284.63 88.8598 280.46C87.6998 279.42 86.8098 277.94 85.4898 277.26C84.5098 276.75 82.6398 276.73 81.8798 277.36C81.1098 277.99 80.8898 279.73 81.0398 280.9C81.1698 281.89 82.1098 282.83 82.8198 283.68C89.2998 291.36 101.08 292.98 109.7 287.41C118.25 281.89 121.56 270.32 117.05 261.31C113.17 253.55 106.69 249.71 98.1098 249.58C89.1398 249.45 80.1598 249.55 71.1798 249.55L71.1898 249.54ZM57.2098 217.85C61.9198 217.85 66.6298 217.82 71.3498 217.85C82.1398 217.94 93.3598 208.97 91.9598 194.8C90.8398 183.46 79.9298 175.17 67.7898 176.98C62.1998 177.81 57.7898 180.83 54.5698 185.45C53.4598 187.04 53.1098 189.13 55.0198 190.16C56.0698 190.72 57.9898 190.27 59.2398 189.68C60.3698 189.15 61.0498 187.73 62.0498 186.85C66.7698 182.68 72.0798 182.21 77.6798 184.69C82.3998 186.78 86.1198 192.75 85.5998 197.8C84.9798 203.87 81.7998 208.37 75.8998 210.3C72.9798 211.25 69.7798 211.69 66.6898 211.76C58.3898 211.96 50.0898 211.82 41.7798 211.87C39.6098 211.88 37.5498 212.37 37.7598 215.16C37.9398 217.5 39.8498 217.83 41.7298 217.84C46.8898 217.88 52.0498 217.85 57.2098 217.86V217.85Z" fill="white"/>
<path d="M87.8701 236.73C73.7501 236.73 59.6301 236.73 45.5001 236.73C43.7101 236.73 41.8301 236.93 40.1601 236.44C39.1701 236.15 37.9101 234.71 37.8801 233.76C37.8601 232.82 39.0901 231.26 40.0401 231.02C41.9401 230.53 44.0301 230.69 46.0401 230.69C72.7101 230.68 99.3901 230.72 126.06 230.63C129.38 230.62 132.76 230.21 136.01 229.49C146.26 227.23 150.53 218.26 150.23 210.8C149.88 202.14 141.86 194.2 133 193.91C126.78 193.7 121.21 196.14 117.3 201.46C115.9 203.37 114.69 206.17 111.57 204.23C109.49 202.94 109.9 200.3 112.35 197.18C120 187.45 133.36 184.52 143.72 190.29C154.86 196.5 159.59 209.71 154.91 221.54C151.47 230.22 142.12 236.6 132.22 236.68C117.43 236.8 102.63 236.71 87.8401 236.71V236.73H87.8701Z" fill="#216BDC" stroke="#216BDC" stroke-width="0.5" stroke-miterlimit="10"/>
<path d="M71.19 249.55C80.17 249.55 89.14 249.45 98.12 249.58C106.7 249.71 113.17 253.55 117.06 261.31C121.57 270.32 118.26 281.89 109.71 287.41C101.09 292.98 89.31 291.36 82.83 283.68C82.11 282.83 81.18 281.89 81.05 280.9C80.9 279.73 81.12 277.99 81.89 277.36C82.66 276.73 84.52 276.76 85.5 277.26C86.82 277.94 87.71 279.42 88.87 280.46C93.55 284.64 98.85 285.21 104.48 282.77C109.23 280.72 112.98 274.86 112.54 269.75C112.01 263.66 108.86 259.11 102.98 257.16C99.86 256.12 96.42 255.68 93.11 255.64C77.4 255.49 61.7 255.57 45.99 255.57C44.42 255.57 42.85 255.59 41.28 255.51C39.32 255.4 37.64 254.76 37.76 252.4C37.87 250.05 39.68 249.64 41.58 249.56C42.92 249.5 44.27 249.52 45.62 249.52C54.15 249.52 62.67 249.52 71.2 249.52C71.2 249.52 71.2 249.53 71.2 249.54L71.19 249.55Z" fill="#216BDC" stroke="#216BDC" stroke-width="0.5" stroke-miterlimit="10"/>
<path d="M57.2099 217.85C52.0499 217.85 46.8899 217.87 41.7299 217.83C39.8599 217.82 37.9399 217.49 37.7599 215.15C37.5499 212.35 39.6099 211.87 41.7799 211.86C50.0799 211.81 58.3899 211.95 66.6899 211.75C69.7799 211.67 72.9799 211.24 75.8999 210.29C81.7999 208.36 84.9799 203.86 85.5999 197.79C86.1199 192.74 82.4099 186.78 77.6799 184.68C72.0799 182.2 66.7699 182.67 62.0499 186.84C61.0499 187.73 60.3699 189.14 59.2399 189.67C57.9899 190.26 56.0699 190.72 55.0199 190.15C53.1099 189.12 53.4599 187.03 54.5699 185.44C57.7899 180.82 62.1999 177.8 67.7899 176.97C79.9299 175.17 90.8399 183.46 91.9599 194.79C93.3599 208.96 82.1399 217.94 71.3499 217.84C66.6399 217.8 61.9299 217.84 57.2099 217.84V217.85Z" fill="#216BDC" stroke="#216BDC" stroke-width="0.5" stroke-miterlimit="10"/>
</svg>
