<svg width="426" height="426" viewBox="0 0 426 426" fill="none" xmlns="http://www.w3.org/2000/svg">
<path d="M267.6 118.02C267.98 118.69 268.75 118.53 269.31 118.79C273.4 120.63 275.71 123.71 275.97 128.21C276.1 130.39 275.9 132.59 276.46 134.73C277.87 140.03 282.63 143.59 288.5 143.69C292 143.75 295.49 143.67 298.99 143.71C306.13 143.79 310.86 148.53 310.93 155.65C310.97 159.36 310.95 163.08 310.93 166.79C310.92 169.31 309.64 170.85 307.64 170.81C305.66 170.77 304.41 169.22 304.39 166.69C304.36 163.05 304.41 159.41 304.37 155.76C304.33 152.11 302.51 150.3 298.81 150.26C295.39 150.22 291.96 150.3 288.54 150.24C277.53 150.05 269.66 142.16 269.45 131.14C269.45 130.63 269.45 130.12 269.45 129.61C269.4 126 268 124.57 264.42 124.57C253.79 124.56 243.15 124.57 232.52 124.57C211.91 124.57 191.29 124.57 170.68 124.57C166.5 124.57 165.22 125.85 165.2 130.03C165.14 140.18 159.71 147.56 150.67 149.72C148.24 150.3 145.76 150.27 143.28 150.25C140.8 150.23 138.33 150.22 135.85 150.25C132.15 150.3 130.35 152.1 130.27 155.74C130.27 155.89 130.27 156.03 130.27 156.18C130.27 177.16 129.94 198.14 130.35 219.11C131.17 261.08 149.37 293.76 184.11 317.24C191.7 322.37 199.44 327.27 207.18 332.18C213.26 336.04 219.87 336.74 225.99 332.95C238.1 325.46 250.49 318.31 261.51 309.21C283.8 290.81 297.48 267.28 302.63 238.81C303.9 231.77 304.41 224.67 304.39 217.51C304.36 206.44 304.39 195.37 304.39 184.3C304.39 183.43 304.33 182.56 304.7 181.72C305.34 180.29 306.45 179.55 307.98 179.7C309.59 179.86 310.63 180.8 310.9 182.46C310.97 182.89 310.95 183.33 310.95 183.77C310.95 195.64 311.21 207.52 310.89 219.39C309.73 263.32 290.81 297.67 254.58 322.46C247.08 327.59 239.36 332.39 231.7 337.29C222.08 343.44 212.41 343.44 202.85 337.19C193.05 330.79 182.88 324.92 173.55 317.84C146.89 297.63 130.86 270.89 125.22 237.94C124.08 231.26 123.69 224.5 123.71 217.71C123.75 197.32 123.89 176.92 123.64 156.53C123.55 149.14 128.91 143.15 136.55 143.67C139.31 143.86 142.08 143.7 144.85 143.7C153.77 143.7 158.62 138.87 158.65 129.95C158.67 123.65 160.93 120.44 166.81 118.33C166.92 118.29 166.98 118.13 167.07 118.02C200.58 118.02 234.09 118.02 267.6 118.02Z" fill="#216BDC"/>
<path d="M217.43 137.69C228.79 137.69 240.16 137.69 251.52 137.69C255.46 137.69 256.86 138.69 258.27 142.25C263.14 154.5 272.12 161.48 285.2 163.13C289.69 163.7 291.27 165.43 291.27 170C291.27 186.61 291.62 203.23 291.18 219.82C290.21 256.44 274.21 285.06 244.1 305.81C238.83 309.44 233.39 312.81 228 316.26C220.83 320.84 213.66 320.87 206.54 316.14C197.4 310.07 187.74 304.73 179.47 297.42C158.53 278.92 146.55 255.78 143.85 227.95C142.82 217.35 143.55 206.69 143.41 196.07C143.38 193.93 144.64 192.68 146.54 192.63C148.54 192.58 149.91 193.98 149.93 196.33C149.97 202.67 150.06 209.01 149.93 215.34C149.56 232.17 153.01 248.14 160.71 263.13C168.69 278.68 180.1 291.18 194.75 300.72C199.87 304.05 205.02 307.34 210.12 310.69C214.96 313.87 219.78 313.91 224.59 310.68C233.34 304.8 242.64 299.72 250.61 292.74C270.37 275.42 281.63 253.69 284.31 227.53C284.99 220.91 284.69 214.28 284.72 207.66C284.77 195.64 284.72 183.62 284.77 171.6C284.77 170.16 284.43 169.73 282.92 169.49C268.69 167.17 258.61 159.37 252.79 146.17C252.18 144.79 251.62 144.21 250.01 144.21C228.23 144.27 206.45 144.27 184.67 144.22C183.24 144.22 182.55 144.56 181.95 145.95C176.17 159.38 165.97 167.23 151.55 169.51C150.21 169.72 149.88 170.12 149.92 171.37C150 174.14 149.98 176.91 149.94 179.67C149.9 182.18 148.56 183.65 146.51 183.57C144.56 183.49 143.42 182.08 143.4 179.62C143.38 176.42 143.39 173.21 143.4 170.01C143.4 165.36 145 163.58 149.67 163.12C157.13 162.39 163.46 159.28 168.81 154.09C172.15 150.85 174.61 147.03 176.26 142.68C177.84 138.51 179.05 137.69 183.57 137.69C194.86 137.69 206.15 137.69 217.44 137.69H217.43Z" fill="#216BDC"/>
<path d="M143.39 174.05L143.41 200.89L149.98 204.44L149.96 178.42L143.39 174.05Z" fill="#216BDC"/>
<path d="M304.4 163.61L304.39 188.05L310.93 186.73L310.95 166.24L304.4 163.61Z" fill="#216BDC"/>
</svg>
