<svg width="99" height="99" viewBox="0 0 99 99" fill="none" xmlns="http://www.w3.org/2000/svg">
<path d="M46.5987 0C48.5314 0 50.464 0 52.3966 0C53.861 0.186989 55.33 0.337491 56.7898 0.565527C69.4872 2.54487 80.0363 8.39627 88.0101 18.3933C98.0497 30.9809 101.121 45.2559 97.5493 60.9356C97.4621 61.3233 97.4896 61.8569 97.7008 62.1716C98.6005 63.5307 99.0045 64.9901 98.9999 66.6092C98.9815 73.4593 98.9724 80.3095 98.9999 87.1551C99.0091 89.2303 98.371 91.0682 96.8561 92.4182C95.4835 93.6405 93.987 94.881 92.3161 95.597C83.897 99.2136 75.3402 99.2866 66.7329 96.1853C66.1407 95.971 65.3879 95.7749 64.8324 95.9482C53.8518 99.4006 42.885 99.3505 32.1706 95.1911C15.2865 88.6374 4.91648 76.3645 0.968607 58.783C0.500371 56.7033 0.316748 54.5598 0 52.4436C0 50.332 0 48.2158 0 46.1042C0.0550867 45.826 0.137719 45.5524 0.160672 45.2742C1.04206 34.7161 4.89812 25.3621 11.8207 17.3124C19.3171 8.59693 28.7736 3.12408 40.1169 0.934943C42.2561 0.519919 44.4366 0.310126 46.5941 0.0045582L46.5987 0ZM51.1388 87.7298C53.4524 87.3558 55.6972 86.9773 57.9512 86.6489C58.6489 86.5486 58.8004 86.2339 58.7958 85.5726C58.7683 79.2013 58.7958 72.8345 58.7683 66.4632C58.7591 64.648 59.3329 63.0792 60.4714 61.6881C61.8256 60.0417 63.5562 58.8879 65.4751 58.0077C70.6349 55.6452 76.1022 55.0478 81.6981 55.4309C83.6399 55.5631 85.5634 55.928 87.6062 56.1971C87.8081 54.3956 88.0101 52.6032 88.2213 50.747C86.8808 50.6056 85.1456 51.0982 85.1318 49.1872C85.1135 47.2079 86.9268 47.7597 88.1754 47.5728C87.6567 38.2187 84.3055 30.128 78.0119 23.1821C77.0571 23.9528 76.194 25.3393 74.8995 24.0851C73.5682 22.7899 74.9775 21.9051 75.7717 20.9519C68.7344 14.6171 60.5586 11.2467 51.0745 10.7405C50.9735 12.0175 51.4326 13.6867 49.6101 13.7597C47.5444 13.8463 48.0677 12.0083 47.9208 10.7359C38.4918 11.2741 30.3573 14.6034 23.3981 20.8151C24.9818 22.6758 25.2205 23.3326 24.4355 24.0395C22.9206 25.3986 22.1357 23.8388 21.1257 23.0772C14.754 30.0414 11.3387 38.1686 10.8291 47.591C12.1053 47.7415 13.8451 47.2307 13.8727 49.1371C13.9002 51.1255 12.0869 50.5737 10.8245 50.7789C11.3387 60.1375 14.6944 68.2373 20.9788 75.165C22.8839 73.6053 23.5633 73.359 24.2381 74.107C25.6061 75.612 24.0361 76.3964 23.242 77.4363C30.2701 83.7437 38.4505 87.0958 47.9162 87.593C48.0539 86.3023 47.5536 84.7197 49.4862 84.5373C50.5466 84.437 50.8725 85.0846 51.1388 87.7252V87.7298ZM58.9014 89.6316C34.1813 95.3644 10.0395 78.052 7.80854 52.813C5.72902 29.3162 23.4945 8.95723 47.347 7.7532C59.0988 7.16031 69.4918 10.859 78.0257 18.9406C89.0659 29.4029 92.9404 42.3371 90.5533 57.173C91.9442 57.8754 93.3168 58.5641 94.6848 59.2573C98.7474 43.4179 93.023 21.1298 72.8154 9.32209C53.5718 -1.92006 28.7598 2.31228 14.0976 19.3693C-0.422326 36.2622 -0.596772 61.3598 13.7579 78.5582C28.0437 95.67 49.399 97.5627 61.7016 93.4991C60.8157 92.2723 59.9022 91.0135 58.906 89.6407L58.9014 89.6316ZM78.8933 58.3816L78.852 58.149C76.1573 58.5549 73.4305 58.824 70.7772 59.4078C67.931 60.0326 65.2502 61.15 63.166 63.3118C61.4446 65.095 61.3711 67.1291 63.1798 68.8028C64.3137 69.8518 65.6358 70.8232 67.0496 71.4253C73.8804 74.3487 80.9131 74.4262 88.0101 72.4697C90.4156 71.8084 92.6649 70.7776 94.4644 68.9762C96.3741 67.0607 96.4384 65.0175 94.4507 63.2114C93.3535 62.2126 92.059 61.3598 90.7185 60.7167C86.9956 58.9335 82.9789 58.4455 78.8933 58.3816ZM61.8715 71.9406C61.8715 73.2587 61.9817 74.4171 61.8485 75.5481C61.5685 77.979 62.7713 79.5844 64.635 80.8522C65.4016 81.3722 66.2096 81.8647 67.0634 82.2205C73.862 85.0572 80.8259 85.1712 87.8678 83.274C90.3421 82.6081 92.6925 81.5956 94.4782 79.6847C95.0842 79.0325 95.7039 78.1523 95.8003 77.3131C96.0023 75.5937 95.86 73.8379 95.86 71.9771C90.7323 75.7123 84.9528 76.8115 78.9025 76.816C72.8475 76.816 67.0588 75.7306 61.8715 71.9452V71.9406ZM61.8715 82.6993C61.8715 84.2773 61.9128 85.682 61.8623 87.0867C61.8118 88.4321 62.3351 89.5039 63.2487 90.4388C64.6717 91.8937 66.4299 92.8287 68.3212 93.5036C74.0503 95.5423 79.9032 95.743 85.8296 94.548C88.6253 93.9825 91.2878 93.0476 93.5831 91.2871C94.6435 90.4708 95.6855 89.5267 95.8141 88.1539C95.9747 86.3981 95.8508 84.6148 95.8508 82.7358C90.7323 86.471 84.9482 87.5656 78.8979 87.5656C72.8475 87.5656 67.0588 86.471 61.8761 82.6993H61.8715Z" fill="#216BDC"/>
<path d="M51.0435 31.5052C51.0435 35.6646 51.0527 39.8239 51.0297 43.9833C51.0297 44.5488 51.1445 44.8772 51.7045 45.1645C53.4811 46.0812 54.4084 47.9967 54.1008 49.8985C53.7886 51.8414 52.2416 53.3966 50.2769 53.7386C48.381 54.067 46.4024 53.1594 45.4843 51.4127C45.1768 50.8243 44.8279 50.6967 44.2219 50.6967C38.1991 50.7149 32.1763 50.7103 26.1535 50.7058C25.8322 50.7058 25.497 50.7423 25.1895 50.6738C24.3678 50.496 23.8904 49.9806 23.9087 49.1232C23.9271 48.3068 24.4091 47.828 25.1895 47.6638C25.497 47.5999 25.8322 47.6319 26.1535 47.6319C32.1442 47.6319 38.1348 47.6182 44.1255 47.6455C44.8049 47.6455 45.1859 47.5042 45.5532 46.8702C45.9204 46.2317 46.508 45.6115 47.1507 45.2694C47.8576 44.8909 47.954 44.4439 47.954 43.7598C47.9357 35.5688 47.9449 27.3777 47.9449 19.1867C47.9449 18.8994 47.9265 18.6075 47.9586 18.3247C48.0504 17.481 48.6977 16.8972 49.5011 16.9064C50.309 16.9155 50.9333 17.4992 51.0205 18.3521C51.0481 18.6075 51.0343 18.8629 51.0343 19.1183C51.0343 23.2457 51.0343 27.3732 51.0343 31.5006L51.0435 31.5052ZM51.0343 49.1551C51.0251 48.3296 50.3319 47.6455 49.5011 47.641C48.6748 47.6364 47.9724 48.316 47.954 49.1414C47.9357 50.0034 48.6702 50.7286 49.5332 50.7058C50.3641 50.683 51.0435 49.9806 51.0343 49.1597V49.1551Z" fill="#216BDC"/>
</svg>
