<svg width="95" height="95" viewBox="0 0 95 95" fill="none" xmlns="http://www.w3.org/2000/svg">
<path d="M0 27.3912V2.22164C0.43349 1.17855 1.17404 0.43349 2.22164 0H92.3605C94.1667 0.672813 94.8034 1.98683 94.7898 3.88786C94.7311 11.194 94.7673 18.5046 94.7673 25.8107C94.7673 28.52 93.67 29.6173 90.9562 29.6173C61.9123 29.6173 32.8685 29.6083 3.82013 29.6444C2.00489 29.6444 0.726999 29.08 0 27.4002V27.3912ZM3.00282 26.5829H65.1093V3.01185H3.00282V26.5829ZM91.7599 3.0254H68.1844V26.6055H91.7599V3.0254Z" fill="#216BDC"/>
<path d="M0 59.966V34.7965C0.717968 33.1032 2.00038 32.5478 3.81562 32.5523C32.9317 32.5884 62.0523 32.5748 91.1684 32.5794C93.5707 32.5794 94.7627 33.7624 94.7627 36.1421C94.7627 43.5747 94.7627 51.0117 94.7627 58.4443C94.7627 61.0859 93.6474 62.1967 90.9878 62.1967C61.9304 62.1967 32.8775 62.1876 3.82013 62.2238C2.00038 62.2238 0.726999 61.6593 0 59.9796V59.966ZM65.1093 35.6003H3.03895V59.1758H65.1093V35.6003ZM91.7238 59.2119V35.6003H68.1799V59.2119H91.7238Z" fill="#216BDC"/>
<path d="M0 92.5412V67.3717C0.717968 65.6784 2.00038 65.123 3.81562 65.1275C32.9317 65.1636 62.0523 65.15 91.1684 65.1546C93.5707 65.1546 94.7627 66.3376 94.7627 68.7128C94.7627 76.1453 94.7627 83.5824 94.7627 91.015C94.7627 93.6565 93.6474 94.7674 90.9878 94.7674C61.9304 94.7674 32.8775 94.7583 3.82013 94.7945C2.00038 94.7945 0.726999 94.23 0 92.5502V92.5412ZM65.1093 68.1754H3.03895V91.7555H65.1093V68.1754ZM68.1754 68.1574V91.7374H91.7554V68.1574H68.1754Z" fill="#216BDC"/>
<path d="M33.3164 13.3256C40.7174 13.3256 48.1228 13.3256 55.5238 13.3256C55.8308 13.3256 56.1469 13.294 56.4449 13.3481C57.2442 13.4926 57.7228 13.9894 57.7228 14.8067C57.7228 15.624 57.2397 16.1162 56.4404 16.2652C56.1695 16.3148 55.885 16.2878 55.6096 16.2878C40.7399 16.2878 25.8748 16.2878 11.0052 16.2878C10.7298 16.2878 10.4453 16.3148 10.1744 16.2652C9.37965 16.1162 8.89648 15.6285 8.89648 14.8067C8.89648 13.9894 9.37965 13.4972 10.1744 13.3527C10.4724 13.2985 10.7885 13.3301 11.1001 13.3301C18.501 13.3301 25.9065 13.3301 33.3074 13.3301L33.3164 13.3256Z" fill="#216BDC"/>
<path d="M79.9335 17.195C81.5771 15.5468 83.0898 14.0161 84.6206 12.4989C85.2934 11.8351 86.0655 11.7583 86.6977 12.237C87.3886 12.7608 87.5015 13.7632 86.8422 14.436C84.9276 16.4003 82.9905 18.3374 81.0307 20.252C80.3489 20.9158 79.5677 20.9113 78.8859 20.243C76.9487 18.3465 75.0341 16.4274 73.1376 14.4947C72.4829 13.8264 72.4964 12.9324 73.097 12.3499C73.6975 11.7674 74.5645 11.7719 75.2418 12.4402C76.7907 13.9754 78.3124 15.5423 79.938 17.1905L79.9335 17.195Z" fill="#216BDC"/>
<path d="M33.257 48.8627C25.856 48.8627 18.4506 48.8627 11.0496 48.8627C10.7426 48.8627 10.4265 48.8807 10.1285 48.831C9.38341 48.7046 8.84606 48.0499 8.90024 47.3229C8.95895 46.5507 9.39695 46.0766 10.151 45.9321C10.4491 45.8734 10.7652 45.905 11.0722 45.905C25.9102 45.905 40.7482 45.905 55.5817 45.905C55.8572 45.905 56.1416 45.8779 56.4126 45.923C57.2163 46.054 57.6814 46.5326 57.7311 47.3499C57.7763 48.1131 57.1938 48.7543 56.39 48.8491C56.1145 48.8807 55.8346 48.8627 55.5591 48.8627C48.1266 48.8627 40.6895 48.8627 33.257 48.8627Z" fill="#216BDC"/>
<path d="M79.9335 49.7839C81.4056 48.3028 82.7693 46.9301 84.133 45.5574C84.3497 45.3406 84.5574 45.1058 84.7922 44.9116C85.4289 44.3788 86.2508 44.3878 86.8062 44.9116C87.3887 45.458 87.4654 46.3702 86.8649 46.9888C84.9277 48.9711 82.968 50.9308 80.9811 52.8635C80.3309 53.4957 79.5588 53.4821 78.9085 52.8454C76.9488 50.9308 75.0116 48.9892 73.0925 47.0339C72.4739 46.4018 72.501 45.5303 73.0609 44.9568C73.6434 44.3607 74.542 44.3382 75.2058 44.9974C76.7591 46.5327 78.2764 48.1086 79.9335 49.7884V49.7839Z" fill="#216BDC"/>
<path d="M33.3211 81.4377C25.9201 81.4377 18.5147 81.4377 11.1137 81.4377C10.8067 81.4377 10.4906 81.4693 10.1926 81.4151C9.39783 81.2706 8.91467 80.7784 8.91016 79.9611C8.91016 79.1438 9.3888 78.6516 10.188 78.5026C10.459 78.4529 10.7435 78.48 11.0189 78.48C25.8885 78.48 40.7536 78.48 55.6232 78.48C55.8987 78.48 56.1832 78.4529 56.4541 78.5026C57.2533 78.6471 57.732 79.1393 57.7365 79.9566C57.7365 80.7739 57.2533 81.2661 56.4586 81.4151C56.1606 81.4693 55.8445 81.4377 55.5374 81.4377C48.1365 81.4377 40.731 81.4377 33.3301 81.4377H33.3211Z" fill="#216BDC"/>
<path d="M79.9607 82.3585C81.6089 80.6923 83.1261 79.1615 84.6388 77.6263C85.1446 77.1115 85.8038 76.8541 86.3818 77.2515C86.7972 77.536 87.1088 78.1275 87.2172 78.6378C87.2849 78.9584 86.9688 79.4551 86.6889 79.7441C84.8827 81.5954 83.0493 83.4242 81.207 85.2394C80.331 86.1064 79.5905 86.1064 78.7235 85.2485C76.8811 83.4287 75.0569 81.5999 73.2326 79.7621C72.5101 79.0306 72.4514 78.1727 73.043 77.545C73.6571 76.8948 74.5692 76.9309 75.3233 77.6805C76.845 79.1977 78.3487 80.733 79.9562 82.3585H79.9607Z" fill="#216BDC"/>
</svg>
