<svg width="108" height="105" viewBox="0 0 108 105" fill="none" xmlns="http://www.w3.org/2000/svg">
<path d="M0.00577135 85.7846C0.0451241 82.226 2.0746 78.0827 5.51516 74.6366C22.0208 58.1028 38.5659 41.6084 55.0884 25.0858C56.6794 23.4948 58.5458 22.764 60.7608 23.1856C61.5366 23.3318 61.992 23.1407 62.5204 22.6122C69.3734 15.7255 76.2827 8.89497 83.0907 1.96888C84.9459 0.0855678 86.8798 -0.420397 89.3871 0.338549C94.8684 1.99699 100.395 3.50926 105.898 5.09461C108.282 5.78047 108.664 7.27026 106.91 9.02989C97.2352 18.7163 87.56 28.3971 77.8624 38.061C77.2552 38.6625 77.0416 39.1966 77.1934 40.0455C77.5757 42.2043 76.7437 43.9527 75.2033 45.4424C67.9399 52.4866 60.6934 59.5364 53.4356 66.5861C50.5572 69.3858 47.7069 72.2136 44.7892 74.9683C41.4049 78.1727 39.0044 82.0068 37.166 86.2513C35.7774 89.4501 34.4001 92.6601 32.7641 95.7353C29.0762 102.656 20.8009 106.248 13.4363 104.292C5.68943 102.24 -0.0335826 94.9538 0.000148326 85.779L0.00577135 85.7846ZM17.6133 100.772C23.0328 100.789 27.6202 97.9447 29.9364 93.0256C31.3868 89.9448 32.7641 86.8247 34.119 83.699C36.0304 79.2914 38.7401 75.4742 42.1976 72.1349C52.2719 62.3922 62.29 52.599 72.353 42.8508C73.2132 42.0131 73.6179 41.1699 73.2919 39.9668C72.4486 36.8748 71.6784 33.7603 70.8014 30.6739C70.6833 30.2523 70.1718 29.7576 69.7445 29.6282C66.8661 28.7737 63.9315 28.0879 61.0644 27.1884C59.5465 26.7105 58.529 27.0591 57.4271 28.161C47.4034 38.2353 37.3291 48.2646 27.2716 58.3108C20.8796 64.6972 14.4707 71.0667 8.10682 77.47C3.95229 81.647 2.80544 87.4375 5.00357 92.6714C7.0724 97.5961 11.9803 100.75 17.6133 100.767V100.772ZM80.6059 9.97998C85.8791 11.2899 90.8826 12.5435 95.8916 13.7691C96.1671 13.8366 96.6056 13.8478 96.7686 13.6848C98.6238 11.8858 100.445 10.0474 102.402 8.09104C97.2914 6.63499 92.4061 5.24078 87.5207 3.8803C87.2227 3.79597 86.7393 3.86906 86.5369 4.06582C84.5917 5.96038 82.6859 7.89428 80.6059 9.97998ZM72.0213 18.4296C72.2968 18.632 72.353 18.705 72.4205 18.7219C77.3452 19.9587 82.2755 21.1955 87.2059 22.4042C87.5151 22.4773 87.9986 22.4548 88.1953 22.2637C89.8875 20.6333 91.5403 18.9524 93.21 17.2771C93.1032 17.1815 93.0751 17.1366 93.0413 17.1309C88.0042 15.8548 82.9726 14.5674 77.9242 13.3193C77.6432 13.2519 77.199 13.4037 76.9798 13.6117C75.327 15.1802 73.7079 16.7824 72.0213 18.4352V18.4296ZM84.7266 25.7604C79.3972 24.4449 74.3207 23.18 69.2385 21.9488C68.9856 21.887 68.6089 22.0163 68.4009 22.1906C67.5801 22.8821 66.7987 23.6241 65.8373 24.5068C68.131 25.1477 70.0706 25.7548 72.0494 26.2158C73.3144 26.5138 73.9496 27.2277 74.2419 28.442C74.7198 30.449 75.2764 32.4335 75.8217 34.5249C76.0578 34.3618 76.1983 34.3 76.3052 34.1932C79.0486 31.4497 81.7921 28.7007 84.7266 25.7604Z" fill="#216BDC"/>
<path d="M52.7273 56.3712C52.137 56.7141 51.4455 56.9559 50.9733 57.4225C45.6381 62.707 40.3424 68.0252 35.0298 73.3322C33.4444 74.9176 32.6686 74.9232 31.1057 73.366C29.7115 71.9774 28.3173 70.5944 26.9343 69.1889C25.7144 67.9521 25.7144 67.0189 26.9512 65.7821C32.365 60.3514 37.7845 54.9264 43.2208 49.5182C43.738 49.001 44.0247 48.5287 43.9122 47.7473C43.6986 46.2575 44.2439 44.9926 45.3008 43.9357C47.2572 41.9737 49.1968 39.9948 51.1869 38.0665C53.1883 36.1326 55.8418 36.127 57.8712 38.0609C59.4397 39.5563 60.9745 41.0911 62.4699 42.6596C64.4319 44.7228 64.3925 47.3819 62.3856 49.4282C60.4741 51.379 58.529 53.2904 56.6007 55.2243C55.5831 56.2419 54.3688 56.7647 52.7273 56.3656V56.3712ZM60.1031 46.0551C59.9401 45.774 59.8445 45.4986 59.659 45.3131C58.1973 43.8289 56.7188 42.356 55.2458 40.8831C54.6893 40.3265 54.2058 40.4783 53.6998 40.9842C51.8671 42.8338 50.0232 44.6722 48.1736 46.5049C47.7351 46.9378 47.5721 47.3538 48.0555 47.8373C49.6353 49.4114 51.1981 51.008 52.8341 52.5315C53.0196 52.7001 53.7448 52.5821 53.9866 52.3516C55.8699 50.5526 57.697 48.6918 59.5297 46.8422C59.7489 46.6229 59.8951 46.3362 60.1031 46.0551ZM32.9947 69.5825C38.178 64.3992 43.3557 59.2158 48.494 54.0775C47.8475 53.4141 47.1279 52.672 46.4814 52.003C41.2981 57.1863 36.1204 62.3697 31.0045 67.4855C31.6286 68.1377 32.3369 68.8854 32.9947 69.5825Z" fill="#216BDC"/>
</svg>
