<svg width="80" height="112" viewBox="0 0 80 112" fill="none" xmlns="http://www.w3.org/2000/svg">
<path d="M9.45914 112C8.04359 111.459 6.51753 111.097 5.22301 110.341C0.871125 107.778 -1.13906 102.465 0.655376 97.7393C3.02866 91.4805 5.66504 85.3163 8.20672 79.1205C13.5742 66.0569 18.9523 52.9986 24.3303 39.9403C25.8353 36.2911 26.6036 32.5106 26.5667 28.5516C26.5246 23.9206 26.5299 19.2948 26.5667 14.6637C26.5825 12.7525 26.1142 11.0513 24.7618 9.67036C22.6201 7.48085 22.3727 4.77152 22.6148 1.94142C22.7095 0.812538 23.5515 0.0196899 24.7723 0.0196899C34.9653 -0.00656329 45.1583 -0.00656329 55.3513 0.0196899C56.6511 0.0196899 57.4089 0.880794 57.5141 2.1777C57.7456 5.0813 57.2878 7.75388 55.125 9.94339C53.9673 11.1143 53.5411 12.6212 53.5358 14.2437C53.5358 19.2738 53.5148 24.3039 53.5411 29.334C53.5621 33.0567 54.4094 36.6114 55.8302 40.0558C63.5657 58.8373 71.2012 77.6608 79.0368 96.3951C82.0783 103.667 77.5212 110.929 70.9066 111.848C70.8066 111.863 70.7171 111.947 70.6224 112H9.45387H9.45914ZM6.09655 95.828C6.71224 95.828 7.18058 95.8175 7.64366 95.828C9.24339 95.8648 10.2643 96.7154 10.2695 98.0176C10.28 99.3145 9.24865 100.181 7.65944 100.202C6.61225 100.212 5.57032 100.202 4.55471 100.202C3.9285 104.287 7.00692 107.616 11.3167 107.621C30.4608 107.637 49.5997 107.631 68.7438 107.61C69.5699 107.61 70.4224 107.474 71.217 107.253C74.2639 106.398 76.8897 102.649 74.9901 98.0858C69.5857 85.1167 64.2761 72.1109 58.9612 59.1051C58.6507 58.349 58.2403 58.1862 57.4983 58.1915C52.7833 58.2177 48.0736 58.2072 43.3586 58.2072C36.4177 58.2072 29.4768 58.202 22.5359 58.223C22.157 58.223 21.5465 58.349 21.436 58.5958C20.5993 60.444 19.8574 62.3342 19.0365 64.3347C19.7626 64.3347 20.3415 64.3085 20.9151 64.3347C22.3675 64.4082 23.2831 65.2693 23.2831 66.5347C23.2831 67.8106 22.3622 68.6612 20.8993 68.698C19.9152 68.7243 18.9259 68.6823 17.9419 68.719C17.6577 68.7295 17.221 68.8503 17.1315 69.0445C16.3053 70.919 15.5423 72.8198 14.7109 74.836C15.4686 74.836 16.0159 74.8045 16.5579 74.8412C17.9787 74.9305 18.9154 75.8599 18.8733 77.1043C18.8312 78.3172 17.9103 79.1573 16.5211 79.1993C15.537 79.2308 14.5477 79.1888 13.5637 79.2203C13.3059 79.2308 12.8954 79.3253 12.8217 79.4986C12.0061 81.3835 11.2378 83.2948 10.4011 85.3425C11.1483 85.3425 11.6956 85.3058 12.2376 85.3478C13.5742 85.4633 14.5109 86.4241 14.4688 87.5898C14.4267 88.7817 13.4742 89.6533 12.1166 89.6953C11.1694 89.7268 10.2169 89.6743 9.2697 89.7215C8.9908 89.732 8.55929 89.8738 8.47509 90.0733C7.6647 91.9321 6.91746 93.817 6.09128 95.828H6.09655ZM23.4147 53.7389H56.6985C56.5301 53.2979 56.409 52.9566 56.2722 52.6258C54.7356 48.8926 53.1885 45.1594 51.6625 41.421C50.3311 38.1656 49.3681 34.7946 49.2892 31.2662C49.1734 25.9841 49.2366 20.7019 49.1419 15.4198C49.084 12.0332 49.9101 9.02978 52.2729 6.49898C52.7518 5.98966 52.957 5.22307 53.3569 4.44073H26.6509C27.2614 5.43835 27.6455 6.2942 28.2349 6.97153C30.124 9.1453 30.9555 11.6603 30.9555 14.4957C30.9502 19.3053 30.9555 24.1149 30.9555 28.9244C30.9502 32.6734 30.4135 36.3383 29.0347 39.8353C27.3508 44.0988 25.5985 48.336 23.8777 52.5838C23.7304 52.9461 23.5883 53.3084 23.4199 53.7337L23.4147 53.7389Z" fill="#216BDC"/>
</svg>
