<svg id="Слой_1" data-name="Слой 1" xmlns="http://www.w3.org/2000/svg" viewBox="0 0 425.2 425.2"><path d="M344.69,317.83H109.5a4.57,4.57,0,1,1,0-9.14H344.69a4.57,4.57,0,1,1,0,9.14Z"/><path d="M312.91,309.42a4.57,4.57,0,0,1-3.14-1.25L207,210.62a4.57,4.57,0,0,1,6.29-6.63l99.46,94.43,54-55.66a4.57,4.57,0,1,1,6.56,6.37L316.19,308A4.51,4.51,0,0,1,312.91,309.42Z"/><path d="M375.73,267.41a4.56,4.56,0,0,1-4.56-4.43l-.53-18-20,2.16a4.57,4.57,0,0,1-1-9.09l25-2.69a4.56,4.56,0,0,1,5.06,4.41l.68,22.93a4.58,4.58,0,0,1-4.44,4.7Z"/><path d="M262.33,309.42a4.6,4.6,0,0,1-3.12-1.22l-103.1-96a4.57,4.57,0,0,1,6.23-6.69l99.83,93,54.05-55.69a4.57,4.57,0,1,1,6.56,6.37L265.61,308A4.54,4.54,0,0,1,262.33,309.42Z"/><path d="M325.15,267.41a4.57,4.57,0,0,1-4.57-4.43l-.53-18-20,2.16a4.57,4.57,0,1,1-1-9.09l25-2.69a4.55,4.55,0,0,1,5.06,4.41l.68,22.93a4.57,4.57,0,0,1-4.44,4.7Z"/><path d="M135,182.5a35.51,35.51,0,0,1-15.49-3.23,25.48,25.48,0,0,1-10.52-9,23.3,23.3,0,0,1-3.78-13.12V114.63a4.55,4.55,0,0,1,1.37-3.42,4.72,4.72,0,0,1,8.11,3.42v42.54a15,15,0,0,0,2.59,8.7,17.43,17.43,0,0,0,7.2,5.93A24.77,24.77,0,0,0,135,173.94a23.13,23.13,0,0,0,10.16-2.14,17,17,0,0,0,6.92-5.93,15.39,15.39,0,0,0,2.51-8.7V114.63a4.54,4.54,0,0,1,1.36-3.42,4.69,4.69,0,0,1,3.38-1.32,4.5,4.5,0,0,1,3.37,1.32,4.71,4.71,0,0,1,1.27,3.42v42.54a23.71,23.71,0,0,1-3.69,13.12,25,25,0,0,1-10.25,9A33.62,33.62,0,0,1,135,182.5Z"/><path d="M206.6,181a4.5,4.5,0,0,1-4.29-3l-26.69-61q-1.27-3.1-.27-5.1a3.86,3.86,0,0,1,3.82-2,4.36,4.36,0,0,1,4.38,2.83L207,168.93h-1l23.87-56.21a4.8,4.8,0,0,1,1.68-2.24,5,5,0,0,1,2.6-.59,3.92,3.92,0,0,1,3.78,2,4.64,4.64,0,0,1,0,4.33l-27,61.86a5.44,5.44,0,0,1-1.69,2.23A4.28,4.28,0,0,1,206.6,181Z"/></svg>