<?xml version="1.0" encoding="UTF-8"?>
<svg id="_Слой_1" data-name="Слой 1" xmlns="http://www.w3.org/2000/svg" viewBox="0 0 425.2 425.2">
  <defs>
    <style>
      .cls-1 {
        stroke-width: 0px;
      }
    </style>
  </defs>
  <path class="cls-1" d="m213.57,104.69c4.21,0,8.42,0,12.63,0,3.19.41,6.39.74,9.57,1.24,27.66,4.34,50.64,17.17,68.01,39.09,21.87,27.6,28.56,58.9,20.78,93.28-.19.85-.13,2.02.33,2.71,1.96,2.98,2.84,6.18,2.83,9.73-.04,15.02-.06,30.04,0,45.05.02,4.55-1.37,8.58-4.67,11.54-2.99,2.68-6.25,5.4-9.89,6.97-18.34,7.93-36.98,8.09-55.73,1.29-1.29-.47-2.93-.9-4.14-.52-23.92,7.57-47.81,7.46-71.15-1.66-36.78-14.37-59.37-41.28-67.97-79.83-1.02-4.56-1.42-9.26-2.11-13.9,0-4.63,0-9.27,0-13.9.12-.61.3-1.21.35-1.82,1.92-23.15,10.32-43.66,25.4-61.31,16.33-19.11,36.93-31.11,61.64-35.91,4.66-.91,9.41-1.37,14.11-2.04Zm9.89,192.36c5.04-.82,9.93-1.65,14.84-2.37,1.52-.22,1.85-.91,1.84-2.36-.06-13.97,0-27.93-.06-41.9-.02-3.98,1.23-7.42,3.71-10.47,2.95-3.61,6.72-6.14,10.9-8.07,11.24-5.18,23.15-6.49,35.34-5.65,4.23.29,8.42,1.09,12.87,1.68.44-3.95.88-7.88,1.34-11.95-2.92-.31-6.7.77-6.73-3.42-.04-4.34,3.91-3.13,6.63-3.54-1.13-20.51-8.43-38.25-22.14-53.48-2.08,1.69-3.96,4.73-6.78,1.98-2.9-2.84.17-4.78,1.9-6.87-15.33-13.89-33.14-21.28-53.8-22.39-.22,2.8.78,6.46-3.19,6.62-4.5.19-3.36-3.84-3.68-6.63-20.54,1.18-38.26,8.48-53.42,22.1,3.45,4.08,3.97,5.52,2.26,7.07-3.3,2.98-5.01-.44-7.21-2.11-13.88,15.27-21.32,33.09-22.43,53.75,2.78.33,6.57-.79,6.63,3.39.06,4.36-3.89,3.15-6.64,3.6,1.12,20.52,8.43,38.28,22.12,53.47,4.15-3.42,5.63-3.96,7.1-2.32,2.98,3.3-.44,5.02-2.17,7.3,15.31,13.83,33.13,21.18,53.75,22.27.3-2.83-.79-6.3,3.42-6.7,2.31-.22,3.02,1.2,3.6,6.99Zm16.91,4.17c-53.85,12.57-106.44-25.39-111.3-80.73-4.53-51.52,34.17-96.16,86.13-98.8,25.6-1.3,48.24,6.81,66.83,24.53,24.05,22.94,32.49,51.3,27.29,83.83,3.03,1.54,6.02,3.05,9,4.57,8.85-34.73-3.62-83.6-47.64-109.49-41.92-24.65-95.97-15.37-127.91,22.03-31.63,37.04-32.01,92.07-.74,129.78,31.12,37.52,77.64,41.67,104.44,32.76-1.93-2.69-3.92-5.45-6.09-8.46Zm43.55-68.52l-.09-.51c-5.87.89-11.81,1.48-17.59,2.76-6.2,1.37-12.04,3.82-16.58,8.56-3.75,3.91-3.91,8.37.03,12.04,2.47,2.3,5.35,4.43,8.43,5.75,14.88,6.41,30.2,6.58,45.66,2.29,5.24-1.45,10.14-3.71,14.06-7.66,4.16-4.2,4.3-8.68-.03-12.64-2.39-2.19-5.21-4.06-8.13-5.47-8.11-3.91-16.86-4.98-25.76-5.12Zm-37.08,29.73c0,2.89.24,5.43-.05,7.91-.61,5.33,2.01,8.85,6.07,11.63,1.67,1.14,3.43,2.22,5.29,3,14.81,6.22,29.98,6.47,45.32,2.31,5.39-1.46,10.51-3.68,14.4-7.87,1.32-1.43,2.67-3.36,2.88-5.2.44-3.77.13-7.62.13-11.7-11.17,8.19-23.76,10.6-36.94,10.61-13.19,0-25.8-2.38-37.1-10.68Zm0,23.59c0,3.46.09,6.54-.02,9.62-.11,2.95,1.03,5.3,3.02,7.35,3.1,3.19,6.93,5.24,11.05,6.72,12.48,4.47,25.23,4.91,38.14,2.29,6.09-1.24,11.89-3.29,16.89-7.15,2.31-1.79,4.58-3.86,4.86-6.87.35-3.85.08-7.76.08-11.88-11.15,8.19-23.75,10.59-36.93,10.59-13.18,0-25.79-2.4-37.08-10.67Z"/>
  <path class="cls-1" d="m223.25,173.77c0,9.12.02,18.24-.03,27.36,0,1.24.25,1.96,1.47,2.59,3.87,2.01,5.89,6.21,5.22,10.38-.68,4.26-4.05,7.67-8.33,8.42-4.13.72-8.44-1.27-10.44-5.1-.67-1.29-1.43-1.57-2.75-1.57-13.12.04-26.24.03-39.36.02-.7,0-1.43.08-2.1-.07-1.79-.39-2.83-1.52-2.79-3.4.04-1.79,1.09-2.84,2.79-3.2.67-.14,1.4-.07,2.1-.07,13.05,0,26.1-.03,39.15.03,1.48,0,2.31-.31,3.11-1.7.8-1.4,2.08-2.76,3.48-3.51,1.54-.83,1.75-1.81,1.75-3.31-.04-17.96-.02-35.92-.02-53.88,0-.63-.04-1.27.03-1.89.2-1.85,1.61-3.13,3.36-3.11,1.76.02,3.12,1.3,3.31,3.17.06.56.03,1.12.03,1.68,0,9.05,0,18.1,0,27.15Zm-.02,38.7c-.02-1.81-1.53-3.31-3.34-3.32-1.8-.01-3.33,1.48-3.37,3.29-.04,1.89,1.56,3.48,3.44,3.43,1.81-.05,3.29-1.59,3.27-3.39Z"/>
</svg>