<?xml version="1.0" encoding="UTF-8"?>
<svg id="_Слой_1" data-name="Слой 1" xmlns="http://www.w3.org/2000/svg" viewBox="0 0 425.2 425.2">
  <defs>
    <style>
      .cls-1 {
        stroke-linecap: round;
        stroke-linejoin: round;
      }

      .cls-1, .cls-2 {
        fill: none;
        stroke: #000;
        stroke-width: 7px;
      }

      .cls-3 {
        stroke-width: 0px;
      }

      .cls-2 {
        stroke-miterlimit: 10;
      }
    </style>
  </defs>
  <g>
    <path class="cls-3" d="m102.23,271.09c.07-6.33,3.68-13.7,9.8-19.83,29.36-29.41,58.79-58.75,88.18-88.14,2.83-2.83,6.15-4.13,10.09-3.38,1.38.26,2.19-.08,3.13-1.02,12.19-12.25,24.48-24.4,36.59-36.72,3.3-3.35,6.74-4.25,11.2-2.9,9.75,2.95,19.58,5.64,29.37,8.46,4.24,1.22,4.92,3.87,1.8,7-17.21,17.23-34.42,34.45-51.67,51.64-1.08,1.07-1.46,2.02-1.19,3.53.68,3.84-.8,6.95-3.54,9.6-12.92,12.53-25.81,25.07-38.72,37.61-5.12,4.98-10.19,10.01-15.38,14.91-6.02,5.7-10.29,12.52-13.56,20.07-2.47,5.69-4.92,11.4-7.83,16.87-6.56,12.31-21.28,18.7-34.38,15.22-13.78-3.65-23.96-16.61-23.9-32.93Zm31.32,26.66c9.64.03,17.8-5.03,21.92-13.78,2.58-5.48,5.03-11.03,7.44-16.59,3.4-7.84,8.22-14.63,14.37-20.57,17.92-17.33,35.74-34.75,53.64-52.09,1.53-1.49,2.25-2.99,1.67-5.13-1.5-5.5-2.87-11.04-4.43-16.53-.21-.75-1.12-1.63-1.88-1.86-5.12-1.52-10.34-2.74-15.44-4.34-2.7-.85-4.51-.23-6.47,1.73-17.83,17.92-35.75,35.76-53.64,53.63-11.37,11.36-22.77,22.69-34.09,34.08-7.39,7.43-9.43,17.73-5.52,27.04,3.68,8.76,12.41,14.37,22.43,14.4Zm112.05-161.5c9.38,2.33,18.28,4.56,27.19,6.74.49.12,1.27.14,1.56-.15,3.3-3.2,6.54-6.47,10.02-9.95-9.09-2.59-17.78-5.07-26.47-7.49-.53-.15-1.39-.02-1.75.33-3.46,3.37-6.85,6.81-10.55,10.52Zm-15.27,15.03c.49.36.59.49.71.52,8.76,2.2,17.53,4.4,26.3,6.55.55.13,1.41.09,1.76-.25,3.01-2.9,5.95-5.89,8.92-8.87-.19-.17-.24-.25-.3-.26-8.96-2.27-17.91-4.56-26.89-6.78-.5-.12-1.29.15-1.68.52-2.94,2.79-5.82,5.64-8.82,8.58Zm22.6,13.04c-9.48-2.34-18.51-4.59-27.55-6.78-.45-.11-1.12.12-1.49.43-1.46,1.23-2.85,2.55-4.56,4.12,4.08,1.14,7.53,2.22,11.05,3.04,2.25.53,3.38,1.8,3.9,3.96.85,3.57,1.84,7.1,2.81,10.82.42-.29.67-.4.86-.59,4.88-4.88,9.76-9.77,14.98-15Z"/>
    <path class="cls-3" d="m196.01,218.77c-1.05.61-2.28,1.04-3.12,1.87-9.49,9.4-18.91,18.86-28.36,28.3-2.82,2.82-4.2,2.83-6.98.06-2.48-2.47-4.96-4.93-7.42-7.43-2.17-2.2-2.17-3.86.03-6.06,9.63-9.66,19.27-19.31,28.94-28.93.92-.92,1.43-1.76,1.23-3.15-.38-2.65.59-4.9,2.47-6.78,3.48-3.49,6.93-7.01,10.47-10.44,3.56-3.44,8.28-3.45,11.89-.01,2.79,2.66,5.52,5.39,8.18,8.18,3.49,3.67,3.42,8.4-.15,12.04-3.4,3.47-6.86,6.87-10.29,10.31-1.81,1.81-3.97,2.74-6.89,2.03Zm13.12-18.35c-.29-.5-.46-.99-.79-1.32-2.6-2.64-5.23-5.26-7.85-7.88-.99-.99-1.85-.72-2.75.18-3.26,3.29-6.54,6.56-9.83,9.82-.78.77-1.07,1.51-.21,2.37,2.81,2.8,5.59,5.64,8.5,8.35.33.3,1.62.09,2.05-.32,3.35-3.2,6.6-6.51,9.86-9.8.39-.39.65-.9,1.02-1.4Zm-48.22,41.85c9.22-9.22,18.43-18.44,27.57-27.58-1.15-1.18-2.43-2.5-3.58-3.69-9.22,9.22-18.43,18.44-27.53,27.54,1.11,1.16,2.37,2.49,3.54,3.73Z"/>
  </g>
  <circle class="cls-2" cx="264.54" cy="259.33" r="47.37"/>
  <line class="cls-1" x1="245.88" y1="239.94" x2="283.97" y2="278.03"/>
  <line class="cls-1" x1="283.97" y1="239.94" x2="245.88" y2="278.03"/>
</svg>