<?xml version="1.0" encoding="UTF-8"?>
<svg id="_Слой_1" data-name="Слой 1" xmlns="http://www.w3.org/2000/svg" viewBox="0 0 425.2 425.2">
  <defs>
    <style>
      .cls-1 {
        stroke-width: 0px;
      }
    </style>
  </defs>
  <path class="cls-1" d="m105.99,168.3v-55.74c.96-2.31,2.6-3.96,4.92-4.92h199.62c4,1.49,5.41,4.4,5.38,8.61-.13,16.18-.05,32.37-.05,48.55,0,6-2.43,8.43-8.44,8.43-64.32,0-128.64-.02-192.97.06-4.02,0-6.85-1.25-8.46-4.97Zm6.65-1.79h137.54v-52.2H112.64v52.2Zm196.56-52.17h-52.21v52.22h52.21v-52.22Z"/>
  <path class="cls-1" d="m105.99,240.44v-55.74c1.59-3.75,4.43-4.98,8.45-4.97,64.48.08,128.97.05,193.45.06,5.32,0,7.96,2.62,7.96,7.89,0,16.46,0,32.93,0,49.39,0,5.85-2.47,8.31-8.36,8.31-64.35,0-128.69-.02-193.04.06-4.03,0-6.85-1.25-8.46-4.97Zm144.19-53.96H112.72v52.21h137.46v-52.21Zm58.94,52.29v-52.29h-52.14v52.29h52.14Z"/>
  <path class="cls-1" d="m105.99,312.58v-55.74c1.59-3.75,4.43-4.98,8.45-4.97,64.48.08,128.97.05,193.45.06,5.32,0,7.96,2.62,7.96,7.88,0,16.46,0,32.93,0,49.39,0,5.85-2.47,8.31-8.36,8.31-64.35,0-128.69-.02-193.04.06-4.03,0-6.85-1.25-8.46-4.97Zm144.19-53.96H112.72v52.22h137.46v-52.22Zm6.79-.04v52.22h52.22v-52.22h-52.22Z"/>
  <path class="cls-1" d="m179.77,137.15c16.39,0,32.79,0,49.18,0,.68,0,1.38-.07,2.04.05,1.77.32,2.83,1.42,2.83,3.23,0,1.81-1.07,2.9-2.84,3.23-.6.11-1.23.05-1.84.05-32.93,0-65.85,0-98.78,0-.61,0-1.24.06-1.84-.05-1.76-.33-2.83-1.41-2.83-3.23,0-1.81,1.07-2.9,2.83-3.22.66-.12,1.36-.05,2.05-.05,16.39,0,32.79,0,49.18,0Z"/>
  <path class="cls-1" d="m283.01,145.72c3.64-3.65,6.99-7.04,10.38-10.4,1.49-1.47,3.2-1.64,4.6-.58,1.53,1.16,1.78,3.38.32,4.87-4.24,4.35-8.53,8.64-12.87,12.88-1.51,1.47-3.24,1.46-4.75-.02-4.29-4.2-8.53-8.45-12.73-12.73-1.45-1.48-1.42-3.46-.09-4.75,1.33-1.29,3.25-1.28,4.75.2,3.43,3.4,6.8,6.87,10.4,10.52Z"/>
  <path class="cls-1" d="m179.64,215.85c-16.39,0-32.79,0-49.18,0-.68,0-1.38.04-2.04-.07-1.65-.28-2.84-1.73-2.72-3.34.13-1.71,1.1-2.76,2.77-3.08.66-.13,1.36-.06,2.04-.06,32.86,0,65.72,0,98.57,0,.61,0,1.24-.06,1.84.04,1.78.29,2.81,1.35,2.92,3.16.1,1.69-1.19,3.11-2.97,3.32-.61.07-1.23.03-1.84.03-16.46,0-32.93,0-49.39,0Z"/>
  <path class="cls-1" d="m283.01,217.89c3.26-3.28,6.28-6.32,9.3-9.36.48-.48.94-1,1.46-1.43,1.41-1.18,3.23-1.16,4.46,0,1.29,1.21,1.46,3.23.13,4.6-4.29,4.39-8.63,8.73-13.03,13.01-1.44,1.4-3.15,1.37-4.59-.04-4.34-4.24-8.63-8.54-12.88-12.87-1.37-1.4-1.31-3.33-.07-4.6,1.29-1.32,3.28-1.37,4.75.09,3.44,3.4,6.8,6.89,10.47,10.61Z"/>
  <path class="cls-1" d="m179.78,287.99c-16.39,0-32.79,0-49.18,0-.68,0-1.38.07-2.04-.05-1.76-.32-2.83-1.41-2.84-3.22,0-1.81,1.06-2.9,2.83-3.23.6-.11,1.23-.05,1.84-.05,32.93,0,65.85,0,98.78,0,.61,0,1.24-.06,1.84.05,1.77.32,2.83,1.41,2.84,3.22,0,1.81-1.07,2.9-2.83,3.23-.66.12-1.36.05-2.04.05-16.39,0-32.79,0-49.18,0Z"/>
  <path class="cls-1" d="m283.07,290.03c3.65-3.69,7.01-7.08,10.36-10.48,1.12-1.14,2.58-1.71,3.86-.83.92.63,1.61,1.94,1.85,3.07.15.71-.55,1.81-1.17,2.45-4,4.1-8.06,8.15-12.14,12.17-1.94,1.92-3.58,1.92-5.5.02-4.08-4.03-8.12-8.08-12.16-12.15-1.6-1.62-1.73-3.52-.42-4.91,1.36-1.44,3.38-1.36,5.05.3,3.37,3.36,6.7,6.76,10.26,10.36Z"/>
</svg>