<?xml version="1.0" encoding="UTF-8"?>
<svg id="_Слой_1" data-name="Слой 1" xmlns="http://www.w3.org/2000/svg" viewBox="0 0 425.2 425.2">
  <defs>
    <style>
      .cls-1 {
        stroke-width: 0px;
      }
    </style>
  </defs>
  <path class="cls-1" d="m116.56,187.9c1.55-6.81,3.15-13.61,4.63-20.43,5.05-23.16,10.05-46.32,15.08-69.48.76-3.51,1.88-4.42,5.43-4.42,45.84,0,91.68-.01,137.52,0,11.59,0,20.2,7.85,20.53,19.42.38,13.3.14,26.61.1,39.92,0,2.78-1.71,4.44-4.1,4.36-2.34-.08-3.84-1.77-3.84-4.64-.04-12.61-.03-25.22,0-37.82,0-2.94-.4-5.74-2.18-8.19-2.64-3.62-6.26-5.12-10.69-5.12-31.75.03-63.5.01-95.26.01-9.73,0-19.46,0-29.18,0-.75,0-1.49,0-2.93,0,1.77,1.47,3,2.49,4.23,3.5,5.12,4.19,10.25,8.36,15.35,12.56,10.92,9,11.22,22.66.59,32.03-15.23,13.43-30.57,26.75-45.8,40.18-.79.7-1.45,2.04-1.45,3.09-.07,39.77-.07,79.54-.05,119.3,0,7.39,5.09,12.51,12.47,12.51,47.47.02,94.95.02,142.42,0,7.49,0,12.44-5.05,12.46-12.73.05-17.59.02-35.18.02-52.76,0-.78-.03-1.56.05-2.33.23-2.32,1.79-3.86,3.88-3.9,2.17-.04,3.8,1.57,4.03,4.01.06.62.04,1.24.04,1.87,0,17.35,0,34.71,0,52.06,0,11.66-5.36,18.52-16.71,21.49-.14.04-.25.18-.37.27h-148.97c-.59-.17-1.17-.35-1.76-.5-7.27-1.91-12.17-6.38-14.6-13.51-.32-.93-.61-1.86-.92-2.8,0-42.65,0-85.3,0-127.96Zm10.49-9.86c.87-.64,1.18-.85,1.46-1.09,12.94-11.32,25.92-22.59,38.79-33.99,6.08-5.39,5.72-13.55-.65-18.82-7.31-6.05-14.68-12.03-22.03-18.04-.45-.37-.98-.64-1.69-1.11-5.28,24.29-10.51,48.32-15.88,73.04Z"/>
  <path class="cls-1" d="m199.97,292.86c1.71-4.69,3.26-8.99,4.86-13.28,3.07-8.22,6.11-16.46,9.31-24.64.68-1.75,1.75-3.51,3.07-4.83,32.91-33.01,65.88-65.97,98.84-98.93,7.83-7.83,16.97-7.84,24.82-.02,3.2,3.19,6.41,6.36,9.57,9.58,7.01,7.15,7.08,16.6.03,23.66-33.33,33.37-66.68,66.7-100.07,100.01-1.01,1.01-2.36,1.81-3.7,2.32-11.54,4.4-23.1,8.76-34.69,13.01-1.85.68-3.93,1.02-5.91,1.04-9.26.11-18.52.05-27.78.05-.7,0-1.41.04-2.1-.04-2.4-.28-3.92-1.98-3.8-4.21.12-2.12,1.67-3.65,4.02-3.69,5.29-.07,10.58-.03,15.87-.04,2.64,0,5.27,0,7.67,0Zm100.58-113.96c-25.26,25.26-50.54,50.53-75.78,75.77,2.46,2.45,5.16,5.13,8.36,8.31.43-.66.8-1.48,1.39-2.08,10.21-10.26,20.45-20.49,30.69-30.71.6-.6,1.2-1.26,1.92-1.69,1.73-1.02,3.47-.89,4.9.57,1.43,1.47,1.51,3.2.46,4.91-.44.71-1.11,1.3-1.71,1.9-10.23,10.24-20.46,20.48-30.72,30.68-.58.58-1.51.8-1.73.91,3.32,3.44,6,6.2,8.51,8.8,25.13-25.16,50.36-50.42,75.43-75.51-2.59-2.59-5.33-5.32-8.48-8.46-.37.53-.78,1.33-1.38,1.93-8.34,8.38-16.71,16.74-25.08,25.1-.6.6-1.2,1.26-1.92,1.69-1.63.96-3.29.92-4.73-.41-1.52-1.4-1.68-3.12-.73-4.88.4-.73,1.05-1.34,1.65-1.94,8.41-8.43,16.83-16.84,25.25-25.27.59-.59,1.15-1.21,1.7-1.79-2.83-2.78-5.53-5.44-7.99-7.86Zm17.06-18.09c7.64,7.65,15.09,15.09,22.61,22.62,1.63-1.65,3.56-3.47,5.33-5.43,2.92-3.24,2.97-7.64,0-10.78-3.8-4-7.71-7.92-11.72-11.72-3.14-2.98-7.57-2.91-10.78,0-1.96,1.77-3.78,3.69-5.43,5.31Zm-109.16,131.78c10.59-3.97,20.69-7.76,30.68-11.51-6.46-6.44-12.76-12.72-19.18-19.11-3.73,9.94-7.51,20-11.5,30.62Zm125.14-103.01c-7.35-7.34-14.8-14.79-21.96-21.95-1.74,1.56-3.63,3.26-5.42,4.85,7.48,7.49,14.88,14.9,22.35,22.39,1.68-1.77,3.43-3.61,5.03-5.29Z"/>
  <path class="cls-1" d="m140.44,256.79c0,11.67.05,23.35-.07,35.02-.01,1.4-.61,3.15-1.57,4.1-1.91,1.89-5.14.79-6.01-1.82-.26-.79-.3-1.68-.3-2.52-.01-23.03-.01-46.07-.01-69.1,0-.31,0-.62,0-.93.12-2.74,1.71-4.42,4.12-4.35,2.33.07,3.8,1.68,3.82,4.36.04,6.46.01,12.92.01,19.38,0,5.29,0,10.58,0,15.87Z"/>
  <path class="cls-1" d="m239.99,157.34c10.03,0,20.06,0,30.09,0,.85,0,1.72-.02,2.56.13,2.03.35,3.15,1.63,3.23,3.68.08,2.05-.93,3.44-2.92,3.93-.96.24-2,.24-3.01.24-19.91.01-39.81.01-59.72,0-1,0-2.04,0-3.01-.24-1.98-.51-2.99-1.9-2.9-3.95.09-2.05,1.23-3.31,3.25-3.66.83-.14,1.7-.12,2.56-.12,9.95,0,19.91,0,29.86,0Z"/>
  <path class="cls-1" d="m244.07,141.36c-8.94,0-17.88.05-26.82-.05-1.3-.01-2.87-.4-3.82-1.2-2.21-1.84-1.31-5.45,1.44-6.38.79-.27,1.68-.33,2.52-.33,17.8-.02,35.6-.02,53.4,0,2.96,0,4.61,1.07,5.03,3.15.55,2.76-1.26,4.78-4.47,4.8-6.68.05-13.37.02-20.05.02-2.41,0-4.82,0-7.23,0Z"/>
  <path class="cls-1" d="m184.38,165.32c-2.49,0-4.98.05-7.47-.01-2.81-.08-4.5-1.62-4.51-3.98-.01-2.36,1.67-3.93,4.48-3.96,4.98-.06,9.96-.06,14.94,0,2.66.03,4.35,1.58,4.43,3.82.08,2.33-1.66,4.02-4.4,4.12-2.49.08-4.98.02-7.47.02Z"/>
  <path class="cls-1" d="m140.41,201.15c0,1.4.07,2.8-.02,4.19-.14,2.19-1.65,3.63-3.74,3.71-2.08.08-3.92-1.24-4.06-3.36-.2-3.02-.2-6.06,0-9.08.13-2.08,2.09-3.51,4.06-3.42,2.02.1,3.61,1.63,3.75,3.75.09,1.39.02,2.8.02,4.19Z"/>
  <path class="cls-1" d="m156.53,292.9c1.4,0,2.8-.08,4.19.02,2.07.16,3.48,1.62,3.57,3.61.1,2.16-.95,3.85-3.03,4.04-3.22.3-6.51.26-9.74,0-1.98-.16-3.31-2.2-3.05-4.06.29-2.07,1.44-3.44,3.63-3.59,1.47-.1,2.95-.02,4.43-.02Z"/>
  <path class="cls-1" d="m196.25,141.29c-1.48,0-2.96.11-4.42-.03-2.04-.2-3.25-1.43-3.43-3.48-.19-2.14.8-3.91,2.9-4.11,3.3-.31,6.66-.27,9.96,0,2.03.17,2.94,1.92,2.94,3.9,0,1.94-1.52,3.43-3.53,3.7-.15.02-.31.04-.46.04-1.32,0-2.64,0-3.96,0,0-.02,0-.03,0-.05Z"/>
</svg>