<?xml version="1.0" encoding="UTF-8"?>
<svg id="_Слой_1" data-name="Слой 1" xmlns="http://www.w3.org/2000/svg" viewBox="0 0 425.2 425.2">
  <defs>
    <style>
      .cls-1 {
        stroke-width: 0px;
      }
    </style>
  </defs>
  <path class="cls-1" d="m283.87,122.62c3.01,2.47,3.22,3.76,1.15,7.29-14.2,24.29-28.41,48.57-42.61,72.86-.38.66-.74,1.33-1.34,2.41,1.01,0,1.72,0,2.43,0,8.81,0,17.61.02,26.42-.02,1.94,0,3.67.27,4.61,2.18,1,2.02.04,3.59-1.25,5.12-33.37,39.86-66.74,79.73-100.1,119.6-.9,1.07-1.78,2.16-2.7,3.21-1.8,2.07-3.72,2.57-5.5,1.49-1.8-1.09-2.29-3.01-1.35-5.55,4.9-13.14,9.82-26.27,14.73-39.4,7.16-19.14,14.32-38.29,21.47-57.44.26-.7.47-1.41.79-2.37-1.05,0-1.81,0-2.57,0-9.51,0-19.01,0-28.52,0-4.4,0-6-2.2-4.61-6.32,11.15-33.05,22.28-66.1,33.51-99.12.5-1.46,1.85-2.63,2.8-3.93,27.54,0,55.09,0,82.63,0Zm-110.23,101.55c1.13,0,1.89,0,2.64,0,9.58,0,19.15,0,28.73,0,4.5,0,6.06,2.28,4.48,6.53-8.4,22.48-16.8,44.96-25.2,67.44-1.78,4.75-3.55,9.5-5.32,14.25.12.07.24.14.36.22,27.71-33.11,55.41-66.21,83.46-99.72-1.74,0-2.91,0-4.08,0-7.97,0-15.94.03-23.91-.02-3.84-.03-5.45-2.93-3.61-6.31.27-.49.57-.96.85-1.45,14.1-24.11,28.19-48.22,42.29-72.33.4-.69.78-1.39,1.33-2.39-1.04,0-1.66,0-2.28,0-22.02,0-44.04.02-66.06-.04-1.63,0-2.27.57-2.76,2.06-8.07,24.08-16.2,48.13-24.32,72.19-2.16,6.4-4.32,12.81-6.61,19.58Z"/>
</svg>