<?xml version="1.0" encoding="UTF-8"?>
<svg id="_Слой_1" data-name="Слой 1" xmlns="http://www.w3.org/2000/svg" viewBox="0 0 425.2 425.2">
  <defs>
    <style>
      .cls-1 {
        stroke-width: 0px;
      }
    </style>
  </defs>
  <path class="cls-1" d="m212.42,304.95c-35.51,0-71.01.04-106.52-.07-3.12,0-6.48-.44-9.31-1.65-7.14-3.04-10.67-11.27-8.31-19.03,6.59-21.7,13.29-43.36,20.06-65,2.08-6.64,8.07-10.88,15.08-10.95,6.56-.07,13.13-.03,19.69,0,2.95.01,4.85,1.66,4.78,4.04-.07,2.29-1.89,3.82-4.73,3.83-6.39.03-12.79,0-19.18.01-4.46.01-7.08,1.9-8.4,6.16-6.55,21.09-13.09,42.18-19.59,63.29-2.03,6.59,1.6,11.51,8.44,11.51,72.11.01,144.22.01,216.33,0,6.9,0,10.57-4.86,8.56-11.42-6.51-21.19-13.07-42.37-19.65-63.54-1.27-4.08-3.97-5.98-8.27-5.99-4.96-.02-9.93,0-14.89,0-3.18-.01-5.11-1.56-5.06-4.01.05-2.36,1.92-3.86,4.95-3.87,5.05-.02,10.1-.03,15.15,0,7.43.05,13.34,4.3,15.54,11.37,6.62,21.25,13.22,42.49,19.71,63.78,3.51,11.54-3.74,21.44-15.8,21.52-20.53.13-41.06.06-61.59.07-15.65,0-31.3,0-46.95,0v-.03Z"/>
  <path class="cls-1" d="m307.35,159.55c-4.34,0-8.69.15-13.02-.09-1.42-.08-3.13-.84-4.06-1.88-.66-.74-.76-2.83-.17-3.63.82-1.1,2.49-2.15,3.84-2.19,6.64-.22,13.29-.1,19.93-.1,7.51,0,7.73.22,7.73,7.78,0,6.39.01,12.79,0,19.18,0,3.22-1.49,5.13-3.93,5.13-2.44,0-3.93-1.91-3.94-5.12-.02-4.25,0-8.5,0-13.39-1.25,1.18-2.03,1.87-2.77,2.62-32.72,32.72-65.45,65.43-98.14,98.18-4.49,4.49-9.72,6.82-15.96,5.04-2.79-.8-5.69-2.35-7.75-4.36-11.87-11.56-23.52-23.35-35.22-35.09-2.11-2.11-2.25-4.24-.56-5.99,1.74-1.8,3.96-1.65,6.17.56,11.38,11.35,22.73,22.72,34.09,34.08,4.85,4.85,9.05,4.86,13.91,0,32.72-32.72,65.43-65.44,98.16-98.15.65-.65,1.5-1.1,2.25-1.64-.18-.31-.36-.62-.55-.93Z"/>
  <path class="cls-1" d="m168.27,167.88c.37-13.75,4.58-25.39,10.28-36.55,7.16-13.99,16.16-26.75,26.43-38.62,2.37-2.74,4.66-2.97,6.8-.46,13.95,16.33,26.17,33.76,33.26,54.28,3.53,10.22,5.3,20.67,2.35,31.43-4.93,18.01-22.02,30.43-40.64,29.53-18.91-.91-34.85-15.03-37.88-33.59-.38-2.32-.48-4.68-.61-6.01Zm40.13-67.22c-12.2,15.24-23.1,30.92-29.21,49.42-2.42,7.32-3.85,14.79-2.55,22.56,2.46,14.75,15.3,26.39,29.77,26.97,16.16.65,29.83-9.28,33.62-24.43,2.26-9.02.54-17.71-2.4-26.22-6.12-17.73-16.49-32.98-28.2-47.4-.2-.24-.48-.42-1.03-.89Z"/>
  <path class="cls-1" d="m190.9,171.35c.63.56,2.14,1.35,2.8,2.59,2.5,4.76,6.18,7.83,11.39,9.18,2.59.67,3.85,2.74,3.24,4.85-.66,2.31-2.72,3.32-5.42,2.62-7.35-1.91-12.73-6.25-16.04-13.09-1.47-3.03.13-6.05,4.03-6.15Z"/>
  <path class="cls-1" d="m189.8,151.18c2.47-.02,4.56,1.64,4.37,3.58-.22,2.21-.77,4.51-1.77,6.46-.49.96-2.45,1.84-3.53,1.64-1.22-.23-3.18-1.79-3.12-2.64.19-2.65,1.04-5.3,1.96-7.83.25-.69,1.64-.97,2.08-1.21Z"/>
</svg>