<?xml version="1.0" encoding="UTF-8"?>
<svg id="_Слой_1" data-name="Слой 1" xmlns="http://www.w3.org/2000/svg" viewBox="0 0 425.2 425.2">
  <defs>
    <style>
      .cls-1 {
        stroke-width: 0px;
      }
    </style>
  </defs>
  <path class="cls-1" d="m179.29,114.65c13.29,0,26.58-.02,39.86,0,25.34.05,50.68.12,76.02.17,1.4,0,2.87-.33,4.19-.01,1.4.33,3.19.89,3.91,1.95,11.77,17.44,23.39,34.97,35.05,52.49,1.21,1.81,1.15,3.48-.3,5.17-37.92,44.03-75.86,88.05-113.7,132.16-4.48,5.23-5.53,5.42-10.24-.07-37.22-43.44-74.57-86.77-111.88-130.14-.59-.69-1.2-1.36-1.82-2.03-1.44-1.57-1.47-3.24-.33-4.95,11.7-17.59,23.37-35.19,35.17-52.7.69-1.02,2.43-1.86,3.69-1.87,13.45-.13,26.91-.08,40.36-.08,0-.02,0-.05,0-.07Zm4.13,60.69c11.89,39.77,23.71,79.32,35.53,118.86.2-.01.39-.03.59-.04,11.82-39.57,23.65-79.13,35.51-118.82h-71.63Zm-73.22-.21c33.71,39.18,66.99,77.88,100.7,117.05-.14-1.06-.13-1.46-.24-1.83-11.31-37.82-22.64-75.64-33.9-113.48-.47-1.59-1.31-1.77-2.68-1.76-14.2.03-28.4.02-42.6.02-6.85,0-13.7,0-21.28,0Zm117.34,116.19c.16.12.32.24.47.37,33.3-38.71,66.6-77.42,100.27-116.56-1.51,0-2.32,0-3.13,0-19.97,0-39.93.05-59.9-.06-2.32-.01-3.24.66-3.89,2.87-8.59,29.07-17.29,58.1-25.96,87.15-2.61,8.75-5.23,17.49-7.85,26.24Zm-15.3-169.52h-66.98c11.27,14.87,22.3,29.43,33.5,44.2,11.22-14.81,22.24-29.36,33.48-44.2Zm80.95.04h-66.92c11.26,14.86,22.28,29.4,33.46,44.16,11.24-14.84,22.24-29.35,33.46-44.16Zm-107.29,46.09h66.68c-11.19-14.76-22.16-29.24-33.34-43.98-11.2,14.77-22.17,29.24-33.34,43.98Zm-14.2.12c-11.24-14.83-22.17-29.24-33.26-43.88-9.82,14.77-19.41,29.19-29.18,43.88h62.44Zm95.14-.08h62.33c-9.79-14.71-19.39-29.13-29.15-43.79-11.16,14.72-22.05,29.1-33.19,43.79Z"/>
</svg>