<svg id="Слой_1" data-name="Слой 1" xmlns="http://www.w3.org/2000/svg" viewBox="0 0 425.2 425.2"><path d="M239.37,149.87a35.51,35.51,0,1,1-71-.23c.09-17.82,13.55-35.19,35.62-35.09C226.39,114.65,239.37,132.36,239.37,149.87Zm-7.1-.14a28.41,28.41,0,1,0-28.39,28.48A28.43,28.43,0,0,0,232.27,149.73Z"/><path d="M203.85,185.56h0a35.83,35.83,0,0,1-35.73-35.92,36.37,36.37,0,0,1,9.64-24.43c4.66-5,12.95-10.91,26-10.91h.2c23.16.11,35.65,18.41,35.65,35.57h0A35.81,35.81,0,0,1,203.85,185.56Zm-.08-70.76c-12.9,0-21.08,5.84-25.67,10.75a35.81,35.81,0,0,0-9.5,24.1,35.35,35.35,0,0,0,35.23,35.42h0a35.31,35.31,0,0,0,35.27-35.2c0-16.92-12.31-35-35.15-35.07Zm.09,63.66a28.67,28.67,0,0,1-.11-57.33h.07a28.66,28.66,0,0,1,28.69,28.6h0a28.66,28.66,0,0,1-28.63,28.73Zm0-56.83h-.07a28.17,28.17,0,0,0,.11,56.33h0a28.17,28.17,0,1,0-.06-56.33Z"/><path d="M173,115.23a14.91,14.91,0,0,1-2.67,2.88c-1.4.89-2.85.32-4-.82-3-3-6-6-9-9-2-2-4-4-6-6-1.7-1.75-1.77-3.86-.24-5.34s3.56-1.28,5.22.36q7.56,7.49,15,15A14.68,14.68,0,0,1,173,115.23Z"/><path d="M168.93,118.79a4,4,0,0,1-2.75-1.33l-5.82-5.83-3.19-3.2-2-2c-1.31-1.3-2.67-2.64-4-4a4.41,4.41,0,0,1-1.4-3.12,3.62,3.62,0,0,1,1.17-2.57c1.55-1.49,3.84-1.34,5.57.37,5.88,5.82,10.65,10.6,15,15a6.75,6.75,0,0,1,1.11,1.79c.18.36.38.75.62,1.18l.09.15-.12.13c-.29.33-.56.67-.82,1a8.11,8.11,0,0,1-1.9,1.93A2.87,2.87,0,0,1,168.93,118.79ZM153.41,96.18a3,3,0,0,0-2.14.9,3.14,3.14,0,0,0-1,2.22,4,4,0,0,0,1.27,2.77c1.3,1.34,2.66,2.68,4,4l2.05,2,3.19,3.2,5.82,5.83c.72.72,2.15,1.77,3.7.79a7.53,7.53,0,0,0,1.78-1.82c.23-.29.47-.59.72-.88l-.54-1a6.24,6.24,0,0,0-1-1.66c-4.37-4.45-9.14-9.23-15-15A4,4,0,0,0,153.41,96.18Z"/><path d="M257.7,100a9.32,9.32,0,0,1-1.34,2.28q-7.47,7.6-15.05,15.08a3.41,3.41,0,0,1-5.07.13c-1.51-1.48-1.48-3.54.16-5.19q7.51-7.56,15.07-15.07a3.46,3.46,0,0,1,4-1C256.9,96.81,257.57,97.94,257.7,100Z"/><path d="M238.67,118.75a4,4,0,0,1-3.78-3.74,4.18,4.18,0,0,1,1.34-2.94q5.1-5.13,10.24-10.25L251.29,97a3.7,3.7,0,0,1,4.31-1c1.49.62,2.21,1.83,2.35,3.94V100l0,.07c-.07.13-.16.31-.25.51a6.33,6.33,0,0,1-1.13,1.81c-4.39,4.48-9.17,9.27-15,15.09A4,4,0,0,1,238.67,118.75ZM254.1,96.18a3.49,3.49,0,0,0-2.46,1.17l-4.82,4.82q-5.13,5.11-10.24,10.25a3.66,3.66,0,0,0-1.19,2.59,3.33,3.33,0,0,0,5.75,2.13c5.87-5.82,10.65-10.61,15-15.09a6,6,0,0,0,1-1.67c.09-.18.16-.35.24-.48-.14-1.87-.75-2.9-2-3.44A3.32,3.32,0,0,0,254.1,96.18Z"/><path d="M238.57,180.87a15.74,15.74,0,0,1,3,1.75q7.59,7.44,15.05,15a3.53,3.53,0,1,1-4.92,5c-5.07-5-10.11-10.1-15.16-15.15-1.22-1.22-1.69-2.73-.81-4.18C236.36,182.36,237.55,181.74,238.57,180.87Z"/><path d="M254.4,204.09a4.05,4.05,0,0,1-2.84-1.24q-4.94-4.9-9.83-9.83l-5.32-5.33c-1.41-1.41-1.72-3-.86-4.47a6.69,6.69,0,0,1,1.88-1.78c.32-.24.66-.49,1-.75l.13-.12.15.09c.43.24.84.44,1.21.62a6.84,6.84,0,0,1,1.88,1.16c5.25,5.15,10.34,10.26,15.06,15a4.18,4.18,0,0,1,1.29,3,3.83,3.83,0,0,1-3.73,3.69Zm-15.81-22.92c-.28.24-.58.46-.87.67a6.23,6.23,0,0,0-1.74,1.63,3.07,3.07,0,0,0,.78,3.87l5.32,5.33q4.9,4.92,9.83,9.83a3.28,3.28,0,0,0,4.73.15,3.18,3.18,0,0,0,1-2.26,3.68,3.68,0,0,0-1.15-2.59c-4.72-4.75-9.8-9.86-15.05-15a6.52,6.52,0,0,0-1.76-1.07Z"/><path d="M172.34,185.32a8.13,8.13,0,0,1-1.22,2.16q-7.51,7.65-15.15,15.19a3.53,3.53,0,1,1-4.91-5c5-5,10-10,15-15.05a3.46,3.46,0,0,1,4-.94C171.52,182.21,172.19,183.32,172.34,185.32Z"/><path d="M153.31,204.09a3.81,3.81,0,0,1-3.73-3.69,4.19,4.19,0,0,1,1.3-3q4.59-4.62,9.21-9.22c1.94-1.94,3.89-3.88,5.83-5.83a3.7,3.7,0,0,1,4.3-1c1.47.61,2.2,1.81,2.37,3.9v.08l0,.06c-.07.13-.15.3-.23.49a5.61,5.61,0,0,1-1,1.72c-4.43,4.52-9.25,9.35-15.15,15.2A4.09,4.09,0,0,1,153.31,204.09Zm15.4-22.51a3.44,3.44,0,0,0-2.44,1.16l-5.83,5.83q-4.6,4.6-9.21,9.22a3.75,3.75,0,0,0-1.16,2.6,3.14,3.14,0,0,0,1,2.26,3.28,3.28,0,0,0,4.73-.15c5.9-5.85,10.71-10.68,15.14-15.19a5.29,5.29,0,0,0,.94-1.58,4.09,4.09,0,0,1,.21-.46c-.16-1.86-.78-2.88-2.06-3.41A3.56,3.56,0,0,0,168.71,181.58Z"/><path d="M143.28,146.24H153.4c2.76,0,4.33,1.33,4.3,3.59s-1.58,3.51-4.21,3.51q-10.38,0-20.76,0c-2.41,0-4-1.44-3.94-3.59s1.57-3.49,4-3.5C136.3,146.23,139.79,146.24,143.28,146.24Z"/><path d="M142.71,153.6h-10a4.38,4.38,0,0,1-3.18-1.17,3.67,3.67,0,0,1-1-2.67c0-2.27,1.69-3.74,4.27-3.75H153.4a5,5,0,0,1,3.59,1.21,3.56,3.56,0,0,1,1,2.63c0,2.34-1.69,3.75-4.46,3.75ZM137,146.49h-4.19c-2.31,0-3.76,1.26-3.78,3.27a3.17,3.17,0,0,0,.88,2.31,3.86,3.86,0,0,0,2.82,1q10.38,0,20.76,0c2.5,0,3.95-1.2,4-3.27a3.08,3.08,0,0,0-.83-2.27,4.52,4.52,0,0,0-3.24-1.07H137Z"/><path d="M263.87,146.24c3.49,0,7,0,10.47,0,2.59,0,4.15,1.39,4.11,3.61s-1.57,3.48-4.06,3.48q-10.47,0-20.94,0c-2.39,0-3.95-1.46-3.92-3.61s1.56-3.47,3.87-3.48C256.89,146.23,260.38,146.24,263.87,146.24Z"/><path d="M263.62,153.6H253.45a4.33,4.33,0,0,1-3.15-1.18,3.68,3.68,0,0,1-1-2.69c0-2.21,1.69-3.71,4.12-3.72h21a4.61,4.61,0,0,1,3.37,1.21,3.57,3.57,0,0,1,1,2.65c0,2.3-1.69,3.72-4.31,3.73Zm-6.06-7.11H253.4c-2.17,0-3.59,1.28-3.62,3.23a3.19,3.19,0,0,0,.87,2.33,3.83,3.83,0,0,0,2.8,1c7.74,0,14.59,0,20.94,0,2.32,0,3.78-1.24,3.81-3.24a3.12,3.12,0,0,0-.83-2.3,4.22,4.22,0,0,0-3-1.06c-2.44,0-4.88,0-7.33,0h-9.45Z"/><path d="M200.31,89.23c0-3.37,0-6.75,0-10.12,0-2.43,1.44-4,3.58-4s3.5,1.53,3.51,4q0,10.2,0,20.42c0,2.49-1.35,4-3.47,4.06s-3.61-1.51-3.62-4.1C200.29,96.1,200.31,92.66,200.31,89.23Z"/><path d="M203.85,103.88a3.63,3.63,0,0,1-2.58-1,4.67,4.67,0,0,1-1.21-3.38c0-2.4,0-4.79,0-7.19V86.22q0-3.56,0-7.11c0-2.53,1.56-4.23,3.83-4.23h0c2.28,0,3.75,1.67,3.76,4.27,0,6.48,0,13.16,0,20.42,0,2.62-1.43,4.27-3.72,4.31Zm0-28.51h0c-2,0-3.31,1.47-3.33,3.74s0,4.74,0,7.11v6.12c0,2.4,0,4.79,0,7.19a4.11,4.11,0,0,0,1.06,3,3.13,3.13,0,0,0,2.3.83c2,0,3.23-1.46,3.23-3.81,0-7.27,0-13.94,0-20.42C207.15,76.82,205.9,75.37,203.89,75.37Z"/><path d="M207.41,210.36c0,3.31,0,6.63,0,9.94,0,2.59-1.4,4.15-3.61,4.11s-3.47-1.58-3.48-4.07q0-10.2,0-20.42c0-2.43,1.41-4,3.54-4s3.53,1.51,3.55,4C207.43,203.38,207.41,206.87,207.41,210.36Z"/><path d="M203.86,224.66h-.08c-2.29,0-3.71-1.7-3.72-4.32,0-7.51,0-14.19,0-20.42,0-2.56,1.49-4.24,3.79-4.27h.05a3.55,3.55,0,0,1,2.56,1,4.45,4.45,0,0,1,1.19,3.24c0,2.41,0,4.81,0,7.21v6.27q0,3.48,0,6.94a4.67,4.67,0,0,1-1.21,3.38A3.6,3.6,0,0,1,203.86,224.66Zm0-28.51h-.05c-2,0-3.28,1.5-3.29,3.77,0,6.23,0,12.91,0,20.42,0,2.36,1.21,3.79,3.23,3.82a3.19,3.19,0,0,0,2.3-.83,4.18,4.18,0,0,0,1.07-3c0-2.31,0-4.63,0-6.94v-6.27q0-3.6,0-7.2a4,4,0,0,0-1-2.9A3.08,3.08,0,0,0,203.9,196.15Z"/><path d="M212.22,325.88c-34.47,0-68.95,0-103.42-.07a23.62,23.62,0,0,1-9-1.6c-6.93-2.95-10.36-10.94-8.07-18.47q9.6-31.61,19.47-63.11A15.19,15.19,0,0,1,125.81,232c6.37-.06,12.74,0,19.11,0,2.87,0,4.71,1.61,4.64,3.92s-1.84,3.7-4.59,3.72c-6.21,0-12.42,0-18.63,0-4.32,0-6.87,1.84-8.15,6q-9.54,30.7-19,61.44c-2,6.4,1.55,11.18,8.2,11.18h210c6.71,0,10.27-4.71,8.31-11.09q-9.48-30.86-19.08-61.69c-1.23-4-3.85-5.8-8-5.82-4.82,0-9.64,0-14.46,0-3.09,0-5-1.52-4.91-3.89S281.08,232,284,232c4.9,0,9.8,0,14.7,0a15.3,15.3,0,0,1,15.09,11Q323.44,274,332.94,305c3.41,11.2-3.63,20.82-15.34,20.89-19.93.12-39.87.06-59.8.07H212.22Z"/><path d="M304.39,184.72c-4.22,0-8.44.14-12.65-.08a6.21,6.21,0,0,1-3.94-1.83,3.64,3.64,0,0,1-.16-3.52,5.59,5.59,0,0,1,3.72-2.13c6.45-.21,12.9-.1,19.36-.1,7.29,0,7.5.22,7.5,7.56q0,9.31,0,18.62c0,3.13-1.46,5-3.82,5s-3.82-1.86-3.83-5c0-4.13,0-8.26,0-13-1.21,1.14-2,1.82-2.69,2.54q-47.64,47.64-95.28,95.31c-4.36,4.37-9.44,6.62-15.49,4.89a18.38,18.38,0,0,1-7.53-4.23c-11.53-11.23-22.84-22.68-34.2-34.07-2-2-2.19-4.12-.55-5.82s3.85-1.6,6,.55q16.56,16.53,33.1,33.09c4.71,4.71,8.78,4.71,13.51,0q47.64-47.65,95.3-95.3a16.8,16.8,0,0,1,2.19-1.59Z"/></svg>