<?xml version="1.0" encoding="UTF-8"?>
<svg id="_Слой_1" data-name="Слой 1" xmlns="http://www.w3.org/2000/svg" viewBox="0 0 425.2 425.2">
  <defs>
    <style>
      .cls-1 {
        stroke-width: 0px;
      }
    </style>
  </defs>
  <g>
    <path class="cls-1" d="m262.86,109.55c.38.67,1.15.51,1.71.77,4.09,1.84,6.4,4.92,6.66,9.42.13,2.18-.07,4.38.49,6.52,1.41,5.3,6.17,8.86,12.04,8.96,3.5.06,6.99-.02,10.49.02,7.14.08,11.87,4.82,11.94,11.94.04,3.71.02,7.43,0,11.14-.01,2.52-1.29,4.06-3.29,4.02-1.98-.04-3.23-1.59-3.25-4.12-.03-3.64.02-7.28-.02-10.93-.04-3.65-1.86-5.46-5.56-5.5-3.42-.04-6.85.04-10.27-.02-11.01-.19-18.88-8.08-19.09-19.1,0-.51,0-1.02,0-1.53-.05-3.61-1.45-5.04-5.03-5.04-10.63-.01-21.27,0-31.9,0-20.61,0-41.23,0-61.84,0-4.18,0-5.46,1.28-5.48,5.46-.06,10.15-5.49,17.53-14.53,19.69-2.43.58-4.91.55-7.39.53-2.48-.02-4.95-.03-7.43,0-3.7.05-5.5,1.85-5.58,5.49,0,.15,0,.29,0,.44,0,20.98-.33,41.96.08,62.93.82,41.97,19.02,74.65,53.76,98.13,7.59,5.13,15.33,10.03,23.07,14.94,6.08,3.86,12.69,4.56,18.81.77,12.11-7.49,24.5-14.64,35.52-23.74,22.29-18.4,35.97-41.93,41.12-70.4,1.27-7.04,1.78-14.14,1.76-21.3-.03-11.07,0-22.14,0-33.21,0-.87-.06-1.74.31-2.58.64-1.43,1.75-2.17,3.28-2.02,1.61.16,2.65,1.1,2.92,2.76.07.43.05.87.05,1.31,0,11.87.26,23.75-.06,35.62-1.16,43.93-20.08,78.28-56.31,103.07-7.5,5.13-15.22,9.93-22.88,14.83-9.62,6.15-19.29,6.15-28.85-.1-9.8-6.4-19.97-12.27-29.3-19.35-26.66-20.21-42.69-46.95-48.33-79.9-1.14-6.68-1.53-13.44-1.51-20.23.04-20.39.18-40.79-.07-61.18-.09-7.39,5.27-13.38,12.91-12.86,2.76.19,5.53.03,8.3.03,8.92,0,13.77-4.83,13.8-13.75.02-6.3,2.28-9.51,8.16-11.62.11-.04.17-.2.26-.31,33.51,0,67.02,0,100.53,0Z"/>
    <polygon class="cls-1" points="299.66 155.14 299.65 179.58 306.2 178.26 306.21 157.77 299.66 155.14"/>
  </g>
  <path class="cls-1" d="m267.66,263.44c-.7,1.81-2.1,2.54-3.94,2.93-16.82,3.63-32.72,1.22-47.69-7.24-5.22-2.95-9.87-6.68-14.11-10.92-10.7-10.7-21.4-21.4-32.1-32.11-2.28-2.28-2.28-4.1,0-6.38,2.45-2.46,4.91-4.91,7.45-7.45-.37-.39-.68-.73-1.01-1.06-8.72-8.72-17.43-17.44-26.15-26.15-2.86-2.85-4.34-6.19-3.65-10.27.68-4.06,3-6.97,6.77-8.49,3.81-1.54,7.52-1.05,10.86,1.45.72.54,1.39,1.17,2.03,1.81,33.14,33.13,66.28,66.27,99.4,99.42.82.82,1.44,1.84,2.15,2.77v1.66Zm-74.6-66.42c-5.29,5.28-10.67,10.65-16.08,16.06.07.08.22.26.39.42,10,10,20,20.02,30.02,30.01,4.25,4.24,9.03,7.77,14.37,10.55,7.75,4.04,16,6.29,24.71,6.68,3.32.15,6.65-.12,10.12-.2-21.37-21.37-42.51-42.51-63.52-63.52Zm-5.26-5.57c-.15-.16-.31-.34-.48-.51-8.91-8.91-17.81-17.82-26.72-26.72-.22-.22-.45-.44-.7-.64-2.36-1.91-5.76-.71-6.37,2.25-.36,1.71.43,2.95,1.58,4.1,8.8,8.79,17.6,17.59,26.39,26.38.27.27.56.53.73.69,1.87-1.87,3.68-3.67,5.56-5.55Z"/>
</svg>