<?xml version="1.0" encoding="UTF-8"?>
<svg id="_Слой_1" data-name="Слой 1" xmlns="http://www.w3.org/2000/svg" viewBox="0 0 425.2 425.2">
  <defs>
    <style>
      .cls-1 {
        stroke-width: 0px;
      }
    </style>
  </defs>
  <path class="cls-1" d="m151.3,332.03c-2.68-1.08-5.53-1.88-8.01-3.31-7.24-4.18-13.41-15.62-6.62-26.46,4.14-6.62,9.41-12.19,15.22-17.31,1.48-1.31,3.16-1.44,4.67-.13,6.12,5.32,11.62,11.15,15.81,18.18,6.81,11.43-1.24,25.9-13.68,28.57-.47.1-.91.3-1.37.45h-6.01Zm2.99-40.05c-4.89,4.7-9.65,9.38-12.51,15.48-.88,1.87-1.18,4.33-.87,6.39.92,5.99,5.45,10.32,11.46,11.14,5.59.76,10.17-1.3,13.33-5.98,3-4.44,3.14-9.04.15-13.65-3.21-4.95-7.11-9.27-11.56-13.38Z"/>
  <path class="cls-1" d="m225.54,251.77c-1.6,1.73-3.14,3.5-4.8,5.16-4.2,4.18-9.14,4.31-13.54.43-7.46-6.57-16.73-6.3-23.81.74-5.23,5.19-10.38,10.46-15.65,15.6-3.66,3.57-8.79,4.35-13.3,2.28-4.49-2.07-7.25-6.63-6.95-11.59.19-3.13,1.49-5.77,3.71-7.98,4.97-4.95,9.92-9.91,14.87-14.87,7.48-7.49,7.81-16.47.9-24.44-3.59-4.15-3.46-9.14.41-13.07,1.7-1.73,3.5-3.37,5.35-5.14-.59-.66-.99-1.14-1.42-1.58-5.03-5.24-5.05-12.27.08-17.43,12.46-12.52,24.98-24.99,37.47-37.49,8.6-8.6,17.2-17.19,25.8-25.79,5.7-5.7,12.9-5.74,18.57-.08,18.32,18.3,36.63,36.61,54.93,54.93,5.58,5.59,5.59,12.6,0,18.19-20.88,20.9-41.77,41.79-62.66,62.67-6.2,6.2-12.51,6.26-18.96.24-.2-.19-.44-.34-1.01-.78Zm-38.61-77.26c20.99,21,42.1,42.12,63.09,63.12,14.28-14.29,28.67-28.68,42.93-42.95-21-20.98-42.12-42.09-63.11-63.08-14.25,14.25-28.65,28.65-42.9,42.91Zm-5.74,4.95c-1.29,1.4-2.61,2.9-4.02,4.33-3.65,3.71-3.68,5.98-.04,9.62,11.94,11.94,23.88,23.87,35.82,35.8,6.27,6.27,12.53,12.56,18.82,18.81,2.44,2.43,5.14,2.77,7.45.74,2.03-1.78,3.82-3.84,5.6-5.66-21.1-21.1-42.18-42.19-63.63-63.64Zm53.76-53.63c21.35,21.35,42.46,42.46,63.86,63.86,1.15-1.26,2.4-2.73,3.75-4.1,3.84-3.89,3.88-6.1.07-9.92-15.21-15.22-30.43-30.43-45.65-45.65-3.08-3.08-6.14-6.2-9.27-9.24-2.33-2.26-5.07-2.27-7.45-.08-1.84,1.69-3.6,3.46-5.32,5.12Zm-57.5,77.59c-1.58,1.65-2.99,3.15-4.43,4.62-2.33,2.37-2.34,3.07.03,5.44,12.69,12.7,25.39,25.39,38.09,38.09.35.35.68.94,1.08,1,1.02.14,2.42.48,3.06-.03,2.05-1.62,3.83-3.58,5.74-5.44-.45-.5-.67-.77-.92-1.02-14.11-14.12-28.21-28.23-42.65-42.67Zm18.06,42.05c-5.52-5.59-10.86-10.99-16.2-16.39l-.55.28c-.17,8.08-4.34,13.99-9.96,19.24-4.34,4.05-8.42,8.37-12.62,12.57-1.46,1.46-2.23,3.15-1.65,5.24,1.1,3.95,5.74,4.99,8.88,1.91,5.05-4.96,10.05-9.99,15.03-15.02,2.97-3,6.37-5.33,10.45-6.49,2.02-.57,4.13-.84,6.63-1.33Z"/>
  <path class="cls-1" d="m239.85,207.94c-12.84-.04-23.3-10.58-23.27-23.45.03-12.81,10.63-23.34,23.44-23.29,12.83.06,23.32,10.62,23.28,23.46-.04,12.83-10.61,23.32-23.46,23.28Zm.07-6.88c9.09,0,16.56-7.47,16.51-16.53-.04-8.99-7.43-16.41-16.4-16.46-9.1-.05-16.57,7.35-16.6,16.44-.02,9.1,7.39,16.55,16.48,16.55Z"/>
</svg>