<?xml version="1.0" encoding="UTF-8"?>
<svg id="_Слой_1" data-name="Слой 1" xmlns="http://www.w3.org/2000/svg" viewBox="0 0 425.2 425.2">
  <defs>
    <style>
      .cls-1 {
        stroke-width: 0px;
      }
    </style>
  </defs>
  <path class="cls-1" d="m162.03,281.51c7.62,11.43,3.51,23.03-3.57,28.81-7.72,6.31-18.95,6.24-26.7-.24-7.66-6.41-9.66-17.51-4.71-26.28,5.45-9.66,15.46-12.68,27.92-8.32,9.18-11.16,18.4-22.37,27.6-33.56-11.91-12.48-16.18-32.27-6.09-50.42-.31-.27-.62-.57-.96-.82-7.49-5.61-14.98-11.22-22.61-16.93-6.3,5.23-13.47,7.34-21.52,5.99-6.35-1.07-11.53-4.21-15.59-9.2-7.94-9.78-7.52-23.83.99-33.39,8.19-9.2,22.18-11.11,32.77-4.46,10.16,6.38,15.68,20.17,9.1,33.73,7.79,5.83,15.61,11.69,23.51,17.6,10.96-10.86,23.95-15.03,39.25-12.3.6-1.81,1.19-3.58,1.78-5.35,2.22-6.67,4.43-13.35,6.69-20.01.38-1.13.44-1.85-.68-2.76-6.85-5.51-9.04-14.08-5.75-21.91,3.22-7.65,11.09-12.3,19.24-11.38,8.37.95,14.86,7.17,16.41,15.7,1.98,10.95-6.73,21.29-18.21,21.6-.5.01-.99,0-1.63,0-2.99,8.98-5.96,17.91-9.02,27.08,11.37,5.65,19.01,14.53,22.75,26.83,4.27-.66,8.41-1.3,12.56-1.96,3.51-.56,7.01-1.17,10.53-1.68,1.23-.18,1.81-.55,2.03-1.96,1.49-9.63,10.33-16.64,19.64-15.72,10.27,1.01,17.58,9.1,17.33,19.15-.25,9.73-8.19,17.8-18.05,18.01-7.15.15-12.77-2.96-16.52-9.11-.73-1.2-1.39-1.5-2.73-1.28-7.65,1.29-15.32,2.48-22.6,3.65-.92,5.09-1.31,10.14-2.83,14.81-1.52,4.69-4.16,9.02-6.32,13.51,7.87,7.88,16.12,16.14,24.51,24.54,6.32-4.08,13.4-5.36,20.96-3.33,6.14,1.64,10.98,5.19,14.52,10.46,7.04,10.47,5.28,24.56-4.11,33.12-9.22,8.41-23.51,8.83-33.2.96-10.11-8.21-12.67-22.75-5.41-33.88-8.33-8.34-16.62-16.63-24.94-24.97-15.4,10.9-31.66,11.68-48.65,2.02-9.18,11.15-18.4,22.35-27.69,33.64Zm50.59-101.37c-17.81-.1-32.47,14.63-32.53,32.67-.05,17.62,14.55,32.32,32.28,32.49,17.9.17,32.7-14.4,32.85-32.35.15-18-14.47-32.71-32.6-32.81Zm55.85,104.61c-.02,8.91,7.27,16.3,16.11,16.34,9,.04,16.39-7.26,16.45-16.25.06-8.85-7.27-16.27-16.13-16.31-9.04-.05-16.41,7.23-16.42,16.21Zm-116.3-130.16c.04-8.93-7.14-16.2-16.1-16.32-8.95-.12-16.35,7.26-16.35,16.29,0,8.99,7.18,16.26,16.1,16.29,9.06.04,16.31-7.18,16.35-16.26Zm-18.48,139.55c.02,6.49,5.19,11.6,11.67,11.53,6.46-.06,11.57-5.28,11.51-11.73-.06-6.3-5.28-11.45-11.6-11.45-6.44,0-11.6,5.18-11.57,11.65Zm106.78-155.91c5.22.02,9.29-3.97,9.33-9.15.04-5.21-3.95-9.27-9.15-9.33-5.19-.06-9.31,3.98-9.33,9.15-.02,5.22,3.98,9.31,9.15,9.33Zm46.65,60.43c-.01,5.23,3.99,9.3,9.15,9.33,5.22.02,9.29-3.97,9.32-9.15.03-5.21-3.95-9.27-9.15-9.33-5.19-.06-9.31,3.99-9.32,9.15Z"/>
</svg>