<?xml version="1.0" encoding="UTF-8"?>
<svg id="_Слой_1" data-name="Слой 1" xmlns="http://www.w3.org/2000/svg" viewBox="0 0 425.2 425.2">
  <defs>
    <style>
      .cls-1 {
        stroke-width: 0px;
      }
    </style>
  </defs>
  <path class="cls-1" d="m208.43,171.22v-2.96c0-19.12,0-38.25,0-57.37,0-.87-.1-1.76.07-2.6.46-2.23,1.87-3.54,4.18-3.51,2.19.03,3.54,1.33,4,3.42.18.83.09,1.73.09,2.6,0,19.12,0,38.25,0,57.37v3.04c3.47-2.73,6.63-5.22,9.79-7.71.75-.59,1.47-1.23,2.26-1.76,2.07-1.4,4.39-1.1,5.82.7,1.45,1.83,1.29,4.13-.69,5.78-3.87,3.23-7.85,6.32-11.79,9.45-2.11,1.68-4.21,3.35-6.35,4.99-2.46,1.89-3.95,1.92-6.32.06-5.87-4.62-11.73-9.26-17.56-13.92-2.48-1.98-2.96-4.26-1.43-6.29,1.57-2.08,4.11-2.2,6.64-.23,3.67,2.86,7.3,5.76,11.3,8.93Z"/>
  <path class="cls-1" d="m216.78,252.22c0,20.49,0,40.39,0,60.29,0,.87.09,1.76-.07,2.6-.43,2.24-1.83,3.58-4.13,3.57-2.3-.02-3.69-1.37-4.09-3.62-.15-.84-.06-1.73-.06-2.6,0-19.9,0-39.79,0-60.18-3.24,2.54-6.19,4.86-9.14,7.18-.89.7-1.75,1.43-2.67,2.09-2.19,1.56-4.55,1.35-6.03-.49-1.51-1.87-1.26-4.24.83-5.96,3.35-2.76,6.79-5.42,10.19-8.11,2.59-2.05,5.16-4.11,7.77-6.14,2.45-1.91,3.95-1.98,6.31-.13,5.88,4.61,11.74,9.25,17.56,13.92,2.59,2.07,3.02,4.46,1.32,6.49-1.61,1.92-4.02,1.99-6.47.08-3.67-2.86-7.3-5.78-11.33-8.97Z"/>
  <g>
    <path class="cls-1" d="m315.41,191.4c-34.26,0-68.51,0-102.77,0s-69.03,0-103.55,0c-5.86,0-9.2,3.35-9.22,9.21-.02,7.13-.02,14.26,0,21.39.02,5.63,3.45,9.05,9.13,9.05,69.03,0,138.06,0,207.1,0,5.85,0,9.21-3.37,9.22-9.22.02-6.87,0-13.74,0-20.6,0-6.68-3.18-9.83-9.92-9.83Zm1.63,28.95c.05,1.95-.45,2.41-2.4,2.4-34.01-.07-68.02-.05-102.02-.05s-67.84-.02-101.76.05c-2.15,0-2.74-.47-2.68-2.66.17-6.08.12-12.18.02-18.26-.03-1.7.43-2.14,2.13-2.13,14.18.07,28.35.04,42.53.04,53.75,0,107.5.02,161.26-.06,2.34,0,3.02.53,2.94,2.92-.19,5.91-.15,11.83-.01,17.74Z"/>
    <path class="cls-1" d="m133.25,205.98c-.13-2.46-1.86-4.12-4.13-4.13-2.27,0-4.08,1.65-4.15,4.1-.1,3.46-.09,6.93,0,10.39.06,2.59,1.9,4.33,4.26,4.27,2.26-.06,3.93-1.76,4.04-4.23.08-1.73.02-3.46.01-5.2,0-1.73.07-3.47-.02-5.2Z"/>
    <path class="cls-1" d="m162.42,201.85c-2.37.05-3.99,1.78-4.08,4.45-.05,1.64-.01,3.29-.01,4.94,0,1.56,0,3.12,0,4.68,0,.09,0,.17,0,.26.13,2.65,1.75,4.4,4.12,4.43,2.36.03,4.14-1.71,4.21-4.33.08-3.38.08-6.76,0-10.13-.06-2.61-1.86-4.34-4.23-4.3Z"/>
    <path class="cls-1" d="m200.05,205.95c-.14-2.45-1.89-4.11-4.16-4.1-2.28,0-4.05,1.67-4.12,4.13-.1,3.46-.09,6.93,0,10.39.06,2.48,1.77,4.17,4.03,4.24,2.36.07,4.15-1.67,4.27-4.26.08-1.73.01-3.46.01-5.2,0-1.73.08-3.47-.02-5.2Z"/>
    <path class="cls-1" d="m229.22,201.85c-2.37.05-3.99,1.78-4.08,4.45-.05,1.64-.01,3.29-.01,4.94,0,1.56,0,3.12,0,4.68,0,.09,0,.17,0,.26.13,2.65,1.75,4.4,4.12,4.43,2.36.03,4.14-1.71,4.21-4.33.08-3.38.08-6.76,0-10.13-.06-2.61-1.86-4.34-4.23-4.3Z"/>
    <path class="cls-1" d="m266.84,205.83c-.16-2.41-2.01-4.06-4.27-3.98-2.17.07-3.92,1.68-3.99,3.99-.11,3.55-.11,7.1,0,10.65.07,2.45,1.87,4.12,4.14,4.12,2.27,0,4.01-1.67,4.14-4.13.09-1.73.02-3.46.02-5.2,0-1.82.09-3.64-.03-5.45Z"/>
    <path class="cls-1" d="m300.27,206.29c-.09-2.67-1.73-4.4-4.09-4.45-2.37-.04-4.16,1.7-4.22,4.3-.08,3.38-.08,6.76,0,10.13.06,2.61,1.85,4.36,4.21,4.32,2.36-.03,4.01-1.78,4.1-4.44.06-1.64.01-3.29.01-4.94,0-1.65.05-3.29-.01-4.94Z"/>
  </g>
</svg>