<?xml version="1.0" encoding="UTF-8"?>
<svg id="_Слой_1" data-name="Слой 1" xmlns="http://www.w3.org/2000/svg" viewBox="0 0 425.2 425.2">
  <defs>
    <style>
      .cls-1 {
        stroke-width: 0px;
      }
    </style>
  </defs>
  <path class="cls-1" d="m123.22,325.18c-3.3-1.43-6.92-2.4-9.84-4.4-5.63-3.84-8.41-9.58-8.54-16.42-.12-6.85-.1-13.71-.01-20.57.12-9.35,7.5-16.71,16.9-16.85,6.27-.1,12.54-.02,19.06-.02.06-1.09.15-2.06.15-3.04,0-48.5.03-97.01-.02-145.51,0-5.84,1.73-10.73,6.54-14.28,2.99-2.2,6.38-3.03,10.07-3.03,21.59.03,43.18.01,64.77.01,16.05,0,32.09,0,48.14,0,10.16,0,16.5,6.34,16.5,16.52,0,60.9-.09,121.81.07,182.71.04,13.92-9.95,23.34-20.11,24.57-.2.02-.38.2-.57.3H123.22Zm18.46-6.6h2.95c39.16,0,78.33,0,117.49,0,11.08,0,18.24-7.11,18.24-18.15,0-60.97,0-121.94,0-182.91,0-6.4-3.45-9.84-9.87-9.84-37.56,0-75.12,0-112.68,0-6.56,0-10.21,3.57-10.21,10.09,0,60.9,0,121.79.06,182.69,0,6.53-.93,12.65-5.98,18.12Zm-.72-45.03c-6.92,0-13.48-.17-20.02.05-5.11.17-9.41,4.79-9.5,9.98-.12,7.06-.19,14.14.03,21.19.26,8.53,8.51,15.05,16.89,13.62,7.71-1.31,12.55-7.06,12.61-15.17.06-8.23,0-16.46,0-24.69,0-1.59,0-3.18,0-4.99Z"/>
  <path class="cls-1" d="m194.86,220.18c.79-5.18,1.5-10.44,2.42-15.66.52-2.98,2.31-5.04,5.13-6.35,7.86-3.64,15.68-7.38,23.49-11.13,3.71-1.78,7.42-1.99,11.17-.22,8.3,3.92,16.59,7.85,24.86,11.81,2.34,1.12,3.62,3.12,4.2,5.57,4.47,18.87,1.7,36.46-9.48,52.49-4.72,6.77-10.66,12.35-17.32,17.18-4.54,3.29-10.1,3.55-14.53.41-13.78-9.76-23.79-22.29-27.7-39.02-1.14-4.86-1.5-9.91-2.24-15.07Zm6.64.03c.69,4.72,1.01,9.33,2.08,13.76,3.57,14.8,12.52,25.91,24.66,34.66,2.31,1.67,4.86,1.63,7.12-.1,2.78-2.12,5.57-4.27,8.06-6.7,15.7-15.36,21.24-33.8,16.42-55.26-.21-.92-.97-2.05-1.79-2.45-7.71-3.78-15.5-7.41-23.25-11.11-2.05-.98-4.01-1.01-6.08-.02-7.74,3.72-15.53,7.35-23.25,11.11-.78.38-1.61,1.37-1.76,2.2-.85,4.64-1.51,9.31-2.22,13.92Z"/>
  <path class="cls-1" d="m212.94,156.72c-16.62,0-33.25,0-49.87,0-.73,0-1.46.04-2.19-.04-1.86-.2-2.95-1.31-3.03-3.14-.08-1.85,1.01-2.99,2.81-3.35.63-.13,1.31-.07,1.96-.07,33.61,0,67.23,0,100.84,0,.66,0,1.34-.07,1.96.08,1.77.43,2.81,1.55,2.68,3.44-.12,1.76-1.16,2.78-2.89,3.02-.72.1-1.46.05-2.18.05-16.7,0-33.39,0-50.09,0Z"/>
  <path class="cls-1" d="m203.2,132.97c-13.41,0-26.82,0-40.24,0-.73,0-1.47.05-2.18-.06-1.84-.28-3.13-1.79-2.93-3.48.22-1.81,1.26-2.9,3.15-3.03.65-.05,1.31-.04,1.97-.04,26.82,0,53.65,0,80.47,0,.51,0,1.02-.01,1.53.01,2.27.11,3.57,1.31,3.57,3.27,0,1.92-1.36,3.29-3.57,3.31-5.32.06-10.64.02-15.96.02-8.6,0-17.2,0-25.8,0Z"/>
  <path class="cls-1" d="m225.54,299.41c-12.46,0-24.92,0-37.38,0-.66,0-1.32.04-1.97-.03-1.85-.21-2.93-1.28-3-3.14-.07-1.88,1.02-2.97,2.8-3.35.63-.13,1.31-.06,1.96-.06,25.14,0,50.27,0,75.41,0,.66,0,1.33-.08,1.96.06,1.77.39,2.87,1.46,2.78,3.36-.08,1.87-1.16,2.92-3.01,3.13-.65.07-1.31.03-1.97.03-12.53,0-25.06,0-37.6,0Z"/>
  <path class="cls-1" d="m234.84,173.92c9.55,0,19.11,0,28.66.01.94,0,2.16-.12,2.74.4.87.78,1.82,2.11,1.74,3.13-.08,1.01-1.26,2.08-2.2,2.81-.53.41-1.54.26-2.34.26-19.18.01-38.36,0-57.54,0-.36,0-.73.01-1.09-.02-2.18-.16-3.62-1.49-3.6-3.33.02-1.85,1.46-3.22,3.66-3.25,5.4-.06,10.79-.02,16.19-.02,4.59,0,9.19,0,13.78,0Z"/>
  <path class="cls-1" d="m181.59,269.13c6.48,0,12.96,0,19.45,0,2.73,0,4.19,1.2,4.14,3.35-.04,2.05-1.48,3.23-4.07,3.23-13.04.01-26.07,0-39.11,0-2.67,0-4.23-1.29-4.18-3.37.04-2.01,1.55-3.2,4.11-3.2,6.55-.01,13.11,0,19.66,0Z"/>
  <path class="cls-1" d="m175.96,180.53c-4.89,0-9.77.05-14.65-.02-2.09-.03-3.43-1.39-3.48-3.19-.05-1.89,1.33-3.23,3.52-3.38.36-.03.73-.01,1.09-.01,9.19,0,18.37,0,27.56,0,.29,0,.58,0,.87,0,2.28.12,3.63,1.3,3.68,3.21.05,1.99-1.35,3.35-3.73,3.38-4.96.06-9.92.02-14.87.02,0,0,0,0,0,0Z"/>
  <path class="cls-1" d="m176.18,245.33c4.74,0,9.47-.02,14.21,0,2.62.02,4.09,1.17,4.16,3.17.07,2.08-1.48,3.45-4.14,3.46-9.47.03-18.95.03-28.42,0-2.66,0-4.22-1.36-4.16-3.44.06-1.99,1.54-3.17,4.14-3.19,4.74-.03,9.47,0,14.21,0Z"/>
  <path class="cls-1" d="m173.57,197.75c3.79,0,7.57-.02,11.36,0,2.38.02,3.86,1.25,3.91,3.18.05,2.01-1.49,3.4-3.95,3.4-7.72.03-15.43.03-23.15,0-2.45,0-3.98-1.42-3.9-3.45.08-1.93,1.54-3.12,3.94-3.14,3.93-.02,7.86,0,11.79,0Z"/>
  <path class="cls-1" d="m173.46,228.08c-3.93,0-7.86.02-11.79,0-2.35-.02-3.83-1.3-3.84-3.24-.01-1.96,1.45-3.32,3.79-3.33,7.79-.03,15.58-.03,23.37,0,2.35,0,3.83,1.34,3.85,3.28.02,1.94-1.46,3.27-3.8,3.29-3.86.03-7.72,0-11.57,0Z"/>
  <path class="cls-1" d="m167.04,299.4c-1.9,0-3.79.04-5.69-.01-2.06-.05-3.45-1.32-3.53-3.11-.09-1.9,1.32-3.39,3.45-3.43,3.94-.07,7.87-.07,11.81,0,2.01.04,3.42,1.47,3.44,3.25.03,1.88-1.41,3.21-3.59,3.31-.15,0-.29,0-.44,0-1.82,0-3.64,0-5.47,0Z"/>
  <path class="cls-1" d="m261.63,126.39c1.16,0,2.33-.08,3.48.02,1.85.16,2.92,1.24,3,3.1.09,1.89-.98,3.17-2.76,3.33-2.44.22-4.94.22-7.38-.02-1.78-.18-2.8-1.51-2.68-3.38.12-1.86,1.21-2.91,3.07-3.04,1.08-.07,2.18-.01,3.26-.01Z"/>
  <path class="cls-1" d="m225.47,241.49c5.2-6.44,10.17-12.62,15.15-18.79,1.87-2.32,3.73-4.67,5.64-6.96,1.53-1.84,3.4-2.12,4.96-.85,1.49,1.22,1.59,3.22.13,5.05-6.75,8.41-13.49,16.82-20.31,25.16-2.87,3.51-7.29,3.77-10.6.74-2.69-2.46-5.31-4.99-7.92-7.52-1.69-1.63-1.86-3.6-.55-5.01,1.33-1.42,3.32-1.38,5.03.2,2.77,2.56,5.5,5.17,8.47,7.97Z"/>
</svg>