<?xml version="1.0" encoding="UTF-8"?>
<svg id="_Слой_1" data-name="Слой 1" xmlns="http://www.w3.org/2000/svg" viewBox="0 0 425.2 425.2">
  <defs>
    <style>
      .cls-1 {
        stroke-width: 0px;
      }

      .cls-2 {
        fill: none;
        stroke: #020202;
        stroke-linecap: round;
        stroke-linejoin: round;
        stroke-width: 6px;
      }
    </style>
  </defs>
  <g>
    <path class="cls-1" d="m102.01,215.32c.2-.42.46-.82.58-1.26.88-3.2,2.88-5.43,5.92-6.69,4.38-1.83,8.8-3.58,13.2-5.36,6.17-2.49,12.33-4.98,18.51-7.45.95-.38,1.93-.68,2.74-.97,1.52.28,2.62.84,3.12,2.17.7,1.84-.03,3.59-2.02,4.45-3.12,1.36-6.29,2.61-9.45,3.89-7.42,2.99-14.84,5.96-22.26,8.94-.59.24-1.19.46-1.72.79-2.14,1.36-2.19,4.38-.09,5.78.59.39,1.27.65,1.93.91,27.69,11.15,55.38,22.29,83.07,33.44,6.02,2.42,12.07,4.79,18.06,7.3,6.79,2.85,13.48,2.8,20.3.04,25.83-10.45,51.69-20.83,77.55-31.23,7.86-3.16,15.72-6.33,23.57-9.5.59-.24,1.18-.47,1.72-.8,2.41-1.43,2.42-4.6.02-6.02-.61-.36-1.29-.61-1.95-.88-10.06-4.05-20.12-8.1-30.18-12.15-.51-.21-1.02-.44-1.52-.66-1.39-.6-2.14-1.71-2.07-3.17.07-1.44.81-2.55,2.27-3.03.3-.1.6-.19,1.08-.33.7.24,1.53.48,2.33.8,10.14,4.06,20.29,8.13,30.42,12.2.95.38,1.9.8,2.81,1.28,3.55,1.89,5.35,4.99,5.37,8.89.02,3.9-1.71,7.1-5.28,8.93-2.46,1.26-5.07,2.23-7.64,3.27-28.5,11.47-57,22.94-85.5,34.4-3.53,1.42-7.05,2.84-10.57,4.28-8.4,3.44-16.79,3.37-25.19-.03-14.31-5.8-28.63-11.56-42.95-17.32-19.24-7.75-38.48-15.49-57.72-23.24-.95-.38-1.9-.8-2.81-1.27-2.46-1.24-4.05-3.24-4.94-5.82-.2-.58-.46-1.14-.69-1.72,0-.95,0-1.9,0-2.85Z"/>
    <path class="cls-1" d="m102.01,163.07c.2-.42.46-.82.58-1.26.88-3.2,2.88-5.43,5.92-6.69,4.38-1.83,8.8-3.58,13.2-5.36,6.17-2.49,12.33-4.98,18.51-7.45.95-.38,1.93-.68,2.74-.97,1.52.28,2.62.84,3.12,2.17.7,1.84-.03,3.59-2.02,4.45-3.12,1.36-6.29,2.61-9.45,3.89-7.42,2.99-14.84,5.96-22.26,8.94-.59.24-1.19.46-1.72.79-2.14,1.36-2.19,4.38-.09,5.78.59.39,1.27.65,1.93.91,27.69,11.15,55.38,22.29,83.07,33.44,6.02,2.42,12.07,4.79,18.06,7.3,6.79,2.85,13.48,2.8,20.3.04,25.83-10.45,51.69-20.83,77.55-31.23,7.86-3.16,15.72-6.33,23.57-9.5.59-.24,1.18-.47,1.72-.8,2.41-1.43,2.42-4.6.02-6.02-.61-.36-1.29-.61-1.95-.88-10.06-4.05-20.12-8.1-30.18-12.15-.51-.21-1.02-.44-1.52-.66-1.39-.6-2.14-1.71-2.07-3.17.07-1.44.81-2.55,2.27-3.03.3-.1.6-.19,1.08-.33.7.24,1.53.48,2.33.8,10.14,4.06,20.29,8.13,30.42,12.2.95.38,1.9.8,2.81,1.28,3.55,1.89,5.35,4.99,5.37,8.89.02,3.9-1.71,7.1-5.28,8.93-2.46,1.26-5.07,2.23-7.64,3.27-28.5,11.47-57,22.94-85.5,34.4-3.53,1.42-7.05,2.84-10.57,4.28-8.4,3.44-16.79,3.37-25.19-.03-14.31-5.8-28.63-11.56-42.95-17.32-19.24-7.75-38.48-15.49-57.72-23.24-.95-.38-1.9-.8-2.81-1.27-2.46-1.24-4.05-3.24-4.94-5.82-.2-.58-.46-1.14-.69-1.72,0-.95,0-1.9,0-2.85Z"/>
    <path class="cls-1" d="m102.01,267.64c.16-.27.41-.51.47-.8.82-3.96,3.39-6.29,7.02-7.71,4.2-1.64,8.37-3.37,12.56-5.05,6.17-2.48,12.34-4.96,18.51-7.43.51-.21,1.02-.45,1.55-.6,1.48-.4,3.21.37,3.83,1.65.69,1.43.27,3.38-1.04,4.25-.78.52-1.68.87-2.56,1.22-9.84,3.98-19.68,7.93-29.52,11.9-.73.3-1.49.56-2.16.97-2.18,1.34-2.26,4.33-.14,5.75.71.48,1.56.77,2.36,1.1,17.41,7.01,34.82,14,52.23,21.01,16.01,6.45,32,12.94,48.03,19.35,2.12.85,4.34,1.49,6.57,2,4.82,1.09,9.44.11,13.93-1.68,8.23-3.29,16.46-6.6,24.68-9.92,19.09-7.69,38.18-15.39,57.27-23.08,6.46-2.6,12.93-5.2,19.39-7.81.73-.3,1.49-.59,2.12-1.04,1.98-1.42,1.91-4.31-.15-5.62-.86-.55-1.84-.91-2.8-1.29-9.84-3.97-19.68-7.94-29.52-11.9-.51-.21-1.05-.38-1.53-.64-1.66-.92-2.31-2.8-1.58-4.48.64-1.46,2.8-2.28,4.23-1.66,3.19,1.39,6.46,2.62,9.69,3.91,7.49,3.01,14.98,6.03,22.48,9.03,1.71.68,3.29,1.53,4.59,2.88,4.29,4.5,3.54,11.91-1.63,15.36-1.04.7-2.22,1.22-3.39,1.69-19.97,8.06-39.95,16.1-59.92,24.15-13.59,5.47-27.19,10.9-40.75,16.45-5.25,2.15-10.62,3.08-16.25,2.6-3.02-.26-5.92-1.04-8.72-2.17-34.15-13.75-68.29-27.5-102.44-41.25-3.52-1.42-6.06-3.69-6.93-7.53-.06-.28-.32-.52-.49-.78,0-.95,0-1.9,0-2.85Z"/>
    <path class="cls-1" d="m338.42,154.83c-1.32-.53-2.64-1.07-3.96-1.61-32.61-13.14-65.23-26.26-97.83-39.43-8.66-3.5-17.18-3.45-25.86.07-29.86,12.11-59.77,24.1-89.66,36.14-4.04,1.63-8.08,3.25-12.12,4.89-3.29,1.33-5.55,3.58-6.44,7.1-.09.36-.36.67-.54,1.01v2.85c.14.19.36.36.4.57.85,4.26,3.66,6.59,7.52,8.13,19.48,7.79,38.94,15.64,58.39,23.5,1.57.63,3.15.93,4.85.93,5.2,0,10.4,0,15.6,0l-18.57-7.48c-.36-.1-.71-.23-1.07-.37-9.61-3.89-19.23-7.76-28.85-11.64-9.18-3.7-18.35-7.4-27.53-11.11-.66-.27-1.34-.51-1.95-.87-2.41-1.41-2.41-4.58,0-6.01.61-.36,1.29-.6,1.95-.87,17.4-7.01,34.81-14,52.21-21.01,16.08-6.48,32.16-12.96,48.23-19.46,3.4-1.38,6.9-2.29,10.63-2.42,3.39.15,6.68.88,9.87,2.17,16.22,6.54,32.45,13.07,48.68,19.6,17.33,6.98,34.65,13.96,51.98,20.95.73.3,1.47.58,2.18.93,1.34.65,2.03,1.73,1.98,3.24-.04,1.4-.71,2.44-1.97,3-1.66.75-3.35,1.43-5.04,2.11-17.47,7.04-34.96,14.05-52.41,21.15-.49.2-.96.34-1.42.43l-18.99,7.66c5.18,0,10.37,0,15.55,0,1.87,0,3.59-.34,5.3-1.04,11.15-4.53,22.32-9.02,33.48-13.52,8.45-3.4,16.9-6.8,25.35-10.18,4.33-1.74,6.88-4.94,6.94-9.58.05-4.2-1.86-7.82-6.89-9.84Z"/>
  </g>
  <line class="cls-2" x1="117.72" y1="225.6" x2="162.51" y2="207.42"/>
  <line class="cls-2" x1="142.48" y1="235.71" x2="187.27" y2="217.54"/>
  <line class="cls-2" x1="170.29" y1="245.93" x2="215.08" y2="227.76"/>
  <line class="cls-2" x1="200.28" y1="256.84" x2="326.01" y2="206.79"/>
</svg>