<?xml version="1.0" encoding="UTF-8"?>
<svg id="_Слой_1" data-name="Слой 1" xmlns="http://www.w3.org/2000/svg" viewBox="0 0 425.2 425.2">
  <defs>
    <style>
      .cls-1 {
        fill: none;
      }

      .cls-1, .cls-2 {
        stroke-width: 0px;
      }
    </style>
  </defs>
  <path class="cls-1" d="m164.56,165.92c2.29-3.51,5.51-5.24,9.73-5.24h.05c-2.57-3.28-3.2-6.84-1.9-10.8-3.83,1.38-7.41.85-10.83-1.61.24,4.03-1.4,7.24-5.03,9.89,4.05,1.06,6.69,3.62,7.98,7.77Z"/>
  <path class="cls-1" d="m316.28,255.09c-19.71-.03-39.25-.02-55.76,0h-.03c-2.87,0-4.59-.49-5.73-1.62-1.16-1.15-1.65-2.89-1.65-5.82,0-5.95,0-11.9,0-17.85,0-7.62,0-15.23,0-22.85,0-5.11-1.7-9.22-4.89-11.89-3.08-2.57-7.46-3.58-12.4-2.87v2.06c0,2.14,0,4.28,0,6.42.01,5.9.03,12-.06,18.01-.03,1.94-.49,3.92-1.3,5.59-2.28,4.7-4.66,9.45-6.96,14.04-2.03,4.06-4.14,8.25-6.16,12.39-1.52,3.1-3.77,4.48-7.08,4.41-2.98-.08-5.92-.06-9.02-.04-1.04,0-2.08.01-3.14.01-.02.14-.03.24-.03.35v9.65c-.01,26.58-.02,54.06.06,81.08,0,.74.59,1.87,1.24,2.39,3.79,3.02,7.92,6.11,12.97,9.73.74.53,1.82.88,2.69.89,26.52.06,54.41.07,82.88.03,2.62,0,4.98-.94,6.67-2.64,1.58-1.59,2.43-3.75,2.41-6.08-.05-4.81-3.91-8.48-8.98-8.55-2.34-.03-4.69-.02-7.04-.02-2.07,0-4.15.01-6.22,0-4.07-.04-6.69-2.33-6.66-5.86.02-3.48,2.67-5.75,6.73-5.77,3.03-.02,6.05-.01,9.08,0,2.8,0,5.6,0,8.4,0,5.58-.03,9.5-3.57,9.52-8.61.02-5.08-3.86-8.65-9.44-8.67-2.85-.01-5.71,0-8.56,0-2.98,0-5.95,0-8.92,0-4.12-.02-6.72-2.2-6.8-5.69-.04-1.59.48-2.98,1.48-4.01,1.22-1.25,3.09-1.92,5.41-1.93,3.73-.01,7.46-.01,11.18,0,3.61,0,7.21,0,10.82,0,2.98,0,5.59-.99,7.34-2.77,1.54-1.56,2.34-3.64,2.31-5.99-.06-5-4.01-8.51-9.61-8.53-3.57,0-7.14,0-10.71,0-3.77,0-7.53,0-11.29,0-2.34,0-4.22-.67-5.44-1.91-1-1.02-1.52-2.4-1.5-3.98.05-3.59,2.69-5.73,7.06-5.74,3.69,0,7.37,0,11.06,0,5.36,0,10.71,0,16.06-.02,5.32-.03,9.18-3.66,9.19-8.63,0-5-3.85-8.63-9.17-8.64Z"/>
  <path class="cls-1" d="m163.67,358.97h26.58v-103.76h-26.58v103.76Zm14.16-48.72c1.05-1.08,2.52-1.69,4.16-1.71h0c1.63,0,3.16.56,4.24,1.63,1.08,1.06,1.67,2.56,1.66,4.2,0,1.64-.6,3.13-1.68,4.19-1.06,1.05-2.53,1.62-4.15,1.62-.03,0-.06,0-.09,0-3.24-.04-5.65-2.42-5.72-5.66-.04-1.66.52-3.18,1.58-4.28Z"/>
  <path class="cls-1" d="m327.93,148.34c-3.19,2.41-6.79,2.9-10.89,1.47,1.4,3.87.8,7.41-1.82,10.89.16,0,.32,0,.47,0,3.83,0,6.9,1.74,9.3,5.26,1.21-4.07,3.85-6.64,7.99-7.78-3.48-2.45-5.14-5.69-5.05-9.83Z"/>
  <path class="cls-1" d="m239.25,119.72c1.82-1.01,3.64-1.52,5.48-1.52s3.72.51,5.62,1.54c-.83-4.11.29-7.61,3.4-10.6-4.15-.49-7.12-2.61-8.98-6.44-1.76,3.75-4.72,5.9-8.95,6.49,3.05,2.86,4.19,6.33,3.43,10.53Z"/>
  <path class="cls-2" d="m334.02,257.64c-2.73-7.76-9.58-12.21-18.78-12.21-11.49,0-22.97,0-34.45,0h-18.04s0-5.09,0-5.09c0-3.61,0-7.23.01-10.84.02-8.11.04-16.49-.07-24.73-.14-10.67-6.01-18.26-16.1-20.84-4.01-1.02-8.6-1.47-14.01-1.37-5.75.1-6.41.8-6.41,6.81,0,2.39,0,4.78.01,7.17.01,6.45.03,13.12-.07,19.68-.03,2.02-.55,4.19-1.46,6.12-1.5,3.16-3.09,6.34-4.64,9.4-1.6,3.19-3.26,6.49-4.81,9.76-1.35,2.88-3.11,4-6.25,4h-.04c-28.87-.1-58.22-.09-86.6-.08h-20.11c-.28,0-.56,0-.85,0-.8-.02-1.56-.04-2.24.11-2.06.46-3.11,1.7-3.12,3.7-.01,1.98,1.03,3.24,3.09,3.74.6.15,1.29.13,2.02.11.25,0,.5-.03.74-.01,12.7,0,25.4,0,38.1,0h13.62v98.49h-51.28c-.26-.03-.57,0-.86-.01-.71-.02-1.37-.04-1.99.06-2.2.34-3.33,1.56-3.46,3.71-.12,1.93,1.38,3.58,3.48,3.84.59.07,1.21.06,1.87.05.24,0,.48,0,.72,0h51.77s0,1.96,0,1.96c0,.54,0,.98,0,1.42.06,5.5.82,6.27,6.22,6.27h31.05c4.22,0,6.55,0,7.53-.91,1-.92,1.24-3.31,1.69-7.63l.18-1.76,1.41,1.06c1.07.8,2.11,1.59,3.13,2.36,2.5,1.9,4.86,3.69,7.31,5.37,1.32.9,2.74,1.45,3.8,1.45,26.71.08,56.99.18,86.8,0,5.39-.03,10.41-2.51,13.77-6.81,3.45-4.4,4.67-10.04,3.36-15.47-.45-1.85-1.26-3.62-2.13-5.49-.4-.88-.81-1.75-1.18-2.65l-.3-.73.63-.46c7.32-5.35,12.31-15.36,4.38-27.41l-.52-.79.75-.56c9.55-7.17,11.29-17.72,4.54-27.55l-.44-.64.51-.58c.05-.06.1-.12.15-.18.14-.18.32-.41.56-.6,7.36-6.01,9.78-13.36,7-21.25Zm-141.77,103.33h-30.58v-107.76h30.58v107.76Zm124.02-86.61c-5.36.03-10.72.02-16.07.02-3.68,0-7.37,0-11.06,0-2.29,0-5.03.66-5.07,3.77-.01,1.05.3,1.91.93,2.55.84.85,2.23,1.31,4.02,1.31,3.76.01,7.52.01,11.28,0,3.57,0,7.15,0,10.72,0,6.75.02,11.52,4.34,11.6,10.5.04,2.9-.96,5.46-2.88,7.42-2.13,2.16-5.24,3.36-8.76,3.37-3.61.01-7.22.01-10.82,0-3.72,0-7.45,0-11.18,0-1.77,0-3.15.46-3.99,1.32-.63.65-.94,1.51-.92,2.57.07,3.23,3.04,3.73,4.81,3.74,2.97.02,5.94.01,8.91,0,2.86,0,5.71,0,8.57,0,6.65.03,11.46,4.53,11.43,10.68-.02,6.11-4.86,10.57-11.51,10.6-2.8.01-5.61,0-8.42,0-3.02,0-6.04,0-9.07,0-3,.02-4.72,1.4-4.74,3.79-.02,2.38,1.73,3.81,4.68,3.84,2.07.02,4.13.01,6.2,0,2.36,0,4.71-.01,7.07.02,6.19.08,10.9,4.61,10.96,10.53.03,2.87-1.04,5.53-2.99,7.51-2.06,2.08-4.93,3.23-8.09,3.24-11.06.01-22.02.02-32.86.02-17.07,0-33.81-.02-50.03-.05-1.29,0-2.77-.49-3.85-1.26-5.08-3.64-9.23-6.75-13.05-9.79-1.13-.9-1.99-2.6-1.99-3.95-.07-27.03-.07-54.51-.06-81.09v-9.65c0-.22.03-.44.07-.79.02-.17.05-.39.08-.67l.1-.89h.9c1.35,0,2.69,0,4.01-.02,3.12-.02,6.08-.04,9.09.04,2.5.09,4.05-.88,5.23-3.29,2.03-4.15,4.14-8.35,6.17-12.41,2.3-4.58,4.68-9.32,6.95-14.01.67-1.39,1.08-3.12,1.1-4.75.09-5.99.08-12.08.06-17.97,0-2.14,0-4.29,0-6.43v-3.75l.82-.15c5.87-1.06,11.14.07,14.86,3.17,3.61,3.01,5.6,7.78,5.61,13.42,0,7.62,0,15.23,0,22.85,0,5.95,0,11.9,0,17.85,0,2.31.33,3.67,1.06,4.4.72.72,2.06,1.04,4.32,1.04h.03c16.51-.02,36.04-.03,55.76,0,6.37.01,11.17,4.59,11.17,10.64,0,6.03-4.81,10.59-11.18,10.63Z"/>
  <path class="cls-2" d="m224.3,111.97c1.12,1.05,2.27,2.14,3.32,3.31.95,1.06,1.54,2.89,1.39,4.34-.15,1.52-.43,3.04-.71,4.5-.36,1.91-.69,3.72-.77,5.55-.07,1.6.65,3.61,1.54,4.32.73.58,2.82.62,4.22.07,1.79-.7,3.54-1.66,5.24-2.58,1.33-.73,2.7-1.48,4.11-2.12,1.25-.57,3.06-.57,4.31,0,1.42.64,2.79,1.39,4.12,2.11,1.7.92,3.45,1.88,5.24,2.57,1.4.54,3.5.51,4.22-.07.9-.72,1.63-2.74,1.55-4.31-.1-1.97-.46-3.9-.85-5.95-.27-1.43-.55-2.9-.73-4.38-.15-1.29.37-2.92,1.25-3.87,1.33-1.44,2.75-2.81,4.12-4.14,1.19-1.14,2.41-2.33,3.56-3.53,1.23-1.3,1.7-2.78,1.29-4.07-.41-1.3-1.66-2.25-3.42-2.6-3.89-.78-7.06-1.26-10-1.5-2.28-.19-3.61-1.16-4.59-3.37-1.35-3.05-2.7-6.01-4.39-8.74-.5-.81-1.4-1.51-2.43-2.31-.36-.28-.74-.58-1.14-.9-.4.33-.78.63-1.14.91-1.03.81-1.92,1.51-2.42,2.32-.95,1.58-1.77,3.3-2.56,4.97-.69,1.45-1.4,2.94-2.21,4.37-.68,1.21-2.15,2.29-3.5,2.57-2.95.62-5.98,1.03-8.9,1.43l-1.57.21c-1.22.17-3.29.74-3.41,2.63-.1,1.41.5,3.24,1.41,4.35,1.14,1.4,2.46,2.63,3.84,3.93Zm8.87-4.61h.07c5.75,0,9-2.39,10.54-7.73l.92-3.18,1,3.15c1.74,5.5,5.02,7.85,10.69,7.63l3.35-.14-2.73,1.95c-4.71,3.37-5.99,7.38-4.01,12.63l1.21,3.21-2.75-2.05c-4.69-3.51-8.77-3.52-13.23-.03l-2.64,2.07,1.07-3.18c1.85-5.48.6-9.33-4.06-12.5l-2.7-1.84h3.27Z"/>
  <path class="cls-2" d="m142.51,164.3c1.68.74,3.45,1.23,5.32,1.75,1.43.39,2.91.8,4.34,1.33,1.38.51,2.77,1.85,3.31,3.17.58,1.43,1.04,2.92,1.48,4.36.57,1.84,1.1,3.57,1.88,5.22.71,1.5,2.27,2.99,3.27,3.13.59.08,1.79-.25,4.16-2.25,1.11-.94,1.95-2.41,2.68-3.85,1.89-3.69,5.21-8.37,12.26-6.44.5,0,1,.04,1.51.07,1.15.07,2.24.14,3.18-.12,2.01-.56,3.58-1.4,4.42-2.37.32-.37,1.31-1.51-.79-4.23-.59-.77-1.18-1.55-1.76-2.33-1.19-1.6-2.43-3.25-3.73-4.77-1.86-2.17-2.23-4.24-1.21-6.7,1.4-3.35,2.21-5.93,2.63-8.37.28-1.63-.04-3.61-.78-4.81-.28-.45-1.11-1.8-4.56-.58-.88.31-1.75.63-2.62.96-2.21.82-4.49,1.66-6.81,2.3-1.4.39-3.3.12-4.52-.64-2.21-1.38-4.32-2.95-6.36-4.47-.68-.5-1.35-1.01-2.03-1.5-1.27-.93-2.2-1.21-2.86-1.21-.77,0-1.19.38-1.39.56-1.17,1.08-2.11,2.89-2.23,4.31-.12,1.45.03,3.05.17,4.61.25,2.73.51,5.56-.63,7.85-1.15,2.31-3.58,3.83-5.93,5.3-1.31.82-2.67,1.67-3.75,2.63-1.11.99-2.05,2.9-1.86,3.8.24,1.12,1.73,2.68,3.19,3.32Zm10.87-6.47c5.37-2.99,7.12-6.52,5.87-11.79l-.79-3.33,2.46,2.37c4.14,4,8.13,4.6,12.94,1.96l2.81-1.54-1.44,2.87c-2.51,5-1.81,8.94,2.25,12.78l2.31,2.18-3.14-.47c-5.58-.83-9.25,1.16-11.56,6.26l-1.37,3.03-.53-3.28c-.93-5.8-3.84-8.63-9.43-9.18l-3.18-.31,2.79-1.56Z"/>
  <path class="cls-2" d="m344.12,153.96c-2.09-1.17-8.42-4.7-5.74-11.68,0-.69.04-1.34.07-1.96.07-1.34.13-2.49-.14-3.48-.58-2.17-1.41-3.7-2.27-4.19-.72-.42-2.6-.15-4.27.61-1.7.77-3.46,2.02-5.07,3.62-3.45,3.42-7.16,3.99-11.34,1.74-2.04-1.1-4.07-1.8-5.87-2.03-2.04-.26-3.94,0-4.62.66-.73.7-1.11,2.8-.82,4.5.49,2.83,1.52,5.6,2.73,8.67.95,2.42.65,4.32-.96,6.18-1.33,1.53-2.57,3.2-3.78,4.81-.63.84-1.26,1.69-1.91,2.52-1.34,1.73-1.6,3.04-.9,4.52.75,1.58,2.02,2.26,4.22,2.26h.07c.78,0,1.57-.02,2.35-.03,1.02-.01,2.05-.03,3.08-.03,1.52,0,3.05.03,4.57.14,1.46.11,3.18,1.01,4.08,2.14.96,1.2,1.81,2.49,2.63,3.73,1.01,1.54,1.97,2.99,3.11,4.29,1.1,1.26,2.88,2.26,4.23,2.4,1.96.19,2.9-1.91,3.28-3.18.98-3.2,1.99-6.52,3.28-9.76.51-1.27,1.82-2.53,3.11-3,1.41-.51,2.87-.92,4.28-1.31,1.89-.53,3.68-1.02,5.38-1.76,1.57-.68,3.11-2.18,3.3-3.19.16-.86-.61-2.43-2.05-4.21-.98-1.21-2.53-2.13-4.03-2.97Zm-8.26,5.67c-5.74.71-8.65,3.53-9.44,9.17l-.44,3.15-1.44-2.84c-2.72-5.37-6.3-7.25-11.58-6.12l-3.27.7,2.35-2.38c4.12-4.18,4.78-8.17,2.15-12.96l-1.55-2.82,2.87,1.44c5.3,2.66,9.29,2.09,12.96-1.83l2.32-2.49-.61,3.35c-1,5.5.85,9.11,6.01,11.73l2.92,1.49-3.25.4Z"/>
  <path class="cls-2" d="m182,318.19c1.1,0,2.11-.36,2.81-1.05.71-.7,1.08-1.65,1.08-2.77,0-1.12-.37-2.08-1.07-2.77-.71-.7-1.7-1.06-2.81-1.05-1.11.01-2.06.39-2.74,1.1-.69.72-1.05,1.7-1.02,2.84.05,2.15,1.59,3.67,3.75,3.7Z"/>
</svg>