<svg id="Слой_1" data-name="Слой 1" xmlns="http://www.w3.org/2000/svg" viewBox="0 0 425.2 425.2"><defs><style>.cls-1{stroke:#000;stroke-miterlimit:10;stroke-width:0.51px;}</style></defs><path d="M98.17,250c.07,0,.19-.06.2-.12,1.21-4.08,4.15-6.3,8-7.8,9.9-3.87,19.74-7.89,29.61-11.86a14.11,14.11,0,0,1,1.74-.66,3.49,3.49,0,0,1,2.73,6.31,14.45,14.45,0,0,1-2.11,1l-30,12.1c-.22.09-.45.14-.67.22a3.31,3.31,0,0,0-2.43,3.1c0,1.73,1,2.68,2.5,3.28l21.61,8.68Q168.74,280,208.16,296a25.1,25.1,0,0,0,19.7-.06q43.29-17.49,86.62-34.9L326.79,256l1.3-.52a3.36,3.36,0,0,0,2.5-3.29c0-1.72-1.15-2.61-2.63-3.19-2.31-.91-4.61-1.86-6.91-2.79l-24-9.66a11.52,11.52,0,0,1-1.49-.64,3.47,3.47,0,0,1,2.75-6.36c1.76.61,3.47,1.38,5.2,2.07l26.15,10.49c.65.26,1.29.53,1.92.83a9.77,9.77,0,0,1,6,9.48,9.56,9.56,0,0,1-6.07,9.17c-3.56,1.57-7.19,2.94-10.79,4.39Q275.37,284.3,230,302.58a31.21,31.21,0,0,1-24.29,0q-41.88-16.92-83.8-33.79c-5.4-2.17-10.76-4.45-16.2-6.51-3.59-1.37-6.15-3.56-7.21-7.32,0-.12-.22-.2-.34-.3Z"/><path d="M98.17,301.41c.07-.05.18-.07.2-.13,1.15-4.12,4.06-6.34,7.91-7.84,9.9-3.87,19.74-7.91,29.6-11.88a12.67,12.67,0,0,1,1.74-.66,3.39,3.39,0,0,1,4.12,2.17,3.35,3.35,0,0,1-1.51,4.21,17.47,17.47,0,0,1-2.34,1l-29.78,12.05a8.57,8.57,0,0,0-1.29.54,3.15,3.15,0,0,0-.17,5.42,9.53,9.53,0,0,0,1.69.75l96.09,38.73c1.8.72,3.6,1.45,5.42,2.11a22.82,22.82,0,0,0,16.43-.12c8.1-3.15,16.15-6.42,24.21-9.66L327,307.36c.58-.23,1.13-.52,1.7-.77a3.05,3.05,0,0,0,1.94-2.93,3,3,0,0,0-1.92-2.93c-1.78-.79-3.59-1.48-5.39-2.21l-26.34-10.63a11.21,11.21,0,0,1-1.28-.55,3.49,3.49,0,0,1,2.44-6.46,8.71,8.71,0,0,1,1.53.54l30.24,12.15c.58.24,1.14.51,1.7.77a10.22,10.22,0,0,1,0,18.64c-3.25,1.49-6.61,2.71-9.92,4q-45.24,18.23-90.48,36.45a35.77,35.77,0,0,1-11,2.8A31.48,31.48,0,0,1,206,354q-50.22-20.22-100.43-40.43c-3.34-1.35-5.9-3.4-7-7,0-.19-.28-.33-.43-.49Z"/><path class="cls-1" d="M257.36,130a36.41,36.41,0,1,1-72.82-.23c.09-18.28,13.89-36.09,36.52-36C244.05,93.93,257.37,112.09,257.36,130Zm-7.28-.14A29.14,29.14,0,1,0,221,159.1,29.16,29.16,0,0,0,250.08,129.9Z"/><path class="cls-1" d="M189.34,94.52a15.34,15.34,0,0,1-2.74,3c-1.44.92-2.93.33-4.1-.84-3.1-3.08-6.17-6.18-9.25-9.26-2.06-2.06-4.14-4.09-6.17-6.17-1.74-1.8-1.81-4-.24-5.48s3.65-1.31,5.35.38q7.76,7.66,15.41,15.43A15.57,15.57,0,0,1,189.34,94.52Z"/><path class="cls-1" d="M276.16,78.85a9.4,9.4,0,0,1-1.38,2.34q-7.65,7.8-15.43,15.47a3.5,3.5,0,0,1-5.19.13c-1.55-1.52-1.52-3.64.16-5.33,5.14-5.17,10.3-10.3,15.45-15.45a3.54,3.54,0,0,1,4.14-1C275.34,75.63,276,76.79,276.16,78.85Z"/><path class="cls-1" d="M256.54,161.83a15.68,15.68,0,0,1,3.12,1.79q7.79,7.63,15.44,15.39a3.62,3.62,0,1,1-5.05,5.18c-5.2-5.16-10.36-10.36-15.54-15.54-1.26-1.25-1.74-2.8-.84-4.28C254.28,163.36,255.5,162.72,256.54,161.83Z"/><path class="cls-1" d="M188.63,166.39a8.43,8.43,0,0,1-1.25,2.22q-7.71,7.84-15.54,15.58a3.62,3.62,0,1,1-5-5.18c5.13-5.17,10.29-10.29,15.42-15.44a3.57,3.57,0,0,1,4.14-1C187.79,163.2,188.47,164.35,188.63,166.39Z"/><path class="cls-1" d="M158.83,126.32H169.2c2.84,0,4.44,1.36,4.42,3.68s-1.62,3.6-4.32,3.6q-10.63,0-21.29,0c-2.47,0-4.06-1.47-4-3.68s1.61-3.59,4.12-3.6Z"/><path class="cls-1" d="M282.49,126.32c3.58,0,7.16,0,10.74,0,2.66,0,4.25,1.43,4.21,3.7s-1.61,3.56-4.16,3.57q-10.74,0-21.48,0c-2.45,0-4.05-1.5-4-3.7s1.59-3.56,4-3.57C275.33,126.31,278.91,126.32,282.49,126.32Z"/><path class="cls-1" d="M217.31,67.86c0-3.46,0-6.92,0-10.38,0-2.49,1.48-4.08,3.67-4.08s3.6,1.57,3.6,4.12q0,10.47,0,20.94c0,2.55-1.38,4.13-3.56,4.17s-3.7-1.56-3.71-4.21C217.29,74.9,217.31,71.38,217.31,67.86Z"/><path class="cls-1" d="M224.59,192.07c0,3.4,0,6.8,0,10.2,0,2.65-1.43,4.24-3.7,4.21s-3.56-1.62-3.57-4.17q0-10.47,0-20.94c0-2.5,1.45-4.1,3.63-4.13s3.62,1.55,3.64,4.09C224.61,184.91,224.59,188.49,224.59,192.07Z"/><path d="M188.8,256.48V196.43a14,14,0,0,1,.07-2.59,4.13,4.13,0,0,1,8.19,0,14.9,14.9,0,0,1,.06,2.59v60c3.22-2.54,6.16-4.84,9.1-7.15.89-.7,1.75-1.43,2.66-2.08,2.18-1.55,4.53-1.35,6,.48s1.26,4.22-.83,5.94c-3.34,2.76-6.76,5.4-10.15,8.08-2.58,2.05-5.15,4.1-7.74,6.12-2.44,1.91-3.93,2-6.28.13q-8.79-6.88-17.5-13.86c-2.57-2.06-3-4.44-1.31-6.46s4-2,6.44-.08C181.18,250.4,184.79,253.3,188.8,256.48Z"/><path d="M243.19,256.48c0-20.4,0-40.22,0-60.05a14,14,0,0,1,.06-2.59,4.13,4.13,0,0,1,8.19,0,14.9,14.9,0,0,1,.06,2.59v60c3.22-2.54,6.16-4.84,9.1-7.15.89-.7,1.75-1.43,2.66-2.08,2.18-1.55,4.53-1.35,6,.48s1.26,4.22-.83,5.94c-3.33,2.76-6.76,5.4-10.15,8.08-2.58,2.05-5.14,4.1-7.73,6.12s-3.93,2-6.29.13q-8.79-6.88-17.49-13.86c-2.58-2.06-3-4.44-1.32-6.46s4-2,6.44-.08C235.57,250.4,239.19,253.3,243.19,256.48Z"/></svg>