<?xml version="1.0" encoding="UTF-8"?>
<svg id="_Слой_1" data-name="Слой 1" xmlns="http://www.w3.org/2000/svg" viewBox="0 0 425.2 425.2">
  <defs>
    <style>
      .cls-1, .cls-2 {
        stroke-width: 0px;
      }

      .cls-2 {
        fill: #020202;
      }
    </style>
  </defs>
  <g>
    <path class="cls-2" d="m92.49,278.82c.19-.41.45-.81.57-1.24.87-3.16,2.85-5.36,5.84-6.61,4.33-1.8,8.69-3.53,13.04-5.29,6.09-2.46,12.18-4.92,18.27-7.36.94-.38,1.91-.67,2.7-.95,1.5.28,2.59.83,3.08,2.14.69,1.81-.03,3.54-1.99,4.4-3.08,1.34-6.21,2.58-9.32,3.84-7.32,2.95-14.65,5.88-21.98,8.83-.58.23-1.18.45-1.7.78-2.11,1.34-2.16,4.32-.09,5.7.58.38,1.25.64,1.9.9,27.34,11.01,54.68,22.01,82.02,33.01,5.95,2.39,11.92,4.72,17.83,7.21,6.7,2.82,13.31,2.76,20.04.04,25.5-10.32,51.04-20.56,76.56-30.84,7.76-3.12,15.52-6.25,23.27-9.38.58-.23,1.17-.47,1.7-.79,2.38-1.41,2.39-4.54.02-5.94-.6-.36-1.27-.61-1.92-.87-9.93-4-19.87-8-29.8-12-.51-.2-1-.44-1.5-.66-1.37-.6-2.11-1.68-2.05-3.13.07-1.42.8-2.52,2.24-2.99.3-.1.59-.18,1.07-.33.69.23,1.51.47,2.3.79,10.02,4.01,20.03,8.02,30.04,12.05.94.38,1.88.79,2.77,1.27,3.51,1.86,5.28,4.93,5.31,8.78.02,3.85-1.69,7.01-5.22,8.82-2.43,1.24-5.01,2.2-7.54,3.22-28.13,11.33-56.27,22.64-84.41,33.97-3.48,1.4-6.96,2.8-10.44,4.22-8.3,3.39-16.57,3.33-24.87-.03-14.13-5.72-28.27-11.41-42.4-17.1-19-7.65-37.99-15.29-56.99-22.94-.94-.38-1.87-.79-2.78-1.25-2.43-1.23-4-3.19-4.88-5.75-.2-.58-.45-1.13-.68-1.69,0-.94,0-1.88,0-2.82Z"/>
    <path class="cls-2" d="m92.49,227.23c.19-.41.45-.81.57-1.24.87-3.16,2.85-5.36,5.84-6.61,4.33-1.8,8.69-3.53,13.04-5.29,6.09-2.46,12.18-4.92,18.27-7.36.94-.38,1.91-.67,2.7-.95,1.5.28,2.59.83,3.08,2.14.69,1.81-.03,3.54-1.99,4.4-3.08,1.34-6.21,2.58-9.32,3.84-7.32,2.95-14.65,5.88-21.98,8.83-.58.23-1.18.45-1.7.78-2.11,1.34-2.16,4.32-.09,5.7.58.38,1.25.64,1.9.9,27.34,11.01,54.68,22.01,82.02,33.01,5.95,2.39,11.92,4.72,17.83,7.21,6.7,2.82,13.31,2.76,20.04.04,25.5-10.32,51.04-20.56,76.56-30.84,7.76-3.12,15.52-6.25,23.27-9.38.58-.23,1.17-.47,1.7-.79,2.38-1.41,2.39-4.54.02-5.94-.6-.36-1.27-.61-1.92-.87-9.93-4-19.87-8-29.8-12-.51-.2-1-.44-1.5-.66-1.37-.6-2.11-1.68-2.05-3.13.07-1.42.8-2.52,2.24-2.99.3-.1.59-.18,1.07-.33.69.23,1.51.47,2.3.79,10.02,4.01,20.03,8.02,30.04,12.05.94.38,1.88.79,2.77,1.27,3.51,1.86,5.28,4.93,5.31,8.78.02,3.85-1.69,7.01-5.22,8.82-2.43,1.24-5.01,2.2-7.54,3.22-28.13,11.33-56.27,22.64-84.41,33.97-3.48,1.4-6.96,2.8-10.44,4.22-8.3,3.39-16.57,3.33-24.87-.03-14.13-5.72-28.27-11.41-42.4-17.1-19-7.65-37.99-15.29-56.99-22.94-.94-.38-1.87-.79-2.78-1.25-2.43-1.23-4-3.19-4.88-5.75-.2-.58-.45-1.13-.68-1.69,0-.94,0-1.88,0-2.82Z"/>
    <path class="cls-2" d="m92.49,330.47c.16-.26.41-.51.46-.79.81-3.91,3.35-6.21,6.93-7.61,4.15-1.62,8.27-3.33,12.4-4.99,6.09-2.45,12.19-4.89,18.28-7.34.51-.2,1.01-.45,1.53-.59,1.46-.4,3.17.36,3.78,1.63.68,1.41.26,3.34-1.03,4.2-.77.51-1.66.86-2.53,1.21-9.71,3.92-19.43,7.83-29.14,11.75-.72.29-1.47.56-2.13.96-2.15,1.32-2.23,4.28-.14,5.68.7.47,1.54.76,2.33,1.08,17.19,6.92,34.38,13.82,51.56,20.75,15.81,6.37,31.6,12.77,47.42,19.11,2.09.84,4.29,1.47,6.49,1.97,4.76,1.08,9.32.11,13.75-1.66,8.13-3.25,16.25-6.52,24.37-9.79,18.85-7.59,37.7-15.19,56.54-22.79,6.38-2.57,12.76-5.13,19.14-7.71.72-.29,1.47-.58,2.1-1.03,1.96-1.4,1.89-4.25-.14-5.55-.85-.54-1.82-.9-2.76-1.28-9.71-3.92-19.43-7.84-29.14-11.75-.51-.2-1.04-.37-1.51-.63-1.63-.91-2.28-2.77-1.56-4.42.63-1.44,2.77-2.25,4.18-1.64,3.15,1.37,6.37,2.58,9.57,3.86,7.4,2.97,14.79,5.95,22.2,8.91,1.69.68,3.25,1.51,4.53,2.84,4.24,4.44,3.49,11.76-1.61,15.17-1.03.69-2.19,1.2-3.35,1.67-19.72,7.96-39.44,15.9-59.16,23.84-13.41,5.4-26.85,10.76-40.23,16.24-5.18,2.12-10.49,3.04-16.04,2.57-2.98-.25-5.84-1.02-8.61-2.14-33.71-13.57-67.42-27.15-101.14-40.73-3.47-1.4-5.98-3.64-6.84-7.43-.06-.28-.32-.51-.49-.77,0-.94,0-1.88,0-2.82Z"/>
    <path class="cls-2" d="m325.89,219.1c-1.31-.53-2.61-1.06-3.91-1.59-32.2-12.97-64.4-25.93-96.58-38.93-8.55-3.45-16.96-3.4-25.53.07-29.48,11.96-59.01,23.8-88.52,35.68-3.99,1.61-7.98,3.21-11.96,4.82-3.24,1.31-5.48,3.54-6.36,7.01-.09.35-.35.67-.53,1v2.82c.14.19.36.36.4.56.83,4.2,3.61,6.5,7.43,8.03,19.24,7.69,38.44,15.44,57.65,23.2,1.55.63,3.11.92,4.79.92,5.13,0,10.27,0,15.4,0l-18.33-7.39c-.35-.1-.7-.22-1.06-.37-9.49-3.84-18.99-7.67-28.48-11.5-9.06-3.65-18.12-7.31-27.18-10.96-.65-.26-1.32-.5-1.93-.85-2.38-1.39-2.38-4.52,0-5.93.6-.36,1.27-.59,1.93-.86,17.18-6.92,34.37-13.82,51.55-20.74,15.88-6.39,31.75-12.8,47.62-19.21,3.36-1.36,6.81-2.26,10.5-2.39,3.34.15,6.6.87,9.75,2.14,16.01,6.46,32.04,12.9,48.06,19.35,17.11,6.89,34.21,13.79,51.31,20.68.72.29,1.45.58,2.15.92,1.32.64,2,1.71,1.96,3.19-.04,1.38-.71,2.4-1.95,2.97-1.64.74-3.31,1.41-4.97,2.08-17.25,6.95-34.51,13.87-51.74,20.88-.49.2-.95.34-1.4.43l-18.75,7.56c5.12,0,10.23,0,15.35,0,1.84,0,3.54-.34,5.24-1.03,11.01-4.47,22.03-8.91,33.06-13.35,8.34-3.36,16.68-6.71,25.03-10.05,4.28-1.71,6.79-4.87,6.85-9.45.05-4.15-1.84-7.72-6.8-9.71Z"/>
  </g>
  <g>
    <g>
      <path class="cls-2" d="m209.35,260.37c.02-1.8,1.34-3.08,3.15-3.04,1.72.04,3.13,1.52,3.06,3.21-.07,1.56-1.57,3-3.11,3-1.72,0-3.1-1.42-3.09-3.16Z"/>
      <path class="cls-2" d="m209.35,250.6c.02-1.8,1.34-3.08,3.15-3.04,1.72.04,3.13,1.52,3.06,3.21-.07,1.56-1.57,3-3.11,3-1.72,0-3.1-1.42-3.09-3.16Z"/>
      <path class="cls-2" d="m207.63,252.35c1.8.02,3.08,1.34,3.04,3.15-.04,1.72-1.52,3.13-3.21,3.06-1.56-.07-3-1.57-3-3.11,0-1.72,1.42-3.1,3.16-3.09Z"/>
      <path class="cls-2" d="m217.4,252.35c1.8.02,3.08,1.34,3.04,3.15-.04,1.72-1.52,3.13-3.21,3.06-1.56-.07-3-1.57-3-3.11,0-1.72,1.42-3.1,3.16-3.09Z"/>
    </g>
    <g>
      <path class="cls-2" d="m209.35,232.62c.02-1.8,1.34-3.08,3.15-3.04,1.72.04,3.13,1.52,3.06,3.21-.07,1.56-1.57,3-3.11,3-1.72,0-3.1-1.42-3.09-3.16Z"/>
      <path class="cls-2" d="m209.35,222.85c.02-1.8,1.34-3.08,3.15-3.04,1.72.04,3.13,1.52,3.06,3.21-.07,1.56-1.57,3-3.11,3-1.72,0-3.1-1.42-3.09-3.16Z"/>
      <path class="cls-2" d="m207.63,224.6c1.8.02,3.08,1.34,3.04,3.15-.04,1.72-1.52,3.13-3.21,3.06-1.56-.07-3-1.57-3-3.11,0-1.72,1.42-3.1,3.16-3.09Z"/>
      <path class="cls-2" d="m217.4,224.6c1.8.02,3.08,1.34,3.04,3.15-.04,1.72-1.52,3.13-3.21,3.06-1.56-.07-3-1.57-3-3.11,0-1.72,1.42-3.1,3.16-3.09Z"/>
    </g>
    <g>
      <path class="cls-2" d="m152.78,232.62c.02-1.8,1.34-3.08,3.15-3.04,1.72.04,3.13,1.52,3.06,3.21-.07,1.56-1.57,3-3.11,3-1.72,0-3.1-1.42-3.09-3.16Z"/>
      <path class="cls-2" d="m152.78,222.85c.02-1.8,1.34-3.08,3.15-3.04,1.72.04,3.13,1.52,3.06,3.21-.07,1.56-1.57,3-3.11,3-1.72,0-3.1-1.42-3.09-3.16Z"/>
      <path class="cls-2" d="m151.07,224.6c1.8.02,3.08,1.34,3.04,3.15-.04,1.72-1.52,3.13-3.21,3.06-1.56-.07-3-1.57-3-3.11,0-1.72,1.42-3.1,3.16-3.09Z"/>
      <path class="cls-2" d="m160.84,224.6c1.8.02,3.08,1.34,3.04,3.15-.04,1.72-1.52,3.13-3.21,3.06-1.56-.07-3-1.57-3-3.11,0-1.72,1.42-3.1,3.16-3.09Z"/>
    </g>
    <g>
      <path class="cls-2" d="m261.2,232.62c.02-1.8,1.34-3.08,3.15-3.04,1.72.04,3.13,1.52,3.06,3.21-.07,1.56-1.57,3-3.11,3-1.72,0-3.1-1.42-3.09-3.16Z"/>
      <path class="cls-2" d="m261.2,222.85c.02-1.8,1.34-3.08,3.15-3.04,1.72.04,3.13,1.52,3.06,3.21-.07,1.56-1.57,3-3.11,3-1.72,0-3.1-1.42-3.09-3.16Z"/>
      <path class="cls-2" d="m259.48,224.6c1.8.02,3.08,1.34,3.04,3.15-.04,1.72-1.52,3.13-3.21,3.06-1.56-.07-3-1.57-3-3.11,0-1.72,1.42-3.1,3.16-3.09Z"/>
      <path class="cls-2" d="m269.25,224.6c1.8.02,3.08,1.34,3.04,3.15-.04,1.72-1.52,3.13-3.21,3.06-1.56-.07-3-1.57-3-3.11,0-1.72,1.42-3.1,3.16-3.09Z"/>
    </g>
    <g>
      <path class="cls-2" d="m209.35,204.9c.02-1.8,1.34-3.08,3.15-3.04,1.72.04,3.13,1.52,3.06,3.21-.07,1.56-1.57,3-3.11,3-1.72,0-3.1-1.42-3.09-3.16Z"/>
      <path class="cls-2" d="m209.35,195.13c.02-1.8,1.34-3.08,3.15-3.04,1.72.04,3.13,1.52,3.06,3.21-.07,1.56-1.57,3-3.11,3-1.72,0-3.1-1.42-3.09-3.16Z"/>
      <path class="cls-2" d="m207.63,196.88c1.8.02,3.08,1.34,3.04,3.15-.04,1.72-1.52,3.13-3.21,3.06-1.56-.07-3-1.57-3-3.11,0-1.72,1.42-3.1,3.16-3.09Z"/>
      <path class="cls-2" d="m217.4,196.88c1.8.02,3.08,1.34,3.04,3.15-.04,1.72-1.52,3.13-3.21,3.06-1.56-.07-3-1.57-3-3.11,0-1.72,1.42-3.1,3.16-3.09Z"/>
    </g>
    <g>
      <path class="cls-2" d="m180.88,215.63c.02-1.8,1.34-3.08,3.15-3.04,1.72.04,3.13,1.52,3.06,3.21-.07,1.56-1.57,3-3.11,3-1.72,0-3.1-1.42-3.09-3.16Z"/>
      <path class="cls-2" d="m180.88,205.86c.02-1.8,1.34-3.08,3.15-3.04,1.72.04,3.13,1.52,3.06,3.21-.07,1.56-1.57,3-3.11,3-1.72,0-3.1-1.42-3.09-3.16Z"/>
      <path class="cls-2" d="m179.16,207.61c1.8.02,3.08,1.34,3.04,3.15-.04,1.72-1.52,3.13-3.21,3.06-1.56-.07-3-1.57-3-3.11,0-1.72,1.42-3.1,3.16-3.09Z"/>
      <path class="cls-2" d="m188.93,207.61c1.8.02,3.08,1.34,3.04,3.15-.04,1.72-1.52,3.13-3.21,3.06-1.56-.07-3-1.57-3-3.11,0-1.72,1.42-3.1,3.16-3.09Z"/>
    </g>
    <g>
      <path class="cls-2" d="m235.48,215.63c.02-1.8,1.34-3.08,3.15-3.04,1.72.04,3.13,1.52,3.06,3.21-.07,1.56-1.57,3-3.11,3-1.72,0-3.1-1.42-3.09-3.16Z"/>
      <path class="cls-2" d="m235.48,205.86c.02-1.8,1.34-3.08,3.15-3.04,1.72.04,3.13,1.52,3.06,3.21-.07,1.56-1.57,3-3.11,3-1.72,0-3.1-1.42-3.09-3.16Z"/>
      <path class="cls-2" d="m233.76,207.61c1.8.02,3.08,1.34,3.04,3.15-.04,1.72-1.52,3.13-3.21,3.06-1.56-.07-3-1.57-3-3.11,0-1.72,1.42-3.1,3.16-3.09Z"/>
      <path class="cls-2" d="m243.53,207.61c1.8.02,3.08,1.34,3.04,3.15-.04,1.72-1.52,3.13-3.21,3.06-1.56-.07-3-1.57-3-3.11,0-1.72,1.42-3.1,3.16-3.09Z"/>
    </g>
    <g>
      <path class="cls-2" d="m236.43,248.4c.02-1.8,1.34-3.08,3.15-3.04,1.72.04,3.13,1.52,3.06,3.21-.07,1.56-1.57,3-3.11,3-1.72,0-3.1-1.42-3.09-3.16Z"/>
      <path class="cls-2" d="m236.43,238.63c.02-1.8,1.34-3.08,3.15-3.04,1.72.04,3.13,1.52,3.06,3.21-.07,1.56-1.57,3-3.11,3-1.72,0-3.1-1.42-3.09-3.16Z"/>
      <path class="cls-2" d="m234.71,240.38c1.8.02,3.08,1.34,3.04,3.15-.04,1.72-1.52,3.13-3.21,3.06-1.56-.07-3-1.57-3-3.11,0-1.72,1.42-3.1,3.16-3.09Z"/>
      <path class="cls-2" d="m244.48,240.38c1.8.02,3.08,1.34,3.04,3.15-.04,1.72-1.52,3.13-3.21,3.06-1.56-.07-3-1.57-3-3.11,0-1.72,1.42-3.1,3.16-3.09Z"/>
    </g>
    <g>
      <path class="cls-2" d="m181.25,248.4c.02-1.8,1.34-3.08,3.15-3.04,1.72.04,3.13,1.52,3.06,3.21-.07,1.56-1.57,3-3.11,3-1.72,0-3.1-1.42-3.09-3.16Z"/>
      <path class="cls-2" d="m181.25,238.63c.02-1.8,1.34-3.08,3.15-3.04,1.72.04,3.13,1.52,3.06,3.21-.07,1.56-1.57,3-3.11,3-1.72,0-3.1-1.42-3.09-3.16Z"/>
      <path class="cls-2" d="m179.53,240.38c1.8.02,3.08,1.34,3.04,3.15-.04,1.72-1.52,3.13-3.21,3.06-1.56-.07-3-1.57-3-3.11,0-1.72,1.42-3.1,3.16-3.09Z"/>
      <path class="cls-2" d="m189.3,240.38c1.8.02,3.08,1.34,3.04,3.15-.04,1.72-1.52,3.13-3.21,3.06-1.56-.07-3-1.57-3-3.11,0-1.72,1.42-3.1,3.16-3.09Z"/>
    </g>
  </g>
  <path class="cls-1" d="m174.63,143.59c2.32-3.06,4.64-6.11,6.95-9.16.14-.18.28-.37.42-.55,2.77-3.49,5.53-6.99,8.33-10.45.76-.94.9-1.59-.06-2.56-4.01-4.07-5.79-9.12-6.59-14.7-.48-3.32-.06-6.46.83-9.59.58-2.02,1.31-3.99,2.01-6.08-4.8-3.39-9.81-6.92-14.91-10.51-2.21,2.2-4.84,3.37-7.78,3.92-3.73.7-7.23.3-10.63-1.54-5.33-2.89-7.88-7.31-8.44-13.31-.74-7.99,5.92-15.49,13.52-16.68,8.73-1.37,17.26,5.31,18.26,13.5.42,3.42-.23,6.39-1.49,9.48,4.99,3.53,9.98,7.05,15.14,10.69,6.31-7.46,14.65-9.54,24.3-8.51.48-1.72.97-3.54,1.48-5.34.28-.98.61-1.95.91-2.92.83-2.69,1.69-5.38,2.46-8.08.09-.31-.15-.91-.43-1.11-3.79-2.65-4.86-6.49-4.84-10.83,0-.45.12-.92.27-1.36,1.45-4.46,4.24-7.27,8.93-8.64,5.85-1.71,13.47,3.26,14.06,10.44.53,6.4-4.78,12.84-12.15,12.51-1.7,5.61-3.42,11.29-5.14,16.95,1.77,1.12,3.46,2.17,5.13,3.23.46.29.95.57,1.35.94,3.41,3.12,6.19,6.67,7.58,11.15.28.91.71,1.16,1.6,1,3.25-.57,6.51-1.07,9.76-1.65,1.27-.23,2.53-.53,3.75-.94.38-.13.77-.72.85-1.15.92-5.33,5.63-9.89,10.77-10.06,7.59-.25,12.78,5.42,12.43,12.69-.23,4.74-4.84,10.28-10.23,10.5-4.33.18-8.11-.98-10.62-4.78-.76-1.15-1.52-1.47-2.83-1.21-2.82.56-5.69.93-8.52,1.46-1.72.32-3.41.81-4.81,1.14-.59,3.15-.91,6.31-1.81,9.29-.88,2.94-2.35,5.71-3.6,8.63,5.11,4.85,10.38,9.85,15.64,14.83,4.68-3.06,9.5-3.95,14.83-1.93,6.15,2.33,9.37,6.79,10.23,13.14,1.33,9.73-6.85,18.06-16.44,17.66-7.78-.32-14.51-6.79-15.18-14.31-.28-3.19.36-5.95,1.7-8.69.52-1.07.51-1.83-.45-2.73-4.37-4.08-8.66-8.25-12.99-12.37-.59-.57-1.29-1.03-1.84-1.46-3.65,2.86-7.69,4.51-12.13,5.47-3.71.8-7.29.57-10.85-.45-2.59-.74-5.1-1.76-7.79-2.7-1.63,2.16-3.47,4.58-5.31,7.01-.11.15-.23.29-.34.44-2.63,3.31-5.26,6.61-7.87,9.92-.88,1.12-1.76,2.25-2.51,3.46-.19.31-.02,1.01.21,1.4,2.14,3.67,2.87,7.54,1.39,11.58-2.34,6.39-8.24,9.41-14.88,8.32-6.53-1.07-11.07-7.82-10.38-14.27.57-5.41,5.76-10.98,11.64-11.43,2.53-.19,4.75.27,7.09,1.29Zm35.64-19.99c4.81-.22,9.09-1.6,12.72-5.07,3.81-3.64,6.34-7.72,6.77-13.1.41-5.12-.56-9.7-3.73-13.86-3.38-4.44-7.53-7.29-13.13-8.21-5.93-.97-11.08.44-15.74,4.1-4.57,3.59-7.22,8.17-7.68,14.03-.33,4.19.12,8.13,2.49,11.72,2.16,3.28,4.61,6.12,8.2,8.03,3.22,1.72,6.49,2.54,10.09,2.35Zm-39.38-55.49c.04-4.78-3.14-8.44-7.78-9.64-4.49-1.17-10.62,1.5-12.05,6.99-1.35,5.22,1.07,10.23,6.04,12.27,6.16,2.53,14.01-1.65,13.78-9.62Zm84.58,69.01c-4.4.02-8.15,2.94-9.31,7.25-1.53,5.67.92,10.36,6.36,12.41,5.62,2.11,11.12-1.36,12.9-6.55,2.19-6.42-2.8-13.61-9.95-13.1Zm-86.1,25.46c1.92-.55,4.08-1.25,5.58-3.56,2.24-3.45,1.03-8.88-3.21-10.42-3.05-1.11-6.14-.59-8.3,1.89-1.94,2.23-2.67,4.94-1.34,7.5,1.33,2.55,3.49,4.59,7.26,4.59Zm50.54-111.77c0,3.13,2.68,5.66,5.95,5.67,3.43,0,5.52-2.49,5.59-5.94.07-3.37-2.42-5.65-5.99-5.62-3.1.02-5.54,2.62-5.54,5.89Zm41.8,36.85c-2.74.07-4.14.87-5.14,3.12-1.37,3.08-.34,6.26,2.51,7.76,2.62,1.37,6,.25,7.61-2.56,1.08-1.89,1.12-3.84-.02-5.69-1.03-1.68-2.42-2.92-4.96-2.63Z"/>
</svg>