<svg id="Слой_1" data-name="Слой 1" xmlns="http://www.w3.org/2000/svg" viewBox="0 0 425.2 425.2"><path d="M104.45,220.76V206.52c.71-5,1.23-10,2.18-14.91,14.22-73.82,96.5-113.86,163.39-79.56a114,114,0,0,1,59.55,126.67c-9.78,44.44-46.7,79.58-91.56,87.1-4.15.7-8.34,1.16-12.51,1.73H211.26c-.5-.12-1-.28-1.49-.36-5.2-.76-10.45-1.26-15.59-2.29-44.17-8.84-80.76-46.81-87.95-91.19C105.53,229.41,105,225.08,104.45,220.76Zm172.87-7.19a58.95,58.95,0,1,0-58.93,59A59,59,0,0,0,277.32,213.57Zm-166.14-3.4h41.65a67.12,67.12,0,0,1,7.08-26.44L123.9,163A106.9,106.9,0,0,0,111.18,210.17Zm214.4,0A106.75,106.75,0,0,0,312.85,163l-35.7,20.61c1.59,4.5,3.36,8.66,4.52,13s1.76,9,2.64,13.62Zm-52.12,39.09a68,68,0,0,1-19.41,19.45l20.81,36a108.32,108.32,0,0,0,34.64-34.67Zm1.39-126.77c-7,12.16-13.89,24-20.81,36.05A68.24,68.24,0,0,1,273.5,178l36-20.8A108.62,108.62,0,0,0,274.85,122.52Zm-147.6,34.66L163.31,178a67.54,67.54,0,0,1,19.4-19.44l-20.81-36A108.29,108.29,0,0,0,127.25,157.18Zm0,112.93a108,108,0,0,0,34.67,34.63l20.8-36.05a67.51,67.51,0,0,1-19.45-19.38ZM269.07,119.17a106.67,106.67,0,0,0-47.16-12.69v41.64a67,67,0,0,1,26.37,7Zm-157.9,98a107.08,107.08,0,0,0,12.74,47.17l36-20.79a67.43,67.43,0,0,1-7.11-26.38Zm137.13,55c-.88.39-1.54.69-2.2,1a62.86,62.86,0,0,1-22,5.83c-2,.14-2.46.69-2.45,2.6.09,12.3,0,24.6.05,36.9,0,.72.08,1.43.14,2.35a106.61,106.61,0,0,0,47.2-12.72Zm64.56-7.81a107,107,0,0,0,12.69-47.11H283.91a67.65,67.65,0,0,1-7.05,26.33ZM167.68,119.17c7,12.14,13.88,24,20.81,36a67.26,67.26,0,0,1,26.37-7.12V106.47A107.1,107.1,0,0,0,167.68,119.17Zm20.76,153L167.69,308.1a106.46,106.46,0,0,0,47,12.69A3.7,3.7,0,0,0,215,320q0-19.68.06-39.35c0-1.36-.7-1.52-1.8-1.59a63.53,63.53,0,0,1-18.35-4.11C192.77,274.11,190.71,273.13,188.44,272.16Z"/><path d="M235.52,210.15c-2.44-3.33-5-6.55-7.47-9.85-2.2-2.94-4.34-5.9-5.26-9.56a3.25,3.25,0,0,0-3.41-2.52,3.18,3.18,0,0,0-3.34,2.36c-1.11,4.09-3.58,7.38-6.09,10.65a110.81,110.81,0,0,0-7,9.52,16.11,16.11,0,0,0-2.83,8,19.25,19.25,0,0,0,19.21,19.65,25,25,0,0,0,4.57-.5C235.36,235.4,243.45,221,235.52,210.15Zm-5.65,15.92A12.07,12.07,0,0,1,217,231.45a12.24,12.24,0,0,1-9.71-9.29,8.88,8.88,0,0,1,1.16-7.28c2.07-3.45,4.72-6.46,7.1-9.67,1.28-1.72,2.55-3.44,4-5.36,3,4.78,6.74,8.78,9.86,13.27S233.16,220.62,229.87,226.07Z"/></svg>