<svg id="Слой_1" data-name="Слой 1" xmlns="http://www.w3.org/2000/svg" viewBox="0 0 425.2 425.2"><path d="M341.85,317.45H106.67a4.57,4.57,0,0,1,0-9.14H341.85a4.57,4.57,0,0,1,0,9.14Z"/><path d="M253.74,310.65a4.58,4.58,0,0,1-3.74-1.93l-68.84-97.54a4.57,4.57,0,0,1,7.47-5.28l65,92.07,59.26-90.08a4.57,4.57,0,1,1,7.63,5L257.56,308.6a4.57,4.57,0,0,1-3.75,2Z"/><path d="M320,236.27a4.57,4.57,0,0,1-4.57-4.43l-.52-18L294.84,216a4.57,4.57,0,0,1-1-9.09l25-2.69a4.56,4.56,0,0,1,5.06,4.41l.67,22.93a4.56,4.56,0,0,1-4.43,4.7Z"/><path d="M204.57,310.65a4.55,4.55,0,0,1-3.71-1.9l-69.08-96a4.57,4.57,0,1,1,7.42-5.34L204.4,298l59.3-90.13a4.57,4.57,0,1,1,7.63,5L208.39,308.6a4.59,4.59,0,0,1-3.73,2Z"/><path d="M273.7,234.43a4.58,4.58,0,0,1-4.57-4.44l-.52-18-20.05,2.17a4.57,4.57,0,0,1-1-9.09l25-2.7a4.55,4.55,0,0,1,3.49,1.1,4.6,4.6,0,0,1,1.57,3.31l.67,22.93a4.57,4.57,0,0,1-4.43,4.71Z"/><path d="M127.8,181.76a4.66,4.66,0,0,1-4.73-4.74V115.34a4.53,4.53,0,0,1,1.36-3.41,5,5,0,0,1,6.79,0,4.62,4.62,0,0,1,1.32,3.41V177a4.65,4.65,0,0,1-1.32,3.37A4.55,4.55,0,0,1,127.8,181.76Z"/><path d="M155.5,181.76a4.68,4.68,0,0,1-4.74-4.74V115.34a4.51,4.51,0,0,1,1.37-3.41,4.65,4.65,0,0,1,3.37-1.32h16.39A24.9,24.9,0,0,1,184,113.48a21.07,21.07,0,0,1,8.25,7.88,22.53,22.53,0,0,1,3,11.66A20.21,20.21,0,0,1,184,151.6a25.9,25.9,0,0,1-12.12,2.74H160.23V177a4.65,4.65,0,0,1-1.32,3.37A4.54,4.54,0,0,1,155.5,181.76Zm4.73-36.17h11.66a16.3,16.3,0,0,0,7.38-1.59,12.28,12.28,0,0,0,5-4.47,11.83,11.83,0,0,0,1.83-6.51,13.74,13.74,0,0,0-1.83-7.11,12.79,12.79,0,0,0-5-4.83,15.24,15.24,0,0,0-7.38-1.73H160.23Zm33.07,36.17a4.87,4.87,0,0,1-2.32-.55,4.59,4.59,0,0,1-1.78-1.73l-16.39-26.42,9.2-2.64L197,174.47a4.8,4.8,0,0,1,.45,5A4.21,4.21,0,0,1,193.3,181.76Z"/></svg>