<?xml version="1.0" encoding="UTF-8"?>
<svg id="_Слой_1" data-name="Слой 1" xmlns="http://www.w3.org/2000/svg" viewBox="0 0 425.2 425.2">
  <defs>
    <style>
      .cls-1 {
        stroke-width: 0px;
      }

      .cls-2 {
        fill: none;
        stroke: #000;
        stroke-miterlimit: 10;
        stroke-width: 7px;
      }
    </style>
  </defs>
  <path class="cls-1" d="m193.7,194.77c.28,23.23-17.4,43.05-40.64,45.56-25.06,2.7-47.43-15.26-50.11-40.22-1.2-11.16,1.35-21.71,5.23-32.01,7.16-19.03,18.32-35.7,30.85-51.53,1.92-2.42,3.91-4.79,5.96-7.1,2.08-2.35,4.26-2.43,6.25-.1,15.86,18.6,29.7,38.45,37.97,61.72,2.72,7.65,4.3,15.54,4.49,23.67Zm-45.45-77.8c-1.36,1.64-2.4,2.82-3.37,4.06-12.03,15.22-22.82,31.2-29.75,49.47-3.71,9.78-6.19,19.8-4.68,30.41,2.78,19.58,20.55,33.64,40.79,32.29,19.14-1.28,34.84-18.01,35.04-37.27.08-7.79-1.55-15.25-4.07-22.55-5.55-16.03-14.37-30.27-24.31-43.88-3.03-4.14-6.26-8.13-9.65-12.52Z"/>
  <path class="cls-1" d="m287.45,214.05c-4.76,0-9.02.03-13.27-.01-2.39-.03-3.98-1.39-4.18-3.38-.2-2.06,1.45-3.97,3.79-3.99,7.6-.08,15.21-.06,22.81-.01,2.14.01,3.57,1.46,3.59,3.6.05,7.53.05,15.05,0,22.58-.02,2.41-1.7,4.08-3.78,4.02-2.09-.06-3.57-1.73-3.6-4.21-.05-4.18-.01-8.35-.01-13.14-1.06.99-1.74,1.59-2.37,2.22-26.93,27.18-53.87,54.36-80.79,81.55-5.84,5.89-12.47,7.37-18.89,4-1.51-.8-2.95-1.89-4.15-3.11-13.47-13.64-26.9-27.33-40.32-41.01-2.1-2.14-2.37-3.9-.96-5.63,1.57-1.93,3.86-1.9,5.95.23,7.07,7.16,14.11,14.35,21.16,21.53,6.44,6.56,12.85,13.14,19.32,19.67,3.65,3.68,8.1,3.73,11.73.07,27.67-27.9,55.32-55.82,82.97-83.74.22-.22.4-.48,1.01-1.21Z"/>
  <path class="cls-1" d="m220.43,328.2c-37.32,0-74.65,0-111.97,0-3.94,0-5.8-1.16-5.85-3.65-.05-2.52,1.84-3.78,5.72-3.78,74.73,0,149.45,0,224.18,0,3.88,0,5.77,1.25,5.73,3.77-.04,2.49-1.9,3.66-5.84,3.66-37.32,0-74.65,0-111.97,0Z"/>
  <path class="cls-1" d="m330.84,254.71c-7.32,7.05-14.72,13.99-21.91,21.14-9.22,9.16-18.25,18.51-27.4,27.74-7.29,7.36-16.14,7.3-23.39-.06-4.61-4.69-9.26-9.35-13.86-14.05-1.86-1.9-1.98-4.12-.39-5.65,1.65-1.6,3.64-1.46,5.63.53,4.7,4.71,9.36,9.47,14.06,14.19,4.19,4.21,8.44,4.23,12.59.03,15.86-16.08,31.71-32.17,47.56-48.26.49-.49.93-1.03,1.8-2.01-3.75,0-7.02,0-10.29,0-1.03,0-2.06.03-3.09-.01-2.44-.1-4.11-1.63-4.11-3.72,0-2.08,1.68-3.66,4.13-3.68,5.31-.05,10.62-.02,15.93-.02,1.98,0,3.96-.04,5.94.01,2.69.07,4.18,1.46,4.2,4.1.05,7.37.05,14.74,0,22.11-.02,2.41-1.72,4.08-3.8,4.01-2.01-.07-3.54-1.67-3.58-3.99-.07-4.25-.02-8.5-.02-12.4Z"/>
  <path class="cls-1" d="m197.37,232.79c1.31.79,2.39,1.19,3.13,1.93,7.44,7.46,14.85,14.96,22.22,22.49,1.82,1.86,1.85,3.88.26,5.47-1.48,1.48-3.75,1.39-5.49-.35-7.43-7.47-14.83-14.98-22.22-22.49-1.19-1.21-1.98-2.7-.96-4.26.71-1.08,1.95-1.81,3.06-2.79Z"/>
  <path class="cls-1" d="m147.59,219.45c.01,2.68-1.97,4.51-4.27,4.05-10.73-2.16-18.23-8.29-22.19-18.56-.8-2.06.08-4.01,1.85-4.78,1.92-.83,4.04-.08,4.89,2.05,3.09,7.74,8.65,12.42,16.82,14.1,1.79.37,2.83,1.65,2.9,3.15Z"/>
  <path class="cls-1" d="m128.8,181.98c-.65,2.56-.99,4.43-1.62,6.21-.65,1.82-2.21,2.42-4.04,2.08-1.89-.35-3.01-1.73-2.86-3.53.17-2.01.7-4.06,1.46-5.94.72-1.77,2.57-2.38,4.19-1.63,1.24.57,2.09,1.99,2.88,2.8Z"/>
  <path class="cls-1" d="m228.9,160.95c-.03-2.55,1.24-4.2,3.35-4.36,2.06-.16,3.5,1.28,3.89,3.89.86,5.74,3.41,8.3,9.15,9.18,2.62.4,4.06,1.81,3.93,3.86-.14,2.19-1.83,3.44-4.56,3.38-8.41-.19-15.66-7.53-15.76-15.95Z"/>
  <circle class="cls-2" cx="249.92" cy="156.76" r="34.17"/>
</svg>