<?xml version="1.0" encoding="UTF-8"?>
<svg id="_Слой_1" data-name="Слой 1" xmlns="http://www.w3.org/2000/svg" viewBox="0 0 425.2 425.2">
  <defs>
    <style>
      .cls-1 {
        stroke: #000;
        stroke-miterlimit: 10;
        stroke-width: .5px;
      }

      .cls-2, .cls-3 {
        stroke-width: 0px;
      }

      .cls-3 {
        fill: #fff;
      }
    </style>
  </defs>
  <g>
    <path class="cls-2" d="m210.95,230.13c0,30.97,0,61.94,0,92.91,0,.55,0,1.1,0,1.65-.01,3.85-1.21,5.51-3.94,5.46-2.65-.05-3.81-1.67-3.82-5.35,0-7.25,0-14.5,0-21.75,0-55.56,0-111.11,0-166.67,0-.87-.03-1.74.03-2.6.17-2.19,1.74-3.74,3.79-3.77,2.04-.03,3.7,1.51,3.89,3.66.08.86.04,1.73.04,2.6,0,31.29,0,62.57,0,93.86Z"/>
    <path class="cls-2" d="m191.95,229.79c-.03,31.15-6.06,61.16-17.05,90.24-1.03,2.73-3,3.91-5.2,3.17-2.31-.78-3.2-3.06-2.15-5.86,5.92-15.73,10.43-31.84,13.23-48.43,3.62-21.5,4.25-43.08,1.85-64.76-2.31-20.85-7.42-41.01-14.84-60.6-.06-.15-.11-.3-.16-.44-1.05-2.94-.38-5.06,1.9-5.96,2.27-.89,4.35.25,5.39,3.13,1.84,5.11,3.71,10.2,5.36,15.37,7.67,24.11,11.65,48.81,11.69,74.13Z"/>
    <path class="cls-2" d="m221.01,229.71c.01-30.91,6.01-60.69,17.04-89.51,1.24-3.25,3.81-4.26,6.24-2.51,1.95,1.41,1.79,3.24,1.11,5.28-2.81,8.43-5.87,16.79-8.23,25.35-7.25,26.37-9.8,53.2-7.52,80.5,1.92,22.99,7.1,45.21,15.13,66.79.25.66.49,1.33.71,2,.84,2.53.01,4.69-2.11,5.51-2.15.82-4.26-.2-5.17-2.75-1.97-5.48-3.95-10.95-5.69-16.5-7.58-24.14-11.51-48.85-11.51-74.17Z"/>
  </g>
  <g>
    <path class="cls-1" d="m362.63,229.86c-.03,19.67-16.17,35.76-35.84,35.75-19.74-.01-35.88-16.2-35.78-35.98.08-17.97,13.67-35.5,35.92-35.4,22.61.1,35.7,17.96,35.7,35.62Zm-7.16-.14c-.02-15.83-12.91-28.64-28.76-28.6-15.74.04-28.53,12.88-28.54,28.64,0,15.84,12.84,28.69,28.67,28.68,15.83,0,28.66-12.87,28.63-28.73Z"/>
    <path class="cls-1" d="m295.73,194.92c-.94,1.05-1.65,2.25-2.69,2.91-1.42.9-2.88.32-4.04-.83-3.04-3.03-6.06-6.07-9.09-9.11-2.02-2.02-4.07-4.02-6.06-6.07-1.72-1.76-1.78-3.89-.24-5.38,1.44-1.39,3.59-1.29,5.26.37,5.08,5.03,10.14,10.08,15.16,15.18.66.68.99,1.68,1.71,2.94Z"/>
    <path class="cls-1" d="m381.12,179.52c-.3.52-.65,1.58-1.35,2.29-5.02,5.11-10.08,10.18-15.18,15.22-1.6,1.58-3.64,1.57-5.11.13-1.52-1.5-1.49-3.58.16-5.24,5.05-5.08,10.13-10.13,15.19-15.2,1.16-1.16,2.52-1.6,4.08-.95,1.4.58,2.08,1.72,2.21,3.75Z"/>
    <path class="cls-1" d="m361.82,261.13c1.29.72,2.36,1.06,3.07,1.76,5.1,5,10.15,10.06,15.18,15.14,1.61,1.62,1.62,3.81.15,5.24-1.43,1.39-3.58,1.37-5.12-.16-5.11-5.08-10.19-10.19-15.29-15.29-1.23-1.23-1.7-2.75-.82-4.21.6-.99,1.8-1.62,2.82-2.49Z"/>
    <path class="cls-1" d="m295.03,265.62c-.27.49-.57,1.5-1.23,2.18-5.05,5.15-10.15,10.25-15.28,15.32-1.55,1.54-3.7,1.54-5.12.15-1.48-1.44-1.45-3.62.16-5.25,5.04-5.08,10.11-10.12,15.17-15.18,1.17-1.17,2.51-1.58,4.07-.94,1.41.58,2.08,1.71,2.24,3.72Z"/>
    <path class="cls-1" d="m265.71,226.2c3.4,0,6.8,0,10.2,0,2.79,0,4.37,1.33,4.35,3.62-.02,2.21-1.59,3.54-4.25,3.54-6.98.01-13.96.01-20.94,0-2.43,0-4-1.45-3.98-3.62.02-2.15,1.59-3.53,4.06-3.54,3.52-.01,7.04,0,10.56,0Z"/>
    <path class="cls-1" d="m387.34,226.2c3.52,0,7.04-.01,10.56,0,2.61.01,4.18,1.41,4.14,3.64-.03,2.15-1.59,3.51-4.09,3.51-7.04.02-14.08.01-21.12,0-2.41,0-3.99-1.48-3.95-3.65.03-2.09,1.57-3.5,3.9-3.51,3.52-.02,7.04,0,10.56,0Z"/>
    <path class="cls-1" d="m323.23,168.7c0-3.4-.02-6.81,0-10.21.02-2.45,1.45-4.01,3.61-4.02,2.15,0,3.54,1.54,3.54,4.05.02,6.86.02,13.73,0,20.59,0,2.51-1.36,4.06-3.51,4.1-2.24.04-3.63-1.53-3.65-4.14-.02-3.46,0-6.92,0-10.39Z"/>
    <path class="cls-1" d="m330.39,290.87c0,3.34.01,6.69,0,10.03-.01,2.61-1.42,4.18-3.65,4.14-2.15-.04-3.5-1.59-3.51-4.1-.01-6.86-.02-13.73,0-20.59,0-2.46,1.43-4.03,3.57-4.06,2.15-.02,3.56,1.52,3.58,4.02.02,3.52,0,7.04,0,10.57Z"/>
  </g>
  <path class="cls-3" d="m87.87,236.73v-.02c14.79,0,29.59.09,44.38-.03,9.9-.08,19.25-6.46,22.69-15.14,4.69-11.83-.04-25.05-11.19-31.25-10.36-5.77-23.72-2.83-31.37,6.89-2.45,3.12-2.86,5.76-.78,7.05,3.12,1.93,4.33-.86,5.73-2.77,3.9-5.32,9.48-7.76,15.7-7.55,8.86.29,16.88,8.23,17.23,16.89.3,7.45-3.98,16.42-14.22,18.69-3.25.72-6.63,1.13-9.95,1.14-26.67.09-53.35.05-80.02.06-2.01,0-4.1-.16-6,.33-.95.24-2.19,1.8-2.16,2.74.02.95,1.28,2.39,2.28,2.68,1.66.49,3.55.29,5.34.29,14.12.01,28.24,0,42.37,0Zm-16.68,12.81s0-.01,0-.02c-8.53,0-17.05,0-25.58,0-1.35,0-2.69-.02-4.04.04-1.9.08-3.7.48-3.82,2.84-.11,2.36,1.56,3,3.52,3.11,1.57.09,3.14.06,4.71.06,15.71,0,31.42-.08,47.12.07,3.3.03,6.75.48,9.87,1.52,5.88,1.95,9.03,6.51,9.56,12.59.44,5.11-3.31,10.96-8.06,13.02-5.63,2.43-10.92,1.86-15.61-2.31-1.16-1.04-2.05-2.52-3.37-3.2-.98-.51-2.85-.53-3.61.1-.77.63-.99,2.37-.84,3.54.13.99,1.07,1.93,1.78,2.78,6.48,7.68,18.26,9.3,26.88,3.73,8.55-5.52,11.86-17.09,7.35-26.1-3.88-7.76-10.36-11.6-18.94-11.73-8.97-.13-17.95-.03-26.93-.03Zm-13.98-31.69c4.71,0,9.42-.03,14.14,0,10.79.09,22.01-8.88,20.61-23.05-1.12-11.34-12.03-19.63-24.17-17.82-5.59.83-10,3.85-13.22,8.47-1.11,1.59-1.46,3.68.45,4.71,1.05.56,2.97.11,4.22-.48,1.13-.53,1.81-1.95,2.81-2.83,4.72-4.17,10.03-4.64,15.63-2.16,4.72,2.09,8.44,8.06,7.92,13.11-.62,6.07-3.8,10.57-9.7,12.5-2.92.95-6.12,1.39-9.21,1.46-8.3.2-16.6.06-24.91.11-2.17.01-4.23.5-4.02,3.29.18,2.34,2.09,2.67,3.97,2.68,5.16.04,10.32.01,15.48.02Z"/>
  <path class="cls-1" d="m87.87,236.73c-14.12,0-28.24,0-42.37,0-1.79,0-3.67.2-5.34-.29-.99-.29-2.25-1.73-2.28-2.68-.02-.94,1.21-2.5,2.16-2.74,1.9-.49,3.99-.33,6-.33,26.67-.01,53.35.03,80.02-.06,3.32-.01,6.7-.42,9.95-1.14,10.25-2.26,14.52-11.23,14.22-18.69-.35-8.66-8.37-16.6-17.23-16.89-6.22-.21-11.79,2.23-15.7,7.55-1.4,1.91-2.61,4.71-5.73,2.77-2.08-1.29-1.67-3.93.78-7.05,7.65-9.73,21.01-12.66,31.37-6.89,11.14,6.21,15.87,19.42,11.19,31.25-3.44,8.68-12.79,15.06-22.69,15.14-14.79.12-29.59.03-44.38.03v.02Z"/>
  <path class="cls-1" d="m71.19,249.55c8.98,0,17.95-.1,26.93.03,8.58.13,15.05,3.97,18.94,11.73,4.51,9.01,1.2,20.58-7.35,26.1-8.62,5.57-20.4,3.95-26.88-3.73-.72-.85-1.65-1.79-1.78-2.78-.15-1.17.07-2.91.84-3.54.77-.63,2.63-.6,3.61-.1,1.32.68,2.21,2.16,3.37,3.2,4.68,4.18,9.98,4.75,15.61,2.31,4.75-2.05,8.5-7.91,8.06-13.02-.53-6.09-3.68-10.64-9.56-12.59-3.12-1.04-6.56-1.48-9.87-1.52-15.71-.15-31.41-.07-47.12-.07-1.57,0-3.14.02-4.71-.06-1.96-.11-3.64-.75-3.52-3.11.11-2.35,1.92-2.76,3.82-2.84,1.34-.06,2.69-.04,4.04-.04,8.53,0,17.05,0,25.58,0,0,0,0,.01,0,.02Z"/>
  <path class="cls-1" d="m57.21,217.85c-5.16,0-10.32.02-15.48-.02-1.87-.01-3.79-.34-3.97-2.68-.21-2.8,1.85-3.28,4.02-3.29,8.3-.05,16.61.09,24.91-.11,3.09-.08,6.29-.51,9.21-1.46,5.9-1.93,9.08-6.43,9.7-12.5.52-5.05-3.19-11.01-7.92-13.11-5.6-2.48-10.91-2.01-15.63,2.16-1,.89-1.68,2.3-2.81,2.83-1.25.59-3.17,1.05-4.22.48-1.91-1.03-1.56-3.12-.45-4.71,3.22-4.62,7.63-7.64,13.22-8.47,12.14-1.8,23.05,6.49,24.17,17.82,1.4,14.17-9.82,23.15-20.61,23.05-4.71-.04-9.42,0-14.14,0Z"/>
</svg>