<svg width="50" height="50" viewBox="0 0 50 50" fill="none" xmlns="http://www.w3.org/2000/svg"><g clip-path="url(#clip0_171_249)" fill="#000"><path d="M14.431 16.563l.523-.001c.362 0 .724 0 1.087.002.463.001.927 0 1.39-.002h1.589c.238-.001.477 0 .715.002l.212-.002c.453.006.764.09 1.147.333.216.324.27.492.293.879-.145.45-.268.742-.684.976a5.72 5.72 0 01-.719.04l-.218.001c-.237.002-.474.002-.712.002l-.497.004c-.436.004-.873.006-1.31.007l-2.09.012c-.242.002-.484.002-.726.002-1.188.006-2.327.032-3.268.841a5.947 5.947 0 00-1.06 1.731 1149.931 1149.931 0 01-3.17 7.712l.345-.001c2.7-.006 5.399-.011 8.098-.014l.997-.001h.2l3.213-.007c1.099-.003 2.198-.004 3.296-.005.618 0 1.235-.001 1.852-.003.581-.002 1.162-.003 1.743-.002l.64-.002c.29-.002.581-.001.872 0l.257-.003c.484.003.825.055 1.241.33.205.35.296.584.287.99-.106.325-.248.52-.482.768-.325.163-.69.112-1.048.112l-.27.001-.905.002a1392.366 1392.366 0 00-2.041.006l-2.208.006a6392.88 6392.88 0 01-6.081.017h-.198l-.197.001-3.268.01-2.192.006a624.395 624.395 0 00-2.001.005c-1.976.001-3.835.083-5.38 1.484-1.222 1.264-1.493 2.726-1.493 4.413 0 .23-.004.458-.008.687-.008 1.113.131 2.005.916 2.844.6.51 1.3.77 2.077.771l.387.002h.879c.415.002.83.002 1.245.002l1.341.002 3.242.004 1.526.002 5.073.003h1.316l.331.001c1.767 0 3.535.003 5.302.006 1.814.004 3.628.005 5.442.006 1.018 0 2.037 0 3.056.003.867.002 1.735.003 2.602.002.443 0 .885 0 1.328.002.405.002.81.002 1.216 0l.44.001c1.144.009 2.03-.142 2.883-.948.993-1.056.888-2.484.857-3.837-.057-1.536-.456-2.678-1.443-3.86-.225-.34-.198-.68-.128-1.072.126-.293.226-.372.488-.586.4-.128.74-.147 1.135-.006 1.314 1.141 1.985 2.795 2.185 4.498.015.346.016.692.016 1.038l.002.31.002 1.01.002.705.002 1.478c0 .629.003 1.258.006 1.887l.002 1.457.002.696c.002.325.002.65.001.976l.003.286c-.007 1.227-.394 2.356-1.224 3.273-.874.799-1.874 1.2-3.05 1.185l-.245-.002c-1.02-.028-1.784-.345-2.55-1.017l-.18-.149c-.615-.552-.988-1.301-1.187-2.097V43.75H8.398v2.637c-.403 1.48-.865 2.35-2.14 3.166-.69.354-1.322.5-2.095.49l-.246-.002c-1.02-.028-1.784-.345-2.55-1.017l-.18-.149c-.635-.57-1.15-1.455-1.2-2.322l-.001-.25-.002-.29-.001-.314a118541.221 118541.221 0 01-.006-1.429l-.001-.379-.005-1.781c0-.682-.003-1.364-.007-2.046-.003-.594-.004-1.187-.005-1.78l-.003-.753c-.017-2.527-.017-2.527.435-3.742l.081-.22c.586-1.432 1.687-2.721 3.075-3.407.876-.5 1.108-1.328 1.44-2.232l.205-.527c.147-.374.292-.75.436-1.125.36-.932.749-1.852 1.135-2.774.124-.296.248-.593.37-.89.361-.868.726-1.736 1.104-2.597l.093-.213c.606-1.368 1.603-2.354 2.998-2.91 1.03-.327 2.035-.335 3.103-.331zm28.794 26.485c-1.127.672-2.298.666-3.577.702a93.74 93.74 0 00-.024 1.22l-.01.348c-.009.793.071 1.342.596 1.95.544.435.952.626 1.658.608.547-.06 1.01-.324 1.394-.708.425-.67.5-1.3.498-2.087v-.2l-.004-.63-.001-.43-.005-1.047c-.19 0-.371.175-.525.274zm-41.077-.177c-.01.473-.016.945-.021 1.418l-.008.48c-.005.233-.007.464-.009.696l-.006.215c0 .62.2 1.118.606 1.588.544.435.952.626 1.658.608.547-.06 1.01-.324 1.394-.708.493-.776.502-1.533.494-2.43l-.001-.288-.005-.7-.173-.004-.791-.026-.272-.007c-1.059-.041-1.918-.386-2.866-.842z"/><path d="M39.032.315l.298.1.96.33.67.227 1.689.578c.483.166.966.33 1.449.494.74.251 1.48.505 2.22.76.42.143.839.285 1.26.424l.55.182c.213.071.428.142.642.21l.28.094.237.078c.322.163.489.314.713.602.072.34.066.674.062 1.02l.002.311c.001.34 0 .68-.003 1.02l.001.713c0 .499-.001.998-.004 1.497-.003.635-.002 1.27 0 1.904 0 .492 0 .984-.002 1.475v.701c.006 3.621-1.053 6.97-3.474 9.719-.066.076-.131.153-.2.231-2.248 2.565-4.964 4.492-8.003 6.019l-.237.12c-.584.176-1.04.118-1.578-.158l-.187-.103-.202-.106c-.21-.111-.42-.225-.628-.34l-.205-.11c-4.115-2.225-8.337-5.804-9.756-10.436-.355-1.24-.6-2.41-.605-3.702a1399.716 1399.716 0 01-.008-1.356 2846.444 2846.444 0 01-.015-3.788c-.005-.626-.007-1.252-.008-1.877 0-.239-.002-.477-.005-.715a87.471 87.471 0 01-.002-.999l-.005-.299c.004-.455.008-.67.29-1.04.3-.218.567-.33.92-.446l.205-.07a319.487 319.487 0 002.075-.686c.907-.3 1.811-.61 2.715-.921l1.528-.524 1.281-.44c.409-.142.818-.283 1.228-.422.153-.052.305-.104.458-.158 1.253-.437 2.122-.56 3.394-.113zm-2.478 2.13l-.19.063c-.208.07-.414.142-.621.213l-.442.15c-.389.132-.778.265-1.166.399l-1.15.392c-.905.308-1.808.618-2.712.928l-.231.08c-.965.33-1.93.662-2.894.994-.009 1.15-.016 2.3-.02 3.451-.002.535-.005 1.069-.01 1.603-.003.518-.006 1.035-.007 1.552 0 .196-.002.392-.004.588-.04 3.824 1.398 6.832 4.013 9.564l.33.352c.59.618 1.268 1.127 1.948 1.64l.164.124c1.002.755 2.07 1.401 3.157 2.024l.314.187c.347.136.501.117.858.009a9.33 9.33 0 00.817-.428l.233-.131c3.354-1.926 6.44-4.65 8.032-8.23l.142-.312c.69-1.636.794-3.337.775-5.088l-.002-.603c-.002-.521-.005-1.043-.01-1.564-.004-.535-.005-1.07-.007-1.605a798.05 798.05 0 00-.02-3.133l-.316-.108-1.21-.413-.547-.187a1470.875 1470.875 0 01-4.597-1.574c-.326-.11-.651-.223-.977-.335a231.07 231.07 0 00-.985-.337l-.54-.186-.327-.111-.286-.098c-.557-.14-.976-.054-1.512.13z"/><path d="M44.238 9.375c.406.315.565.533.635 1.038-.005.369-.1.53-.349.799l-.188.205c-.302.316-.606.629-.915.937l-.207.208-.671.67-.469.47-.978.977a1351.224 1351.224 0 00-2.222 2.222l-.463.463-.645.644-.194.195-.177.176-.154.154c-.292.265-.59.27-.97.26-.807-.148-1.33-1.102-1.8-1.715a45.11 45.11 0 00-.926-1.16 90.463 90.463 0 01-1.476-1.85 11.936 11.936 0 00-.43-.523c-.363-.423-.475-.748-.441-1.311.08-.344.262-.505.54-.71.32-.16.632-.16.977-.098.615.394 1.022.996 1.461 1.57.31.402.629.796.95 1.189l.32.392.152.187c.31.383.618.768.925 1.154.453-.378.882-.77 1.296-1.189l.173-.173.366-.368.58-.582 1.23-1.234a1934.303 1934.303 0 012-2.01l.35-.35.16-.162c.495-.495.866-.575 1.56-.475zM32.683 35.334l.199-.002.653-.004.225-.001 1.182-.005c.406 0 .812-.004 1.218-.008l.94-.004.448-.003c.21-.002.42-.002.63-.002l.361-.001c.394.057.605.193.914.438.196.28.221.487.19.824l-.016.22c-.113.336-.291.489-.565.714-.33.061-.33.061-.71.061-.105.002-.105.002-.212.002-.23.002-.46 0-.689-.002h-.48c-.336.001-.67 0-1.006-.003-.43-.003-.858-.003-1.288 0-.33 0-.66 0-.991-.002h-.475c-.221 0-.443-.002-.664-.004l-.381-.002c-.384-.058-.545-.17-.818-.44-.182-.364-.155-.777-.098-1.173.416-.55.773-.598 1.433-.603zm-25 0l.199-.002.653-.004.225-.001 1.182-.005c.406 0 .812-.004 1.218-.008l.94-.004c.149 0 .299-.001.448-.003.21-.002.42-.002.63-.002l.361-.001c.394.057.605.193.914.438.196.28.221.487.19.824l-.016.22c-.113.336-.292.489-.565.714-.33.061-.33.061-.71.061-.105.002-.105.002-.212.002-.23.002-.46 0-.689-.002h-.48c-.336.001-.67 0-1.006-.003-.43-.003-.858-.003-1.288 0-.33 0-.66 0-.991-.002H8.21a597.767 597.767 0 01-1.045-.006c-.384-.058-.545-.17-.818-.44-.182-.364-.155-.777-.098-1.173.416-.55.773-.598 1.433-.603z"/></g><defs><clipPath id="clip0_171_249"><path fill="#fff" d="M0 0h50v50H0z"/></clipPath></defs></svg>