<svg width="50" height="50" viewBox="0 0 50 50" fill="none" xmlns="http://www.w3.org/2000/svg"><g clip-path="url(#clip0_171_246)" fill="#000"><path d="M14.351 16.59h.225a254.32 254.32 0 011.24.002c.446 0 .891.002 1.336.003l1.365.002c.892 0 1.783.002 2.674.005l.04.171c.33 1.478.33 1.478.815 2.91l.175.453.076.19c.069.189.117.377.164.572h-.323a610.34 610.34 0 00-3.026.013c-.518.004-1.037.006-1.555.006-.501 0-1.002.004-1.503.008-.19.001-.381.002-.572.001-1.425-.032-1.425-.032-2.689.558-.42.463-.626 1.095-.868 1.665l-.326.763-.177.414c-.356.832-.718 1.662-1.08 2.491a1277.198 1277.198 0 00-.541 1.242l-.097.222c-.22.505-.22.505-.329.723l.306-.001c2.46-.01 4.922-.014 7.383-.012 1.19.001 2.38 0 3.57-.005a430.62 430.62 0 013.112-.003c.55.002 1.099.002 1.648-.003a99.202 99.202 0 011.552 0c.19.001.379 0 .568-.002 1.325-.019 1.982.186 2.955 1.1.338.24.686.463 1.037.684.138.086.138.086.277.175 2.128 1.326 4.442 2.687 7.03 2.132 1.399-.355 2.732-1.076 3.912-1.897.244-.117.244-.117.458-.053.25.186.452.392.665.62l.155.157c1.346 1.428 1.909 3.307 1.911 5.236l.002.266.002.866.001.3c.002.526.003 1.05.003 1.576 0 .54.003 1.079.006 1.619l.002 1.252.002.596c.012 1.848-.187 3.521-1.517 4.922-1.28 1.189-2.584 1.554-4.29 1.504-1.423-.076-2.594-.775-3.566-1.79-1.106-1.407-1.207-2.708-1.207-4.493H10.449v1.855c-.258 1.365-.901 2.571-2.018 3.422-1.02.678-1.958.99-3.17.997l-.266.007c-1.455.008-2.633-.608-3.657-1.61-.77-.806-1.346-1.9-1.352-3.04l-.002-.25-.001-.275-.002-.29-.004-.952-.001-.33-.005-1.73c0-.592-.004-1.185-.008-1.777-.003-.458-.003-.916-.004-1.374 0-.219-.001-.437-.003-.655-.012-1.535.07-2.906.807-4.289l.103-.197a6.81 6.81 0 01.99-1.426l.211-.239c.39-.415.755-.744 1.26-1.012.953-.525 1.246-1.2 1.617-2.185l.19-.472c.138-.338.273-.677.408-1.016.35-.877.733-1.74 1.112-2.604l.369-.847c.385-.888.773-1.775 1.168-2.658l.107-.242c.725-1.614 1.837-2.881 3.518-3.534a7.21 7.21 0 012.535-.437zM6.793 36.182l-.195.228c-.358.494-.303 1.093-.25 1.676.165.544.602.968 1.074 1.27.549.238 1.075.225 1.662.224l.314.001h.656c.332 0 .665.003.998.005h.639l.299.003c.798-.005 1.485-.134 2.072-.722.38-.526.515-1.008.489-1.66-.118-.553-.373-1.054-.847-1.383-.471-.281-.84-.386-1.382-.39-.093-.002-.187-.002-.283-.003l-.303-.002-.315-.001-.659-.002c-.335-.001-.669-.004-1.004-.007l-.64-.002-.302-.004c-.815.003-1.476.108-2.023.769zm25 0l-.195.228c-.358.494-.303 1.093-.25 1.676.165.544.603.968 1.074 1.27.549.238 1.075.225 1.662.224l.314.001h.656c.332 0 .665.003.998.005h.639l.299.003c.798-.005 1.485-.134 2.072-.722.38-.526.515-1.008.489-1.66-.118-.553-.373-1.054-.847-1.383-.471-.281-.84-.386-1.382-.39-.094-.002-.187-.002-.283-.003l-.303-.002-.315-.001-.659-.002c-.334-.001-.669-.004-1.004-.007l-.64-.002-.302-.004c-.815.003-1.476.108-2.023.769z"/><path d="M39.644.486l.45.153c.397.136.793.273 1.19.411a623.985 623.985 0 013.156 1.09c.632.22 1.266.437 1.9.652a316.132 316.132 0 011.578.536c.215.072.429.146.643.22l.347.12c.49.224.886.505 1.092 1.02.025.21.025.21.026.439l.003.264v.288l.001.306.003 1.002.002.7.001 1.472c0 .623.003 1.247.006 1.87l.003 1.45c0 .23 0 .459.002.688.02 3.424-.939 6.489-3.074 9.197l-.124.158c-1.018 1.28-2.185 2.47-3.49 3.456l-.179.138c-1.24.948-2.555 1.747-3.922 2.498l-.212.117c-.663.357-1.28.656-2.034.47-4.618-1.728-8.87-5.643-10.955-10.089-.69-1.543-1.087-3.188-1.085-4.88l-.002-.312a1669.494 1669.494 0 00-.004-1.716c-.002-.491-.002-.983-.002-1.475 0-.63-.003-1.26-.006-1.89-.002-.485-.003-.97-.003-1.456 0-.232 0-.465-.002-.697a78.733 78.733 0 010-.972l-.004-.29c.005-.555.065-.884.442-1.321.448-.363.922-.528 1.463-.701l.26-.086.556-.181c.395-.128.789-.258 1.183-.388l.611-.2c.927-.305 1.85-.618 2.773-.934l.752-.256a96.814 96.814 0 002.159-.758l.35-.126c.205-.075.41-.15.614-.229 1.266-.458 2.31-.187 3.532.243zM40.89 9.35a480.764 480.764 0 01-.486.647l-.133.178a55.36 55.36 0 01-.665.854l-.272.345-.136.172a508.829 508.829 0 00-.539.686l-.266.34c-.234.298-.47.597-.708.894l-.15.188c-.094.12-.19.238-.285.357-.194.245-.334.436-.434.735a4.732 4.732 0 01-.946-.702c-.339-.31-.681-.612-1.037-.903l-.231-.189c-.588-.412-1.188-.443-1.887-.354-.581.227-.959.622-1.277 1.152-.205.49-.161 1.097-.037 1.606.386.904 1.384 1.503 2.123 2.1.255.211.498.43.741.653.377.343.765.664 1.166.977l.16.126c.622.478 1.137.603 1.909.515.818-.188 1.277-.933 1.758-1.563l.147-.191c.21-.275.421-.55.63-.827.373-.49.755-.971 1.145-1.448a61.85 61.85 0 001.352-1.71 88.399 88.399 0 01.933-1.198 79.467 79.467 0 01.78-.98l.155-.192c.358-.525.401-1.039.327-1.657-.207-.702-.687-1.143-1.307-1.501-1.02-.243-1.86.087-2.53.89z"/></g><defs><clipPath id="clip0_171_246"><path fill="#fff" d="M0 0h50v50H0z"/></clipPath></defs></svg>