<svg width="50" height="50" viewBox="0 0 50 50" fill="none" xmlns="http://www.w3.org/2000/svg"><g clip-path="url(#clip0_78_662)" fill="#000"><path d="M32.69.452c.328.23.623.494.915.769l.166.155a73.68 73.68 0 011.717 1.676 795.245 795.245 0 001.265 1.263l.577.576 2.018 2.017 1.875 1.872a1851.731 1851.731 0 012.58 2.577 452.567 452.567 0 011.234 1.233c1.429 1.422 1.429 1.422 1.82 2.327l.118.267c.386.991.34 2.334-.055 3.31-.48.862-1.093 1.543-1.788 2.237l-.32.323a273.24 273.24 0 01-1.41 1.415 852.23 852.23 0 01-1.9 1.903c-.588.589-1.175 1.179-1.762 1.77-.505.51-1.012 1.017-1.52 1.525-.301.302-.603.604-.904.908-.283.286-.567.57-.853.854l-.31.312c-1.062 1.08-2.178 1.769-3.719 1.832-.493-.007-.941-.129-1.412-.268-.277-.059-.388-.05-.65.043-.174.132-.174.132-.335.303l-.191.194-.204.21-.212.215-.67.683c-.223.227-.446.455-.67.681l-.416.425-.191.195-.168.171c-.426.372-.822.383-1.37.37-.612-.07-.961-.53-1.37-.946-.352-.346-.624-.47-1.113-.505-.389.016-.615.088-.933.311l-.23.161c-.356.262-.706.53-1.052.803l-.462.362-.236.185c-.381.3-.764.596-1.146.894l-.223.173c-.52.404-1.04.805-1.562 1.206-.405.312-.808.626-1.212.94-.603.47-1.207.938-1.814 1.402-.259.199-.514.401-.769.605l-.232.184-.445.357c-.735.581-1.483.975-2.404 1.163l.16.329c.721 1.488 1.307 2.98.768 4.645-.535 1.223-1.45 2.14-2.685 2.643l-.258.106c-1.042.284-2.41.234-3.356-.301-1.177-.714-1.973-1.697-2.344-3.028-.115-1.024-.03-1.984.391-2.93l.075-.175c.302-.709.629-1.379 1.057-2.02.705-.937.705-.937.895-2.033a6.242 6.242 0 00-.464-.947c-.283-1.243-.062-2.499.574-3.597.433-.647.924-1.251 1.41-1.86.22-.278.436-.56.652-.842.674-.877 1.355-1.75 2.035-2.622a401.62 401.62 0 001.906-2.463c.2-.26.402-.518.605-.776l.184-.235.357-.453c.798-.965.798-.965 1.021-2.148-.095-.429-.347-.703-.639-1.02l-.372-.427-.173-.192c-.245-.288-.257-.498-.267-.87l-.01-.276c.099-.684.68-1.132 1.16-1.581l.426-.41c.223-.213.446-.426.671-.636.22-.204.434-.412.649-.62l.206-.188c.184-.182.325-.332.444-.561-.002-.32-.085-.582-.195-.88-.293-1.38.024-2.634.781-3.808a16.24 16.24 0 011.073-1.135l.325-.326c.291-.293.584-.585.878-.877.308-.306.615-.614.922-.922.515-.516 1.032-1.03 1.55-1.545.596-.593 1.19-1.188 1.784-1.784a872.062 872.062 0 012.454-2.453l.863-.86.314-.314C28.125.133 30.612-.882 32.69.452zm-3.862 3.312l-.271.269-.292.292-.31.31c-.281.279-.561.559-.84.839l-.703.7-1.655 1.655c-.568.57-1.138 1.137-1.707 1.705a979.528 979.528 0 00-2.344 2.34 255.128 255.128 0 00-1.124 1.124 76.213 76.213 0 00-.645.646c-.29.348-.422.68-.388 1.133.16.984 1.303 1.77 1.986 2.454l.362.363a1127.46 1127.46 0 001.588 1.591l1.913 1.916 2.206 2.211 1.708 1.711 1.02 1.022a360.517 360.517 0 001.308 1.31c.159.161.32.32.48.48l.27.271c.36.308.686.451 1.16.416.356-.057.549-.147.814-.39l.205-.187a71.6 71.6 0 001.238-1.214l.3-.299a764.75 764.75 0 001.31-1.308l1.76-1.759c.546-.546 1.092-1.092 1.64-1.637a1440.655 1440.655 0 002.25-2.249 345.331 345.331 0 001.08-1.078l.395-.395.223-.223c.36-.41.442-.77.42-1.31-.05-.294-.112-.393-.314-.608l-.19-.204c-.475-.49-.954-.975-1.437-1.457l-.366-.366-.988-.989-1.036-1.035a4062.014 4062.014 0 00-3.746-3.746 3746.655 3746.655 0 00-4.08-4.08l-.483-.483-.274-.274c-.301-.284-.47-.32-.875-.332l-.25-.01c-.543.085-.94.498-1.319.875zM17.68 19.027a679.458 679.458 0 00-.792.797l-.281.282-.69.695c.376.451.767.876 1.188 1.285l.338.332.524.514c.172.167.342.335.512.503l.158.152c.36.358.642.722.737 1.23-.007.575-.141.958-.546 1.385-.472.284-.882.29-1.41.208-.414-.177-.609-.399-.915-.726h-.195a7.19 7.19 0 00-.3.47c-.31.501-.653.948-1.032 1.4a32.85 32.85 0 00-.809 1.027c-.358.469-.72.934-1.082 1.4a276.32 276.32 0 00-1.172 1.513c-.38.496-.763.99-1.147 1.483l-.174.224c-.3.385-.6.77-.902 1.154-.287.367-.572.735-.855 1.103-.125.161-.252.32-.379.48-.404.528-.621.982-.547 1.66.196.708.696 1.131 1.3 1.507.53.111 1 .09 1.48-.176.229-.164.45-.336.668-.514.186-.15.374-.296.563-.442.377-.29.752-.583 1.128-.877.38-.297.76-.594 1.142-.89l.223-.174c.52-.403 1.04-.805 1.562-1.205.405-.312.808-.626 1.212-.94.656-.511 1.314-1.021 1.975-1.527l.606-.469.452-.348.215-.167a94.6 94.6 0 01.204-.157l.18-.139c.182-.127.366-.224.567-.318-.117-.276-.238-.436-.446-.66-.29-.34-.351-.657-.335-1.098.096-.447.267-.747.585-1.074a1.781 1.781 0 011.27-.196c.569.283.971.64 1.413 1.091l.2.202.627.636.428.432c.349.352.696.704 1.043 1.057.36-.304.718-.607 1.05-.942l.18-.181.18-.183.188-.19.453-.457a23.843 23.843 0 00-1.539-1.649 769.16 769.16 0 01-1.056-1.056l-.807-.807a2878.616 2878.616 0 00-2.92-2.92 2846.837 2846.837 0 00-2.903-2.903l-.41-.41-.244-.244-.214-.213c-.233-.215-.212-.194-.45.03zM7.324 42.578l-.525.995-.15.284-.145.276-.133.252c-.274.552-.404.995-.316 1.611.214.428.43.703.879.879.492.067.862.056 1.312-.165.395-.356.527-.561.583-1.098-.008-.62-.288-1.113-.565-1.654l-.15-.306a9.523 9.523 0 00-.594-1.074h-.196z"/><path d="M31.065 7.081c.474.278.84.661 1.224 1.05l.247.245c.269.267.536.535.803.803l.56.559 1.17 1.172c.45.451.9.901 1.352 1.351a607.569 607.569 0 011.857 1.856l.773.774.231.23c.476.482.819.87.898 1.566-.05.962-.739 1.546-1.41 2.16l-.16.137c-.547.466-1.055.97-1.56 1.482l-.459.461c-.434.437-.868.874-1.3 1.312a405.636 405.636 0 01-1.105 1.112l-.423.426-.242.245c-.349.312-.615.421-1.08.429l-.24.008c-.757-.128-1.269-.712-1.786-1.233l-.244-.242a2880.07 2880.07 0 00-1.346-1.346 631.21 631.21 0 01-1.157-1.158c-.444-.446-.89-.891-1.336-1.336a566.363 566.363 0 01-1.835-1.834c-.255-.254-.51-.51-.763-.765l-.229-.227c-.488-.493-.89-.94-.891-1.67l-.006-.238c.119-.615.64-1.065 1.067-1.49l.188-.19a237.64 237.64 0 011.043-1.046l.897-.897c.384-.383.766-.767 1.148-1.151a417.269 417.269 0 011.308-1.31c.197-.199.394-.396.592-.593l.176-.177c.588-.581 1.249-.86 2.038-.475zm-.963 3.712l-.21.21-.236.237-.256.259-.262.263-.689.693-.703.707c-.46.463-.92.925-1.379 1.389.159.4.446.667.747.964a136.27 136.27 0 00.728.725l.387.386 1.018 1.013 1.039 1.035 2.038 2.03c.32-.14.53-.312.776-.559l.225-.225.24-.243.248-.249.782-.788.53-.534c.435-.436.868-.872 1.3-1.31-.158-.398-.443-.666-.742-.963l-.17-.17a207.435 207.435 0 00-.94-.941l-.808-.807-1.037-1.037a497.44 497.44 0 00-1.177-1.178l-.534-.533-.16-.161c-.345-.39-.345-.39-.755-.213z"/></g><defs><clipPath id="clip0_78_662"><path fill="#fff" d="M0 0h50v50H0z"/></clipPath></defs></svg>