<svg width="50" height="50" viewBox="0 0 50 50" fill="none" xmlns="http://www.w3.org/2000/svg"><g clip-path="url(#clip0_55_505)" fill="#000"><path d="M12.683 12.848l.25-.012c.44.095.675.445.915.809l.162.29.186.33.196.353.208.368.426.757c.311.554.63 1.103.947 1.652l.364.63c.06.103.12.206.18.313l.915 1.584.366.634.916 1.587.366.635.919 1.594a491.795 491.795 0 002.28 3.93l.383.654c1.558 2.666 2.775 5.144 2.765 8.3v.207c-.004 1.155-.102 2.245-.427 3.357l-.062.215c-.607 2.039-1.71 3.713-3.16 5.254l-.178.196c-1.065 1.135-2.96 2.621-4.559 2.764-.367-.033-.54-.1-.83-.323-.197-.296-.228-.383-.238-.72l-.012-.223c.084-.351.268-.489.543-.717a7.86 7.86 0 01.738-.373 11.248 11.248 0 002.973-2.069l.181-.163c1.657-1.538 2.714-4.071 2.868-6.303.05-1.438.016-2.8-.412-4.178l-.102-.358c-.419-1.284-1.158-2.429-1.84-3.587-.258-.438-.511-.88-.765-1.32a3222.906 3222.906 0 01-1.64-2.84l-.365-.636-2.38-4.126-.365-.631a1649.718 1649.718 0 01-1.518-2.635 58.95 58.95 0 00-.98-1.645c-.104-.191-.104-.191-.104-.387h-.195l-.081.213c-.113.271-.241.52-.385.775l-.163.293-.177.313-.184.328c-.522.924-1.055 1.841-1.592 2.757-.36.616-.718 1.234-1.074 1.852l-.184.32a2407.445 2407.445 0 00-1.287 2.232l-.366.634-.733 1.27-.183.318-.364.631-.846 1.466-.296.513a1941.972 1941.972 0 00-.539.935l-.167.29a43.79 43.79 0 01-.35.592c-.346.58-.644 1.143-.868 1.78l-.086.242c-.927 2.702-.772 5.691.47 8.27 1.166 2.256 2.922 3.911 5.22 4.956.417.194.72.4 1.012.759.083.301.061.573 0 .879-.206.341-.304.46-.684.586-.588.052-.97-.087-1.483-.342l-.22-.107a12.759 12.759 0 01-6.39-7.321 34.982 34.982 0 01-.305-1.02l-.107-.367c-.464-1.959-.357-4.35.205-6.273l.06-.212c.565-1.922 1.68-3.625 2.688-5.338.305-.52.607-1.044.908-1.567l.184-.32a5274.84 5274.84 0 001.653-2.866l2.197-3.808.183-.318.366-.634.923-1.601a641.746 641.746 0 011.8-3.111c.052-.091.104-.183.159-.276l.147-.252.129-.221c.246-.349.492-.407.895-.417zm27.539-2.93l.25-.012c.44.096.675.446.914.81.054.095.108.19.163.29l.186.33.196.352a437.319 437.319 0 00.634 1.126c.311.553.63 1.102.947 1.651l.364.63.18.313.915 1.584.366.635.732 1.27.184.317.364.632c.312.542.626 1.084.941 1.624 1.772 3.04 3.135 5.953 2.238 9.573-.71 2.536-2.384 4.746-4.673 6.054-.691.379-1.397.668-2.154.891l-.293.094c-2.503.68-5.183.182-7.42-1.033-2.204-1.328-3.767-3.334-4.494-5.8l-.095-.292c-.823-3.037.12-5.839 1.614-8.447.24-.417.483-.833.726-1.248a734.779 734.779 0 011.125-1.928c.544-.932 1.082-1.867 1.62-2.803a3244.033 3244.033 0 011.947-3.375c.1-.173.2-.345.298-.518l.372-.646.498-.86.162-.282.155-.267.136-.235c.248-.357.49-.42.902-.43zm-.085 3.168l-.12.21a995.81 995.81 0 01-2.726 4.749l-1.096 1.9-.937 1.622-1.078 1.87-.142.245c-1.245 2.164-1.974 4.264-1.372 6.787.344 1.085.867 2.16 1.611 3.027l.147.189c1.287 1.59 3.266 2.405 5.255 2.625a8.076 8.076 0 005.773-1.993c1.461-1.339 2.435-3.187 2.527-5.178.055-1.899-.368-3.372-1.287-5.024l-.14-.253a129.04 129.04 0 00-1.467-2.547c-.365-.622-.725-1.245-1.085-1.87l-.184-.319-.37-.642c-.305-.53-.61-1.06-.917-1.59l-.36-.624c-.06-.105-.12-.21-.183-.317l-1.654-2.867h-.195zM24.988-.043l.25-.012c.44.096.675.446.914.81a1653.474 1653.474 0 01.349.62l.196.352a266.674 266.674 0 00.634 1.126c.311.553.629 1.102.947 1.651l.361.626.557.964c.372.643.743 1.286 1.113 1.93.143.248.288.495.433.742 1.027 1.758 1.435 3.709.996 5.736-.413 1.301-1.073 2.33-2.05 3.271l-.188.197c-1.292 1.27-3.076 1.61-4.814 1.595-1.926-.046-3.44-.81-4.764-2.182l-.196-.188c-1.27-1.292-1.61-3.077-1.596-4.814.053-2.206 1.296-3.942 2.38-5.798.31-.533.618-1.068.926-1.603a1916.95 1916.95 0 011.03-1.785l.297-.518.372-.646c.165-.287.332-.573.498-.86l.162-.282.155-.267.136-.235c.247-.357.49-.42.902-.43zm-.085 3.168l-.12.21a830.29 830.29 0 01-3.079 5.359 395.696 395.696 0 00-.624 1.078c-.79 1.372-1.145 2.695-.776 4.28.507 1.372 1.347 2.369 2.645 3.038l.233.123c1.047.467 2.429.447 3.497.06 1.229-.56 2.096-1.323 2.716-2.527l.123-.233c.43-.962.462-2.326.14-3.332a9.154 9.154 0 00-.263-.537l-.102-.196c-.62-1.182-1.302-2.33-1.977-3.481a311.163 311.163 0 01-1.342-2.315c-.293-.508-.585-1.017-.876-1.527h-.195z"/><path d="M18.262 33.399c.754.503 1.054 1.646 1.231 2.487.29 1.887-.008 3.716-1.036 5.325-.32.43-.69.801-1.074 1.172l-.188.197c-1.095 1.075-2.704 1.569-4.2 1.61l-.214.009c-.379 0-.559-.046-.864-.275-.21-.287-.265-.41-.26-.76l-.003-.244c.097-.367.251-.505.553-.732.288-.083.575-.107.873-.135 1.332-.169 2.42-.702 3.326-1.72.233-.312.416-.628.586-.977l.122-.232c.454-1.008.456-2.395.086-3.43a7.25 7.25 0 00-.316-.633c-.168-.38-.16-.77-.087-1.174.387-.497.845-.658 1.465-.488zm25-7.325c.43.301.69.78.832 1.278.209 1.285.121 2.503-.655 3.58-.72.856-1.557 1.402-2.681 1.53-.514.02-.887.03-1.342-.223-.227-.437-.251-.8-.158-1.282.206-.36.386-.46.782-.568.224-.049.448-.096.673-.142.526-.124.79-.337 1.12-.755.251-.482.223-1.035.16-1.562a15.289 15.289 0 00-.196-.39 2.753 2.753 0 010-.977c.386-.496.846-.66 1.465-.489zM13.184 48.047c.305.183.305.183.488.488.096.49.076.85-.183 1.282-.432.259-.791.28-1.282.183-.305-.183-.305-.183-.488-.488-.097-.491-.076-.85.183-1.282.431-.26.79-.28 1.282-.183z"/></g><defs><clipPath id="clip0_55_505"><path fill="#fff" d="M0 0h50v50H0z"/></clipPath></defs></svg>