<svg width="40" height="40" viewBox="0 0 40 40" fill="none" xmlns="http://www.w3.org/2000/svg"><g clip-path="url(#clip0_156_192)" fill="#000"><path d="M32.647-.005a23982.624 23982.624 0 00.712.005c-.39.47-.812.9-1.246 1.33l-.224.222a617.536 617.536 0 01-1.521 1.514l-.328.324-.199.199-.176.175c-.139.134-.139.134-.212.299.031.576.18 1.084.363 1.63l.086.261.181.546c.093.277.183.555.274.834a486.008 486.008 0 00.258.782c.199.593.199.593.635 1.025.307.136.622.242.942.345l.278.093c.243.081.487.161.73.24l.447.149c.286.096.572.19.86.285l.267.09c.612.219.612.219 1.242.204a6.56 6.56 0 00.78-.703l.19-.184a57.8 57.8 0 00.568-.569l.206-.207a632.725 632.725 0 001.498-1.506l.199-.2.182-.184.16-.161c.123-.114.123-.114.201-.114.08 2.16-.52 3.897-1.998 5.508-1.256 1.312-3.086 2.048-4.89 2.093-.607.004-1.187-.077-1.784-.18-.366-.056-.366-.056-.684.101-.399.36-.784.731-1.164 1.111l-.198.197-.538.536-.582.58a2050.27 2050.27 0 00-1.797 1.792l-2.46 2.455-.567.567-.143.142-2.294 2.287-2.355 2.35c-.44.44-.881.88-1.323 1.319-.375.373-.75.747-1.124 1.122-.19.191-.382.382-.574.572a72.59 72.59 0 00-.62.621l-.186.182c-.398.399-.398.399-.5.942.022.201.022.201.071.4.385 1.92-.03 3.878-1.092 5.508-1.173 1.602-2.776 2.674-4.745 3.038-1.963.296-3.958-.105-5.561-1.288C1.41 37.532.352 35.95.034 34.085c-.252-2.13.19-4.112 1.524-5.822.104-.125.21-.249.317-.371l.137-.16c1.13-1.222 2.913-2.034 4.569-2.114.194-.005.388-.007.582-.007h.209c.46.003.893.053 1.347.14.276.046.467.04.734-.047.47-.355.881-.791 1.296-1.208l.196-.195.532-.533.576-.575a1992.983 1992.983 0 002.041-2.042l.132-.131.265-.265a8286.009 8286.009 0 004.61-4.61 9616.548 9616.548 0 002.737-2.737l.131-.131a3944.56 3944.56 0 012.596-2.597l.615-.615.183-.182.165-.166.144-.143c.216-.236.203-.444.2-.756a7.54 7.54 0 00-.096-.765 7.187 7.187 0 011.28-5.19c1.39-1.742 3.328-2.889 5.59-2.867zm-5.422 11.823l-.143.144-.165.164-.182.183-.193.192-.53.532-.573.572-.99.993-1.434 1.435a4252.91 4252.91 0 00-4.584 4.59l-.14.141-.7.699-5.794 5.803.22.259.124.146c.164.186.337.36.515.532a1.83 1.83 0 00.592-.416l.164-.163.179-.18.19-.191a346.602 346.602 0 001.091-1.092l.98-.98 1.417-1.42a4988.981 4988.981 0 004.671-4.677l.69-.691 5.73-5.737-.221-.259-.125-.146a6.478 6.478 0 00-.514-.532c-.162-.017-.162-.017-.275.1zM4.397 31.566c-.055.142-.105.286-.155.43-.111.296-.25.545-.414.817a920.077 920.077 0 00.833 1.408l.304.514.095.16c.083.14.168.28.253.417l.092.19c.25.217.563.176.883.178l.222.004.464.003c.236.002.472.008.708.015l.452.003.213.008c.3-.005.485-.011.7-.232.122-.182.226-.366.328-.56a34.446 34.446 0 00.59-.911l.181-.276c.373-.52.373-.52.442-1.124-.093-.192-.093-.192-.221-.375-.152-.234-.23-.461-.32-.724-.243-.587-.506-1.168-1.063-1.511-1.887-.75-3.8-.318-4.587 1.566z"/><path d="M26.406 20.234c.219.106.378.203.548.377l.125.127a257.631 257.631 0 01.26.265l.317.325a4.087 4.087 0 01-.278.6 2.28 2.28 0 00-.034 1.744c.118.194.25.366.39.547v.156l.137.068c.111.056.222.112.332.17l.156.08.157.08c.44.199.92.227 1.38.085.304-.121.593-.259.885-.405l8.282 8.281c-.528.616-.528.616-.74.827l-.145.145-.154.154-.166.166-.54.54-.377.375-.987.985-1.009 1.007-1.976 1.973c-.272-.116-.448-.272-.656-.48l-.206-.206-.225-.226-.238-.238-.644-.647-.674-.675-1.276-1.28-1.453-1.455-2.988-2.996c.084-.217.17-.416.284-.62.213-.503.192-1.12.041-1.636a2.408 2.408 0 00-1.252-1.255c-.617-.194-1.224-.11-1.807.152l-.39.234-1.172-1.172c.527-.615.527-.615.738-.826l.146-.146.154-.153.166-.167.54-.538.377-.377.987-.985 1.009-1.007 1.976-1.973zm1.758 7.298l-.24.241-.122.125-.302.305c.11.25.24.416.433.608l.174.175c.095.093.095.093.19.189l.202.201c.181.182.364.363.546.544l.57.569 1.08 1.076 1.23 1.226 2.528 2.522c.284-.133.465-.293.684-.518l.189-.194.143-.148c-.355-.425-.731-.82-1.123-1.211l-.194-.194-.63-.63-.44-.44A1586.547 1586.547 0 0031.105 30l-1.022-1.023-.435-.435a493.35 493.35 0 00-.954-.953l-.145-.144c-.192-.175-.179-.11-.384.087zM2.46.156c.23.092.436.2.65.324l.267.154a218.946 218.946 0 011.026.6c.317.185.64.351.97.51 1.233.601 1.233.601 1.452 1.082.096.294.144.59.181.895.043.316.121.62.201.927l.034.167c.224.91 1.193 1.599 1.839 2.242a937.465 937.465 0 011.04 1.04l.797.796 1.504 1.502 1.713 1.712 3.522 3.518c-.136.29-.301.476-.53.702l-.11.109-.346.341-.235.233c-.192.19-.383.38-.576.568-.301-.123-.502-.326-.726-.555l-.123-.125-.408-.414a409.566 409.566 0 00-.924-.936c-.332-.337-.666-.674-1-1.01l-.343-.346-.174-.175a994.877 994.877 0 01-2.327-2.352 391.79 391.79 0 00-1.571-1.587c-.278-.279-.555-.558-.83-.84-.26-.264-.52-.527-.783-.79a30.77 30.77 0 01-.285-.29c-.713-.735-1.319-1.065-2.36-1.183-.584-.071-1.123-.164-1.533-.615-.334-.483-.593-1.002-.844-1.532A11.807 11.807 0 00.98 3.65a126 126 0 00-.405-.666L.43 2.742a9.84 9.84 0 00-.127-.211c-.07-.187-.07-.187-.03-.34.16-.218.34-.411.528-.603l.123-.125.257-.26.39-.402.25-.253c.059-.06.059-.06.117-.123.273-.269.273-.269.521-.27zm37.15 33.907l.234.078c.356.877.299 2.224-.058 3.086l-.099.195-.103.204c-.586 1.054-1.45 1.779-2.594 2.164a4.73 4.73 0 01-2.85-.102c.101-.221.206-.381.377-.552l.136-.137.15-.147.156-.157.515-.513a1198.408 1198.408 0 001.296-1.291l.959-.955c.626-.625 1.253-1.25 1.88-1.873z"/></g><defs><clipPath id="clip0_156_192"><path fill="#fff" d="M0 0h40v40H0z"/></clipPath></defs></svg>