<svg width="40" height="40" viewBox="0 0 40 40" fill="none" xmlns="http://www.w3.org/2000/svg"><g clip-path="url(#clip0_156_197)" fill="#000"><path d="M34.453.312l.152.051c2.101.72 3.74 2.257 4.715 4.231.837 1.791.988 3.996.367 5.875l-.085.267c-.667 1.889-2.101 3.26-3.486 4.643l-.29.29a1170.373 1170.373 0 01-1.64 1.642 6554.228 6554.228 0 01-3.023 3.024l-3.848 3.849-.21.21-.209.209-3.362 3.363a10248.775 10248.775 0 01-7.046 7.05 667.18 667.18 0 00-1.612 1.612l-.278.278c-1.856 1.865-3.842 3.103-6.537 3.118-.878.002-1.676-.074-2.514-.337l-.27-.082c-1.04-.363-1.961-.983-2.777-1.714l-.164-.145C.93 36.43.038 34.449-.026 32.534c-.021-1.599.164-2.901.885-4.33l.124-.249a6.7 6.7 0 01.847-1.2l.124-.144c.45-.515.928-1 1.412-1.482l.299-.3.814-.814.88-.881a2167.8 2167.8 0 013.324-3.325l.406-.406c1.266-1.268 2.533-2.534 3.8-3.801l3.472-3.474a6683.08 6683.08 0 015.574-5.577 1497.03 1497.03 0 012.573-2.573 303.827 303.827 0 011.083-1.084c.771-.775 1.58-1.522 2.563-2.02l.168-.087c1.85-.928 4.161-1.142 6.131-.475zM30.86 3.125c-.123.246-.105.431-.078.703.139.233.301.424.547.547.445.037.445.037.85-.122.214-.246.278-.414.322-.737-.085-.282-.173-.477-.366-.699-.546-.25-.888-.088-1.275.308zm2.578 2.187c-.227.199-.234.311-.273.616.012.372.169.536.43.79.24.12.438.097.703.079.218-.097.347-.179.493-.366a1.79 1.79 0 00.054-.806c-.156-.287-.274-.373-.572-.508-.357-.048-.524.017-.835.195zm-5.078.313c-.125.25-.115.51-.078.781.142.242.257.359.498.498.26.062.418.046.674-.029.282-.193.282-.193.469-.469.047-.4.047-.4-.082-.767-.227-.276-.365-.393-.719-.434-.386.039-.491.15-.762.42zm7.354 2.241c-.13.269-.149.518-.088.806.137.236.3.423.547.547.356.041.356.041.684-.082.17-.14.31-.267.41-.465.039-.448.039-.448-.132-.85-.477-.438-.947-.383-1.421.044zm-4.932.103c-.139.229-.157.357-.146.625.079.27.188.42.38.625.253.126.51.124.782.078.236-.136.423-.3.547-.547.041-.356.041-.356-.082-.684-.14-.17-.267-.31-.465-.41-.443-.042-.677.021-1.016.313zm-4.902.097c-.158.222-.167.416-.176.684.089.218.089.218.234.39l.093.137c.236.163.488.194.767.176.251-.126.41-.232.576-.459.103-.35.087-.564-.088-.889-.218-.266-.341-.352-.679-.395-.3.037-.486.184-.727.356zm7.324 2.325c-.133.229-.158.36-.146.625.078.27.188.42.38.625.253.126.509.124.782.078.236-.136.423-.3.547-.547.04-.356.04-.356-.082-.684-.14-.17-.267-.31-.465-.41-.453-.037-.692-.04-1.016.313zm-4.922.078c-.177.216-.156.333-.151.62.04.248.084.333.24.547.272.196.435.239.77.239.307-.1.435-.185.62-.45.103-.312.097-.484.006-.8-.235-.276-.398-.452-.762-.493-.321.03-.475.134-.723.337zm2.354 2.514c-.12.298-.109.546-.01.845.19.256.319.366.62.469.35 0 .567-.137.85-.332.152-.224.162-.416.17-.684-.097-.281-.183-.428-.415-.615-.5-.21-.87-.086-1.215.317zm-9.81 1.182a541.702 541.702 0 01-.886.885l-.677.678a3039.587 3039.587 0 00-2.45 2.449 2003.97 2003.97 0 00-2.983 2.984l-.179.179c-.162.174-.207.271-.252.506.132.89 1.56 1.89 2.2 2.533.175.177.35.354.523.532.211.216.424.43.637.645.08.08.16.163.24.245a1443.013 1443.013 0 00.531.536c.26.187.434.222.752.226.3-.152.52-.345.758-.582l.216-.216.235-.236.249-.248.674-.675.705-.706 1.184-1.186a1265.078 1265.078 0 012.687-2.69 990.249 990.249 0 011.22-1.222l.243-.243.33-.33.187-.188c.173-.186.214-.268.243-.521-.046-.478-.392-.797-.719-1.125a95.613 95.613 0 00-.475-.476l-.254-.254-.531-.53-.68-.68a258.873 258.873 0 00-1.124-1.125l-.201-.2a1.35 1.35 0 00-.709-.362c-.661.115-1.235.937-1.694 1.397zM7.91 26.035c-.159.223-.167.414-.176.684.098.281.184.427.415.615.255.107.405.127.68.088.239-.13.414-.239.575-.46.091-.31.086-.545-.039-.844-.182-.225-.346-.31-.615-.415-.382 0-.538.117-.84.332zm2.295 2.549c-.103.349-.085.564.083.889.193.23.28.31.571.37.335-.005.501-.043.772-.243.202-.274.244-.433.244-.772-.102-.312-.183-.435-.459-.615-.507-.183-.878-.083-1.211.371zm-4.894.077c-.114.25-.114.44-.061.707.111.29.265.404.531.554.322.07.561.037.85-.132.244-.266.327-.443.312-.806-.079-.27-.188-.42-.38-.625-.485-.242-.94-.128-1.252.302zm7.423 2.198c-.183.25-.187.477-.156.782.113.27.21.374.454.537.29.102.426.103.718.01.258-.17.46-.322.547-.626-.007-.348-.041-.502-.269-.771-.215-.179-.296-.237-.571-.269-.32.031-.475.135-.723.337zm-4.843 0c-.187.225-.232.37-.274.66.052.369.169.485.43.747.24.12.439.096.703.078.276-.13.376-.212.547-.469.056-.35.045-.624-.132-.933-.435-.388-.786-.378-1.274-.083zm-5.079.313c-.125.25-.114.509-.078.781.156.287.274.373.572.508.357.048.524-.016.835-.195.177-.149.223-.25.261-.476.023-.348.01-.493-.213-.774-.529-.404-.935-.285-1.377.156zm7.422 2.187c-.193.29-.216.524-.156.86.148.255.257.42.542.523.273.048.435.04.693-.07.302-.249.395-.358.44-.76-.013-.322-.11-.485-.347-.709-.447-.303-.771-.155-1.172.156zm-5 .157c-.135.27-.125.563-.078.859.178.236.178.236.39.39l.079.079c.4.047.4.047.768-.082.169-.14.305-.268.404-.465.03-.389.012-.63-.235-.938-.235-.183-.49-.188-.783-.181-.243.04-.377.165-.545.338zm2.422 2.422c-.15.331-.173.487-.073.84.164.274.246.373.542.488.263.038.45.058.683-.083.172-.139.311-.266.41-.464.03-.39.008-.625-.234-.938-.443-.295-.974-.261-1.328.157zm24.78-14.922c.255.14.449.352.652.557l.153.152.5.5.35.35.733.734c.31.312.622.623.934.933a328.829 328.829 0 011.067 1.067c.863.86 1.756 1.749 2.306 2.85l.086.167c.965 1.937 1.095 4.246.415 6.296-.693 2-2.148 3.597-4.007 4.597-1.974.946-4.267 1.107-6.34.386-1.201-.437-2.187-1.111-3.113-1.983l-.155-.145a83.612 83.612 0 01-1.578-1.533l-.15-.147a797.57 797.57 0 01-.77-.767l-.638-.63c-.26-.256-.518-.513-.776-.77a53.493 53.493 0 01-.701-.696l-.124-.12c-.11-.112-.11-.112-.264-.314.006-.343.281-.549.51-.775l.137-.139.46-.46.329-.332.895-.897.747-.748 1.762-1.762c.607-.607 1.213-1.215 1.818-1.823L29.234 24c.311-.31.622-.622.932-.934.291-.293.584-.586.877-.877l.322-.324.44-.438.128-.131c.288-.282.288-.282.503-.28zM11.797.86l.245.12c.454.245.844.54 1.23.877l.155.134a35.25 35.25 0 011.705 1.64l.336.338.873.877.895.898c.584.585 1.166 1.17 1.748 1.756-.127.321-.358.536-.599.774l-.139.14-.461.46-.33.33-.899.896-.938.937-1.777 1.774-2.023 2.02c-1.387 1.384-2.774 2.77-4.162 4.153-.327-.15-.552-.373-.803-.626l-.147-.146-.479-.48-.335-.334-.703-.704-.896-.895a456.974 456.974 0 01-1.022-1.022c-.606-.604-1.186-1.208-1.709-1.886l-.149-.193C.099 10.974-.205 8.766.023 6.658a6.78 6.78 0 01.29-1.111l.05-.152C1.085 3.29 2.616 1.665 4.59.684c2.289-1.08 4.973-.949 7.207.175z"/></g><defs><clipPath id="clip0_156_197"><path fill="#fff" d="M0 0h40v40H0z"/></clipPath></defs></svg>