<svg width="40" height="40" viewBox="0 0 40 40" fill="none" xmlns="http://www.w3.org/2000/svg"><g clip-path="url(#clip0_156_201)" fill="#000"><path d="M4.844 11.719h30.312c0 .879 0 .879-.03 1.242l-.02.252-.023.268-.024.292a425.065 425.065 0 01-.137 1.653 2331.643 2331.643 0 01-.252 3.05l-.017.196-.032.397a9287.92 9287.92 0 01-.572 6.893c-.102 1.233-.203 2.466-.306 3.698l-.033.396-.016.196a3132.69 3132.69 0 00-.321 3.878c-.337 4.09-.337 4.09-1.71 5.264-.672.515-1.366.63-2.194.627l-.254.001h-.844l-.606.002a603.277 603.277 0 01-2.672.003l-3.401.002h-.371c-.99 0-1.981.001-2.972.004l-3.054.003c-.571 0-1.143 0-1.714.002H11.97l-.59.001c-.27.002-.54 0-.809 0l-.234.002c-.845-.008-1.55-.306-2.211-.822l-.146-.114c-.899-.792-1.1-1.995-1.19-3.126l-.023-.267-.073-.885-.053-.64-.13-1.568a2110.246 2110.246 0 00-.363-4.384 5008.531 5008.531 0 00-.704-8.449l-.037-.446a4900.596 4900.596 0 01-.307-3.676 844.166 844.166 0 00-.183-2.2l-.037-.444-.02-.249c-.02-.35-.015-.701-.015-1.052zm7.265 2.734c-.286.359-.265.686-.255 1.123l.003.22c.014.829.063 1.656.115 2.484l.03.52a723.247 723.247 0 00.158 2.56 2824.671 2824.671 0 00.17 2.753l.01.157.153 2.521a1504.191 1504.191 0 00.248 4.056 390.918 390.918 0 00.115 1.866l.043.684.01.198c.038.54.107 1.117.533 1.488.346.211.697.221 1.09.151.352-.173.538-.347.702-.703a4.8 4.8 0 00.021-.732l-.003-.22a54.527 54.527 0 00-.114-2.484l-.032-.52a813.642 813.642 0 00-.156-2.56 2824.671 2824.671 0 00-.17-2.753l-.01-.157-.154-2.521a1611.158 1611.158 0 00-.248-4.056 367.923 367.923 0 00-.115-1.866 111.583 111.583 0 00-.054-.882c-.036-.526-.104-1.065-.493-1.444-.532-.327-1.122-.311-1.597.117zm7.031 0c-.352.475-.323.976-.322 1.542v.234l-.001.777-.001.556a1019.563 1019.563 0 00-.002 2.456v3.463l-.002 2.732a2018.307 2018.307 0 00-.003 4.38 609.178 609.178 0 000 2.025 152.893 152.893 0 00-.002.959c.003.507.023.933.368 1.33.36.308.558.362 1.02.352.289-.036.45-.144.664-.337.353-.475.324-.976.323-1.542v-.234l.001-.777v-.556a873.911 873.911 0 00.002-2.456l.001-3.123v-.34l.002-2.732a2385.271 2385.271 0 00.003-4.38 522.154 522.154 0 000-2.025 152.894 152.894 0 00.001-.959c-.002-.507-.022-.932-.367-1.33-.36-.308-.559-.362-1.02-.352-.289.036-.45.144-.665.337zm6.954.078c-.221.462-.277.943-.304 1.447l-.015.217-.043.714-.032.514c-.03.465-.058.93-.085 1.394l-.09 1.463-.15 2.46-.155 2.522-.01.156-.01.157a3111.015 3111.015 0 00-.353 5.763c-.032.518-.06 1.035-.082 1.553l-.01.227a37.57 37.57 0 00-.02.671l-.009.202c-.005.487.11.72.43 1.087.328.23.709.212 1.094.156.286-.109.485-.262.619-.541.143-.435.207-.84.232-1.296l.014-.217c.015-.238.03-.476.043-.714l.033-.514.085-1.394.09-1.463.15-2.46c.05-.841.102-1.682.155-2.522l.01-.156.009-.157a2767.688 2767.688 0 00.353-5.763c.033-.518.06-1.035.082-1.553l.01-.227c.01-.224.015-.447.02-.671l.01-.202c.005-.487-.111-.72-.43-1.087-.523-.366-1.235-.225-1.641.234zM14.997-.02c.092-.002.183-.002.277-.003h.3l.32-.001a195.262 195.262 0 011.407-.003l1.892-.002c.586 0 1.172-.001 1.758-.004.504-.002 1.009-.003 1.514-.003.3 0 .601 0 .902-.002h.85l.456-.003c1.006.008 1.76.315 2.515.979.582.618 1.04 1.403 1.03 2.27l-.001.262-.004.27-.002.276-.008.672.286-.003c.89-.008 1.779-.014 2.668-.018.458-.002.915-.005 1.372-.009.442-.004.884-.007 1.326-.008.168 0 .336-.002.504-.004.236-.003.473-.003.709-.003l.208-.004c.62.005 1.061.253 1.58.571.556.572.747 1.18.753 1.957-.01.498-.14.857-.421 1.27l-.132.215c-.493.48-1.036.732-1.719.734h-.162a175.247 175.247 0 01-.934.002l-1.079.002L32 9.392a2889.884 2889.884 0 01-3.602.005l-4.924.005h-1.427l-4.594.007c-1.572.004-3.143.006-4.715.006-.883 0-1.765.001-2.648.004-.751.002-1.503.003-2.255.002-.383 0-.767 0-1.15.002H5.63l-.38.001c-.714.006-1.282-.037-1.892-.44l-.214-.131c-.557-.572-.748-1.18-.754-1.957.01-.498.14-.857.422-1.271l.131-.215c.405-.394.94-.733 1.516-.732h.637l.741.002a1257.881 1257.881 0 001.868.002l1.38.002c.904 0 1.808.002 2.711.004l-.005-.166a73.52 73.52 0 01-.015-.757l-.007-.26c-.012-.996.31-1.744.965-2.49.617-.58 1.398-1.033 2.262-1.036zm-.451 2.71c-.54.633-.405 1.117-.405 1.998H25.86c.071-1.05.071-1.05-.347-1.939-.402-.343-.707-.415-1.225-.416h-.497l-.274-.001-.9-.001h-.466c-.49-.002-.979-.002-1.468-.002-.504 0-1.008 0-1.512-.002a526.752 526.752 0 00-2.076-.002 201.416 201.416 0 00-1.124-.002c-.77 0-.77 0-1.425.367z"/></g><defs><clipPath id="clip0_156_201"><path fill="#fff" d="M0 0h40v40H0z"/></clipPath></defs></svg>