<svg width="40" height="40" viewBox="0 0 40 40" fill="none" xmlns="http://www.w3.org/2000/svg"><g clip-path="url(#clip0_155_186)"><path d="M19.985-.02l.241-.006c.53.056.843.363 1.205.72 3.299 3.147 7.732 4.75 12.243 4.97l.185.008c.304.015.608.028.912.038 1.21.048 1.21.048 1.701.523l.086.134.09.134c.13.254.159.5.165.782l.005.2.004.216.005.232.014.765.005.268c.122 6.897.122 6.897-.127 9.786l-.024.282c-.559 6.223-2.745 12.225-7.652 16.324a31.949 31.949 0 01-.611.471c-.803.612-1.613 1.181-2.494 1.673l-.197.11c-4.773 2.678-4.773 2.678-6.31 2.352a8.31 8.31 0 01-.53-.182l-.2-.073c-2.662-.995-5.137-2.328-7.373-4.082l-.128-.1a12.286 12.286 0 01-1.278-1.15 31.886 31.886 0 00-.587-.578 14.327 14.327 0 01-1.522-1.766l-.103-.136a20.523 20.523 0 01-1.382-2.13l-.086-.149C4.39 26.38 3.625 22.608 3.3 18.931l-.014-.159a51.37 51.37 0 01-.084-1.116l-.011-.177c-.076-1.218-.08-2.436-.077-3.656v-.488A276.747 276.747 0 013.17 7.78l.003-.207c.015-.627.112-1.103.576-1.557.39-.199.69-.267 1.133-.284l.166-.007.35-.015c.31-.012.617-.028.926-.044l.185-.01a22.55 22.55 0 002.62-.302c3.417-.58 6.65-2.095 9.187-4.469.974-.894.974-.894 1.668-.905zm5.718 13.848l-.097.099-.776.78-.15.15c-.196.19-.402.368-.61.544-.281.25-.541.522-.806.79-.269.27-.544.526-.835.772-.263.236-.507.489-.755.74-.259.26-.525.504-.805.742-.22.197-.427.407-.634.617a13.38 13.38 0 01-.922.86 8.432 8.432 0 00-.425.418l-.137.142-.27.285c-.125.131-.125.131-.356.327-.316-.035-.437-.188-.64-.425l-.186-.215-.19-.22-.351-.39-.878-.976-.36-.4a45.91 45.91 0 01-.989-1.124c-.438.315-.84.653-1.23 1.025l-.153.144a25.43 25.43 0 00-.726.706c.378.422.759.842 1.143 1.26.278.302.551.608.82.918.223.252.45.499.678.746.231.251.46.504.69.757a70.76 70.76 0 01.525.59c.556.693.556.693 1.323 1.065.598.028.933-.103 1.384-.492.141-.133.277-.268.41-.409a6.45 6.45 0 01.44-.402c.234-.203.455-.414.673-.635.262-.266.534-.514.818-.757.177-.158.343-.324.51-.493a13.3 13.3 0 01.818-.757c.177-.158.343-.324.51-.493a13.3 13.3 0 01.818-.757c.24-.214.463-.444.688-.673.207-.204.425-.393.645-.582.162-.144.314-.294.466-.449.2-.203.404-.395.62-.58.36-.31.69-.645 1.021-.982l.234-.235a17.4 17.4 0 01-1.117-1.178 13.22 13.22 0 00-.68-.697l-.156-.156z" fill="#000"/></g><defs><clipPath id="clip0_155_186"><path fill="#fff" d="M0 0h40v40H0z"/></clipPath></defs></svg>