<svg width="40" height="40" viewBox="0 0 40 40" fill="none" xmlns="http://www.w3.org/2000/svg"><path d="M14.922 7.5h.156l.035.262c.303 2.153.956 4.232 1.996 6.144l.083.156c1.314 2.469 3.256 4.557 5.699 5.938l.146.084c1.406.803 2.904 1.296 4.463 1.713v.156l-.147.04c-4.382 1.21-7.799 3.572-10.096 7.531a17.955 17.955 0 00-2.179 6.726h-.156l-.035-.261c-.303-2.153-.956-4.233-1.996-6.145l-.083-.156c-2.036-3.825-5.372-6.229-9.458-7.511a14.167 14.167 0 00-.85-.224v-.156l.147-.04c4.383-1.21 7.798-3.572 10.096-7.53C13.89 12.19 14.684 9.83 14.922 7.5zm15.625 15h.156l.05.275c.333 1.773 1.004 3.297 2.216 4.647l.16.181c1.153 1.239 2.765 1.9 4.371 2.319v.156l-.298.08c-2.26.632-4.134 1.83-5.337 3.9-.602 1.087-.949 2.221-1.162 3.442h-.156l-.047-.27c-.363-1.975-1.18-3.63-2.61-5.042l-.162-.163c-.44-.412-.957-.71-1.478-1.01l-.219-.127c-.718-.389-1.498-.593-2.281-.81v-.156l.298-.08c2.26-.632 4.134-1.83 5.337-3.9.602-1.087.949-2.221 1.162-3.442zm-4.375-20h.156l.05.275c.333 1.773 1.004 3.297 2.216 4.647l.16.181c1.153 1.239 2.765 1.9 4.371 2.319v.156l-.298.08c-2.26.632-4.134 1.83-5.337 3.9-.602 1.087-.949 2.221-1.162 3.442h-.156l-.047-.27c-.363-1.975-1.18-3.63-2.61-5.043l-.162-.162c-.44-.412-.957-.71-1.478-1.01l-.219-.127c-.718-.389-1.498-.593-2.281-.81v-.156l.298-.08c2.26-.632 4.134-1.83 5.337-3.9.602-1.087.949-2.221 1.162-3.442z" fill="#000"/></svg>