<svg width="40" height="40" viewBox="0 0 40 40" fill="none" xmlns="http://www.w3.org/2000/svg"><g clip-path="url(#clip0_156_204)" fill="#000"><path d="M11.328 1.797h9.766l1.172 2.578.156.313v.234l.198.053c.272.104.46.23.693.399.648.461 1.098.57 1.9.435.271-.042.543-.066.815-.09l.422-.042c.43-.045.851-.059 1.284-.052a167.968 167.968 0 001.91 3.352c.288.493.574.987.859 1.482l.145.252.692 1.201.325.564a317.558 317.558 0 01.37.644l.124.215c.083.14.172.279.263.415-.011.42-.204.681-.454 1.001l-.114.155c-.201.272-.409.53-.635.782-.692.804-.847 1.57-.772 2.625.104.735.497 1.26.996 1.79.353.387.353.387.357.628-.113.288-.307.482-.52.7l-.26.271-.125.132c-.138.145-.27.294-.402.446-.2.232-.404.461-.61.689-.21.233-.42.466-.625.703-.265.304-.536.604-.806.904-.148.164-.294.33-.44.497a45.42 45.42 0 01-.884.98 6.3 6.3 0 00-.41.51 1.971 1.971 0 01-.588-.404l-.156-.147-.163-.157-.34-.322a35.656 35.656 0 00-.905-.83c-.378-.34-.753-.686-1.128-1.031.165-.295.33-.58.527-.855 1.394-2.082 1.754-4.545 1.312-6.986-.508-2.461-2.05-4.516-4.105-5.91-1.959-1.279-4.441-1.667-6.719-1.25-1.57.341-3 .974-4.219 2.032l-.194.163c-1.88 1.62-2.838 3.886-3.087 6.322-.184 2.487.753 4.828 2.306 6.727 1.542 1.78 3.759 2.822 6.078 3.097.122.008.244.014.366.02l.215.012c.553.016 1.089-.04 1.636-.115l.205-.028a6.72 6.72 0 001.216-.3c.166-.038.166-.038.4.04-.387.433-.777.863-1.172 1.289-.334.36-.665.724-.993 1.09-.206.23-.415.456-.623.682-.302.328-.597.66-.884 1.001.426.433.85.86 1.31 1.255.276.24.542.49.81.738.316.294.639.581.965.864l.118.112v.078h-7.578l-1.172-2.578-.156-.313v-.234l-.155-.056a8.61 8.61 0 01-.88-.457l-.173-.097c-.422-.239-.422-.239-.51-.328-.175.004-.35.013-.523.025l-.165.01c-.56.04-1.12.093-1.679.148-.411.04-.814.06-1.227.052l-.083-.15a162.987 162.987 0 00-1.827-3.202 236.598 236.598 0 01-1.004-1.734 1970.265 1970.265 0 01-1.017-1.765l-.23-.4-.14-.244-.124-.215A8.947 8.947 0 000 21.797c0-.473.27-.773.542-1.133l.137-.19c.207-.284.414-.558.656-.813.582-.64.658-1.294.65-2.147-.058-.88-.41-1.4-.985-2.04a9.666 9.666 0 01-.639-.85l-.114-.155c-.142-.2-.246-.348-.25-.599.116-.282.257-.544.408-.808l.105-.185c.33-.583.668-1.16 1.006-1.737.358-.612.711-1.227 1.062-1.843.448-.787.901-1.57 1.36-2.352.255-.437.506-.876.75-1.32.662-.018 1.314.051 1.972.117a270.21 270.21 0 00.968.096c.505.041.717.01 1.151-.272l.27-.172.248-.16c.512-.312.512-.312.703-.312l.078-.39 1.25-2.735z"/><path d="M15.923 10.69c1.849-.053 3.63.573 5.015 1.81l.197.175c1.26 1.184 2.073 2.936 2.146 4.669l.01.194c.045 1.82-.582 3.61-1.807 4.962l-.174.197a6.986 6.986 0 01-4.67 2.147l-.18.012a7.11 7.11 0 01-4.976-1.81l-.194-.171c-1.35-1.269-2.066-2.994-2.162-4.834-.054-2.063.71-3.85 2.122-5.34 1.274-1.243 2.9-1.91 4.673-2.01zm19.624 9.232c.224.103.397.216.58.38l.164.147c.28.255.558.512.835.77.275.253.553.502.836.747.251.221.497.448.742.674.324.299.654.59.987.878.148.15.228.273.309.466-.308.356-.62.707-.938 1.055-.27.296-.536.595-.799.897-.336.384-.68.761-1.023 1.14-.265.294-.53.589-.79.888-.285.328-.579.648-.871.97-.156.171-.31.344-.462.52-.283.325-.575.644-.866.963-.156.172-.31.345-.462.52-.284.327-.575.645-.867.965-.155.172-.309.345-.461.52-.218.25-.44.497-.664.742-.27.296-.537.595-.8.897-.336.384-.68.761-1.023 1.14-.265.294-.53.589-.79.888-.219.252-.443.5-.668.747-.61.663-.61.663-1.172 1.367-.266-.045-.385-.126-.567-.322a8.088 8.088 0 00-.576-.552c-.285-.246-.563-.5-.84-.757a90.302 90.302 0 00-1.102-1.004c-.42-.38-.837-.764-1.254-1.147-.464-.426-.93-.85-1.399-1.272-.224-.202-.446-.406-.669-.61-.348-.32-.699-.638-1.051-.955-.354-.318-.706-.639-1.058-.959.11-.254.244-.415.445-.605.205-.201.403-.403.59-.62.245-.285.497-.56.752-.835.28-.303.56-.607.835-.914.268-.298.536-.596.806-.893l.11-.123c.167-.183.317-.324.525-.463l.177.163c.382.351.765.701 1.15 1.048.289.258.575.52.86.781.845.779.845.779 1.719 1.523.304-.3.598-.609.889-.922l.136-.148c.27-.292.537-.587.797-.889.159-.182.32-.361.483-.54.21-.233.419-.467.625-.704.265-.304.535-.603.805-.903.15-.166.298-.334.445-.503.265-.304.535-.604.805-.903.15-.167.298-.334.445-.503.38-.437.77-.865 1.158-1.295.312-.346.62-.693.926-1.043.166-.19.335-.376.504-.563.25-.278.495-.559.732-.85z"/></g><defs><clipPath id="clip0_156_204"><path fill="#fff" d="M0 0h40v40H0z"/></clipPath></defs></svg>