<svg width="50" height="50" viewBox="0 0 50 50" fill="none" xmlns="http://www.w3.org/2000/svg"><g clip-path="url(#clip0_55_516)" fill="#000"><path d="M18.892-.015l.336-.003.369-.001.387-.002A464.325 464.325 0 0121.7-.028c.61-.003 1.22-.004 1.83-.005a572.4 572.4 0 002.616-.01 226.45 226.45 0 011.843-.007c.366 0 .733-.002 1.099-.005a89.4 89.4 0 011.036-.002c.185 0 .371-.003.557-.005.762.005 1.29.145 1.937.55l.269.165c.687.706.94 1.47.948 2.432-.018.776-.283 1.407-.801 1.99-.335.304-.694.486-1.1.687-.034 1.482-.06 2.964-.075 4.447-.008.689-.018 1.377-.035 2.066-.237 4.042-.237 4.042 1.388 7.6.33.427.573.904.828 1.377l.312.55c.336.593.668 1.187 1 1.782.438.782.878 1.564 1.32 2.344.499.882.995 1.767 1.49 2.652.38.68.762 1.358 1.146 2.035.5.883.996 1.768 1.491 2.653.38.68.762 1.357 1.146 2.035l.634 1.123.173.305c.348.616.693 1.233 1.036 1.852l.307.547c1.06 1.873 1.565 3.692 1.04 5.837-.629 1.905-1.801 3.42-3.573 4.373-.794.39-1.63.671-2.52.673l-.308.001h-.336l-.358.001a537.485 537.485 0 01-2.045.004 1990.758 1990.758 0 01-3.771.005 5384.396 5384.396 0 01-5.062.005H26.9c-1.397 0-2.795.003-4.193.006-1.436.004-2.873.005-4.31.006-.805 0-1.611 0-2.417.003-.687.002-1.373.003-2.06.002-.35 0-.7 0-1.05.002-2.451.012-4.364-.237-6.228-2.001-1.315-1.348-1.992-3.23-1.983-5.092.04-1.775.845-3.154 1.69-4.674l.16-.29c.312-.558.629-1.114.946-1.67.285-.5.566-1.003.847-1.507.49-.875.981-1.748 1.475-2.62a482.8 482.8 0 001.162-2.067c.49-.875.981-1.748 1.475-2.62.389-.689.776-1.378 1.162-2.068.489-.875.98-1.748 1.474-2.62.444-.783.883-1.568 1.321-2.354l.156-.279.157-.289a9.15 9.15 0 01.499-.782c.964-1.44 1.056-2.678 1.033-4.378l.002-.775c.002-.537-.002-1.074-.008-1.611a96.68 96.68 0 01-.003-1.858c.004-.6.003-1.2-.001-1.8V7.93a41.66 41.66 0 00-.009-1.06l.005-.316c-.01-.295-.026-.518-.134-.793a2.97 2.97 0 00-.735-.46c-.604-.316-.895-.977-1.12-1.591-.116-.943-.055-1.74.488-2.54l.164-.268c.566-.55 1.237-.914 2.028-.918zm-.435 2.26c-.24.36-.276.658-.195 1.075.264.344.457.511.879.586.187.013.374.022.562.028l.326.01a5706.884 5706.884 0 001.004.032l.298.01c.251.018.251.018.544.115.096.288.111.481.11.782v.256c-.012.232-.012.232-.11.525-.348.116-.68.132-1.044.152l-.207.013-.507.03.003.187c.018 1.513.028 3.025.03 4.538.001.732.005 1.463.015 2.194.008.64.012 1.278.01 1.917-.001.338 0 .674.007 1.012.035 1.89-.301 3.147-1.353 4.724-.293.452-.55.924-.811 1.395l-.315.555c-.336.596-.67 1.192-1.003 1.789-.49.874-.981 1.747-1.475 2.618-.458.81-.913 1.622-1.366 2.435a57.468 57.468 0 01-1.148 1.98c-.149.247-.149.247-.016.535.185.083.185.083.414.129l.262.06.277.061.263.062a16.08 16.08 0 003.728.402h.222c1.132-.006 2.228-.053 3.33-.323l.248-.06c1.403-.353 2.71-.855 4.016-1.468 2.826-1.326 5.59-2.078 8.719-2.147l.431-.011c.347-.01.693-.018 1.04-.025a36.75 36.75 0 00-1.227-2.326l-.306-.531-.16-.277c-.282-.492-.558-.986-.834-1.48l-.172-.309a1537.314 1537.314 0 01-1.38-2.47l-.155-.279-.153-.282a7.112 7.112 0 00-.468-.713c-.937-1.334-.962-2.594-.938-4.182.004-.343.002-.685 0-1.028-.001-.646.002-1.291.008-1.937.006-.736.006-1.473.005-2.21 0-1.511.006-3.023.018-4.535l-.31-.018-.404-.025-.204-.011a3.144 3.144 0 01-.84-.141c-.096-.288-.11-.481-.11-.781v-.257c.013-.232.013-.232.11-.525.3-.1.517-.112.832-.118l.321-.008c.223-.005.446-.01.668-.013.6-.017 1.073-.043 1.597-.349.24-.359.276-.657.195-1.074-.263-.344-.457-.511-.878-.586a9.272 9.272 0 00-.488-.014l-.297-.001h-.325c-.17-.002-.17-.002-.343-.002l-1.125-.003-.584-.001-1.628-.002c-.7 0-1.4-.003-2.101-.005l-1.627-.004c-.323 0-.647 0-.97-.002-.362-.002-.723-.001-1.084 0l-.323-.004c-.577.004-1.003.04-1.508.33zm7.604 30.243a19.58 19.58 0 01-4.576 1.594l-.225.049c-3.013.618-6.292.35-9.214-.542-.317-.106-.317-.106-.62-.093l-.123.224c-.69 1.255-1.38 2.51-2.086 3.755l-.153.27c-.216.382-.433.765-.651 1.147-.187.327-.372.654-.558.982l-.172.302c-.726 1.284-1.18 2.506-.878 4.002.409 1.434 1.194 2.518 2.473 3.283 1.49.789 3.302.614 4.933.611l.785.001h4.123l4.202-.001h3.598a3654.903 3654.903 0 004.636 0h.222l1.544.001a739.392 739.392 0 002.843 0c3.178.027 3.178.027 5.828-1.589.972-1.15 1.373-2.412 1.27-3.906-.186-1.625-1.33-3.147-2.13-4.534a175.86 175.86 0 01-.983-1.74l-.172-.309-.7-1.253-1.19-2.125-.16-.284-.445-.784-.132-.235-.123-.213-.105-.186c-.118-.184-.118-.184-.403-.349-3.689-.601-7.36.285-10.658 1.922z"/><path d="M17.533 42.125l.254-.002c.28-.002.562 0 .842.001a242.425 242.425 0 012.244-.002 892.802 892.802 0 014.597.002c1.112.002 2.223.001 3.334-.001.953-.002 1.906-.003 2.86-.002h1.708c.536-.002 1.071 0 1.607.002h.59c.268-.002.536 0 .804.002l.236-.003c.396.007.576.048.89.298.213.278.263.399.257.744l.004.244c-.096.362-.261.5-.553.732a4.481 4.481 0 01-.834.062l-.254.003c-.28.002-.562 0-.842-.001l-.604.002c-.547.002-1.094.002-1.64 0h-1.716c-.96.002-1.921 0-2.882-.002-1.11-.003-2.222-.002-3.332.001-.954.002-1.907.003-2.86.001l-1.71.001c-.535.001-1.07 0-1.606-.002h-.59c-.268.002-.536 0-.804-.003l-.236.004c-.396-.007-.576-.049-.89-.298-.213-.278-.263-.4-.257-.744l-.004-.244c.19-.714.736-.804 1.387-.795zm4.897-19.249c.143.086.284.175.422.269l.268.164c.696.715.934 1.475.942 2.446-.012.623-.175 1.071-.527 1.589l-.165.268c-.714.696-1.474.935-2.445.942-.623-.012-1.072-.175-1.589-.527l-.268-.164c-.696-.715-.935-1.475-.942-2.446.011-.623.175-1.071.526-1.589l.165-.268c.937-.912 2.408-1.278 3.614-.684zm-2.215 2.32a1.517 1.517 0 000 .78c.194.292.33.45.677.536.384.027.56-.026.886-.242.216-.325.269-.502.241-.885-.085-.347-.243-.484-.534-.678-.569-.14-.939-.009-1.27.488zM13.77 42.187c.305.184.305.184.488.489.096.49.076.85-.183 1.281-.432.26-.791.28-1.282.184-.305-.184-.305-.184-.488-.489-.097-.49-.076-.85.183-1.282.431-.258.79-.28 1.281-.183zm15.624-19.531c.306.183.306.183.489.488.096.491.076.85-.183 1.282-.432.26-.791.28-1.282.183-.305-.183-.305-.183-.488-.488-.097-.49-.076-.85.183-1.282.431-.259.79-.28 1.281-.183zm-3.906-5.859c.305.183.305.183.488.488.097.49.076.85-.183 1.282-.431.259-.79.28-1.281.183-.306-.183-.306-.183-.489-.488-.096-.491-.075-.85.183-1.282.432-.26.791-.28 1.282-.183z"/></g><defs><clipPath id="clip0_55_516"><path fill="#fff" d="M0 0h50v50H0z"/></clipPath></defs></svg>