<svg width="50" height="50" viewBox="0 0 50 50" fill="none" xmlns="http://www.w3.org/2000/svg">
<g clip-path="url(#clip0_386_685)">
<path d="M12.4819 -0.024353C12.5813 -0.0268707 12.6806 -0.0293884 12.7829 -0.0319824C13.5743 0.0516349 14.0464 0.622724 14.5813 1.15656C14.7157 1.28904 14.7157 1.28904 14.8529 1.4242C15.0977 1.66562 15.3416 1.90799 15.5852 2.15065C15.7375 2.30236 15.8901 2.45389 16.0427 2.60536C16.5753 3.13417 17.1072 3.66383 17.6383 4.1942C18.1329 4.68807 18.6296 5.17987 19.1271 5.67079C19.5548 6.09297 19.981 6.51665 20.406 6.94149C20.6596 7.19495 20.9139 7.44775 21.1697 7.69903C21.4548 7.97921 21.7367 8.26242 22.0184 8.54601C22.1034 8.62858 22.1883 8.71114 22.2758 8.79621C22.9013 9.434 22.9013 9.434 22.9134 9.906C22.8518 10.254 22.8518 10.254 22.6992 10.4981C22.3532 10.7111 22.1789 10.7182 21.7776 10.6446C20.9845 10.1022 20.3146 9.29161 19.6383 8.6125C19.5081 8.48209 19.3778 8.3517 19.2475 8.22133C18.907 7.88039 18.5667 7.53917 18.2265 7.19788C17.8784 6.84876 17.53 6.49993 17.1816 6.15107C16.4998 5.46819 15.8183 4.78501 15.137 4.10162C15.0584 4.25601 14.9802 4.41055 14.902 4.56516C14.8366 4.69422 14.8366 4.69422 14.7699 4.82589C13.7215 7.00778 13.6681 9.66085 14.4534 11.9282C15.3319 14.3235 16.9839 16.0247 18.7563 17.7857C18.8888 17.9177 19.0212 18.0497 19.1536 18.1817C19.4746 18.5016 19.796 18.8212 20.1174 19.1407C20.1779 19.1133 20.2384 19.086 20.3007 19.0578C20.3799 19.0222 20.4592 18.9866 20.5409 18.95C20.6195 18.9145 20.6981 18.8791 20.779 18.8427C21.4686 18.5488 22.1844 18.598 22.8873 18.8241C23.4702 19.0987 24.0105 19.5395 24.2465 20.1459C24.2812 20.2767 24.2812 20.2767 24.3167 20.4102C24.391 20.3691 24.4654 20.3279 24.5421 20.2855C25.4329 19.8128 26.1072 19.6049 27.1014 19.8395C27.9113 20.1146 28.4205 20.6377 28.8088 21.3868C29.1448 22.2419 29.0443 22.9404 28.7276 23.7813C28.6152 24.0199 28.4866 24.21 28.3206 24.4141C28.4112 24.4403 28.5018 24.4665 28.5952 24.4935C28.8833 24.6008 29.0096 24.6704 29.1995 24.9024C29.4878 24.7725 29.69 24.6311 29.9123 24.407C29.9729 24.3464 30.0335 24.2858 30.0959 24.2234C30.1601 24.1582 30.2243 24.093 30.2905 24.0258C30.3571 23.9589 30.4238 23.8919 30.4924 23.823C30.7048 23.6095 30.9165 23.3954 31.1282 23.1812C31.2722 23.0362 31.4163 22.8913 31.5604 22.7463C31.9132 22.3913 32.2655 22.0357 32.6174 21.6797C32.1756 21.1489 31.7059 20.6603 31.2135 20.1764C31.048 20.0128 30.8824 19.8492 30.7169 19.6855C30.5864 19.5569 30.5864 19.5569 30.4533 19.4256C30.0387 19.0163 29.6253 18.6058 29.2118 18.1954C28.5782 17.5666 27.9441 16.9383 27.3083 16.3118C26.832 15.8425 26.3573 15.3717 25.8835 14.8999C25.7029 14.7206 25.5217 14.5418 25.34 14.3636C25.0863 14.1147 24.8346 13.864 24.5832 13.6128C24.47 13.503 24.47 13.503 24.3546 13.3911C23.7953 12.8263 23.7953 12.8263 23.7282 12.4141C23.7307 12.1066 23.7383 11.9602 23.926 11.7188C24.1645 11.5334 24.3134 11.5236 24.6167 11.5168C25.1727 11.6079 25.516 12.0571 25.8941 12.442C25.982 12.5291 26.0699 12.6162 26.1605 12.706C26.4041 12.9475 26.6459 13.1909 26.8873 13.4345C27.1482 13.6972 27.4108 13.9581 27.6732 14.2192C28.1869 14.7311 28.699 15.2445 29.2106 15.7584C29.8067 16.3572 30.4043 16.9545 31.002 17.5518C32.0688 18.6179 33.1342 19.6856 34.1987 20.754C35.2309 21.7899 36.2643 22.8246 37.2989 23.8581C38.4258 24.9838 39.5521 26.1102 40.6773 27.2376C40.7974 27.358 40.9175 27.4783 41.0377 27.5987C41.1263 27.6875 41.1263 27.6875 41.2168 27.7782C41.6324 28.1946 42.0485 28.6106 42.4647 29.0264C42.9726 29.5339 43.4797 30.042 43.9859 30.551C44.244 30.8105 44.5024 31.0697 44.7616 31.3281C45.0432 31.6087 45.3232 31.8908 45.6031 32.1731C45.6845 32.2538 45.766 32.3345 45.8499 32.4176C46.9016 33.4852 47.4935 34.6674 47.51 36.1756C47.4939 37.534 47.0907 38.6811 46.1669 39.6947C45.0836 40.7362 43.8505 41.156 42.3769 41.1488C41.0653 41.1187 39.9563 40.6087 38.9895 39.7278C38.2899 38.973 37.9171 38.0693 37.6402 37.0934C37.3582 36.2492 36.8111 35.5813 36.1844 34.968C36.1138 34.8974 36.0433 34.8268 35.9706 34.754C35.74 34.5237 35.5082 34.2949 35.2763 34.0661C35.115 33.9055 34.9538 33.7449 34.7927 33.5842C34.3707 33.1637 33.9475 32.7443 33.5241 32.3252C33.0913 31.8965 32.6597 31.4666 32.228 31.0368C31.3823 30.1953 30.5354 29.3551 29.6877 28.5157C29.301 28.9024 28.9143 29.2891 28.5159 29.6876C28.7394 29.8296 28.7394 29.8296 28.9675 29.9744C29.5074 30.3512 29.9239 30.7981 30.1402 31.4309C30.2886 32.2997 30.2588 33.1336 29.7854 33.8868C29.2719 34.537 28.6721 35.1184 28.0901 35.7064C28.0426 35.7545 27.995 35.8026 27.9459 35.8522C27.6943 36.1064 27.4422 36.3604 27.19 36.614C26.9834 36.8219 26.7776 37.0305 26.5724 37.2397C26.3219 37.4949 26.0703 37.749 25.8178 38.0022C25.7228 38.0978 25.6283 38.1938 25.5342 38.2902C24.6532 39.1921 23.7773 39.7416 22.5466 40.0208C22.0232 40.1029 22.0232 40.1029 21.5823 40.3321C21.6262 40.4997 21.6738 40.6663 21.7227 40.8326C22.2045 42.8579 21.8658 44.906 20.8208 46.6932C20.4902 47.2052 20.0656 47.6256 19.6292 48.0469C19.5602 48.1189 19.4912 48.1909 19.4201 48.2651C18.0414 49.6228 16.1509 50.0295 14.2888 50.0308C12.4882 50.0079 10.908 49.3537 9.57056 48.1446C9.50145 48.0834 9.43233 48.0222 9.36113 47.9592C8.17103 46.8442 7.47296 45.2509 7.22681 43.6524C7.22843 43.5739 7.23006 43.4955 7.23173 43.4146C7.23546 42.8222 7.1176 42.4984 6.71776 42.0575C6.53556 41.8761 6.35211 41.6985 6.16518 41.5223C6.06704 41.4262 5.96912 41.3299 5.87142 41.2334C5.61526 40.9815 5.35636 40.7326 5.09669 40.4844C4.78112 40.1816 4.46894 39.8753 4.15622 39.5696C3.91304 39.332 3.66941 39.0949 3.42426 38.8593C3.33661 38.7748 3.24895 38.6903 3.15865 38.6033C3.08131 38.5291 3.00397 38.4549 2.92428 38.3785C2.60689 38.0524 2.50394 37.8316 2.48438 37.3841C2.50347 36.7183 2.75515 36.4769 3.2229 36.0352C3.33928 35.9123 3.45506 35.7887 3.57042 35.6648C3.69859 35.5298 3.8269 35.3949 3.95532 35.2601C4.0167 35.1941 4.07808 35.1281 4.14131 35.0601C4.44876 34.746 4.62393 34.5872 5.05777 34.4727C5.4353 34.4727 5.58726 34.5013 5.85962 34.7657C5.96969 35.0904 6.01384 35.2233 5.95728 35.5469C5.77489 35.8534 5.52997 36.0825 5.27368 36.3282C5.14339 36.46 5.14339 36.46 5.01047 36.5945C4.77448 36.8331 4.53661 37.0696 4.29712 37.3047C4.67796 37.7607 5.0737 38.1926 5.4957 38.6105C5.55123 38.6659 5.60675 38.7213 5.66396 38.7784C5.83881 38.9527 6.014 39.1266 6.18921 39.3006C6.30889 39.4198 6.42854 39.539 6.54817 39.6582C6.83923 39.9482 7.13059 40.2379 7.42212 40.5274C7.50162 40.3666 7.50162 40.3666 7.58272 40.2026C7.65328 40.0605 7.72385 39.9184 7.79443 39.7763C7.82924 39.7058 7.86405 39.6353 7.89991 39.5627C8.15939 39.0412 8.43437 38.5496 8.78931 38.086C8.84268 38.0155 8.89606 37.945 8.95105 37.8724C10.2011 36.3469 12.0421 35.5264 13.9781 35.3305C15.943 35.2007 17.8366 35.7884 19.3438 37.0484C19.9153 37.5618 20.4282 38.0444 20.7034 38.7696C21.0948 38.6708 21.485 38.5679 21.8752 38.4644C21.9851 38.4367 22.095 38.409 22.2083 38.3805C22.3159 38.3515 22.4235 38.3226 22.5344 38.2928C22.6817 38.2544 22.6817 38.2544 22.832 38.2153C23.6876 37.8617 24.3149 37.1403 24.9568 36.4953C25.0537 36.3985 25.1506 36.3017 25.2476 36.205C25.4493 36.0036 25.6507 35.8018 25.8518 35.5998C26.1092 35.3412 26.3675 35.0836 26.6261 34.8262C26.8258 34.6271 27.0251 34.4276 27.2242 34.228C27.3193 34.1328 27.4146 34.0377 27.5099 33.9428C27.6429 33.8103 27.7751 33.6772 27.9074 33.544C27.9827 33.4685 28.0579 33.3931 28.1355 33.3154C28.4739 32.9316 28.5557 32.6443 28.5403 32.1255C28.5035 31.8362 28.4112 31.6661 28.2229 31.4454C27.8886 31.2353 27.5578 31.2008 27.1678 31.2666C26.4308 31.5453 25.8088 32.3937 25.268 32.9533C25.2057 33.0176 25.1434 33.0818 25.0791 33.148C24.69 33.5489 24.69 33.5489 24.3041 33.9529C24.1145 34.1525 23.9225 34.3496 23.7299 34.5463C23.6445 34.6383 23.6445 34.6383 23.5573 34.7322C23.259 35.0325 23.0625 35.1938 22.6291 35.204C22.2659 35.1563 22.2659 35.1563 22.0217 35.0037C21.8088 34.6577 21.8017 34.4834 21.8752 34.0821C22.3587 33.3771 23.0674 32.7836 23.6741 32.1842C23.8612 31.9993 24.0478 31.814 24.2344 31.6286C24.7642 31.102 25.2945 30.5758 25.8258 30.0506C26.152 29.7281 26.4775 29.4048 26.8026 29.0811C26.9262 28.9583 27.0501 28.8357 27.1742 28.7135C27.3473 28.5429 27.5196 28.3714 27.6916 28.1998C27.7684 28.1248 27.7684 28.1248 27.8467 28.0483C28.1252 27.7683 28.3123 27.5315 28.4182 27.1485C28.4047 26.7705 28.3491 26.5196 28.1741 26.1841C27.8728 25.9281 27.6618 25.8974 27.2772 25.8546C26.713 25.9154 26.3351 26.373 25.9562 26.7579C25.8975 26.8167 25.8388 26.8755 25.7784 26.936C25.5855 27.1296 25.3932 27.3239 25.2009 27.5181C25.0666 27.6531 24.9323 27.7879 24.7979 27.9227C24.4447 28.2772 24.092 28.6322 23.7396 28.9874C23.1748 29.5563 22.6094 30.1246 22.0437 30.6926C21.8462 30.8911 21.649 31.09 21.4519 31.2889C21.331 31.4104 21.2102 31.5318 21.0894 31.6533C21.0346 31.7088 20.9798 31.7642 20.9233 31.8213C20.3378 32.4085 20.3378 32.4085 19.8794 32.4586C19.5315 32.4219 19.5315 32.4219 19.2996 32.2571C19.1177 31.9984 19.0508 31.8597 19.0432 31.543C19.2628 30.9678 19.653 30.602 20.0835 30.1796C20.1594 30.104 20.2354 30.0283 20.3136 29.9503C20.564 29.7011 20.8155 29.4529 21.0669 29.2046C21.2413 29.0313 21.4155 28.8579 21.5897 28.6845C22.0949 28.1817 22.6011 27.68 23.1074 27.1784C23.7962 26.496 24.4841 25.8129 25.1714 25.129C25.4281 24.8739 25.6855 24.6194 25.9429 24.365C26.1 24.2089 26.257 24.0529 26.414 23.8968C26.4859 23.8261 26.5578 23.7553 26.6318 23.6825C26.6974 23.6171 26.763 23.5516 26.8306 23.4842C26.9162 23.3995 26.9162 23.3995 27.0035 23.313C27.2834 22.9883 27.3448 22.8048 27.3379 22.3694C27.27 21.9464 27.1076 21.7408 26.7581 21.4844C26.3417 21.3396 26.0765 21.389 25.6786 21.5687C25.2977 21.7912 25.0061 22.1135 24.7 22.4271C24.5864 22.541 24.5864 22.541 24.4706 22.6572C24.2217 22.9074 23.9741 23.1589 23.7265 23.4105C23.5534 23.5848 23.3801 23.7591 23.2068 23.9333C22.7978 24.3446 22.3896 24.7568 21.9818 25.1694C21.208 25.9524 20.4327 26.7341 19.6566 27.515C19.4019 27.7717 19.1479 28.029 18.8939 28.2865C18.7382 28.4435 18.5824 28.6006 18.4267 28.7576C18.3561 28.8295 18.2855 28.9013 18.2128 28.9754C18.1475 29.041 18.0823 29.1066 18.015 29.1741C17.9586 29.2312 17.9023 29.2882 17.8442 29.347C17.5598 29.5926 17.371 29.6911 16.9924 29.6754C16.65 29.5755 16.5137 29.4908 16.3088 29.1993C16.2417 28.9307 16.2417 28.9307 16.3088 28.6133C16.8008 27.9193 17.4835 27.3308 18.0866 26.7335C18.27 26.5519 18.453 26.3699 18.6359 26.1878C19.1554 25.6706 19.6755 25.154 20.1961 24.6378C20.5158 24.3208 20.835 24.0032 21.1539 23.6853C21.275 23.5648 21.3964 23.4445 21.5179 23.3243C21.6875 23.1566 21.8565 22.9882 22.0254 22.8197C22.0754 22.7706 22.1253 22.7216 22.1767 22.671C22.5577 22.289 22.83 21.9807 22.8884 21.4356C22.8485 21.0634 22.7975 20.8919 22.5588 20.6055C22.237 20.3861 22.033 20.3148 21.6433 20.3004C20.7232 20.5859 19.9832 21.6084 19.3161 22.2814C19.1176 22.4816 18.9188 22.6814 18.7199 22.8811C18.155 23.4484 17.5907 24.0162 17.0268 24.5845C16.6806 24.9333 16.3339 25.2816 15.9869 25.6297C15.8551 25.7621 15.7235 25.8947 15.5921 26.0274C15.4089 26.2125 15.2251 26.397 15.0411 26.5814C14.9871 26.6362 14.9332 26.6911 14.8775 26.7476C14.4749 27.1492 14.2459 27.3293 13.6782 27.3743C13.3068 27.3619 13.0788 27.3038 12.7932 27.0508C12.4118 26.3981 12.4497 25.7217 12.4392 24.9818C12.5255 23.4316 12.5255 23.4316 12.1096 22.0032C11.7255 21.7071 11.4195 21.6289 10.9377 21.6797C10.604 21.8375 10.4167 21.9511 10.2394 22.277C10.1295 22.6504 10.1348 23.0054 10.1421 23.3906C10.1432 23.5145 10.1432 23.5145 10.1444 23.641C10.1461 23.82 10.1482 23.999 10.1508 24.1779C10.1546 24.4616 10.157 24.7453 10.1589 25.0291C10.1646 25.8356 10.1721 26.6421 10.1826 27.4486C10.1889 27.9425 10.1928 28.4363 10.1952 28.9301C10.1966 29.1178 10.1989 29.3055 10.2022 29.4932C10.2066 29.7564 10.2081 30.0194 10.2088 30.2826C10.2109 30.3594 10.213 30.4361 10.2151 30.5153C10.2114 31.209 9.91165 31.6469 9.47245 32.1642C9.41079 32.225 9.34913 32.2857 9.2856 32.3483C9.21756 32.4158 9.14952 32.4834 9.07941 32.553C8.97509 32.6543 8.97509 32.6543 8.86865 32.7576C8.79797 32.8278 8.72728 32.898 8.65446 32.9703C8.03305 33.5825 8.03305 33.5825 7.58081 33.6243C7.22681 33.5938 7.22681 33.5938 6.98877 33.4412C6.76767 33.0963 6.76209 32.9238 6.83618 32.5196C7.08503 32.1372 7.40487 31.8238 7.76987 31.5523C8.19405 31.211 8.50238 30.9042 8.57937 30.353C8.61544 29.849 8.59587 29.3466 8.57797 28.8422C8.57515 28.6555 8.57283 28.4687 8.57098 28.282C8.56506 27.7922 8.55362 27.3028 8.54062 26.8132C8.52057 26.0298 8.50815 25.2464 8.4973 24.4629C8.49262 24.1907 8.48507 23.9187 8.47713 23.6466C8.45031 22.4689 8.54083 21.5682 9.38173 20.673C9.97986 20.1498 10.668 19.9807 11.447 19.9933C12.2478 20.0708 12.842 20.3825 13.4032 20.9485C13.9968 21.7906 14.0434 22.6415 14.0872 23.639C14.0946 23.7808 14.1023 23.9227 14.11 24.0645C14.1289 24.4089 14.1446 24.7532 14.1604 25.0977C14.8372 24.421 15.5139 23.7442 16.2112 23.0469C15.8672 22.6456 15.5468 22.2729 15.1739 21.9071C15.0898 21.8242 15.0056 21.7414 14.9189 21.656C14.8295 21.5683 14.7401 21.4806 14.6479 21.3902C14.553 21.2965 14.4581 21.2027 14.3633 21.1088C13.9644 20.714 13.5653 20.3195 13.1645 19.9267C11.7565 18.5458 10.3803 17.1766 9.48511 15.3931C9.44124 15.3074 9.39737 15.2217 9.35217 15.1333C7.97072 12.3587 7.58483 9.0738 8.30103 6.05475C8.31571 5.98927 8.33039 5.9238 8.34551 5.85634C8.80585 3.86441 9.85694 1.28349 11.6213 0.0977173C11.9283 -0.00461661 12.1595 -0.019486 12.4819 -0.024353ZM12.1268 1.72125C10.1262 4.27121 9.25936 7.40615 9.59988 10.6292C10.1686 14.5552 12.5447 17.0561 15.2566 19.7553C15.4971 19.9948 15.7373 20.2346 15.9775 20.4743C16.4458 20.9415 16.9143 21.4084 17.3831 21.8751C17.4917 21.7827 17.6002 21.6902 17.7087 21.5977C17.7691 21.5462 17.8295 21.4947 17.8918 21.4417C18.121 21.2417 18.3355 21.0297 18.5488 20.813C18.6242 20.7368 18.6996 20.6605 18.7773 20.5819C18.8328 20.5252 18.8884 20.4686 18.9456 20.4102C18.814 20.1162 18.6688 19.9152 18.4388 19.6906C18.3755 19.6283 18.3122 19.5659 18.2469 19.5017C18.1784 19.435 18.1098 19.3684 18.0392 19.2998C17.8929 19.1555 17.7467 19.0113 17.6005 18.867C17.3711 18.6418 17.1414 18.4168 16.9115 18.1922C14.3626 15.6982 12.4599 12.7661 12.3749 9.09346C12.3548 7.12519 12.7463 5.25529 13.6577 3.50305C13.773 3.27485 13.8667 3.08452 13.8701 2.82599C13.7132 2.53016 13.487 2.30796 13.251 2.07526C13.2035 2.02578 13.1559 1.97631 13.107 1.92534C12.7929 1.61168 12.5214 1.36975 12.1268 1.72125ZM33.6367 22.8948C33.571 22.9608 33.5053 23.0267 33.4376 23.0946C33.3633 23.1689 33.289 23.2432 33.2125 23.3198C33.1318 23.4009 33.0511 23.4821 32.968 23.5657C32.8858 23.6481 32.8035 23.7305 32.7188 23.8153C32.4549 24.0798 32.1913 24.3446 31.9277 24.6094C31.7494 24.7882 31.5711 24.967 31.3927 25.1458C30.9543 25.5852 30.5163 26.025 30.0784 26.4649C30.2122 26.7652 30.3639 26.9694 30.5972 27.1999C30.6974 27.2997 30.6974 27.2997 30.7997 27.4015C30.8729 27.4734 30.9462 27.5454 31.0216 27.6195C31.0988 27.6961 31.176 27.7727 31.2556 27.8516C31.4233 28.0179 31.5913 28.1841 31.7594 28.35C32.026 28.6131 32.2918 28.8769 32.5574 29.141C33.3128 29.8916 34.0693 30.6412 34.8267 31.3898C35.2901 31.8478 35.7523 32.3069 36.2141 32.7665C36.3898 32.941 36.566 33.1152 36.7425 33.289C36.9902 33.533 37.2367 33.7781 37.483 34.0236C37.5554 34.0943 37.6279 34.1651 37.7026 34.238C38.4577 34.9959 38.8908 35.8076 39.2031 36.8226C39.5784 37.9546 40.0464 38.6758 41.1135 39.2579C41.1734 39.2911 41.2334 39.3243 41.2951 39.3586C41.9793 39.6744 42.8191 39.6585 43.5397 39.4833C44.4875 39.1337 45.1189 38.575 45.6057 37.6954C45.6391 37.6365 45.6724 37.5775 45.7068 37.5168C46.0648 36.7509 46.0292 35.7172 45.7583 34.9305C45.2711 33.9389 44.3193 33.172 43.5448 32.3992C43.439 32.2932 43.3332 32.1873 43.2274 32.0813C42.9432 31.7966 42.6587 31.5123 42.3741 31.228C42.0755 30.9297 41.7772 30.6311 41.4788 30.3326C40.979 29.8325 40.4789 29.3327 39.9787 28.8329C39.3998 28.2546 38.8213 27.676 38.243 27.0971C37.7457 26.5993 37.2481 26.1017 36.7504 25.6043C36.4534 25.3074 36.1566 25.0106 35.8598 24.7135C35.5817 24.4352 35.3034 24.157 35.0249 23.8791C34.9225 23.7768 34.8202 23.6745 34.718 23.572C34.5791 23.4328 34.4398 23.294 34.3006 23.1552C34.2226 23.0773 34.1446 22.9993 34.0643 22.919C33.8485 22.7023 33.8485 22.7023 33.6367 22.8948ZM11.3284 37.8907C11.2523 37.9397 11.1763 37.9886 11.098 38.0391C9.95688 38.8477 9.05672 40.2609 8.81372 41.6455C8.64711 43.3454 8.92046 44.9252 10.0047 46.2987C10.5567 46.9485 11.1551 47.4551 11.9143 47.8516C12.0044 47.8987 12.0946 47.9458 12.1874 47.9943C13.6384 48.6727 15.1707 48.6536 16.6689 48.1324C17.9277 47.6102 19.0889 46.6266 19.7268 45.4102C20.3959 43.7701 20.6162 42.1156 19.9221 40.4297C19.1943 38.8968 18.0653 37.8025 16.4675 37.2132C14.7038 36.6152 12.8869 36.8786 11.3284 37.8907Z" fill="black"/>
<path d="M12.8916 39.8438C13.1966 40.078 13.4536 40.3505 13.7156 40.6312C13.787 40.7053 13.8585 40.7793 13.9321 40.8557C14.1075 41.038 14.2814 41.2215 14.4541 41.4063C14.7368 41.2789 14.933 41.1449 15.1469 40.9211C15.2011 40.8653 15.2554 40.8096 15.3113 40.7521C15.3668 40.6941 15.4223 40.636 15.4795 40.5763C15.5899 40.4608 15.7008 40.3459 15.8121 40.2314C15.8608 40.1805 15.9094 40.1296 15.9596 40.0771C16.2611 39.8128 16.4482 39.7442 16.8528 39.7584C17.1885 39.8438 17.1885 39.8438 17.3777 40.0025C17.5332 40.3502 17.5398 40.5364 17.4814 40.918C17.2394 41.2456 16.9493 41.5145 16.6514 41.7909C16.5326 41.905 16.5326 41.905 16.4114 42.0214C16.2162 42.2087 16.0195 42.3941 15.8213 42.5782C15.9532 42.8736 16.0996 43.0744 16.3313 43.2992C16.3919 43.3587 16.4525 43.4183 16.515 43.4796C16.5781 43.5407 16.6413 43.6017 16.7063 43.6646C16.8318 43.7867 16.957 43.9091 17.082 44.0316C17.1653 44.1123 17.1653 44.1123 17.2503 44.1945C17.4656 44.4227 17.4822 44.5399 17.512 44.8609C17.4814 45.2149 17.4814 45.2149 17.335 45.453C17.0619 45.6236 16.8519 45.6692 16.5303 45.6628C16.0562 45.5398 15.7512 45.1249 15.4307 44.7755C15.355 44.6963 15.2794 44.6171 15.2014 44.5355C15.0155 44.3405 14.8317 44.1438 14.6494 43.9454C14.342 44.08 14.1516 44.2316 13.9277 44.4802C13.8664 44.5457 13.8051 44.6111 13.7419 44.6786C13.6148 44.8161 13.4889 44.9547 13.3642 45.0944C12.9056 45.5782 12.9056 45.5782 12.5813 45.6575C12.2233 45.6671 12.0434 45.6303 11.7625 45.4041C11.5709 45.0128 11.5859 44.8492 11.7197 44.4337C11.9199 44.1449 12.156 43.9011 12.4033 43.6524C12.4828 43.5716 12.5622 43.4908 12.644 43.4075C12.8553 43.1946 13.068 42.9834 13.2822 42.7735C13.1503 42.4781 13.0039 42.2774 12.7722 42.0525C12.7116 41.993 12.651 41.9335 12.5885 41.8721C12.4938 41.7805 12.4938 41.7805 12.3972 41.6871C12.2718 41.565 12.1465 41.4427 12.0215 41.3201C11.9382 41.2395 11.9382 41.2395 11.8532 41.1572C11.6544 40.9465 11.6231 40.8321 11.5977 40.5396C11.6247 40.2014 11.678 40.0809 11.915 39.8438C12.3058 39.7136 12.4915 39.7327 12.8916 39.8438Z" fill="black"/>
</g>
<defs>
<clipPath id="clip0_386_685">
<rect width="50" height="50" fill="white"/>
</clipPath>
</defs>
</svg>
