<svg width="50" height="50" viewBox="0 0 50 50" fill="none" xmlns="http://www.w3.org/2000/svg">
<g clip-path="url(#clip0_386_688)">
<path d="M3.51 2.12328C3.62348 2.12277 3.62348 2.12277 3.73925 2.12224C3.9925 2.12133 4.24573 2.12181 4.49898 2.12229C4.68249 2.12192 4.866 2.12147 5.0495 2.12095C5.55361 2.11975 6.05772 2.11978 6.56183 2.12001C7.10558 2.12005 7.64932 2.11897 8.19307 2.11804C9.25832 2.11642 10.3236 2.11588 11.3888 2.11578C12.2547 2.11568 13.1206 2.11528 13.9864 2.11466C16.0418 2.11322 18.0971 2.11202 20.1524 2.11212C20.2181 2.11213 20.2838 2.11213 20.3515 2.11213C20.6846 2.11215 21.0177 2.11217 21.3507 2.11219C21.4169 2.11219 21.483 2.1122 21.5512 2.1122C21.685 2.11221 21.8187 2.11222 21.9525 2.11222C24.0335 2.11234 26.1144 2.11088 28.1954 2.10821C30.5339 2.1052 32.8725 2.10353 35.211 2.10371C36.449 2.10377 37.687 2.10323 38.925 2.10113C39.979 2.09935 41.0331 2.09893 42.0871 2.10026C42.6248 2.10089 43.1625 2.1009 43.7002 2.09921C44.1927 2.09768 44.6852 2.09795 45.1777 2.09966C45.3556 2.09996 45.5335 2.0996 45.7114 2.09851C46.9679 2.09133 48.0144 2.18214 49.0217 3.02159C49.8699 3.89124 50.0282 4.83575 50.0252 6.00202C50.0256 6.12585 50.0261 6.24968 50.0265 6.37727C50.0277 6.72034 50.0277 7.0634 50.0274 7.40648C50.0274 7.77675 50.0285 8.14701 50.0294 8.51728C50.031 9.24248 50.0316 9.96769 50.0317 10.6929C50.0318 11.2825 50.0322 11.8721 50.0328 12.4617C50.0345 14.134 50.0354 15.8062 50.0353 17.4785C50.0353 17.6137 50.0353 17.6137 50.0352 17.7516C50.0352 17.8419 50.0352 17.9321 50.0352 18.0251C50.0351 19.4872 50.037 20.9494 50.0398 22.4116C50.0426 23.9135 50.0439 25.4154 50.0437 26.9173C50.0437 27.7603 50.0442 28.6033 50.0463 29.4463C50.0481 30.1641 50.0485 30.8819 50.0472 31.5997C50.0466 31.9657 50.0466 32.3317 50.0482 32.6977C50.0501 33.0951 50.0488 33.4924 50.0473 33.8897C50.0483 34.0046 50.0494 34.1196 50.0504 34.238C50.0424 35.1956 49.7996 36.1086 49.1201 36.8164C47.9729 37.8161 46.7312 37.8356 45.28 37.8262C45.1009 37.8261 44.9218 37.8262 44.7427 37.8263C44.2593 37.8264 43.776 37.8247 43.2926 37.8226C42.7864 37.8208 42.2802 37.8206 41.774 37.8203C40.8166 37.8194 39.8593 37.817 38.902 37.814C37.8116 37.8108 36.7212 37.8091 35.6308 37.8077C33.389 37.8046 31.1472 37.7995 28.9053 37.7929C28.968 37.939 28.968 37.939 29.032 38.0881C29.1895 38.455 29.3469 38.8219 29.5043 39.1889C29.572 39.3467 29.6397 39.5044 29.7075 39.6622C29.8999 40.1105 30.092 40.5589 30.2835 41.0077C30.3393 41.1385 30.3951 41.2693 30.4511 41.4C30.5218 41.5652 30.5919 41.7306 30.662 41.896C30.7196 42.0316 30.7196 42.0316 30.7784 42.17C30.8584 42.3828 30.8584 42.3828 30.8584 42.5781C30.9822 42.5747 31.1059 42.5713 31.2334 42.5678C31.3994 42.565 31.5653 42.5624 31.7312 42.5598C31.8529 42.5561 31.8529 42.5561 31.9771 42.5523C32.9404 42.5411 33.731 42.839 34.4717 43.457C35.1676 44.1893 35.402 44.9652 35.3933 45.9594C35.3953 46.0395 35.3972 46.1196 35.3993 46.2021C35.3988 46.7319 35.3285 47.0536 34.96 47.4609C34.4645 47.7965 34.0971 47.9087 33.495 47.9018C33.4192 47.9025 33.3434 47.9031 33.2653 47.9038C33.0128 47.9056 32.7604 47.9046 32.5079 47.9036C32.3263 47.9043 32.1447 47.9052 31.963 47.9062C31.4707 47.9084 30.9784 47.9081 30.4861 47.9072C30.0747 47.9067 29.6634 47.9074 29.252 47.9081C28.2815 47.9098 27.3109 47.9095 26.3403 47.9078C25.3398 47.9062 24.3392 47.9077 23.3387 47.9109C22.4789 47.9135 21.6191 47.9142 20.7592 47.9134C20.246 47.9129 19.7329 47.9131 19.2197 47.9151C18.737 47.9169 18.2545 47.9163 17.7718 47.9139C17.595 47.9134 17.4181 47.9138 17.2413 47.915C15.5857 47.9257 15.5857 47.9257 14.9405 47.3632C14.5751 46.9487 14.5982 46.5053 14.6048 45.9777C14.606 45.8533 14.606 45.8533 14.6072 45.7262C14.6321 44.8024 14.8745 44.1205 15.5138 43.4398C16.3608 42.7141 17.1689 42.5616 18.2425 42.572C18.3288 42.5724 18.415 42.5729 18.504 42.5733C18.7159 42.5745 18.9278 42.5762 19.1397 42.5781C19.1563 42.5256 19.1729 42.473 19.19 42.4189C19.3735 41.8521 19.5891 41.3059 19.8244 40.7589C19.8609 40.6734 19.8973 40.5879 19.9348 40.4999C20.0499 40.2302 20.1655 39.9606 20.281 39.6911C20.3597 39.507 20.4384 39.3228 20.517 39.1386C20.7086 38.6899 20.9006 38.2414 21.0928 37.7929C20.9777 37.794 20.8625 37.7951 20.7439 37.7962C19.659 37.8061 18.5742 37.8134 17.4893 37.8182C16.9315 37.8208 16.3738 37.8242 15.816 37.8298C15.2778 37.8351 14.7396 37.838 14.2014 37.8393C13.996 37.8402 13.7906 37.8419 13.5852 37.8446C13.2976 37.8481 13.0101 37.8486 12.7225 37.8484C12.6375 37.8501 12.5525 37.8519 12.465 37.8537C12.0376 37.85 11.8676 37.8332 11.5184 37.5636C11.3272 37.3047 11.3272 37.3047 11.2661 37.0117C11.3484 36.6171 11.5072 36.4848 11.8155 36.2304C12.1006 36.1696 12.1006 36.1696 12.4224 36.1699C12.5454 36.1688 12.6683 36.1678 12.795 36.1667C12.9312 36.168 13.0674 36.1693 13.2036 36.1706C13.3485 36.1703 13.4933 36.1697 13.6382 36.169C14.0365 36.1676 14.4347 36.1692 14.8329 36.1712C15.2623 36.1729 15.6918 36.1718 16.1212 36.171C16.8655 36.17 17.6097 36.1708 18.354 36.1727C19.4309 36.1753 20.5078 36.175 21.5848 36.1738C23.3331 36.1719 25.0814 36.1719 26.8298 36.1733C26.9344 36.1734 27.0391 36.1735 27.1469 36.1736C27.5709 36.174 27.995 36.1743 28.419 36.1747C29.5858 36.1757 30.7525 36.1765 31.9192 36.1771C32.0237 36.1772 32.1281 36.1773 32.2357 36.1773C33.9771 36.1782 35.7185 36.1776 37.4599 36.1759C38.5341 36.175 39.6082 36.1755 40.6824 36.1779C41.4185 36.1794 42.1546 36.1796 42.8907 36.1787C43.3155 36.1782 43.7402 36.1784 44.1649 36.1803C44.5539 36.1821 44.9428 36.182 45.3318 36.1805C45.4724 36.1803 45.6129 36.1807 45.7535 36.1819C46.6935 36.1893 47.3303 36.1464 48.0337 35.4736C48.4771 34.7954 48.4728 34.0388 48.4976 33.2519C48.5014 33.153 48.5051 33.054 48.509 32.9521C48.5182 32.7102 48.5265 32.4684 48.5342 32.2265C48.4458 32.2671 48.4458 32.2671 48.3557 32.3085C48.2776 32.3439 48.1996 32.3793 48.1192 32.4157C48.0421 32.4509 47.9651 32.486 47.8857 32.5222C47.4295 32.7103 47.0142 32.7289 46.5242 32.7279C46.4112 32.7283 46.4112 32.7283 46.2959 32.7286C46.0421 32.7293 45.7882 32.7292 45.5344 32.7292C45.3511 32.7295 45.1678 32.7299 44.9846 32.7303C44.4798 32.7313 43.9751 32.7316 43.4703 32.7319C42.9263 32.7323 42.3824 32.7332 41.8384 32.734C40.5242 32.736 39.2099 32.737 37.8957 32.7378C37.2769 32.7383 36.6582 32.7388 36.0395 32.7393C33.9829 32.7409 31.9264 32.7424 29.8698 32.7431C29.7368 32.7431 29.6038 32.7432 29.4708 32.7432C29.4048 32.7432 29.3389 32.7433 29.2709 32.7433C28.9368 32.7434 28.6026 32.7435 28.2684 32.7436C28.2021 32.7437 28.1358 32.7437 28.0675 32.7437C25.9177 32.7445 23.768 32.7468 21.6183 32.7499C19.3452 32.7533 17.0721 32.7552 14.799 32.7555C13.56 32.7557 12.321 32.7566 11.0821 32.7591C10.027 32.7612 8.97185 32.762 7.91673 32.7611C7.37843 32.7606 6.84015 32.7608 6.30185 32.7627C5.80877 32.7644 5.31573 32.7643 4.82265 32.7628C4.64455 32.7626 4.46645 32.763 4.28835 32.7641C3.2448 32.7705 2.41476 32.702 1.4639 32.2265C1.47475 32.5684 1.48747 32.9101 1.50052 33.2519C1.50354 33.3478 1.50656 33.4438 1.50967 33.5426C1.53804 34.6083 1.53804 34.6083 2.01932 35.5285C2.06401 35.5815 2.1087 35.6345 2.15474 35.6891C2.80414 36.2094 3.47586 36.1725 4.2774 36.1669C4.48929 36.1656 4.70109 36.1662 4.91298 36.1674C5.51489 36.1704 6.11678 36.1699 6.71869 36.168C7.08802 36.1669 7.45729 36.1682 7.82661 36.1709C7.96685 36.1714 8.1071 36.171 8.24733 36.1697C8.44337 36.1678 8.63943 36.1692 8.83547 36.1707C8.94682 36.1705 9.05817 36.1702 9.1729 36.17C9.5657 36.2495 9.71208 36.4106 9.95999 36.7187C10.021 37.0117 10.021 37.0117 9.95999 37.3047C9.71223 37.6124 9.56527 37.7737 9.17314 37.8543C9.06182 37.8544 8.9505 37.8545 8.8358 37.8546C8.70894 37.8558 8.58208 37.857 8.45137 37.8583C8.31338 37.8571 8.17538 37.8558 8.03738 37.8544C7.89443 37.8544 7.75147 37.8547 7.60852 37.8551C7.3087 37.8553 7.00896 37.8539 6.70915 37.8512C6.3284 37.8479 5.94777 37.8485 5.567 37.8503C5.27139 37.8514 4.97581 37.8505 4.6802 37.849C4.54006 37.8485 4.39991 37.8485 4.25978 37.8492C3.12434 37.8523 1.94979 37.7462 1.04504 36.9884C0.167636 36.085 -0.0450198 35.1359 -0.0388055 33.9158C-0.0393314 33.7918 -0.0398573 33.6678 -0.0403992 33.5401C-0.0418069 33.1974 -0.0413976 32.8548 -0.040676 32.5122C-0.0402132 32.1421 -0.0414362 31.7719 -0.0424354 31.4018C-0.0441131 30.6773 -0.0441961 29.9528 -0.0436842 29.2282C-0.0432892 28.6392 -0.0434306 28.0501 -0.0439524 27.4611C-0.0440255 27.3772 -0.0440987 27.2933 -0.044174 27.2068C-0.0443236 27.0364 -0.0444739 26.8659 -0.0446248 26.6954C-0.0459648 25.0976 -0.0454343 23.4997 -0.0443137 21.9019C-0.0433439 20.441 -0.0446071 18.9801 -0.0469438 17.5192C-0.0493265 16.0182 -0.0502638 14.5171 -0.0496144 13.0161C-0.0492736 12.1737 -0.0494906 11.3314 -0.0512018 10.4891C-0.0526405 9.77202 -0.0527001 9.05495 -0.0509995 8.33787C-0.050169 7.97223 -0.0499569 7.60663 -0.0514536 7.241C-0.0530583 6.84408 -0.0516177 6.44722 -0.049892 6.05031C-0.051299 5.87811 -0.051299 5.87811 -0.0527344 5.70244C-0.0429623 4.60886 0.28974 3.70872 1.07327 2.92965C1.82581 2.36465 2.56735 2.11782 3.51 2.12328ZM1.94646 4.31134C1.90202 4.38309 1.85758 4.45485 1.8118 4.52877C1.7656 4.60003 1.7194 4.67128 1.6718 4.74469C1.4092 5.30622 1.44982 5.9257 1.45084 6.53248C1.45062 6.62933 1.4504 6.72619 1.45017 6.82597C1.44955 7.15028 1.44963 7.47457 1.44971 7.79888C1.44942 8.03149 1.44909 8.2641 1.44872 8.49672C1.44794 9.06285 1.44764 9.62897 1.44758 10.1951C1.44754 10.6554 1.44734 11.1157 1.44703 11.5759C1.44617 12.8817 1.44572 14.1875 1.44579 15.4932C1.44579 15.5636 1.4458 15.6339 1.4458 15.7064C1.44581 15.7768 1.44581 15.8473 1.44581 15.9198C1.44585 17.0613 1.44492 18.2028 1.44354 19.3443C1.44214 20.5172 1.44146 21.69 1.44155 22.8629C1.44158 23.521 1.44131 24.1792 1.44026 24.8374C1.43932 25.4563 1.43931 26.0753 1.44002 26.6942C1.44012 26.9213 1.43989 27.1484 1.4393 27.3754C1.43855 27.6856 1.439 27.9958 1.43975 28.3059C1.43925 28.3956 1.43875 28.4853 1.43823 28.5776C1.44267 29.4067 1.55462 30.1449 2.14749 30.7617C2.64515 31.096 3.11437 31.2094 3.71205 31.2015C3.82484 31.2023 3.82484 31.2023 3.93991 31.2032C4.19103 31.2046 4.44206 31.2033 4.69318 31.2019C4.87537 31.2024 5.05756 31.203 5.23975 31.2038C5.73976 31.2054 6.23974 31.2046 6.73975 31.2034C7.27923 31.2025 7.8187 31.2039 8.35818 31.2049C9.41477 31.2067 10.4714 31.2063 11.5279 31.2052C12.3866 31.2043 13.2453 31.2042 14.1039 31.2046C14.2261 31.2046 14.3483 31.2047 14.4741 31.2048C14.7223 31.2049 14.9705 31.205 15.2187 31.2051C17.48 31.2062 19.7413 31.2051 22.0026 31.2031C24.0666 31.2012 26.1305 31.2014 28.1944 31.2032C30.5137 31.2053 32.833 31.2061 35.1524 31.2049C35.3996 31.2048 35.6469 31.2047 35.8942 31.2046C36.0159 31.2045 36.1375 31.2045 36.2629 31.2044C37.1206 31.2041 37.9783 31.2046 38.836 31.2056C39.8811 31.2066 40.9263 31.2064 41.9714 31.2043C42.5047 31.2032 43.038 31.2028 43.5714 31.2041C44.0595 31.2053 44.5477 31.2047 45.0358 31.2026C45.2125 31.2021 45.3891 31.2024 45.5657 31.2033C45.8059 31.2045 46.0459 31.2033 46.2861 31.2015C46.3546 31.2024 46.4231 31.2033 46.4938 31.2042C47.0192 31.1963 47.4146 31.0405 47.8506 30.7617C48.0556 30.5623 48.0556 30.5623 48.1863 30.3344C48.2556 30.2276 48.2556 30.2276 48.3263 30.1185C48.5889 29.557 48.5483 28.9375 48.5473 28.3307C48.5475 28.2339 48.5477 28.137 48.5479 28.0372C48.5486 27.7129 48.5485 27.3886 48.5484 27.0643C48.5487 26.8317 48.549 26.5991 48.5494 26.3665C48.5502 25.8004 48.5505 25.2342 48.5505 24.6681C48.5506 24.2078 48.5508 23.7476 48.5511 23.2873C48.5519 21.9815 48.5524 20.6757 48.5523 19.37C48.5523 19.2996 48.5523 19.2293 48.5523 19.1568C48.5523 19.0864 48.5523 19.0159 48.5523 18.9434C48.5523 17.8019 48.5532 16.6604 48.5546 15.5189C48.556 14.346 48.5566 13.1732 48.5566 12.0003C48.5565 11.3422 48.5568 10.684 48.5578 10.0259C48.5588 9.40689 48.5588 8.78794 48.5581 8.16897C48.558 7.94191 48.5582 7.71484 48.5588 7.48777C48.5596 7.1776 48.5591 6.86745 48.5584 6.55728C48.5591 6.42279 48.5591 6.42279 48.5599 6.28559C48.5554 5.45655 48.4435 4.71834 47.8506 4.10153C47.353 3.76724 46.8837 3.65377 46.2861 3.66175C46.2109 3.66118 46.1357 3.66061 46.0582 3.66003C45.8071 3.6586 45.556 3.65995 45.3049 3.6613C45.1227 3.66085 44.9405 3.66023 44.7584 3.65945C44.2584 3.65782 43.7584 3.65863 43.2584 3.65984C42.7189 3.66072 42.1794 3.65936 41.6399 3.65828C40.5833 3.65655 39.5268 3.65692 38.4702 3.65805C37.6115 3.65894 36.7529 3.65906 35.8942 3.65863C35.772 3.65857 35.6498 3.65851 35.524 3.65845C35.2758 3.65833 35.0276 3.6582 34.7794 3.65807C32.5181 3.65699 30.2568 3.65811 27.9955 3.66016C25.9315 3.66201 23.8676 3.66185 21.8037 3.65998C19.4844 3.65789 17.1651 3.65706 14.8458 3.65826C14.5985 3.65839 14.3512 3.65851 14.1039 3.65863C13.9822 3.65869 13.8606 3.65875 13.7352 3.65881C12.8775 3.65915 12.0198 3.65858 11.1621 3.65766C10.117 3.65657 9.07185 3.65686 8.02671 3.65894C7.49338 3.65997 6.96008 3.66037 6.42676 3.65908C5.93859 3.65792 5.45046 3.65856 4.96229 3.66064C4.78565 3.66107 4.60901 3.66085 4.43238 3.6599C4.19222 3.65871 3.9522 3.65993 3.71205 3.66175C3.64351 3.66083 3.57497 3.65992 3.50435 3.65898C2.89481 3.66817 2.36862 3.87075 1.94646 4.31134ZM22.8506 37.7929C22.621 38.3106 22.3914 38.8282 22.1548 39.3615C22.0837 39.5215 22.0125 39.6816 21.9392 39.8464C21.8806 39.9789 21.822 40.1114 21.7634 40.2439C21.7348 40.3081 21.7062 40.3723 21.6767 40.4384C21.3649 41.145 21.0873 41.8593 20.7998 42.5781C23.5713 42.5781 26.3428 42.5781 29.1983 42.5781C28.4254 40.716 28.4254 40.716 27.6236 38.8672C27.4665 38.5127 27.3094 38.1582 27.1475 37.7929C25.7295 37.7929 24.3116 37.7929 22.8506 37.7929ZM16.4602 44.7815C16.1148 45.3203 16.21 45.5527 16.21 46.289C22.0108 46.289 27.8116 46.289 33.7881 46.289C33.8238 45.3396 33.8238 45.3396 33.3975 44.6289C32.8975 44.2411 32.5418 44.1286 31.9177 44.1262C31.7289 44.1252 31.729 44.1252 31.5364 44.1241C31.3967 44.1238 31.2569 44.1236 31.1172 44.1233C30.9702 44.1227 30.8233 44.122 30.6764 44.1214C30.1935 44.1193 29.7106 44.1183 29.2276 44.1173C29.0613 44.1169 28.895 44.1165 28.7286 44.1161C27.947 44.1143 27.1654 44.1129 26.3838 44.1121C25.4821 44.1111 24.5805 44.1085 23.6789 44.1046C22.9816 44.1016 22.2844 44.1002 21.5871 44.0999C21.1708 44.0996 20.7546 44.0988 20.3383 44.0963C19.9465 44.094 19.5546 44.0936 19.1627 44.0946C19.0193 44.0947 18.8758 44.0941 18.7324 44.0927C17.8226 44.0847 17.1198 44.0881 16.4602 44.7815Z" fill="black"/>
<path d="M25.3911 12.9882C25.8341 13.1861 26.2458 13.4336 26.6606 13.684C26.781 13.7551 26.9015 13.826 27.0221 13.8968C27.2689 14.0419 27.5153 14.188 27.7612 14.3347C28.1072 14.5406 28.4558 14.7417 28.8052 14.9417C29.014 15.0616 29.2228 15.1815 29.4316 15.3014C29.5278 15.3564 29.6239 15.4113 29.723 15.468C30.9869 16.2015 30.9869 16.2015 31.1528 16.6991C31.163 16.9011 31.1673 17.1035 31.1685 17.3058C31.1694 17.4309 31.1704 17.5561 31.1714 17.6851C31.1718 17.8219 31.1722 17.9588 31.1726 18.0957C31.1732 18.2362 31.1737 18.3767 31.1743 18.5172C31.1753 18.8118 31.1759 19.1064 31.1762 19.401C31.1768 19.7777 31.1791 20.1543 31.1819 20.5309C31.1837 20.8212 31.1842 21.1115 31.1844 21.4018C31.1847 21.5406 31.1854 21.6794 31.1867 21.8182C31.1884 22.0129 31.188 22.2075 31.1876 22.4022C31.1881 22.5681 31.1881 22.5681 31.1887 22.7373C31.1473 23.0936 31.0445 23.3268 30.8598 23.6327C30.6158 23.8194 30.6158 23.8194 30.3223 23.9802C30.2128 24.0414 30.1033 24.1026 29.9905 24.1656C29.8714 24.2301 29.7522 24.2946 29.633 24.359C29.5106 24.4267 29.3883 24.4944 29.2661 24.5624C29.0771 24.6675 28.8879 24.7725 28.6984 24.8769C28.263 25.1169 27.8322 25.3638 27.4037 25.616C27.3463 25.6496 27.289 25.6833 27.2299 25.7179C26.9564 25.8784 26.6833 26.0394 26.4107 26.2013C25.4092 26.7861 25.4092 26.7861 24.9028 26.8554C24.6193 26.773 24.6193 26.773 24.3229 26.6112C24.2663 26.5808 24.2096 26.5505 24.1513 26.5191C23.9442 26.4063 23.7399 26.2894 23.5356 26.1718C23.4507 26.1233 23.3659 26.0748 23.2784 26.0248C22.6829 25.6834 22.0914 25.3354 21.5007 24.9857C21.192 24.8047 20.8814 24.6274 20.57 24.451C20.4714 24.3945 20.3728 24.338 20.2712 24.2797C20.0832 24.1721 19.8946 24.0654 19.7054 23.96C19.579 23.8869 19.579 23.8869 19.45 23.8124C19.3389 23.7495 19.3389 23.7495 19.2256 23.6853C18.9895 23.4906 18.9415 23.3378 18.8481 23.0468C18.8226 22.7504 18.8226 22.7504 18.8213 22.4164C18.8203 22.2909 18.8194 22.1655 18.8184 22.0362C18.8185 21.9 18.8186 21.7639 18.8187 21.6277C18.8183 21.4873 18.8179 21.3468 18.8174 21.2064C18.8167 20.9125 18.8167 20.6186 18.8173 20.3247C18.8178 19.9488 18.8162 19.5728 18.8139 19.1968C18.8125 18.9069 18.8124 18.6171 18.8127 18.3272C18.8126 18.1886 18.8121 18.05 18.8111 17.9114C18.8099 17.7174 18.8108 17.5235 18.8117 17.3295C18.8117 17.2193 18.8116 17.1091 18.8115 16.9955C18.8618 16.5878 19.0084 16.3236 19.3207 16.0582C19.9322 15.6713 20.558 15.3147 21.1918 14.9657C22.8139 14.0982 22.8139 14.0982 24.3611 13.1083C24.7227 12.9336 25.005 12.9011 25.3911 12.9882ZM24.3626 14.9482C24.2531 15.0116 24.1436 15.0751 24.0307 15.1404C23.9145 15.2083 23.7983 15.2762 23.6821 15.3441C23.5689 15.4098 23.4558 15.4754 23.3426 15.541C23.0157 15.7308 22.6897 15.9219 22.3637 16.1132C22.2658 16.1699 22.1678 16.2267 22.0669 16.2851C21.9786 16.3369 21.8902 16.3887 21.7991 16.442C21.7215 16.4872 21.6439 16.5324 21.564 16.5789C21.373 16.6877 21.373 16.6877 21.2895 16.8944C21.3949 16.9525 21.5002 17.0105 21.6088 17.0703C21.6786 17.1089 21.7485 17.1475 21.8204 17.1873C21.9766 17.2737 22.133 17.3598 22.2894 17.4457C22.7176 17.6824 23.14 17.9253 23.5566 18.1819C23.6389 18.2319 23.7211 18.2819 23.8059 18.3334C23.9651 18.4306 24.1234 18.5294 24.2805 18.6299C24.3899 18.6961 24.3899 18.6961 24.5015 18.7636C24.5649 18.8034 24.6284 18.8433 24.6938 18.8843C25.0874 18.999 25.4098 18.7912 25.7564 18.61C25.8907 18.5302 25.8907 18.5302 26.0277 18.4489C26.1276 18.3901 26.2275 18.3312 26.3304 18.2706C26.4333 18.2092 26.5362 18.1478 26.6423 18.0846C26.8463 17.9639 27.0504 17.8432 27.2545 17.7226C27.3519 17.665 27.4493 17.6074 27.5497 17.548C27.9334 17.3237 28.3213 17.1074 28.7114 16.8944C28.4085 16.5614 28.093 16.3544 27.7016 16.1342C27.6426 16.1007 27.5837 16.0673 27.5229 16.0328C27.3355 15.9268 27.1476 15.8216 26.9597 15.7165C26.7722 15.6108 26.5848 15.5049 26.3975 15.399C26.2273 15.303 26.057 15.2074 25.8866 15.1118C25.6939 15.0024 25.5031 14.8895 25.3149 14.7725C24.9167 14.5444 24.7367 14.7307 24.3626 14.9482ZM20.4106 18.164C20.3888 18.7651 20.3729 19.3661 20.3623 19.9676C20.3579 20.172 20.3519 20.3765 20.3443 20.5808C20.3336 20.8752 20.3286 21.1692 20.3248 21.4637C20.3202 21.5546 20.3157 21.6456 20.311 21.7393C20.3108 22.0064 20.3217 22.2086 20.4106 22.4608C20.6736 22.7197 20.9622 22.8808 21.2895 23.0468C21.4351 23.1298 21.5804 23.2132 21.7255 23.297C21.8709 23.3767 22.0165 23.4561 22.1623 23.5351C22.7349 23.8484 23.3001 24.168 23.853 24.5154C24.0199 24.6249 24.0199 24.6249 24.2192 24.6093C24.2192 23.1913 24.2192 21.7733 24.2192 20.3124C23.4364 19.8611 23.4364 19.8611 22.6535 19.4098C22.5033 19.3232 22.5033 19.3232 22.35 19.2347C22.2393 19.1709 22.1285 19.1071 22.0145 19.0413C21.7886 18.9104 21.5631 18.779 21.3381 18.6466C21.2319 18.5841 21.1258 18.5217 21.0164 18.4573C20.9208 18.4009 20.8253 18.3444 20.7269 18.2862C20.5358 18.156 20.5358 18.156 20.4106 18.164ZM28.9193 18.4852C28.861 18.5185 28.8028 18.5517 28.7428 18.586C28.6187 18.657 28.4946 18.7281 28.3706 18.7993C28.1237 18.9411 27.8764 19.0825 27.6289 19.2234C27.5083 19.2929 27.3884 19.3635 27.2691 19.4352C27.0009 19.5954 26.7496 19.7295 26.4536 19.8315C26.1305 19.9547 25.9853 20.0296 25.7817 20.3124C25.6185 21.023 25.6907 21.7754 25.7206 22.4975C25.7255 22.7018 25.73 22.9061 25.734 23.1105C25.7447 23.6104 25.7616 24.1097 25.7817 24.6093C26.0828 24.4931 26.3685 24.3688 26.6507 24.2122C26.721 24.1732 26.7913 24.1342 26.8637 24.0941C26.9747 24.0319 26.9747 24.0319 27.0878 23.9684C27.1645 23.9256 27.2411 23.8828 27.3201 23.8387C28.5212 23.2405 28.5212 23.2405 29.5903 22.4608C29.5993 22.3259 29.6017 22.1905 29.6014 22.0553C29.6014 21.9693 29.6013 21.8833 29.6013 21.7946C29.6008 21.7012 29.6003 21.6077 29.5998 21.5114C29.5997 21.4161 29.5995 21.3209 29.5994 21.2228C29.5988 20.9173 29.5976 20.6118 29.5964 20.3063C29.5959 20.0997 29.5954 19.8932 29.595 19.6866C29.594 19.179 29.5923 18.6715 29.5903 18.164C29.3677 18.164 29.1013 18.381 28.9193 18.4852Z" fill="black"/>
<path d="M5.31828 6.29585C5.40419 6.29548 5.4901 6.29511 5.57862 6.29472C5.75917 6.29446 5.93973 6.29517 6.12027 6.29681C6.39484 6.2989 6.66916 6.29682 6.94372 6.29433C7.12009 6.29459 7.29645 6.29509 7.47282 6.29585C7.55392 6.29506 7.63501 6.29427 7.71857 6.29346C8.25728 6.30201 8.75743 6.37945 9.17875 6.73836C9.5083 7.23006 9.6266 7.59297 9.61898 8.18913C9.61959 8.26341 9.6202 8.33769 9.62083 8.41421C9.62238 8.66154 9.62115 8.90878 9.61992 9.15611C9.62045 9.33406 9.62115 9.512 9.622 9.68995C9.62377 10.1722 9.62309 10.6544 9.62185 11.1366C9.62086 11.6417 9.62178 12.1468 9.62239 12.6519C9.6231 13.5001 9.62216 14.3483 9.6203 15.1965C9.61818 16.1765 9.61887 17.1565 9.62102 18.1366C9.62279 18.9787 9.62304 19.8207 9.62202 20.6628C9.62141 21.1654 9.62133 21.6681 9.62262 22.1707C9.62375 22.6433 9.62296 23.1159 9.62071 23.5885C9.62019 23.7618 9.62034 23.935 9.6212 24.1083C9.62227 24.3452 9.62092 24.5819 9.61898 24.8188C9.61985 24.887 9.62072 24.9553 9.62162 25.0256C9.6133 25.5501 9.46364 25.8446 9.17875 26.2696C8.68679 26.6887 8.0925 26.7182 7.47282 26.7121C7.34395 26.7127 7.34395 26.7127 7.21248 26.7132C7.03193 26.7135 6.85137 26.7128 6.67083 26.7112C6.39626 26.7091 6.12194 26.7111 5.84738 26.7136C5.67101 26.7134 5.49464 26.7129 5.31828 26.7121C5.23718 26.7129 5.15608 26.7137 5.07253 26.7145C4.53382 26.706 4.03367 26.6285 3.61235 26.2696C3.28279 25.7779 3.1645 25.415 3.17212 24.8188C3.17151 24.7446 3.1709 24.6703 3.17027 24.5938C3.16872 24.3464 3.16994 24.0992 3.17118 23.8519C3.17065 23.6739 3.16995 23.496 3.1691 23.318C3.16732 22.8358 3.16801 22.3536 3.16925 21.8714C3.17024 21.3662 3.16932 20.8611 3.16871 20.356C3.168 19.5078 3.16893 18.6597 3.17079 17.8115C3.17292 16.8314 3.17223 15.8514 3.17008 14.8714C3.16831 14.0293 3.16806 13.1873 3.16908 12.3452C3.16969 11.8425 3.16977 11.3399 3.16848 10.8372C3.16735 10.3646 3.16814 9.89206 3.17039 9.41945C3.17091 9.2462 3.17076 9.07294 3.1699 8.89969C3.16883 8.66279 3.17017 8.42603 3.17212 8.18913C3.17125 8.12092 3.17038 8.0527 3.16948 7.98241C3.1778 7.45788 3.32746 7.16341 3.61235 6.73836C4.10431 6.31928 4.69859 6.28981 5.31828 6.29585ZM4.78422 7.91023C4.78422 13.5821 4.78422 19.254 4.78422 25.0977C5.8477 25.0977 6.91117 25.0977 8.00688 25.0977C8.00688 19.4259 8.00688 13.754 8.00688 7.91023C6.9434 7.91023 5.87992 7.91023 4.78422 7.91023Z" fill="black"/>
<path d="M36.649 5.41656C36.8006 5.4153 36.8006 5.4153 36.9552 5.41401C37.289 5.4118 37.6227 5.41246 37.9565 5.41334C38.1887 5.41283 38.4209 5.41222 38.653 5.41151C39.1396 5.41049 39.6262 5.41094 40.1127 5.41237C40.7361 5.41404 41.3594 5.41175 41.9828 5.40831C42.4623 5.40617 42.9417 5.40631 43.4212 5.40712C43.6511 5.4072 43.8809 5.40653 44.1107 5.40509C44.4322 5.40339 44.7535 5.40481 45.0749 5.40702C45.1698 5.40588 45.2646 5.40474 45.3623 5.40356C45.7766 5.40938 46.0964 5.42305 46.4373 5.67392C46.8925 6.2073 46.9031 6.7776 46.8994 7.45289C46.8998 7.53111 46.9001 7.60933 46.9005 7.68991C46.9013 7.94654 46.9008 8.20313 46.9001 8.45976C46.9002 8.63911 46.9004 8.81845 46.9007 8.9978C46.9009 9.37285 46.9005 9.74789 46.8996 10.1229C46.8985 10.6029 46.8991 11.0829 46.9003 11.5628C46.901 11.9329 46.9008 12.3029 46.9003 12.673C46.9002 12.8499 46.9003 13.0269 46.9008 13.2038C46.9013 13.4513 46.9005 13.6988 46.8994 13.9463C46.8998 14.0189 46.9002 14.0915 46.9006 14.1663C46.8959 14.7489 46.8263 15.1661 46.4347 15.6066C46.1253 15.8773 45.9857 15.93 45.5864 15.9322C45.4579 15.9333 45.4579 15.9333 45.3267 15.9344C45.1853 15.9348 45.1853 15.9348 45.0411 15.9352C44.8924 15.9361 44.8924 15.9361 44.7408 15.9371C44.4118 15.939 44.0828 15.9402 43.7537 15.9411C43.5854 15.9417 43.5854 15.9417 43.4137 15.9424C42.8197 15.9444 42.2257 15.9458 41.6318 15.9467C41.0179 15.9478 40.404 15.9511 39.7902 15.955C39.3185 15.9576 38.8468 15.9584 38.3752 15.9587C38.1489 15.9592 37.9226 15.9604 37.6963 15.9622C37.3795 15.9645 37.0628 15.9644 36.746 15.9638C36.6526 15.965 36.5591 15.9663 36.4628 15.9676C35.9183 15.9633 35.5687 15.9184 35.1554 15.5272C34.8628 15.0182 34.82 14.585 34.8245 14.0149C34.824 13.9349 34.8235 13.855 34.823 13.7726C34.8217 13.5101 34.8225 13.2476 34.8235 12.9851C34.8233 12.8016 34.823 12.6182 34.8227 12.4347C34.8222 12.0508 34.8229 11.667 34.8242 11.2832C34.8259 10.7922 34.8249 10.3014 34.8232 9.81046C34.8221 9.43178 34.8225 9.05311 34.8232 8.67442C34.8234 8.49346 34.8232 8.31249 34.8225 8.13153C34.8218 7.8782 34.8229 7.62494 34.8245 7.37162C34.8239 7.29753 34.8233 7.22344 34.8227 7.14711C34.8298 6.55049 34.959 6.0903 35.355 5.6245C35.7829 5.3935 36.1697 5.41335 36.649 5.41656ZM36.4249 7.03116C36.4249 9.44815 36.4249 11.8651 36.4249 14.3554C39.3575 14.3554 42.2902 14.3554 45.3116 14.3554C45.3116 11.9384 45.3116 9.52139 45.3116 7.03116C42.379 7.03116 39.4464 7.03116 36.4249 7.03116Z" fill="black"/>
<path d="M14.416 22.7539C14.7276 22.8462 14.8532 22.8871 15.0386 23.1445C15.1794 23.4262 15.1454 23.6736 15.1424 23.9868C15.1415 24.1029 15.1406 24.2189 15.1397 24.3385C15.1386 24.4279 15.1374 24.5173 15.1363 24.6094C15.2012 24.5709 15.2662 24.5325 15.3331 24.4928C15.6289 24.3188 15.9258 24.1467 16.2227 23.9746C16.3249 23.9141 16.4271 23.8535 16.5324 23.7911C16.6319 23.7338 16.7313 23.6766 16.8338 23.6176C16.9248 23.5644 17.0159 23.5112 17.1096 23.4564C17.4201 23.3237 17.6339 23.3106 17.9683 23.3398C18.1941 23.4436 18.1941 23.4436 18.3589 23.6328C18.4608 23.9996 18.5044 24.2148 18.3401 24.5639C18.1435 24.8321 17.9799 24.9462 17.6898 25.1053C17.5987 25.1561 17.5075 25.207 17.4136 25.2594C17.3187 25.3108 17.2238 25.3621 17.126 25.415C16.9375 25.5192 16.7491 25.6235 16.5607 25.7278C16.4771 25.7733 16.3936 25.8188 16.3075 25.8657C16.1192 25.9615 16.1192 25.9615 16.0152 26.0742C16.0823 26.112 16.1494 26.1497 16.2185 26.1887C16.3065 26.2395 16.3945 26.2904 16.4851 26.3428C16.5724 26.3926 16.6596 26.4425 16.7495 26.4938C16.9945 26.6621 17.1364 26.7944 17.2847 27.0508C17.2731 27.3825 17.2438 27.6309 17.0833 27.9236C16.764 28.0987 16.4617 28.0879 16.1128 28.0273C15.7081 27.8575 15.3365 27.6404 14.9593 27.417C14.8581 27.3597 14.757 27.3024 14.6527 27.2434C13.7718 26.734 13.7718 26.734 13.5738 26.3672C13.5174 25.9226 13.5234 25.477 13.5248 25.0294C13.5249 24.8118 13.5209 24.5945 13.5165 24.3769C13.516 24.2378 13.5158 24.0988 13.5158 23.9597C13.5151 23.8339 13.5144 23.708 13.5137 23.5783C13.6103 23.0378 13.8594 22.7539 14.416 22.7539Z" fill="black"/>
<path d="M36.1338 22.8516C36.3796 23.0855 36.4247 23.2263 36.4678 23.5657C36.4766 24.2739 36.4766 24.2739 36.4757 24.5801C36.4756 24.7977 36.4797 25.015 36.484 25.2326C36.4845 25.3716 36.4847 25.5107 36.4847 25.6497C36.4854 25.7756 36.4861 25.9015 36.4868 26.0312C36.396 26.5392 36.1145 26.7315 35.7072 27.0186C35.4496 27.1715 35.1912 27.3228 34.9314 27.472C34.8423 27.5257 34.7533 27.5794 34.6615 27.6347C34.1148 27.9502 33.7397 28.1153 33.1064 28.0274C32.8562 27.826 32.8562 27.826 32.7158 27.5391C32.7097 27.1912 32.7097 27.1912 32.8135 26.8556C33.147 26.5122 33.5719 26.3092 33.9854 26.0743C33.8898 26.0177 33.7943 25.961 33.6958 25.9026C33.3645 25.7058 33.0349 25.5064 32.7055 25.3064C32.5486 25.2123 32.39 25.1211 32.231 25.0306C31.6725 24.6975 31.6725 24.6975 31.5195 24.2616C31.5461 23.8964 31.6108 23.7224 31.8369 23.4376C32.1125 23.2998 32.3119 23.3171 32.6182 23.3399C32.8909 23.4565 32.8909 23.4565 33.1667 23.6176C33.3159 23.7036 33.3159 23.7036 33.4681 23.7912C33.5703 23.8518 33.6725 23.9123 33.7778 23.9747C33.8823 24.0352 33.9868 24.0958 34.0945 24.1582C34.3517 24.3075 34.6083 24.4579 34.8643 24.6095C34.862 24.5223 34.8597 24.4352 34.8574 24.3455C34.8556 24.2312 34.8539 24.1169 34.8521 23.9991C34.8498 23.8858 34.8475 23.7725 34.8452 23.6558C34.8634 23.3542 34.8953 23.1978 35.0596 22.9493C35.4072 22.6789 35.7242 22.7474 36.1338 22.8516Z" fill="black"/>
<path d="M25.3911 6.83591C25.7942 7.00983 26.1673 7.22276 26.5447 7.44626C26.6458 7.50354 26.747 7.56081 26.8512 7.61983C27.6902 8.10501 27.6902 8.10501 27.9302 8.49606C27.979 8.78293 27.979 8.78293 27.9302 9.082C27.7227 9.36276 27.7227 9.36276 27.4419 9.57028C26.9665 9.62442 26.6901 9.51604 26.2822 9.27731C26.1878 9.22293 26.0934 9.16855 25.9961 9.11252C25.9254 9.07022 25.8546 9.02792 25.7817 8.98434C25.7833 9.06513 25.7848 9.14592 25.7864 9.22915C25.7925 9.59513 25.7963 9.9611 25.8 10.3271C25.8025 10.4543 25.805 10.5814 25.8075 10.7124C25.8084 10.8345 25.8094 10.9566 25.8103 11.0824C25.8119 11.1949 25.8134 11.3074 25.815 11.4234C25.7782 11.75 25.7223 11.8815 25.4888 12.1093C25.1007 12.2171 24.894 12.2476 24.5244 12.0788C24.3169 11.914 24.3169 11.914 24.2192 11.7187C24.2109 11.5131 24.2088 11.3073 24.2097 11.1015C24.21 10.9788 24.2103 10.856 24.2107 10.7296C24.2115 10.6008 24.2123 10.472 24.2131 10.3393C24.2136 10.2085 24.2141 10.0776 24.2145 9.94679C24.2156 9.62597 24.2172 9.30516 24.2192 8.98434C24.1485 9.02664 24.0777 9.06894 24.0049 9.11252C23.9104 9.1669 23.816 9.22128 23.7188 9.27731C23.6258 9.33169 23.5329 9.38608 23.4372 9.44211C23.1134 9.58416 22.9088 9.61011 22.5591 9.57028C22.2346 9.33044 22.0927 9.18692 22.0098 8.78903C22.1058 8.32783 22.4032 8.1135 22.7788 7.85877C23.0383 7.69729 23.3011 7.54353 23.5662 7.39133C23.6552 7.33764 23.7443 7.28395 23.8361 7.22863C24.3386 6.93864 24.8008 6.674 25.3911 6.83591Z" fill="black"/>
<path d="M39.4982 11.094C39.6069 11.0937 39.7156 11.0934 39.8276 11.0931C40.0571 11.0929 40.2866 11.0935 40.5161 11.0947C40.8672 11.0963 41.2182 11.0947 41.5692 11.0928C41.7924 11.093 42.0155 11.0934 42.2387 11.094C42.396 11.0931 42.396 11.0931 42.5565 11.0922C43.117 11.0975 43.5273 11.1062 43.9446 11.5235C44.0027 12.2324 44.0027 12.2324 43.7799 12.5099C43.5041 12.7364 43.3756 12.7443 43.0228 12.7444C42.8634 12.7458 42.8634 12.7458 42.7009 12.7472C42.5295 12.7455 42.5295 12.7455 42.3547 12.7438C42.2369 12.744 42.1192 12.7441 41.9979 12.7443C41.749 12.7441 41.5001 12.743 41.2512 12.741C40.8699 12.7381 40.4887 12.7389 40.1074 12.7402C39.8657 12.7396 39.624 12.7388 39.3823 12.7377C39.268 12.738 39.1538 12.7383 39.0361 12.7386C38.9298 12.7374 38.8236 12.7361 38.7141 12.7349C38.6207 12.7343 38.5274 12.7338 38.4312 12.7333C38.1391 12.6887 38.0054 12.6041 37.7923 12.4024C37.6866 12.1157 37.6849 11.9551 37.7557 11.6578C38.1395 10.9948 38.8204 11.0902 39.4982 11.094Z" fill="black"/>
<path d="M38.9642 8.55486C39.1303 8.55429 39.1303 8.55429 39.2999 8.55371C39.4147 8.55484 39.5295 8.55598 39.6478 8.55714C39.7626 8.55601 39.8774 8.55488 39.9957 8.55371C40.1064 8.55409 40.2172 8.55447 40.3314 8.55486C40.4321 8.55519 40.5328 8.55552 40.6365 8.55586C40.9872 8.60321 41.2511 8.73231 41.5032 8.98439C41.561 9.68977 41.561 9.68977 41.3469 9.97078C41.0347 10.2179 40.8425 10.2053 40.4473 10.2047C40.3838 10.2049 40.3202 10.205 40.2547 10.2051C40.1208 10.205 39.9868 10.2039 39.8529 10.2018C39.6484 10.199 39.4441 10.1998 39.2396 10.2011C39.1091 10.2005 38.9787 10.1997 38.8482 10.1986C38.73 10.1977 38.6118 10.1967 38.49 10.1957C38.1609 10.1534 38.0251 10.095 37.7923 9.8633C37.6866 9.57654 37.6849 9.41596 37.7557 9.11867C38.034 8.63784 38.4373 8.55658 38.9642 8.55486Z" fill="black"/>
<path d="M6.93285 9.96101C7.24413 10.1075 7.24413 10.1075 7.42114 10.3516C7.48276 10.625 7.49775 10.8623 7.42114 11.1329C7.20579 11.4262 7.09023 11.5133 6.72839 11.5754C6.61861 11.5744 6.50884 11.5734 6.39574 11.5723C6.28597 11.5733 6.1762 11.5744 6.0631 11.5754C5.70126 11.5133 5.5857 11.4262 5.37035 11.1329C5.29374 10.8623 5.30872 10.625 5.37035 10.3516C5.74883 9.8296 6.34533 9.87645 6.93285 9.96101Z" fill="black"/>
<path d="M6.39653 21.4357C6.5063 21.4347 6.61607 21.4337 6.72917 21.4326C7.08989 21.4946 7.2061 21.5839 7.42192 21.8751C7.46774 22.2417 7.47381 22.4648 7.29375 22.7906C6.97163 23.1008 6.5958 23.0732 6.17452 23.0691C5.88009 23.0392 5.69682 22.9393 5.4688 22.754C5.31783 22.4521 5.34247 22.2077 5.37114 21.8751C5.66873 21.4702 5.90614 21.4312 6.39653 21.4357Z" fill="black"/>
<path d="M7.12879 13.9037C7.3241 14.0624 7.3241 14.0624 7.42176 14.2577C7.47797 14.8648 7.47797 14.8648 7.26421 15.1557C6.96063 15.3853 6.77384 15.3843 6.39637 15.3808C6.2866 15.3818 6.17682 15.3828 6.06373 15.3838C5.70301 15.3219 5.5868 15.2326 5.37098 14.9413C5.32516 14.5748 5.31909 14.3516 5.49915 14.0258C5.91744 13.623 6.6342 13.6771 7.12879 13.9037Z" fill="black"/>
<path d="M6.39653 17.6271C6.5063 17.6261 6.61607 17.6251 6.72917 17.624C7.08996 17.686 7.20576 17.7755 7.42192 18.0665C7.47075 18.4083 7.47075 18.4083 7.42192 18.7501C7.20526 19.034 7.07823 19.1251 6.73833 19.2384C6.22687 19.277 5.90661 19.2165 5.4688 18.9454C5.31783 18.6435 5.34247 18.3991 5.37114 18.0665C5.66873 17.6616 5.90614 17.6226 6.39653 17.6271Z" fill="black"/>
</g>
<defs>
<clipPath id="clip0_386_688">
<rect width="50" height="50" fill="white"/>
</clipPath>
</defs>
</svg>
