<svg width="24" height="24" viewBox="0 0 24 24" fill="none" xmlns="http://www.w3.org/2000/svg"><path d="M13.029 2.001c.73-.003 1.459.005 2.189.022l.194.007c.224.008.445.018.712.03 1.064.05 1.79.218 2.427.465.66.254 1.216.598 1.772 1.154.508.5.901 1.104 1.153 1.771.247.637.415 1.364.465 2.428.012.266.022.488.03.712l.006.194c.017.73.025 1.459.023 2.188v2.056c.003.73-.005 1.46-.022 2.19l-.006.193c-.008.224-.018.445-.03.712-.05 1.064-.22 1.79-.466 2.427a4.884 4.884 0 01-1.153 1.772c-.5.509-1.105.902-1.772 1.153-.637.247-1.363.415-2.427.465-.267.012-.488.022-.712.03l-.194.006c-.73.018-1.46.026-2.19.023l-.745.001h-1.31c-.73.003-1.459-.005-2.188-.023l-.194-.006a60.403 60.403 0 01-.712-.03c-1.064-.05-1.79-.22-2.428-.466a4.888 4.888 0 01-1.771-1.153 4.903 4.903 0 01-1.154-1.772c-.247-.637-.415-1.363-.465-2.427a74.175 74.175 0 01-.03-.712l-.005-.194a76.078 76.078 0 01-.025-2.189v-2.056a78.81 78.81 0 01.022-2.188l.007-.194c.008-.224.018-.446.03-.712.05-1.065.218-1.79.465-2.428A4.88 4.88 0 013.68 3.68a4.897 4.897 0 011.77-1.155c.638-.247 1.363-.415 2.428-.465l.712-.03.194-.005A79.05 79.05 0 0110.973 2l2.056.001zm-1.028 5a5 5 0 100 10 5 5 0 000-10zm0 2a3 3 0 110 6 3 3 0 110-6zm5.25-3.5a1.25 1.25 0 000 2.498 1.25 1.25 0 000-2.5v.002z" fill="#262626"/></svg>