<svg width="24" height="24" viewBox="0 0 24 24" fill="none" xmlns="http://www.w3.org/2000/svg"><g clip-path="url(#clip0_121_892)" fill="#000"><path d="M9.691-.006h.661a1323.77 1323.77 0 012.38 0 1205.838 1205.838 0 011.758 0c2.793-.002 5.591.032 7.695 2.128 1.909 2.023 1.823 4.948 1.821 7.538a747.447 747.447 0 000 1.793 1108.025 1108.025 0 000 3.07c.002 2.453.002 2.453-.111 3.298l-.019.14c-.208 1.492-.744 2.878-1.798 3.977l-.107.116c-1.509 1.585-3.764 1.892-5.846 1.946-.607.01-1.215.009-1.822.01a603.218 603.218 0 00-1.765.001l-1.53.003a527.745 527.745 0 01-1.902.002c-2.52.009-5.032-.125-6.997-1.89-.037-.035-.075-.068-.114-.103C.507 20.615.087 18.513 0 16.547c-.008-.302-.007-.604-.008-.905a685.102 685.102 0 00-.001-.985 968.994 968.994 0 00-.002-1.869l-.003-1.624A554.64 554.64 0 01-.016 9.15C-.025 6.558.1 3.998 1.969 2.016l.085-.095C3.479.404 5.624.078 7.599.01c.697-.02 1.395-.017 2.092-.016zM3.483 3.497C2.068 4.965 2.143 7.25 2.136 9.141l-.004.659a714.982 714.982 0 00-.012 2.373 1099.744 1099.744 0 00-.01 1.75c-.097 2.849-.097 2.849.703 5.53l.065.123c.556.983 1.411 1.588 2.478 1.895 1.435.387 2.97.34 4.445.339h1.763a533.653 533.653 0 012.364 0h.651c3.23.04 3.23.04 5.965-1.474 1.44-1.506 1.268-3.951 1.265-5.878v-1.816a566.197 566.197 0 010-2.435v-.67c.002-.826-.001-1.65-.055-2.475l-.01-.175c-.094-1.28-.421-2.569-1.4-3.465-1.771-1.408-4.222-1.274-6.362-1.272h-.59a1089.66 1089.66 0 00-2.123 0 922.899 922.899 0 00-1.568 0c-3.335-.101-3.335-.101-6.218 1.347z"/><path d="M15.971 7.232c.117.102.23.208.341.315l.117.107c1.084 1.033 1.723 2.576 1.768 4.066.026 1.79-.559 3.355-1.797 4.662-.96.984-2.206 1.559-3.556 1.759l-.125.018c-1.63.201-3.28-.3-4.569-1.299a6.205 6.205 0 01-2.302-4.084 6.418 6.418 0 01.34-2.932l.052-.145C6.842 8.15 8.055 6.953 9.562 6.28c2.148-.873 4.624-.543 6.41.95zM9.328 9.047l-.108.095a3.942 3.942 0 00-1.204 2.624l-.006.106c-.032 1.172.451 2.183 1.242 3.02.657.63 1.602 1.053 2.514 1.092l.106.006a4.033 4.033 0 002.8-1.037l.108-.094c.67-.625 1.164-1.613 1.204-2.53l.008-.143a4.013 4.013 0 00-1.12-2.937C14.097 8.46 13.116 8.01 12 7.999c-.996.01-1.929.394-2.672 1.048zm9.949-4.655c.362.297.554.64.611 1.106.018.422-.113.788-.385 1.11-.318.314-.683.452-1.128.47-.418-.023-.704-.167-1.016-.436-.322-.374-.454-.735-.431-1.238.06-.4.26-.735.568-.995a1.53 1.53 0 011.782-.017z"/></g><defs><clipPath id="clip0_121_892"><path fill="#fff" d="M0 0h24v24H0z"/></clipPath></defs></svg>