<svg width="50" height="50" viewBox="0 0 50 50" fill="none" xmlns="http://www.w3.org/2000/svg"><g clip-path="url(#clip0_78_671)" fill="#000"><path d="M18.865 7.48l.296.054c.32.059.638.12.956.18l.325.063c.663.128 1.325.262 1.987.4l.683.138c.335.066.67.135 1.004.205l.307.06c.552.118.914.219 1.26.697.061.348.061.348 0 .684-.201.238-.201.238-.488.39a4.772 4.772 0 01-1.306-.116l-.36-.077-.19-.041-.594-.129-1.474-.317-1.249-.269-.582-.126-.36-.077-.316-.069c-.51-.08-.953-.137-1.384.175l-.212.149-.225.165-.493.35-.262.189c-.466.334-.94.66-1.411.987l-.573.399a439.32 439.32 0 01-2.28 1.572 248.88 248.88 0 00-2.336 1.618c-.707.496-1.417.986-2.13 1.473-.72.491-1.435.989-2.15 1.487a307.03 307.03 0 01-1.845 1.276c-.3.207-.603.412-.908.613-.06.04-.118.08-.18.12l-.483.32c-.252.208-.272.276-.33.582l.219.035c.683.112 1.36.238 2.038.38l.308.064a856.22 856.22 0 011.701.353 2491.062 2491.062 0 013.342.693l1.457.303a1386.344 1386.344 0 001.976.41c.574.12 1.147.242 1.72.368l.377.082.717.159.327.072c.095.02.19.042.288.064.525.085.879.08 1.336-.2l.272-.162.292-.18.633-.377.333-.201c.507-.303 1.021-.594 1.535-.886a234.45 234.45 0 002.711-1.563 280.5 280.5 0 012.714-1.564c.703-.4 1.405-.804 2.104-1.213l.862-.502c.394-.23.785-.464 1.174-.701l.593-.353.267-.168c.651-.382 1.203-.51 1.954-.381.355.12.658.293.977.488l.287.17c.266.158.53.319.793.481.3.185.6.368.9.551l.188.115c.728.444 1.466.873 2.203 1.301a50.163 50.163 0 012.618 1.614l.231.148.198.13c.268.107.415.068.687-.018.194-.1.194-.1.375-.232l.214-.148.23-.163.243-.17.52-.364c.375-.263.751-.525 1.128-.786l.856-.596c.53-.37 1.063-.737 1.597-1.102l.172-.117.163-.112c.182-.127.36-.258.539-.39.311-.214.311-.214.506-.214l-.097-.391c-3.268-.697-6.536-1.388-9.808-2.067l-.893-.185a4939.794 4939.794 0 00-7.168-1.486l-.963-.2-.35-.072-.319-.067-.277-.058c-.315-.083-.558-.163-.76-.424-.1-.334-.055-.575.03-.91.152-.189.152-.189.39-.293.745-.054 1.443.117 2.168.272l.419.087 1.137.24 1.206.254c.766.16 1.532.322 2.298.484l2.81.592c.988.207 1.976.415 2.963.624 1.407.297 2.813.593 4.223.878l.664.135c.393.08.787.16 1.18.237l.512.104.224.043c.804.167 1.4.45 1.876 1.128.1.301.124.533.134.849l.015.294c-.108.683-.476 1.083-1.023 1.484-.19.129-.38.256-.572.383l-.302.204-.605.405c-.392.263-.78.532-1.169.8-.418.289-.84.574-1.263.855.435.155.868.259 1.32.343l.425.084.66.126c.963.18 1.758.352 2.38 1.168.187.629.186 1.24-.024 1.862-.36.515-.93.851-1.44 1.202a231.97 231.97 0 01-1.394.953c-.422.288-.84.58-1.256.878l-.173.124c-.26.181-.26.181-.498.389l.327.062c.404.078.807.158 1.21.24l.522.101c2.074.396 2.074.396 2.732 1.214.174.637.213 1.313-.042 1.929-.66.674-1.448 1.205-2.228 1.727l-.565.382-.292.198c-.497.338-.989.682-1.48 1.025l-.563.39a60.22 60.22 0 00-.877.621l-.306.216-.245.177c-.324.154-.573.146-.927.116-.238-.146-.238-.146-.391-.39-.086-.483-.086-.483 0-.782.408-.473.998-.814 1.514-1.16l.493-.334c.086-.058.173-.116.261-.177.57-.388 1.134-.783 1.698-1.177a64.83 64.83 0 011.932-1.307c.334-.21.334-.21.516-.546l.031-.181-.188-.029a36.62 36.62 0 01-2.16-.413 134.52 134.52 0 01-1.025-.22l-.758-.16-.232-.052c-.526-.109-.96-.151-1.44.137l-.24.187c-.093.072-.187.143-.284.216l-.153.117c-.284.21-.576.408-.868.607-.662.453-1.32.91-1.978 1.367-.694.483-1.388.965-2.086 1.443a150.9 150.9 0 00-1.146.795c-3.312 2.316-3.312 2.316-4.764 2.11a39.789 39.789 0 01-1.086-.221 256.106 256.106 0 01-1.543-.325l-1.2-.253-2.046-.431c-.97-.206-1.94-.41-2.91-.614a3452.547 3452.547 0 01-10.643-2.25c-.52-.11-1.041-.222-1.561-.334a248.925 248.925 0 00-1.35-.288c-.185-.04-.37-.08-.555-.118l-.307-.066c-.664-.075-1.069.08-1.59.48l-.362.268-.193.144c-.358.263-.726.51-1.094.759-.506.344-1.01.69-1.51 1.044l-.27.191-.52.37-.236.167-.21.149c-.171.105-.171.105-.367.105l.098.391 1.737.365.462.096.242.052 1.526.32c2.036.428 4.073.855 6.11 1.28l.207.043.207.043a8058.72 8058.72 0 016.74 1.407 599.015 599.015 0 001.747.364l.3.062.276.058.238.05c.362.094.644.183.911.45.096.295.109.451.018.75-.116.226-.116.226-.31.422-.36.105-.628.093-.991.017l-.306-.062-.34-.072-.37-.077-1.038-.217a1381.484 1381.484 0 01-2.682-.56 912.963 912.963 0 00-3.927-.817 3274.666 3274.666 0 01-5.804-1.2 757.838 757.838 0 01-2.957-.61L2.544 36.6l-.329-.066c-.886-.188-1.58-.418-2.117-1.182a2.72 2.72 0 01-.135-.849l-.014-.294c.09-.57.387-1.017.85-1.36.119-.079.24-.156.36-.232l.414-.272.228-.149c.484-.32.958-.656 1.434-.989 1.116-.779 1.116-.779 1.648-1.129a8.45 8.45 0 00-1.321-.343l-.424-.084-.66-.126c-.964-.18-1.759-.352-2.38-1.168a2.985 2.985 0 01.024-1.862c.36-.515.93-.851 1.44-1.202l.214-.148c.392-.27.786-.538 1.18-.805.422-.288.84-.58 1.255-.878l.174-.124c.26-.181.26-.181.498-.389l-.329-.064c-.405-.08-.81-.16-1.214-.243a81.06 81.06 0 01-1.28-.256l-.234-.044c-.684-.143-1.228-.413-1.68-.955-.253-.515-.214-1.104-.146-1.66.396-.954 1.675-1.588 2.508-2.13a45.194 45.194 0 002.185-1.518c.425-.316.86-.611 1.302-.902.49-.324.97-.663 1.451-.998.642-.448 1.284-.895 1.929-1.337.637-.437 1.27-.877 1.904-1.319.694-.483 1.388-.964 2.085-1.442.387-.265.773-.533 1.158-.802l.298-.209.577-.404c.27-.188.542-.375.814-.56l.286-.196.283-.188.251-.168c.622-.324 1.175-.199 1.834-.074zm12.705 9.467l-.277.164-.3.18-.639.38-.334.198c-.527.313-1.059.618-1.59.924l-.64.369-.321.185c-.53.305-1.06.61-1.59.917l-1.78 1.027-.514.295a1045.174 1045.174 0 01-2.472 1.424l-.215.134v.098a40.114 40.114 0 003.073-.315l.5-.066 1.345-.18 1.41-.188 2.663-.356 3.034-.405c2.08-.277 4.158-.555 6.237-.834v-.195c-.202-.147-.202-.147-.467-.296l-.312-.183-.344-.198-.353-.207-.758-.443c-.624-.364-1.244-.734-1.865-1.103l-.6-.356-.19-.113-.368-.218c-.268-.159-.535-.32-.799-.485l-.26-.163-.222-.141c-.418-.204-.686-.07-1.052.15zm10.91 4.733c-.07.383-.056.76-.047 1.149l.002.34c.002.358.009.716.015 1.074l.006.729c.006.595.014 1.19.024 1.786.3-.117.561-.229.822-.418a267.412 267.412 0 00.356-.26l.181-.13.497-.364.213-.109c.237-.246.222-.451.222-.783l-.006-.241-.002-.249a73.387 73.387 0 00-.012-.785l-.005-.532c-.005-.435-.012-.87-.02-1.305l-.513-.144-.289-.08c-.607-.153-1.02-.17-1.444.322zm3.809.195v2.246c.443-.177.443-.177.825-.421l.178-.129.181-.134.36-.262.311-.226.293-.195v-.39l-.744-.19-.211-.054-.208-.052-.19-.048c-.262-.06-.53-.1-.795-.145zm-7.422.586v6.836l.684-.39.362-.15c.427-.197.762-.415 1.005-.827.22-.887.135-1.832.094-2.738-.014-.341-.02-.682-.027-1.024a93.327 93.327 0 00-.067-2c-.69 0-1.368.19-2.051.293zm-3.809.488v8.985l.684-.391.403-.21c.744-.403.744-.403 1.246-1.057.131-.535.093-1.076.066-1.621a53.686 53.686 0 00-.045-1.882c-.016-.464-.023-.928-.031-1.392a151.86 151.86 0 00-.077-2.725c-.755 0-1.498.186-2.246.293zm-3.613.488v10.45c.278.139.472.121.781.097.517-.175.963-.42 1.27-.879.231-.72.147-1.52.124-2.264a110.58 110.58 0 00-.037-2.413c-.013-.595-.019-1.19-.025-1.786a309.037 309.037 0 00-.062-3.497c-.69 0-1.368.19-2.05.293zm-25.104.47l-.18.134c-.167.123-.332.248-.497.373l-.213.11c-.238.245-.222.45-.222.782l.006.241.002.249c.002.262.007.523.012.785l.005.532c.005.435.011.87.02 1.305a234.95 234.95 0 00.946.243l.207.053.188.048c.298.063.602.101.904.144v-5.468c-.551 0-.762.152-1.178.47zm21.198.019v9.18l2.344.488v-9.961c-.788 0-1.563.191-2.344.293zm-18.457-.098V29.2c.667.222 1.362.35 2.05.488V24.22a8.667 8.667 0 00-1.321-.355c-.28-.048-.28-.048-.73-.036zm14.941.586v7.91c.967.276.967.276 1.953.39V24.22c-.785-.018-.785-.018-1.953.195zm-11.328.098v5.468c1.114.33 1.114.33 2.246.489V25c-1.115-.283-1.115-.283-2.246-.488zm7.422.39v6.641l2.344.488V24.61c-.787 0-1.563.191-2.344.293zm-3.613.391v5.469c1.373.41 1.373.41 2.05.39v-5.957c-.684 0-1.367.052-2.05.098zm-13.36.835l-.222.158-.23.167-.452.322-.202.146c-.157.111-.316.219-.476.325v.39l.745.19.21.054.209.052.189.048c.263.06.53.1.796.145v-2.246c-.261 0-.356.098-.567.25z"/><path d="M40.137 35.938c.265.188.366.326.482.628.009.352-.063.462-.287.739-.589.499-1.228.93-1.867 1.36-.777.527-1.55 1.057-2.32 1.594l-.56.39-.27.188a333.9 333.9 0 01-1.129.783l-.18.125-.338.23c-.121.081-.241.164-.36.249l-.197.133-.173.121c-.799.358-1.599.112-2.417-.06l-.41-.084c-.287-.058-.572-.117-.858-.177-.364-.076-.728-.151-1.093-.225l-.847-.174-.403-.083c-1.895-.389-1.895-.389-2.313-.733-.128-.33-.074-.564.013-.903.152-.229.246-.28.51-.355.322-.042.563.002.88.07l.367.077.194.042.606.13c.357.075.713.15 1.07.227.569.123 1.139.244 1.709.364l.594.128.369.078.322.07c.561.087.981.12 1.453-.217l.253-.176.266-.194.283-.198.59-.419c.389-.277.78-.548 1.173-.82l.849-.591c.516-.36 1.033-.718 1.553-1.072.3-.204.595-.411.886-.627l.172-.126c.153-.112.304-.225.455-.338.351-.188.58-.196.973-.154z"/></g><defs><clipPath id="clip0_78_671"><path fill="#fff" d="M0 0h50v50H0z"/></clipPath></defs></svg>