<svg width="50" height="50" viewBox="0 0 50 50" fill="none" xmlns="http://www.w3.org/2000/svg"><g clip-path="url(#clip0_78_665)" fill="#000"><path d="M25.795.12c.35.17.69.351 1.03.54l.378.202c.254.135.507.272.76.41.494.268.993.526 1.492.785l.539.282c.362.19.726.376 1.09.562l.717.367.51.258c.63.323 1.265.655 1.77 1.162.064.49.08.859-.2 1.275-.348.23-.555.268-.97.287a5.519 5.519 0 01-.758-.323l-.218-.109c-.23-.114-.458-.231-.685-.35l-.212-.109a116.7 116.7 0 01-1.107-.583 118.017 118.017 0 00-1.417-.74l-.93-.479a37.986 37.986 0 01-1.508-.804l-.204-.115a36.871 36.871 0 01-.496-.292c-.368-.132-.504-.046-.864.095-.22.105-.438.214-.655.327l-.185.096a214.68 214.68 0 00-1.01.525c-.777.404-1.554.811-2.329 1.22-.696.369-1.396.73-2.096 1.092-.86.444-1.718.888-2.575 1.336-.81.423-1.62.844-2.43 1.264-1.189.616-2.377 1.235-3.564 1.855l-1.099.574a790.46 790.46 0 01-2.85 1.479c-.646.334-.646.334-1.288.68-.058.03-.116.063-.176.095l-.487.268c-.252.127-.252.127-.448.127v.195l.244.074c.395.14.754.32 1.125.512l.225.116a321.834 321.834 0 011.217.63c.859.443 1.716.888 2.57 1.34.686.363 1.375.72 2.066 1.076.95.49 1.898.982 2.845 1.477.727.38 1.455.758 2.184 1.135.738.382 1.475.765 2.21 1.154.774.409 1.552.812 2.33 1.214a960.17 960.17 0 012.955 1.532l.255.132.242.125c.16.087.318.18.472.276.432.28.432.28.928.305l.3-.16.213-.106c.263-.132.523-.269.782-.407l.605-.319.32-.169c.547-.287 1.096-.57 1.645-.855.905-.469 1.81-.94 2.713-1.412l2.194-1.139c.738-.382 1.475-.765 2.21-1.154.835-.441 1.675-.876 2.516-1.31.888-.458 1.774-.919 2.66-1.382a689.8 689.8 0 012.533-1.315c.493-.255.985-.511 1.474-.773l.236-.126c.14-.075.282-.151.422-.228.452-.243.452-.243.669-.243v-.195l-.255-.079a7.104 7.104 0 01-.943-.422l-.173-.09-.552-.288-.383-.2-.761-.397a156.96 156.96 0 00-.91-.474c-2.44-1.271-2.44-1.271-2.762-1.663-.103-.392-.12-.617.012-1.001.209-.306.326-.431.672-.562.645.03 1.103.221 1.668.522l.253.13.795.416.52.27c.924.48 1.843.965 2.763 1.45.431.227.863.451 1.297.672l.282.144.558.281c.485.25.902.465 1.239.9.065.22.065.22.06.434l.005.213c-.127.454-.391.719-.783.959-.283.147-.568.285-.857.42l-.64.312-.32.154c-.402.196-.799.404-1.194.615-.727.386-1.457.766-2.189 1.143-.897.463-1.794.927-2.688 1.396l-.228.12a9.236 9.236 0 00-.834.484 444.11 444.11 0 003.49 1.825c.804.416 1.607.833 2.408 1.253.5.262 1.002.52 1.506.776l.336.172.643.325c.954.488.954.488 1.285.923.065.22.065.22.06.433l.005.213c-.12.428-.38.708-.747.941-.23.121-.462.232-.697.341a260.212 260.212 0 00-.803.387c-.382.186-.757.384-1.132.584-.79.418-1.581.83-2.375 1.239a1111.702 1111.702 0 00-3.266 1.693l-.226.117c-.215.114-.215.114-.487.302a84.085 84.085 0 003.513 1.855 78.02 78.02 0 011.887.97c.49.261.983.515 1.477.767a1580.576 1580.576 0 01.959.488c1.587.8 1.587.8 1.832 1.29.033.192.033.192.049.416l.021.221c-.13.447-.565.713-.95.95-.21.114-.423.222-.638.329l-.24.122-.757.38a513.082 513.082 0 00-1.235.624c-.727.367-1.447.746-2.167 1.126-.605.32-1.214.634-1.822.948l-.737.38-.182.094c-.643.333-1.285.668-1.927 1.003-.727.38-1.455.758-2.184 1.135-.737.382-1.474.765-2.21 1.153-.835.442-1.675.877-2.516 1.31-.887.459-1.773.919-2.658 1.382-.512.267-1.024.534-1.538.799l-.178.093a703.31 703.31 0 01-1.18.61l-.304.155a8.91 8.91 0 00-.518.298c-.542.338-.98.478-1.617.34-.475-.187-.916-.425-1.361-.671l-.382-.205c-.251-.134-.502-.269-.752-.405-.42-.228-.842-.45-1.265-.672l-.435-.23c-.688-.362-1.379-.718-2.07-1.074a638.63 638.63 0 01-2.66-1.383l-2.16-1.122c-1.28-.663-2.558-1.33-3.837-1.998a1280.05 1280.05 0 00-3.291-1.713c-.914-.473-1.827-.947-2.738-1.424-.482-.252-.964-.502-1.449-.747l-.31-.159c-.195-.1-.39-.199-.587-.297-.478-.245-.883-.46-1.215-.888-.062-.223-.062-.223-.055-.44v-.216c.099-.4.305-.623.652-.841.264-.144.531-.28.8-.414l.614-.312.317-.16c.471-.239.94-.485 1.407-.73.936-.489 1.874-.975 2.812-1.46.53-.275 1.06-.551 1.589-.83l.288-.153.534-.284.237-.126.207-.11c.168-.077.168-.077.364-.077v-.195l-.24-.07a9.938 9.938 0 01-1.214-.559l-.254-.13-.801-.413-.524-.269c-.92-.473-1.837-.952-2.752-1.435-.479-.253-.96-.5-1.444-.742l-.54-.272-.364-.181C.34 25.953.34 25.953 0 25.391c-.065-.208-.065-.208-.061-.391l-.004-.183c.132-.423.397-.696.765-.925.256-.134.515-.259.777-.381l.586-.284.295-.142c.393-.191.778-.394 1.164-.6.853-.453 1.712-.897 2.57-1.34.604-.31 1.207-.622 1.805-.941l.257-.137c.153-.081.306-.163.458-.246a6.03 6.03 0 011.154-.485v-.195l-.242-.072a9.419 9.419 0 01-1.17-.536l-.24-.123-.76-.392-.495-.255c-.898-.463-1.793-.93-2.686-1.402a106.604 106.604 0 00-1.72-.889l-.659-.334C.236 14.34.236 14.34 0 13.868c-.027-.195-.027-.195-.037-.422l-.014-.225c.074-.337.278-.511.54-.721.29-.18.594-.331.9-.483l.267-.136.846-.425a675.353 675.353 0 001.378-.695 143.5 143.5 0 002.462-1.28c.489-.258.98-.511 1.47-.765l.334-.173 1.38-.714c1.605-.83 1.605-.83 3.206-1.67a272.85 272.85 0 012.516-1.31c.798-.413 1.595-.826 2.391-1.242a780.27 780.27 0 012.43-1.263c.85-.441 1.7-.882 2.55-1.325l.272-.14.257-.135.248-.128c.156-.084.31-.174.46-.27.664-.413 1.196-.517 1.939-.226zm-14.25 20.512l-.29.145-.312.158-.322.162c-.693.35-1.382.707-2.068 1.07-.72.382-1.444.756-2.169 1.13a248.495 248.495 0 00-3.064 1.605v.196a32.543 32.543 0 002.695 1.496l.231.12c.542.255.898.248 1.47.085.328-.137.58-.336.854-.56.397-.3.849-.5 1.293-.72l.57-.3c.643-.339 1.288-.673 1.933-1.006 1.12-.58 2.24-1.165 3.357-1.752v-.195l-.25-.129-.923-.476a496.094 496.094 0 00-1.15-.593 18.623 18.623 0 01-.882-.485c-.439-.244-.544-.166-.973.05zm25.82-.014l-.262.14-.287.153-.613.324-.326.172c-.547.29-1.098.574-1.649.859-.814.422-1.628.845-2.441 1.27-.924.482-1.848.961-2.774 1.44a779.473 779.473 0 00-2.795 1.457l-.228.12-.209.107-.21.11c-.31.146-.627.122-.962.085a17.55 17.55 0 01-.39-.195c-.47.044-.85.264-1.262.479l-.225.116-.723.376-.499.258a285.3 285.3 0 00-2.583 1.35c-.448.237-.897.47-1.348.703l-.364.187-.54.278c-.167.085-.334.17-.5.257l-.293.15c-.233.13-.44.27-.648.436.323.18.647.359.97.537l.27.15c.19.105.383.207.577.307.248.133.477.27.713.42.701.432.701.432 1.5.51.569-.173 1.067-.483 1.573-.789l.482-.27c.313-.174.623-.35.931-.532.465-.271.94-.521 1.42-.766l.415-.22c.507-.27 1.016-.534 1.525-.8l.286-.149.575-.3 1.41-.735.561-.293.281-.146 7.862-4.102.557-.291c.49-.256.98-.51 1.473-.762l.31-.159.59-.3.269-.139.235-.12c.239-.148.415-.319.606-.524l-.16-.083-.725-.38-.25-.132a23.114 23.114 0 01-1.105-.609c-.428-.233-.61-.173-1.02.045zm4.967 2.644l-.269.142-.29.156-.616.325-.317.168c-.478.253-.957.502-1.436.752l-.561.293-3.65 1.904-.56.293-1.42.74c-.858.447-1.717.895-2.573 1.347-.87.459-1.743.911-2.616 1.363-.707.366-1.412.735-2.116 1.107-.796.42-1.595.833-2.395 1.245-.746.386-1.486.78-2.224 1.18.279.305.54.488.91.668l.305.15.317.153a502.423 502.423 0 01.919.447c.331.17.645.361.955.566.386.125.71-.09 1.06-.254l.274-.144.314-.164.335-.176a589.168 589.168 0 011.08-.566c.578-.302 1.156-.6 1.734-.9.73-.377 1.459-.757 2.185-1.14a240.08 240.08 0 012.517-1.31c.797-.413 1.594-.826 2.39-1.242a765.42 765.42 0 012.43-1.263 1125.22 1125.22 0 004.138-2.155c1.177-.614 2.353-1.23 3.528-1.85v-.195a580.869 580.869 0 00-2.048-1.062 229.151 229.151 0 00-.982-.51l-.219-.113-.192-.1c-.363-.148-.582-.027-.907.145zm-24.742.455l-.236.12-.258.134-.268.137-.855.44-.557.286a303.748 303.748 0 00-3.076 1.602c-.618.326-1.24.647-1.86.969l-.356.184-.847.438c.28.305.54.488.91.668l.305.15a392.498 392.498 0 01.934.454l.302.146c.334.17.65.362.965.566.204.09.204.09.438-.005l.248-.123.223-.105.23-.115.259-.13.277-.139.29-.145c.662-.333 1.32-.674 1.974-1.021.479-.254.96-.504 1.441-.752 1.247-.641 2.491-1.283 3.704-1.988-.346-.283-.73-.481-1.127-.684a342.069 342.069 0 01-.659-.34 200.56 200.56 0 01-.683-.353l-.434-.223-.207-.107c-.464-.237-.619-.3-1.077-.064zm-5.761 8.28l-.208.106-.235.12-.253.132-.266.136a114.593 114.593 0 00-1.036.538l-.869.457c-.718.38-1.44.754-2.163 1.127-1.162.6-2.321 1.204-3.479 1.813v.195l.285.146c3.139 1.611 3.139 1.611 4.29 2.22.734.389 1.473.77 2.212 1.15.89.458 1.78.919 2.665 1.387.697.368 1.396.73 2.096 1.09.95.491 1.899.984 2.847 1.479.718.375 1.438.749 2.158 1.122.743.385 1.486.77 2.228 1.157l.565.293c.41.213.816.428 1.216.659l.203.115c.174.099.346.2.519.302.386.143.506.066.884-.085a21.64 21.64 0 00.896-.45l.636-.331.443-.23a322.26 322.26 0 002.409-1.26c.693-.366 1.39-.726 2.086-1.086.86-.444 1.718-.888 2.576-1.336a786.8 786.8 0 012.429-1.264 1203.774 1203.774 0 004.663-2.429l.276-.144a508.5 508.5 0 012.573-1.335c.74-.382 1.473-.773 2.205-1.17v-.195l-.147-.075a3729.846 3729.846 0 01-4.053-2.074l-.257-.132c-.778-.402-1.548-.805-2.29-1.27-1.03-.672-1.03-.672-2.198-.94-.508.123-.914.41-1.338.705-.468.306-.972.544-1.471.794-.309.155-.615.315-.921.476l-.361.188-.343.18-.589.306-.817.427c-.83.433-1.66.864-2.492 1.294a649.676 649.676 0 00-3.002 1.563c-.147.077-.293.157-.438.24l-.196.108-.165.096c-.488.155-.882.11-1.348-.072a16.006 16.006 0 01-.363-.195l-.202-.106a61.62 61.62 0 01-.425-.225c-.289-.154-.58-.303-.872-.451-.379-.192-.756-.387-1.133-.58l-.242-.125a254.8 254.8 0 01-2.78-1.444c-.863-.457-1.732-.906-2.6-1.355a465.212 465.212 0 01-2.503-1.303l-.317-.164-.279-.146c-.342-.186-.342-.186-.71-.15z"/><path d="M37.5 6.25c.305.183.305.183.488.488.097.491.076.85-.183 1.282-.43.258-.792.283-1.282.183-.333-.231-.453-.388-.586-.769 0-.393.108-.644.294-.989.415-.277.781-.267 1.269-.195z"/></g><defs><clipPath id="clip0_78_665"><path fill="#fff" d="M0 0h50v50H0z"/></clipPath></defs></svg>