<svg width="40" height="40" viewBox="0 0 40 40" fill="none" xmlns="http://www.w3.org/2000/svg"><path d="M20.684 4.522l.42.21.236.117c.259.129.518.26.776.39l.559.278 1.356.68c.526.265 1.053.528 1.58.792.94.47 1.879.94 2.818 1.412.91.458 1.822.915 2.735 1.37l.17.086.17.085a2973.676 2973.676 0 015.557 2.784l.684.343c.248.123.495.248.741.372l.22.11.2.1.173.088c.14.09.14.09.296.324.053.559.053.559-.117.769-.266.228-.556.37-.87.523l-.197.099-.412.204-.632.314-.4.199-.191.095-.177.087-.156.077c-.13.055-.13.055-.286.055v.156l.194.058c.324.115.624.26.93.413l.187.092.387.193.593.293a264 264 0 01.377.188c.059.03.118.058.18.088.268.136.42.217.59.472.017.234.026.46.026.695l.002.207v.433c.001.221.004.442.007.663v.42l.004.2c-.003.452-.003.452-.156.685a6.87 6.87 0 01-.87.49l-.197.098-.412.204a123.64 123.64 0 00-1.032.513l-.191.095-.177.087-.156.077c-.13.055-.13.055-.286.055v.156l.194.058c.324.115.624.26.93.413l.187.092.387.193.593.293a264 264 0 01.377.188c.059.03.118.058.18.088.268.136.42.217.59.472.053.557.053.557-.112.766-.288.245-.608.397-.946.565l-.231.116c-.257.13-.514.258-.77.386l-.552.277a673.303 673.303 0 01-2.435 1.221 2885.33 2885.33 0 01-3.098 1.55l-.169.085-.169.084-2.708 1.358c-.927.466-1.854.93-2.782 1.395-.521.26-1.042.52-1.562.782-.443.223-.886.445-1.33.666l-.678.34c-.244.123-.49.246-.736.367-.07.037-.142.073-.215.11-.403.197-.745.34-1.195.244a6.444 6.444 0 01-.792-.357l-.235-.117c-.26-.129-.518-.26-.777-.39l-.558-.278-1.357-.68a1609.44 1609.44 0 01-4.397-2.204c-.911-.458-1.823-.915-2.735-1.37l-.17-.086-.17-.085a3003.43 3003.43 0 01-5.557-2.783l-.685-.344c-.247-.123-.494-.248-.74-.372l-.22-.11-.2-.1c-.057-.03-.114-.058-.173-.087-.14-.09-.14-.09-.296-.324-.053-.56-.053-.56.116-.77.267-.228.557-.369.87-.523l.198-.099.412-.204a124.467 124.467 0 001.031-.512l.192-.096.177-.087.156-.077c.13-.054.13-.054.285-.054v-.156a7.405 7.405 0 00-.193-.059 8.3 8.3 0 01-.93-.412l-.187-.093-.387-.192a280.79 280.79 0 01-.97-.482l-.18-.088c-.268-.136-.42-.216-.59-.471a9.724 9.724 0 01-.026-.696l-.002-.207-.001-.433c0-.22-.003-.442-.006-.663l-.001-.42-.004-.2c.004-.451.004-.451.156-.685.278-.19.569-.34.87-.49l.198-.098.412-.204a124.467 124.467 0 001.031-.512l.192-.096.177-.087.156-.077c.13-.054.13-.054.285-.054v-.156a7.405 7.405 0 00-.193-.059 8.3 8.3 0 01-.93-.412l-.187-.093-.387-.192a280.79 280.79 0 01-.97-.482l-.18-.088c-.268-.136-.42-.216-.59-.471-.053-.558-.053-.558.112-.767.288-.245.608-.397.946-.564l.231-.117c.256-.13.513-.258.77-.386l.551-.277a676.03 676.03 0 012.436-1.22A2760.856 2760.856 0 018.937 9.72l.17-.084 2.708-1.358c.927-.466 1.854-.93 2.782-1.394.52-.26 1.041-.521 1.561-.783.443-.223.886-.445 1.33-.666.227-.112.453-.226.678-.34l.736-.367.215-.11c.578-.282.968-.358 1.567-.097zM19.54 5.914l-.181.09-.198.1-.212.106-.703.353-.504.252c-.362.18-.723.362-1.084.543l-1.569.786a2744.725 2744.725 0 00-5.016 2.515l-.154.077-.765.383a7497.583 7497.583 0 00-6.34 3.178v.156c2.16 1.088 4.322 2.174 6.484 3.259l.766.384.154.077 2.468 1.24c.844.425 1.688.85 2.532 1.272.522.261 1.043.523 1.563.786.399.201.799.401 1.198.6l.492.248c.223.113.447.225.67.336l.197.101c.358.175.581.268.975.135.238-.1.467-.213.697-.33l.21-.105c.232-.115.464-.232.696-.349l.499-.25c.404-.201.809-.404 1.213-.607.47-.237.941-.472 1.412-.708a2815.955 2815.955 0 004.964-2.488l.153-.076.757-.38a9416.3 9416.3 0 006.274-3.145v-.156c-2.164-1.086-4.328-2.17-6.493-3.255l-.766-.383-.154-.078-2.471-1.238a2675.472 2675.472 0 00-4.1-2.055 582.756 582.756 0 00-1.692-.848l-.67-.335-.199-.1-.181-.09-.157-.079c-.29-.107-.502-.053-.765.078zM4.857 17.634l-.177.09-.559.284-.38.192-.929.472v.156c2.161 1.088 4.323 2.174 6.485 3.259l.766.384.154.077 2.468 1.24c.844.425 1.688.85 2.532 1.272.522.261 1.043.523 1.563.786.399.201.799.401 1.198.6l.492.248c.223.113.447.225.67.336l.197.101c.358.175.581.268.975.135.238-.1.467-.213.697-.33l.21-.105c.232-.115.464-.232.696-.349l.499-.25c.404-.201.809-.404 1.213-.607.47-.237.941-.472 1.412-.708a2815.955 2815.955 0 004.964-2.488l.153-.076.757-.38a9416.3 9416.3 0 006.274-3.145v-.156c-.368-.192-.738-.383-1.109-.572a61.04 61.04 0 01-.377-.195 54.48 54.48 0 00-.543-.278l-.169-.09-.16-.08-.14-.072c-.43-.112-.828.116-1.202.307l-.17.085c-.189.094-.376.189-.564.284l-.405.203c-.29.145-.58.29-.87.437l-1.376.691-2.671 1.343a3272.504 3272.504 0 01-4.77 2.396 562.738 562.738 0 01-1.783.896l-.157.08c-.635.316-.635.316-.963.22l-.167-.082-.197-.096-.216-.11-.236-.115c-.223-.11-.447-.222-.67-.334-.205-.104-.412-.206-.618-.309-.666-.331-1.33-.665-1.996-1l-1.218-.61a3989.682 3989.682 0 01-5.382-2.702l-1.013-.508a332.914 332.914 0 00-1.296-.651 91.89 91.89 0 00-.742-.372c-.454-.189-.745-.012-1.15.196zm-2.982 2.21v1.015l6.62 3.315.781.39.157.08a8222.972 8222.972 0 016.7 3.353 1391.468 1391.468 0 002.408 1.205l.203.102.184.092.16.08c.13.066.13.066.287.055v-1.015l-6.62-3.314-.782-.391-.157-.079a8109.954 8109.954 0 01-5.104-2.555 2373.563 2373.563 0 01-3.32-1.662l-.684-.342-.203-.102-.184-.092-.16-.08c-.13-.065-.13-.065-.286-.055zm35.803.135l-.183.092-.204.102c-.07.036-.141.07-.215.107l-.717.36a1224.39 1224.39 0 01-1.619.81l-1.599.8a4825.284 4825.284 0 00-5.115 2.56l-.157.08-.779.389-6.465 3.237v1.015a5.685 5.685 0 00.975-.399l.197-.099.212-.106.701-.351.504-.252a1397.943 1397.943 0 002.65-1.327 6021.721 6021.721 0 005.01-2.508l.154-.077.764-.382 6.333-3.17v-1.016c-.188 0-.279.051-.447.135zM4.858 24.51l-.177.09-.559.284-.38.192-.929.472v.156c2.161 1.088 4.323 2.174 6.485 3.259l.766.384.154.077 2.468 1.24c.844.425 1.688.85 2.532 1.272.522.261 1.043.523 1.563.786.399.201.799.401 1.198.6l.492.248c.223.113.447.225.67.336l.197.101c.358.175.581.268.975.135.238-.1.467-.213.697-.33l.21-.105c.232-.115.464-.232.696-.349l.499-.25c.404-.201.809-.404 1.213-.607.47-.237.941-.472 1.412-.708a2815.955 2815.955 0 004.964-2.488l.153-.076.757-.38a9416.3 9416.3 0 006.274-3.145v-.156c-.368-.192-.738-.383-1.109-.572a61.04 61.04 0 01-.377-.195 54.48 54.48 0 00-.543-.278l-.169-.09-.16-.08-.14-.072c-.43-.112-.828.116-1.202.307l-.17.085c-.189.094-.376.189-.564.284l-.405.203c-.29.145-.58.29-.87.437l-1.376.691-2.671 1.343a3272.504 3272.504 0 01-4.77 2.396 562.738 562.738 0 01-1.783.896l-.157.08c-.635.316-.635.316-.963.22l-.167-.082-.197-.096-.216-.11-.236-.115c-.223-.11-.447-.222-.67-.334-.205-.104-.412-.206-.618-.309-.666-.331-1.33-.665-1.996-1l-1.218-.61a3989.682 3989.682 0 01-5.382-2.702l-1.013-.508a332.914 332.914 0 00-1.296-.651 91.89 91.89 0 00-.742-.372c-.454-.189-.745-.012-1.15.196z" fill="#000"/></svg>