<svg width="50" height="50" viewBox="0 0 50 50" fill="none" xmlns="http://www.w3.org/2000/svg"><path d="M30.371 0l.195.098a19151.18 19151.18 0 01-2.203 13.33 1947.326 1947.326 0 00-.578 3.495 291.474 291.474 0 01-.154.933c-.08.481-.08.481-.19.699h11.133c-.154.385-.31.704-.519 1.059l-.097.166a181.15 181.15 0 01-.542.92c-.565.96-1.141 1.911-1.72 2.86-.529.867-1.048 1.739-1.565 2.612a275.644 275.644 0 01-1.86 3.096 258.56 258.56 0 00-1.656 2.763 275.335 275.335 0 01-1.86 3.097c-.558.917-1.108 1.839-1.655 2.763a273.857 273.857 0 01-1.86 3.096 248.66 248.66 0 00-1.656 2.763c-.662 1.118-1.33 2.23-2.006 3.34-.589.967-1.173 1.938-1.754 2.91l-.195-.098 1.152-8.686.136-1.024.027-.206a12468.707 12468.707 0 001.141-8.603 1539.524 1539.524 0 01.445-3.347l.034-.267c.081-.598.081-.598.19-.816H11.426c.44-.769.44-.769.644-1.055l.138-.194.146-.204.314-.441.161-.226c.25-.35.497-.702.745-1.054l.293-.415.147-.207 13.33-18.885.146-.207a14866.31 14866.31 0 011.033-1.463C29.136 1.732 29.752.865 30.37 0zm-2.93 7.227l-.107.153a755.596 755.596 0 01-2.288 3.257l-.73 1.033-.293.415-.146.207-6.445 9.132-.292.413a270.071 270.071 0 01-1.196 1.684c-.388.547-.738 1.105-1.1 1.674h9.863l-.47 3.508-.294 2.196a8113.416 8113.416 0 01-.987 7.374 1041.579 1041.579 0 00-.316 2.365l-.048.359c-.029.27-.04.529-.033.8.294-.258.474-.575.669-.91l.11-.185.234-.4.63-1.068.129-.22c.396-.67.8-1.337 1.206-2.002.593-.973 1.178-1.95 1.758-2.93a274.735 274.735 0 011.86-3.097c.558-.916 1.109-1.838 1.655-2.762a262 262 0 011.758-2.93 349.553 349.553 0 002.32-3.857l.103-.173c.186-.315.321-.608.458-.95H25.391l.473-2.789.295-1.745a2584.562 2584.562 0 01.811-4.79l.181-1.07.202-1.192.062-.36.054-.327.048-.285c.04-.25.04-.25-.076-.528z" fill="#000"/></svg>