<svg width="50" height="50" viewBox="0 0 50 50" fill="none" xmlns="http://www.w3.org/2000/svg"><path d="M3.547 20.983h.227l.761-.001.549-.001 1.512-.002 1.629-.002 3.936-.004 1.851-.001 6.153-.004h1.798l6.437-.007c2.267-.003 4.535-.005 6.802-.005 1.237 0 2.473-.002 3.71-.004 1.052-.002 2.105-.003 3.158-.002.537 0 1.075 0 1.612-.002h1.475l.534-.001c.242-.002.483 0 .725 0l.212-.002c.465.006.701.113 1.028.442.14.28.111.518.112.83l.002.2.001.668.002.476.004 1.298a2141.745 2141.745 0 01.006 3.345c0 .976.003 1.952.007 2.928.003.754.004 1.508.005 2.262 0 .45 0 .9.003 1.351.002.424.003.848.002 1.272 0 .155 0 .31.002.466.002.213 0 .425 0 .637v.36c-.057.374-.176.535-.439.801-.291.146-.59.112-.91.111h-.227c-.254.002-.508.001-.761.001l-.548.002-1.513.001-1.628.002-3.936.004-1.852.002-6.153.003h-1.798l-6.437.007c-2.267.003-4.535.005-6.802.006-1.236 0-2.473 0-3.71.003-1.052.002-2.105.003-3.158.002-.537 0-1.074 0-1.612.002-.491.002-.983.002-1.475 0l-.534.001c-.242.002-.483 0-.725 0l-.211.002c-.466-.006-.702-.112-1.03-.442-.139-.28-.11-.518-.111-.83l-.001-.2a208.808 208.808 0 01-.004-1.144 630.825 630.825 0 01-.005-2.109c-.002-.844-.004-1.69-.004-2.534-.001-.976-.004-1.952-.008-2.928-.003-.754-.004-1.508-.005-2.262 0-.45 0-.9-.003-1.351-.002-.424-.003-.848-.002-1.271 0-.156 0-.311-.002-.467a14396.624 14396.624 0 000-.997c.058-.373.177-.534.439-.801.292-.146.59-.112.91-.11zm.457 1.771v13.867h41.992V22.754H44.63l-.004.538-.014.701-.002.355c-.024.968-.024.968-.309 1.267-.32.207-.468.244-.843.166-.25-.161-.348-.234-.488-.488-.075-.433-.077-.862-.08-1.3l-.007-.36a75.715 75.715 0 01-.01-.879h-1.368l-.001.512c-.002.56-.006 1.119-.012 1.678-.003.34-.006.678-.006 1.017 0 .39-.005.78-.01 1.17l.002.368c-.016.938-.016.938-.3 1.24-.322.208-.47.246-.845.167-.249-.161-.348-.235-.488-.488-.075-.428-.07-.853-.07-1.287 0-.125-.002-.25-.004-.378a94.028 94.028 0 01-.005-.994c0-.339-.005-.677-.008-1.015a220.2 220.2 0 01-.01-1.99H38.38l-.004.538-.014.701-.002.355c-.024.968-.024.968-.309 1.267-.32.207-.468.244-.843.166-.25-.161-.348-.234-.488-.488-.075-.433-.077-.862-.08-1.3l-.007-.36a75.715 75.715 0 01-.01-.879h-1.368l-.001.512c-.002.56-.006 1.119-.012 1.678-.003.34-.006.678-.006 1.017 0 .39-.005.78-.01 1.17l.002.368c-.016.938-.016.938-.3 1.24-.322.208-.47.246-.845.167-.249-.161-.348-.235-.488-.488-.075-.428-.07-.853-.07-1.287 0-.125-.002-.25-.004-.378a94.028 94.028 0 01-.005-.994c0-.339-.005-.677-.008-1.015a220.2 220.2 0 01-.01-1.99H32.13l-.004.538-.014.701-.002.355c-.024.968-.024.968-.309 1.267-.32.207-.468.244-.843.166-.25-.161-.348-.234-.488-.488-.075-.433-.077-.862-.08-1.3l-.007-.36a75.715 75.715 0 01-.01-.879h-1.368l-.001.512c-.002.56-.006 1.119-.012 1.678-.003.34-.006.678-.006 1.017 0 .39-.005.78-.01 1.17l.002.368c-.016.938-.016.938-.3 1.24-.322.208-.47.246-.845.167-.249-.161-.348-.235-.488-.488-.075-.428-.07-.853-.07-1.287l-.004-.378a94.028 94.028 0 01-.005-.994c0-.339-.005-.677-.008-1.015a220.2 220.2 0 01-.01-1.99H25.88l-.004.538-.014.701-.002.355c-.024.968-.024.968-.309 1.267-.32.207-.468.244-.843.166-.25-.161-.348-.234-.488-.488-.075-.433-.077-.862-.08-1.3l-.007-.36a75.715 75.715 0 01-.01-.879h-1.368l-.001.512c-.002.56-.006 1.119-.012 1.678-.003.34-.006.678-.006 1.017 0 .39-.005.78-.01 1.17l.002.368c-.016.938-.016.938-.3 1.24-.322.208-.47.246-.845.167-.249-.161-.348-.235-.488-.488-.075-.428-.07-.853-.07-1.287l-.004-.378a94.028 94.028 0 01-.005-.994c0-.339-.005-.677-.008-1.015a220.2 220.2 0 01-.01-1.99H19.63l-.004.538-.014.701-.002.355c-.024.968-.024.968-.309 1.267-.32.207-.468.244-.843.166-.25-.161-.348-.234-.488-.488-.075-.433-.077-.862-.08-1.3l-.007-.36a75.715 75.715 0 01-.01-.879h-1.368l-.001.512c-.002.56-.006 1.119-.012 1.678-.003.34-.006.678-.006 1.017 0 .39-.005.78-.01 1.17l.002.368c-.016.938-.016.938-.3 1.24-.322.208-.47.246-.845.167-.249-.161-.348-.235-.488-.488-.075-.428-.07-.853-.07-1.287l-.004-.378a94.028 94.028 0 01-.005-.994c0-.339-.005-.677-.008-1.015a220.2 220.2 0 01-.01-1.99H13.38l-.004.538-.014.701-.002.355c-.024.968-.024.968-.309 1.267-.32.207-.468.244-.843.166-.25-.161-.348-.234-.488-.488-.075-.433-.077-.862-.08-1.3l-.007-.36a75.715 75.715 0 01-.01-.879h-1.368l-.001.512c-.002.56-.006 1.119-.012 1.678-.003.34-.006.678-.006 1.017 0 .39-.005.78-.01 1.17l.002.368c-.016.938-.016.938-.3 1.24-.322.208-.47.246-.845.167-.249-.161-.348-.235-.488-.488-.075-.428-.07-.853-.07-1.287 0-.125-.002-.25-.004-.378a94.297 94.297 0 01-.005-.994c0-.339-.005-.677-.008-1.015a220.2 220.2 0 01-.01-1.99h-1.37l-.004.538-.014.701-.002.355c-.024.968-.024.968-.308 1.267-.321.207-.469.244-.844.166-.25-.161-.348-.234-.488-.488-.075-.433-.077-.862-.08-1.3l-.007-.36a74.402 74.402 0 01-.01-.879H4.003zm2.539-11.133c.264.176.444.301.586.586.057.3.057.5-.115.76-.508.59-1.097 1.135-1.643 1.681H44.63l-1.66-1.66c-.14-.278-.128-.472-.098-.781.176-.264.301-.444.586-.586.256-.049.256-.049.586 0 .758.517 1.399 1.286 2.045 1.934l.591.591.376.376.178.178c.495.498.495.498.57.888-.133.898-1.356 1.75-1.983 2.375l-.591.591-.376.376-.178.178c-.51.507-.51.507-.907.551-.382-.037-.527-.156-.8-.42-.147-.295-.146-.452-.097-.782.453-.688 1.2-1.297 1.758-1.855H5.37l1.66 1.66c.14.278.128.472.098.781-.176.264-.301.444-.586.586-.256.049-.256.049-.586 0-.758-.517-1.399-1.286-2.045-1.934a279.094 279.094 0 00-.967-.967l-.178-.178c-.495-.498-.495-.498-.57-.888.133-.898 1.356-1.75 1.984-2.375a279.089 279.089 0 00.966-.967l.178-.178c.422-.42.614-.58 1.218-.52z" fill="#000"/></svg>