<svg width="20" height="20" viewBox="0 0 20 20" fill="none" xmlns="http://www.w3.org/2000/svg"><g clip-path="url(#clip0_113_833)" fill="#000"><path d="M9.6-.01h.087c.876-.01 1.67.068 2.5.362l.128.043c1.54.553 2.773 1.756 3.505 3.199l.06.115c.594 1.231.774 2.811.448 4.143l-.023.098c-.224.907-.635 1.705-1.157 2.474a22.668 22.668 0 00-.437.676l-.144.227c-.13.207-.263.413-.395.619l-.08.125c-.164.257-.33.513-.495.768-.146.225-.29.45-.433.677-.16.252-.32.503-.483.754-.284.437-.564.877-.845 1.316-.739 1.155-.739 1.155-1.009 1.57l-.135.21-.082.127-.069.108a.758.758 0 01-.385.29c-.218.014-.362.012-.547-.118-.227-.236-.389-.53-.56-.809-.1-.163-.204-.324-.309-.485a85.534 85.534 0 01-.486-.756c-.391-.616-.783-1.231-1.18-1.843-.17-.262-.337-.525-.504-.788a80.367 80.367 0 00-.418-.65c-.188-.29-.373-.582-.559-.874a81.775 81.775 0 00-.417-.65l-.104-.16-.178-.274c-.293-.449-.57-.894-.792-1.382l-.064-.136a6.083 6.083 0 01-.366-1.114l-.02-.078c-.224-.903-.173-1.996.059-2.891l.022-.09a6.22 6.22 0 01.447-1.2l.036-.075a5.58 5.58 0 01.937-1.36c.075-.08.145-.163.216-.246C6.369.775 8.09.007 9.6-.01zM7.89 4.454l-.07.068c-.536.55-.722 1.278-.72 2.024.01.746.301 1.37.805 1.914l.103.096.068.07c.55.536 1.278.722 2.023.72.747-.01 1.371-.3 1.915-.805l.095-.103.07-.068c.537-.55.723-1.277.721-2.023-.01-.746-.301-1.37-.805-1.915l-.103-.095-.068-.07c-.55-.537-1.278-.723-2.023-.72a2.75 2.75 0 00-2.01.907z"/><path d="M5.469 13.477c.06.078.06.078.126.183l.075.117.08.13a68.096 68.096 0 00.258.409c.131.21.265.417.398.625l.156.243a109.266 109.266 0 00.32.5c.243.38.486.76.732 1.139.124.192.246.384.368.578.614.98.614.98 1.626 1.484.516.092.986-.015 1.44-.27.244-.172.415-.355.576-.607l.06-.092a44.374 44.374 0 00.256-.4l.338-.53.452-.71.079-.122.159-.249a818.737 818.737 0 00.83-1.298l.127-.199.158-.248c.156-.245.319-.486.487-.723 1.42.28 3.107.838 3.962 2.086.274.45.325.932.233 1.448-.241.81-.995 1.32-1.7 1.702a8.115 8.115 0 01-1.323.546l-.102.033a16.76 16.76 0 01-3.023.63l-.139.019c-1.657.204-3.44.198-5.095-.018l-.16-.02c-1.956-.251-4.371-.688-5.694-2.296-.312-.43-.374-.916-.318-1.434.138-.671.667-1.174 1.214-1.543.748-.485 1.58-.773 2.431-1.02L5 13.526l.134-.037.119-.034c.099-.018.099-.018.216.02z"/></g><defs><clipPath id="clip0_113_833"><path fill="#fff" d="M0 0h20v20H0z"/></clipPath></defs></svg>