<svg width="20" height="20" viewBox="0 0 20 20" fill="none" xmlns="http://www.w3.org/2000/svg"><g clip-path="url(#clip0_113_840)" fill="#000"><path d="M0 6.68l.166.09.093.052c.15.086.291.182.434.28l.097.066.208.141.564.383.118.08c.401.27.806.537 1.21.802.57.374 1.136.751 1.7 1.133.64.434 1.285.862 1.931 1.286.345.226.688.453 1.03.685l.191.13c.118.079.235.159.352.24.749.508 1.552.774 2.464.623.656-.136 1.207-.513 1.75-.887.183-.127.368-.253.553-.378l.115-.079c.398-.271.801-.536 1.204-.8.569-.373 1.135-.75 1.7-1.132.637-.432 1.278-.858 1.921-1.28.362-.238.723-.476 1.082-.717l.108-.072.512-.343.181-.121.084-.056c.189-.126.189-.126.232-.126.005 1.185.008 2.371.01 3.557v.42l.001.085c0 .45.002.902.004 1.353a429.304 429.304 0 01.006 2.17 120.018 120.018 0 01.002 1.004c.006.694-.064 1.189-.553 1.713-.374.346-.782.527-1.295.528h-.376l-.21.001h-.574l-.62.001a820.126 820.126 0 01-2.203.002h-3.107l-2.45.002a1918.17 1918.17 0 01-3.928.003 401.655 401.655 0 01-1.815 0 80.997 80.997 0 01-.765.001c-.603.004-1.106-.087-1.568-.506l-.09-.1-.057-.058c-.242-.258-.417-.609-.417-.967v-.713a772.648 772.648 0 00.001-1.03v-.708a2303.924 2303.924 0 01.002-2.761v-.085A24752.097 24752.097 0 000 6.68z"/><path d="M1.825 2.49h.376a209.023 209.023 0 00.785-.001l.62-.001a806.668 806.668 0 012.203-.001l2.801-.001h.153a769.49 769.49 0 002.602-.002 1758.406 1758.406 0 013.928-.003 388.712 388.712 0 011.816 0 81.612 81.612 0 01.764 0c.604-.005 1.107.086 1.568.505l.09.1.057.056c.371.39.43.877.423 1.388-.018.497-.283.873-.627 1.212-.135.122-.282.22-.434.317l-.1.065-.215.14c-.194.124-.387.25-.58.377l-.12.079c-.402.262-.8.53-1.197.8-.599.405-1.201.806-1.806 1.203-.538.353-1.073.711-1.607 1.072a176.296 176.296 0 01-1.741 1.166c-.657.436-1.216.751-2.028.62a2.284 2.284 0 01-.656-.305l-.082-.051c-.314-.2-.622-.41-.93-.619-.62-.422-1.245-.839-1.872-1.25-.604-.397-1.205-.799-1.803-1.204-.505-.341-1.012-.68-1.522-1.014l-.933-.614-.09-.06a76.93 76.93 0 01-.671-.446c-.351-.236-.66-.484-.84-.874L.09 5.005c-.168-.4-.156-.938-.008-1.343.228-.501.62-.875 1.128-1.084a2.12 2.12 0 01.614-.088z"/></g><defs><clipPath id="clip0_113_840"><path fill="#fff" d="M0 0h20v20H0z"/></clipPath></defs></svg>