<svg width="30" height="30" viewBox="0 0 30 30" fill="none" xmlns="http://www.w3.org/2000/svg"><g clip-path="url(#clip0_15_351)" fill="#000"><path d="M1.66 13.454h.958c.313-.002.627-.001.94 0l1.014-.001a1011.801 1011.801 0 013.6 0h15.5a919.153 919.153 0 012.967 0 175.453 175.453 0 011.25 0l.451.001.13-.001c.472.005.85.167 1.193.492.331.375.38.773.363 1.263-.058.448-.261.777-.604 1.066-.356.209-.677.275-1.082.271l-.142.001h-2.769c-.662.002-1.325.002-1.987.001H16.88a1255.18 1255.18 0 00-3.881 0h-6.67a857.953 857.953 0 01-2.967 0 200.522 200.522 0 01-1.25 0c-.15 0-.301 0-.451-.002l-.13.002a1.673 1.673 0 01-1.193-.493c-.331-.374-.38-.772-.364-1.263.058-.448.262-.777.604-1.065.356-.21.678-.276 1.083-.272zM9.605 4.43h1.651c.475-.002.951-.001 1.427 0h1.326a3735.325 3735.325 0 016.18 0h3.635l1.158-.001a464.61 464.61 0 012.132 0l.66.001h.35c.57.003 1.1.078 1.524.492.365.482.394.933.352 1.523-.097.416-.426.696-.762.938a1.35 1.35 0 01-.646.132l-.216.001a623.578 623.578 0 01-.489 0h-.693l-.747.002a784.877 784.877 0 01-2.653.002l-3.373.002h-.368c-.983 0-1.967 0-2.95.002l-3.03.003-1.701.001c-.483.001-.966.002-1.449 0l-.739.001a78.289 78.289 0 01-.92 0c-.53.005-.878-.036-1.307-.362-.36-.367-.466-.637-.486-1.15.01-.463.099-.809.427-1.144.512-.42 1.068-.446 1.707-.442zm5.59 18.04h.178c.196-.002.391-.001.587 0l.422-.002h2.221c.754 0 1.509 0 2.263.002h1.94a847.43 847.43 0 012.254-.002h1.193a209.526 209.526 0 011.532 0l.562.002.164-.001c.446.005.81.136 1.126.46.372.404.395.753.383 1.293-.041.426-.221.7-.548.973-.44.317-.786.36-1.32.36a1642.61 1642.61 0 01-1.148.002 682.304 682.304 0 01-1.8.002l-1.919.002h-.622c-.668 0-1.335.001-2.002.003a1008.009 1008.009 0 01-3.212.003 280.912 280.912 0 01-1.485.002h-.702c-.566-.004-1.029-.134-1.439-.532-.3-.359-.386-.752-.365-1.213.053-.444.253-.807.604-1.09.378-.214.703-.268 1.133-.264z"/></g><defs><clipPath id="clip0_15_351"><path fill="#fff" d="M0 0h30v30H0z"/></clipPath></defs></svg>