<svg width="52" height="52" viewBox="0 0 52 52" fill="none" xmlns="http://www.w3.org/2000/svg">
<path d="M13.6917 38C12.925 38 12.285 37.747 11.7717 37.241C11.2572 36.7339 11 36.1025 11 35.3468V17.6532C11 16.8975 11.2572 16.2666 11.7717 15.7606C12.285 15.2535 12.925 15 13.6917 15H38.3083C39.075 15 39.715 15.2535 40.2283 15.7606C40.7428 16.2666 41 16.8975 41 17.6532V35.3468C41 36.1025 40.7433 36.7334 40.23 37.2394C39.7156 37.7465 39.075 38 38.3083 38H13.6917ZM26 26.6889L12.6667 18.0968V35.3468C12.6667 35.6414 12.7628 35.8835 12.955 36.0729C13.1472 36.2624 13.3928 36.3571 13.6917 36.3571H38.3083C38.6072 36.3571 38.8528 36.2624 39.045 36.0729C39.2372 35.8835 39.3333 35.6414 39.3333 35.3468V18.0968L32.5 22.5L26 26.6889ZM26 24.8571L38.82 16.6429H13.18L26 24.8571ZM12.6667 18.0968V16.6429V35.3468C12.6667 35.6414 12.7628 35.8835 12.955 36.0729C13.1472 36.2624 13.3928 36.3571 13.6917 36.3571H12.6667V18.0968Z" fill="black"/>
</svg>
