<svg width="50" height="50" viewBox="0 0 50 50" fill="none" xmlns="http://www.w3.org/2000/svg"><path d="M18.31 13.379c.525.301.856.734 1.124 1.27l1.758.097.097-.39c.329-.618.811-.954 1.465-1.172.772-.06 1.52-.115 2.148.39.605.575.9 1.09.973 1.922.014.745-.31 1.322-.777 1.887-.658.535-1.32.667-2.149.586-.708-.152-1.24-.561-1.654-1.148-.103-.22-.103-.22-.103-.415h-1.856l-.195.586c-.176.203-.176.203-.379.372l-.2.173c-.203.139-.203.139-.593.236v3.32l.976.294c1.012.522 1.674 1.38 2.051 2.441.114.399.109.785.104 1.196l-.001.22-.005.537.178.051c.616.18 1.215.389 1.814.617a340.072 340.072 0 00.871.33l.89.337c.937.354 1.87.71 2.79 1.107l.09-.28c.343-.997 1.174-1.51 2.069-1.976.869-.362 2.056-.32 2.937-.015.383.165.724.357 1.056.61l.238.16c.249.23.416.455.608.734l.185.268.141.206c.471-.172.94-.349 1.408-.53.16-.062.319-.121.48-.18.912-.286.912-.286 1.57-.907.045-.247.056-.476.058-.727.33-.641.873-1.145 1.562-1.367.358-.023.358-.023.745-.019l.388.002c.332.017.332.017.625.114.422-.402.84-.806 1.257-1.214l.428-.412c.207-.197.41-.396.613-.596.065-.06.13-.12.196-.183.17-.169.312-.32.436-.524.008-.367.008-.367-.098-.684-.07-.683.04-1.26.39-1.855.458-.529 1.01-.928 1.72-1.004.77-.027 1.355.107 1.967.582.584.55.732 1.036.757 1.838-.027.854-.198 1.31-.818 1.892-.495.43-.99.527-1.636.519l-.327-.002c-.295-.017-.295-.017-.49-.082-.198-.055-.198-.055-.355.063l-.156.153-.178.172-.19.19-.195.194a65.41 65.41 0 00-.408.408c-.208.209-.419.414-.63.62l-.396.396-.192.186a2.948 2.948 0 00-.425.515c-.007.317-.007.317.097.586.054.665-.03 1.147-.293 1.758-.113.277-.105.37 0 .658l.154.308.172.347.092.184c.128.252.252.506.377.76l.192.39c.312.632.611 1.27.905 1.912l.14.3c.04.091.082.182.125.275l.11.24c.077.192.077.192.077.388l.28-.025c.672.004 1.28.284 1.765.739.584.656.648 1.217.625 2.081-.067.67-.321 1.039-.808 1.49-.587.474-1.21.654-1.967.577-.727-.152-1.274-.497-1.696-1.109-.365-.575-.42-1.128-.347-1.8a4.57 4.57 0 01.586-1.27 5.736 5.736 0 00-.292-.69l-.1-.207a317.323 317.323 0 01-.542-1.12c-.142-.298-.287-.596-.431-.894a122.61 122.61 0 01-.729-1.538c-.18-.442-.18-.442-.446-.824l-.335.018c-.52.008-.968-.167-1.422-.409l-.139-.166c-.154-.157-.154-.157-.412-.104a5.809 5.809 0 00-1.04.362l-.2.085-.626.269a205.5 205.5 0 01-1.02.437c-.448.192-.448.192-.665.192l.025.372c-.004 1.035-.507 1.845-1.2 2.57-.613.586-1.233.858-2.048 1.061l-.976 3.516.39.195c.163.198.163.198.312.428.05.075.1.15.15.228.29.523.29 1.103.222 1.688-.24.752-.664 1.29-1.358 1.663-.668.288-1.293.28-1.974.04-.612-.27-1.066-.67-1.35-1.282-.103-.323-.103-.323-.103-.714l-.203-.06-.267-.08-.264-.08c-.18-.054-.358-.111-.536-.17-.202.108-.202.108-.409.268-.87.61-1.844.842-2.898.66-1.139-.257-2.057-.75-2.717-1.728-.608-1.01-.769-2.01-.57-3.181a4.275 4.275 0 011.712-2.465c1.034-.57 2.068-.751 3.241-.526.998.296 1.863.858 2.402 1.76.67 1.307.705 2.347.314 3.747.273.078.273.078.585.097.22-.127.22-.127.397-.323.417-.399.675-.556 1.264-.556.01-.056.02-.112.032-.17.132-.686.296-1.362.468-2.04l.082-.325.199-.785-.266-.033c-.738-.15-1.43-.745-1.883-1.334-.445-.765-.7-1.36-.683-2.246l-.193-.03c-.387-.089-.748-.226-1.119-.367l-.242-.09-.778-.294-.532-.2a122.202 122.202 0 01-3.142-1.222l-.243-.098-.203-.083c-.218-.077-.218-.077-.58-.058-.109.137-.218.273-.326.412-.733.79-1.781 1.145-2.835 1.194-1.238-.041-2.278-.553-3.119-1.44-.868-1.024-.954-2.193-.848-3.486.22-1.08.886-1.894 1.758-2.539.468-.29.81-.396 1.367-.488v-3.32l-.39-.098c-.546-.368-1-.819-1.173-1.465-.114-.848-.017-1.546.489-2.246.798-.876 1.985-1.078 3.076-.586zm-1.751 1.623c-.197.3-.204.465-.153.818.097.235.097.235.293.39.305.092.5.125.806.031.215-.16.288-.261.366-.518-.018-.3-.052-.511-.207-.77-.378-.226-.747-.19-1.105.05zm6.195.135c-.114.279-.114.279-.098.586.188.337.314.46.678.592.308.016.308.016.58-.153.236-.235.236-.235.262-.586-.03-.34-.03-.34-.213-.58-.432-.284-.86-.246-1.209.14zm23.73 4.59c-.166.23-.197.35-.183.634.108.307.214.443.477.635.355.06.515.046.817-.152.221-.332.222-.532.16-.922-.209-.25-.209-.25-.49-.39-.367 0-.488 0-.78.195zM15.137 23.73c-.357.588-.37 1.187-.293 1.856.175.65.623 1.096 1.172 1.465.583.3 1.123.359 1.758.195.748-.253 1.168-.723 1.55-1.398.203-.665.2-1.21-.092-1.849-.345-.616-.75-.99-1.416-1.233-1.065-.3-2.012.094-2.68.965zm25.055 2.308c-.199.302-.212.462-.153.817.189.259.334.368.629.489.265.02.265.02.519-.153.266-.288.325-.432.317-.824-.13-.294-.13-.294-.39-.488-.391-.063-.59-.063-.922.159zM29.444 28.32c-.434.625-.525 1.204-.44 1.953.24.77.785 1.256 1.465 1.66a2.637 2.637 0 002.05-.195c.566-.366.86-.826 1.075-1.465.137-.778-.044-1.404-.488-2.05a2.42 2.42 0 00-1.518-.816c-.876-.046-1.596.212-2.145.913zm-7.92 6.334c-.364.554-.523 1.11-.43 1.772.152.663.499 1.2 1.06 1.59.537.298 1.1.44 1.71.316.812-.248 1.288-.617 1.703-1.361.261-.563.256-1.096.103-1.694-.239-.623-.673-1.074-1.256-1.39-1.079-.47-2.174-.144-2.89.767zm23.398.893c-.226.275-.226.275-.177.586.093.364.093.364.372.586.384.049.596.058.922-.159.199-.302.212-.463.153-.818a1.422 1.422 0 00-.58-.482c-.3-.01-.453.112-.69.287zm-15.765 3.088c-.199.302-.212.463-.153.818.189.259.334.367.629.488.265.021.265.021.518-.152.267-.288.326-.433.318-.824-.131-.294-.131-.294-.39-.488-.391-.063-.59-.063-.922.158zM9.103 8.832c.58.465.896.963.992 1.704.032.76.032.76-.148 1.105-.26.498-.26.498-.192 1.038.16.295.334.57.523.846l.368.571.169.25c.123.205.123.205.123.4l.348.024c.706.093 1.133.438 1.58.965.435.648.392 1.388.318 2.136-.208.686-.664 1.109-1.27 1.465-.293.143-.494.206-.82.168-.479-.05-.788-.041-1.17.266-.296.263-.572.545-.842.835l.115.151c.769 1.074.991 2.164.862 3.463-.225 1.016-.794 1.95-1.66 2.539-1.062.634-2.098.833-3.308.58-1.052-.287-1.917-.92-2.478-1.857-.534-1.025-.624-2.114-.4-3.245.252-.765.73-1.367 1.303-1.924a21.754 21.754 0 00-.609-1.821c-.075-.23-.075-.23-.075-.522l-.186-.022c-.753-.116-1.263-.351-1.728-.967-.428-.73-.482-1.559-.27-2.373.256-.592.767-1.055 1.337-1.342.643-.2 1.46-.206 2.074.083.605.369 1.064.904 1.273 1.588.13.659.062 1.268-.254 1.86a31.6 31.6 0 01-.323.355c-.186.243-.268.355-.246.664.08.257.177.495.289.74l.106.257c.088.209.178.416.272.622l.31-.004c.14 0 .278-.002.416-.003l.218-.002a4.04 4.04 0 011.088.119c.336.052.416-.018.7-.224.278-.24.533-.498.784-.765l-.064-.183c-.298-.904-.336-1.554.048-2.437a1.79 1.79 0 01.504-.603c-.217-.718-.539-1.507-1.074-2.05-.32-.114-.555-.118-.893-.105-.505.012-.86-.204-1.228-.534-.489-.524-.72-1.076-.754-1.79.028-.737.255-1.35.793-1.863.925-.728 2.086-.805 3.079-.158zm-1.974 1.422c-.188.25-.196.374-.177.69.095.36.095.36.372.58.338.065.338.065.684 0 .262-.19.262-.19.39-.489.025-.355.025-.355-.097-.683-.405-.331-.728-.385-1.172-.098zm-4.724 4.748c-.205.3-.21.461-.159.818.15.31.248.375.574.489.314.025.314.025.58-.16.238-.257.311-.37.311-.72-.17-.362-.17-.362-.488-.585-.35-.038-.524-.043-.818.158zm7.752 1.795c-.114.234-.114.234-.098.488.189.332.317.462.677.592.308.016.308.016.58-.152.236-.236.236-.236.263-.586-.03-.341-.03-.341-.214-.58-.487-.32-.873-.222-1.209.238zm-5.918 5.191c-.458.6-.52 1.21-.43 1.938.176.698.57 1.176 1.172 1.562.604.3 1.141.34 1.796.188.737-.26 1.183-.77 1.524-1.457.19-.573.17-1.164-.049-1.728-.305-.606-.798-1.033-1.422-1.293-.982-.306-1.917.038-2.59.79z" fill="#000"/></svg>