<svg width="50" height="50" viewBox="0 0 50 50" fill="none" xmlns="http://www.w3.org/2000/svg"><path d="M14.96 3.876c.304.255.59.52.86.812l.198.195c1.594 1.65 2.004 3.678 1.977 5.903-.047 1.655-.762 3.322-1.882 4.546l-.236.264c-1.31 1.387-3.142 2.336-5.07 2.415-.21.002-.421.003-.632 0l-.338-.002c-1.785-.037-3.527-.677-4.856-1.896l-.268-.243a7.88 7.88 0 01-1.979-2.98l-.116-.303c-.667-2.058-.378-4.286.59-6.183.28-.52.605-.978.991-1.424l.177-.234c.8-.95 1.9-1.577 3.046-2.012l.329-.128c2.419-.79 5.199-.257 7.209 1.27zm-10.956 6.28c-.082 1.535.47 2.895 1.449 4.064 1.325 1.46 2.792 1.99 4.703 2.186v-1.562l-.622-.073c-1.322-.193-2.272-.738-3.13-1.766-.63-.873-.848-1.793-.935-2.849H4.004zM43.33 5.984c1.401 1.144 2.545 2.724 2.764 4.563.142 2.121-.13 4.097-1.56 5.753-1.29 1.412-2.897 2.39-4.842 2.48-2.02.058-3.834-.334-5.36-1.727-1.44-1.38-2.282-2.992-2.34-5.006-.023-1.992.475-3.744 1.875-5.204 2.495-2.498 6.554-3.056 9.462-.859zm-4.268.364v1.465l.574.067c.981.153 1.784.557 2.454 1.3.582.803.789 1.563.879 2.539h1.464c.077-1.28-.326-2.295-1.074-3.32l-.13-.188c-.671-.883-1.751-1.472-2.8-1.766l-.193-.057a3.237 3.237 0 00-.71-.046l-.464.006zM27.441 35.547l.317.14c1.612.79 2.672 2.09 3.296 3.766.42 1.359.4 3.094-.195 4.395l-.14.316c-.784 1.601-2.09 2.694-3.766 3.297a6.839 6.839 0 01-5.119-.541c-1.508-.873-2.485-2.255-2.998-3.912-.3-1.27-.24-2.853.304-4.043l.14-.317c.79-1.612 2.09-2.672 3.767-3.296 1.358-.42 3.094-.4 4.394.195zm-4.996 8.395l-.24.247-.242.248-.186.192c.448.692 1.264 1.114 2.049 1.32 1.489.234 2.774.035 4.01-.863.212-.167.212-.167.386-.457l-.879-.879c-.376.15-.72.31-1.077.498-.72.33-1.693.297-2.438.064-.363-.142-.66-.338-.977-.562-.218-.022-.218-.022-.406.192zM45.94 38.82c.86.618 1.505 1.437 1.716 2.489.131 1.212.027 2.284-.701 3.296-.666.79-1.477 1.397-2.528 1.51-1.261.088-2.313-.065-3.307-.903-.832-.794-1.276-1.639-1.322-2.794-.015-1.222.26-2.161 1.12-3.063 1.346-1.284 3.428-1.53 5.021-.536zM27.19 21.632c.86.619 1.505 1.438 1.716 2.49.131 1.212.027 2.283-.701 3.295-.666.79-1.477 1.398-2.528 1.511-1.261.087-2.313-.065-3.307-.903-.832-.794-1.276-1.64-1.322-2.794-.015-1.222.26-2.162 1.12-3.063 1.346-1.285 3.428-1.53 5.021-.536zM8.583 40.111c.815.486 1.322 1.16 1.573 2.077.098 1.084.034 2.024-.66 2.91-.552.593-1.24.956-2.048 1.029-1.048.023-1.912-.1-2.709-.844-.722-.803-.89-1.654-.863-2.706.046-.819.399-1.503 1.007-2.05 1.048-.788 2.496-.993 3.7-.416zm33.594-12.5c.815.486 1.321 1.16 1.573 2.076.097 1.084.034 2.025-.66 2.912-.552.592-1.24.955-2.049 1.028-1.047.023-1.911-.1-2.708-.844-.722-.803-.89-1.654-.864-2.706.047-.819.4-1.503 1.007-2.05 1.05-.788 2.497-.993 3.7-.416zM13.27 25.268c.815.486 1.322 1.158 1.574 2.076.097 1.084.034 2.025-.66 2.911-.552.592-1.24.955-2.049 1.028-1.048.023-1.911-.099-2.708-.843-.722-.803-.89-1.654-.864-2.707.046-.819.4-1.503 1.007-2.05 1.049-.788 2.497-.993 3.7-.415zM26.552 9.643c.815.486 1.321 1.158 1.573 2.076.097 1.084.034 2.025-.66 2.911-.552.592-1.24.955-2.049 1.028-1.047.023-1.911-.099-2.708-.843-.722-.803-.89-1.654-.864-2.707.047-.819.4-1.503 1.007-2.05 1.05-.788 2.497-.993 3.7-.415zm3.721 16.334a25.96 25.96 0 012.188.677l.307.11.96.342.65.23a653.335 653.335 0 011.188.424l.24.085c.24.089.48.184.717.28-.064.337-.137.67-.225 1.001l-.066.258c-.1.206-.1.206-.268.277-.29.034-.475-.032-.75-.128l-.32-.11-.344-.121-.356-.124c-.248-.086-.496-.172-.744-.26l-.95-.331-.91-.317-.344-.12-.322-.113-.281-.099c-.294-.115-.576-.258-.858-.399l.488-1.562zm-12.988-9.864a22.63 22.63 0 011.584 1.477l.253.253a994.136 994.136 0 011.335 1.34l1.32 1.325c-.167.37-.364.53-.683.781-.134.16-.266.322-.39.488-.342-.146-.56-.34-.821-.603l-.255-.254-.272-.276-.281-.281-.736-.741-.752-.756-1.474-1.483a288.466 288.466 0 01.44-.515c.23-.266.48-.509.732-.755zm14.942.587c.183.2.183.2.39.463l.208.261c.183.252.183.252.378.642l-3.71 3.711c-.404-.201-.512-.34-.782-.683-.16-.134-.322-.266-.488-.39.138-.315.304-.525.546-.768l.217-.219.235-.233.24-.241.505-.504.773-.774.49-.49.234-.235.217-.215.192-.191c.16-.135.16-.135.355-.135zm-12.598 8.69a154.908 154.908 0 01.229.954c.064.316.064.316.064.707a79.033 79.033 0 01-2.566.662c-.356.084-.681.139-1.047.119a63.99 63.99 0 01-.153-.61l-.086-.344c-.052-.3-.04-.426.043-.706a1195.357 1195.357 0 012.792-.662c.506-.12.506-.12.724-.12zm4.59 4.981h1.562v3.32H24.22v-3.32zm0-13.281h1.562v2.539H24.22v-2.54z" fill="#000"/></svg>