<svg width="52" height="52" viewBox="0 0 52 52" fill="none" xmlns="http://www.w3.org/2000/svg">
<path d="M41.7219 33.4506L33.3599 29.5988C33.0358 29.4544 32.6818 29.3954 32.3299 29.4272C31.978 29.4591 31.6394 29.5807 31.3447 29.7811C31.3211 29.7964 31.2987 29.8135 31.2774 29.8321L26.8857 33.6858C26.788 33.7472 26.677 33.7828 26.5627 33.7894C26.4484 33.7961 26.3343 33.7737 26.2305 33.7241C23.3546 32.2949 20.3778 29.2542 18.9894 26.3284C18.9403 26.2223 18.9175 26.1054 18.9231 25.988C18.9286 25.8706 18.9624 25.7564 19.0213 25.6558L22.7755 21.0601C22.7932 21.0383 22.8092 21.0146 22.8251 20.9909C23.0192 20.6879 23.137 20.34 23.1679 19.9785C23.1988 19.617 23.1419 19.2532 23.0022 18.92L19.2533 10.3267C19.0723 9.89145 18.759 9.52841 18.3605 9.29207C17.962 9.05573 17.4998 8.95886 17.0433 9.01599C14.8148 9.31845 12.7694 10.4457 11.2893 12.1871C9.8091 13.9285 8.99536 16.165 9.00002 18.4789C9.00002 32.5519 20.121 44 33.792 44C36.0398 44.0048 38.2124 43.1671 39.9041 41.6434C41.5957 40.1197 42.6907 38.0142 42.9846 35.7202C43.0397 35.2524 42.9465 34.7787 42.719 34.3698C42.4915 33.9608 42.1418 33.6385 41.7219 33.4506ZM41.5838 35.5379C41.3337 37.4807 40.4049 39.2632 38.9708 40.5522C37.5368 41.8412 35.6958 42.5484 33.792 42.5416C20.9037 42.5416 10.4167 31.7462 10.4167 18.4789C10.4101 16.5191 11.0971 14.624 12.3493 13.1478C13.6015 11.6716 15.3331 10.7154 17.2203 10.4579C17.2486 10.4561 17.277 10.4561 17.3053 10.4579C17.4451 10.4592 17.5814 10.5029 17.697 10.5837C17.8126 10.6645 17.9025 10.7786 17.9552 10.9118L21.6935 19.5052C21.7371 19.6102 21.7562 19.7243 21.7491 19.8383C21.742 19.9523 21.709 20.063 21.6528 20.1614L17.9004 24.7552C17.8826 24.7789 17.8649 24.8008 17.849 24.8263C17.6491 25.141 17.5313 25.5035 17.5071 25.8787C17.483 26.2539 17.5531 26.6291 17.7109 26.9683C19.2497 30.2113 22.4231 33.4543 25.6089 35.0384C25.9406 35.1998 26.3072 35.2699 26.6731 35.2422C27.039 35.2144 27.3916 35.0895 27.6967 34.8798L27.7623 34.8288L32.1593 30.9787C32.2534 30.9196 32.3597 30.8843 32.4696 30.8757C32.5795 30.8672 32.6899 30.8856 32.7915 30.9295L41.1517 34.7869C41.2928 34.8473 41.4111 34.9531 41.489 35.0885C41.5669 35.2238 41.6001 35.3815 41.5838 35.5379Z" fill="black"/>
</svg>
