<svg width="20" height="20" viewBox="0 0 20 20" fill="none" xmlns="http://www.w3.org/2000/svg"><g clip-path="url(#clip0_113_836)" fill="#000"><path d="M3.826 1.978c.053.03.106.06.158.092l.072.04c.33.202.59.486.86.758a525.653 525.653 0 00.516.516l.446.443a120.384 120.384 0 01.509.508c.438.435.868.872.893 1.524-.023.587-.379.97-.78 1.363l-.107.105-.277.274a159.567 159.567 0 00-.6.593l-.095.094-.084.082a.34.34 0 00-.113.248c.013.165.07.294.142.44l.043.087c.334.677.785 1.295 1.27 1.87l.102.122c.378.454.78.88 1.198 1.3l.099.1a11.896 11.896 0 002.779 2.033l.107.059.102.054.09.048a.666.666 0 00.328.035c.09-.058.09-.058.168-.143l.093-.095.099-.103a128.012 128.012 0 00.96-.986c.382-.391.79-.701 1.354-.727.724.027 1.204.606 1.682 1.084l.162.161.337.337.43.427a130.684 130.684 0 01.493.49c.832.824.832.824.839 1.44-.01.628-.38 1.037-.806 1.462a25231.744 25231.744 0 01-1.026 1.028c-.318.322-.652.592-1.086.737l-.134.046c-.692.2-1.54.115-2.236-.041l-.088-.02c-2.32-.52-4.553-1.903-6.358-3.418l-.121-.1c-.264-.22-.52-.45-.772-.684a13.71 13.71 0 00-.24-.22 5.007 5.007 0 01-.512-.514c-.092-.104-.19-.201-.288-.298a8.271 8.271 0 01-.489-.527 18.214 18.214 0 01-.977-1.21c-.018-.027-.037-.052-.057-.079C1.89 11.454 1.024 9.95.464 8.34c-.03-.086-.06-.17-.092-.256a6.397 6.397 0 01-.382-2.13l-.002-.151c-.002-.445.047-.88.251-1.282l.062-.125c.203-.343.532-.626.81-.908l.104-.104a189.714 189.714 0 01.431-.435 74.848 74.848 0 01.414-.418c.462-.46 1.102-.835 1.766-.553zM10.393 0c2.238.164 4.484 1.37 6.091 2.89l.118.106c1.206 1.078 2.115 2.47 2.734 3.957l.037.086c.304.716.634 1.59.627 2.375a157.69 157.69 0 01-.98.183l-.081.016c-.17.03-.33.04-.502.035l-.02-.089c-.443-1.836-1.171-3.66-2.563-4.996-.073-.07-.073-.07-.153-.173a2.287 2.287 0 00-.303-.294 6.043 6.043 0 01-.162-.143c-.464-.427-.984-.78-1.525-1.101l-.075-.046c-.93-.56-1.955-.896-3.011-1.126l-.089-.02a43.864 43.864 0 00-.458-.097C10.262 0 10.262 0 10.393-.001zm-.315 3.984c1.182.084 2.356.598 3.281 1.329l.064.05A7.072 7.072 0 0115.234 7.5l.04.071c.184.328.32.667.441 1.023l.039.112c.105.322.166.648.223.982a224.316 224.316 0 01-1.133.198 2.277 2.277 0 01-.469.036l-.03-.142a5.535 5.535 0 00-1.337-2.592l-.088-.096c-.761-.797-1.81-1.292-2.887-1.483-.111-.023-.111-.023-.15-.062.008-.35.068-.7.12-1.045a368.374 368.374 0 00.075-.518z"/></g><defs><clipPath id="clip0_113_836"><path fill="#fff" d="M0 0h20v20H0z"/></clipPath></defs></svg>