<svg width="24" height="24" viewBox="0 0 24 24" fill="none" xmlns="http://www.w3.org/2000/svg"><g clip-path="url(#clip0_15_355)" fill="#000"><path d="M4.59 2.373c.065.036.128.074.191.111l.087.049c.395.241.707.583 1.031.908a541.05 541.05 0 00.62.62l.534.532a142.671 142.671 0 01.611.61c.526.52 1.042 1.045 1.072 1.828-.027.704-.455 1.163-.937 1.635l-.127.126-.333.329a195.098 195.098 0 00-.72.712l-.114.112-.1.099a.408.408 0 00-.137.298c.017.197.085.352.172.527l.05.105c.402.813.943 1.554 1.526 2.245l.12.146a23.81 23.81 0 001.558 1.679c.98.978 2.116 1.785 3.334 2.44l.128.07.123.065.108.058a.8.8 0 00.394.042c.109-.07.109-.07.201-.172l.112-.113.119-.124.124-.127.327-.336.458-.47.242-.25c.459-.47.948-.842 1.625-.872.869.032 1.446.727 2.02 1.3l.194.193.404.404.517.514a125.426 125.426 0 01.59.588c.999.988.999.988 1.007 1.726-.012.754-.456 1.246-.968 1.756l-.14.14-.293.293-.37.373a71.964 71.964 0 01-.427.427c-.381.387-.783.71-1.303.884l-.16.056c-.831.24-1.849.138-2.685-.05l-.105-.023c-2.784-.624-5.464-2.284-7.63-4.102l-.145-.12a21.962 21.962 0 01-.926-.821 16.369 16.369 0 00-.288-.263 6.007 6.007 0 01-.615-.618 6.956 6.956 0 00-.346-.357 9.933 9.933 0 01-.586-.633l-.123-.141c-.37-.423-.713-.863-1.048-1.312l-.07-.093C2.27 13.743 1.23 11.938.557 10.008a19.531 19.531 0 00-.11-.307 7.677 7.677 0 01-.459-2.556l-.003-.182c-.002-.534.057-1.057.302-1.537l.074-.15c.243-.412.639-.753.973-1.09l.124-.125a224.379 224.379 0 01.518-.522c.126-.129.253-.257.38-.384l.116-.118c.555-.553 1.323-1.002 2.119-.664zm7.881-2.374c2.686.197 5.382 1.645 7.31 3.47l.142.127c1.447 1.292 2.538 2.964 3.28 4.748l.044.103c.365.859.762 1.909.753 2.85a196.72 196.72 0 01-1.177.22l-.097.018a2.848 2.848 0 01-.601.043l-.026-.107c-.53-2.204-1.404-4.392-3.075-5.995-.087-.085-.087-.085-.183-.208a2.742 2.742 0 00-.364-.352 7.188 7.188 0 01-.194-.173c-.556-.512-1.18-.936-1.83-1.321l-.09-.055c-1.117-.671-2.346-1.075-3.613-1.351l-.107-.024c-.183-.04-.366-.079-.55-.117.221-1.874.221-1.874.378-1.876zm-.377 4.782c1.418.1 2.826.717 3.937 1.594l.077.06A8.487 8.487 0 0118.28 9l.049.085c.22.394.383.8.528 1.227.016.045.03.09.047.135.126.387.198.778.267 1.178l-.686.12-.233.041-.335.059-.105.018c-.19.033-.37.05-.563.043l-.036-.17c-.268-1.189-.783-2.213-1.605-3.111l-.104-.115c-.915-.956-2.174-1.55-3.465-1.78-.134-.027-.134-.027-.18-.074.009-.42.082-.84.143-1.254l.026-.182.065-.439z"/></g><defs><clipPath id="clip0_15_355"><path fill="#fff" d="M0 0h24v24H0z"/></clipPath></defs></svg>