<svg width="14" height="14" viewBox="0 0 14 14" fill="none" xmlns="http://www.w3.org/2000/svg"><g clip-path="url(#clip0_82_720)"><path d="M9.406 1.094c1.166.825 1.802 2.075 2.146 3.439.226 1.504-.02 2.874-.8 4.176-.192.33-.192.33-.252.697.204.266.204.266.492.52.34.322.67.64.971.998.398.467.833.894 1.272 1.322.537.528.537.528.574 1.036-.028.39-.028.39-.137.602-.366.194-.7.214-1.094.116-.377-.265-.679-.592-.99-.93l-.254-.262a36.189 36.189 0 01-1.32-1.46 15.878 15.878 0 00-.826-.848c-.259.1-.514.203-.764.323-1.48.703-3.042.73-4.596.224C2.436 10.465 1.233 9.385.626 7.99c-.63-1.689-.572-3.323.147-4.977C1.456 1.65 2.623.692 4.04.17c1.901-.524 3.757-.193 5.366.923zm-6.644 1.85c-.497.623-.931 1.392-1.012 2.197l-.02.201c-.058 1.028.263 2.098.93 2.886l.184.194.19.204c.806.78 1.751 1.159 2.872 1.177 1.23-.023 2.167-.473 3.042-1.326.832-.95 1.17-2.048 1.097-3.31C9.868 4.07 9.297 2.99 8.39 2.334c-1.894-1.196-4.061-1.108-5.628.61z" fill="#101010"/></g><defs><clipPath id="clip0_82_720"><path fill="#fff" d="M0 0h14v14H0z"/></clipPath></defs></svg>