<svg width="50" height="50" viewBox="0 0 50 50" fill="none" xmlns="http://www.w3.org/2000/svg"><path d="M25.488 1.563c.287.117.447.206.684.39 1.535 1.17 3.162 2.06 4.883 2.93l.215.11c3.348 1.682 6.983 2.797 10.589 3.771l.2.055c.361.098.723.192 1.086.281l.47.12.218.05c.535.14.918.37 1.284.789.275.517.225 1.104.225 1.676l.002.324v1.045l-.001.36c-.005 1.973-.09 3.914-.323 5.872l-.042.363c-1.009 8.746-4.302 18.36-11.406 24.028-.17.138-.34.278-.506.42-1.875 1.606-4.084 2.797-6.314 3.827l-.296.141c-.833.372-1.592.493-2.477.217a16.59 16.59 0 01-1.048-.468l-.375-.175c-4.04-1.898-7.546-4.683-10.251-8.236l-.132-.17C7.558 33.274 5.58 25.675 4.785 18.261l-.035-.328c-.17-1.637-.182-3.277-.19-4.921-.002-.107-.002-.213-.003-.323-.003-.307-.003-.614-.003-.92l-.002-.28c.005-.706.09-1.278.598-1.808a3.04 3.04 0 011.033-.43l.473-.122.27-.07c4.447-1.132 8.822-2.56 12.91-4.668l.366-.188c1.326-.673 2.604-1.443 3.745-2.401.445-.365.992-.289 1.541-.24zm-.996 3.895c-4.617 3.205-10.232 4.986-15.605 6.456l-.336.092-.738.201c-.155 8.604 1.578 17.584 8.545 26.984.208.223.407.45.604.683.337.388.712.714 1.105 1.044l.276.244a22.26 22.26 0 002.555 1.904l.173.114c.824.536 1.693.979 2.574 1.412l.323.162.306.147.274.134c.817.263 1.981-.54 2.698-.894 1.665-.868 3.19-1.978 4.59-3.223l.29-.255c6.483-5.79 9.106-14.795 9.866-23.182l.03-.309c.086-1.032.079-2.062.074-3.097l-.001-.546-.005-1.322-.32-.089c-5.73-1.594-11.499-3.408-16.48-6.752-.413-.271-.41-.179-.798.092z" fill="#000"/><path d="M25.586 14.063c.904.375 1.418 1.592 1.874 2.41l.165.294a88.39 88.39 0 011.672 3.155l.141.28c1.592 3.17 3.503 7.404 2.338 11.008-.79 1.951-2.106 3.456-4.072 4.29-1.723.69-3.807.696-5.524-.031a7.34 7.34 0 01-3.843-4.005 7.264 7.264 0 01-.417-2.54l.002-.318c.1-4.54 2.823-9.216 5.125-12.981l.175-.291a570.176 570.176 0 00.334-.548c.558-.752 1.147-.801 2.03-.723zm-.683 4.882c-1.333 2.344-2.492 4.755-3.32 7.325l-.075.227c-.4 1.252-.604 2.795-.055 4.035.558.994 1.36 1.763 2.458 2.118 1.111.233 2.207.133 3.181-.473.86-.62 1.506-1.438 1.717-2.49.152-1.3-.085-2.479-.489-3.71l-.077-.244c-.77-2.369-1.904-4.634-3.145-6.788h-.195z" fill="#000"/></svg>