<svg width="50" height="50" viewBox="0 0 50 50" fill="none" xmlns="http://www.w3.org/2000/svg"><path d="M25.488 3.125c.39.175.734.401 1.087.64l.623.406.319.21c3.57 2.355 7.083 4.012 11.351 4.53l.264.032a2798.146 2798.146 0 011.825.212l.23.025c.572.068 1.114.21 1.489.683.105.317.11.545.11.878l.002.37v.837a567.747 567.747 0 01.002 1.9c.001.853.002 1.706.001 2.56l.003 2.372a1072.388 1072.388 0 01.003 3.263c.005 2.078 0 4.147-.42 6.192l-.063.304c-.714 3.287-2.178 6.46-4.326 9.059l-.138.167c-.993 1.204-2.049 2.288-3.28 3.25l-.267.22c-.953.767-1.994 1.392-3.036 2.031-.495.305-.989.614-1.482.923l-.58.363-.292.182c-2.137 1.336-2.137 1.336-2.401 1.499a8.45 8.45 0 00-.449.304c-.424.302-.768.424-1.294.394-.512-.112-.915-.406-1.344-.697l-.623-.406c-.105-.07-.21-.14-.32-.211-.49-.322-.988-.63-1.486-.94l-.583-.364c-.4-.25-.801-.5-1.202-.748-2.033-1.26-3.897-2.563-5.637-4.21l-.201-.188c-.501-.484-.929-1.025-1.361-1.57l-.232-.282c-2.092-2.612-3.487-5.814-4.157-9.08l-.055-.27c-.38-2.035-.372-4.093-.371-6.154v-.978a1065.3 1065.3 0 01-.001-2.303l-.003-2.371a687.68 687.68 0 01-.002-2.047l-.001-1.218a108.3 108.3 0 010-1.14l-.001-.419v-.893c.05-.39.228-.63.45-.943.27-.193.565-.208.885-.246l.215-.028c.153-.02.306-.04.458-.058.24-.03.48-.062.72-.094l.964-.127c3.834-.505 7.036-1.664 10.298-3.728l.232-.146c.457-.29.911-.584 1.362-.883l.622-.405.292-.198c.596-.385 1.087-.643 1.801-.461zm-.928 2.549l-.215.137-.236.152-.51.324-.833.534c-4.005 2.568-7.852 3.874-12.57 4.414l-.284.033-.25.028c-.19.013-.19.013-.287.13-.01.156-.012.313-.012.47l-.001.307v4.422a1221.309 1221.309 0 010 3.687v1.016c-.022 2.834-.022 2.834.27 5.65l.05.307c.908 5.142 3.843 9.713 8.083 12.74.852.595 1.743 1.131 2.627 1.677a287.326 287.326 0 011.806 1.125 50.5 50.5 0 011.391.892l.257.169c.159.104.316.21.473.318l.212.14.183.123c.196.084.196.084.426-.006.252-.128.49-.264.729-.415l.279-.176.298-.19.635-.399.328-.207c.41-.259.822-.516 1.233-.772l.878-.549c.358-.224.717-.448 1.076-.67 2.262-1.407 4.296-3.044 5.905-5.183.106-.141.215-.281.323-.42 3.218-4.227 3.819-9.21 3.814-14.353v-2.742a1311.292 1311.292 0 010-3.695v-3.066c.01-.2.01-.2-.11-.298-.248-.038-.495-.07-.743-.1l-.472-.057-.25-.031c-4.555-.563-8.262-2.026-12.11-4.5l-1.031-.659-.242-.155-.223-.142-.196-.126c-.299-.163-.436-.056-.701.116z" fill="#000"/><path d="M31.445 17.969c.284.136.486.266.707.492l.17.172a569.831 569.831 0 01.351.359c.145.147.289.294.432.442a22.18 22.18 0 01-1.375 1.485l-.233.234a677.04 677.04 0 01-1.286 1.286 2298.347 2298.347 0 01-2.38 2.38 1585.5 1585.5 0 01-2.483 2.482l-.219.22-.2.199-.174.174c-.297.273-.583.278-.973.268-.752-.113-1.405-.967-1.92-1.478a2070.45 2070.45 0 01-2.044-2.027l-.24-.234-.218-.22-.193-.191c-.124-.184-.124-.184-.103-.393.146-.348.43-.584.693-.847l.172-.18.169-.17.153-.155c.16-.099.16-.099.344-.075.241.086.357.19.537.372l.19.19.2.205.21.21c.219.22.437.443.656.665l.446.45c.365.369.729.737 1.092 1.107.485-.407.942-.831 1.389-1.28l.202-.203a506.307 506.307 0 001.111-1.113l1.197-1.2 1.224-1.225 2.396-2.401z" fill="#000"/></svg>