<svg width="50" height="50" viewBox="0 0 50 50" fill="none" xmlns="http://www.w3.org/2000/svg"><g clip-path="url(#clip0_55_512)" fill="#000"><path d="M35.254 12.11c.32.483.334.905.342 1.464.129 3.824 1.276 7.628 4.102 10.338 2.337 2.011 5.274 3.175 8.33 3.48l.253.025.499.046.231.021.207.018c.227.043.39.11.587.233.204.307.23.504.259.866-.106.345-.343.53-.65.696-.306.074-.608.085-.922.098-3.4.236-7.045 1.552-9.361 4.159-.225.27-.441.543-.654.821l-.177.227c-1.552 2.104-2.33 4.674-2.531 7.258l-.018.225c-.03.376-.056.75-.077 1.127l-.03.419-.021.376c-.094.408-.239.561-.564.817-.406.073-.596.058-.943-.167-.398-.424-.32-1.062-.34-1.609l-.04-.745-.022-.366c-.048-.709-.166-1.4-.316-2.093l-.046-.22c-.534-2.435-1.616-4.479-3.274-6.323l-.172-.197c-2.145-2.312-5.828-3.595-8.912-3.728l-.2-.01a30.881 30.881 0 00-.552-.016c-.376-.062-.539-.18-.809-.444-.118-.237-.102-.365-.079-.628l.017-.232c.084-.288.2-.35.453-.507.25-.054.25-.054.532-.079l.316-.03.336-.031c3.708-.383 7.328-1.754 9.753-4.709 2.071-2.638 2.796-5.85 2.948-9.132l.019-.355.014-.318c.053-.322.149-.513.34-.775.42-.27.727-.198 1.172 0zm-.684 7.03l-.062.163c-1.42 3.673-3.7 6.548-7.344 8.212-.49.214-.983.416-1.48.61l-.303.121-.186.075c.237.236.43.29.745.402 1.656.625 3.326 1.485 4.612 2.717.189.181.384.342.588.506 1.655 1.451 2.745 3.595 3.43 5.652h.196l.097-.284c1.288-3.647 3.748-6.352 7.228-8.031.489-.23.984-.442 1.484-.647.285-.116.285-.116.566-.316l-.266-.1c-1.805-.697-3.534-1.558-5.008-2.83l-.283-.24c-1.814-1.573-3.1-3.726-3.818-6.01h-.196zM16.602 1.367c.305.24.415.408.488.782.016.144.028.29.038.435.168 2.184.68 4.227 2.365 5.752a7.87 7.87 0 004.054 1.672l.212.023c.136.014.273.026.41.037.453.043.708.152 1.026.479.113.386.14.589-.024.958-.197.247-.361.388-.676.452l-.245.027c-.09.01-.18.02-.273.032l-.29.033c-.804.101-1.55.224-2.3.549l-.296.128c-1.512.704-2.77 1.907-3.391 3.476-.427 1.181-.62 2.354-.665 3.61-.05.362-.172.63-.433.891-.706.058-.706.058-1.02-.183-.234-.319-.27-.53-.306-.922-.226-2.305-.664-4.34-2.452-5.97-1.238-.99-2.67-1.486-4.237-1.663l-.2-.023c-.186-.02-.371-.038-.557-.055-.357-.081-.485-.168-.701-.461-.093-.652-.093-.652.186-1.04.415-.315.771-.334 1.279-.382 1.958-.237 3.64-.908 4.98-2.387a7.56 7.56 0 00.684-1.074l.136-.251c.587-1.184.786-2.436.854-3.744.034-.507.08-.82.475-1.18.35-.117.524-.095.879 0zm-.586 5.47l-.104.203a9.725 9.725 0 01-1.166 1.75l-.228.287c-.71.85-1.703 1.418-2.702 1.86.234.263.475.4.788.556a8.165 8.165 0 011.556 1.105l.204.175c.748.692 1.232 1.594 1.75 2.462.23-.293.404-.593.58-.922.875-1.505 2.184-2.49 3.716-3.278a6.072 6.072 0 00-.928-.586c-.695-.401-1.241-.9-1.806-1.464l-.198-.195c-.541-.572-.895-1.266-1.267-1.954h-.195zm-6.544 22.46c.264.182.367.297.447.607.049.317.064.629.078.95.122 2.077.85 4.044 2.405 5.474 1.293.999 2.662 1.485 4.28 1.658.536.06 1.062.12 1.427.564.083.33.04.574-.043.903-.277.347-.478.444-.915.497l-.308.042-.327.041c-1.953.28-3.682.925-4.99 2.48-1.071 1.448-1.472 3.104-1.588 4.867-.035.478-.1.84-.368 1.253-.368.14-.536.117-.903-.025-.269-.17-.269-.17-.464-.463-.04-.248-.04-.248-.063-.544l-.029-.33-.03-.353c-.22-2.187-.856-4.067-2.612-5.512-1.294-.924-2.807-1.396-4.383-1.507-.398-.032-.672-.084-.989-.348-.152-.306-.165-.646-.097-.977.202-.268.331-.375.658-.46l.306-.034c2.17-.282 4.127-.915 5.579-2.63 1.088-1.433 1.425-3.007 1.543-4.774.072-.914.072-.914.345-1.209.4-.261.571-.237 1.041-.17zm-.586 5.566l-.1.201a9.932 9.932 0 01-1.267 1.85l-.182.242a4.877 4.877 0 01-.794.729l-.166.127c-.529.395-1.086.685-1.69.953.232.26.47.395.782.55 1.38.739 2.376 1.844 3.151 3.182.14.226.264.39.462.565l.118-.24c.918-1.788 2.27-3.089 4.081-3.96a8.512 8.512 0 00-.989-.646 8.545 8.545 0 01-1.648-1.306l-.206-.203c-.58-.608-.963-1.309-1.356-2.044h-.196z"/></g><defs><clipPath id="clip0_55_512"><path fill="#fff" d="M0 0h50v50H0z"/></clipPath></defs></svg>