<svg width="52" height="52" viewBox="0 0 52 52" fill="none" xmlns="http://www.w3.org/2000/svg">
<path fill-rule="evenodd" clip-rule="evenodd" d="M25.9997 45.9085L27.5622 44.148C29.3351 42.1175 30.9298 40.191 32.3487 38.3586L33.5199 36.8135C38.4104 30.2243 40.8569 24.9946 40.8569 21.1293C40.8569 12.8786 34.2058 6.19043 25.9997 6.19043C17.7936 6.19043 11.1426 12.8786 11.1426 21.1293C11.1426 24.9946 13.5891 30.2243 18.4795 36.8135L19.6508 38.3586C21.6749 40.9522 23.7926 43.4688 25.9997 45.9085Z" stroke="black" stroke-linecap="round" stroke-linejoin="round"/>
<path d="M25.9991 27.2379C29.418 27.2379 32.1895 24.4663 32.1895 21.0474C32.1895 17.6285 29.418 14.8569 25.9991 14.8569C22.5802 14.8569 19.8086 17.6285 19.8086 21.0474C19.8086 24.4663 22.5802 27.2379 25.9991 27.2379Z" stroke="black" stroke-linecap="round" stroke-linejoin="round"/>
</svg>
