<svg width="24" height="24" viewBox="0 0 24 24" fill="none" xmlns="http://www.w3.org/2000/svg"><g clip-path="url(#clip0_121_896)"><path d="M12.516 0H16.5c.03.325.062.65.094.984.25 1.268.802 2.293 1.687 3.235l.077.085C19.455 5.484 21.02 5.817 22.547 6v3.938c-1.39 0-2.707-.249-3.985-.797l-.114-.05a8.238 8.238 0 01-1.901-1.122v.141a2295.843 2295.843 0 01-.016 5.077 578.893 578.893 0 01-.007 2.207 157.346 157.346 0 01-.004.983c0 .764-.065 1.527-.287 2.262l-.036.122c-.345 1.126-.952 2.09-1.76 2.942l-.126.136c-.549.576-1.185 1-1.89 1.364l-.085.046c-1.746.906-3.87.98-5.728.407a7.399 7.399 0 01-.983-.406l-.09-.044c-.693-.34-1.278-.78-1.832-1.315l-.13-.121c-1.31-1.252-2.07-3.072-2.133-4.875-.039-1.944.548-3.826 1.89-5.265a3.85 3.85 0 00.212-.248c.15-.172.315-.315.49-.46l.105-.09a7.89 7.89 0 011.77-1.082l.086-.04c.354-.16.712-.274 1.088-.37l.11-.028a6.898 6.898 0 011.702-.181h.306c.315.002.612.017.926.056v4.032l-.984-.14c-.924.006-1.787.265-2.485.89l-.106.093c-.605.563-1 1.392-1.034 2.222-.018 1.11.268 1.985 1.05 2.802.749.715 1.674.963 2.68.944.83-.033 1.648-.42 2.238-.999.744-.81 1-1.733.998-2.814v-.21l.002-.576.001-.621.002-1.077.004-1.555a3034.625 3034.625 0 00.01-5.13l.002-.758.013-6.29z" fill="#000"/></g><defs><clipPath id="clip0_121_896"><path fill="#fff" d="M0 0h24v24H0z"/></clipPath></defs></svg>