<svg width="101" height="116" viewBox="0 0 101 116" fill="none" xmlns="http://www.w3.org/2000/svg">
<path d="M87.9146 80.3152C91.4451 86.4096 94.9259 92.4042 98.3569 98.3488C98.6056 98.7984 98.9039 99.2979 99.0034 99.7974C99.252 101.296 97.81 102.245 96.169 101.796C91.2959 100.497 86.4726 99.198 81.5995 97.8992C81.3508 97.8492 81.0525 97.7993 80.6049 97.6994C80.2569 98.9982 79.9088 100.247 79.5607 101.496C78.5165 105.342 77.522 109.189 76.5275 112.985C76.2291 114.034 75.8313 114.984 74.5882 115.133C73.3948 115.233 72.8478 114.434 72.3505 113.535C69.3173 108.19 66.2343 102.845 63.1513 97.5495C62.853 97.0499 62.2563 96.6503 61.7093 96.4505C60.1678 95.8011 58.6263 95.3515 57.0848 94.752C55.7422 94.2026 54.4494 93.5531 53.1565 93.0036C51.2172 92.1544 49.2282 92.1544 47.2889 93.0036C45.0015 94.0027 42.7639 95.3015 40.3771 95.901C38.2886 96.4505 37.1946 97.5994 36.2001 99.3978C33.6144 104.193 30.7801 108.889 28.0949 113.635C27.5976 114.534 27.0009 115.383 25.8075 115.183C24.6141 115.034 24.2163 114.084 23.9179 113.035C22.6251 107.99 21.2328 102.995 19.8405 97.8492C19.4924 97.8992 19.194 97.8992 18.8957 97.9991C14.0723 99.2979 9.24894 100.547 4.47529 101.896C3.48078 102.145 2.58572 102.245 1.88957 101.346C1.14369 100.447 1.44204 99.4977 1.98902 98.5985C5.2709 92.9537 8.50305 87.2589 11.7352 81.614C11.9341 81.2144 12.1827 80.8147 12.4314 80.3652C8.15498 78.0673 7.8069 74.2707 8.30415 70.0745C8.50305 68.526 8.65223 66.9274 8.85113 65.3788C9.14949 62.981 8.50305 60.8829 6.81239 59.1345C5.37035 57.6359 3.97804 56.0873 2.68517 54.5387C-0.895058 50.1927 -0.895058 46.496 2.68517 42.15C3.97804 40.6014 5.32063 39.1028 6.76266 37.6541C8.6025 35.7558 9.14948 33.5079 8.80141 30.9103C8.50305 28.5624 8.2047 26.2145 8.15497 23.8667C8.05552 19.6705 9.99482 16.973 14.0226 15.7241C16.4591 14.9748 18.9951 14.5252 21.4814 13.9757C23.7688 13.5261 25.4097 12.2773 26.5534 10.2291C27.7965 7.98117 29.0397 5.73322 30.4817 3.63513C32.5702 0.587911 35.504 -0.660954 39.1837 0.338135C40.3273 0.637862 41.4213 1.13741 42.565 1.587C44.0567 2.18645 45.4988 2.88581 46.9408 3.53522C49.079 4.53431 51.2172 4.53431 53.4051 3.58517C54.6483 3.03568 55.8914 2.48618 57.1345 1.93668C57.781 1.63695 58.4274 1.33722 59.0738 1.08745C64.3447 -1.01063 67.7261 0.0384085 70.7593 4.83404C71.903 6.6324 72.8975 8.48071 73.892 10.329C74.986 12.3272 76.6269 13.5261 78.9143 14.0257C81.3508 14.5252 83.8371 15.0247 86.2239 15.7241C90.4506 17.0229 92.2904 19.5706 92.2407 24.0165C92.191 26.5642 91.8429 29.1119 91.5943 31.7095C91.3456 33.9075 91.8926 35.8058 93.3844 37.4043C94.8762 39.0528 96.4176 40.6514 97.81 42.3998C101.191 46.6459 101.191 50.2426 97.81 54.5387C96.8652 55.7376 95.8707 56.9365 94.727 57.9356C91.7434 60.5832 90.9479 63.7803 91.6937 67.5768C91.9921 69.0755 92.0418 70.624 92.1413 72.1227C92.3899 75.5196 91.3457 78.4669 87.9146 80.3152ZM88.213 25.1155C88.3621 21.1691 87.5665 20.0701 84.2349 19.171C82.8426 18.7713 81.4503 18.4716 80.0083 18.2718C75.0854 17.6224 71.5549 15.1247 69.4167 10.5788C68.6708 8.98026 67.7261 7.43167 66.6818 5.98299C65.1901 3.83495 63.8972 3.43531 61.4607 4.33449C59.5711 5.03385 57.7313 5.83313 55.9411 6.73231C52.0625 8.63058 48.184 8.63058 44.3054 6.68235C42.6644 5.83313 40.9738 5.08381 39.2334 4.4344C36.399 3.3354 35.0067 3.78499 33.3161 6.28272C32.2221 7.88126 31.2773 9.57971 30.3822 11.3281C28.443 15.1247 25.36 17.3227 21.1333 18.022C19.194 18.3217 17.2547 18.7214 15.3652 19.2709C12.7794 20.0202 11.9341 21.1691 11.9838 23.8667C12.0336 25.5651 12.133 27.2636 12.4314 28.9121C13.227 33.7077 12.1827 37.8539 8.55278 41.2508C7.35937 42.3498 6.31513 43.5987 5.32062 44.8476C3.28188 47.4452 3.28188 49.0437 5.32062 51.5914C6.66321 53.2399 8.10525 54.7385 9.49756 56.2871C11.8844 58.8848 12.9286 61.882 12.5308 65.3788C12.2822 67.8266 11.9838 70.2244 11.9341 72.6722C11.8844 75.2199 12.6303 76.2689 15.1165 77.0182C16.9067 77.5677 18.7962 78.0173 20.6361 78.2671C25.1611 78.9664 28.4927 81.2643 30.5314 85.4106C30.9292 86.2098 31.327 86.9592 31.7746 87.7085C32.4707 88.8075 33.1171 89.9065 33.863 90.9056C34.957 92.4042 36.4985 92.9037 38.2389 92.2044C40.1782 91.505 42.1175 90.7557 43.9076 89.8065C47.9851 87.7085 52.0128 87.7085 56.0903 89.7566C57.7313 90.6058 59.4219 91.3551 61.1623 92.0046C63.748 92.9537 65.1403 92.5041 66.6818 90.2561C67.7261 88.7076 68.6708 87.109 69.5162 85.4605C71.6046 81.1644 75.0357 78.8665 79.7099 78.2171C81.6492 77.9174 83.5885 77.4179 85.4781 76.8184C87.2682 76.2689 88.2129 74.9701 88.1135 73.0718C88.0638 71.1236 87.9643 69.1754 87.666 67.2771C86.9698 62.6813 87.8649 58.6849 91.2959 55.338C92.5888 54.0891 93.7822 52.6904 94.9259 51.2917C96.7657 48.9438 96.716 47.3952 94.9756 44.9974C94.4783 44.2981 93.8816 43.6486 93.2849 42.9992C92.191 41.7504 91.0473 40.5515 90.0031 39.3026C88.014 37.0047 87.2184 34.2572 87.4671 31.2599C87.8151 29.1619 88.0638 26.9139 88.213 25.1155ZM33.0674 96.6004C32.0729 95.2516 31.2773 94.2525 30.4817 93.1535C29.7358 92.0545 29.0397 90.9555 28.3435 89.8065C27.6474 88.6576 27.0009 87.4587 26.3545 86.2598C25.2605 84.2616 23.5699 83.0627 21.3322 82.6131C19.9399 82.3633 18.5973 82.1136 17.2547 81.7139C16.4094 81.4642 16.0116 81.7139 15.6138 82.4633C13.1275 86.9092 10.5915 91.2552 8.05552 95.7012C7.85662 96.0009 7.75717 96.3006 7.50854 96.8002C8.0058 96.7003 8.30415 96.6004 8.60251 96.5504C12.4314 95.5513 16.2105 94.5023 20.0394 93.5032C21.9289 93.0036 22.6748 93.4532 23.1721 95.4015C23.4207 96.3506 23.6693 97.2997 23.9179 98.2988C24.7633 101.446 25.6086 104.643 26.5534 108.09C28.9402 103.844 31.1779 99.8973 33.0674 96.6004ZM92.8374 96.9001C89.9036 91.8047 87.1687 86.9592 84.3841 82.2135C84.2349 81.9637 83.6879 81.7639 83.3398 81.8138C82.1962 81.9637 81.1022 82.2634 79.9585 82.4133C76.9253 82.8629 74.6876 84.4115 73.345 87.2089C72.8975 88.1081 72.4002 88.9573 71.903 89.8065C70.6101 92.2044 69.1681 94.4523 66.7316 95.901C69.0189 99.8974 71.3063 103.844 73.6931 108.04C74.8865 103.594 75.9805 99.5477 77.0744 95.4514C77.6214 93.4033 78.3176 93.0036 80.406 93.5531C80.9033 93.703 81.4503 93.8529 81.9475 94.0027C85.4283 94.9019 88.9588 95.901 92.8374 96.9001Z" fill="#216BDC"/>
<path d="M50.0739 79.2161C33.0678 79.1662 19.2441 65.2788 19.2441 48.2443C19.2441 31.1599 33.1673 17.2226 50.2231 17.2726C67.1795 17.3225 81.0529 31.3098 81.0032 48.3443C80.9037 65.3787 67.0303 79.2661 50.0739 79.2161ZM50.0739 75.2197C64.9418 75.2197 77.0251 63.1308 77.0251 48.2443C77.0251 33.4079 64.9916 21.2689 50.2231 21.219C35.3552 21.169 23.2719 33.258 23.2222 48.1444C23.1227 63.0309 35.206 75.1698 50.0739 75.2197Z" fill="#216BDC"/>
<path d="M46.0466 56.4368C46.3449 55.9372 46.5438 55.4877 46.8422 55.1879C52.9584 49.0435 59.0746 42.8991 65.1909 36.7547C65.4892 36.455 65.8373 36.0554 66.1854 35.8556C67.0804 35.3061 67.9258 35.406 68.6717 36.1553C69.3181 36.8546 69.4175 37.7039 68.8706 38.5531C68.6219 38.9527 68.2739 39.2525 67.9755 39.5522C61.3123 46.296 54.5994 53.0399 47.8864 59.7837C46.2455 61.4822 45.4499 61.4322 43.7592 59.7837C39.9304 55.9372 36.0518 52.0408 32.2229 48.1943C32.024 47.9945 31.8251 47.7947 31.6262 47.5949C30.8306 46.6957 30.7809 45.5967 31.5268 44.7974C32.3224 43.9482 33.4661 43.8982 34.4108 44.7475C36.2009 46.4459 37.9413 48.2443 39.6817 49.9927C41.6708 52.0408 43.7095 54.0889 46.0466 56.4368Z" fill="#216BDC"/>
</svg>
