<svg width="81" height="76" viewBox="0 0 81 76" fill="none" xmlns="http://www.w3.org/2000/svg">
<path d="M38.5776 23.6066V22.5549C38.5776 15.7615 38.5776 8.96452 38.5776 2.17109C38.5776 1.86198 38.5421 1.54576 38.6025 1.2473C38.766 0.45497 39.2669 -0.01048 40.0877 0.000179188C40.8658 0.0108383 41.3455 0.472734 41.5089 1.21532C41.5729 1.51022 41.5409 1.83 41.5409 2.13912C41.5409 8.93254 41.5409 15.7295 41.5409 22.523V23.6031C42.7738 22.6331 43.8966 21.7484 45.0193 20.8637C45.2858 20.654 45.5416 20.4267 45.8223 20.2383C46.5578 19.7409 47.3821 19.8475 47.8902 20.4871C48.4054 21.1373 48.3485 21.9545 47.645 22.5407C46.27 23.6884 44.8559 24.7862 43.456 25.8983C42.7063 26.4953 41.9601 27.0886 41.1998 27.6713C40.3257 28.3428 39.7963 28.3535 38.9543 27.6926C36.8686 26.0511 34.7865 24.4025 32.7151 22.7468C31.834 22.0433 31.6634 21.2332 32.207 20.5119C32.7649 19.7729 33.6673 19.7303 34.5663 20.4302C35.8702 21.4464 37.16 22.4768 38.5812 23.6031L38.5776 23.6066Z" fill="#216BDC"/>
<path d="M41.544 52.3865C41.544 59.6667 41.544 66.7373 41.544 73.8078C41.544 74.117 41.5759 74.4332 41.5191 74.7316C41.3663 75.5275 40.8689 76.0036 40.0517 76.0001C39.2345 75.993 38.7406 75.5133 38.5985 74.7139C38.5452 74.4154 38.5772 74.0992 38.5772 73.7901C38.5772 66.7195 38.5772 59.6525 38.5772 52.4078C37.426 53.3103 36.3778 54.1346 35.3297 54.9589C35.0135 55.2076 34.7079 55.467 34.381 55.7015C33.6029 56.2558 32.7644 56.1812 32.2385 55.5274C31.702 54.863 31.7908 54.0209 32.5334 53.4098C33.7237 52.4291 34.9459 51.484 36.154 50.5283C37.0742 49.7999 37.9874 49.068 38.9147 48.3467C39.7852 47.6681 40.3182 47.6432 41.1567 48.3005C43.2459 49.9385 45.328 51.5871 47.3958 53.2463C48.3161 53.9818 48.4688 54.831 47.8648 55.5523C47.2928 56.2345 46.4365 56.2593 45.566 55.5807C44.262 54.5645 42.9723 53.527 41.5404 52.3936L41.544 52.3865Z" fill="#216BDC"/>
<path d="M76.5877 30.7773C64.415 30.7773 52.2458 30.7773 40.073 30.7773C27.9003 30.7773 15.5464 30.7773 3.28124 30.7773C1.19915 30.7773 0.0124357 31.9676 0.00532957 34.0497C-0.00177652 36.583 -0.00177652 39.1163 0.00532957 41.6497C0.0124357 43.65 1.23113 44.8652 3.24926 44.8652C27.7759 44.8652 52.3026 44.8652 76.8329 44.8652C78.9114 44.8652 80.1052 43.6678 80.1088 41.5893C80.1159 39.1483 80.1088 36.7074 80.1088 34.27C80.1088 31.8966 78.9789 30.7773 76.5842 30.7773H76.5877ZM77.1669 41.0634C77.1846 41.7563 77.007 41.9197 76.3141 41.9162C64.2302 41.8913 52.1463 41.8984 40.0659 41.8984C27.9856 41.8984 15.9621 41.8913 3.91013 41.9162C3.14622 41.9162 2.93659 41.7492 2.95791 40.971C3.01831 38.8108 3.00055 36.6434 2.96502 34.4832C2.95436 33.8792 3.1178 33.7228 3.72182 33.7264C8.76004 33.7512 13.7947 33.7406 18.8329 33.7406C37.9306 33.7406 57.0282 33.7477 76.1294 33.7193C76.9608 33.7193 77.2024 33.9076 77.174 34.7568C77.1065 36.8566 77.1207 38.96 77.1704 41.0599L77.1669 41.0634Z" fill="#216BDC"/>
<path d="M11.8647 35.9576C11.8185 35.0836 11.2038 34.4938 10.3973 34.4902C9.59076 34.4902 8.94767 35.0765 8.92279 35.947C8.88726 37.1763 8.89082 38.4092 8.92279 39.6386C8.94411 40.5588 9.59787 41.1771 10.4364 41.1558C11.2394 41.1344 11.8327 40.5304 11.8718 39.6528C11.9002 39.0381 11.8789 38.4235 11.8754 37.8052C11.8754 37.1905 11.9002 36.5723 11.8683 35.9576H11.8647Z" fill="#216BDC"/>
<path d="M22.2301 34.4905C21.388 34.5082 20.8124 35.1229 20.7804 36.0716C20.7627 36.6543 20.7769 37.2405 20.7769 37.8268C20.7769 38.3811 20.7769 38.9353 20.7769 39.4896C20.7769 39.5216 20.7769 39.55 20.7769 39.582C20.8231 40.5235 21.3986 41.1453 22.2407 41.156C23.0792 41.1667 23.7117 40.5484 23.7366 39.6175C23.765 38.4166 23.765 37.2157 23.7366 36.0183C23.7152 35.0909 23.0757 34.4763 22.2336 34.4905H22.2301Z" fill="#216BDC"/>
<path d="M35.6001 35.947C35.5503 35.0765 34.9285 34.4867 34.122 34.4903C33.3119 34.4903 32.683 35.0836 32.6581 35.9577C32.6226 37.187 32.6262 38.4199 32.6581 39.6493C32.6795 40.5304 33.287 41.1309 34.09 41.1558C34.9285 41.1806 35.5645 40.5624 35.6072 39.6422C35.6356 39.0275 35.6107 38.4128 35.6107 37.7946C35.6107 37.1799 35.6392 36.5617 35.6036 35.947H35.6001Z" fill="#216BDC"/>
<path d="M45.9644 34.4905C45.1224 34.5082 44.5468 35.1229 44.5148 36.0716C44.497 36.6543 44.5112 37.2405 44.5112 37.8268C44.5112 38.3811 44.5112 38.9353 44.5112 39.4896C44.5112 39.5216 44.5112 39.55 44.5112 39.582C44.5574 40.5235 45.133 41.1453 45.9751 41.156C46.8136 41.1667 47.4461 40.5484 47.4709 39.6175C47.4994 38.4166 47.4994 37.2157 47.4709 36.0183C47.4496 35.0909 46.8101 34.4763 45.968 34.4905H45.9644Z" fill="#216BDC"/>
<path d="M59.3313 35.9044C59.2745 35.0481 58.6172 34.4618 57.8142 34.4902C57.0432 34.5151 56.4214 35.0872 56.3965 35.9079C56.3574 37.1692 56.3574 38.4306 56.3965 39.6919C56.4214 40.5624 57.0609 41.1558 57.8675 41.1558C58.674 41.1558 59.2922 40.5624 59.3384 39.6884C59.3704 39.0737 59.3455 38.459 59.3455 37.8408C59.3455 37.1941 59.3775 36.5475 59.3349 35.9044H59.3313Z" fill="#216BDC"/>
<path d="M71.2083 36.0677C71.1763 35.119 70.5936 34.5043 69.7551 34.4866C68.913 34.4724 68.277 35.0906 68.2557 36.0144C68.2273 37.2153 68.2273 38.4162 68.2557 39.6136C68.277 40.541 68.913 41.1627 69.7515 41.1485C70.5901 41.1379 71.1763 40.5161 71.2083 39.571C71.2296 38.9883 71.2118 38.402 71.2118 37.8158C71.2118 37.2295 71.2296 36.6468 71.2083 36.0606V36.0677Z" fill="#216BDC"/>
</svg>
