<svg width="77" height="77" viewBox="0 0 77 77" fill="none" xmlns="http://www.w3.org/2000/svg">
<g clip-path="url(#clip0_1540_639)">
<path d="M22.2243 25.5068C22.4924 25.5065 22.7606 25.5061 23.0288 25.5055C23.5868 25.5048 24.1448 25.5058 24.7028 25.5079C25.4167 25.5105 26.1305 25.509 26.8443 25.5063C27.3964 25.5047 27.9484 25.5052 28.5005 25.5064C28.7638 25.5067 29.0271 25.5063 29.2904 25.5052C29.6577 25.5041 30.025 25.5058 30.3923 25.5084C30.4999 25.5074 30.6075 25.5065 30.7184 25.5056C31.4152 25.5144 31.8951 25.6453 32.4843 26.0179C32.8177 26.518 32.9011 26.7755 32.9355 27.3714C32.7122 28.0647 32.5238 28.5153 31.8828 28.8753C31.5013 28.9194 31.1566 28.9381 30.7753 28.9356C30.6094 28.9372 30.6094 28.9372 30.4401 28.9388C30.0746 28.9418 29.7092 28.9417 29.3438 28.9417C29.0886 28.9435 28.8334 28.9455 28.5783 28.9477C27.9059 28.9532 27.2335 28.9562 26.561 28.9585C25.4881 28.9622 24.4152 28.9682 23.3422 28.9768C22.9692 28.9793 22.5962 28.9798 22.2232 28.9803C20.3945 28.9886 18.6394 29.03 17.1915 30.2758C16.4679 31.1168 15.9728 31.9211 15.5595 32.9412C14.3863 35.8216 13.2067 38.6992 12.0183 41.5734C11.887 41.8909 11.7558 42.2085 11.6246 42.5261C11.309 43.2896 10.9934 44.0532 10.6777 44.8167C10.9404 44.8161 10.9404 44.8161 11.2083 44.8155C15.3652 44.8057 19.522 44.7983 23.6788 44.7937C24.1905 44.7931 24.7021 44.7926 25.2137 44.792C25.3156 44.7918 25.4175 44.7917 25.5224 44.7916C27.1717 44.7896 28.8209 44.7861 30.4701 44.7819C32.1624 44.7777 33.8547 44.7752 35.547 44.7743C36.4976 44.7737 37.4481 44.7723 38.3986 44.769C39.293 44.766 40.1875 44.765 41.0819 44.7657C41.4104 44.7656 41.7388 44.7647 42.0673 44.763C42.5155 44.7607 42.9636 44.7612 43.4118 44.7625C43.542 44.7612 43.6722 44.7599 43.8064 44.7585C44.5525 44.7641 45.078 44.8426 45.7187 45.2679C46.0335 45.806 46.173 46.1661 46.1605 46.7906C45.9969 47.2924 45.7785 47.5925 45.4179 47.9749C44.917 48.2254 44.3547 48.1473 43.8038 48.1471C43.6661 48.1476 43.5285 48.1482 43.3866 48.1487C42.9224 48.1503 42.4582 48.1509 41.994 48.1514C41.6623 48.1524 41.3306 48.1534 40.9988 48.1545C40.2828 48.1567 39.5667 48.1585 38.8506 48.1599C37.7174 48.1622 36.5841 48.1658 35.4508 48.1697C33.8607 48.1749 32.2706 48.1799 30.6805 48.1844C30.5795 48.1847 30.4786 48.185 30.3745 48.1853C28.9449 48.1893 27.5153 48.1929 26.0856 48.1963C25.9852 48.1966 25.8847 48.1968 25.7812 48.197C25.6307 48.1974 25.6307 48.1974 25.4771 48.1978C23.7996 48.2018 22.1221 48.207 20.4445 48.2131C19.3192 48.2171 18.1939 48.2198 17.0685 48.2215C16.366 48.2229 15.6634 48.2255 14.9609 48.2285C14.6365 48.2296 14.3121 48.2302 13.9877 48.2303C10.9446 48.2314 8.08177 48.3581 5.70188 50.5151C3.82055 52.4613 3.40266 54.7135 3.40321 57.3117C3.40255 57.6645 3.39707 58.017 3.39138 58.3698C3.37841 60.0836 3.59308 61.4571 4.80188 62.7496C5.72498 63.5334 6.80266 63.9346 8.0004 63.9365C8.19682 63.9372 8.39324 63.9379 8.59562 63.9386C8.8149 63.9386 9.03419 63.9385 9.25348 63.9385C9.48542 63.939 9.71737 63.9395 9.94931 63.9402C10.5884 63.9417 11.2275 63.9422 11.8666 63.9426C12.5552 63.9432 13.2438 63.9446 13.9324 63.946C15.5964 63.9489 17.2604 63.9505 18.9244 63.9518C19.7079 63.9524 20.4913 63.9533 21.2747 63.954C23.8788 63.9566 26.4829 63.9588 29.087 63.9599C29.763 63.9602 30.439 63.9604 31.1149 63.9607C31.2829 63.9608 31.4509 63.9609 31.624 63.961C34.3455 63.9622 37.067 63.966 39.7885 63.9709C42.582 63.9759 45.3756 63.9786 48.1691 63.9791C49.7378 63.9794 51.3065 63.9807 52.8752 63.9846C54.2112 63.9878 55.5472 63.989 56.8833 63.9876C57.5648 63.9869 58.2463 63.9872 58.9279 63.9901C59.5524 63.9927 60.1768 63.9926 60.8012 63.9902C61.0266 63.9899 61.252 63.9905 61.4774 63.9923C63.2393 64.0054 64.6058 63.7725 65.9181 62.5317C67.448 60.9062 67.2855 58.707 67.2386 56.6225C67.1504 54.2572 66.5356 52.4986 65.0163 50.6796C64.6691 50.1563 64.7109 49.6306 64.8183 49.0277C65.0124 48.5757 65.1663 48.4551 65.5703 48.1253C66.185 47.9286 66.7089 47.8982 67.3186 48.1159C69.3422 49.8733 70.3746 52.4208 70.6836 55.0433C70.7059 55.576 70.7072 56.1082 70.7078 56.6413C70.7085 56.7987 70.7093 56.9561 70.7101 57.1183C70.7122 57.6368 70.7133 58.1553 70.7141 58.6738C70.715 59.0359 70.7158 59.3979 70.7167 59.76C70.7183 60.5185 70.7192 61.277 70.7197 62.0355C70.7205 63.0045 70.7241 63.9735 70.7284 64.9426C70.7312 65.6904 70.732 66.4382 70.7322 67.186C70.7327 67.5431 70.7339 67.9002 70.7359 68.2573C70.7384 68.7582 70.7381 69.2591 70.7372 69.76C70.7385 69.9057 70.7399 70.0514 70.7414 70.2015C70.7299 72.0906 70.1348 73.8292 68.8571 75.2415C67.5105 76.4719 65.9698 77.0895 64.1604 77.0661C63.9733 77.0644 63.9733 77.0644 63.7824 77.0627C62.2101 77.0206 61.0341 76.5322 59.8554 75.4964C59.7643 75.421 59.6732 75.3456 59.5793 75.2679C58.6313 74.4171 58.0566 73.2641 57.75 72.0374C57.75 70.4989 57.75 68.9605 57.75 67.3753C42.9605 67.3753 28.1711 67.3753 12.9336 67.3753C12.9336 68.7153 12.9336 70.0553 12.9336 71.4359C12.3116 73.7163 11.6008 75.0549 9.63612 76.3118C8.57448 76.8568 7.60097 77.0815 6.41036 77.0661C6.22329 77.0644 6.22329 77.0644 6.03244 77.0627C4.4601 77.0206 3.28415 76.5322 2.10543 75.4964C2.01431 75.421 1.9232 75.3456 1.82932 75.2679C0.850038 74.3891 0.0579191 73.0277 -0.0202268 71.6926C-0.0208694 71.5652 -0.0215129 71.4378 -0.022175 71.3066C-0.0232511 71.1597 -0.0243272 71.0128 -0.0254359 70.8615C-0.0258403 70.7012 -0.0262447 70.541 -0.0266613 70.3759C-0.0276496 70.2064 -0.0286378 70.0368 -0.029656 69.8621C-0.0326236 69.3001 -0.0343782 68.7381 -0.0358771 68.176C-0.0364901 67.9836 -0.0371021 67.7912 -0.0377336 67.593C-0.0405483 66.6784 -0.0427379 65.7639 -0.0439915 64.8494C-0.0454556 63.7989 -0.0494003 62.7485 -0.0554975 61.6981C-0.0606157 60.7845 -0.0623641 59.8709 -0.0629716 58.9572C-0.0637004 58.5708 -0.0654403 58.1844 -0.0682427 57.798C-0.0947025 53.9058 -0.0947016 53.9058 0.601521 52.0355C0.642885 51.9236 0.684249 51.8117 0.726866 51.6964C1.62989 49.4906 3.32495 47.5055 5.46278 46.4493C6.81128 45.6802 7.16888 44.4044 7.67928 43.012C7.78401 42.7415 7.88947 42.4713 7.99559 42.2013C8.22177 41.6247 8.44507 41.0471 8.66681 40.4688C9.22138 39.033 9.82043 37.6154 10.4157 36.196C10.6067 35.7399 10.7965 35.2834 10.9859 34.8266C11.5414 33.4885 12.1026 32.153 12.6851 30.8263C12.7321 30.7179 12.7791 30.6096 12.8276 30.4979C13.7618 28.3916 15.297 26.8724 17.4453 26.0179C19.0326 25.5129 20.5789 25.5002 22.2243 25.5068ZM66.5666 66.2944C64.8304 67.3283 63.0276 67.3194 61.0586 67.3753C61.041 68.0019 61.0303 68.6285 61.021 69.2552C61.0159 69.4316 61.0109 69.608 61.0057 69.7898C60.992 71.0113 61.115 71.8569 61.9227 72.7929C62.761 73.4628 63.3888 73.757 64.4764 73.7299C65.3189 73.6358 66.0315 73.2305 66.623 72.639C67.2786 71.6081 67.3947 70.6381 67.3896 69.4256C67.3893 69.2723 67.3893 69.2723 67.389 69.1159C67.3882 68.7926 67.3863 68.4694 67.3844 68.1461C67.3836 67.9256 67.3829 67.7051 67.3823 67.4846C67.3807 66.9469 67.3781 66.4092 67.375 65.8714C67.0812 65.8714 66.8033 66.141 66.5666 66.2944ZM3.30855 66.0218C3.29359 66.7494 3.28272 67.4769 3.27551 68.2046C3.2725 68.4517 3.2684 68.6988 3.26317 68.9458C3.2558 69.3028 3.25244 69.6596 3.24981 70.0166C3.2467 70.1255 3.2436 70.2344 3.2404 70.3466C3.23998 71.3009 3.54776 72.0687 4.17271 72.7929C5.01097 73.4628 5.6388 73.757 6.72641 73.7299C7.56889 73.6358 8.28154 73.2305 8.873 72.639C9.63334 71.4435 9.64652 70.2784 9.63436 68.898C9.63368 68.7515 9.633 68.6049 9.6323 68.4539C9.63054 68.0944 9.62807 67.7349 9.62496 67.3753C9.53716 67.3731 9.44937 67.3709 9.35891 67.3687C8.95247 67.3573 8.54619 67.3428 8.13985 67.3283C8.00182 67.3249 7.86379 67.3216 7.72158 67.3181C6.09061 67.2549 4.76826 66.7239 3.30855 66.0218Z" fill="#216BDC"/>
<path d="M60.1094 0.485381C60.2608 0.536426 60.4122 0.587471 60.5682 0.640063C61.0613 0.806847 61.5531 0.976815 62.0451 1.14686C62.3888 1.26387 62.7327 1.38068 63.0766 1.49729C63.9447 1.79217 64.8119 2.08963 65.6789 2.38775C66.4221 2.64281 67.1662 2.89534 67.9103 3.14776C69.0511 3.53499 70.1908 3.92546 71.3299 4.31776C71.9749 4.53943 72.6211 4.75742 73.2689 4.97074C73.5515 5.06384 73.8337 5.15793 74.1159 5.25206C74.4452 5.36175 74.7751 5.46981 75.1056 5.57575C75.3184 5.64729 75.3184 5.64729 75.5356 5.72027C75.6562 5.75963 75.7768 5.799 75.9011 5.83956C76.3971 6.0918 76.6543 6.32389 76.9995 6.76771C77.1111 7.29055 77.1007 7.8048 77.0944 8.33775C77.0961 8.57489 77.0961 8.57489 77.0977 8.81683C77.1002 9.34031 77.0973 9.8636 77.0941 10.3871C77.0942 10.7531 77.0946 11.1191 77.0952 11.485C77.0956 12.2539 77.0934 13.0226 77.0893 13.7914C77.0842 14.7688 77.0851 15.746 77.0879 16.7234C77.0895 17.4807 77.0881 18.2379 77.0859 18.9952C77.0851 19.355 77.0852 19.7147 77.0861 20.0745C77.0953 25.6505 75.4639 30.8095 71.7359 35.0412C71.6347 35.1588 71.5335 35.2765 71.4292 35.3977C67.9666 39.3466 63.7831 42.3149 59.103 44.6662C58.9825 44.7268 58.8619 44.7875 58.7376 44.85C57.8382 45.122 57.1377 45.0326 56.3089 44.608C56.2136 44.5558 56.1183 44.5037 56.02 44.45C55.9173 44.3961 55.8146 44.3422 55.7088 44.2867C55.3848 44.1152 55.0632 43.94 54.7417 43.7638C54.6375 43.7076 54.5333 43.6513 54.426 43.5934C48.0884 40.1662 41.5866 34.655 39.4019 27.5216C38.8555 25.6116 38.479 23.8106 38.4705 21.8211C38.4693 21.6593 38.4681 21.4976 38.4668 21.3309C38.4631 20.7983 38.4606 20.2657 38.4584 19.733C38.4576 19.5508 38.4568 19.3685 38.456 19.1807C38.452 18.2174 38.449 17.2541 38.4469 16.2908C38.4449 15.4934 38.4407 14.6961 38.4345 13.8988C38.4271 12.9351 38.4234 11.9715 38.4223 11.0078C38.4213 10.6407 38.419 10.2737 38.4154 9.90658C38.4107 9.39392 38.4107 8.88145 38.4118 8.36877C38.4093 8.21703 38.4068 8.0653 38.4043 7.90896C38.4106 7.2069 38.416 6.87744 38.8518 6.30521C39.3141 5.97042 39.7239 5.79759 40.2666 5.61922C40.371 5.58415 40.4753 5.54908 40.5828 5.51294C40.9404 5.39328 41.299 5.27686 41.6577 5.16041C41.9179 5.07435 42.1779 4.98806 42.4379 4.90156C42.8847 4.75293 43.3316 4.6045 43.7787 4.45682C45.1762 3.99421 46.5682 3.51648 47.9599 3.03689C48.744 2.76701 49.5286 2.49855 50.3131 2.2301C50.9711 2.00487 51.6287 1.77892 52.2859 1.55132C52.9156 1.33329 53.5461 1.11754 54.1771 0.903362C54.4123 0.823112 54.6472 0.742065 54.8818 0.660162C56.812 -0.0129303 58.1498 -0.201698 60.1094 0.485381ZM56.2921 3.7642C56.1956 3.79674 56.099 3.82929 55.9995 3.86282C55.6805 3.97075 55.3621 4.08062 55.0437 4.19051C54.8171 4.26759 54.5906 4.34455 54.3639 4.42139C53.7646 4.625 53.1658 4.83026 52.5671 5.03586C51.9768 5.23827 51.3859 5.43911 50.7951 5.64008C49.4029 6.11407 48.0116 6.59089 46.6206 7.0685C46.503 7.10886 46.3855 7.14923 46.2643 7.19082C44.7787 7.70087 43.2933 8.21151 41.8081 8.72279C41.7941 10.4944 41.7834 12.266 41.777 14.0377C41.7738 14.8607 41.7696 15.6836 41.7627 16.5066C41.7561 17.3033 41.7526 18.0999 41.751 18.8966C41.7499 19.1981 41.7478 19.4995 41.7445 19.8009C41.6829 25.6909 43.8975 30.3224 47.9239 34.5303C48.095 34.7094 48.2639 34.8907 48.4324 35.0723C49.3398 36.0243 50.3854 36.8083 51.4331 37.5978C51.5165 37.661 51.5998 37.7242 51.6857 37.7894C53.2283 38.9514 54.8718 39.9469 56.5464 40.9064C56.7061 41.0012 56.8659 41.096 57.0305 41.1937C57.5654 41.4033 57.8019 41.3748 58.3511 41.2072C58.7855 41.012 59.1973 40.7853 59.6106 40.5492C59.729 40.4823 59.8474 40.4154 59.9694 40.3465C65.1341 37.3804 69.8859 33.1861 72.3374 27.672C72.4097 27.5138 72.482 27.3556 72.5565 27.1926C73.6202 24.6733 73.7791 22.0539 73.7497 19.3559C73.7486 19.0466 73.7477 18.7373 73.7471 18.428C73.7448 17.625 73.7389 16.8221 73.7322 16.0191C73.726 15.1953 73.7233 14.3714 73.7203 13.5476C73.7139 11.9393 73.7037 10.3311 73.6909 8.72279C73.5303 8.66797 73.3696 8.61315 73.2041 8.55666C72.5831 8.34474 71.9621 8.13277 71.3412 7.92079C71.0599 7.82479 70.7787 7.7288 70.4975 7.63281C68.9439 7.10252 67.3905 6.5717 65.838 6.03802C65.0319 5.76092 64.2254 5.48476 63.4187 5.20929C62.9168 5.03785 62.4151 4.86584 61.9138 4.69279C61.4088 4.51852 60.9034 4.34558 60.3976 4.17358C60.1202 4.07886 59.8433 3.98277 59.5664 3.88663C59.3997 3.8302 59.233 3.77377 59.0612 3.71562C58.9162 3.66587 58.7711 3.61611 58.6217 3.56485C57.764 3.34944 57.1188 3.48193 56.2921 3.7642Z" fill="#216BDC"/>
<path d="M68.1273 14.4371C68.7522 14.9217 68.9977 15.2578 69.1049 16.035C69.0979 16.6033 68.9507 16.8514 68.5679 17.2651C68.4719 17.3696 68.3759 17.4741 68.2771 17.5817C67.8127 18.0681 67.3445 18.5495 66.8682 19.0243C66.7629 19.1298 66.6577 19.2354 66.5492 19.3441C66.2052 19.6888 65.8606 20.0329 65.5161 20.3769C65.2755 20.6176 65.035 20.8583 64.7944 21.099C64.2925 21.6012 63.7902 22.1031 63.2878 22.6049C62.6428 23.249 61.9985 23.8938 61.3544 24.5388C60.8589 25.0348 60.363 25.5305 59.867 26.0261C59.6292 26.2639 59.3914 26.5018 59.1538 26.7398C58.823 27.071 58.4917 27.4017 58.1603 27.7322C58.0617 27.8311 57.9632 27.9299 57.8617 28.0317C57.7717 28.1213 57.6817 28.2109 57.589 28.3031C57.5108 28.3813 57.4326 28.4594 57.352 28.54C56.9023 28.9478 56.4433 28.9546 55.8588 28.9416C54.6146 28.7128 53.8085 27.244 53.0865 26.2997C52.6231 25.6941 52.1426 25.1033 51.6596 24.5133C50.8912 23.5715 50.1307 22.6245 49.3873 21.6629C49.1729 21.3897 48.9536 21.1202 48.7246 20.8593C48.1661 20.2068 47.9929 19.7065 48.0449 18.8396C48.1697 18.3093 48.4488 18.062 48.8773 17.7457C49.3707 17.499 49.8498 17.5009 50.3813 17.5953C51.328 18.2027 51.9548 19.129 52.6318 20.0121C53.1077 20.6322 53.5995 21.2385 54.094 21.8438C54.2581 22.0451 54.4222 22.2464 54.5863 22.4478C54.7026 22.5904 54.7026 22.5904 54.8212 22.7359C55.3001 23.3253 55.7736 23.919 56.2465 24.5133C56.943 23.9312 57.6037 23.3274 58.2423 22.6826C58.33 22.5947 58.4176 22.5068 58.508 22.4162C58.6963 22.2273 58.8844 22.0382 59.0724 21.849C59.3698 21.5497 59.6676 21.2509 59.9656 20.9522C60.5968 20.3193 61.2274 19.6858 61.8579 19.0522C62.5914 18.3152 63.3252 17.5784 64.0596 16.8422C64.3533 16.5475 64.6466 16.2523 64.9398 15.9572C65.1188 15.7776 65.2978 15.5981 65.4769 15.4186C65.5585 15.3362 65.6402 15.2537 65.7243 15.1688C66.4864 14.4067 67.0583 14.2825 68.1273 14.4371Z" fill="#216BDC"/>
<path d="M50.3314 54.4149C50.4327 54.4139 50.534 54.4129 50.6383 54.4119C50.9733 54.4089 51.3083 54.4072 51.6433 54.4057C51.7579 54.4051 51.8725 54.4045 51.9906 54.4038C52.5972 54.4007 53.2037 54.3985 53.8103 54.3971C54.4359 54.3955 55.0614 54.3903 55.6869 54.3843C56.1688 54.3804 56.6507 54.3791 57.1326 54.3786C57.3631 54.3779 57.5937 54.3761 57.8242 54.3733C58.1475 54.3696 58.4705 54.3698 58.7938 54.3708C58.9774 54.37 59.1611 54.3691 59.3503 54.3682C59.9562 54.4562 60.2814 54.6659 60.7578 55.0431C61.0594 55.4745 61.0986 55.7931 61.0492 56.312C61.0412 56.4235 61.0333 56.5349 61.0251 56.6498C60.8509 57.1689 60.5766 57.4038 60.1562 57.7501C59.6484 57.8446 59.6484 57.8446 59.0612 57.845C58.9 57.8466 58.9 57.8466 58.7356 57.8483C58.3819 57.8508 58.0285 57.8479 57.6748 57.8447C57.4281 57.8448 57.1815 57.8452 56.9349 57.8458C56.4185 57.8462 55.9023 57.844 55.386 57.8399C54.725 57.8348 54.0642 57.8357 53.4032 57.8385C52.8941 57.8401 52.385 57.8387 51.8759 57.8365C51.6322 57.8357 51.3885 57.8358 51.1449 57.8367C50.8039 57.8375 50.4633 57.8344 50.1223 57.8303C49.9286 57.8294 49.7348 57.8285 49.5352 57.8275C48.9439 57.7374 48.6957 57.5657 48.2754 57.1485C47.9959 56.5895 48.0379 55.9525 48.125 55.3439C48.765 54.4963 49.3148 54.4231 50.3314 54.4149Z" fill="#216BDC"/>
<path d="M11.8314 54.4149C11.9327 54.4139 12.034 54.4129 12.1383 54.4119C12.4733 54.4089 12.8083 54.4072 13.1433 54.4057C13.2579 54.4051 13.3725 54.4045 13.4906 54.4038C14.0972 54.4007 14.7037 54.3985 15.3103 54.3971C15.9359 54.3955 16.5614 54.3903 17.1869 54.3843C17.6688 54.3804 18.1507 54.3791 18.6326 54.3786C18.8631 54.3779 19.0937 54.3761 19.3242 54.3733C19.6475 54.3696 19.9705 54.3698 20.2938 54.3708C20.4774 54.37 20.6611 54.3691 20.8503 54.3682C21.4562 54.4562 21.7814 54.6659 22.2578 55.0431C22.5594 55.4745 22.5986 55.7931 22.5492 56.312C22.5412 56.4235 22.5333 56.5349 22.5251 56.6498C22.3509 57.1689 22.0766 57.4038 21.6562 57.7501C21.1484 57.8446 21.1484 57.8446 20.5612 57.845C20.4 57.8466 20.4 57.8466 20.2356 57.8483C19.8819 57.8508 19.5285 57.8479 19.1748 57.8447C18.9281 57.8448 18.6815 57.8452 18.4349 57.8458C17.9185 57.8462 17.4023 57.844 16.886 57.8399C16.225 57.8348 15.5642 57.8357 14.9032 57.8385C14.3941 57.8401 13.885 57.8387 13.3759 57.8365C13.1322 57.8357 12.8885 57.8358 12.6449 57.8367C12.3039 57.8375 11.9633 57.8344 11.6223 57.8303C11.4286 57.8294 11.2348 57.8285 11.0352 57.8275C10.4439 57.7374 10.1957 57.5657 9.77536 57.1485C9.49586 56.5895 9.53789 55.9525 9.62497 55.3439C10.265 54.4963 10.8148 54.4231 11.8314 54.4149Z" fill="#216BDC"/>
</g>
<defs>
<clipPath id="clip0_1540_639">
<rect width="77" height="77" fill="white"/>
</clipPath>
</defs>
</svg>
