<svg width="81" height="97" viewBox="0 0 81 97" fill="none" xmlns="http://www.w3.org/2000/svg">
<path d="M62.2208 0C62.3851 0.289578 62.7178 0.220427 62.9599 0.3328C64.7276 1.12806 65.726 2.45925 65.8384 4.40418C65.8946 5.34639 65.8081 6.29724 66.0501 7.22216C66.6596 9.51285 68.7169 11.0515 71.2539 11.0947C72.7666 11.1207 74.275 11.0861 75.7877 11.1034C78.8737 11.1379 80.918 13.1866 80.9483 16.2639C80.9656 17.8674 80.9569 19.4752 80.9483 21.0787C80.944 22.1678 80.3907 22.8334 79.5263 22.8161C78.6706 22.7989 78.1303 22.1289 78.1217 21.0355C78.1087 19.4622 78.1303 17.889 78.113 16.3114C78.0957 14.7339 77.3091 13.9516 75.7099 13.9343C74.2318 13.917 72.7493 13.9516 71.2712 13.9257C66.5126 13.8436 63.1112 10.4334 63.0204 5.67054C63.0204 5.45012 63.0204 5.22969 63.0204 5.00927C62.9988 3.449 62.3937 2.83095 60.8464 2.83095C56.2521 2.82663 51.6534 2.83095 47.059 2.83095C38.1513 2.83095 29.2392 2.83095 20.3314 2.83095C18.5248 2.83095 17.9716 3.38417 17.9629 5.19079C17.937 9.57768 15.5901 12.7674 11.683 13.7009C10.6327 13.9516 9.56087 13.9386 8.489 13.93C7.41713 13.9213 6.34959 13.917 5.27772 13.93C3.67856 13.9516 2.90058 14.7296 2.86601 16.3028C2.86601 16.3676 2.86601 16.4281 2.86601 16.493C2.86601 25.5606 2.72338 34.6283 2.90059 43.6917C3.25499 61.8314 11.1211 75.9558 26.136 86.104C29.4164 88.3212 32.7617 90.439 36.1069 92.5612C38.7348 94.2295 41.5916 94.532 44.2367 92.894C49.4707 89.6568 54.8258 86.5665 59.5887 82.6334C69.2225 74.6808 75.1351 64.511 77.361 52.2061C77.9099 49.1634 78.1303 46.0947 78.1217 43.0001C78.1087 38.2156 78.1217 33.4311 78.1217 28.6466C78.1217 28.2706 78.0957 27.8946 78.2556 27.5315C78.5323 26.9135 79.012 26.5936 79.6733 26.6584C80.3691 26.7276 80.8186 27.1339 80.9353 27.8513C80.9656 28.0372 80.9569 28.2274 80.9569 28.4175C80.9569 33.5478 81.0693 38.6824 80.931 43.8127C80.4296 62.7995 72.2523 77.6458 56.5935 88.3601C53.352 90.5774 50.0153 92.6519 46.7046 94.7698C42.5468 97.4278 38.3674 97.4278 34.2355 94.7265C29.9999 91.9604 25.6043 89.4234 21.5719 86.3633C10.0493 77.6285 3.12101 66.0713 0.683368 51.8301C0.190654 48.943 0.0220927 46.0213 0.0307368 43.0866C0.048025 34.2739 0.108534 25.4569 0.000482544 16.6442C-0.038416 13.4502 2.27821 10.8613 5.58026 11.0861C6.77315 11.1682 7.97036 11.099 9.16757 11.099C13.0228 11.099 15.119 9.01149 15.132 5.15621C15.1406 2.43332 16.1174 1.04594 18.6588 0.133986C18.7063 0.116698 18.7323 0.0475426 18.7712 0C33.2544 0 47.7376 0 62.2208 0Z" fill="#216BDC"/>
<path d="M40.5366 8.50098C45.4464 8.50098 50.3606 8.50098 55.2705 8.50098C56.9734 8.50098 57.5784 8.93318 58.1879 10.4718C60.2927 15.7664 64.1739 18.7832 69.8272 19.4963C71.7678 19.7426 72.4506 20.4904 72.4506 22.4655C72.4506 29.6445 72.6019 36.8277 72.4117 43.998C71.9925 59.8254 65.0772 72.1951 52.0635 81.1634C49.7858 82.7323 47.4346 84.1888 45.105 85.68C42.0061 87.6595 38.9072 87.6724 35.8299 85.6281C31.8795 83.0046 27.7044 80.6966 24.1301 77.5372C15.0797 69.5414 9.90184 59.5401 8.73489 47.5119C8.28972 42.9305 8.60523 38.3232 8.54472 33.7331C8.53175 32.8082 9.07633 32.268 9.89752 32.2464C10.7619 32.2247 11.354 32.8298 11.3627 33.8455C11.38 36.5857 11.4189 39.3259 11.3627 42.0617C11.2028 49.3358 12.6939 56.2381 16.0219 62.7169C19.4709 69.4377 24.4023 74.8402 30.7342 78.9635C32.947 80.4027 35.1729 81.8247 37.3772 83.2726C39.469 84.647 41.5523 84.6643 43.6312 83.2682C47.413 80.7269 51.4325 78.5313 54.8772 75.5145C63.4175 68.0287 68.2842 58.6368 69.4425 47.3303C69.7364 44.4691 69.6067 41.6036 69.6197 38.7424C69.6413 33.5473 69.6197 28.3522 69.6413 23.1571C69.6413 22.5347 69.4944 22.3488 68.8417 22.2451C62.6914 21.2424 58.3348 17.8712 55.8194 12.1661C55.5557 11.5696 55.3137 11.319 54.6178 11.319C45.2044 11.3449 35.791 11.3449 26.3775 11.3233C25.7595 11.3233 25.4612 11.4702 25.2019 12.071C22.7038 17.8755 18.2953 21.2683 12.0629 22.2538C11.4837 22.3445 11.3411 22.5174 11.3584 23.0577C11.393 24.2549 11.3843 25.4521 11.367 26.645C11.3497 27.7298 10.7706 28.3652 9.88455 28.3306C9.04175 28.296 8.54903 27.6866 8.54039 26.6234C8.53175 25.2403 8.53607 23.8529 8.54039 22.4699C8.54039 20.4601 9.23192 19.6908 11.2503 19.492C14.4746 19.1765 17.2104 17.8323 19.5227 15.5891C20.9663 14.1888 22.0295 12.5378 22.7427 10.6577C23.4256 8.85538 23.9485 8.50098 25.9021 8.50098C30.7817 8.50098 35.6613 8.50098 40.5409 8.50098H40.5366Z" fill="#216BDC"/>
<path d="M8.53613 24.2168L8.54478 35.8172L11.3844 37.3515L11.3757 26.1055L8.53613 24.2168Z" fill="#216BDC"/>
<path d="M78.1254 19.7041L78.1211 30.2672L80.9477 29.6967L80.9564 20.8408L78.1254 19.7041Z" fill="#216BDC"/>
</svg>
