<svg width="83" height="77" viewBox="0 0 83 77" fill="none" xmlns="http://www.w3.org/2000/svg">
<path d="M31.8044 30.413C31.9021 38.5237 25.7291 45.4439 17.6149 46.3203C8.86518 47.263 1.05469 40.9922 0.118964 32.2774C-0.300016 28.3809 0.590318 24.6974 1.94502 21.1011C4.44494 14.4568 8.34146 8.63646 12.7163 3.10941C13.3867 2.26447 14.0815 1.43698 14.7972 0.630443C15.5235 -0.190061 16.2846 -0.217992 16.9794 0.595528C22.517 7.08972 27.3492 14.0204 30.2367 22.1451C31.1864 24.8161 31.738 27.5709 31.8044 30.4095V30.413ZM15.9355 3.24907C15.4606 3.82168 15.0975 4.23367 14.7588 4.66662C10.5586 9.98069 6.79123 15.5601 4.37162 21.9391C3.07627 25.3538 2.21037 28.8523 2.73759 32.5568C3.70823 39.3931 9.91263 44.3022 16.9794 43.8308C23.6622 43.3839 29.1438 37.5426 29.2137 30.818C29.2416 28.0981 28.6725 25.4934 27.7926 22.9446C25.8548 17.3478 22.7753 12.3759 19.3048 7.62392C18.2468 6.17844 17.1191 4.78533 15.9355 3.25256V3.24907Z" fill="#216BDC"/>
<path d="M64.5363 37.1444C62.8744 37.1444 61.387 37.1548 59.9031 37.1409C59.0686 37.1304 58.5135 36.6555 58.4437 35.9607C58.3738 35.2415 58.9499 34.5746 59.7669 34.5676C62.4205 34.5397 65.0775 34.5467 67.7311 34.5641C68.4782 34.5676 68.9775 35.0739 68.9845 35.8211C69.002 38.4502 69.002 41.0758 68.9845 43.7049C68.9775 44.5463 68.391 45.1294 67.6647 45.1085C66.935 45.0875 66.4183 44.5044 66.4078 43.6385C66.3903 42.1791 66.4043 40.7231 66.4043 39.0507C66.0342 39.3964 65.7968 39.6059 65.5768 39.8258C56.1742 49.3157 46.7681 58.8056 37.3689 68.299C35.3299 70.3555 33.015 70.8723 30.7735 69.6956C30.2463 69.4163 29.7435 69.0357 29.3245 68.6098C24.6215 63.8474 19.9324 59.0675 15.2468 54.2911C14.5136 53.5439 14.4193 52.9294 14.9116 52.3254C15.4598 51.6515 16.2593 51.662 16.989 52.4057C19.4575 54.9056 21.9155 57.416 24.3771 59.9229C26.6256 62.2133 28.8636 64.5108 31.1226 66.7907C32.397 68.0756 33.9508 68.093 35.2182 66.8151C44.8792 57.0739 54.5332 47.3256 64.1872 37.5773C64.264 37.5005 64.3268 37.4097 64.5398 37.1548L64.5363 37.1444Z" fill="#216BDC"/>
<path d="M41.1372 77.0004C28.1069 77.0004 15.0732 77.0004 2.04287 77.0004C0.667214 77.0004 0.0177949 76.5954 0.000337415 75.726C-0.0171201 74.8462 0.642775 74.4062 1.99748 74.4062C28.0895 74.4062 54.178 74.4062 80.27 74.4062C81.6247 74.4062 82.2846 74.8427 82.2706 75.7226C82.2567 76.5919 81.6073 77.0004 80.2316 77.0004C67.2013 77.0004 54.1675 77.0004 41.1372 77.0004Z" fill="#216BDC"/>
<path d="M79.6871 51.3419C77.1313 53.8034 74.5476 56.2265 72.0372 58.7229C68.8181 61.9211 65.6652 65.1857 62.4705 68.4083C59.9252 70.9781 56.8352 70.9571 54.3039 68.3874C52.6943 66.7499 51.0707 65.1228 49.4646 63.4818C48.8152 62.8184 48.7733 62.0433 49.3285 61.5091C49.9046 60.9505 50.5994 60.9993 51.2942 61.6942C52.9352 63.3387 54.5622 65.0006 56.2032 66.6486C57.6662 68.1185 59.1501 68.1255 60.5991 66.6591C66.1366 61.0447 71.6706 55.4269 77.2046 49.8091C77.3757 49.638 77.5294 49.4495 77.8331 49.1073C76.5238 49.1073 75.3821 49.1073 74.2404 49.1073C73.8807 49.1073 73.5211 49.1178 73.1615 49.1038C72.3096 49.0689 71.7265 48.5347 71.7265 47.805C71.7265 47.0787 72.3131 46.5271 73.1685 46.5201C75.0225 46.5026 76.8764 46.5131 78.7304 46.5131C79.4218 46.5131 80.1131 46.4991 80.8044 46.5166C81.7436 46.541 82.2638 47.0264 82.2708 47.9481C82.2883 50.5213 82.2883 53.0946 82.2708 55.6678C82.2638 56.5093 81.6703 57.0924 80.944 57.0679C80.2423 57.0435 79.708 56.4848 79.6941 55.6748C79.6696 54.1909 79.6871 52.707 79.6871 51.3453V51.3419Z" fill="#216BDC"/>
<path d="M33.0858 43.6875C33.5432 43.9633 33.9203 44.103 34.1786 44.3614C36.7763 46.966 39.3635 49.5846 41.9368 52.2138C42.5722 52.8632 42.5827 53.5685 42.0275 54.1236C41.5108 54.6403 40.7182 54.6089 40.1107 54.0014C37.5165 51.3932 34.9328 48.7711 32.3526 46.149C31.9371 45.7265 31.6613 45.2063 32.0174 44.6616C32.2653 44.2846 32.6982 44.0297 33.0858 43.6875Z" fill="#216BDC"/>
<path d="M15.7056 39.0303C15.7091 39.966 15.0178 40.6049 14.2148 40.4443C10.4684 39.6902 7.84975 37.5499 6.46711 33.9641C6.18779 33.2448 6.49505 32.564 7.11304 32.2952C7.78341 32.0054 8.52361 32.2672 8.82039 33.0109C9.89926 35.7133 11.8405 37.3474 14.6931 37.9339C15.3181 38.0631 15.6812 38.51 15.7056 39.0338V39.0303Z" fill="#216BDC"/>
<path d="M9.14545 25.9484C8.91851 26.8422 8.79979 27.4951 8.57983 28.1166C8.35288 28.752 7.80821 28.9615 7.16926 28.8428C6.50937 28.7206 6.11832 28.2388 6.17069 27.6103C6.23005 26.9085 6.4151 26.1928 6.68045 25.5364C6.93184 24.9184 7.57777 24.7054 8.14339 24.9672C8.57634 25.1663 8.87311 25.662 9.14894 25.9449L9.14545 25.9484Z" fill="#216BDC"/>
<path d="M44.0939 18.6046C44.0835 17.7143 44.5269 17.1382 45.2636 17.0823C45.9828 17.0265 46.4856 17.5292 46.6218 18.4405C46.9221 20.4447 47.8124 21.3385 49.8165 21.6457C50.7313 21.7854 51.2341 22.2777 51.1887 22.9935C51.1398 23.7581 50.5497 24.1945 49.5965 24.1736C46.6602 24.1072 44.1288 21.5445 44.0939 18.6046Z" fill="#216BDC"/>
<path d="M51.4334 29.0719C58.0224 29.0719 63.3639 23.7304 63.3639 17.1414C63.3639 10.5524 58.0224 5.21094 51.4334 5.21094C44.8444 5.21094 39.5029 10.5524 39.5029 17.1414C39.5029 23.7304 44.8444 29.0719 51.4334 29.0719Z" stroke="#216BDC" stroke-width="2" stroke-miterlimit="10"/>
</svg>
