<svg width="105" height="57" viewBox="0 0 105 57" fill="none" xmlns="http://www.w3.org/2000/svg">
<path d="M50.3284 28.5141C50.3284 37.3344 50.3284 46.1546 50.3284 54.9748C50.3284 55.1314 50.3284 55.2881 50.3284 55.4447C50.3255 56.5412 49.9838 57.0139 49.2063 56.9997C48.4516 56.9854 48.1212 56.5241 48.1183 55.476C48.1183 53.4112 48.1183 51.3464 48.1183 49.2816C48.1183 33.4582 48.1183 17.6377 48.1183 1.81429C48.1183 1.56652 48.1098 1.31874 48.1269 1.07381C48.1753 0.450105 48.6224 0.00866664 49.2063 0.000122684C49.7873 -0.00842127 50.26 0.430169 50.3141 1.04249C50.3369 1.28741 50.3255 1.53519 50.3255 1.78296C50.3255 10.6943 50.3255 19.6028 50.3255 28.5141H50.3284Z" fill="#216BDC"/>
<path d="M44.9173 28.4172C44.9088 37.2887 43.1914 45.8355 40.0615 54.1174C39.7682 54.8949 39.2071 55.231 38.5806 55.0202C37.9227 54.7981 37.6692 54.1487 37.9682 53.3513C39.6543 48.8714 40.9387 44.2833 41.7361 39.5585C42.7671 33.4353 42.9465 27.2894 42.263 21.115C41.6051 15.1769 40.1498 9.43537 38.0366 3.85617C38.0195 3.81345 38.0053 3.77073 37.991 3.73086C37.692 2.89355 37.8828 2.28977 38.5321 2.03346C39.1786 1.77998 39.771 2.10466 40.0672 2.92488C40.5912 4.3802 41.1238 5.82982 41.5937 7.30223C43.7781 14.1687 44.9116 21.2032 44.923 28.4143L44.9173 28.4172Z" fill="#216BDC"/>
<path d="M53.1934 28.3944C53.1962 19.5913 54.905 11.11 58.0463 2.90211C58.3995 1.97651 59.1314 1.68887 59.8235 2.18727C60.3788 2.58883 60.3333 3.11001 60.1396 3.691C59.3393 6.09185 58.4678 8.47277 57.7957 10.9106C55.7309 18.4208 55.0047 26.0619 55.654 33.8369C56.2008 40.3844 57.6761 46.7127 59.963 52.8586C60.0342 53.0466 60.1026 53.2374 60.1652 53.4282C60.4045 54.1487 60.1681 54.7639 59.5643 54.9974C58.952 55.231 58.3511 54.9405 58.0919 54.2142C57.5308 52.6536 56.9669 51.0957 56.4714 49.5151C54.3126 42.64 53.1934 35.6027 53.1934 28.3916V28.3944Z" fill="#216BDC"/>
<path d="M93.5263 28.4385C93.5178 34.0405 88.9211 38.6229 83.3191 38.62C77.6972 38.6172 73.1006 34.0063 73.129 28.373C73.1518 23.2552 77.0222 18.2627 83.359 18.2911C89.7983 18.3196 93.5263 23.4061 93.5263 28.4357V28.4385ZM91.4871 28.3986C91.4814 23.8903 87.8104 20.242 83.2963 20.2534C78.8136 20.2648 75.171 23.9216 75.1682 28.41C75.1682 32.9212 78.825 36.5809 83.3334 36.578C87.8417 36.578 91.4957 32.9127 91.4871 28.3958V28.3986Z" fill="#216BDC" stroke="#216BDC" stroke-width="0.5" stroke-miterlimit="10"/>
<path d="M74.4738 18.4853C74.2061 18.7844 74.0039 19.1261 73.7077 19.3141C73.3033 19.5704 72.8875 19.4052 72.5572 19.0777C71.6914 18.2148 70.8313 17.349 69.9683 16.4832C69.393 15.9079 68.8092 15.3383 68.2425 14.7545C67.7526 14.2532 67.7355 13.6466 68.1741 13.2223C68.5842 12.8264 69.1965 12.8549 69.6721 13.3276C71.1189 14.7602 72.56 16.1984 73.9897 17.6509C74.1777 17.8445 74.2716 18.1293 74.4767 18.4882L74.4738 18.4853Z" fill="#216BDC" stroke="#216BDC" stroke-width="0.5" stroke-miterlimit="10"/>
<path d="M98.7926 14.1011C98.7071 14.2492 98.6075 14.5511 98.4081 14.7533C96.9784 16.2086 95.5373 17.6525 94.0849 19.0879C93.6292 19.5379 93.0482 19.535 92.6296 19.1249C92.1967 18.6977 92.2052 18.1053 92.6751 17.6326C94.1134 16.1858 95.5601 14.7476 97.0012 13.3036C97.3316 12.9733 97.7189 12.848 98.1632 13.0331C98.5619 13.1983 98.7556 13.5229 98.7926 14.1011Z" fill="#216BDC" stroke="#216BDC" stroke-width="0.5" stroke-miterlimit="10"/>
<path d="M93.2964 37.3427C93.6638 37.5477 93.9685 37.6446 94.1707 37.8439C95.6232 39.2679 97.0614 40.709 98.494 42.1558C98.9525 42.6172 98.9553 43.2409 98.5367 43.6481C98.1294 44.044 97.5171 44.0383 97.0785 43.6026C95.6232 42.1558 94.1764 40.7005 92.7239 39.248C92.3736 38.8977 92.2398 38.4648 92.4904 38.049C92.6613 37.767 93.003 37.5876 93.2935 37.3398L93.2964 37.3427Z" fill="#216BDC" stroke="#216BDC" stroke-width="0.5" stroke-miterlimit="10"/>
<path d="M74.2744 38.6218C74.1975 38.7614 74.112 39.049 73.9241 39.2427C72.4858 40.7094 71.0334 42.1619 69.5723 43.6058C69.1309 44.0444 68.5186 44.0444 68.1142 43.6485C67.6927 43.2384 67.7012 42.6176 68.1597 42.1533C69.5951 40.7066 71.0391 39.2712 72.4801 37.8301C72.8134 37.4969 73.195 37.3801 73.6393 37.5624C74.0408 37.7276 74.2317 38.0494 74.2772 38.6218H74.2744Z" fill="#216BDC" stroke="#216BDC" stroke-width="0.5" stroke-miterlimit="10"/>
<path d="M65.9245 27.3958C66.8929 27.3958 67.8612 27.3958 68.8295 27.3958C69.6241 27.3958 70.0741 27.7746 70.0684 28.4268C70.0627 29.0562 69.6155 29.435 68.858 29.435C66.8701 29.4378 64.8822 29.4378 62.8943 29.435C62.2022 29.435 61.7551 29.022 61.7608 28.404C61.7665 27.7917 62.2136 27.3986 62.9171 27.3958C63.9196 27.3929 64.9221 27.3958 65.9245 27.3958Z" fill="#216BDC" stroke="#216BDC" stroke-width="0.5" stroke-miterlimit="10"/>
<path d="M100.565 27.396C101.567 27.396 102.57 27.3932 103.572 27.396C104.315 27.3989 104.763 27.7976 104.751 28.4327C104.743 29.045 104.298 29.4323 103.586 29.4323C101.581 29.438 99.5764 29.4352 97.5714 29.4323C96.8851 29.4323 96.4351 29.0108 96.4465 28.3928C96.455 27.7976 96.8936 27.396 97.5572 27.3932C98.5597 27.3875 99.5622 27.3932 100.565 27.3932V27.396Z" fill="#216BDC" stroke="#216BDC" stroke-width="0.5" stroke-miterlimit="10"/>
<path d="M82.3062 11.0195C82.3062 10.0512 82.3005 9.08 82.3062 8.11169C82.3119 7.41393 82.7191 6.96964 83.3343 6.9668C83.9466 6.9668 84.3425 7.40539 84.3425 8.12023C84.3482 10.0739 84.3482 12.0305 84.3425 13.9842C84.3425 14.6991 83.9551 15.1405 83.3428 15.1519C82.7049 15.1633 82.309 14.7162 82.3033 13.9728C82.2976 12.9874 82.3033 12.002 82.3033 11.0138L82.3062 11.0195Z" fill="#216BDC" stroke="#216BDC" stroke-width="0.5" stroke-miterlimit="10"/>
<path d="M84.3452 45.8126C84.3452 46.7638 84.348 47.7179 84.3452 48.6691C84.3423 49.4124 83.9408 49.8596 83.3057 49.8482C82.6933 49.8368 82.3089 49.3953 82.306 48.6805C82.3032 46.7268 82.3003 44.7702 82.306 42.8165C82.306 42.1159 82.7133 41.6688 83.3227 41.6602C83.9351 41.6545 84.3366 42.0931 84.3423 42.8051C84.348 43.8076 84.3423 44.8101 84.3423 45.8154L84.3452 45.8126Z" fill="#216BDC" stroke="#216BDC" stroke-width="0.5" stroke-miterlimit="10"/>
<path d="M15.2756 30.3922V30.3865C19.4877 30.3865 23.7028 30.4121 27.9149 30.378C30.7344 30.3552 33.3973 28.5382 34.377 26.0661C35.7127 22.6969 34.3656 18.9319 31.1901 17.1662C28.2396 15.5229 24.4347 16.3602 22.256 19.1284C21.5582 20.017 21.4415 20.7689 22.0338 21.1362C22.9224 21.6859 23.267 20.8913 23.6657 20.3474C24.7764 18.8322 26.3656 18.1373 28.1371 18.1971C30.6604 18.2797 32.9445 20.541 33.0441 23.0074C33.1296 25.1291 31.9106 27.6838 28.9943 28.3303C28.0687 28.5353 27.1061 28.6521 26.1606 28.6549C18.565 28.6806 10.9666 28.6692 3.37099 28.672C2.79854 28.672 2.20331 28.6264 1.6622 28.766C1.39164 28.8344 1.03849 29.2786 1.04703 29.5463C1.05273 29.8169 1.41157 30.227 1.69637 30.3096C2.16914 30.4492 2.70741 30.3922 3.2172 30.3922C7.23855 30.395 11.2599 30.3922 15.2841 30.3922H15.2756ZM10.5251 34.0405C10.5251 34.0405 10.5251 34.0376 10.5251 34.0348C8.0958 34.0348 5.66931 34.0348 3.23998 34.0348C2.8555 34.0348 2.47387 34.0291 2.08939 34.0462C1.54828 34.0689 1.03564 34.1829 1.00146 34.855C0.970137 35.5271 1.44575 35.7094 2.00396 35.7407C2.45109 35.7663 2.89822 35.7578 3.34536 35.7578C7.81954 35.7578 12.2937 35.735 16.7651 35.7777C17.7049 35.7863 18.6875 35.9144 19.576 36.2106C21.2506 36.766 22.1478 38.0647 22.2987 39.7962C22.424 41.2516 21.356 42.9176 20.0032 43.5043C18.3998 44.1964 16.8932 44.034 15.5575 42.8464C15.2271 42.5502 14.9737 42.1287 14.5977 41.9351C14.3186 41.7898 13.7861 41.7841 13.5696 41.9636C13.3503 42.143 13.2877 42.6385 13.3304 42.9717C13.3674 43.2537 13.6351 43.5214 13.8373 43.7635C15.6828 45.9507 19.0378 46.4121 21.4927 44.8258C23.9277 43.2537 24.8704 39.9586 23.586 37.3925C22.481 35.1825 20.6355 34.0889 18.1919 34.0519C15.6373 34.0148 13.0798 34.0433 10.5223 34.0433L10.5251 34.0405ZM6.54364 25.0152C7.88504 25.0152 9.22644 25.0067 10.5707 25.0152C13.6437 25.0408 16.8391 22.4862 16.4404 18.4506C16.1214 15.221 13.0143 12.86 9.55681 13.3755C7.96479 13.6119 6.70883 14.472 5.79177 15.7877C5.47565 16.2406 5.37597 16.8358 5.91993 17.1291C6.21897 17.2886 6.76579 17.1605 7.12178 16.9924C7.44361 16.8415 7.63727 16.4371 7.92207 16.1865C9.26632 14.9988 10.7786 14.865 12.3735 15.5713C13.7177 16.1665 14.7772 17.8668 14.6291 19.305C14.4525 21.0337 13.5468 22.3153 11.8665 22.865C11.0349 23.1355 10.1236 23.2608 9.24353 23.2808C6.87971 23.3377 4.51588 23.2979 2.1492 23.3121C1.53119 23.315 0.944505 23.4545 1.00431 24.2491C1.05558 24.9155 1.59954 25.0095 2.13496 25.0124C3.60452 25.0237 5.07408 25.0152 6.54364 25.0181V25.0152Z" fill="white"/>
<path d="M15.2762 30.3924C11.2549 30.3924 7.2335 30.3924 3.2093 30.3924C2.69951 30.3924 2.16408 30.4494 1.68847 30.3099C1.40652 30.2273 1.04768 29.8172 1.03913 29.5466C1.03344 29.2789 1.38374 28.8346 1.6543 28.7663C2.19541 28.6267 2.79064 28.6723 3.36309 28.6723C10.9587 28.6694 18.5571 28.6808 26.1527 28.6552C27.0982 28.6523 28.0608 28.5356 28.9864 28.3305C31.9056 27.6869 33.1217 25.1322 33.0362 23.0076C32.9366 20.5413 30.6525 18.28 28.1292 18.1974C26.3577 18.1376 24.7714 18.8325 23.6578 20.3476C23.2591 20.8916 22.9145 21.689 22.0259 21.1365C21.4336 20.7691 21.5503 20.0172 22.2481 19.1287C24.4268 16.3576 28.2317 15.5231 31.1822 17.1664C34.3549 18.935 35.702 22.6972 34.3691 26.0664C33.3894 28.5384 30.7265 30.3554 27.907 30.3782C23.6949 30.4124 19.4798 30.3868 15.2677 30.3868V30.3924H15.2762Z" fill="#216BDC" stroke="#216BDC" stroke-width="0.5" stroke-miterlimit="10"/>
<path d="M10.5245 34.0437C13.082 34.0437 15.6366 34.0152 18.1941 34.0522C20.6377 34.0892 22.4803 35.1829 23.5882 37.3929C24.8726 39.9589 23.93 43.254 21.4949 44.8261C19.04 46.4125 15.685 45.9511 13.8395 43.7638C13.6345 43.5218 13.3696 43.254 13.3326 42.9721C13.2899 42.6389 13.3525 42.1433 13.5718 41.9639C13.7911 41.7845 14.3209 41.793 14.6 41.9354C14.9759 42.1291 15.2294 42.5506 15.5597 42.8468C16.8926 44.0372 18.402 44.1996 20.0054 43.5047C21.3582 42.9208 22.4262 41.2519 22.3009 39.7966C22.15 38.0622 21.2529 36.7663 19.5782 36.211C18.6897 35.9148 17.71 35.7895 16.7673 35.7781C12.2931 35.7354 7.82176 35.7582 3.34757 35.7582C2.90044 35.7582 2.4533 35.7638 2.00617 35.7411C1.44796 35.7097 0.969502 35.5275 1.00368 34.8553C1.03501 34.1861 1.55049 34.0693 2.09161 34.0465C2.47324 34.0294 2.85772 34.0351 3.24219 34.0351C5.67153 34.0351 8.09801 34.0351 10.5273 34.0351C10.5273 34.0351 10.5273 34.038 10.5273 34.0408L10.5245 34.0437Z" fill="#216BDC" stroke="#216BDC" stroke-width="0.5" stroke-miterlimit="10"/>
<path d="M6.54354 25.0154C5.07398 25.0154 3.60442 25.0211 2.13486 25.0097C1.60229 25.0068 1.05548 24.9129 1.00421 24.2464C0.944405 23.449 1.53109 23.3123 2.1491 23.3094C4.51293 23.2952 6.87961 23.3351 9.24343 23.2781C10.1235 23.2553 11.0348 23.1329 11.8664 22.8623C13.5467 22.3126 14.4524 21.031 14.629 19.3023C14.7771 17.8641 13.7205 16.1667 12.3734 15.5686C10.7785 14.8623 9.26622 14.9962 7.92197 16.1838C7.63717 16.4372 7.44351 16.8388 7.12168 16.9898C6.76569 17.1578 6.21887 17.2888 5.91983 17.1265C5.37587 16.8331 5.47555 16.2379 5.79168 15.7851C6.70873 14.4693 7.96469 13.6092 9.55671 13.3728C13.0142 12.8602 16.1213 15.2212 16.4403 18.4479C16.839 22.4835 13.6436 25.041 10.5706 25.0125C9.22919 25.0011 7.88779 25.0125 6.54354 25.0125V25.0154Z" fill="#216BDC" stroke="#216BDC" stroke-width="0.5" stroke-miterlimit="10"/>
</svg>
