<svg width="55" height="78" viewBox="0 0 55 78" fill="none" xmlns="http://www.w3.org/2000/svg">
<path d="M6.50316 77.9771C5.52997 77.6045 4.4808 77.3549 3.59082 76.8339C0.598898 75.0684 -0.783101 71.4072 0.450571 68.1512C2.0822 63.8388 3.89472 59.5915 5.64212 55.3224C9.33228 46.3214 13.0297 37.3239 16.7271 28.3264C17.7618 25.812 18.29 23.2072 18.2646 20.4794C18.2357 17.2885 18.2393 14.1012 18.2646 10.9103C18.2755 9.59339 17.9535 8.42122 17.0237 7.46974C15.5513 5.96111 15.3812 4.09432 15.5477 2.14433C15.6128 1.3665 16.1916 0.820207 17.031 0.820207C24.0387 0.802118 31.0463 0.802118 38.054 0.820207C38.9476 0.820207 39.4686 1.41353 39.5409 2.30713C39.7001 4.30777 39.3854 6.14924 37.8985 7.65786C37.1025 8.46463 36.8095 9.50294 36.8059 10.6208C36.8059 14.0867 36.7914 17.5526 36.8095 21.0184C36.824 23.5834 37.4064 26.0327 38.3832 28.406C43.7014 41.3469 48.9509 54.3167 54.3378 67.225C56.4289 72.2357 53.2958 77.2391 48.7483 77.8722C48.6795 77.8831 48.618 77.941 48.5529 77.9771H6.49954H6.50316ZM4.19138 66.8343C4.61466 66.8343 4.93665 66.8271 5.25501 66.8343C6.35483 66.8596 7.05668 67.4457 7.0603 68.3429C7.06753 69.2365 6.35845 69.8335 5.26587 69.8479C4.54592 69.8552 3.8296 69.8479 3.13136 69.8479C2.70084 72.6626 4.81726 74.9563 7.78024 74.9599C20.9418 74.9707 34.0998 74.9671 47.2613 74.9527C47.8293 74.9527 48.4154 74.8586 48.9617 74.7066C51.0564 74.1169 52.8617 71.5338 51.5557 68.39C47.8402 59.454 44.1898 50.4927 40.5358 41.5314C40.3224 41.0104 40.0402 40.8983 39.5301 40.9019C36.2885 40.92 33.0506 40.9127 29.8091 40.9127C25.0372 40.9127 20.2653 40.9091 15.4934 40.9236C15.2329 40.9236 14.8133 41.0104 14.7373 41.1804C14.162 42.4539 13.6519 43.7563 13.0876 45.1347C13.5868 45.1347 13.9848 45.1166 14.3791 45.1347C15.3776 45.1854 16.0071 45.7787 16.0071 46.6506C16.0071 47.5297 15.374 48.1158 14.3683 48.1411C13.6917 48.1592 13.0116 48.1302 12.3351 48.1556C12.1397 48.1628 11.8394 48.246 11.7779 48.3799C11.2099 49.6714 10.6853 50.9811 10.1137 52.3703C10.6347 52.3703 11.0109 52.3486 11.3836 52.3739C12.3604 52.4354 13.0044 53.0758 12.9754 53.9332C12.9465 54.7689 12.3133 55.3478 11.3582 55.3767C10.6817 55.3984 10.0016 55.3695 9.32505 55.3912C9.14777 55.3984 8.86558 55.4635 8.81493 55.5829C8.25417 56.8817 7.72597 58.1986 7.15074 59.6095C7.66447 59.6095 8.04072 59.5842 8.41336 59.6132C9.33228 59.6928 9.97625 60.3548 9.94731 61.158C9.91837 61.9792 9.26354 62.5798 8.33015 62.6087C7.67894 62.6304 7.02412 62.5942 6.37292 62.6268C6.18117 62.634 5.88451 62.7317 5.82662 62.8692C5.26948 64.1499 4.75575 65.4487 4.18776 66.8343H4.19138ZM16.0976 37.834H38.9802C38.8644 37.5301 38.7812 37.2949 38.6871 37.067C37.6307 34.4947 36.5671 31.9225 35.5179 29.3466C34.6026 27.1036 33.9406 24.7809 33.8863 22.3498C33.8067 18.7103 33.8501 15.0707 33.785 11.4312C33.7452 9.09775 34.3132 7.02836 35.9376 5.28458C36.2668 4.93365 36.4079 4.40545 36.6829 3.8664H18.3225C18.7422 4.55378 19.0063 5.14349 19.4115 5.61018C20.7103 7.10795 21.2819 8.84088 21.2819 10.7945C21.2783 14.1084 21.2819 17.4223 21.2819 20.7362C21.2783 23.3193 20.9093 25.8446 19.9614 28.254C18.8037 31.1917 17.599 34.1113 16.4159 37.0381C16.3146 37.2877 16.217 37.5373 16.1012 37.8304L16.0976 37.834Z" fill="#216BDC"/>
</svg>
