<svg width="76" height="76" viewBox="0 0 76 76" fill="none" xmlns="http://www.w3.org/2000/svg">
<g clip-path="url(#clip0_1540_650)">
<path d="M21.8141 25.2179C21.9272 25.2179 22.0403 25.2179 22.1568 25.2179C22.5271 25.218 22.8973 25.2191 23.2675 25.2203C23.5256 25.2206 23.7837 25.2208 24.0418 25.2209C24.7185 25.2215 25.3952 25.2229 26.0719 25.2246C26.7634 25.2261 27.455 25.2268 28.1465 25.2275C29.5015 25.2291 30.8565 25.2317 32.2115 25.2348C32.231 25.321 32.2506 25.4072 32.2708 25.4961C32.7732 27.7427 32.7732 27.7427 33.5103 29.9198C33.5994 30.1488 33.6884 30.3778 33.777 30.6069C33.8151 30.7022 33.8531 30.7974 33.8923 30.8955C33.9965 31.1826 34.0691 31.4695 34.1412 31.766C33.8978 31.7664 33.8978 31.7664 33.6496 31.7667C32.1166 31.7692 30.5836 31.7755 29.0506 31.7856C28.2626 31.7907 27.4746 31.7945 26.6865 31.7951C25.9252 31.7957 25.1639 31.7999 24.4026 31.8066C24.113 31.8085 23.8234 31.8092 23.5338 31.8085C21.3672 31.7592 21.3672 31.7592 19.4458 32.6567C18.8089 33.3594 18.4938 34.3201 18.1265 35.1875C17.9627 35.5743 17.7969 35.9603 17.6313 36.3464C17.5414 36.5561 17.4516 36.7659 17.3619 36.9757C16.8208 38.2406 16.2706 39.5015 15.7205 40.7625C15.5507 41.1517 15.3811 41.5411 15.2115 41.9305C15.1069 42.1706 15.0023 42.4106 14.8976 42.6507C14.8493 42.7617 14.801 42.8726 14.7512 42.987C14.416 43.7555 14.416 43.7555 14.2505 44.0863C14.4041 44.0857 14.5576 44.0851 14.7157 44.0845C18.4562 44.0702 22.1966 44.0644 25.937 44.0675C27.7459 44.0688 29.5548 44.0674 31.3636 44.0594C32.9408 44.0524 34.5179 44.0507 36.0951 44.0552C36.9297 44.0574 37.7642 44.057 38.5988 44.0504C39.3856 44.0442 40.1721 44.045 40.9589 44.0511C41.2465 44.0521 41.5342 44.0506 41.8218 44.0464C43.8359 44.0184 44.8341 44.3295 46.313 45.7192C46.8267 46.0851 47.3563 46.4226 47.8902 46.7582C48.0987 46.8898 48.0987 46.8898 48.3115 47.0241C51.5456 49.0398 55.0629 51.1097 58.9952 50.2651C61.1227 49.7253 63.1494 48.6299 64.9425 47.3821C65.313 47.2035 65.313 47.2035 65.6389 47.3021C66.0188 47.5833 66.3257 47.8968 66.649 48.2426C66.7661 48.3611 66.7661 48.3611 66.8855 48.4821C68.9308 50.6528 69.7861 53.5097 69.7901 56.4413C69.7908 56.5747 69.7915 56.708 69.7923 56.8455C69.7945 57.2843 69.7955 57.723 69.7963 58.1618C69.7967 58.3126 69.7971 58.4633 69.7976 58.6187C69.7998 59.4167 69.8012 60.2147 69.8018 61.0127C69.8026 61.833 69.8062 62.6533 69.8104 63.4736C69.8132 64.1079 69.814 64.7422 69.8142 65.3766C69.8146 65.6788 69.8158 65.981 69.8178 66.2832C69.8347 69.0916 69.5329 71.6356 67.5118 73.7646C65.566 75.5719 63.5838 76.1274 60.9915 76.0514C58.8279 75.9347 57.0477 74.8727 55.5701 73.3291C53.8884 71.1916 53.7349 69.2139 53.7349 66.5004C41.2439 66.5004 28.7529 66.5004 15.8833 66.5004C15.8833 67.4311 15.8833 68.3618 15.8833 69.3207C15.4904 71.3947 14.5128 73.2279 12.8149 74.5213C11.2649 75.5524 9.83933 76.0272 7.9976 76.0375C7.79727 76.0421 7.79727 76.0421 7.59288 76.0468C5.38102 76.0595 3.59065 75.1229 2.03459 73.5999C0.863441 72.3746 -0.0112664 70.7116 -0.0213113 68.9807C-0.0223734 68.8545 -0.0234355 68.7283 -0.0245298 68.5982C-0.024929 68.4609 -0.0253281 68.3235 -0.0257393 68.182C-0.0267147 68.0364 -0.0276901 67.8908 -0.0286951 67.7407C-0.0316225 67.2583 -0.0333557 66.7759 -0.0348355 66.2934C-0.0354404 66.1281 -0.0360445 65.9627 -0.0366678 65.7923C-0.0397647 64.9159 -0.0418877 64.0394 -0.0432793 63.1629C-0.0449151 62.2623 -0.0500141 61.3616 -0.0559224 60.461C-0.0598255 59.7648 -0.061047 59.0685 -0.061578 58.3723C-0.0622963 58.0406 -0.0640102 57.7089 -0.0667807 57.3773C-0.0850475 55.0441 0.0391882 52.9608 1.1602 50.8588C1.2117 50.7597 1.26319 50.6605 1.31625 50.5584C1.7393 49.7646 2.21366 49.0573 2.82085 48.391C2.92704 48.2713 3.03324 48.1515 3.14265 48.0281C3.73449 47.3966 4.28951 46.8969 5.0576 46.489C6.50639 45.6922 6.95175 44.6666 7.51518 43.1679C7.61091 42.9287 7.70739 42.6898 7.80456 42.4513C8.01347 41.9372 8.21946 41.4222 8.424 40.9064C8.95694 39.5743 9.53846 38.2627 10.1143 36.9487C10.3019 36.5198 10.4886 36.0905 10.6748 35.661C11.2602 34.3112 11.8507 32.9638 12.4507 31.6205C12.5045 31.4992 12.5584 31.3779 12.6138 31.253C13.7152 28.7999 15.4062 26.8735 17.9603 25.8813C19.2412 25.426 20.4544 25.211 21.8141 25.2179ZM10.3262 54.9965C10.1796 55.1687 10.1796 55.1687 10.0299 55.3444C9.48541 56.094 9.56836 57.0043 9.64897 57.891C9.90052 58.7184 10.5652 59.3633 11.2818 59.8207C12.1158 60.1839 12.9156 60.163 13.8087 60.1622C13.9661 60.1629 14.1234 60.1635 14.2856 60.1642C14.6177 60.165 14.9498 60.1651 15.2819 60.1645C15.7878 60.164 16.2936 60.1675 16.7995 60.1712C17.123 60.1716 17.4466 60.1717 17.7701 60.1715C17.9203 60.1729 18.0705 60.1743 18.2252 60.1757C19.4382 60.1678 20.4824 59.9717 21.3755 59.0785C21.9519 58.278 22.1581 57.5453 22.1177 56.5551C21.939 55.7143 21.5514 54.9524 20.8305 54.4538C20.1143 54.0253 19.5525 53.866 18.7296 53.8593C18.5879 53.8579 18.4461 53.8565 18.3001 53.855C18.1478 53.8544 17.9955 53.8537 17.8385 53.8531C17.6808 53.8522 17.523 53.8514 17.3604 53.8505C17.0265 53.8491 16.6926 53.8481 16.3587 53.8476C15.8502 53.8461 15.3418 53.8415 14.8333 53.8368C14.5084 53.8359 14.1835 53.8351 13.8586 53.8345C13.7075 53.8327 13.5564 53.8309 13.4007 53.829C12.1627 53.8328 11.1576 53.9928 10.3262 54.9965ZM48.3262 54.9965C48.1796 55.1687 48.1796 55.1687 48.0299 55.3444C47.4854 56.094 47.5684 57.0043 47.649 57.891C47.9005 58.7184 48.5652 59.3633 49.2818 59.8207C50.1158 60.1839 50.9156 60.163 51.8087 60.1622C51.9661 60.1629 52.1234 60.1635 52.2856 60.1642C52.6177 60.165 52.9498 60.1651 53.2819 60.1645C53.7878 60.164 54.2936 60.1675 54.7995 60.1712C55.123 60.1716 55.4466 60.1717 55.7701 60.1715C55.9203 60.1729 56.0705 60.1743 56.2252 60.1757C57.4382 60.1678 58.4824 59.9717 59.3755 59.0785C59.9519 58.278 60.1581 57.5453 60.1177 56.5551C59.939 55.7143 59.5514 54.9524 58.8305 54.4538C58.1143 54.0253 57.5525 53.866 56.7296 53.8593C56.5879 53.8579 56.4461 53.8565 56.3001 53.855C56.1478 53.8544 55.9955 53.8537 55.8385 53.8531C55.6808 53.8522 55.523 53.8514 55.3604 53.8505C55.0265 53.8491 54.6926 53.8481 54.3587 53.8476C53.8502 53.8461 53.3418 53.8415 52.8333 53.8368C52.5084 53.8359 52.1835 53.8351 51.8586 53.8345C51.7075 53.8327 51.5564 53.8309 51.4007 53.829C50.1627 53.8328 49.1576 53.9928 48.3262 54.9965Z" fill="#216BDC"/>
<path d="M60.2587 0.738726C60.4864 0.816556 60.7142 0.894147 60.9421 0.971515C61.546 1.17733 62.1487 1.38645 62.7512 1.59637C63.3728 1.8124 63.9953 2.02563 64.6177 2.23919C65.5952 2.57497 66.572 2.9126 67.5484 3.25158C68.5101 3.58541 69.473 3.91544 70.4374 4.24154C70.9944 4.42991 71.5509 4.6198 72.1072 4.8102C72.3496 4.89291 72.5922 4.97507 72.8349 5.05665C73.1616 5.16673 73.4873 5.27922 73.8129 5.39247C73.9871 5.45203 74.1612 5.51159 74.3407 5.57295C75.0854 5.91406 75.6866 6.34154 76 7.12502C76.0382 7.44247 76.0382 7.44247 76.0397 7.79069C76.0416 7.98968 76.0416 7.98968 76.0436 8.1927C76.0434 8.33719 76.0433 8.48168 76.0431 8.63056C76.0441 8.78368 76.0451 8.93681 76.0462 9.09458C76.049 9.60237 76.0496 10.1101 76.0499 10.6179C76.0508 10.9727 76.0518 11.3275 76.0529 11.6823C76.0547 12.428 76.0552 13.1737 76.055 13.9194C76.055 14.8673 76.059 15.8151 76.0642 16.7629C76.0675 17.4973 76.0681 18.2316 76.0679 18.9659C76.0683 19.3148 76.0696 19.6637 76.0719 20.0126C76.1032 25.2172 74.6448 29.8746 71.3985 33.9922C71.3364 34.0713 71.2743 34.1503 71.2103 34.2318C69.6635 36.1771 67.8897 37.9853 65.9063 39.4844C65.7714 39.588 65.7714 39.588 65.6339 39.6938C63.7494 41.1354 61.7501 42.3506 59.6719 43.4922C59.5655 43.5507 59.4591 43.6093 59.3494 43.6696C58.3427 44.2118 57.4058 44.6658 56.2578 44.3828C49.2396 41.7566 42.7769 35.8063 39.6062 29.049C38.5578 26.7032 37.9545 24.2021 37.9569 21.6314C37.9559 21.4747 37.9549 21.3181 37.9539 21.1567C37.9511 20.6454 37.9505 20.1341 37.9502 19.6228C37.9492 19.2647 37.9482 18.9066 37.9472 18.5485C37.9454 17.8012 37.9448 17.0539 37.945 16.3065C37.945 15.3492 37.941 14.3919 37.9359 13.4346C37.9326 12.6965 37.932 11.9585 37.9321 11.2204C37.9318 10.8673 37.9305 10.5142 37.9282 10.1612C37.9253 9.66842 37.9261 9.17584 37.9279 8.6831C37.9262 8.53781 37.9246 8.39252 37.9229 8.24283C37.9306 7.3987 38.0208 6.89917 38.5938 6.23439C39.275 5.68286 39.9963 5.43138 40.8186 5.16866C40.9491 5.12572 41.0796 5.08278 41.214 5.03854C41.4953 4.94612 41.7769 4.8543 42.0585 4.76304C42.6587 4.56857 43.2578 4.37114 43.857 4.17386C44.1665 4.07195 44.4761 3.9702 44.7858 3.86858C46.1941 3.40601 47.5979 2.93077 49.0003 2.45043C49.3813 2.32004 49.7625 2.19019 50.1438 2.06046C51.2411 1.68638 52.336 1.30771 53.4248 0.909197C53.6003 0.845742 53.7758 0.782287 53.9567 0.716909C54.2689 0.603451 54.5804 0.487787 54.8907 0.369154C56.8144 -0.326867 58.4011 0.0854919 60.2587 0.738726ZM62.1524 14.2118C62.038 14.3652 61.9236 14.5187 61.8057 14.6768C61.6753 14.8498 61.5449 15.0228 61.4143 15.1957C61.3474 15.2847 61.2806 15.3736 61.2117 15.4653C60.8803 15.9027 60.5406 16.3334 60.2007 16.7642C60.0633 16.9387 59.9259 17.1132 59.7884 17.2878C59.686 17.4178 59.686 17.4178 59.5815 17.5504C59.3762 17.811 59.1712 18.0718 58.9662 18.3326C58.8989 18.4184 58.8315 18.5042 58.762 18.5925C58.6272 18.7642 58.4925 18.9359 58.3578 19.1077C58.001 19.5625 57.6426 20.0159 57.2818 20.4676C57.2067 20.562 57.1316 20.6564 57.0542 20.7537C56.91 20.935 56.7652 21.116 56.6199 21.2965C56.3245 21.6687 56.1126 21.9591 55.961 22.4141C55.4177 22.1093 54.9778 21.7719 54.523 21.3472C54.0072 20.8761 53.4866 20.4164 52.9458 19.9741C52.7722 19.8321 52.7722 19.8321 52.595 19.6871C51.7006 19.0602 50.7901 19.0133 49.7266 19.1485C48.8438 19.4936 48.2694 20.0939 47.7853 20.899C47.4737 21.6451 47.541 22.5663 47.7296 23.3412C48.3155 24.7148 49.8332 25.6256 50.957 26.5338C51.3435 26.854 51.7138 27.186 52.083 27.5259C52.6555 28.0461 53.245 28.5353 53.855 29.0103C53.9351 29.0734 54.0151 29.1365 54.0976 29.2016C55.0439 29.928 55.8265 30.1178 57 29.9844C58.2427 29.6989 58.9407 28.567 59.6719 27.6094C59.7456 27.5133 59.8193 27.4172 59.8953 27.3182C60.2159 26.9 60.5358 26.4812 60.8542 26.0613C61.4203 25.3161 62.0013 24.5853 62.5943 23.8613C63.2951 23.0057 63.9777 22.1394 64.6486 21.2602C65.0475 20.738 65.4534 20.2214 65.8599 19.7051C65.9284 19.6178 65.9969 19.5306 66.0675 19.4407C66.3671 19.0593 66.6678 18.6791 66.972 18.3013C67.0642 18.1859 67.1565 18.0706 67.2515 17.9517C67.3689 17.8067 67.3689 17.8067 67.4886 17.6589C68.0329 16.8607 68.0977 16.08 67.9844 15.1406C67.67 14.0731 66.941 13.4038 65.999 12.8584C64.4486 12.4893 63.1719 12.9905 62.1524 14.2118Z" fill="#216BDC"/>
</g>
<defs>
<clipPath id="clip0_1540_650">
<rect width="76" height="76" fill="white"/>
</clipPath>
</defs>
</svg>
